<?xml version="1.0" encoding="UTF-8" standalone="no"?>
<!-- Generator: Adobe Illustrator 17.1.0, SVG Export Plug-In . SVG Version: 6.00 Build 0)  -->

<svg
   version="1.1"
   id="Layer_1"
   x="0px"
   y="0px"
   viewBox="0 0 26 26"
   enable-background="new 0 0 26 26"
   xml:space="preserve"
   width="416px"
   height="416px"
   sodipodi:docname="icons8_brightness_down.svg"
   inkscape:version="1.1.1 (3bf5ae0d25, 2021-09-20)"
   xmlns:inkscape="http://www.inkscape.org/namespaces/inkscape"
   xmlns:sodipodi="http://sodipodi.sourceforge.net/DTD/sodipodi-0.dtd"
   xmlns="http://www.w3.org/2000/svg"
   xmlns:svg="http://www.w3.org/2000/svg"
   xmlns:rdf="http://www.w3.org/1999/02/22-rdf-syntax-ns#"
   xmlns:cc="http://creativecommons.org/ns#"
   xmlns:dc="http://purl.org/dc/elements/1.1/"><metadata
     id="metadata1511"><rdf:RDF><cc:Work
         rdf:about=""><dc:format>image/svg+xml</dc:format><dc:type
           rdf:resource="http://purl.org/dc/dcmitype/StillImage" /></cc:Work></rdf:RDF></metadata><defs
     id="defs1509" /><sodipodi:namedview
     pagecolor="#ffffff"
     bordercolor="#666666"
     borderopacity="1"
     objecttolerance="10"
     gridtolerance="10"
     guidetolerance="10"
     inkscape:pageopacity="0"
     inkscape:pageshadow="2"
     inkscape:window-width="1920"
     inkscape:window-height="995"
     id="namedview1507"
     showgrid="false"
     inkscape:zoom="0.40114712"
     inkscape:cx="209.39948"
     inkscape:cy="246.79225"
     inkscape:window-x="0"
     inkscape:window-y="0"
     inkscape:window-maximized="1"
     inkscape:current-layer="Layer_1"
     inkscape:pagecheckerboard="0" /><line
     fill="none"
     stroke="#000000"
     stroke-width="2"
     stroke-miterlimit="10"
     x1="26"
     y1="1"
     x2="0"
     y2="1"
     id="line1484" /><line
     fill="none"
     stroke="#000000"
     stroke-width="2"
     stroke-miterlimit="10"
     x1="26"
     y1="1"
     x2="0"
     y2="1"
     id="line1486" /><line
     fill="none"
     stroke="#000000"
     stroke-width="2"
     stroke-miterlimit="10"
     x1="26"
     y1="1"
     x2="0"
     y2="1"
     id="line1488"
     style="stroke:#808080;stroke-opacity:1" /><g
     id="g1492"
     style="stroke:#808080;stroke-opacity:1"
     transform="matrix(1,0,0,-1,0,26)"><path
       fill="none"
       stroke="#000000"
       stroke-width="2"
       stroke-linecap="round"
       stroke-linejoin="round"
       stroke-miterlimit="10"
       d="m 19,25 c 0,-3.3 -2.7,-6 -6,-6 v 0 c -3.3,0 -6,2.7 -6,6"
       id="path1490"
       style="stroke:#808080;stroke-opacity:1" /></g><line
     fill="none"
     stroke="#000000"
     stroke-width="2"
     stroke-linecap="round"
     stroke-linejoin="round"
     stroke-miterlimit="10"
     x1="13"
     y1="13"
     x2="13"
     y2="10"
     id="line1494"
     style="stroke:#808080;stroke-opacity:1" /><line
     fill="none"
     stroke="#000000"
     stroke-width="2"
     stroke-linecap="round"
     stroke-linejoin="round"
     stroke-miterlimit="10"
     x1="2.5999999"
     y1="7"
     x2="5.1999998"
     y2="5.5"
     id="line1496"
     style="stroke:#808080;stroke-opacity:1" /><line
     fill="none"
     stroke="#000000"
     stroke-width="2"
     stroke-linecap="round"
     stroke-linejoin="round"
     stroke-miterlimit="10"
     x1="19"
     y1="11.4"
     x2="17.5"
     y2="8.7999992"
     id="line1498"
     style="stroke:#808080;stroke-opacity:1" /><line
     fill="none"
     stroke="#000000"
     stroke-width="2"
     stroke-linecap="round"
     stroke-linejoin="round"
     stroke-miterlimit="10"
     x1="20.799999"
     y1="5.5"
     x2="23.4"
     y2="7"
     id="line1500"
     style="stroke:#808080;stroke-opacity:1" /><line
     fill="none"
     stroke="#000000"
     stroke-width="2"
     stroke-linecap="round"
     stroke-linejoin="round"
     stroke-miterlimit="10"
     x1="7"
     y1="11.4"
     x2="8.5"
     y2="8.7999992"
     id="line1502"
     style="stroke:#808080;stroke-opacity:1" /><path
     fill="#000000"
     d="m 12.7,25.8 c 0.1,0.1 0.2,0.2 0.3,0.2 0.1,0 0.2,0 0.3,-0.1 0.1,-0.1 2.2,-2 3.6,-4 0.1,-0.2 0.1,-0.4 0,-0.5 C 16.8,21.1 16.7,21 16.5,21 h -1.8 c 0,0 -0.2,-4.4 -0.4,-4.5 C 14.1,16.2 13.5,16 13,16 12.5,16 11.9,16.2 11.8,16.4 11.6,16.7 11.3,21 11.3,21 H 9.6 c -0.2,0 -0.4,0.1 -0.5,0.3 -0.1,0.2 -0.1,0.4 0,0.5 1.4,2 3.5,4 3.6,4 z"
     id="path1504"
     style="fill:#808080" /></svg>
