<?xml version="1.0" encoding="UTF-8"?>
<svg xmlns="http://www.w3.org/2000/svg" xmlns:xlink="http://www.w3.org/1999/xlink" width="104pt" height="104pt" viewBox="0 0 104 104" version="1.1">
<g id="surface1">
<path style=" stroke:none;fill-rule:nonzero;fill:#5B5B5B;fill-opacity:1;" d="M 41.363281 0.738281 C 18.925781 0.738281 0.738281 9.234375 0.738281 19.695313 C 0.738281 30.160156 18.925781 38.65625 41.363281 38.65625 C 63.800781 38.65625 81.988281 30.160156 81.988281 19.695313 C 81.988281 9.234375 63.800781 0.738281 41.363281 0.738281 Z M 0.738281 24.746094 L 0.738281 39.394531 C 0.738281 49.875 18.925781 58.351563 41.363281 58.351563 C 63.800781 58.351563 81.988281 49.875 81.988281 39.394531 L 81.988281 24.746094 C 81.988281 35.222656 63.800781 43.703125 41.363281 43.703125 C 18.925781 43.703125 0.738281 35.222656 0.738281 24.746094 Z M 0.738281 44.441406 L 0.738281 59.089844 C 0.738281 69.570313 18.925781 78.050781 41.363281 78.050781 C 47.550781 78.050781 53.367188 77.355469 58.597656 76.203125 C 57.550781 74.726563 57 73.015625 57 71.15625 C 57 68.785156 57.921875 66.523438 59.582031 64.875 L 64.507813 60.074219 C 57.953125 62.199219 49.964844 63.398438 41.363281 63.398438 C 18.925781 63.398438 0.738281 54.921875 0.738281 44.441406 Z M 81.988281 44.441406 C 81.988281 49.289063 78.066406 53.644531 71.648438 57 C 73.832031 57.121094 75.894531 58.042969 77.433594 59.582031 L 81.003906 63.152344 C 81.621094 61.828125 81.988281 60.492188 81.988281 59.089844 Z M 71.15625 63.277344 C 70.507813 63.277344 69.925781 63.523438 69.433594 64.015625 L 64.015625 69.433594 C 63.03125 70.402344 63.03125 71.894531 64.015625 72.878906 L 73.863281 82.726563 L 64.015625 92.574219 C 63.03125 93.546875 63.03125 95.039063 64.015625 96.023438 L 69.433594 101.4375 C 70.402344 102.425781 71.894531 102.425781 72.878906 101.4375 L 82.726563 91.589844 L 92.574219 101.4375 C 93.546875 102.425781 95.039063 102.425781 96.023438 101.4375 L 101.4375 96.023438 C 102.425781 95.039063 102.425781 93.546875 101.4375 92.574219 L 91.589844 82.726563 L 101.4375 72.878906 C 102.425781 71.910156 102.425781 70.402344 101.4375 69.433594 L 96.023438 64.015625 C 95.039063 63.03125 93.546875 63.03125 92.574219 64.015625 L 82.726563 73.863281 L 72.878906 64.015625 C 72.386719 63.523438 71.800781 63.277344 71.15625 63.277344 Z M 0.738281 64.136719 L 0.738281 78.789063 C 0.738281 89.265625 18.925781 97.746094 41.363281 97.746094 C 46.996094 97.746094 52.367188 97.238281 57.246094 96.269531 C 57.089844 95.636719 57 94.960938 57 94.300781 C 57 91.929688 57.921875 89.667969 59.582031 88.019531 L 64.875 82.726563 L 62.539063 80.265625 C 56.382813 82.019531 49.105469 83.097656 41.363281 83.097656 C 18.925781 83.097656 0.738281 74.617188 0.738281 64.136719 Z "/>
</g>
</svg>
