<?xml version="1.0" encoding="UTF-8" standalone="no"?>
<svg
   xmlns:dc="http://purl.org/dc/elements/1.1/"
   xmlns:cc="http://creativecommons.org/ns#"
   xmlns:rdf="http://www.w3.org/1999/02/22-rdf-syntax-ns#"
   xmlns:svg="http://www.w3.org/2000/svg"
   xmlns="http://www.w3.org/2000/svg"
   xmlns:sodipodi="http://sodipodi.sourceforge.net/DTD/sodipodi-0.dtd"
   xmlns:inkscape="http://www.inkscape.org/namespaces/inkscape"
   width="500px"
   height="500px"
   viewBox="0 0 26 26"
   version="1.1"
   id="svg829"
   sodipodi:docname="icons8_disable_toolbar.svg"
   inkscape:version="0.92.3 (5aff6ba, 2018-11-25)">
  <metadata
     id="metadata835">
    <rdf:RDF>
      <cc:Work
         rdf:about="">
        <dc:format>image/svg+xml</dc:format>
        <dc:type
           rdf:resource="http://purl.org/dc/dcmitype/StillImage" />
        <dc:title></dc:title>
      </cc:Work>
    </rdf:RDF>
  </metadata>
  <defs
     id="defs833" />
  <sodipodi:namedview
     pagecolor="#ffffff"
     bordercolor="#666666"
     borderopacity="1"
     objecttolerance="10"
     gridtolerance="10"
     guidetolerance="10"
     inkscape:pageopacity="0"
     inkscape:pageshadow="2"
     inkscape:window-width="1853"
     inkscape:window-height="1025"
     id="namedview831"
     showgrid="false"
     inkscape:zoom="0.2235"
     inkscape:cx="-485.22361"
     inkscape:cy="377.62056"
     inkscape:window-x="67"
     inkscape:window-y="27"
     inkscape:window-maximized="1"
     inkscape:current-layer="svg829" />
  <g
     id="surface1"
     style="fill:#808080">
    <path
       style="fill:#808080;fill-opacity:1;fill-rule:nonzero;stroke:none"
       d="M 20.78125,12.528375 H 4.824219 C 2.164063,12.528375 0,14.696344 0,17.352594 V 18.2925 c 0,2.65625 2.164063,4.824219 4.824219,4.824219 H 20.78125 c 2.660156,0 4.824219,-2.167969 4.824219,-4.824219 v -0.939906 c 0,-2.65625 -2.164063,-4.824219 -4.824219,-4.824219 z m -9.949219,6.894531 v -2.953125 h 3.941407 v 2.953125 z M 3.9375,17.454156 c 0,-0.59375 0.394531,-0.984375 0.988281,-0.984375 h 2.953125 v 2.953125 H 4.925781 c -0.59375,0 -0.988281,-0.390625 -0.988281,-0.984375 z m 17.730469,0.984375 c 0,0.59375 -0.394531,0.984375 -0.984375,0.984375 h -2.957031 v -2.953125 h 2.957031 c 0.589844,0 0.984375,0.390625 0.984375,0.984375 z"
       id="path826"
       inkscape:connector-curvature="0"
       sodipodi:nodetypes="ssssssssscccccssccsssssccsss" />
  </g>
  <path
     inkscape:connector-curvature="0"
     d="m 12.757122,0.78628204 c -2.996138,0 -5.424889,2.32459136 -5.424889,5.19223586 0,2.8676445 2.428751,5.1926411 5.424889,5.1926411 2.996137,0 5.425312,-2.3249966 5.425312,-5.1926411 0,-2.8676445 -2.429175,-5.19223586 -5.425312,-5.19223586 z m 2.447382,6.97296366 -0.587711,0.5621004 c -0.107549,0.1033422 -0.283693,0.1033422 -0.391242,0 L 12.757122,6.9158923 11.289116,8.3209409 C 11.181143,8.4242831 11.005423,8.4242831 10.89745,8.3201128 L 10.30974,7.7592457 c -0.107126,-0.1037475 -0.107126,-0.2711213 0,-0.375274 L 11.778169,5.9789231 10.310163,4.5738746 c -0.107549,-0.1037474 -0.107549,-0.272337 0,-0.3748687 l 0.587711,-0.5625057 c 0.107972,-0.1041527 0.284116,-0.1041527 0.391665,0 l 1.467583,1.4054538 1.468429,-1.4054538 c 0.107973,-0.1041527 0.284116,-0.1041527 0.391242,0 l 0.587711,0.5616952 c 0.107549,0.1033422 0.107549,0.2719318 4.23e-4,0.3756792 l -1.468429,1.4050485 1.468429,1.4050486 c 0.106703,0.1041527 0.106703,0.2715265 -4.23e-4,0.375274 z"
     id="path5976"
     style="fill:#808080;stroke-width:0.41424352" />
</svg>
