<?xml version="1.0" encoding="UTF-8" standalone="no"?>
<!-- Generator: Adobe Illustrator 15.0.0, SVG Export Plug-In . SVG Version: 6.00 Build 0)  -->

<svg
   xmlns:dc="http://purl.org/dc/elements/1.1/"
   xmlns:cc="http://creativecommons.org/ns#"
   xmlns:rdf="http://www.w3.org/1999/02/22-rdf-syntax-ns#"
   xmlns:svg="http://www.w3.org/2000/svg"
   xmlns="http://www.w3.org/2000/svg"
   xmlns:sodipodi="http://sodipodi.sourceforge.net/DTD/sodipodi-0.dtd"
   xmlns:inkscape="http://www.inkscape.org/namespaces/inkscape"
   version="1.1"
   id="Layer_1"
   x="0px"
   y="0px"
   width="416px"
   height="416px"
   viewBox="0 0 26 26"
   enable-background="new 0 0 26 26"
   xml:space="preserve"
   sodipodi:docname="icons8_book_title2.svg"
   inkscape:version="0.92.3 (2405546, 2018-03-11)"><metadata
   id="metadata875"><rdf:RDF><cc:Work
       rdf:about=""><dc:format>image/svg+xml</dc:format><dc:type
         rdf:resource="http://purl.org/dc/dcmitype/StillImage" /><dc:title></dc:title></cc:Work></rdf:RDF></metadata><defs
   id="defs873" /><sodipodi:namedview
   pagecolor="#ffffff"
   bordercolor="#666666"
   borderopacity="1"
   objecttolerance="10"
   gridtolerance="10"
   guidetolerance="10"
   inkscape:pageopacity="0"
   inkscape:pageshadow="2"
   inkscape:window-width="1920"
   inkscape:window-height="976"
   id="namedview871"
   showgrid="false"
   inkscape:zoom="1.9951923"
   inkscape:cx="117.78313"
   inkscape:cy="208"
   inkscape:window-x="-8"
   inkscape:window-y="-8"
   inkscape:window-maximized="1"
   inkscape:current-layer="Layer_1" />




<path
   fill="#000000"
   d="M20.266,4.207c-0.244-0.24-0.494-0.484-0.74-0.732c-0.248-0.246-0.492-0.496-0.732-0.74  C17.082,0.988,16.063,0,15,0H7C4.795,0,3,1.795,3,4v18c0,2.205,1.795,4,4,4h12c2.205,0,4-1.795,4-4V8  C23,6.938,22.012,5.918,20.266,4.207z M21,22c0,1.104-0.896,2-2,2H7c-1.104,0-2-0.896-2-2V4c0-1.104,0.896-2,2-2l7.289-0.004  C15.01,2.18,15,3.066,15,3.953V7c0,0.551,0.449,1,1,1h3c0.998,0,2,0.005,2,1V22z"
   id="path868"
   style="fill:#808080" />
<line
   stroke-miterlimit="10"
   x1="19.914524"
   y1="18.043373"
   x2="6.1168013"
   y2="18.043373"
   id="line7316"
   style="fill:none;stroke:#808080;stroke-width:1.03731406;stroke-linejoin:round;stroke-miterlimit:10;stroke-dasharray:none;stroke-opacity:1" /><path
   inkscape:connector-curvature="0"
   d="m 16.816476,19.234655 c -0.332684,0 -0.624054,0.07695 -0.875525,0.229836 -0.250994,0.152464 -0.443845,0.371533 -0.579273,0.657206 -0.134995,0.285673 -0.202818,0.615773 -0.202818,0.990628 v 0.238537 c 0,0.587391 0.146985,1.050202 0.439943,1.386706 0.29296,0.336518 0.695562,0.504884 1.207048,0.504884 0.46768,0 0.844576,-0.120159 1.130334,-0.361263 0.285736,-0.241104 0.444061,-0.571632 0.475263,-0.991499 v -8.91e-4 h -0.820862 c -0.01878,0.237538 -0.09094,0.412607 -0.216036,0.525778 -0.125028,0.113671 -0.314555,0.170648 -0.568728,0.170648 -0.281257,0 -0.487614,-0.09684 -0.618059,-0.291592 -0.130445,-0.194323 -0.19574,-0.502816 -0.19574,-0.924473 v -0.29423 c 0.0036,-0.403337 0.07353,-0.701062 0.209824,-0.893132 0.136296,-0.192113 0.340558,-0.288098 0.614521,-0.288098 0.252365,0 0.44016,0.05776 0.563382,0.170648 0.123728,0.113243 0.195668,0.295728 0.216036,0.547529 h 0.821737 C 18.373463,20.176022 18.211166,19.837992 17.92998,19.596874 17.648722,19.35577 17.27689,19.234755 16.816397,19.234755 Z m -7.7483449,0.0542 -1.485654,3.899839 h 0.874637 l 0.27418,-0.803472 h 1.4406919 l 0.277718,0.803472 h 0.873763 L 9.8298751,19.288855 Z m 2.6283389,0 v 3.899839 h 1.551787 c 0.453234,-0.0036 0.801895,-0.102118 1.046569,-0.295087 0.245144,-0.192968 0.367644,-0.476502 0.367644,-0.85135 0,-0.21971 -0.05923,-0.405548 -0.177249,-0.557156 -0.117805,-0.151536 -0.279525,-0.253012 -0.484076,-0.30293 0.179198,-0.06775 0.319033,-0.173715 0.419648,-0.319475 0.100687,-0.14576 0.15074,-0.313699 0.15074,-0.504884 0,-0.349854 -0.125027,-0.615988 -0.375587,-0.797375 -0.250561,-0.181416 -0.617771,-0.271625 -1.102121,-0.271625 z m 0.821737,0.651143 h 0.575733 c 0.226581,0 0.392129,0.03851 0.497294,0.11581 0.105165,0.07759 0.157819,0.205234 0.157819,0.382158 0,0.31598 -0.207585,0.477714 -0.622465,0.484845 h -0.608381 z m -3.0691789,0.334237 0.5017001,1.459828 H 8.9526451 Z m 3.0691789,1.216956 h 0.753849 c 0.378333,0.0053 0.566922,0.186194 0.566922,0.543179 0,0.158667 -0.05417,0.283391 -0.163092,0.373457 -0.108777,0.09 -0.259517,0.134921 -0.453162,0.134921 h -0.704517 z"
   id="path3773"
   style="fill:#808080;stroke-width:0.44855294" /></svg>