<?xml version="1.0" encoding="UTF-8" standalone="no"?>
<!-- Generator: Adobe Illustrator 15.0.0, SVG Export Plug-In . SVG Version: 6.00 Build 0)  -->

<svg
   xmlns:dc="http://purl.org/dc/elements/1.1/"
   xmlns:cc="http://creativecommons.org/ns#"
   xmlns:rdf="http://www.w3.org/1999/02/22-rdf-syntax-ns#"
   xmlns:svg="http://www.w3.org/2000/svg"
   xmlns="http://www.w3.org/2000/svg"
   xmlns:sodipodi="http://sodipodi.sourceforge.net/DTD/sodipodi-0.dtd"
   xmlns:inkscape="http://www.inkscape.org/namespaces/inkscape"
   version="1.1"
   id="Layer_1"
   x="0px"
   y="0px"
   width="416px"
   height="416px"
   viewBox="0 0 26 26"
   enable-background="new 0 0 26 26"
   xml:space="preserve"
   sodipodi:docname="icons8_chapter_marks.svg"
   inkscape:version="0.92.3 (2405546, 2018-03-11)"><metadata
   id="metadata875"><rdf:RDF><cc:Work
       rdf:about=""><dc:format>image/svg+xml</dc:format><dc:type
         rdf:resource="http://purl.org/dc/dcmitype/StillImage" /><dc:title></dc:title></cc:Work></rdf:RDF></metadata><defs
   id="defs873" /><sodipodi:namedview
   pagecolor="#ffffff"
   bordercolor="#666666"
   borderopacity="1"
   objecttolerance="10"
   gridtolerance="10"
   guidetolerance="10"
   inkscape:pageopacity="0"
   inkscape:pageshadow="2"
   inkscape:window-width="1920"
   inkscape:window-height="976"
   id="namedview871"
   showgrid="false"
   inkscape:zoom="1.9951923"
   inkscape:cx="208"
   inkscape:cy="208"
   inkscape:window-x="-8"
   inkscape:window-y="-8"
   inkscape:window-maximized="1"
   inkscape:current-layer="Layer_1" />




<path
   fill="#000000"
   d="M20.266,4.207c-0.244-0.24-0.494-0.484-0.74-0.732c-0.248-0.246-0.492-0.496-0.732-0.74  C17.082,0.988,16.063,0,15,0H7C4.795,0,3,1.795,3,4v18c0,2.205,1.795,4,4,4h12c2.205,0,4-1.795,4-4V8  C23,6.938,22.012,5.918,20.266,4.207z M21,22c0,1.104-0.896,2-2,2H7c-1.104,0-2-0.896-2-2V4c0-1.104,0.896-2,2-2l7.289-0.004  C15.01,2.18,15,3.066,15,3.953V7c0,0.551,0.449,1,1,1h3c0.998,0,2,0.005,2,1V22z"
   id="path868"
   style="fill:#808080" />
<line
   stroke-miterlimit="10"
   x1="6.6096387"
   y1="4.831389"
   x2="6.6096387"
   y2="3.7204158"
   id="line7316"
   style="fill:none;stroke:#808080;stroke-width:0.29434636;stroke-linejoin:round;stroke-miterlimit:10;stroke-dasharray:none;stroke-opacity:1" /><line
   stroke-miterlimit="10"
   x1="14.291633"
   y1="3.6024086"
   x2="5.9445124"
   y2="3.6024086"
   id="line7316-3"
   style="fill:none;stroke:#808080;stroke-width:0.80681676;stroke-linejoin:round;stroke-miterlimit:10;stroke-dasharray:none;stroke-opacity:1" /><line
   stroke-miterlimit="10"
   x1="8.0819273"
   y1="4.8157277"
   x2="8.0819273"
   y2="3.7047544"
   id="line7316-7"
   style="fill:none;stroke:#808080;stroke-width:0.29434636;stroke-linejoin:round;stroke-miterlimit:10;stroke-dasharray:none;stroke-opacity:1" /><line
   stroke-miterlimit="10"
   x1="9.6795177"
   y1="5.2856069"
   x2="9.6795177"
   y2="3.7360797"
   id="line7316-2"
   style="fill:none;stroke:#808080;stroke-width:0.34762141;stroke-linejoin:round;stroke-miterlimit:10;stroke-dasharray:none;stroke-opacity:1" /><line
   stroke-miterlimit="10"
   x1="11.653013"
   y1="5.06633"
   x2="11.653013"
   y2="3.9553566"
   id="line7316-4"
   style="fill:none;stroke:#808080;stroke-width:0.29434636;stroke-linejoin:round;stroke-miterlimit:10;stroke-dasharray:none;stroke-opacity:1" /><line
   stroke-miterlimit="10"
   x1="14.096386"
   y1="5.0039806"
   x2="14.096386"
   y2="3.8930073"
   id="line7316-6"
   style="fill:none;stroke:#808080;stroke-width:0.29434636;stroke-linejoin:round;stroke-miterlimit:10;stroke-dasharray:none;stroke-opacity:1" /></svg>