<?xml version="1.0" encoding="UTF-8" standalone="no"?>
<svg
   xmlns:dc="http://purl.org/dc/elements/1.1/"
   xmlns:cc="http://creativecommons.org/ns#"
   xmlns:rdf="http://www.w3.org/1999/02/22-rdf-syntax-ns#"
   xmlns:svg="http://www.w3.org/2000/svg"
   xmlns="http://www.w3.org/2000/svg"
   xmlns:sodipodi="http://sodipodi.sourceforge.net/DTD/sodipodi-0.dtd"
   xmlns:inkscape="http://www.inkscape.org/namespaces/inkscape"
   width="500px"
   height="500px"
   viewBox="0 0 26 26"
   version="1.1"
   id="svg952"
   sodipodi:docname="icons8-quote-2.svg"
   inkscape:version="0.92.3 (2405546, 2018-03-11)">
  <metadata
     id="metadata958">
    <rdf:RDF>
      <cc:Work
         rdf:about="">
        <dc:format>image/svg+xml</dc:format>
        <dc:type
           rdf:resource="http://purl.org/dc/dcmitype/StillImage" />
      </cc:Work>
    </rdf:RDF>
  </metadata>
  <defs
     id="defs956" />
  <sodipodi:namedview
     pagecolor="#ffffff"
     bordercolor="#666666"
     borderopacity="1"
     objecttolerance="10"
     gridtolerance="10"
     guidetolerance="10"
     inkscape:pageopacity="0"
     inkscape:pageshadow="2"
     inkscape:window-width="1850"
     inkscape:window-height="1016"
     id="namedview954"
     showgrid="false"
     inkscape:zoom="1.678"
     inkscape:cx="250"
     inkscape:cy="250"
     inkscape:window-x="70"
     inkscape:window-y="27"
     inkscape:window-maximized="1"
     inkscape:current-layer="svg952" />
  <g
     id="surface1"
     style="fill:#808080">
    <path
       style="stroke:none;fill-rule:nonzero;fill:#808080;fill-opacity:1"
       d="M 12.804688 0.183594 C 5.835938 0.183594 0.183594 5.175781 0.183594 11.324219 C 0.183594 14.445313 1.644531 17.261719 3.980469 19.285156 C 3.46875 22.25 0.15625 23.453125 0.382813 24.265625 C 3.179688 25.425781 8.785156 22.878906 10.152344 22.21875 C 11.011719 22.378906 11.894531 22.46875 12.804688 22.46875 C 19.769531 22.46875 25.421875 17.480469 25.421875 11.324219 C 25.421875 5.171875 19.769531 0.183594 12.804688 0.183594 Z M 11.910156 11.792969 C 11.910156 14.820313 10.566406 16.519531 7.929688 16.84375 C 7.921875 16.84375 7.917969 16.84375 7.910156 16.84375 C 7.882813 16.84375 7.851563 16.832031 7.828125 16.8125 C 7.804688 16.789063 7.785156 16.753906 7.785156 16.71875 L 7.785156 15.179688 C 7.785156 15.132813 7.8125 15.09375 7.851563 15.074219 C 9.054688 14.414063 9.65625 13.378906 9.6875 11.914063 L 7.910156 11.914063 C 7.84375 11.914063 7.785156 11.855469 7.785156 11.792969 L 7.785156 7.917969 C 7.785156 7.847656 7.84375 7.792969 7.910156 7.792969 L 11.789063 7.792969 C 11.851563 7.792969 11.910156 7.847656 11.910156 7.917969 Z M 18.769531 11.792969 C 18.769531 14.773438 17.582031 16.285156 14.796875 16.839844 C 14.789063 16.84375 14.78125 16.84375 14.773438 16.84375 C 14.746094 16.84375 14.714844 16.832031 14.695313 16.816406 C 14.664063 16.792969 14.648438 16.753906 14.648438 16.71875 L 14.648438 15.179688 C 14.648438 15.132813 14.671875 15.09375 14.710938 15.074219 C 15.914063 14.414063 16.519531 13.378906 16.550781 11.914063 L 14.773438 11.914063 C 14.707031 11.914063 14.648438 11.855469 14.648438 11.792969 L 14.648438 7.917969 C 14.648438 7.847656 14.707031 7.792969 14.773438 7.792969 L 18.648438 7.792969 C 18.714844 7.792969 18.769531 7.847656 18.769531 7.917969 Z "
       id="path949" />
  </g>
</svg>
