<?xml version="1.0" encoding="UTF-8"?>
<svg xmlns="http://www.w3.org/2000/svg" xmlns:xlink="http://www.w3.org/1999/xlink" width="500px" height="500px" viewBox="0 0 26 26" version="1.1"> <g id="surface1"> <path style=" stroke:none;fill-rule:nonzero;fill:#808080;fill-opacity:1;" d="M 5.910156 2.953125 L 5.910156 12.679688 C 5.910156 13.691406 6.070313 14.578125 6.402344 15.328125 C 6.730469 16.074219 7.214844 16.695313 7.816406 17.203125 C 8.421875 17.710938 9.125 18.09375 9.972656 18.34375 C 10.816406 18.59375 11.769531 18.710938 12.804688 18.710938 C 13.835938 18.710938 14.789063 18.59375 15.632813 18.34375 C 16.480469 18.09375 17.183594 17.710938 17.789063 17.203125 C 18.394531 16.695313 18.875 16.074219 19.203125 15.328125 C 19.535156 14.582031 19.695313 13.691406 19.695313 12.679688 L 19.695313 2.953125 L 16.742188 2.953125 L 16.742188 11.789063 C 16.742188 12.3125 16.734375 12.84375 16.679688 13.386719 C 16.628906 13.929688 16.445313 14.433594 16.1875 14.863281 C 15.929688 15.296875 15.546875 15.632813 15.019531 15.910156 C 14.492188 16.1875 13.761719 16.34375 12.804688 16.34375 C 11.84375 16.34375 11.113281 16.1875 10.585938 15.910156 C 10.0625 15.632813 9.675781 15.296875 9.417969 14.863281 C 9.160156 14.433594 8.980469 13.929688 8.925781 13.386719 C 8.871094 12.84375 8.863281 12.3125 8.863281 11.789063 L 8.863281 2.953125 Z M 5.910156 20.683594 L 5.910156 22.652344 L 19.695313 22.652344 L 19.695313 20.683594 Z "/> </g> </svg>
