<?xml version="1.0" encoding="UTF-8" standalone="no"?>
<svg
   xmlns:dc="http://purl.org/dc/elements/1.1/"
   xmlns:cc="http://creativecommons.org/ns#"
   xmlns:rdf="http://www.w3.org/1999/02/22-rdf-syntax-ns#"
   xmlns:svg="http://www.w3.org/2000/svg"
   xmlns="http://www.w3.org/2000/svg"
   xmlns:sodipodi="http://sodipodi.sourceforge.net/DTD/sodipodi-0.dtd"
   xmlns:inkscape="http://www.inkscape.org/namespaces/inkscape"
   version="1.1"
   x="0px"
   y="0px"
   viewBox="0 0 26 26"
   style="enable-background:new 0 0 26 26;"
   xml:space="preserve"
   width="416px"
   height="416px"
   id="svg827"
   sodipodi:docname="icons8_plus_small.svg"
   inkscape:version="1.0.1 (3bc2e813f5, 2020-09-07)"><metadata
     id="metadata833"><rdf:RDF><cc:Work
         rdf:about=""><dc:format>image/svg+xml</dc:format><dc:type
           rdf:resource="http://purl.org/dc/dcmitype/StillImage" /></cc:Work></rdf:RDF></metadata><defs
     id="defs831" /><sodipodi:namedview
     pagecolor="#ffffff"
     bordercolor="#666666"
     borderopacity="1"
     objecttolerance="10"
     gridtolerance="10"
     guidetolerance="10"
     inkscape:pageopacity="0"
     inkscape:pageshadow="2"
     inkscape:window-width="1920"
     inkscape:window-height="1011"
     id="namedview829"
     showgrid="false"
     inkscape:zoom="0.53725962"
     inkscape:cx="238.86437"
     inkscape:cy="230.94351"
     inkscape:window-x="0"
     inkscape:window-y="0"
     inkscape:window-maximized="1"
     inkscape:current-layer="svg827"
     inkscape:document-rotation="0" /><path
     style="fill:#808080;fill-opacity:1;fill-rule:nonzero;stroke:none;stroke-width:1.65776"
     d="m 12.227404,6.1450455 c -0.98347,0 -1.636959,0.6545807 -1.636959,1.6332085 V 11.04467 H 7.3294664 c -0.9769999,0 -1.6304895,0.654581 -1.6304895,1.639691 v 1.633209 c 0,0.978626 0.6534896,1.633208 1.6304895,1.633208 h 3.2609786 v 3.266416 c 0,0.98511 0.653489,1.633209 1.636959,1.633209 h 1.63049 c 0.977,0 1.63049,-0.648099 1.63049,-1.633209 v -3.266416 h 3.260979 c 0.98347,0 1.630489,-0.654582 1.630489,-1.633208 v -1.633209 c 0,-0.98511 -0.647019,-1.639691 -1.630489,-1.639691 H 15.488384 V 7.778254 c 0,-0.9786278 -0.65349,-1.6332085 -1.63049,-1.6332085 z"
     id="path2"
     sodipodi:nodetypes="sscsssscsssscsssscsss" /></svg>
