<?xml version="1.0" encoding="UTF-8" standalone="no"?>
<!-- Generator: Adobe Illustrator 15.0.0, SVG Export Plug-In . SVG Version: 6.00 Build 0)  -->

<svg
   xmlns:dc="http://purl.org/dc/elements/1.1/"
   xmlns:cc="http://creativecommons.org/ns#"
   xmlns:rdf="http://www.w3.org/1999/02/22-rdf-syntax-ns#"
   xmlns:svg="http://www.w3.org/2000/svg"
   xmlns="http://www.w3.org/2000/svg"
   xmlns:sodipodi="http://sodipodi.sourceforge.net/DTD/sodipodi-0.dtd"
   xmlns:inkscape="http://www.inkscape.org/namespaces/inkscape"
   version="1.1"
   id="Layer_1"
   x="0px"
   y="0px"
   width="416px"
   height="416px"
   viewBox="0 0 26 26"
   enable-background="new 0 0 26 26"
   xml:space="preserve"
   sodipodi:docname="icons8-book-link.svg"
   inkscape:version="0.92.2 (5c3e80d, 2017-08-06)"><metadata
     id="metadata835"><rdf:RDF><cc:Work
         rdf:about=""><dc:format>image/svg+xml</dc:format><dc:type
           rdf:resource="http://purl.org/dc/dcmitype/StillImage" /><dc:title></dc:title></cc:Work></rdf:RDF></metadata><defs
     id="defs833" /><sodipodi:namedview
     pagecolor="#ffffff"
     bordercolor="#666666"
     borderopacity="1"
     objecttolerance="10"
     gridtolerance="10"
     guidetolerance="10"
     inkscape:pageopacity="0"
     inkscape:pageshadow="2"
     inkscape:window-width="1786"
     inkscape:window-height="1061"
     id="namedview831"
     showgrid="false"
     inkscape:zoom="0.53725962"
     inkscape:cx="191.50075"
     inkscape:cy="212.69662"
     inkscape:window-x="-4"
     inkscape:window-y="-4"
     inkscape:window-maximized="1"
     inkscape:current-layer="Layer_1" /><path
     stroke-miterlimit="10"
     d="m 21.781716,8.6729843 c -0.506056,1.2671068 0,2.4013067 0,2.4013067 L 13.180531,21.661053 2.6377109,18.462304 c 0,0 -1.75713675,-0.766011 -1.75713675,-3.087394 0,-3.21132 2.70686915,-2.482128 2.70686915,-2.482128"
     id="path826"
     style="fill:none;stroke:#808080;stroke-width:1.77648222;stroke-linecap:round;stroke-linejoin:round;stroke-miterlimit:10;stroke-opacity:1"
     inkscape:connector-curvature="0" /><path
     d="M 22.704213,4.2098231 C 22.599663,3.899108 22.342242,3.6683168 22.029472,3.5982712 L 11.097446,1.1026726 C 10.768861,1.032627 10.425341,1.1466756 10.203942,1.4079995 L 1.1142733,11.749602 C 0.90605263,11.992966 0.33146891,12.933193 0.15311953,14.154501 0.66005348,13.512416 1.2653871,13.191823 1.5711289,13.275339 l 10.7071131,3.124213 c 0.07907,0.02245 0.159899,0.03233 0.238092,0.03233 0.273234,0 0.536805,-0.123926 0.713397,-0.344839 L 22.546949,5.1177217 c 0.203828,-0.2541398 0.26357,-0.5980816 0.157264,-0.9078986 z M 17.699887,6.8850258 16.999668,7.732757 C 16.804626,7.9680383 16.35392,8.084781 15.993707,7.997673 L 9.4677015,6.3722561 C 9.108367,6.2842501 8.9730675,6.0202321 9.1645954,5.7885429 L 9.8665715,4.9363216 C 10.059857,4.7028363 10.511441,4.5860936 10.871654,4.6740996 l 6.526006,1.6227228 c 0.357577,0.088006 0.494634,0.352922 0.302227,0.5882034 z"
     id="path828"
     style="fill:#808080;stroke-width:0.88824111"
     inkscape:connector-curvature="0" /><g
     transform="matrix(0.36614177,0,0,0.34791986,16.063789,16.009425)"
     id="g1420"
     style="fill:#808080"><path
       style="fill:#808080"
       inkscape:connector-curvature="0"
       d="m 14.137,17.766 c -1.545,0 -3.056,-0.564 -4.195,-1.705 -0.637,-0.635 -0.637,-1.663 -0.002,-2.298 0.635,-0.635 1.664,-0.635 2.298,-10e-4 1.11,1.108 3.036,0.988 4.293,-0.271 l 5.013,-5.013 c 0.671,-0.668 1.054,-1.541 1.054,-2.395 0,-0.51 -0.136,-1.25 -0.78,-1.896 C 21.127,3.495 20.334,3.381 19.78,3.409 18.963,3.446 18.162,3.819 17.525,4.456 L 14.649,7.33 C 13.977,6.658 11.216,6.165 10.468,6.914 l 4.756,-4.755 c 1.21,-1.21 2.771,-1.919 4.4,-1.997 1.699,-0.078 3.293,0.533 4.487,1.727 1.119,1.117 1.735,2.607 1.735,4.195 -0.001,1.71 -0.732,3.421 -2.008,4.693 l -5.012,5.012 c -1.31,1.315 -3.018,1.977 -4.689,1.977 z"
       id="path1418" /></g><g
     transform="matrix(0.36614177,0,0,0.34791986,16.063789,16.009425)"
     id="g1424"
     style="fill:#808080"><path
       style="fill:#808080"
       inkscape:connector-curvature="0"
       d="m 11.863,8.234 c 1.543,0 3.055,0.564 4.196,1.705 0.636,0.635 0.635,1.663 0,2.298 -0.634,0.635 -1.663,0.635 -2.298,0 -1.109,-1.107 -3.035,-0.986 -4.293,0.271 l -5.013,5.013 c -0.67,0.668 -1.054,1.541 -1.054,2.395 0,0.508 0.136,1.25 0.781,1.896 0.691,0.69 1.484,0.806 2.038,0.78 0.817,-0.039 1.618,-0.412 2.255,-1.049 l 2.873,-2.872 c 0.672,0.671 3.433,1.164 4.182,0.415 l -4.756,4.755 C 9.565,25.051 8.003,25.76 6.375,25.838 4.675,25.918 3.081,25.306 1.886,24.111 0.767,22.994 0.152,21.504 0.152,19.916 0.153,18.206 0.883,16.495 2.159,15.223 L 7.171,10.211 C 8.483,8.898 10.193,8.234 11.863,8.234 Z"
       id="path1422" /></g></svg>