<?xml version="1.0" encoding="UTF-8" standalone="no"?>
<!-- Generator: Adobe Illustrator 16.0.0, SVG Export Plug-In . SVG Version: 6.00 Build 0)  -->

<svg
   xmlns:dc="http://purl.org/dc/elements/1.1/"
   xmlns:cc="http://creativecommons.org/ns#"
   xmlns:rdf="http://www.w3.org/1999/02/22-rdf-syntax-ns#"
   xmlns:svg="http://www.w3.org/2000/svg"
   xmlns="http://www.w3.org/2000/svg"
   xmlns:sodipodi="http://sodipodi.sourceforge.net/DTD/sodipodi-0.dtd"
   xmlns:inkscape="http://www.inkscape.org/namespaces/inkscape"
   version="1.1"
   id="Layer_1"
   x="0px"
   y="0px"
   width="416px"
   height="416px"
   viewBox="0 0 26 26"
   enable-background="new 0 0 26 26"
   xml:space="preserve"
   sodipodi:docname="icons8-google-translate-save.svg"
   inkscape:version="0.92.2 (5c3e80d, 2017-08-06)"><metadata
     id="metadata5374"><rdf:RDF><cc:Work
         rdf:about=""><dc:format>image/svg+xml</dc:format><dc:type
           rdf:resource="http://purl.org/dc/dcmitype/StillImage" /><dc:title></dc:title></cc:Work></rdf:RDF></metadata><defs
     id="defs5372" /><sodipodi:namedview
     pagecolor="#ffffff"
     bordercolor="#666666"
     borderopacity="1"
     objecttolerance="10"
     gridtolerance="10"
     guidetolerance="10"
     inkscape:pageopacity="0"
     inkscape:pageshadow="2"
     inkscape:window-width="737"
     inkscape:window-height="480"
     id="namedview5370"
     showgrid="false"
     inkscape:zoom="0.56730769"
     inkscape:cx="272.32942"
     inkscape:cy="208"
     inkscape:window-x="87"
     inkscape:window-y="43"
     inkscape:window-maximized="0"
     inkscape:current-layer="Layer_1" /><g
     id="g5357"
     style="fill:#808080"
     transform="matrix(0.81355932,0,0,0.83474576,0,4.2966102)"><g
       id="g5353"
       style="fill:#808080"><path
         d="M 14,2 V 14 H 2 V 2 H 14 M 14.315,0 H 1.685 C 0.754,0 0,0.754 0,1.684 V 14.316 C 0,15.246 0.754,16 1.685,16 H 14.316 C 15.246,16 16,15.246 16,14.316 V 1.684 C 16,0.754 15.246,0 14.315,0 Z"
         id="path5351"
         style="fill:#808080"
         inkscape:connector-curvature="0" /></g><path
       d="M 24.315,10 H 11.685 C 10.754,10 10,10.754 10,11.684 V 24.316 C 10,25.246 10.754,26 11.685,26 H 24.316 C 25.246,26 26,25.246 26,24.316 V 11.684 C 26,10.754 25.246,10 24.315,10 Z m -3.96,12.631 -0.698,-2.008 h -3.322 l -0.69,2.008 h -2.146 l 3.457,-9.309 h 2.104 l 3.442,9.309 z m -2.331,-6.752 1.133,3.281 h -2.314 l 1.14,-3.281 z"
       id="path5355"
       style="fill:#808080"
       inkscape:connector-curvature="0" /></g><polygon
     points="9,3 7,3 7,4 3,4 3,6 13,6 13,4 9,4 "
     id="polygon5359"
     style="fill:#808080"
     transform="matrix(0.81355932,0,0,0.83474576,0,4.2966102)" /><path
     stroke-miterlimit="10"
     d="m 3.339661,14.441275 c 0,0 3.6878644,-1.353122 5.5086102,-5.0961225"
     id="path5361"
     style="fill:#808080;stroke:#808080;stroke-width:1.64816892;stroke-linecap:round;stroke-linejoin:round;stroke-miterlimit:10;stroke-opacity:1"
     inkscape:connector-curvature="0" /><path
     stroke-miterlimit="10"
     d="m 4.4509831,10.111449 c 0,0 0.8094915,1.803886 3.8920677,3.607771"
     id="path5363"
     style="fill:#808080;stroke:#808080;stroke-width:1.64816892;stroke-linecap:round;stroke-linejoin:round;stroke-miterlimit:10;stroke-opacity:1"
     inkscape:connector-curvature="0" /><polygon
     points="4,19 7,19 7,16 8,16 5.5,13.5 3,16 4,16 "
     id="polygon5365"
     style="fill:#808080"
     transform="matrix(0.81355932,0,0,0.83474576,0,4.2966102)" /><polygon
     points="4,19 7,22 10,22 10,23 12.5,20.5 10,18 10,19 "
     id="polygon5367"
     style="fill:#808080"
     transform="matrix(0.81355932,0,0,0.83474576,0,4.2966102)" /><g
     id="g6294"
     transform="matrix(0.34322034,0,0,0.36016949,15.533898,1.432203)"
     style="fill:#808080;fill-opacity:1"><path
       style="fill:#808080;fill-opacity:1"
       inkscape:connector-curvature="0"
       d="M 18,9 H 15 V 2 h 3 z m 8,-3 v 17 c 0,1.657 -1.344,3 -3,3 H 3 C 1.344,26 0,24.657 0,23 V 3 C 0,1.343 1.344,0 3,0 h 17 c 0.828,0 1.285,0.043 3.621,2.379 C 25.957,4.715 26,5.172 26,6 Z M 5,9 c 0,0.551 0.449,1 1,1 h 13 c 0.551,0 1,-0.449 1,-1 V 2 C 20,1.449 19.551,1 19,1 H 6 C 5.449,1 5,1.449 5,2 Z m 18,5 c 0,-0.551 -0.449,-1 -1,-1 H 4 c -0.551,0 -1,0.449 -1,1 v 10 c 0,0.551 0.449,1 1,1 h 18 c 0.551,0 1,-0.449 1,-1 z"
       id="path6292" /></g></svg>