<?xml version="1.0" encoding="UTF-8" standalone="no"?>
<svg
   xmlns:dc="http://purl.org/dc/elements/1.1/"
   xmlns:cc="http://creativecommons.org/ns#"
   xmlns:rdf="http://www.w3.org/1999/02/22-rdf-syntax-ns#"
   xmlns:svg="http://www.w3.org/2000/svg"
   xmlns="http://www.w3.org/2000/svg"
   xmlns:sodipodi="http://sodipodi.sourceforge.net/DTD/sodipodi-0.dtd"
   xmlns:inkscape="http://www.inkscape.org/namespaces/inkscape"
   width="500px"
   height="500px"
   viewBox="0 0 26 26"
   version="1.1"
   id="svg3997"
   sodipodi:docname="icons8-html-filetype-2.svg"
   inkscape:version="0.92.3 (2405546, 2018-03-11)">
  <metadata
     id="metadata4003">
    <rdf:RDF>
      <cc:Work
         rdf:about="">
        <dc:format>image/svg+xml</dc:format>
        <dc:type
           rdf:resource="http://purl.org/dc/dcmitype/StillImage" />
      </cc:Work>
    </rdf:RDF>
  </metadata>
  <defs
     id="defs4001" />
  <sodipodi:namedview
     pagecolor="#ffffff"
     bordercolor="#666666"
     borderopacity="1"
     objecttolerance="10"
     gridtolerance="10"
     guidetolerance="10"
     inkscape:pageopacity="0"
     inkscape:pageshadow="2"
     inkscape:window-width="812"
     inkscape:window-height="480"
     id="namedview3999"
     showgrid="false"
     inkscape:zoom="0.472"
     inkscape:cx="250"
     inkscape:cy="250"
     inkscape:window-x="70"
     inkscape:window-y="27"
     inkscape:window-maximized="0"
     inkscape:current-layer="svg3997" />
  <g
     id="surface1"
     style="fill:#808080">
    <path
       style="stroke:none;fill-rule:nonzero;fill:#808080;fill-opacity:1"
       d="M 7.878906 0 C 5.710938 0 3.9375 1.773438 3.9375 3.9375 L 3.9375 10.832031 L 0.984375 10.832031 C 0.390625 10.832031 0 11.324219 0 11.816406 L 0 17.726563 C 0 18.21875 0.390625 18.710938 0.984375 18.710938 L 3.9375 18.710938 L 3.9375 21.667969 C 3.9375 23.832031 5.710938 25.605469 7.878906 25.605469 L 19.695313 25.605469 C 21.863281 25.605469 23.636719 23.832031 23.636719 21.667969 L 23.636719 7.878906 C 23.636719 6.792969 22.664063 5.796875 20.988281 4.125 C 20.695313 3.929688 20.484375 3.644531 20.1875 3.445313 C 19.992188 3.152344 19.707031 2.941406 19.511719 2.648438 C 17.839844 0.972656 16.84375 0 15.757813 0 Z M 7.878906 1.96875 L 15.082031 1.96875 C 15.769531 2.164063 15.757813 3.054688 15.757813 3.9375 L 15.757813 6.894531 C 15.757813 7.488281 16.148438 7.878906 16.742188 7.878906 L 19.695313 7.878906 C 20.683594 7.878906 21.667969 7.878906 21.667969 8.863281 L 21.667969 21.667969 C 21.667969 22.75 20.78125 23.636719 19.695313 23.636719 L 7.878906 23.636719 C 6.792969 23.636719 5.910156 22.75 5.910156 21.667969 L 5.910156 18.710938 L 19.695313 18.710938 C 20.289063 18.710938 20.683594 18.21875 20.683594 17.726563 L 20.683594 11.816406 C 20.683594 11.324219 20.289063 10.832031 19.695313 10.832031 L 5.910156 10.832031 L 5.910156 3.9375 C 5.910156 2.855469 6.792969 1.96875 7.878906 1.96875 Z M 13.234375 11.816406 C 13.257813 11.804688 13.296875 11.816406 13.296875 11.816406 L 14.371094 11.816406 C 14.472656 11.816406 14.464844 11.910156 14.464844 11.910156 L 14.773438 17.234375 C 14.871094 17.53125 14.871094 17.542969 14.773438 17.542969 L 13.878906 17.542969 C 13.78125 17.542969 13.789063 17.417969 13.789063 17.417969 L 13.695313 15.574219 L 13.695313 14.863281 C 13.695313 15.0625 13.601563 15.253906 13.601563 15.449219 L 13.109375 17.328125 C 13.109375 17.425781 12.988281 17.417969 12.988281 17.417969 L 12.3125 17.417969 C 12.210938 17.417969 12.21875 17.425781 12.21875 17.328125 L 11.816406 15.449219 C 11.816406 15.304688 11.753906 15.144531 11.726563 14.957031 L 11.632813 17.328125 C 11.632813 17.425781 11.511719 17.417969 11.511719 17.417969 L 10.527344 17.417969 L 10.527344 17.328125 L 10.925781 12.003906 C 10.925781 11.902344 11.019531 11.910156 11.019531 11.910156 L 11.816406 11.910156 C 11.917969 11.910156 11.910156 11.902344 11.910156 12.003906 L 12.402344 14.28125 C 12.503906 14.578125 12.519531 14.882813 12.617188 15.082031 C 12.71875 14.6875 12.804688 14.273438 12.804688 13.878906 L 13.203125 11.910156 C 13.203125 11.859375 13.210938 11.828125 13.234375 11.816406 Z M 2.15625 12.003906 L 3.140625 12.003906 C 3.238281 12.003906 3.261719 12.125 3.261719 12.125 L 3.261719 14.09375 L 4.03125 14.09375 L 4.03125 12.125 C 4.03125 12.027344 4.125 12.003906 4.125 12.003906 L 5.109375 12.003906 C 5.207031 12.003906 5.230469 12.125 5.230469 12.125 L 5.230469 17.417969 L 5.324219 17.417969 C 5.324219 17.519531 5.230469 17.542969 5.230469 17.542969 L 4.246094 17.542969 C 4.148438 17.542969 4.125 17.417969 4.125 17.417969 L 4.125 15.359375 L 3.261719 15.359375 L 3.261719 17.417969 C 3.261719 17.519531 3.140625 17.542969 3.140625 17.542969 L 2.15625 17.542969 C 2.054688 17.542969 2.0625 17.417969 2.0625 17.417969 L 2.0625 12.125 C 2.0625 12.027344 2.15625 12.003906 2.15625 12.003906 Z M 6.402344 12.003906 L 9.355469 12.003906 C 9.457031 12.003906 9.449219 12.125 9.449219 12.125 L 9.449219 13.109375 C 9.449219 13.210938 9.355469 13.203125 9.355469 13.203125 L 8.464844 13.203125 L 8.464844 17.417969 C 8.464844 17.519531 8.371094 17.542969 8.371094 17.542969 L 7.386719 17.542969 C 7.285156 17.542969 7.292969 17.417969 7.292969 17.417969 L 7.292969 13.203125 L 6.402344 13.203125 C 6.300781 13.203125 6.308594 13.109375 6.308594 13.109375 L 6.308594 12.125 C 6.308594 12.027344 6.402344 12.003906 6.402344 12.003906 Z M 16.34375 12.003906 L 17.328125 12.003906 C 17.425781 12.003906 17.417969 12.125 17.417969 12.125 L 17.417969 16.433594 L 18.710938 16.433594 C 18.8125 16.433594 18.804688 16.558594 18.804688 16.558594 L 18.804688 17.417969 C 18.804688 17.519531 18.710938 17.542969 18.710938 17.542969 L 16.34375 17.542969 C 16.242188 17.542969 16.25 17.417969 16.25 17.417969 L 16.25 12.125 C 16.25 12.027344 16.34375 12.003906 16.34375 12.003906 Z "
       id="path3994" />
  </g>
</svg>
