<?xml version="1.0" encoding="UTF-8" standalone="no"?>
<!-- Generator: Adobe Illustrator 15.0.0, SVG Export Plug-In . SVG Version: 6.00 Build 0)  -->

<svg
   xmlns:dc="http://purl.org/dc/elements/1.1/"
   xmlns:cc="http://creativecommons.org/ns#"
   xmlns:rdf="http://www.w3.org/1999/02/22-rdf-syntax-ns#"
   xmlns:svg="http://www.w3.org/2000/svg"
   xmlns="http://www.w3.org/2000/svg"
   xmlns:sodipodi="http://sodipodi.sourceforge.net/DTD/sodipodi-0.dtd"
   xmlns:inkscape="http://www.inkscape.org/namespaces/inkscape"
   version="1.1"
   id="Layer_1"
   x="0px"
   y="0px"
   width="416px"
   height="416px"
   viewBox="0 0 26 26"
   enable-background="new 0 0 26 26"
   xml:space="preserve"
   sodipodi:docname="icons8_document_r_title.svg"
   inkscape:version="0.92.3 (2405546, 2018-03-11)"><metadata
     id="metadata7908"><rdf:RDF><cc:Work
         rdf:about=""><dc:format>image/svg+xml</dc:format><dc:type
           rdf:resource="http://purl.org/dc/dcmitype/StillImage" /><dc:title /></cc:Work></rdf:RDF></metadata><defs
     id="defs7906" /><sodipodi:namedview
     pagecolor="#ffffff"
     bordercolor="#666666"
     borderopacity="1"
     objecttolerance="10"
     gridtolerance="10"
     guidetolerance="10"
     inkscape:pageopacity="0"
     inkscape:pageshadow="2"
     inkscape:window-width="1850"
     inkscape:window-height="1016"
     id="namedview7904"
     showgrid="false"
     inkscape:zoom="0.40114712"
     inkscape:cx="211.49216"
     inkscape:cy="119.23805"
     inkscape:window-x="70"
     inkscape:window-y="27"
     inkscape:window-maximized="1"
     inkscape:current-layer="Layer_1" /><path
     stroke-miterlimit="10"
     d="m 7.1702133,4.8340302 c 1.5911497,0 3.9315387,0 5.6164837,0"
     id="path7895"
     inkscape:connector-curvature="0"
     style="fill:none;stroke:#808080;stroke-width:1.49886417;stroke-linecap:round;stroke-linejoin:round;stroke-miterlimit:10;stroke-opacity:1" /><path
     stroke-miterlimit="10"
     d="m 8,20.819915 c 2.833,0 7,0 10,0"
     id="path7897"
     inkscape:connector-curvature="0"
     style="fill:none;stroke:#808080;stroke-width:2;stroke-linecap:round;stroke-linejoin:round;stroke-miterlimit:10;stroke-opacity:1" /><path
     stroke-miterlimit="10"
     d="m 8.2988573,16.665899 c 0.9524618,0 6.6672327,0 7.6196947,0"
     id="path7899"
     inkscape:connector-curvature="0"
     style="fill:none;stroke:#808080;stroke-width:1.95188308;stroke-linecap:round;stroke-linejoin:round;stroke-miterlimit:10;stroke-opacity:1" /><path
     fill="#000000"
     d="M20.266,4.207c-0.244-0.24-0.494-0.484-0.74-0.732c-0.248-0.246-0.492-0.496-0.732-0.74  C17.082,0.988,16.063,0,15,0H7C4.795,0,3,1.795,3,4v18c0,2.205,1.795,4,4,4h12c2.205,0,4-1.795,4-4V8  C23,6.938,22.012,5.918,20.266,4.207z M21,22c0,1.104-0.896,2-2,2H7c-1.104,0-2-0.896-2-2V4c0-1.104,0.896-2,2-2l7.289-0.004  C15.01,2.18,15,3.066,15,3.953V7c0,0.551,0.449,1,1,1h3c0.998,0,2,0.005,2,1V22z"
     id="path7901"
     style="fill:#808080" /><line
     stroke-miterlimit="10"
     x1="16.126686"
     y1="7.5163164"
     x2="4.6783609"
     y2="7.5163164"
     id="line7316"
     style="fill:none;stroke:#808080;stroke-width:0.94488189;stroke-linejoin:round;stroke-miterlimit:10;stroke-opacity:1;stroke-dasharray:none" /><path
     stroke-miterlimit="10"
     d="m 8.2174481,12.445123 c 1.2175049,0 8.5225339,0 9.7400389,0"
     id="path7899-0"
     inkscape:connector-curvature="0"
     style="fill:none;stroke:#808080;stroke-width:2.20681214;stroke-linecap:round;stroke-linejoin:round;stroke-miterlimit:10;stroke-opacity:1" /></svg>