<?xml version="1.0" encoding="UTF-8" standalone="no"?>
<svg
   xmlns:dc="http://purl.org/dc/elements/1.1/"
   xmlns:cc="http://creativecommons.org/ns#"
   xmlns:rdf="http://www.w3.org/1999/02/22-rdf-syntax-ns#"
   xmlns:svg="http://www.w3.org/2000/svg"
   xmlns="http://www.w3.org/2000/svg"
   xmlns:sodipodi="http://sodipodi.sourceforge.net/DTD/sodipodi-0.dtd"
   xmlns:inkscape="http://www.inkscape.org/namespaces/inkscape"
   version="1.1"
   id="Layer_1"
   x="0px"
   y="0px"
   width="416px"
   height="416px"
   viewBox="0 0 26 26"
   enable-background="new 0 0 26 26"
   xml:space="preserve"
   sodipodi:docname="icons8_send_to_action.svg"
   inkscape:version="1.0.1 (3bc2e813f5, 2020-09-07)"><metadata
     id="metadata7908"><rdf:RDF><cc:Work
         rdf:about=""><dc:format>image/svg+xml</dc:format><dc:type
           rdf:resource="http://purl.org/dc/dcmitype/StillImage" /><dc:title></dc:title></cc:Work></rdf:RDF></metadata><defs
     id="defs7906" /><sodipodi:namedview
     pagecolor="#ffffff"
     bordercolor="#666666"
     borderopacity="1"
     objecttolerance="10"
     gridtolerance="10"
     guidetolerance="10"
     inkscape:pageopacity="0"
     inkscape:pageshadow="2"
     inkscape:window-width="1920"
     inkscape:window-height="1017"
     id="namedview7904"
     showgrid="false"
     inkscape:zoom="0.40114712"
     inkscape:cx="109.16286"
     inkscape:cy="119.23805"
     inkscape:window-x="-8"
     inkscape:window-y="-8"
     inkscape:window-maximized="1"
     inkscape:current-layer="Layer_1"
     inkscape:document-rotation="0" /><path
     stroke-miterlimit="10"
     d="m 4.6707593,16.076083 c 1.1422617,0 2.8223906,0 4.0319863,0"
     id="path7895"
     inkscape:connector-curvature="0"
     style="fill:none;stroke:#808080;stroke-width:0.946917;stroke-linecap:round;stroke-linejoin:round;stroke-miterlimit:10;stroke-opacity:1" /><path
     stroke-miterlimit="10"
     d="m 3.9681982,20.892447 c 1.5750372,0 3.8917264,0 5.5596094,0"
     id="path7897"
     inkscape:connector-curvature="0"
     style="fill:none;stroke:#808080;stroke-width:1.11192;stroke-linecap:round;stroke-linejoin:round;stroke-miterlimit:10;stroke-opacity:1" /><path
     stroke-miterlimit="10"
     d="m 3.9681982,18.946584 c 0.5559609,0 3.8917264,0 4.4476874,0"
     id="path7899"
     inkscape:connector-curvature="0"
     style="fill:none;stroke:#808080;stroke-width:1.11192;stroke-linecap:round;stroke-linejoin:round;stroke-miterlimit:10;stroke-opacity:1" /><path
     fill="#000000"
     d="M 10.787615,11.656316 C 10.651961,11.522885 10.51297,11.387231 10.376204,11.249352 10.238326,11.112586 10.102671,10.973596 9.9692406,10.837941 9.0174356,9.8666774 8.4509106,9.3173881 7.8599246,9.3173881 H 3.4122373 c -1.2258939,0 -2.2238437,0.9979499 -2.2238437,2.2238439 v 10.007296 c 0,1.225894 0.9979498,2.223844 2.2238437,2.223844 h 6.6715317 c 1.225893,0 2.223843,-0.99795 2.223843,-2.223844 v -7.783453 c 0,-0.59043 -0.549289,-1.15751 -1.519997,-2.108759 z m 0.408075,9.892212 c 0,0.613781 -0.498141,1.111922 -1.111921,1.111922 H 3.4122373 c -0.6137809,0 -1.1119219,-0.498141 -1.1119219,-1.111922 V 11.541232 c 0,-0.613781 0.498141,-1.111922 1.1119219,-1.111922 l 4.0523991,-0.0022 c 0.4008478,0.102297 0.3952882,0.594878 0.3952882,1.088016 v 1.694012 c 0,0.306335 0.2496264,0.555961 0.555961,0.555961 h 1.6678834 c 0.554849,0 1.111921,0.0028 1.111921,0.555961 z"
     id="path7901"
     style="fill:#808080;stroke-width:0.555961" /><polyline
     style="fill:none;stroke:#808080;stroke-width:2;stroke-miterlimit:10;stroke-opacity:1"
     stroke-miterlimit="10"
     points="21,1 25,1 25,5 "
     id="polyline7298"
     transform="matrix(0.28549068,0,0,0.22612462,2.9753739,14.846539)" /><polyline
     stroke-miterlimit="10"
     points="25,21 25,25 21,25 "
     id="polyline7300"
     transform="matrix(0.28549068,0,0,0.22612462,2.9753739,11.567732)"
     style="fill:none;stroke:#808080;stroke-width:2;stroke-miterlimit:10;stroke-opacity:1" /><polyline
     stroke-miterlimit="10"
     points="5,25 1,25 1,21 "
     id="polyline7306"
     transform="matrix(0.28549068,0,0,0.22612462,2.9753739,11.567732)"
     style="fill:none;stroke:#808080;stroke-width:2;stroke-miterlimit:10;stroke-opacity:1" /><polyline
     style="fill:none;stroke:#808080;stroke-width:2;stroke-miterlimit:10;stroke-opacity:1"
     stroke-miterlimit="10"
     points="1,5 1,1 5,1 "
     id="polyline7308"
     transform="matrix(0.28549068,0,0,0.22612462,2.9753739,14.846539)" /><line
     stroke-miterlimit="10"
     x1="6.4012623"
     y1="17.220848"
     x2="4.9738083"
     y2="17.220848"
     id="line7314"
     style="fill:none;stroke:#808080;stroke-width:0.508159;stroke-linejoin:round;stroke-miterlimit:10;stroke-opacity:1" /><line
     stroke-miterlimit="10"
     x1="8.3996973"
     y1="17.220848"
     x2="6.9722433"
     y2="17.220848"
     id="line7316"
     style="fill:none;stroke:#808080;stroke-width:0.508159;stroke-linejoin:round;stroke-miterlimit:10;stroke-opacity:1" /><line
     style="fill:none;stroke:#808080;stroke-width:0.508159;stroke-linejoin:round;stroke-miterlimit:10;stroke-opacity:1"
     stroke-miterlimit="10"
     x1="6.9722433"
     y1="15.072664"
     x2="8.3996973"
     y2="15.072664"
     id="line7326" /><line
     style="fill:none;stroke:#808080;stroke-width:0.508159;stroke-linejoin:round;stroke-miterlimit:10;stroke-opacity:1"
     stroke-miterlimit="10"
     x1="4.9738083"
     y1="15.072664"
     x2="6.4012623"
     y2="15.072664"
     id="line7328" /><g
     id="surface1"
     transform="matrix(0.11700113,0,0,0.11700113,12.394263,1.7691187)"
     style="fill:#808080"><path
       style="fill:#808080;fill-opacity:1;fill-rule:nonzero;stroke:none"
       d="M 11.816406,0 C 5.292969,0 0,5.292969 0,11.816406 v 63.03125 C 0,81.375 5.292969,86.667969 11.816406,86.667969 H 31.515625 V 78.789063 H 11.816406 c -2.167968,0 -3.9375,-1.769532 -3.9375,-3.941407 V 27.574219 h 86.667969 v 47.273437 c 0,2.171875 -1.769531,3.941407 -3.941406,3.941407 H 66.96875 v 7.878906 h 23.636719 c 6.523437,0 11.820311,-5.292969 11.820311,-11.820313 V 11.816406 C 102.42578,5.292969 97.128906,0 90.605469,0 Z m -1.351562,11.570313 h 2.832031 c 1.566406,0 2.828125,1.261718 2.828125,2.832031 v 2.710937 h -0.121094 c 0,1.566407 -1.261718,2.828125 -2.832031,2.828125 h -2.707031 c -1.570313,0 -2.832031,-1.261718 -2.832031,-2.828125 v -2.710937 c 0,-1.570313 1.261718,-2.832031 2.832031,-2.832031 z m 11.816406,0 h 2.832031 c 1.570313,0 2.832032,1.261718 2.832032,2.832031 v 2.710937 h -0.125 c 0,1.566407 -1.261719,2.828125 -2.828125,2.828125 H 22.28125 c -1.570312,0 -2.832031,-1.261718 -2.832031,-2.828125 v -2.710937 c 0,-1.570313 1.261719,-2.832031 2.832031,-2.832031 z m 9.234375,0.246093 h 63.03125 v 7.878907 h -63.03125 z m 19.820313,35.703125 c -0.476563,0 -0.984375,0.121094 -1.355469,0.492188 L 32.253906,67.707031 c -0.355468,0.355469 -0.617187,0.878907 -0.617187,1.355469 0,0.246094 0.03125,0.507813 0.125,0.738281 0.292969,0.691407 1.09375,1.109375 1.847656,1.109375 h 9.722656 c 0,16.496094 -2.875,25.449219 -21.664062,30.898434 31.453125,0 37.667969,-18.187496 37.667969,-30.898434 H 68.9375 c 0.757813,0 1.308594,-0.417968 1.601563,-1.109375 0.292968,-0.691406 0.171875,-1.554687 -0.367188,-2.09375 L 52.566406,48.011719 C 52.195313,47.640625 51.8125,47.519531 51.335938,47.519531 Z"
       id="path2" /></g></svg>
