<?xml version="1.0" encoding="UTF-8" standalone="no"?>
<!-- Generator: Adobe Illustrator 15.0.0, SVG Export Plug-In . SVG Version: 6.00 Build 0)  -->

<svg
   xmlns:dc="http://purl.org/dc/elements/1.1/"
   xmlns:cc="http://creativecommons.org/ns#"
   xmlns:rdf="http://www.w3.org/1999/02/22-rdf-syntax-ns#"
   xmlns:svg="http://www.w3.org/2000/svg"
   xmlns="http://www.w3.org/2000/svg"
   xmlns:sodipodi="http://sodipodi.sourceforge.net/DTD/sodipodi-0.dtd"
   xmlns:inkscape="http://www.inkscape.org/namespaces/inkscape"
   version="1.1"
   id="Layer_1"
   x="0px"
   y="0px"
   width="416px"
   height="416px"
   viewBox="0 0 26 26"
   enable-background="new 0 0 26 26"
   xml:space="preserve"
   sodipodi:docname="icons8_folder_az.svg"
   inkscape:version="0.92.3 (2405546, 2018-03-11)"><metadata
     id="metadata835"><rdf:RDF><cc:Work
         rdf:about=""><dc:format>image/svg+xml</dc:format><dc:type
           rdf:resource="http://purl.org/dc/dcmitype/StillImage" /><dc:title /></cc:Work></rdf:RDF></metadata><defs
     id="defs833" /><sodipodi:namedview
     pagecolor="#ffffff"
     bordercolor="#666666"
     borderopacity="1"
     objecttolerance="10"
     gridtolerance="10"
     guidetolerance="10"
     inkscape:pageopacity="0"
     inkscape:pageshadow="2"
     inkscape:window-width="1850"
     inkscape:window-height="1016"
     id="namedview831"
     showgrid="false"
     inkscape:zoom="0.26862981"
     inkscape:cx="302.18675"
     inkscape:cy="267.29642"
     inkscape:window-x="70"
     inkscape:window-y="27"
     inkscape:window-maximized="1"
     inkscape:current-layer="Layer_1" /><path
     fill="#000000"
     d="M23,5H3C1.344,5,0,6.344,0,8v14c0,1.656,1.344,3,3,3h20c1.656,0,3-1.344,3-3V8C26,6.344,24.656,5,23,5z   M24,22c0,0.552-0.448,1-1,1H3c-0.552,0-1-0.448-1-1V8c0-0.552,0.448-1,1-1h20c0.552,0,1,0.448,1,1V22z"
     id="path826"
     style="fill:#808080" /><path
     fill="#000000"
     d="M8,2H3C1.344,2,0,3.344,0,5v4c0,0,0.302-3,3-3h8V5C11,3.344,9.656,2,8,2z"
     id="path828"
     style="fill:#808080" /><g
     transform="matrix(0.92678315,0,0,0.83079115,2.5366484,10.08585)"
     id="g1410"
     style="fill:#808080"><path
       style="fill:#808080"
       inkscape:connector-curvature="0"
       d="M 10.253,10.741 6.96,0.116 C 6.938,0.047 6.875,0 6.803,0 H 3.636 C 3.563,0 3.499,0.047 3.478,0.117 l -3.26,10.67 C 0.201,10.837 0.211,10.892 0.242,10.933 0.274,10.977 0.323,11 0.375,11 h 2.5 c 0.074,0 0.139,-0.049 0.159,-0.121 L 3.761,8.261 h 2.807 l 0.787,2.622 C 7.377,10.953 7.441,11 7.514,11 h 2.596 c 0.002,0 0.006,0 0.008,0 0.091,0 0.166,-0.074 0.166,-0.164 0,-0.035 -0.012,-0.068 -0.031,-0.095 z M 6.123,6.127 H 4.201 L 4.775,4.073 C 4.882,3.697 4.981,3.255 5.078,2.825 5.095,2.752 5.112,2.679 5.128,2.607 5.25,3.1 5.386,3.627 5.52,4.076 Z"
       id="path1408" /></g><path
     inkscape:connector-curvature="0"
     style="fill:#808080;stroke-width:0.8774755"
     d="m 22.622526,17.293794 h -4.43095 l 4.483776,-5.834647 c 0.01761,-0.02326 0.02688,-0.05068 0.02688,-0.07809 v -1.157292 c 0,-0.07643 -0.06951,-0.137911 -0.153846,-0.137911 h -7.173301 c -0.08434,0 -0.153846,0.06148 -0.153846,0.137911 v 1.656597 c 0,0.07643 0.06858,0.13625 0.153846,0.13625 h 4.016678 l -4.582016,5.914402 c -0.01854,0.02243 -0.0278,0.05068 -0.0278,0.0781 v 1.079197 c 0,0.07477 0.06858,0.13625 0.15292,0.13625 h 7.687666 c 0.08434,0 0.153846,-0.06148 0.153846,-0.13625 v -1.657428 c 0,-0.07726 -0.06951,-0.13708 -0.153846,-0.13708 z"
     id="path1412" /><ellipse
     cx="13.283276"
     cy="14.754194"
     id="circle828"
     style="fill:#808080;stroke-width:0.31155691"
     rx="1.8120806"
     ry="1.9284117" /></svg>