<?xml version="1.0" encoding="UTF-8" standalone="no"?>
<!-- Generator: Adobe Illustrator 18.0.0, SVG Export Plug-In . SVG Version: 6.00 Build 0)  -->

<svg
   xmlns:dc="http://purl.org/dc/elements/1.1/"
   xmlns:cc="http://creativecommons.org/ns#"
   xmlns:rdf="http://www.w3.org/1999/02/22-rdf-syntax-ns#"
   xmlns:svg="http://www.w3.org/2000/svg"
   xmlns="http://www.w3.org/2000/svg"
   xmlns:sodipodi="http://sodipodi.sourceforge.net/DTD/sodipodi-0.dtd"
   xmlns:inkscape="http://www.inkscape.org/namespaces/inkscape"
   version="1.0"
   id="Layer_1"
   x="0px"
   y="0px"
   viewBox="0 0 26 26"
   style="enable-background:new 0 0 26 26;"
   xml:space="preserve"
   width="416px"
   height="416px"
   sodipodi:docname="icons8-mobi.svg"
   inkscape:version="0.92.3 (2405546, 2018-03-11)"><metadata
   id="metadata5280"><rdf:RDF><cc:Work
       rdf:about=""><dc:format>image/svg+xml</dc:format><dc:type
         rdf:resource="http://purl.org/dc/dcmitype/StillImage" /></cc:Work></rdf:RDF></metadata><defs
   id="defs5278" /><sodipodi:namedview
   pagecolor="#ffffff"
   bordercolor="#666666"
   borderopacity="1"
   objecttolerance="10"
   gridtolerance="10"
   guidetolerance="10"
   inkscape:pageopacity="0"
   inkscape:pageshadow="2"
   inkscape:window-width="812"
   inkscape:window-height="480"
   id="namedview5276"
   showgrid="false"
   inkscape:zoom="0.56730769"
   inkscape:cx="208"
   inkscape:cy="208"
   inkscape:window-x="70"
   inkscape:window-y="27"
   inkscape:window-maximized="0"
   inkscape:current-layer="Layer_1" />
<path
   style="fill:none;stroke:#808080;stroke-width:2;stroke-miterlimit:10;stroke-opacity:1"
   d="M24,25H6c-1.7,0-3-1.3-3-3v-1"
   id="path5263" />
<g
   id="g5273"
   style="fill:#808080">
	<path
   d="M18.5,9.3c0-0.1,0-0.5-0.8-0.5c-0.2,0-0.3,0-0.4,0v1.1h0.3C18.2,9.8,18.5,9.6,18.5,9.3z"
   id="path5265"
   style="fill:#808080" />
	<path
   d="M13.1,8.8c-0.9,0-1.2,0.9-1.2,1.6c0,0.8,0.4,1.6,1.2,1.6c0.8,0,1.2-0.8,1.2-1.6C14.3,9.6,13.9,8.8,13.1,8.8z"
   id="path5267"
   style="fill:#808080" />
	<path
   d="M17.7,10.7h-0.3V12c0.1,0,0.2,0,0.3,0c0.3,0,0.9-0.1,0.9-0.7C18.7,10.8,18.1,10.7,17.7,10.7z"
   id="path5269"
   style="fill:#808080" />
	<path
   d="M5,0C3.3,0,2,1.3,2,3v19h2c0-1.1,0.9-2,2-2c0.2,0,11.6,0,18,0V0H5z M9.9,12.9C9.9,12.9,9.9,12.9,9.9,12.9H9   c-0.1,0-0.1-0.1-0.1-0.1l-0.1-2c0-0.4,0-0.7,0-1.1c-0.1,0.4-0.2,0.7-0.3,1.1l-0.7,2c0,0.1-0.1,0.1-0.1,0.1H6.9   c-0.1,0-0.1,0-0.1-0.1l-0.6-2C6.1,10.4,6,10,5.9,9.7c0,0.4,0,0.8-0.1,1.1l-0.1,1.9c0,0.1-0.1,0.1-0.1,0.1H4.8c0,0-0.1,0-0.1,0   s0-0.1,0-0.1L5,8C5,8,5.1,7.9,5.1,7.9h1.1c0.1,0,0.1,0,0.1,0.1L7,9.9c0.1,0.4,0.2,0.8,0.3,1.2c0.1-0.4,0.2-0.8,0.4-1.2L8.4,8   c0-0.1,0.1-0.1,0.1-0.1h1.1C9.7,7.9,9.7,8,9.7,8l0.3,4.7c0,0,0,0,0,0C10,12.8,9.9,12.9,9.9,12.9z M13.1,12.9c-1.4,0-2.3-1-2.3-2.5   c0-1.5,1-2.6,2.4-2.6c1.4,0,2.3,1,2.3,2.5C15.4,11.9,14.5,12.9,13.1,12.9z M19.3,12.5c-0.4,0.3-1,0.5-1.8,0.5c-0.4,0-0.7,0-1.1-0.1   c-0.1,0-0.1-0.1-0.1-0.1V8.1c0-0.1,0-0.1,0.1-0.1c0.3-0.1,0.8-0.1,1.3-0.1c0.7,0,1.1,0.1,1.4,0.3c0.3,0.2,0.5,0.6,0.5,1   c0,0.4-0.2,0.8-0.6,1c0.4,0.2,0.8,0.6,0.8,1.2C19.8,11.8,19.7,12.2,19.3,12.5z M21.8,12.7c0,0.1-0.1,0.1-0.1,0.1h-0.9   c-0.1,0-0.1-0.1-0.1-0.1V8c0-0.1,0.1-0.1,0.1-0.1h0.9c0.1,0,0.1,0.1,0.1,0.1V12.7z"
   id="path5271"
   style="fill:#808080" />
</g>
</svg>