<?xml version="1.0" encoding="UTF-8" standalone="no"?>
<svg
   xmlns:dc="http://purl.org/dc/elements/1.1/"
   xmlns:cc="http://creativecommons.org/ns#"
   xmlns:rdf="http://www.w3.org/1999/02/22-rdf-syntax-ns#"
   xmlns:svg="http://www.w3.org/2000/svg"
   xmlns="http://www.w3.org/2000/svg"
   xmlns:sodipodi="http://sodipodi.sourceforge.net/DTD/sodipodi-0.dtd"
   xmlns:inkscape="http://www.inkscape.org/namespaces/inkscape"
   width="500px"
   height="500px"
   viewBox="0 0 26 26"
   version="1.1"
   id="svg5"
   sodipodi:docname="icons8_web_search.svg"
   inkscape:version="1.0.1 (3bc2e813f5, 2020-09-07)">
  <metadata
     id="metadata11">
    <rdf:RDF>
      <cc:Work
         rdf:about="">
        <dc:format>image/svg+xml</dc:format>
        <dc:type
           rdf:resource="http://purl.org/dc/dcmitype/StillImage" />
        <dc:title></dc:title>
      </cc:Work>
    </rdf:RDF>
  </metadata>
  <defs
     id="defs9" />
  <sodipodi:namedview
     pagecolor="#ffffff"
     bordercolor="#666666"
     borderopacity="1"
     objecttolerance="10"
     gridtolerance="10"
     guidetolerance="10"
     inkscape:pageopacity="0"
     inkscape:pageshadow="2"
     inkscape:window-width="1920"
     inkscape:window-height="1011"
     id="namedview7"
     showgrid="false"
     inkscape:zoom="1.34"
     inkscape:cx="250"
     inkscape:cy="285.76075"
     inkscape:window-x="0"
     inkscape:window-y="0"
     inkscape:window-maximized="1"
     inkscape:current-layer="svg5" />
  <g
     id="surface1"
     transform="matrix(1.4146118,0,0,1.4146118,7.3719451,-1.7503929)">
    <path
       style="fill:#808080;fill-opacity:1;fill-rule:nonzero;stroke:none"
       d="m 6.7757303,1.4983588 c -3.164063,0 -5.726563,2.5625 -5.726563,5.726563 0,3.1601562 2.5625,5.7226562 5.726563,5.7226562 3.160156,0 5.7226557,-2.5625 5.7226557,-5.7226562 0,-3.164063 -2.5624997,-5.726563 -5.7226557,-5.726563 z m 0.953125,1.078125 c 0,0.0039 0.03125,-0.0039 0.03125,0 0.257812,0.05469 0.5,0.15625 0.738281,0.246094 0.01563,0.0078 0.01563,0.0039 0.08984,0.03125 0.136718,0.05859 0.242187,0.144531 0.371093,0.214844 -0.01172,0.0039 -0.02344,0.02344 -0.03125,0.03125 l -0.03125,0.03125 c -0.0078,0.0078 0.0039,0.02344 0,0.03125 l -0.03125,0.03125 c -0.0039,0.0078 0.0039,0.02344 0,0.03125 v 0.02734 l -0.03125,0.1875 c -0.0039,0.0039 0.0039,0.02734 0,0.03125 l -0.08984,0.121094 c -0.01172,0.01563 -0.01172,0.01563 0,0.03125 l 0.121093,0.214844 0.03125,0.03125 c 0.0039,0.0078 -0.0039,0.02734 0,0.03125 0.03125,0.02734 0.08594,0.02344 0.125,0.03125 h 0.03125 l -0.03125,0.08984 c -0.0039,0.01172 0.01953,0.01953 0.03125,0.03125 l 0.02734,0.03125 c 0.0039,0.0039 0,0.02734 0,0.03125 l -0.05859,0.03125 c -0.0078,0.0039 -0.02734,-0.0039 -0.03125,0 l -0.03125,0.0625 c -0.01172,0 -0.02344,-0.0078 -0.03125,0 l -0.03125,0.03125 v 0.02734 l -0.03125,0.03125 v -0.05859 c -0.0039,-0.01953 0.0078,-0.01172 -0.246093,-0.246094 v -0.0625 -0.03125 c 0,-0.0039 -0.02734,-0.02734 -0.03125,-0.03125 -0.01172,-0.01953 -0.01172,-0.02344 -0.08984,-0.0625 v -0.03125 c -0.01172,-0.02344 -0.03125,-0.02734 -0.0625,-0.02734 h -0.0625 c -0.04297,0 -0.05469,0.02344 -0.08984,0.214844 v 0.03125 h -0.03125 c -0.01172,0.0039 -0.02344,0.01953 -0.03125,0.02734 -0.0078,0.0039 -0.01953,-0.0078 -0.03125,0 -0.0039,0.0039 0.0039,0.03125 0,0.03125 -0.02734,0 -0.05469,-0.0078 -0.09375,0.03125 -0.0078,0.01172 -0.0039,0.05078 0,0.0625 l 0.03125,0.0625 c 0.0039,0.0078 -0.0039,0.02734 0,0.03125 v 0.08984 c 0,0.01563 -0.01172,0.01953 0,0.03125 0.01172,0.01172 0.03125,0.03516 0.0625,0.03125 l 0.125,-0.03125 h 0.02734 0.0625 v 0.0625 c -0.0039,0.01563 -0.01172,0.04687 0,0.0625 0.01172,0.01563 0.03516,0.02734 0.0625,0.02734 h 0.03125 v 0.0625 c 0.0039,0.01953 -0.0039,0.04297 0,0.0625 0.0039,0.0078 0.02734,0.02734 0.03125,0.03125 0.0078,0.01172 0.01953,0.03125 0.03125,0.03125 h 0.05859 l 0.09375,0.0625 v 0.02734 0.03125 0.0625 c -0.04297,-0.0078 -0.05078,-0.01172 -0.214844,-0.03125 -0.01563,-0.0039 -0.0039,-0.01953 -0.0625,-0.03125 -0.0078,0 -0.02344,-0.0039 -0.03125,0 h -0.03125 c -0.01563,0.0039 -0.02344,0.01953 -0.03125,0.03125 -0.0039,0.0039 0.0039,0.02344 0,0.03125 h -0.02734 c -0.01172,0 -0.02344,0.01953 -0.03125,0.03125 -0.0078,0.01172 -0.03125,0.01953 -0.03125,0.03125 0.01172,0.05859 0.02344,0.125 0.03125,0.183594 l -0.03125,0.183593 c 0,0.0078 -0.0039,0.01953 0,0.03125 0,0.01172 0.02344,0.02344 0.03125,0.03125 l 0.03125,0.03125 0.02734,0.121094 c 0.01172,0.02734 0.0625,0.03906 0.09375,0.03125 l 0.0625,-0.03125 0.03125,0.0625 -0.277344,0.214844 c -0.0039,0.0039 0.0039,0.02734 0,0.03125 l -0.0625,0.214844 -0.183594,0.125 -0.09375,0.03125 c -0.01172,0.0039 -0.02734,0.01953 -0.03125,0.03125 -0.03516,0.08203 -0.09766,0.1875 -0.152343,0.277343 -0.02344,0.03516 -0.03906,0.05078 -0.0625,0.08984 l -0.09375,0.246094 c -0.0039,0.0078 0,0.02344 0,0.03125 0.0039,0.02734 0,0.01563 0,0.03125 0,0.0078 -0.0039,0.02344 0,0.03125 0,0.0039 -0.0039,0.03125 0,0.03125 l 0.03125,0.03125 0.03125,0.214844 -0.121094,0.277343 c -0.01172,0.01953 -0.01563,0.04687 0,0.05859 l 0.05859,0.0625 v 0.0625 0.03125 c 0,0.0078 -0.0039,0.02344 0,0.03125 l 0.03125,0.0625 0.0625,0.08984 0.152343,0.183594 c 0.0039,0.0039 -0.0039,0.02734 0,0.03125 l 0.09375,0.0625 0.0625,0.0625 c 0,0.0039 0.02734,0.02734 0.03125,0.03125 l 0.03125,0.03125 0.214844,0.121093 0.0625,0.0625 c 0.0039,0.0078 0.01953,0 0.02734,0 0.03125,0 0.06641,-0.01953 0.09375,-0.03125 h 0.371094 c 0.0039,0 0.02344,-0.03125 0.02734,-0.03125 h 0.246094 c 0.0039,0 0,-0.02734 0,-0.03125 l 0.09375,-0.03125 h 0.09375 l 0.0625,-0.03125 0.05859,0.15625 c 0.0078,0.01953 0.01172,0.03516 0.03125,0.03125 l 0.15625,-0.03125 0.05859,0.08984 0.03125,0.03125 -0.121094,0.246094 c -0.0039,0.01172 -0.0039,0.05078 0,0.0625 l 0.08984,0.246094 0.03125,0.0625 v 0.0625 c 0,0.0078 -0.0039,0.02734 0,0.03125 0.0039,0.0078 -0.0039,0.01953 0,0.02734 0.0039,0.0078 0.02734,-0.0078 0.03125,0 v 0.0625 l -0.03125,0.0625 -0.0625,0.308594 -0.08984,0.08984 -0.0625,0.125 h -0.03125 c -0.0039,0.0039 0.0039,0.02734 0,0.03125 -0.0078,0.0039 -0.02734,0.02344 -0.03125,0.03125 -0.02344,0.05859 -0.03906,0.09766 -0.05859,0.152344 -0.0039,0.0039 0,0.02734 0,0.03125 l 0.02734,0.121093 c -0.04687,0.1875 -0.101563,0.382813 -0.152344,0.523438 v 0.03125 l -0.03125,0.03125 -0.03125,0.09375 c -0.01953,0.03906 -0.02734,0.0625 -0.0625,0.121094 l -0.02734,0.03125 c -0.02734,0.03125 -0.04297,0.08594 -0.0625,0.125 l -0.03125,0.03125 c -0.0078,0.01172 -0.0039,0.01563 0,0.02734 0.0039,0.01172 0.01953,0.02734 0.03125,0.03125 -0.664062,0.355469 -1.417968,0.554688 -2.214843,0.554688 -0.453125,0 -0.882813,-0.06641 -1.292969,-0.183594 -0.01563,-0.01563 -0.01563,-0.04687 -0.03125,-0.0625 h -0.03125 c 0.01172,-0.01563 0.0078,-0.04687 0,-0.0625 l 0.0625,-0.05859 c 0.01172,-0.0078 0.02734,-0.01953 0.03125,-0.03125 l -0.03125,-0.09375 c 0,-0.01172 0.0078,-0.02344 0,-0.03125 -0.01172,-0.01172 -0.01953,-0.02344 -0.03125,-0.03125 0.0078,-0.0039 0.02734,-0.02344 0.03125,-0.03125 l 0.03125,-0.05859 v -0.03125 c 0.0039,-0.0078 0.02344,0.0078 0.02734,0 v -0.125 c 0.0039,-0.0039 0.02734,0.0039 0.03125,0 0.0039,-0.0039 0,-0.02344 0,-0.03125 v -0.05859 c 0.01172,-0.01172 0.0078,-0.01563 0,-0.03125 l -0.08984,-0.246094 c 0.101562,-0.05859 0.242187,-0.105469 0.335937,-0.15625 0.01172,-0.0078 0.02734,-0.01563 0.03125,-0.03125 v -0.08984 c 0.01563,-0.105468 0.04687,-0.210937 0.0625,-0.308593 v -0.03125 l -0.0625,-0.2460946 v -0.03125 l 0.0625,-0.03125 h 0.03125 c 0.0039,-0.0039 -0.0039,-0.02734 0,-0.02734 l 0.0625,-0.125 v -0.03125 l 0.08986,-0.152319 c 0.0039,-0.0039 0,-0.02344 0,-0.03125 l -0.03125,-0.246093 c -0.0039,-0.01563 -0.01953,-0.02344 -0.03125,-0.03125 -0.128906,-0.06641 -0.289062,-0.148438 -0.429687,-0.214844 l -0.367188,-0.0625 -0.125,-0.03125 -0.121094,-0.08984 c -0.0039,0 -0.02734,-0.03125 -0.03125,-0.03125 0.0078,-0.01172 -0.02344,-0.05078 -0.03125,-0.0625 -0.0078,-0.01172 -0.01953,-0.03516 -0.03125,-0.03125 l -0.125,-0.09375 -0.121093,-0.183594 -0.03125,-0.03125 -0.214844,-0.08984 -0.0625,-0.0625 c -0.0078,-0.0078 -0.05078,-0.03516 -0.0625,-0.03125 l -0.121094,0.03125 -0.125,-0.15625 c 0.01563,-0.0078 0.02734,-0.01563 0.03125,-0.02734 0.0039,-0.03516 0,-0.07031 0,-0.09375 l 0.03125,-0.03125 c 0.0078,-0.01172 0.03125,-0.01953 0.03125,-0.03125 v -0.03125 c 0,-0.02344 -0.03906,-0.05859 -0.0625,-0.05859 -0.05859,-0.0039 -0.105469,0 -0.152344,0 0,-0.01172 0.019532,-0.01172 0,-0.0625 0.019532,-0.01172 0.03125,-0.03906 0.03125,-0.0625 0,-0.01172 -0.00391,-0.01953 -0.03125,-0.09375 0,-0.01172 -0.019531,-0.02734 -0.03125,-0.05859 0.00781,-0.0039 0.027344,0.0078 0.03125,0 0.015625,-0.02344 -0.00391,-0.05078 -0.03125,-0.125 0.00391,-0.01172 0.00391,-0.01953 0,-0.03125 0.023438,-0.01172 0.027344,-0.03516 0.03125,-0.0625 0,-0.01172 0.023438,-0.01172 0,-0.08984 -0.011718,-0.01953 -0.046875,-0.02734 -0.0625,-0.03125 0.00391,-0.01953 0.011719,-0.04687 0,-0.0625 -0.011718,-0.01563 -0.042968,-0.03125 -0.0625,-0.03125 -0.00391,-0.019554 -0.035156,-0.02346 -0.058593,-0.031272 -0.039063,-0.01172 -0.078125,-0.01953 -0.125,-0.02734 -0.023438,-0.0039 -0.046875,0.0039 -0.0625,0 -0.00781,-0.0039 -0.023438,-0.03125 -0.03125,-0.03125 -0.015625,0.0039 -0.019532,0.01953 -0.027344,0.03125 -0.019531,-0.01563 -0.046875,-0.01953 -0.0625,-0.03125 l -0.03125,-0.03125 c -0.011719,-0.0078 -0.019531,-0.0039 -0.03125,0 -0.019531,0.0039 -0.050781,0.01172 -0.0625,0.03125 v -0.03125 l -0.183594,-0.09375 c -0.00781,-0.0039 -0.015625,0.0039 -0.03125,0 -0.00781,-0.0039 -0.023437,-0.0039 -0.03125,0 0.019531,-0.0078 0.03125,-0.04687 0.03125,-0.0625 0.00391,-0.01953 0.00781,0.0039 -0.03125,-0.08984 -0.011719,-0.02734 -0.035156,-0.07031 -0.0625,-0.0625 -0.00781,0.0039 -0.011719,0.0078 -0.027344,0.03125 -0.011718,0.01563 -0.023437,0.04297 -0.03125,0.0625 v 0.03125 c -0.046875,-0.03125 -0.105468,-0.08984 -0.15625,-0.125 -0.070312,-0.05078 -0.152343,-0.07813 -0.214843,-0.125 -0.00781,0 -0.023438,-0.02734 -0.03125,-0.02734 h -0.03125 l -0.121094,0.02734 c -0.023438,0.0078 -0.03125,0.01563 -0.09375,0.15625 -0.00781,-0.0078 -0.023438,0.0039 -0.03125,0 l -0.183594,0.031242 c 0.027344,-0.25 0.09375,-0.472656 0.15625,-0.707031 l 0.089844,0.08984 c 0.015625,0.01563 0.042969,0.01172 0.0625,0 0.039062,-0.02344 0.050781,-0.08203 0.0625,-0.121094 l 0.121094,0.05859 -0.03125,0.371093 c 0,0.01953 0.015625,0.02344 0.03125,0.03125 0.039062,0.01953 0.074218,0.03125 0.09375,0.03125 0.011718,0 0.023437,-0.02344 0.03125,-0.03125 0,0.0039 0.03125,-0.0039 0.03125,0 v 0.0625 c 0.00391,0.01563 0.019531,0.02344 0.058593,0.02734 h 0.0625 c 0.027344,0 0.058594,-0.0039 0.0625,-0.02734 0.00781,-0.01563 -0.00781,-0.01172 -0.03125,-0.125 -0.00781,-0.02734 -0.035156,-0.0625 -0.0625,-0.0625 h -0.03125 l 0.03125,-0.121093 c 0.011719,-0.07813 0.015625,-0.144532 0.03125,-0.214844 l 0.125,-0.1875 c 0.00781,0 0.023438,0.0039 0.027344,0 l 0.125,-0.08984 c 0.078125,-0.05469 0.144531,-0.109375 0.214844,-0.15625 0.00391,-0.0039 0.027344,0.0039 0.03125,0 0.011719,-0.01953 -0.00391,-0.04687 0,-0.05859 0.011719,-0.04297 0.050781,-0.08203 0.0625,-0.125 0.019531,0.01563 0.046875,0.01563 0.0625,0 l 0.183594,-0.214843 c 0.00391,-0.0039 0.027343,0.0039 0.03125,0 v -0.03125 l 0.214843,-0.03125 c 0.011719,0 0.023438,-0.02344 0.03125,-0.03125 l 0.058594,-0.05859 c 0.01172,-0.01172 0.0078,-0.01563 0,-0.03125 v -0.03125 l 0.03125,-0.03125 h 0.0625 c 0.0039,0 0.02734,-0.03125 0.03125,-0.03125 l 0.125,-0.0625 v 0.03125 c -0.0039,0.01563 -0.01172,0.01953 0,0.03125 l 0.02734,0.03125 c 0.01172,0.01563 0.01563,0.0078 0.03125,0 0.07422,-0.02734 0.195312,-0.0625 0.277344,-0.09375 l 0.0625,-0.03125 c 0.0078,-0.0039 0.02734,0.0039 0.03125,0 v -0.027348 c 0.0039,-0.0039 0.02734,0 0.03125,0 h 0.03125 c 0.01563,0 0.02734,-0.01953 0.08984,-0.0625 0.0039,-0.0039 0.02734,0.0039 0.03125,0 0.01172,-0.02734 -0.01172,-0.04297 -0.03125,-0.0625 l 0.03125,-0.0625 c 0.0039,-0.01172 -0.02344,-0.05078 -0.03125,-0.0625 -0.01172,-0.0078 -0.0039,-0.02734 -0.03125,-0.02734 -0.02344,0 -0.04687,0.01172 -0.183593,0.152344 l -0.03125,-0.03125 c 0.0039,-0.01953 0.02734,-0.04297 0.03125,-0.0625 0.01172,0 0.02344,0.0078 0.03125,0 l 0.0625,-0.05859 c 0.01172,-0.01172 0,-0.04687 0,-0.0625 -0.0039,-0.01172 0.0078,-0.02344 0,-0.03125 h 0.183593 c -0.0078,0.0078 -0.02734,0.0078 -0.03125,0.03125 -0.0039,0.01563 0.02344,0.05078 0.03125,0.0625 l -0.03125,0.02734 c -0.0078,0.01172 -0.0078,0.05078 0,0.0625 0.01172,0.02734 0.02344,0.0078 0.152344,0.03125 v 0.03125 c 0.0078,0.0078 0.02734,0.03125 0.0625,0.03125 h 0.03125 c 0.01172,-0.0039 0.01953,-0.01953 0.03125,-0.03125 0.0078,0.0078 0.04687,0.02734 0.0625,0.03125 h 0.03125 c 0.01953,-0.0039 0.03125,0 0.121094,-0.0625 0.0039,-0.0039 -0.0039,-0.01172 0,-0.03125 0,-0.01172 0.02734,-0.04687 0.03125,-0.0625 0,-0.01953 -0.01172,-0.01563 -0.03125,-0.02734 v -0.03125 c 0.0039,-0.01172 0.0039,-0.01953 0,-0.03125 -0.0078,-0.01953 0.0039,-0.01563 -0.03125,-0.03125 l 0.0625,-0.0625 c 0.01953,-0.01953 0.0078,-0.07031 0,-0.08984 -0.0078,-0.01563 -0.01563,0.0078 -0.03125,0 l 0.0625,-0.09375 c 0.0078,-0.01172 0.0039,-0.01953 0,-0.03125 -0.0039,-0.01563 -0.01563,-0.02734 -0.03125,-0.03125 l -0.09375,-0.03125 c 0.01172,-0.03516 0.02344,-0.0625 0.03125,-0.08984 0.0039,-0.01953 0.01953,-0.05078 0,-0.0625 h -0.03125 c 0.0039,-0.0039 0,-0.02734 0,-0.03125 l 0.03125,-0.03125 c 0.01953,-0.132813 0.03125,-0.210938 0.03125,-0.214844 0.0039,-0.01953 -0.01172,-0.01953 -0.03125,-0.03125 0.01953,-0.0078 0.02344,-0.02344 0.0625,-0.09375 h 0.03125 0.03125 c 0.02734,0 0.01172,-0.0039 0.121094,-0.121094 0.0078,0.0039 0.02344,0.03125 0.03125,0.03125 0.02344,0 0.03125,-0.02344 0.214843,-0.125 0.0078,-0.0078 0.03125,-0.01953 0.03125,-0.03125 0.0039,-0.01953 0.0078,-0.02734 -0.08984,-0.152343 l 0.02734,-0.03125 c 0.01563,-0.03125 0.03516,-0.04297 -0.05859,-0.183594 l -0.03125,-0.03125 c 0.01172,-0.0078 0.02734,-0.02734 0.0625,-0.0625 0.0078,0.0039 0.01953,0.0039 0.02734,0 0.04687,-0.01172 0.08594,-0.03516 0.125,-0.05859 0.01172,-0.0078 0.01953,-0.02344 0.03125,-0.03125 h 0.03125 0.05859 c 0.0039,-0.0039 0.02734,0.0039 0.03125,0 -0.0039,0.01172 0.0039,0.02344 0,0.03125 v 0.02734 0.03125 c 0.0039,0.01172 0.02344,0.02344 0.03125,0.03125 0.0078,0.0039 0.02344,0 0.03125,0 h 0.125 0.03125 v 0.03125 l -0.03125,0.09375 c -0.0039,0.0078 0,0.02344 0,0.03125 0,0.01172 0.02344,0.01953 0.03125,0.02734 -0.0039,0.01172 -0.0078,0.01953 0,0.03125 0,0.0078 -0.0039,0.02344 0,0.03125 v 0.03125 h -0.03125 c -0.02344,0.0039 -0.02344,0.0078 -0.125,0.09375 -0.0078,0.0039 -0.02734,0.02344 -0.03125,0.03125 v 0.08984 c -0.0039,0.0078 -0.0039,0.02344 0,0.03125 v 0.03125 h -0.03125 c -0.0078,0.0039 -0.02734,0.01172 -0.03125,0.03125 v 0.03125 l 0.0625,0.183594 c 0.0039,0.01172 -0.0078,0.02734 0,0.03125 0.0078,0.0078 0.02344,0.02734 0.03125,0.03125 0.0078,0.0039 0.02344,0 0.03125,0 h 0.03125 l 0.03125,0.03125 c 0.0039,0.0078 0.02344,0.02734 0.03125,0.03125 0.01563,0.0078 0.0078,0 0.03125,0 h 0.08984 c 0.0078,0 0.02734,-0.02734 0.03125,-0.03125 l 0.0625,-0.0625 c 0.0625,-0.06641 0.125,-0.125 0.183594,-0.183594 l 0.152343,-0.0625 c 0.0039,0 0.02734,0.0039 0.03125,0 h 0.03125 c 0.02344,0 0.04687,-0.0039 0.125,-0.0625 l 0.121094,-0.09375 0.09375,0.03125 0.03125,-0.03125 c 0.08594,-0.02734 0.1875,-0.05469 0.277344,-0.08984 0,0.0039 0.02734,0.0039 0.03125,0 0.01563,0 0.01953,-0.01563 0.02734,-0.03125 l 0.03125,-0.03125 c 0.01172,-0.01953 -0.0078,-0.04297 0,-0.0625 0.0039,-0.0078 0.03125,-0.02344 0.03125,-0.03125 0,-0.01172 -0.02344,-0.01953 -0.03125,-0.02734 0.01172,-0.0078 0.02734,-0.01953 0.03125,-0.03125 l 0.03125,-0.15625 c 0,-0.0078 -0.02734,0.0078 -0.03125,0 0.0078,-0.01172 0.0078,-0.05078 0,-0.05859 -0.01563,-0.03125 -0.01563,-0.03516 -0.03125,-0.0625 0.0078,-0.0039 0.02734,-0.02344 0.03125,-0.03125 0.01563,0.0078 0.05078,0.01172 0.0625,0 l 0.03125,-0.03125 c 0.0039,-0.0039 -0.0039,-0.02734 0,-0.03125 z m -2.492188,0.523438 c 0.01953,0.0078 0.03516,0.02344 0.05859,0.03125 l -0.05859,0.03125 c -0.0039,0.0039 0.0039,0.02734 0,0.03125 l -0.03125,0.03125 h -0.09375 z m -0.1875,0.152343 -0.03125,0.03125 -0.05859,0.0625 c -0.0039,0.0078 -0.01563,0.03906 0,0.0625 l -0.03125,-0.03125 h -0.03125 l 0.03125,-0.09375 z m 2.464844,0 c -0.01563,0 -0.02734,0.01172 -0.125,0.03125 -0.01953,0.0078 -0.02734,0.01172 -0.03125,0.03125 -0.0039,0.01563 -0.01172,0.05078 0,0.0625 0.01563,0.01563 0.04297,0.01953 0.0625,0.03125 v 0.03125 c -0.0039,0.01172 -0.0078,0.05078 0,0.05859 0.01172,0.02734 -0.0078,0.02734 0.214844,0.09375 0.0078,0.0039 0.02734,0 0.03125,0 0.01563,0 0.0078,-0.01953 0.246093,-0.121094 0.02734,-0.01953 0.03516,-0.04687 0.03125,-0.0625 -0.0039,-0.01172 -0.02344,-0.01172 -0.03125,-0.03125 -0.0039,-0.0078 0.0039,-0.02734 0,-0.03125 l -0.09375,-0.0625 c -0.0078,-0.0078 -0.03516,-0.03125 -0.05859,-0.03125 l -0.1875,0.03125 -0.02734,-0.03125 c -0.0078,-0.0039 -0.02344,0 -0.03125,0 z m -2.988281,0.125 h 0.09375 v 0.03125 c -0.0039,0.02344 0.01172,0.02344 0.03125,0.03125 0.03125,0.0078 0.04687,0.03125 0.0625,0.03125 -0.01563,0.01953 -0.01953,0.03906 -0.03125,0.05859 -0.01953,0.02344 -0.04687,0.07422 -0.0625,0.09375 l -0.09375,0.03125 c -0.01172,0.0039 -0.02344,-0.0078 -0.02734,0 l -0.09375,0.183594 -0.214844,0.0625 c -0.01172,0.0039 -0.02344,0.01953 -0.03125,0.03125 l -0.0625,-0.09375 -0.03125,-0.08984 c -0.0039,-0.01172 -0.01953,-0.02344 -0.03125,-0.03125 0.01172,-0.0078 0.03125,-0.01953 0.03125,-0.03125 v -0.03125 l 0.125,-0.125 c 0.05078,-0.01953 0.125,-0.03516 0.183594,-0.05859 l 0.125,-0.03125 c 0.0078,-0.0039 -0.0039,-0.02734 0,-0.03125 0.0039,-0.0039 0.02344,0.0039 0.02734,0 0.0078,-0.0078 -0.0039,-0.01953 0,-0.03125 z m 0.464843,0.03125 c 0.02734,0.01563 0.02344,0.01563 0.121094,0 h 0.03125 v 0.03125 c -0.03125,0.04687 -0.02734,0.05469 0.125,0.152344 l -0.125,0.03125 c 0.01563,-0.01563 0.01563,-0.04297 0,-0.0625 l -0.09375,-0.121094 c -0.0039,-0.0039 -0.02734,0.0039 -0.03125,0 z m 4.523438,0.339844 0.0625,0.02734 c 0.0078,0.0039 0.01563,0.0039 0.02734,0 0.0078,0.03125 0.01953,0.04297 0.03125,0.0625 l 0.03125,0.03125 c -0.0039,0.01172 -0.0039,0.02344 0,0.03125 l 0.03125,0.09375 c -0.03516,-0.01172 -0.05859,-0.0078 -0.09375,0 -0.01172,0.0039 -0.01953,-0.0039 -0.02734,0 -0.0039,0 -0.02734,0.02734 -0.03125,0.02734 l -0.09375,0.03125 c 0.01953,-0.0078 0.03125,-0.03906 0.03125,-0.05859 v -0.125 z m 1.0781247,1.074219 c 0.08984,0.08594 0.09766,0.0625 0.121094,0.0625 0.0078,0 0.02344,0.0039 0.03125,0 0.0078,-0.01563 0.02344,-0.01953 0.03125,-0.03125 l 0.152343,0.09375 c 0.0078,0.01563 -0.0078,0.04687 0,0.0625 -0.0625,-0.04297 -0.07422,-0.03125 -0.08984,-0.03125 -0.03125,0.01172 -0.08984,0.01563 -0.125,0.03125 -0.03125,0.01172 -0.03516,0.01563 -0.0625,0.02734 h -0.03125 l -0.05859,-0.05859 c 0.0039,-0.0078 0,-0.01953 0,-0.03125 v -0.03125 c 0.0078,-0.0078 -0.0039,-0.02344 0,-0.03125 0.0039,-0.0078 0,-0.02344 0,-0.03125 z m -1.4179687,0.214844 h 0.15625 c 0.0039,0 0.01953,0.0039 0.02734,0 h 0.03125 c 0,0.0039 -0.0039,0.0039 0,0.03125 0.0039,0.01563 0.02734,0.04687 0.03125,0.0625 0.0039,0.0078 -0.0078,0.02734 0,0.03125 -0.0039,0.0078 -0.0039,0.01953 0,0.03125 l 0.03125,0.03125 c 0.0078,0.02734 -0.0078,0.03125 0,0.05859 0.01172,0.03906 0.04687,0.05859 0.0625,0.0625 0.0078,0.0039 0.02344,0.0039 0.03125,0 l 0.05859,-0.03125 c 0.02344,-0.0078 0.03125,-0.03906 0.03125,-0.05859 0,-0.01172 0,0.0078 -0.03125,-0.09375 -0.0078,-0.01953 -0.01172,-0.02344 -0.02734,-0.03125 0.0039,-0.01172 -0.0039,-0.04687 0,-0.0625 l 0.08984,0.09375 c 0.0039,0.0039 0.02734,-0.0039 0.03125,0 l 0.152343,0.09375 h 0.03125 v 0.05859 l -0.08984,-0.03125 c -0.0078,-0.0039 -0.05469,-0.0039 -0.0625,0 -0.01953,0.0078 -0.03516,0.04297 -0.03125,0.0625 0.0039,0.01563 0.02734,0.01172 0.03125,0.03125 0,0.0078 -0.0039,0.02734 0,0.03125 0.03125,0.03906 0.07813,0.0625 0.121093,0.09375 0.0039,0.0039 0.02734,0.02734 0.03125,0.02734 -0.03125,0.0039 -0.05859,0.03125 -0.05859,0.0625 -0.0039,-0.01953 -0.02734,-0.04297 -0.03125,-0.0625 -0.0039,-0.0078 0.0078,-0.01953 0,-0.02734 l -0.03125,-0.03125 -0.09375,-0.03125 c -0.01172,-0.0078 -0.01953,-0.03125 -0.03125,-0.03125 l -0.08984,0.03125 -0.402344,0.03125 h -0.03125 l -0.214844,0.05859 0.0625,-0.08984 h 0.03125 c 0.01172,-0.01563 0.01563,-0.05078 0.03125,-0.0625 0.01172,-0.01172 0.03906,-0.01172 0.03125,-0.03125 l -0.03125,-0.121093 v -0.03125 h 0.05859 0.03125 l 0.03125,-0.03125 c 0.01563,-0.0078 0.02734,-0.01563 0.03125,-0.03125 z m 0.9218747,0.21875 c 0.01172,0 0.02344,0.0078 0.03125,0 v 0.02734 c 0.0039,0.0039 0.02734,-0.0039 0.03125,0 0.0039,0.0039 -0.0078,0.02344 0,0.03125 0.0078,0.0078 0.02344,-0.0039 0.03125,0 l 0.0625,0.0625 c 0.0078,0.0078 -0.01172,0.02734 0,0.03125 0.0078,0.0039 0.02734,0 0.03125,0 0.01172,0.01953 0.01953,0.04297 0.03125,0.0625 l 0.03125,0.03125 c 0,0.0078 -0.0078,0.02734 0,0.02734 h 0.02734 c 0.0078,0.0078 0.02344,0 0.03125,0 h 0.03125 v 0.03125 c 0.0039,0.01172 0.0039,0.01172 0.03125,0.0625 0.01563,0.02344 0,0.02344 0.183594,0.0625 h 0.03125 c 0.05469,-0.0039 0.03906,-0.04687 0.03125,-0.125 l 0.03125,0.03125 c 0.01172,0.01172 0.01563,0.0039 0.03125,0 l 0.08984,-0.03125 c -0.0039,0.0039 0,0.02734 0,0.03125 -0.0039,0.01953 0.01172,0.04687 0.03125,0.0625 0.0039,0.0039 -0.0078,-0.0078 0.0625,0.03125 0.0039,0.0039 0.02734,0 0.03125,0 h 0.03125 c 0.0078,-0.0039 0.02734,0.0039 0.03125,0 0.0039,0.01172 0.02734,0.01953 0.03125,0.03125 v 0.183594 l -0.125,-0.03125 c -0.01953,-0.0078 -0.05078,-0.01563 -0.0625,0 l -0.03125,0.0625 -0.152343,-0.0625 c -0.0078,-0.0039 -0.02344,-0.03125 -0.03125,-0.03125 -0.02734,0 -0.04297,0.03125 -0.0625,0.03125 l -0.02734,-0.03125 c -0.0078,-0.01172 -0.01953,-0.02734 -0.03125,-0.03125 -0.05859,-0.01172 -0.08203,0 -0.125,0 -0.0078,0 -0.02734,-0.0039 -0.03125,0 l -0.05859,0.03125 c -0.01172,0.0078 -0.02734,0.01953 -0.03125,0.03125 v 0.09375 l -0.1875,-0.125 h -0.03125 l -0.2148437,-0.05859 -0.05859,-0.03125 c 0.0039,-0.0078 0,-0.02344 0,-0.03125 0,-0.02344 0.0039,-0.04297 0,-0.0625 0.0039,0.0078 0.01953,0.01953 0.02734,0.03125 0.01563,0.02734 0.05469,0.02734 0.0625,0.03125 v -0.03125 c 0.01953,-0.0039 0.05469,-0.0039 0.09375,-0.0625 0.0039,-0.0078 0,-0.02344 0,-0.03125 -0.0039,-0.01172 0.0078,-0.02344 0,-0.03125 0.01953,-0.0078 0.03125,-0.0039 0.03125,-0.03125 v -0.08984 c 0.01172,-0.0039 0.02344,-0.01953 0.03125,-0.03125 l 0.02734,-0.09375 c 0.0078,-0.01172 0.0078,-0.01953 0,-0.03125 z m 0.464844,0.183593 0.05859,0.0625 c -0.01953,-0.0039 -0.06641,0 -0.08984,0 v -0.03125 c 0.01172,-0.0078 0.03125,-0.01953 0.03125,-0.03125 z m -1.6953127,0.08984 v 0.03125 h -0.121093 z m -6.800781,2.1875 0.09375,0.246094 c 0,0.0039 0.027344,0.02734 0.03125,0.03125 v 0.03125 c 0.011719,0.01563 0.039063,0.0078 0.058594,0 h 0.03125 l 0.03125,0.05859 c 0.00391,0.01172 0.019531,0.02344 0.03125,0.03125 0.00781,0.0039 0.027344,0 0.03125,0 l 0.0625,0.09375 c 0.011719,0.01953 0.042969,0.0078 0.058594,0 l 0.0625,-0.03125 0.03125,0.03125 c 0.019531,0.121093 0.039062,0.246093 0.0625,0.367187 v 0.09375 l -0.03125,0.0625 -0.03125,0.183594 v 0.03125 c 0.011718,0.04297 0.019531,0.08594 0.03125,0.125 v 0.02734 l 0.03125,0.03125 c -0.00391,0.0078 -0.00391,0.01953 0,0.03125 0,0.0039 -0.00391,0.02734 0,0.03125 l 0.089843,0.183593 c 0.00391,0.0039 -0.00391,0.02734 0,0.03125 l 0.1875,0.15625 0.089844,0.121094 c 0.00391,0.0039 -0.00391,0.02734 0,0.03125 0.136719,0.175781 0.335938,0.4062502 0.371094,0.4296882 l 0.246094,0.125 h 0.03125 c 0.023437,0.01563 0.042968,0.04687 0.121093,0.08984 v 0.03125 c 0.101563,0.148438 0.253907,0.363282 0.371094,0.523438 0.171875,0.21875 0.292969,0.347656 0.429688,0.492187 -1.371094,-0.722641 -2.359375,-2.0742032 -2.523438,-3.6913912 z m 7.324219,0.921875 c -0.0625,0.0078 -0.105469,0.06641 -0.121094,0.125 -0.01172,0.04687 0.02344,0.09375 0.0625,0.121094 0.01563,0.01563 0.03125,0 0.05859,0 0.06641,0 0.140625,-0.03125 0.15625,-0.08984 0.01172,-0.03516 -0.0078,-0.0625 -0.03125,-0.09375 -0.02344,-0.03125 -0.04687,-0.0625 -0.09375,-0.0625 z"
       id="path2"
       sodipodi:nodetypes="ssssscccccssccccccccccccccccccccsccccccscccsscccccsccscsscccccssccccscccccccccccssccccscccccccccscccccsccccccccscccccccccccscssscccccccccccccscscccccccccccccccccsccscscccccccsccccccssccccccccccccccccccccccccscccccsccccccsscccsccccccccsccscccccccccccccccccccsccccccsscccsscsccsccscccccccccccccccsscccscccccccsccsscccccsccccccccccccccscccccccccccscccccccccccccccscscccccccccccccccccsccccscccccccccccccccssccssssccccscccccccccscccccccsscccccccccsccccccsccsccccsccccccccscccccccscccccccsccccssccccccccccccccccccccccscccscccccccccscscccscccccccccccscccccccccccccccccsccccccccccccccccccccccscsccccscsccccccscccccsccccccccscccsccccccccscccccccscccccccccccccccccsccccccsccccccccccccccccccccccccccccscsscccsc" />
  </g>
  <rect
     style="fill:#808080;stroke-width:0.481422"
     x="-9.1200037"
     y="20.729052"
     transform="matrix(0.71434838,-0.69979025,0.71434838,0.69979025,0,0)"
     width="1.0986031"
     height="2.2304244"
     id="rect4797" />
  <path
     inkscape:connector-curvature="0"
     style="fill:#808080;stroke-width:0.481373"
     d="m 13.187261,23.272503 c 0.346775,0.339702 0.346775,0.89095 0,1.231129 l -0.418751,0.409743 c -0.347257,0.340183 -0.909486,0.340183 -1.256257,0 L 9.2682037,22.714583 c -0.347258,-0.340179 -0.347258,-0.89095 -4.83e-4,-1.230654 l 0.418753,-0.41022 c 0.3467713,-0.339704 0.9099703,-0.339704 1.2567433,0 z"
     id="path4799" />
  <path
     inkscape:connector-curvature="0"
     style="fill:#808080;stroke-width:0.481373"
     d="m 5.7319077,12.935087 c -2.63605,0 -4.77212404,2.092543 -4.77212404,4.674874 0,2.582327 2.13607404,4.675348 4.77212404,4.675348 2.636051,0 4.7726133,-2.093021 4.7726133,-4.675348 0,-2.582331 -2.1365623,-4.674874 -4.7726133,-4.674874 z m 0,8.484997 c -2.14872,0 -3.889876,-1.705193 -3.889876,-3.810123 0,-2.104932 1.741156,-3.810128 3.889876,-3.810128 2.148723,0 3.889879,1.705196 3.889879,3.810128 0,2.10493 -1.741156,3.810123 -3.889879,3.810123 z"
     id="path4801" />
  <path
     inkscape:connector-curvature="0"
     style="fill:#808080;stroke-width:0.481373"
     d="m 6.7104587,19.924049 c -1.903598,0 -3.44778,-1.512234 -3.44778,-3.377513 0,-0.04955 0.0054,-0.09814 0.0077,-0.147699 -0.251443,0.398309 -0.39881,0.866653 -0.39881,1.368826 0,1.442196 1.19352,2.610914 2.665233,2.610914 0.56855,0 1.093815,-0.175331 1.527158,-0.472156 -0.116239,0.0124 -0.234424,0.01764 -0.353581,0.01764 z"
     id="path4803" />
</svg>
