<?xml version="1.0" encoding="UTF-8" standalone="no"?>
<!-- Generator: Adobe Illustrator 15.0.0, SVG Export Plug-In . SVG Version: 6.00 Build 0)  -->

<svg
   xmlns:dc="http://purl.org/dc/elements/1.1/"
   xmlns:cc="http://creativecommons.org/ns#"
   xmlns:rdf="http://www.w3.org/1999/02/22-rdf-syntax-ns#"
   xmlns:svg="http://www.w3.org/2000/svg"
   xmlns="http://www.w3.org/2000/svg"
   xmlns:sodipodi="http://sodipodi.sourceforge.net/DTD/sodipodi-0.dtd"
   xmlns:inkscape="http://www.inkscape.org/namespaces/inkscape"
   version="1.1"
   id="Layer_1"
   x="0px"
   y="0px"
   width="416px"
   height="416px"
   viewBox="0 0 26 26"
   enable-background="new 0 0 26 26"
   xml:space="preserve"
   sodipodi:docname="icons8-document-z.svg"
   inkscape:version="0.92.3 (2405546, 2018-03-11)"><metadata
   id="metadata875"><rdf:RDF><cc:Work
       rdf:about=""><dc:format>image/svg+xml</dc:format><dc:type
         rdf:resource="http://purl.org/dc/dcmitype/StillImage" /><dc:title></dc:title></cc:Work></rdf:RDF></metadata><defs
   id="defs873" /><sodipodi:namedview
   pagecolor="#ffffff"
   bordercolor="#666666"
   borderopacity="1"
   objecttolerance="10"
   gridtolerance="10"
   guidetolerance="10"
   inkscape:pageopacity="0"
   inkscape:pageshadow="2"
   inkscape:window-width="1850"
   inkscape:window-height="1016"
   id="namedview871"
   showgrid="false"
   inkscape:zoom="1.9951923"
   inkscape:cx="208"
   inkscape:cy="208"
   inkscape:window-x="70"
   inkscape:window-y="27"
   inkscape:window-maximized="1"
   inkscape:current-layer="Layer_1" />




<path
   fill="#000000"
   d="M20.266,4.207c-0.244-0.24-0.494-0.484-0.74-0.732c-0.248-0.246-0.492-0.496-0.732-0.74  C17.082,0.988,16.063,0,15,0H7C4.795,0,3,1.795,3,4v18c0,2.205,1.795,4,4,4h12c2.205,0,4-1.795,4-4V8  C23,6.938,22.012,5.918,20.266,4.207z M21,22c0,1.104-0.896,2-2,2H7c-1.104,0-2-0.896-2-2V4c0-1.104,0.896-2,2-2l7.289-0.004  C15.01,2.18,15,3.066,15,3.953V7c0,0.551,0.449,1,1,1h3c0.998,0,2,0.005,2,1V22z"
   id="path868"
   style="fill:#808080" />
<g
   transform="matrix(0.36549391,0,0,0.35167176,7.9447753,10.549448)"
   id="surface1"
   style="fill:#808080"><path
     inkscape:connector-curvature="0"
     style="fill:#808080;fill-opacity:1;fill-rule:nonzero;stroke:none"
     d="M 2.953125,0 V 3.9375 H 18.035156 L 3.445313,20.34375 C 3.125,20.707031 2.949219,21.179688 2.953125,21.667969 v 1.96875 c 0,1.089844 0.882813,1.96875 1.972656,1.96875 h 17.726563 v -3.9375 H 7.570313 L 22.160156,5.261719 C 22.480469,4.898438 22.65625,4.429688 22.652344,3.9375 V 1.96875 C 22.652344,0.882813 21.769531,0 20.683594,0 Z"
     id="path5412" /></g></svg>