<?xml version="1.0" encoding="UTF-8" standalone="no"?>
<!-- Generator: Adobe Illustrator 15.0.0, SVG Export Plug-In . SVG Version: 6.00 Build 0)  -->

<svg
   xmlns:dc="http://purl.org/dc/elements/1.1/"
   xmlns:cc="http://creativecommons.org/ns#"
   xmlns:rdf="http://www.w3.org/1999/02/22-rdf-syntax-ns#"
   xmlns:svg="http://www.w3.org/2000/svg"
   xmlns="http://www.w3.org/2000/svg"
   xmlns:sodipodi="http://sodipodi.sourceforge.net/DTD/sodipodi-0.dtd"
   xmlns:inkscape="http://www.inkscape.org/namespaces/inkscape"
   version="1.1"
   id="Layer_1"
   x="0px"
   y="0px"
   width="416px"
   height="416px"
   viewBox="0 0 26 26"
   enable-background="new 0 0 26 26"
   xml:space="preserve"
   sodipodi:docname="icons8_scissors.svg"
   inkscape:version="0.92.2 (5c3e80d, 2017-08-06)"><metadata
     id="metadata843"><rdf:RDF><cc:Work
         rdf:about=""><dc:format>image/svg+xml</dc:format><dc:type
           rdf:resource="http://purl.org/dc/dcmitype/StillImage" /></cc:Work></rdf:RDF></metadata><defs
     id="defs841" /><sodipodi:namedview
     pagecolor="#ffffff"
     bordercolor="#666666"
     borderopacity="1"
     objecttolerance="10"
     gridtolerance="10"
     guidetolerance="10"
     inkscape:pageopacity="0"
     inkscape:pageshadow="2"
     inkscape:window-width="737"
     inkscape:window-height="480"
     id="namedview839"
     showgrid="false"
     inkscape:zoom="0.53725962"
     inkscape:cx="206.69984"
     inkscape:cy="229.59662"
     inkscape:window-x="0"
     inkscape:window-y="0"
     inkscape:window-maximized="1"
     inkscape:current-layer="Layer_1" /><g
     id="g834"
     style="fill:#808080"><path
       fill="#000000"
       d="M8.184,13.326c0-2.035-1.52-3.25-4.063-3.25c-2.545,0-4.063,1.215-4.063,3.25   c0,2.631,2.162,3.67,6.549,3.25c0.493-0.047,0.914-0.136,1.541-0.203c0.177-0.76,0.373-1.585,0.576-2.432   C8.146,14.002,8.184,13.598,8.184,13.326z M4.121,14.951c-2.438,0-2.438-1.223-2.438-1.625s0-1.625,2.438-1.625   s2.438,1.223,2.438,1.625S6.559,14.951,4.121,14.951z"
       id="path830"
       style="fill:#808080" /><path
       fill="#000000"
       d="M16.131,11.503c-0.566,1.605-1.162,2.526-1.651,3.239c-0.224,0.326-0.43,0.637-0.627,1.005   c3.673-0.443,6.401-0.796,6.401-0.796c4.207-0.792,5.688-4.875,5.688-4.875S16.173,11.496,16.131,11.503z"
       id="path832"
       style="fill:#808080" /></g><path
     fill="#000000"
     d="M12.182,17.578c-0.289-0.034-0.753-0.219-0.529-0.885c0.869-2.603,2.129-2.404,3.25-6.107l2.6-10.26  c0,0-4.23,0.989-5.512,5.073c0,0-2.355,9.369-3.222,13.36c-0.935,4.307-0.158,6.577,2.455,6.887c2.021,0.24,3.407-1.125,3.707-3.65  C15.23,19.469,14.202,17.818,12.182,17.578z M10.908,14.158c0.444,0,0.805,0.361,0.805,0.805c0,0.444-0.36,0.805-0.805,0.805  c-0.443,0-0.805-0.36-0.805-0.805C10.104,14.52,10.465,14.158,10.908,14.158z M13.316,21.805c-0.287,2.42-1.501,2.275-1.9,2.229  s-1.614-0.191-1.327-2.612c0.287-2.42,1.502-2.275,1.901-2.229C12.389,19.239,13.604,19.384,13.316,21.805z"
     id="path836"
     style="fill:#808080" /></svg>