<?xml version="1.0" encoding="UTF-8" standalone="no"?>
<svg
   xmlns:dc="http://purl.org/dc/elements/1.1/"
   xmlns:cc="http://creativecommons.org/ns#"
   xmlns:rdf="http://www.w3.org/1999/02/22-rdf-syntax-ns#"
   xmlns:svg="http://www.w3.org/2000/svg"
   xmlns="http://www.w3.org/2000/svg"
   xmlns:sodipodi="http://sodipodi.sourceforge.net/DTD/sodipodi-0.dtd"
   xmlns:inkscape="http://www.inkscape.org/namespaces/inkscape"
   viewBox="0 0 26 26"
   version="1.1"
   width="208px"
   height="208px"
   id="svg7269"
   sodipodi:docname="icons8-expand.svg"
   inkscape:version="0.92.3 (2405546, 2018-03-11)">
  <metadata
     id="metadata7275">
    <rdf:RDF>
      <cc:Work
         rdf:about="">
        <dc:format>image/svg+xml</dc:format>
        <dc:type
           rdf:resource="http://purl.org/dc/dcmitype/StillImage" />
      </cc:Work>
    </rdf:RDF>
  </metadata>
  <defs
     id="defs7273" />
  <sodipodi:namedview
     pagecolor="#ffffff"
     bordercolor="#666666"
     borderopacity="1"
     objecttolerance="10"
     gridtolerance="10"
     guidetolerance="10"
     inkscape:pageopacity="0"
     inkscape:pageshadow="2"
     inkscape:window-width="751"
     inkscape:window-height="480"
     id="namedview7271"
     showgrid="false"
     inkscape:zoom="1.1346154"
     inkscape:cx="104"
     inkscape:cy="104"
     inkscape:window-x="0"
     inkscape:window-y="0"
     inkscape:window-maximized="0"
     inkscape:current-layer="svg7269" />
  <g
     id="surface1"
     style="fill:#808080">
    <path
       style="fill:#808080"
       d="M 3.15625 0.03125 C 1.78125 0.03125 0.796875 0.117188 0.71875 0.125 C 0.558594 0.140625 0.421875 0.203125 0.3125 0.3125 C 0.203125 0.417969 0.144531 0.558594 0.125 0.71875 C 0.109375 0.875 -0.203125 4.671875 0.4375 7.9375 C 0.488281 8.1875 0.664063 8.394531 0.90625 8.46875 C 1.152344 8.542969 1.414063 8.460938 1.59375 8.28125 L 3.3125 6.5625 C 4.566406 7.453125 7.199219 9.855469 7.5 9.90625 C 7.941406 9.980469 8.632813 9.621094 9.125 9.125 C 9.617188 8.632813 10.046875 7.878906 9.96875 7.4375 C 9.917969 7.140625 7.457031 4.566406 6.5625 3.3125 L 8.28125 1.59375 C 8.464844 1.410156 8.542969 1.148438 8.46875 0.90625 C 8.394531 0.660156 8.191406 0.488281 7.9375 0.4375 C 6.304688 0.117188 4.53125 0.03125 3.15625 0.03125 Z M 22.84375 0.03125 C 21.46875 0.03125 19.695313 0.117188 18.0625 0.4375 C 17.8125 0.488281 17.605469 0.664063 17.53125 0.90625 C 17.457031 1.152344 17.539063 1.414063 17.71875 1.59375 L 19.4375 3.3125 C 18.546875 4.566406 16.144531 7.199219 16.09375 7.5 C 16.019531 7.941406 16.382813 8.632813 16.875 9.125 C 17.367188 9.617188 18.121094 10.046875 18.5625 9.96875 C 18.859375 9.917969 21.433594 7.457031 22.6875 6.5625 L 24.40625 8.28125 C 24.589844 8.464844 24.851563 8.542969 25.09375 8.46875 C 25.339844 8.394531 25.511719 8.191406 25.5625 7.9375 C 26.199219 4.671875 25.894531 0.875 25.875 0.71875 C 25.859375 0.558594 25.796875 0.421875 25.6875 0.3125 C 25.582031 0.203125 25.441406 0.144531 25.28125 0.125 C 25.203125 0.117188 24.21875 0.03125 22.84375 0.03125 Z M 7.4375 16.03125 C 7.136719 16.082031 4.566406 18.542969 3.3125 19.4375 L 1.59375 17.71875 C 1.410156 17.535156 1.148438 17.457031 0.90625 17.53125 C 0.660156 17.605469 0.488281 17.808594 0.4375 18.0625 C -0.199219 21.328125 0.105469 25.125 0.125 25.28125 C 0.140625 25.441406 0.203125 25.578125 0.3125 25.6875 C 0.421875 25.796875 0.558594 25.855469 0.71875 25.875 C 0.875 25.890625 4.667969 26.203125 7.9375 25.5625 C 8.1875 25.511719 8.394531 25.335938 8.46875 25.09375 C 8.542969 24.847656 8.460938 24.585938 8.28125 24.40625 L 6.5625 22.6875 C 7.453125 21.433594 9.855469 18.800781 9.90625 18.5 C 9.980469 18.058594 9.617188 17.367188 9.125 16.875 C 8.632813 16.382813 7.878906 15.953125 7.4375 16.03125 Z M 18.5 16.09375 C 18.058594 16.019531 17.367188 16.382813 16.875 16.875 C 16.382813 17.367188 15.953125 18.121094 16.03125 18.5625 C 16.082031 18.859375 18.542969 21.433594 19.4375 22.6875 L 17.71875 24.40625 C 17.535156 24.589844 17.457031 24.851563 17.53125 25.09375 C 17.605469 25.339844 17.808594 25.511719 18.0625 25.5625 C 21.328125 26.199219 25.125 25.894531 25.28125 25.875 C 25.441406 25.859375 25.578125 25.796875 25.6875 25.6875 C 25.796875 25.582031 25.855469 25.441406 25.875 25.28125 C 25.890625 25.125 26.199219 21.332031 25.5625 18.0625 C 25.511719 17.8125 25.335938 17.605469 25.09375 17.53125 C 24.847656 17.457031 24.585938 17.539063 24.40625 17.71875 L 22.6875 19.4375 C 21.433594 18.546875 18.800781 16.144531 18.5 16.09375 Z "
       id="path7266" />
  </g>
</svg>
