<?xml version="1.0" encoding="UTF-8" standalone="no"?>
<!-- Generator: Adobe Illustrator 15.0.0, SVG Export Plug-In . SVG Version: 6.00 Build 0)  -->

<svg
   xmlns:dc="http://purl.org/dc/elements/1.1/"
   xmlns:cc="http://creativecommons.org/ns#"
   xmlns:rdf="http://www.w3.org/1999/02/22-rdf-syntax-ns#"
   xmlns:svg="http://www.w3.org/2000/svg"
   xmlns="http://www.w3.org/2000/svg"
   xmlns:sodipodi="http://sodipodi.sourceforge.net/DTD/sodipodi-0.dtd"
   xmlns:inkscape="http://www.inkscape.org/namespaces/inkscape"
   version="1.1"
   id="Layer_1"
   x="0px"
   y="0px"
   width="416px"
   height="416px"
   viewBox="0 0 26 26"
   enable-background="new 0 0 26 26"
   xml:space="preserve"
   sodipodi:docname="icons8-fast-forward-number.svg"
   inkscape:version="0.92.2 (5c3e80d, 2017-08-06)"><metadata
     id="metadata65"><rdf:RDF><cc:Work
         rdf:about=""><dc:format>image/svg+xml</dc:format><dc:type
           rdf:resource="http://purl.org/dc/dcmitype/StillImage" /><dc:title></dc:title></cc:Work></rdf:RDF></metadata><defs
     id="defs63" /><sodipodi:namedview
     pagecolor="#ffffff"
     bordercolor="#666666"
     borderopacity="1"
     objecttolerance="10"
     gridtolerance="10"
     guidetolerance="10"
     inkscape:pageopacity="0"
     inkscape:pageshadow="2"
     inkscape:window-width="737"
     inkscape:window-height="480"
     id="namedview61"
     showgrid="false"
     inkscape:zoom="0.56730769"
     inkscape:cx="221.10734"
     inkscape:cy="208"
     inkscape:window-x="431"
     inkscape:window-y="409"
     inkscape:window-maximized="0"
     inkscape:current-layer="Layer_1" /><path
     d="M 14.291503,16.454736 6.9049741,10.641824 c -0.358388,-0.178873 -0.7861415,-0.159488 -1.1276328,0.04582 -0.3432699,0.204426 -0.5504769,0.56922 -0.5504769,0.960448 v 11.62935 c 0,0.390347 0.207207,0.75426 0.5504769,0.959566 0.1849745,0.111025 0.3948493,0.167418 0.6073921,0.167418 0.1787494,0 0.3566094,-0.04053 0.52113,-0.121598 l 7.3865286,-5.814676 c 0.355721,-0.33131 0.636739,-0.579793 0.636739,-1.007148 0,-0.427355 -0.239221,-0.657334 -0.637628,-1.006268 z"
     id="path56"
     inkscape:connector-curvature="0"
     style="fill:#808080;stroke-width:0.8852132;fill-opacity:1" /><path
     d="m 21.405906,16.454736 -7.386529,-5.812912 c -0.358388,-0.178873 -0.787031,-0.159488 -1.128522,0.04582 -0.34327,0.204426 -0.550477,0.56922 -0.550477,0.960448 v 11.62935 c 0,0.390347 0.207207,0.75426 0.550477,0.959566 0.184975,0.111025 0.394849,0.167418 0.607392,0.167418 0.17875,0 0.35661,-0.04053 0.52113,-0.121598 l 7.386529,-5.814675 c 0.35572,-0.33131 0.636739,-0.579793 0.636739,-1.007148 0,-0.427355 -0.238333,-0.657334 -0.636739,-1.006268 z"
     id="path58"
     inkscape:connector-curvature="0"
     style="fill:#808080;stroke-width:0.8852132;fill-opacity:1" /><g
     transform="matrix(0.89769318,0,0,0.78497761,-4.9461173,-4.5079792)"
     id="g4597"
     style="fill:#808080;fill-opacity:1"><path
       inkscape:connector-curvature="0"
       d="m 14.1,9 v 8.6 h -1.8 v -6.5 c -0.6,0.5 -1.6,0.7 -1.8,0.7 V 10.2 C 11,10.1 12.2,9.6 13,8.9 h 1.1 z"
       id="path4595"
       style="fill:#808080;fill-opacity:1" /></g><g
     transform="matrix(0.89769318,0,0,0.78497761,-0.03619217,-4.5159617)"
     id="g4641"
     style="fill:#808080;fill-opacity:1"><path
       inkscape:connector-curvature="0"
       d="m 12.2,15.9 h 3.6 v 1.5 h -5.6 v -0.6 c 0,-2.7 2.5,-2.9 3.6,-4.8 0.2,-0.3 0.3,-1.6 -1.1,-1.6 -0.7,0 -1.4,0.3 -2.1,0.9 V 9.6 c 0.7,-0.5 1.6,-0.7 2.5,-0.7 0.8,0 2.7,0.3 2.7,2.4 0,2.7 -3.6,3.6 -3.6,4.6 z"
       id="path4639"
       style="fill:#808080;fill-opacity:1" /></g><g
     transform="matrix(0.89769318,0,0,0.78497761,5.763058,-4.5079792)"
     id="g4685"
     style="fill:#808080;fill-opacity:1"><path
       inkscape:connector-curvature="0"
       d="m 10.5,17.1 v -1.6 c 0.6,0.4 1.2,0.6 2,0.6 C 13,16.1 14,16 14,15 14,14 12.7,13.8 12.2,13.8 h -0.8 v -1.4 h 0.7 c 1.1,0 1.6,-0.4 1.6,-1.1 0,-0.7 -0.4,-1 -1.3,-1 -0.6,0 -1.1,0.2 -1.6,0.5 V 9.3 c 0.6,-0.3 1.3,-0.4 2.1,-0.4 0.9,0 2.7,0.3 2.7,2.1 0,1.1 -0.6,1.8 -1.7,2.1 v 0 c 0.6,0.1 1.9,0.5 1.9,2 0,2.2 -2.2,2.5 -3.2,2.5 -0.8,0 -1.5,-0.2 -2.1,-0.5 z"
       id="path4683"
       style="fill:#808080;fill-opacity:1" /></g></svg>