<?xml version="1.0" encoding="UTF-8" standalone="no"?>
<!-- Generator: Adobe Illustrator 22.1.0, SVG Export Plug-In . SVG Version: 6.00 Build 0)  -->

<svg
   xmlns:dc="http://purl.org/dc/elements/1.1/"
   xmlns:cc="http://creativecommons.org/ns#"
   xmlns:rdf="http://www.w3.org/1999/02/22-rdf-syntax-ns#"
   xmlns:svg="http://www.w3.org/2000/svg"
   xmlns="http://www.w3.org/2000/svg"
   xmlns:sodipodi="http://sodipodi.sourceforge.net/DTD/sodipodi-0.dtd"
   xmlns:inkscape="http://www.inkscape.org/namespaces/inkscape"
   version="1.1"
   id="Layer_1"
   x="0px"
   y="0px"
   viewBox="0 0 50 50"
   style="enable-background:new 0 0 50 50;"
   xml:space="preserve"
   fill="#808080"
   width="50px"
   height="50px"
   sodipodi:docname="icons8-smooth-background-color.svg"
   inkscape:version="0.92.3 (2405546, 2018-03-11)"><metadata
   id="metadata17869"><rdf:RDF><cc:Work
       rdf:about=""><dc:format>image/svg+xml</dc:format><dc:type
         rdf:resource="http://purl.org/dc/dcmitype/StillImage" /></cc:Work></rdf:RDF></metadata><defs
   id="defs17867" /><sodipodi:namedview
   pagecolor="#ffffff"
   bordercolor="#666666"
   borderopacity="1"
   objecttolerance="10"
   gridtolerance="10"
   guidetolerance="10"
   inkscape:pageopacity="0"
   inkscape:pageshadow="2"
   inkscape:window-width="812"
   inkscape:window-height="480"
   id="namedview17865"
   showgrid="false"
   inkscape:zoom="4.72"
   inkscape:cx="25"
   inkscape:cy="25"
   inkscape:window-x="70"
   inkscape:window-y="27"
   inkscape:window-maximized="0"
   inkscape:current-layer="Layer_1" />
<path
   style="fill:none;stroke:#808080;stroke-width:2;stroke-miterlimit:10;"
   d="M45,25v17c0,1.657-1.343,3-3,3H8  c-1.657,0-3-1.343-3-3V25"
   fill="#808080"
   id="path17780" />
<path
   style="fill:none;stroke:#808080;stroke-width:2;stroke-miterlimit:10;"
   d="M5,22V8c0-1.657,1.343-3,3-3h34  c1.657,0,3,1.343,3,3v14"
   fill="#808080"
   id="path17782" />
<line
   style="fill:none;stroke:#808080;stroke-width:2;stroke-miterlimit:10;"
   x1="0"
   y1="25"
   x2="50"
   y2="25"
   fill="#808080"
   id="line17784" />
<circle
   cx="31"
   cy="28"
   r="1"
   fill="#808080"
   id="circle17786"
   style="fill:#808080" />
<circle
   cx="25"
   cy="34"
   r="1"
   fill="#808080"
   id="circle17788"
   style="fill:#808080" />
<circle
   cx="31"
   cy="34"
   r="1"
   fill="#808080"
   id="circle17790"
   style="fill:#808080" />
<circle
   cx="28"
   cy="31"
   r="1"
   fill="#808080"
   id="circle17792"
   style="fill:#808080" />
<circle
   cx="19"
   cy="40"
   r="1"
   fill="#808080"
   id="circle17794"
   style="fill:#808080" />
<circle
   cx="25"
   cy="40"
   r="1"
   fill="#808080"
   id="circle17796"
   style="fill:#808080" />
<circle
   cx="22"
   cy="37"
   r="1"
   fill="#808080"
   id="circle17798"
   style="fill:#808080" />
<circle
   cx="31"
   cy="40"
   r="1"
   fill="#808080"
   id="circle17800"
   style="fill:#808080" />
<circle
   cx="28"
   cy="37"
   r="1"
   fill="#808080"
   id="circle17802"
   style="fill:#808080" />
<circle
   cx="16"
   cy="43"
   r="1"
   fill="#808080"
   id="circle17804"
   style="fill:#808080" />
<circle
   cx="22"
   cy="43"
   r="1"
   fill="#808080"
   id="circle17806"
   style="fill:#808080" />
<circle
   cx="28"
   cy="43"
   r="1"
   fill="#808080"
   id="circle17808"
   style="fill:#808080" />
<circle
   cx="37"
   cy="28"
   r="1"
   fill="#808080"
   id="circle17810"
   style="fill:#808080" />
<circle
   cx="25"
   cy="28"
   r="1"
   fill="#808080"
   id="circle17812"
   style="fill:#808080" />
<circle
   cx="19"
   cy="28"
   r="1"
   fill="#808080"
   id="circle17814"
   style="fill:#808080" />
<circle
   cx="13"
   cy="28"
   r="1"
   fill="#808080"
   id="circle17816"
   style="fill:#808080" />
<circle
   cx="7"
   cy="28"
   r="1"
   fill="#808080"
   id="circle17818"
   style="fill:#808080" />
<circle
   cx="19"
   cy="34"
   r="1"
   fill="#808080"
   id="circle17820"
   style="fill:#808080" />
<circle
   cx="13"
   cy="34"
   r="1"
   fill="#808080"
   id="circle17822"
   style="fill:#808080" />
<circle
   cx="7"
   cy="34"
   r="1"
   fill="#808080"
   id="circle17824"
   style="fill:#808080" />
<circle
   cx="22"
   cy="31"
   r="1"
   fill="#808080"
   id="circle17826"
   style="fill:#808080" />
<circle
   cx="16"
   cy="31"
   r="1"
   fill="#808080"
   id="circle17828"
   style="fill:#808080" />
<circle
   cx="10"
   cy="31"
   r="1"
   fill="#808080"
   id="circle17830"
   style="fill:#808080" />
<circle
   cx="13"
   cy="40"
   r="1"
   fill="#808080"
   id="circle17832"
   style="fill:#808080" />
<circle
   cx="7"
   cy="40"
   r="1"
   fill="#808080"
   id="circle17834"
   style="fill:#808080" />
<circle
   cx="16"
   cy="37"
   r="1"
   fill="#808080"
   id="circle17836"
   style="fill:#808080" />
<circle
   cx="10"
   cy="37"
   r="1"
   fill="#808080"
   id="circle17838"
   style="fill:#808080" />
<circle
   cx="10"
   cy="43"
   r="1"
   fill="#808080"
   id="circle17840"
   style="fill:#808080" />
<circle
   cx="37"
   cy="34"
   r="1"
   fill="#808080"
   id="circle17842"
   style="fill:#808080" />
<circle
   cx="34"
   cy="31"
   r="1"
   fill="#808080"
   id="circle17844"
   style="fill:#808080" />
<circle
   cx="37"
   cy="40"
   r="1"
   fill="#808080"
   id="circle17846"
   style="fill:#808080" />
<circle
   cx="34"
   cy="37"
   r="1"
   fill="#808080"
   id="circle17848"
   style="fill:#808080" />
<circle
   cx="34"
   cy="43"
   r="1"
   fill="#808080"
   id="circle17850"
   style="fill:#808080" />
<circle
   cx="43"
   cy="28"
   r="1"
   fill="#808080"
   id="circle17852"
   style="fill:#808080" />
<circle
   cx="43"
   cy="34"
   r="1"
   fill="#808080"
   id="circle17854"
   style="fill:#808080" />
<circle
   cx="40"
   cy="31"
   r="1"
   fill="#808080"
   id="circle17856"
   style="fill:#808080" />
<circle
   cx="43"
   cy="40"
   r="1"
   fill="#808080"
   id="circle17858"
   style="fill:#808080" />
<circle
   cx="40"
   cy="37"
   r="1"
   fill="#808080"
   id="circle17860"
   style="fill:#808080" />
<circle
   cx="40"
   cy="43"
   r="1"
   fill="#808080"
   id="circle17862"
   style="fill:#808080" />
</svg>