<?xml version="1.0" encoding="UTF-8" standalone="no"?>
<svg
   xmlns:dc="http://purl.org/dc/elements/1.1/"
   xmlns:cc="http://creativecommons.org/ns#"
   xmlns:rdf="http://www.w3.org/1999/02/22-rdf-syntax-ns#"
   xmlns:svg="http://www.w3.org/2000/svg"
   xmlns="http://www.w3.org/2000/svg"
   xmlns:sodipodi="http://sodipodi.sourceforge.net/DTD/sodipodi-0.dtd"
   xmlns:inkscape="http://www.inkscape.org/namespaces/inkscape"
   version="1.1"
   id="Layer_1"
   x="0px"
   y="0px"
   viewBox="0 0 26 26"
   enable-background="new 0 0 26 26"
   xml:space="preserve"
   width="416px"
   height="416px"
   sodipodi:docname="icons8_backlight_swipe_sensitivity.svg"
   inkscape:version="1.0.1 (3bc2e813f5, 2020-09-07)"><metadata
     id="metadata1511"><rdf:RDF><cc:Work
         rdf:about=""><dc:format>image/svg+xml</dc:format><dc:type
           rdf:resource="http://purl.org/dc/dcmitype/StillImage" /><dc:title></dc:title></cc:Work></rdf:RDF></metadata><defs
     id="defs1509" /><sodipodi:namedview
     pagecolor="#ffffff"
     bordercolor="#666666"
     borderopacity="1"
     objecttolerance="10"
     gridtolerance="10"
     guidetolerance="10"
     inkscape:pageopacity="0"
     inkscape:pageshadow="2"
     inkscape:window-width="1920"
     inkscape:window-height="1017"
     id="namedview1507"
     showgrid="false"
     inkscape:zoom="0.40114712"
     inkscape:cx="208.5194"
     inkscape:cy="247.42751"
     inkscape:window-x="-8"
     inkscape:window-y="-8"
     inkscape:window-maximized="1"
     inkscape:current-layer="Layer_1"
     inkscape:document-rotation="0" /><line
     fill="none"
     stroke="#000000"
     stroke-width="2"
     stroke-miterlimit="10"
     x1="26"
     y1="25"
     x2="0"
     y2="25"
     id="line1484" /><line
     fill="none"
     stroke="#000000"
     stroke-width="2"
     stroke-miterlimit="10"
     x1="26"
     y1="25"
     x2="0"
     y2="25"
     id="line1486" /><line
     fill="none"
     stroke="#000000"
     stroke-width="2"
     stroke-miterlimit="10"
     x1="26"
     y1="25"
     x2="0"
     y2="25"
     id="line1488"
     style="stroke:#808080;stroke-opacity:1" /><g
     id="g1492"
     style="stroke:#808080;stroke-opacity:1"><path
       fill="none"
       stroke="#000000"
       stroke-width="2"
       stroke-linecap="round"
       stroke-linejoin="round"
       stroke-miterlimit="10"
       d="   M19,25c0-3.3-2.7-6-6-6l0,0c-3.3,0-6,2.7-6,6"
       id="path1490"
       style="stroke:#808080;stroke-opacity:1" /></g><line
     fill="none"
     stroke="#000000"
     stroke-width="2"
     stroke-linecap="round"
     stroke-linejoin="round"
     stroke-miterlimit="10"
     x1="13"
     y1="13"
     x2="13"
     y2="16"
     id="line1494"
     style="stroke:#808080;stroke-opacity:1" /><line
     fill="none"
     stroke="#000000"
     stroke-width="2"
     stroke-linecap="round"
     stroke-linejoin="round"
     stroke-miterlimit="10"
     x1="2.6"
     y1="19"
     x2="5.2"
     y2="20.5"
     id="line1496"
     style="stroke:#808080;stroke-opacity:1" /><line
     fill="none"
     stroke="#000000"
     stroke-width="2"
     stroke-linecap="round"
     stroke-linejoin="round"
     stroke-miterlimit="10"
     x1="19"
     y1="14.6"
     x2="17.5"
     y2="17.2"
     id="line1498"
     style="stroke:#808080;stroke-opacity:1" /><line
     fill="none"
     stroke="#000000"
     stroke-width="2"
     stroke-linecap="round"
     stroke-linejoin="round"
     stroke-miterlimit="10"
     x1="20.8"
     y1="20.5"
     x2="23.4"
     y2="19"
     id="line1500"
     style="stroke:#808080;stroke-opacity:1" /><line
     fill="none"
     stroke="#000000"
     stroke-width="2"
     stroke-linecap="round"
     stroke-linejoin="round"
     stroke-miterlimit="10"
     x1="7"
     y1="14.6"
     x2="8.5"
     y2="17.2"
     id="line1502"
     style="stroke:#808080;stroke-opacity:1" /><path
     fill="#000000"
     d="m 7.8696666,3.0808891 c 0.070603,-0.070603 0.1412063,-0.1412063 0.2118095,-0.1412063 0.070603,0 0.1412063,0 0.2118095,0.070603 0.070603,0.070603 1.5532698,1.4120634 2.5417144,2.8241268 0.0706,0.1412064 0.0706,0.2824127 0,0.3530159 -0.0706,0.2118097 -0.141206,0.2824129 -0.282413,0.2824129 H 9.28173 c 0,0 -0.1412063,3.1065396 -0.2824127,3.1771427 C 8.858111,9.8587937 8.434492,10 8.0814761,10 7.7284602,10 7.3048412,9.8587937 7.234238,9.7175873 7.0930317,9.5057778 6.8812222,6.4698414 6.8812222,6.4698414 h -1.200254 c -0.1412063,0 -0.2824126,-0.070603 -0.3530158,-0.2118095 -0.070603,-0.1412064 -0.070603,-0.2824127 0,-0.3530159 0.9884444,-1.4120634 2.471111,-2.8241269 2.5417142,-2.8241269 z"
     id="path1504"
     style="fill:#808080;stroke-width:0.706032" /><path
     fill="#000000"
     d="m 16.133452,0.303553 c 0.1,-0.1 0.2,-0.2 0.3,-0.2 0.1,0 0.2,0 0.3,0.1 0.1,0.1 2.2,2 3.6,4 0.1,0.2 0.1,0.4 0,0.5 -0.1,0.3 -0.2,0.4 -0.4,0.4 h -1.8 c 0,0 -0.2,4.4 -0.4,4.5 -0.2,0.3 -0.8,0.5 -1.3,0.5 -0.5,0 -1.1,-0.2 -1.2,-0.4 -0.2,-0.3 -0.5,-4.6 -0.5,-4.6 h -1.7 c -0.2,0 -0.4,-0.1 -0.5,-0.3 -0.1,-0.2 -0.1,-0.4 0,-0.5 1.4,-2 3.5,-4 3.6,-4 z"
     id="path1504-1"
     style="fill:#808080;stroke-width:1" /></svg>
