<?xml version="1.0" encoding="UTF-8" standalone="no"?>
<!-- Generator: Adobe Illustrator 15.0.0, SVG Export Plug-In . SVG Version: 6.00 Build 0)  -->

<svg
   xmlns:dc="http://purl.org/dc/elements/1.1/"
   xmlns:cc="http://creativecommons.org/ns#"
   xmlns:rdf="http://www.w3.org/1999/02/22-rdf-syntax-ns#"
   xmlns:svg="http://www.w3.org/2000/svg"
   xmlns="http://www.w3.org/2000/svg"
   xmlns:sodipodi="http://sodipodi.sourceforge.net/DTD/sodipodi-0.dtd"
   xmlns:inkscape="http://www.inkscape.org/namespaces/inkscape"
   version="1.1"
   id="Layer_1"
   x="0px"
   y="0px"
   width="416px"
   height="416px"
   viewBox="0 0 26 26"
   enable-background="new 0 0 26 26"
   xml:space="preserve"
   sodipodi:docname="icons8_fix_landsc.svg"
   inkscape:version="0.92.3 (5aff6ba, 2018-11-25)"><metadata
     id="metadata843"><rdf:RDF><cc:Work
         rdf:about=""><dc:format>image/svg+xml</dc:format><dc:type
           rdf:resource="http://purl.org/dc/dcmitype/StillImage" /><dc:title></dc:title></cc:Work></rdf:RDF></metadata><defs
     id="defs841" /><sodipodi:namedview
     pagecolor="#ffffff"
     bordercolor="#666666"
     borderopacity="1"
     objecttolerance="10"
     gridtolerance="10"
     guidetolerance="10"
     inkscape:pageopacity="0"
     inkscape:pageshadow="2"
     inkscape:window-width="1853"
     inkscape:window-height="1025"
     id="namedview839"
     showgrid="false"
     inkscape:zoom="0.26862981"
     inkscape:cx="-1200.0829"
     inkscape:cy="274.20149"
     inkscape:window-x="67"
     inkscape:window-y="27"
     inkscape:window-maximized="1"
     inkscape:current-layer="Layer_1" /><path
     inkscape:connector-curvature="0"
     style="fill:#808080;stroke:#808080;stroke-width:1.48256469;stroke-linecap:round;stroke-linejoin:round;stroke-miterlimit:10;stroke-dasharray:none;stroke-opacity:1"
     stroke-miterlimit="10"
     d="m 6.3098788,14.776596 c 2.6406732,0 6.5247792,0 9.3211162,0"
     id="path830-3" /><path
     inkscape:connector-curvature="0"
     style="fill:#808080;stroke:#808080;stroke-width:1.48256469;stroke-linecap:round;stroke-linejoin:round;stroke-miterlimit:10;stroke-dasharray:none;stroke-opacity:1"
     stroke-miterlimit="10"
     d="m 6.3669494,20.848155 c 3.5781376,0 8.8411416,0 12.6302036,0"
     id="path832-8" /><path
     inkscape:connector-curvature="0"
     style="fill:#808080;stroke:#808080;stroke-width:1.48256469;stroke-linecap:round;stroke-linejoin:round;stroke-miterlimit:10;stroke-dasharray:none;stroke-opacity:1"
     stroke-miterlimit="10"
     d="m 6.4931664,17.899298 c 1.1787221,0 8.2510486,0 9.4297696,0"
     id="path834-6" /><path
     inkscape:connector-curvature="0"
     style="fill:#808080;stroke-width:0.70970529"
     d="M 21.677849,13.642306 C 21.504241,13.472408 21.326366,13.299678 21.151336,13.124117 20.974881,12.94997 20.801273,12.772993 20.630513,12.600263 19.412416,11.363545 18.687391,10.66413 17.931062,10.66413 H 5.3695078 c -1.5688688,0 -2.8460217,1.270698 -2.8460217,2.831639 v 7.97908 c 0,1.560941 1.2771529,2.831638 2.8460217,2.831638 H 20.777083 c 1.568869,0 2.846022,-1.270697 2.846022,-2.831638 v -5.147442 c 0,-0.7518 -0.702967,-1.473868 -1.945256,-2.685101 z m 0.522245,7.832543 c 0,0.781532 -0.637509,1.415819 -1.423011,1.415819 H 5.3695078 c -0.7855018,0 -1.4230109,-0.634287 -1.4230109,-1.415819 v -7.97908 c 0,-0.781533 0.6375091,-1.41582 1.4230109,-1.41582 l 12.0556722,-0.0029 c 0.512997,0.130261 0.505882,0.757463 0.505882,1.385379 v 2.157 c 0,0.390059 0.319467,0.70791 0.711507,0.70791 h 2.134514 c 0.710084,0 1.423011,0.0036 1.423011,0.707909 z"
     id="path836-7"
     sodipodi:nodetypes="cccsssssssscsssssccssssss" /><path
     inkscape:connector-curvature="0"
     d="m 11.256503,0.92743315 c -2.5230692,0 -4.5683422,1.93265825 -4.5683422,4.31680775 0,2.3841524 2.045273,4.317147 4.5683422,4.317147 2.523074,0 4.568702,-1.9329946 4.568702,-4.317147 0,-2.3841495 -2.045628,-4.31680775 -4.568702,-4.31680775 z M 13.658345,3.9082942 11.20837,7.3221194 c -0.07346,0.1020918 -0.188269,0.1698147 -0.302371,0.1698147 -0.114103,0 -0.240683,-0.058963 -0.320909,-0.1344313 L 9.1474074,5.9986436 c -0.0977,-0.092657 -0.0977,-0.2432658 0,-0.3355873 l 0.3551411,-0.33626 c 0.0977,-0.091645 0.2574411,-0.091645 0.3547855,0 l 0.935276,0.8837799 2.034218,-2.8349695 c 0.07738,-0.1078349 0.234264,-0.135785 0.34908,-0.063011 l 0.415758,0.2665147 c 0.114103,0.073116 0.144052,0.2213678 0.06667,0.3291863 z"
     id="path5415"
     style="fill:#808080;stroke-width:0.34661219" /></svg>