<?xml version="1.0" encoding="UTF-8" standalone="no"?>
<svg
   xmlns:dc="http://purl.org/dc/elements/1.1/"
   xmlns:cc="http://creativecommons.org/ns#"
   xmlns:rdf="http://www.w3.org/1999/02/22-rdf-syntax-ns#"
   xmlns:svg="http://www.w3.org/2000/svg"
   xmlns="http://www.w3.org/2000/svg"
   xmlns:sodipodi="http://sodipodi.sourceforge.net/DTD/sodipodi-0.dtd"
   xmlns:inkscape="http://www.inkscape.org/namespaces/inkscape"
   width="480pt"
   height="480pt"
   viewBox="0 0 480 480"
   version="1.1"
   id="svg5"
   sodipodi:docname="icons8_opds.svg"
   inkscape:version="1.0.1 (3bc2e813f5, 2020-09-07)">
  <metadata
     id="metadata11">
    <rdf:RDF>
      <cc:Work
         rdf:about="">
        <dc:format>image/svg+xml</dc:format>
        <dc:type
           rdf:resource="http://purl.org/dc/dcmitype/StillImage" />
        <dc:title></dc:title>
      </cc:Work>
    </rdf:RDF>
  </metadata>
  <defs
     id="defs9" />
  <sodipodi:namedview
     pagecolor="#ffffff"
     bordercolor="#666666"
     borderopacity="1"
     objecttolerance="10"
     gridtolerance="10"
     guidetolerance="10"
     inkscape:pageopacity="0"
     inkscape:pageshadow="2"
     inkscape:window-width="1920"
     inkscape:window-height="995"
     id="namedview7"
     showgrid="false"
     inkscape:zoom="0.9291825"
     inkscape:cx="38.512233"
     inkscape:cy="404.35337"
     inkscape:window-x="0"
     inkscape:window-y="0"
     inkscape:window-maximized="1"
     inkscape:current-layer="svg5" />
  <g
     id="surface1"
     transform="translate(32.76282,-130.35224)"
     style="fill:#808080">
    <path
       style="fill:#808080;fill-opacity:1;fill-rule:nonzero;stroke:none"
       d="m 203.78812,180.21901 v 120 h 42.65625 c 10.39063,-0.0781 19.76563,-2.42187 27.96875,-7.1875 8.28125,-4.84375 14.6875,-11.5625 19.21875,-20.23437 4.60938,-8.67188 6.875,-18.59375 6.875,-29.76563 v -5.54687 c 0,-11.17188 -2.34375,-21.09375 -6.95312,-29.84375 -4.60938,-8.82813 -11.01563,-15.54688 -19.29688,-20.3125 -8.28125,-4.76563 -17.65625,-7.10938 -28.125,-7.10938 z M 366.64062,180 c -8.20312,0 -15.70312,1.40625 -22.34375,4.21875 -6.71875,2.73437 -11.79687,6.64062 -15.3125,11.5625 -3.59375,4.92187 -5.39062,10.54687 -5.39062,16.875 0,12.10937 6.64062,21.79687 19.92187,28.90625 4.84375,2.65625 11.48438,5.3125 19.84375,8.04687 8.28125,2.73438 14.0625,5.23438 17.26563,7.65625 3.20312,2.42188 4.84375,5.9375 4.84375,10.54688 0,4.14062 -1.64063,7.42187 -4.84375,9.6875 -3.20313,2.34375 -7.65625,3.51562 -13.4375,3.51562 -15.39063,0 -23.04688,-6.48437 -23.04688,-19.375 H 320 c 0,7.57813 1.95312,14.14063 5.85937,19.92188 3.82813,5.70312 9.45313,10.23437 16.875,13.51562 7.34375,3.28125 15.54688,4.92188 24.45313,4.92188 12.96875,0 23.28125,-2.89063 30.9375,-8.67188 7.65625,-5.70312 11.48437,-13.67187 11.48437,-23.75 0,-9.0625 -3.125,-16.64062 -9.375,-22.8125 -6.32812,-6.09375 -16.25,-11.17187 -29.92187,-15.3125 -7.42188,-2.1875 -13.125,-4.60937 -16.875,-7.1875 -3.82813,-2.57812 -5.78125,-5.70312 -5.78125,-9.53125 0,-4.0625 1.64062,-7.34375 4.92187,-9.84375 3.28125,-2.5 7.8125,-3.67187 13.67188,-3.67187 6.17187,0 10.85937,1.48437 14.21875,4.45312 3.35937,2.96875 5.07812,7.10938 5.07812,12.5 h 24.0625 c 0,-7.03125 -1.79687,-13.28125 -5.46875,-18.82812 -3.59375,-5.54688 -8.67187,-9.76563 -15.15625,-12.8125 C 382.5,181.48437 375,180 366.64062,180 Z m -137.07125,20.21901 h 14.84375 c 9.60938,0 16.95313,3.125 21.95313,9.45313 5,6.32812 7.57812,15.54687 7.57812,27.73437 v 6.32813 c -0.15625,11.79687 -2.73437,20.78125 -7.8125,27.10937 -5.07812,6.32813 -12.42187,9.45313 -22.03125,9.45313 h -14.53125 z"
       id="path2"
       sodipodi:nodetypes="cccccsscsscsccsccsscsccccscscccsssscccsscssscsscc" />
  </g>
  <path
     style="fill:#808080;fill-opacity:1;fill-rule:nonzero;stroke:none;stroke-width:0.530433"
     d="m 62.818462,49.973598 c -18.494632,0 -33.439442,16.810502 -33.305749,39.171849 l 0.236574,39.569243 c 0.134401,22.47996 16.305248,41.34716 34.79988,41.34716 h 22.492282 c 24.406291,0 34.039601,-25.45381 34.015611,-41.91281 l -0.0548,-37.611184 C 120.96666,66.107492 103.80539,49.973598 85.310764,49.973598 Z m 6.801303,20.375941 9.651195,-0.361235 C 90.27539,69.57642 99.802979,80.440456 100.1384,95.894185 l 0.624,28.749485 c 0.40137,18.49237 -12.860793,25.40347 -19.995287,25.40347 H 69.250588 c -7.418166,0 -17.703526,-6.59451 -18.11792,-24.82239 L 50.390009,92.557551 C 50.059101,78.001966 60.607001,70.686884 69.619765,70.349539 Z"
     id="path2-3"
     sodipodi:nodetypes="ssssssssssssssssss" />
  <path
     style="fill:#808080;fill-opacity:1;fill-rule:nonzero;stroke:none;stroke-width:2.58993"
     d="M 138.70187,49.773545 V 169.65437 h 20.84069 v -44.01178 h 11.15914 c 19.86945,-1.56511 0,0 19.86945,-1.56511 3.45107,-0.70333 6.67482,-1.60474 9.4336,-2.49629 6.27184,-1.99106 10.50817,-4.7647 14.66186,-8.74688 3.13075,-3.00147 6.10652,-7.17183 7.16044,-12.17431 1.05393,-3.972243 1.95285,-8.816214 1.95285,-12.798375 0,-3.982171 -0.89892,-8.11291 -1.95285,-13.105458 -1.05392,-3.982181 -3.01711,-7.885083 -7.16044,-11.867244 -3.14108,-3.982151 -8.39002,-7.062893 -14.66186,-9.053958 -6.26151,-3.001493 -14.73417,-4.06142 -24.09546,-4.06142 z m 20.84069,15.928634 h 11.15914 c 3.13076,0 7.24309,-0.07912 11.39679,0.931158 4.15366,0 7.28442,1.129266 10.4255,3.120352 3.13078,1.991085 6.42684,3.942541 7.48076,5.933637 2.07683,3.001462 2.93443,5.933596 2.93443,10.926155 0,3.982151 -0.8576,8.231768 -2.93443,11.243151 -2.0665,3.001498 -4.34998,4.873708 -7.48076,6.864768 -3.14108,1.01041 -7.29476,2.10997 -10.4255,3.12035 -3.13078,1.02032 -7.2431,0.94108 -11.39679,0.94108 h -11.15914 z"
     id="path2-6"
     sodipodi:nodetypes="cccccccscscccsccscccscccscc" />
  <g
     id="surface1-7"
     transform="matrix(2.3141957,0,0,2.3141957,114.41914,203.84732)"
     style="fill:#808080">
    <path
       style="fill:#808080;fill-opacity:1;fill-rule:nonzero;stroke:none"
       d="M 19.695313,0 C 13.003906,0 7.878906,5.125 7.878906,11.816406 v 74.851563 c 0,8.707031 7.046875,15.757811 15.757813,15.757811 H 94.546875 V 94.546875 H 23.636719 c -4.695313,0 -7.878906,-3.1875 -7.878906,-7.878906 0,-4.339844 3.539062,-7.878906 7.878906,-7.878906 H 94.546875 V 0 Z M 43.332031,11.816406 H 63.03125 v 7.878907 H 43.332031 Z m 0,11.820313 H 63.03125 v 7.878906 H 43.332031 Z m 0,11.816406 H 63.03125 V 47.273438 H 74.847656 L 53.183594,66.96875 31.515625,47.273438 h 11.816406 z"
       id="path2-5" />
  </g>
</svg>
