<?xml version="1.0" encoding="UTF-8" standalone="no"?>
<svg
   xmlns:dc="http://purl.org/dc/elements/1.1/"
   xmlns:cc="http://creativecommons.org/ns#"
   xmlns:rdf="http://www.w3.org/1999/02/22-rdf-syntax-ns#"
   xmlns:svg="http://www.w3.org/2000/svg"
   xmlns="http://www.w3.org/2000/svg"
   xmlns:sodipodi="http://sodipodi.sourceforge.net/DTD/sodipodi-0.dtd"
   xmlns:inkscape="http://www.inkscape.org/namespaces/inkscape"
   version="1.1"
   id="Layer_1"
   x="0px"
   y="0px"
   width="416px"
   height="416px"
   viewBox="0 0 26 26"
   enable-background="new 0 0 26 26"
   xml:space="preserve"
   sodipodi:docname="icons8_bookmark_plus_q.svg"
   inkscape:version="1.0.1 (0767f8302a, 2020-10-17)"><metadata
     id="metadata2016"><rdf:RDF><cc:Work
         rdf:about=""><dc:format>image/svg+xml</dc:format><dc:type
           rdf:resource="http://purl.org/dc/dcmitype/StillImage" /><dc:title /></cc:Work></rdf:RDF></metadata><defs
     id="defs2014" /><sodipodi:namedview
     pagecolor="#ffffff"
     bordercolor="#666666"
     borderopacity="1"
     objecttolerance="10"
     gridtolerance="10"
     guidetolerance="10"
     inkscape:pageopacity="0"
     inkscape:pageshadow="2"
     inkscape:window-width="873"
     inkscape:window-height="565"
     id="namedview2012"
     showgrid="false"
     inkscape:zoom="0.56730769"
     inkscape:cx="232.49708"
     inkscape:cy="208"
     inkscape:window-x="5"
     inkscape:window-y="84"
     inkscape:window-maximized="0"
     inkscape:current-layer="Layer_1"
     inkscape:document-rotation="0" /><path
     d="M 23.33414,1.8220339 H 23.18103 C 22.836531,0.7634322 21.923692,0 20.837772,0 H 10.8523 C 9.4743051,0 8.3559322,1.2244068 8.3559322,2.7330508 v 1.8220339 13.6652543 1.822034 c 0,1.699046 2.9532038,3.644068 4.1606138,3.644068 H 23.33414 c 1.376331,0 2.496368,-1.226229 2.496368,-2.733051 V 4.5550847 c 0,-1.506822 -1.120037,-2.7330508 -2.496368,-2.7330508 z M 12.516546,4.0430932 c 0,-2.1855296 1.664245,-2.2210593 1.664245,-2.2210593 h 5.824859 c 0,0 -1.664246,0.019131 -1.664246,2.2210593 0,1.4804026 0,9.6221608 0,9.6221608 l -2.912429,-2.221059 -2.912429,2.221059 c 0,0 0,-8.1426693 0,-9.6221608 z M 24.166263,20.95339 c 0,0.502881 -0.373623,0.911017 -0.832123,0.911017 H 12.516546 c -0.307054,-0.0036 -1.046811,-0.441843 -1.645107,-0.911017 h 9.966333 c 1.377995,0 2.496368,-1.224407 2.496368,-2.733051 V 3.6440678 c 0.4585,0 0.832123,0.4081356 0.832123,0.9110169 z"
     id="path2009"
     inkscape:connector-curvature="0"
     style="fill:#808080;stroke-width:0.870677" /><path
     style="fill:#808080;stroke-width:0.359014"
     inkscape:connector-curvature="0"
     d="m 3.989822,18.1608 c -2.044585,0 -3.702151,1.657567 -3.702151,3.702151 0,2.044584 1.657566,3.70251 3.702151,3.70251 2.044584,0 3.70251,-1.657926 3.70251,-3.70251 0,-2.044584 -1.657926,-3.702151 -3.70251,-3.702151 z m 1.974576,4.240672 H 4.528343 v 1.436055 H 3.451302 V 22.401472 H 2.015245 V 21.32443 h 1.436057 v -1.436055 h 1.077041 v 1.436055 h 1.436055 z"
     id="path2571" /><g
     transform="matrix(-0.58292941,0,0,1,6.9223928,-0.73940674)"
     id="g22"
     style="fill:#808080;fill-opacity:1"><polygon
       style="fill:#808080;fill-opacity:1"
       points="8.7,8 11.7,6 0,6 0,8 "
       id="polygon16" /><path
       inkscape:connector-curvature="0"
       style="fill:#808080;fill-opacity:1"
       d="M 7.5,10 H 0 v 2 H 7.6 C 7.1,11.1 7.3,10.3 7.5,10 Z"
       id="path18" /><polygon
       style="fill:#808080;fill-opacity:1"
       points="9.8,16 8.5,14 0,14 0,16 "
       id="polygon20" /></g></svg>
