<?xml version="1.0" encoding="UTF-8" standalone="no"?>
<!-- Generator: Adobe Illustrator 15.0.0, SVG Export Plug-In . SVG Version: 6.00 Build 0)  -->

<svg
   xmlns:dc="http://purl.org/dc/elements/1.1/"
   xmlns:cc="http://creativecommons.org/ns#"
   xmlns:rdf="http://www.w3.org/1999/02/22-rdf-syntax-ns#"
   xmlns:svg="http://www.w3.org/2000/svg"
   xmlns="http://www.w3.org/2000/svg"
   xmlns:sodipodi="http://sodipodi.sourceforge.net/DTD/sodipodi-0.dtd"
   xmlns:inkscape="http://www.inkscape.org/namespaces/inkscape"
   version="1.1"
   id="Layer_1"
   x="0px"
   y="0px"
   width="416px"
   height="416px"
   viewBox="0 0 26 26"
   enable-background="new 0 0 26 26"
   xml:space="preserve"
   sodipodi:docname="icons8-bookmark-plus.svg"
   inkscape:version="0.92.2 (5c3e80d, 2017-08-06)"><metadata
     id="metadata2016"><rdf:RDF><cc:Work
         rdf:about=""><dc:format>image/svg+xml</dc:format><dc:type
           rdf:resource="http://purl.org/dc/dcmitype/StillImage" /><dc:title></dc:title></cc:Work></rdf:RDF></metadata><defs
     id="defs2014" /><sodipodi:namedview
     pagecolor="#ffffff"
     bordercolor="#666666"
     borderopacity="1"
     objecttolerance="10"
     gridtolerance="10"
     guidetolerance="10"
     inkscape:pageopacity="0"
     inkscape:pageshadow="2"
     inkscape:window-width="873"
     inkscape:window-height="565"
     id="namedview2012"
     showgrid="false"
     inkscape:zoom="0.56730769"
     inkscape:cx="232.49708"
     inkscape:cy="208"
     inkscape:window-x="5"
     inkscape:window-y="84"
     inkscape:window-maximized="0"
     inkscape:current-layer="Layer_1" /><path
     d="M 15.33414,1.8220339 H 15.18103 C 14.836531,0.7634322 13.923692,0 12.837772,0 H 2.8523002 C 1.4743051,0 0.3559322,1.2244068 0.3559322,2.7330508 v 1.8220339 13.6652543 1.822034 c 0,1.699046 2.9532034,3.644068 4.1606134,3.644068 H 15.33414 c 1.376331,0 2.496368,-1.226229 2.496368,-2.733051 V 4.5550847 c 0,-1.506822 -1.120037,-2.7330508 -2.496368,-2.7330508 z M 4.5165456,4.0430932 c 0,-2.1855296 1.6642454,-2.2210593 1.6642454,-2.2210593 h 5.824859 c 0,0 -1.664246,0.019131 -1.664246,2.2210593 0,1.4804026 0,9.6221608 0,9.6221608 L 7.4289752,11.444195 4.5165456,13.665254 c 0,0 0,-8.1426693 0,-9.6221608 z M 16.166263,20.95339 c 0,0.502881 -0.373623,0.911017 -0.832123,0.911017 H 4.5165456 C 4.2094923,21.860763 3.4697353,21.422564 2.8714391,20.95339 h 9.9663329 c 1.377995,0 2.496368,-1.224407 2.496368,-2.733051 V 3.6440678 c 0.4585,0 0.832123,0.4081356 0.832123,0.9110169 z"
     id="path2009"
     inkscape:connector-curvature="0"
     style="fill:#808080;stroke-width:0.8706767" /><path
     style="stroke-width:0.35901386;fill:#808080"
     inkscape:connector-curvature="0"
     d="m 21.92355,18.00106 c -2.044585,0 -3.702151,1.657567 -3.702151,3.702151 0,2.044584 1.657566,3.70251 3.702151,3.70251 2.044584,0 3.70251,-1.657926 3.70251,-3.70251 0,-2.044584 -1.657926,-3.702151 -3.70251,-3.702151 z m 1.974576,4.240672 h -1.436055 v 1.436055 H 21.38503 V 22.241732 H 19.948973 V 21.16469 h 1.436057 v -1.436055 h 1.077041 v 1.436055 h 1.436055 z"
     id="path2571" /></svg>