<?xml version="1.0" encoding="UTF-8" standalone="no"?>
<svg
   width="104pt"
   height="104pt"
   viewBox="0 0 104 104"
   version="1.1"
   id="svg61"
   sodipodi:docname="icons8_eink_snow.svg"
   inkscape:version="1.1.1 (3bf5ae0d25, 2021-09-20)"
   xmlns:inkscape="http://www.inkscape.org/namespaces/inkscape"
   xmlns:sodipodi="http://sodipodi.sourceforge.net/DTD/sodipodi-0.dtd"
   xmlns="http://www.w3.org/2000/svg"
   xmlns:svg="http://www.w3.org/2000/svg">
  <defs
     id="defs65" />
  <sodipodi:namedview
     id="namedview63"
     pagecolor="#ffffff"
     bordercolor="#666666"
     borderopacity="1.0"
     inkscape:pageshadow="2"
     inkscape:pageopacity="0.0"
     inkscape:pagecheckerboard="0"
     inkscape:document-units="pt"
     showgrid="false"
     inkscape:zoom="5.6682692"
     inkscape:cx="69.245123"
     inkscape:cy="69.333334"
     inkscape:window-width="1920"
     inkscape:window-height="995"
     inkscape:window-x="0"
     inkscape:window-y="0"
     inkscape:window-maximized="1"
     inkscape:current-layer="svg61" />
  <g
     id="surface1"
     style="fill:#808080">
    <path
       style="stroke:none;fill-rule:nonzero;fill:#808080;fill-opacity:1"
       d="M 74.847656 0 L 31.515625 0 C 24.992188 0 19.695313 5.292969 19.695313 11.816406 L 19.695313 90.605469 C 19.695313 97.128906 24.992188 102.425781 31.515625 102.425781 L 74.847656 102.425781 C 81.375 102.425781 86.667969 97.128906 86.667969 90.605469 L 86.667969 11.816406 C 86.667969 5.292969 81.375 0 74.847656 0 Z M 49.242188 3.9375 L 57.121094 3.9375 C 58.214844 3.9375 59.089844 4.816406 59.089844 5.910156 C 59.089844 7 58.214844 7.878906 57.121094 7.878906 L 49.242188 7.878906 C 48.148438 7.878906 47.273438 7 47.273438 5.910156 C 47.273438 4.816406 48.148438 3.9375 49.242188 3.9375 Z M 53.183594 97.609375 C 50.398438 97.609375 48.148438 95.359375 48.148438 92.574219 C 48.148438 89.789063 50.398438 87.542969 53.183594 87.542969 C 55.96875 87.542969 58.214844 89.789063 58.214844 92.574219 C 58.214844 95.359375 55.96875 97.609375 53.183594 97.609375 Z M 78.789063 80.757813 C 78.789063 81.851563 77.910156 82.726563 76.816406 82.726563 L 29.546875 82.726563 C 28.453125 82.726563 27.574219 81.851563 27.574219 80.757813 L 27.574219 13.789063 C 27.574219 12.695313 28.453125 11.816406 29.546875 11.816406 L 76.816406 11.816406 C 77.910156 11.816406 78.789063 12.695313 78.789063 13.789063 Z "
       id="path58" />
  </g>
  <path
     d="m 41.601651,33.333739 c -0.776541,0.172217 -1.31824,0.873609 -1.280666,1.675199 v 5.429524 L 36.472725,36.5902 c -0.36009,-0.369483 -0.864216,-0.557356 -1.383997,-0.494731 -0.663817,0.03757 -1.230566,0.469682 -1.452882,1.099056 -0.222316,0.629374 -0.03757,1.330764 0.466551,1.762873 l 3.84826,3.848261 h -5.426392 -0.197266 c -0.923708,0.05008 -1.62823,0.851685 -1.578131,1.775395 0.0501,0.926839 0.851691,1.628228 1.775397,1.581263 h 5.426392 l -3.84826,3.848257 c -0.651293,0.654424 -0.651293,1.712775 0,2.367197 0.654423,0.654423 1.715903,0.654423 2.370328,0 l 3.84826,-3.848258 v 5.426389 c 0,0.926841 0.751491,1.678332 1.67833,1.678332 0.923708,0 1.675197,-0.751491 1.675197,-1.678332 v -5.426389 l 3.848261,3.848258 c 0.654423,0.654423 1.715903,0.654423 2.370328,0 0.654422,-0.654422 0.654422,-1.712773 0,-2.367197 l -3.84826,-3.848257 h 5.426391 c 0.923707,0 1.678328,-0.754623 1.678328,-1.678332 0,-0.926835 -0.754621,-1.678326 -1.678328,-1.678326 h -5.426391 l 3.84826,-3.848261 c 0.529174,-0.457157 0.70139,-1.208648 0.432107,-1.850546 -0.259892,-0.654426 -0.914315,-1.061483 -1.615706,-1.011383 -0.444633,0 -0.876739,0.172217 -1.186729,0.494731 l -3.848261,3.848262 v -5.429524 c 0.01252,-0.479074 -0.184741,-0.948757 -0.541698,-1.280666 -0.356959,-0.322514 -0.851691,-0.469681 -1.330767,-0.394533 z"
     style="fill:#808080;fill-opacity:1;fill-rule:nonzero;stroke:none;stroke-width:0.601192"
     id="path241" />
  <path
     d="m 58.590553,55.56509 c -0.822064,0.182312 -1.395519,0.924822 -1.355742,1.773403 v 5.747817 l -4.073855,-4.073857 c -0.381199,-0.391143 -0.914878,-0.59003 -1.465131,-0.523734 -0.702731,0.03977 -1.302704,0.497216 -1.538053,1.163486 -0.235349,0.666269 -0.03977,1.408777 0.493901,1.866217 l 4.073855,4.073856 h -5.744501 -0.20883 c -0.977858,0.05302 -1.723682,0.901614 -1.670645,1.879473 0.05304,0.981174 0.901618,1.723679 1.879475,1.673961 h 5.744501 l -4.073855,4.073853 c -0.689473,0.692787 -0.689473,1.813181 0,2.505968 0.692787,0.692787 1.816494,0.692787 2.509283,0 l 4.073855,-4.073853 v 5.744498 c 0,0.981175 0.795544,1.77672 1.776718,1.77672 0.977857,0 1.773402,-0.795545 1.773402,-1.77672 V 71.65168 l 4.073856,4.073853 c 0.692786,0.692787 1.816494,0.692787 2.509282,0 0.692786,-0.692787 0.692786,-1.813181 0,-2.505968 l -4.073855,-4.073853 h 5.744499 c 0.977857,0 1.776718,-0.798861 1.776718,-1.77672 0,-0.981169 -0.798861,-1.776714 -1.776718,-1.776714 h -5.744499 l 4.073855,-4.073856 c 0.560197,-0.483956 0.742508,-1.279502 0.457437,-1.95903 -0.275125,-0.692789 -0.967913,-1.123709 -1.710422,-1.070673 -0.470698,0 -0.928135,0.182313 -1.256297,0.523734 L 60.784931,63.08631 V 57.338493 C 60.798185,56.831334 60.58936,56.334118 60.211476,55.982751 59.833592,55.64133 59.309858,55.485536 58.802697,55.56509 Z"
     style="fill:#808080;fill-opacity:1;fill-rule:nonzero;stroke:none;stroke-width:0.636436"
     id="path241-3" />
  <path
     d="m 62.920658,16.520006 c -0.77251,0.171323 -1.311397,0.869074 -1.274016,1.666503 v 5.40134 L 57.818358,19.759563 C 57.460137,19.391998 56.958628,19.2051 56.441545,19.2674 c -0.660371,0.03737 -1.224178,0.467244 -1.44534,1.093351 -0.221162,0.626106 -0.03737,1.323856 0.464128,1.753722 l 3.828285,3.828285 h -5.398224 -0.196242 c -0.918913,0.04982 -1.619778,0.847265 -1.569939,1.766179 0.04984,0.922028 0.847269,1.619776 1.766181,1.573055 h 5.398224 l -3.828285,3.828281 c -0.647911,0.651027 -0.647911,1.703884 0,2.354909 0.651027,0.651026 1.706997,0.651026 2.358025,0 L 61.646642,31.6369 v 5.398221 c 0,0.92203 0.747588,1.66962 1.669617,1.66962 0.918912,0 1.666502,-0.74759 1.666502,-1.66962 V 31.6369 l 3.828284,3.828282 c 0.651025,0.651026 1.706997,0.651026 2.358024,0 0.651025,-0.651025 0.651025,-1.703882 0,-2.354909 l -3.828285,-3.828281 h 5.398223 c 0.918912,0 1.669618,-0.750706 1.669618,-1.66962 0,-0.922024 -0.750706,-1.669614 -1.669618,-1.669614 h -5.398223 l 3.828285,-3.828285 c 0.526428,-0.454784 0.69775,-1.202374 0.429863,-1.84094 -0.258541,-0.651028 -0.909567,-1.055973 -1.607318,-1.006133 -0.442324,0 -0.872189,0.171323 -1.180569,0.492163 l -3.828284,3.828286 v -5.40134 c 0.01246,-0.476588 -0.183783,-0.943832 -0.538888,-1.274018 -0.355105,-0.32084 -0.847269,-0.467243 -1.323857,-0.392485 z"
     style="fill:#808080;fill-opacity:1;fill-rule:nonzero;stroke:none;stroke-width:0.598072"
     id="path241-6" />
</svg>
