<?xml version="1.0" encoding="UTF-8" standalone="no"?>
<!-- Generator: Adobe Illustrator 15.0.0, SVG Export Plug-In . SVG Version: 6.00 Build 0)  -->

<svg
   xmlns:dc="http://purl.org/dc/elements/1.1/"
   xmlns:cc="http://creativecommons.org/ns#"
   xmlns:rdf="http://www.w3.org/1999/02/22-rdf-syntax-ns#"
   xmlns:svg="http://www.w3.org/2000/svg"
   xmlns="http://www.w3.org/2000/svg"
   xmlns:sodipodi="http://sodipodi.sourceforge.net/DTD/sodipodi-0.dtd"
   xmlns:inkscape="http://www.inkscape.org/namespaces/inkscape"
   version="1.1"
   id="Layer_1"
   x="0px"
   y="0px"
   width="416px"
   height="416px"
   viewBox="0 0 26 26"
   enable-background="new 0 0 26 26"
   xml:space="preserve"
   sodipodi:docname="icons8_page_animation.svg"
   inkscape:version="0.92.5 (2060ec1f9f, 2020-04-08)"><metadata
   id="metadata23"><rdf:RDF><cc:Work
       rdf:about=""><dc:format>image/svg+xml</dc:format><dc:type
         rdf:resource="http://purl.org/dc/dcmitype/StillImage" /></cc:Work></rdf:RDF></metadata><defs
   id="defs21" /><sodipodi:namedview
   pagecolor="#ffffff"
   bordercolor="#666666"
   borderopacity="1"
   objecttolerance="10"
   gridtolerance="10"
   guidetolerance="10"
   inkscape:pageopacity="0"
   inkscape:pageshadow="2"
   inkscape:window-width="660"
   inkscape:window-height="480"
   id="namedview19"
   showgrid="false"
   inkscape:zoom="0.56730769"
   inkscape:cx="208"
   inkscape:cy="208"
   inkscape:window-x="0"
   inkscape:window-y="0"
   inkscape:window-maximized="0"
   inkscape:current-layer="Layer_1" />

<path
   d="M 22.685483,6.1721314 C 22.490076,5.979928 22.289864,5.7845212 22.092856,5.585911 21.894246,5.3889025 21.698839,5.1886907 21.506636,4.9932839 20.135585,3.5942034 19.319521,2.8029661 18.46822,2.8029661 h -6.406779 c -1.765869,0 -3.2033902,1.4375212 -3.2033902,3.2033898 V 20.42161 c 0,1.765869 1.4375212,3.20339 3.2033902,3.20339 h 9.610169 c 1.765869,0 3.20339,-1.437521 3.20339,-3.20339 V 9.209746 c 0,-0.8505 -0.791237,-1.6673646 -2.189517,-3.0376146 z M 23.273305,20.42161 c 0,0.884136 -0.717559,1.601695 -1.601695,1.601695 h -9.610169 c -0.884136,0 -1.601695,-0.717559 -1.601695,-1.601695 V 6.0063559 c 0,-0.8841356 0.717559,-1.6016949 1.601695,-1.6016949 l 5.837377,-0.0032 c 0.577411,0.147356 0.569402,0.8569068 0.569402,1.5672585 V 8.408901 c 0,0.441267 0.359581,0.800848 0.800848,0.800848 h 2.402542 c 0.799246,0 1.601695,0.004 1.601695,0.800847 z"
   id="path2"
   inkscape:connector-curvature="0"
   style="fill:#808080;stroke-width:0.80084747" />
<rect
   x="12.06144"
   y="11.612288"
   width="1.6016949"
   height="1.6016949"
   id="rect4"
   style="fill:#808080;stroke-width:0.80084747" />
<rect
   x="12.06144"
   y="14.815678"
   width="1.6016949"
   height="1.6016949"
   id="rect6"
   style="fill:#808080;stroke-width:0.80084747" />
<rect
   x="12.06144"
   y="18.019068"
   width="1.6016949"
   height="1.6016949"
   id="rect8"
   style="fill:#808080;stroke-width:0.80084747" />
<rect
   x="15.264831"
   y="11.612288"
   width="6.4067798"
   height="1.6016949"
   id="rect10"
   style="fill:#808080;stroke-width:0.80084747" />
<rect
   x="15.264831"
   y="14.815678"
   width="6.4067798"
   height="1.6016949"
   id="rect12"
   style="fill:#808080;stroke-width:0.80084747" />
<rect
   x="15.264831"
   y="18.019068"
   width="6.4067798"
   height="1.6016949"
   id="rect14"
   style="fill:#808080;stroke-width:0.80084747" />
<path
   d="m 12.862288,6.8072034 c -0.441267,0 -0.800847,0.3595805 -0.800847,0.8008474 V 8.408898 c 0,0.441267 0.35958,0.800848 0.800847,0.800848 h 4.226873 C 16.951415,8.973496 16.866525,8.702008 16.866525,8.408898 V 6.8072034 Z"
   id="path16"
   inkscape:connector-curvature="0"
   style="fill:#808080;stroke-width:0.80084747" />
<g
   transform="matrix(-0.62900187,0,0,1,7.700847,2.7711867)"
   id="g22"
   style="fill:#808080;fill-opacity:1"><polygon
     style="fill:#808080;fill-opacity:1"
     points="11.7,6 0,6 0,8 8.7,8 "
     id="polygon16" /><path
     inkscape:connector-curvature="0"
     style="fill:#808080;fill-opacity:1"
     d="M 7.5,10 H 0 v 2 H 7.6 C 7.1,11.1 7.3,10.3 7.5,10 Z"
     id="path18" /><polygon
     style="fill:#808080;fill-opacity:1"
     points="8.5,14 0,14 0,16 9.8,16 "
     id="polygon20" /></g></svg>