<?xml version="1.0" encoding="UTF-8" standalone="no"?>
<svg
   xmlns:dc="http://purl.org/dc/elements/1.1/"
   xmlns:cc="http://creativecommons.org/ns#"
   xmlns:rdf="http://www.w3.org/1999/02/22-rdf-syntax-ns#"
   xmlns:svg="http://www.w3.org/2000/svg"
   xmlns="http://www.w3.org/2000/svg"
   xmlns:sodipodi="http://sodipodi.sourceforge.net/DTD/sodipodi-0.dtd"
   xmlns:inkscape="http://www.inkscape.org/namespaces/inkscape"
   width="500px"
   height="500px"
   viewBox="0 0 26 26"
   version="1.1"
   id="svg5916"
   sodipodi:docname="icons8-txt-2.svg"
   inkscape:version="0.92.3 (2405546, 2018-03-11)">
  <metadata
     id="metadata5922">
    <rdf:RDF>
      <cc:Work
         rdf:about="">
        <dc:format>image/svg+xml</dc:format>
        <dc:type
           rdf:resource="http://purl.org/dc/dcmitype/StillImage" />
      </cc:Work>
    </rdf:RDF>
  </metadata>
  <defs
     id="defs5920" />
  <sodipodi:namedview
     pagecolor="#ffffff"
     bordercolor="#666666"
     borderopacity="1"
     objecttolerance="10"
     gridtolerance="10"
     guidetolerance="10"
     inkscape:pageopacity="0"
     inkscape:pageshadow="2"
     inkscape:window-width="812"
     inkscape:window-height="480"
     id="namedview5918"
     showgrid="false"
     inkscape:zoom="0.472"
     inkscape:cx="250"
     inkscape:cy="250"
     inkscape:window-x="70"
     inkscape:window-y="27"
     inkscape:window-maximized="0"
     inkscape:current-layer="svg5916" />
  <g
     id="surface1"
     style="fill:#808080">
    <path
       style="stroke:none;fill-rule:nonzero;fill:#808080;fill-opacity:1"
       d="M 7.910156 0 C 5.738281 0 3.96875 1.769531 3.96875 3.9375 L 3.96875 10.832031 L 0.984375 10.832031 C 0.441406 10.832031 0 11.277344 0 11.816406 L 0 17.726563 C 0 18.269531 0.441406 18.710938 0.984375 18.710938 L 3.96875 18.710938 L 3.96875 21.667969 C 3.96875 23.835938 5.738281 25.605469 7.910156 25.605469 L 19.695313 25.605469 C 21.867188 25.605469 23.636719 23.835938 23.636719 21.667969 L 23.636719 7.878906 C 23.636719 6.832031 22.679688 5.839844 20.957031 4.15625 C 20.71875 3.921875 20.460938 3.660156 20.21875 3.417969 C 19.976563 3.171875 19.714844 2.945313 19.480469 2.707031 C 17.796875 0.988281 16.804688 0 15.757813 0 Z M 15.050781 1.9375 C 15.761719 2.121094 15.757813 3.003906 15.757813 3.878906 L 15.757813 6.894531 C 15.757813 7.4375 16.199219 7.878906 16.742188 7.878906 L 19.695313 7.878906 C 20.679688 7.878906 21.667969 7.882813 21.667969 8.863281 L 21.667969 21.667969 C 21.667969 22.753906 20.785156 23.636719 19.695313 23.636719 L 7.847656 23.636719 C 6.757813 23.636719 5.878906 22.753906 5.878906 21.667969 L 5.878906 18.710938 L 16.742188 18.710938 C 17.285156 18.710938 17.726563 18.269531 17.726563 17.726563 L 17.726563 11.816406 C 17.726563 11.277344 17.285156 10.832031 16.742188 10.832031 L 5.878906 10.832031 L 5.878906 3.9375 C 5.878906 2.851563 6.757813 1.96875 7.847656 1.96875 Z M 2.984375 11.757813 L 5.878906 11.757813 C 5.992188 11.757813 6.09375 11.855469 6.09375 11.972656 L 6.09375 12.773438 C 6.09375 12.886719 5.992188 12.988281 5.878906 12.988281 L 5.078125 12.988281 L 5.078125 17.542969 C 5.078125 17.65625 4.976563 17.757813 4.863281 17.757813 L 4 17.757813 C 3.886719 17.757813 3.785156 17.65625 3.785156 17.542969 L 3.785156 12.988281 L 2.984375 12.988281 C 2.871094 12.988281 2.769531 12.886719 2.769531 12.773438 L 2.769531 11.972656 C 2.769531 11.855469 2.871094 11.757813 2.984375 11.757813 Z M 7.292969 11.757813 L 8.1875 11.757813 C 8.273438 11.757813 8.375 11.824219 8.402344 11.910156 L 8.800781 13.050781 C 8.832031 13.136719 8.863281 13.234375 8.894531 13.328125 C 8.921875 13.234375 8.929688 13.144531 8.957031 13.050781 L 9.324219 11.910156 C 9.351563 11.824219 9.453125 11.757813 9.539063 11.757813 L 10.402344 11.757813 C 10.472656 11.757813 10.546875 11.792969 10.585938 11.847656 C 10.625 11.90625 10.640625 11.972656 10.617188 12.035156 L 9.570313 14.710938 L 10.648438 17.390625 C 10.679688 17.421875 10.679688 17.492188 10.679688 17.542969 C 10.679688 17.65625 10.609375 17.757813 10.496094 17.757813 L 9.570313 17.757813 C 9.484375 17.757813 9.386719 17.6875 9.355469 17.605469 L 8.925781 16.433594 C 8.882813 16.308594 8.84375 16.191406 8.800781 16.066406 C 8.761719 16.195313 8.746094 16.3125 8.710938 16.433594 L 8.308594 17.605469 C 8.28125 17.6875 8.214844 17.757813 8.125 17.757813 L 7.234375 17.757813 C 7.164063 17.757813 7.117188 17.722656 7.078125 17.664063 C 7.039063 17.609375 7.023438 17.511719 7.046875 17.449219 L 8.09375 14.679688 L 7.078125 12.035156 C 7.054688 11.96875 7.070313 11.90625 7.109375 11.847656 C 7.148438 11.792969 7.226563 11.757813 7.292969 11.757813 Z M 11.847656 11.757813 L 14.742188 11.757813 C 14.855469 11.757813 14.957031 11.855469 14.957031 11.972656 L 14.957031 12.773438 C 14.957031 12.886719 14.855469 12.988281 14.742188 12.988281 L 13.941406 12.988281 L 13.941406 17.542969 C 13.941406 17.65625 13.839844 17.757813 13.726563 17.757813 L 12.863281 17.757813 C 12.75 17.757813 12.648438 17.65625 12.648438 17.542969 L 12.648438 12.988281 L 11.847656 12.988281 C 11.734375 12.988281 11.632813 12.886719 11.632813 12.773438 L 11.632813 11.972656 C 11.632813 11.855469 11.734375 11.757813 11.847656 11.757813 Z "
       id="path5913" />
  </g>
</svg>
