<?xml version="1.0" encoding="UTF-8" standalone="no"?>
<svg
   xmlns:dc="http://purl.org/dc/elements/1.1/"
   xmlns:cc="http://creativecommons.org/ns#"
   xmlns:rdf="http://www.w3.org/1999/02/22-rdf-syntax-ns#"
   xmlns:svg="http://www.w3.org/2000/svg"
   xmlns="http://www.w3.org/2000/svg"
   xmlns:sodipodi="http://sodipodi.sourceforge.net/DTD/sodipodi-0.dtd"
   xmlns:inkscape="http://www.inkscape.org/namespaces/inkscape"
   width="48"
   height="48"
   viewBox="0 0 48 48"
   version="1.1"
   id="svg16092"
   sodipodi:docname="icons8_bookmark_simple_add.svg"
   inkscape:version="1.0.2 (e86c870879, 2021-01-15)">
  <metadata
     id="metadata16098">
    <rdf:RDF>
      <cc:Work
         rdf:about="">
        <dc:format>image/svg+xml</dc:format>
        <dc:type
           rdf:resource="http://purl.org/dc/dcmitype/StillImage" />
        <dc:title />
      </cc:Work>
    </rdf:RDF>
  </metadata>
  <defs
     id="defs16096" />
  <sodipodi:namedview
     pagecolor="#ffffff"
     bordercolor="#666666"
     borderopacity="1"
     objecttolerance="10"
     gridtolerance="10"
     guidetolerance="10"
     inkscape:pageopacity="0"
     inkscape:pageshadow="2"
     inkscape:window-width="1920"
     inkscape:window-height="995"
     id="namedview16094"
     showgrid="false"
     inkscape:zoom="4.9166667"
     inkscape:cx="24"
     inkscape:cy="24"
     inkscape:window-x="0"
     inkscape:window-y="0"
     inkscape:window-maximized="1"
     inkscape:current-layer="svg16092"
     inkscape:document-rotation="0" />
  <path
     d="M 36.592161,0.579714 H 10.880208 c -2.841171,0 -5.1166785,2.3012198 -5.1166785,5.1423905 L 5.7378175,46.861229 23.736185,39.147643 41.734552,46.861229 V 5.7221045 c 0,-2.8411707 -2.30122,-5.1423905 -5.142391,-5.1423905 z m 0,38.567929 -12.855976,-5.59235 -12.855977,5.59235 V 5.7221045 h 25.711953 z"
     id="path16088"
     style="fill:#808080;stroke-width:1.2856" />
  <path
     d="M0 0h48v48H0z"
     fill="none"
     id="path16090" />
  <path
     style="fill:#808080;stroke-width:0.969122"
     inkscape:connector-curvature="0"
     d="m 23.82395,10.574799 c -5.379923,0 -9.741483,4.590277 -9.741483,10.252313 0,5.662038 4.36156,10.253308 9.741483,10.253308 5.379917,0 9.742422,-4.59127 9.742422,-10.253308 0,-5.662036 -4.362505,-10.252313 -9.742422,-10.252313 z m 5.195701,11.743632 h -3.778689 v 3.976846 h -2.834023 v -3.976846 h -3.778704 v -2.982636 h 3.778704 v -3.976848 h 2.834023 v 3.976848 h 3.778689 z"
     id="path2571" />
</svg>
