<?xml version="1.0" encoding="UTF-8" standalone="no"?>
<svg
   xmlns:dc="http://purl.org/dc/elements/1.1/"
   xmlns:cc="http://creativecommons.org/ns#"
   xmlns:rdf="http://www.w3.org/1999/02/22-rdf-syntax-ns#"
   xmlns:svg="http://www.w3.org/2000/svg"
   xmlns="http://www.w3.org/2000/svg"
   xmlns:sodipodi="http://sodipodi.sourceforge.net/DTD/sodipodi-0.dtd"
   xmlns:inkscape="http://www.inkscape.org/namespaces/inkscape"
   width="500px"
   height="500px"
   viewBox="0 0 26 26"
   version="1.1"
   id="svg829"
   sodipodi:docname="icons8-data-grid-1.svg"
   inkscape:version="0.92.2 (5c3e80d, 2017-08-06)">
  <metadata
     id="metadata835">
    <rdf:RDF>
      <cc:Work
         rdf:about="">
        <dc:format>image/svg+xml</dc:format>
        <dc:type
           rdf:resource="http://purl.org/dc/dcmitype/StillImage" />
      </cc:Work>
    </rdf:RDF>
  </metadata>
  <defs
     id="defs833" />
  <sodipodi:namedview
     pagecolor="#ffffff"
     bordercolor="#666666"
     borderopacity="1"
     objecttolerance="10"
     gridtolerance="10"
     guidetolerance="10"
     inkscape:pageopacity="0"
     inkscape:pageshadow="2"
     inkscape:window-width="737"
     inkscape:window-height="480"
     id="namedview831"
     showgrid="false"
     inkscape:zoom="0.2235"
     inkscape:cx="275.40279"
     inkscape:cy="377.62056"
     inkscape:window-x="0"
     inkscape:window-y="0"
     inkscape:window-maximized="1"
     inkscape:current-layer="svg829" />
  <g
     id="surface1"
     style="fill:#808080">
    <path
       style="stroke:none;fill-rule:nonzero;fill:#808080;fill-opacity:1"
       d="M 20.78125 0.984375 L 4.824219 0.984375 C 2.164063 0.984375 0 3.152344 0 5.808594 L 0 18.8125 C 0 21.46875 2.164063 23.636719 4.824219 23.636719 L 20.78125 23.636719 C 23.441406 23.636719 25.605469 21.46875 25.605469 18.8125 L 25.605469 5.808594 C 25.605469 3.152344 23.441406 0.984375 20.78125 0.984375 Z M 10.832031 13.789063 L 10.832031 10.832031 L 14.773438 10.832031 L 14.773438 13.789063 Z M 14.773438 16.742188 L 14.773438 19.695313 L 10.832031 19.695313 L 10.832031 16.742188 Z M 10.832031 7.878906 L 10.832031 4.925781 L 14.773438 4.925781 L 14.773438 7.878906 Z M 3.9375 5.910156 C 3.9375 5.316406 4.332031 4.925781 4.925781 4.925781 L 7.878906 4.925781 L 7.878906 7.878906 L 4.925781 7.878906 C 4.332031 7.878906 3.9375 7.488281 3.9375 6.894531 Z M 3.9375 11.816406 C 3.9375 11.226563 4.332031 10.832031 4.925781 10.832031 L 7.878906 10.832031 L 7.878906 13.789063 L 4.925781 13.789063 C 4.332031 13.789063 3.9375 13.394531 3.9375 12.804688 Z M 3.9375 18.710938 L 3.9375 17.726563 C 3.9375 17.136719 4.332031 16.742188 4.925781 16.742188 L 7.878906 16.742188 L 7.878906 19.695313 L 4.925781 19.695313 C 4.332031 19.695313 3.9375 19.304688 3.9375 18.710938 Z M 21.667969 18.710938 C 21.667969 19.304688 21.273438 19.695313 20.683594 19.695313 L 17.726563 19.695313 L 17.726563 16.742188 L 20.683594 16.742188 C 21.273438 16.742188 21.667969 17.136719 21.667969 17.726563 Z M 21.667969 12.804688 C 21.667969 13.394531 21.273438 13.789063 20.683594 13.789063 L 17.726563 13.789063 L 17.726563 10.832031 L 20.683594 10.832031 C 21.273438 10.832031 21.667969 11.226563 21.667969 11.816406 Z M 21.667969 6.894531 C 21.667969 7.488281 21.273438 7.878906 20.683594 7.878906 L 17.726563 7.878906 L 17.726563 4.925781 L 20.683594 4.925781 C 21.273438 4.925781 21.667969 5.316406 21.667969 5.910156 Z "
       id="path826" />
  </g>
</svg>
