<?xml version="1.0" encoding="UTF-8" standalone="no"?>
<svg
   xmlns:dc="http://purl.org/dc/elements/1.1/"
   xmlns:cc="http://creativecommons.org/ns#"
   xmlns:rdf="http://www.w3.org/1999/02/22-rdf-syntax-ns#"
   xmlns:svg="http://www.w3.org/2000/svg"
   xmlns="http://www.w3.org/2000/svg"
   xmlns:sodipodi="http://sodipodi.sourceforge.net/DTD/sodipodi-0.dtd"
   xmlns:inkscape="http://www.inkscape.org/namespaces/inkscape"
   version="1.1"
   viewBox="0 0 252 252"
   width="416px"
   height="416px"
   id="svg857"
   sodipodi:docname="icons8_moving_sensor.svg"
   inkscape:version="0.92.3 (2405546, 2018-03-11)">
  <metadata
     id="metadata863">
    <rdf:RDF>
      <cc:Work
         rdf:about="">
        <dc:format>image/svg+xml</dc:format>
        <dc:type
           rdf:resource="http://purl.org/dc/dcmitype/StillImage" />
      </cc:Work>
    </rdf:RDF>
  </metadata>
  <defs
     id="defs861" />
  <sodipodi:namedview
     pagecolor="#ffffff"
     bordercolor="#666666"
     borderopacity="1"
     objecttolerance="10"
     gridtolerance="10"
     guidetolerance="10"
     inkscape:pageopacity="0"
     inkscape:pageshadow="2"
     inkscape:window-width="1850"
     inkscape:window-height="1016"
     id="namedview859"
     showgrid="false"
     inkscape:zoom="2.0168269"
     inkscape:cx="208"
     inkscape:cy="208"
     inkscape:window-x="70"
     inkscape:window-y="27"
     inkscape:window-maximized="1"
     inkscape:current-layer="svg857" />
  <g
     stroke-miterlimit="10"
     font-weight="none"
     font-size="none"
     text-anchor="none"
     style="font-family:none;mix-blend-mode:normal;fill:none;fill-rule:nonzero;stroke:none;stroke-width:1;stroke-linecap:butt;stroke-linejoin:miter;stroke-miterlimit:10;stroke-dasharray:none;stroke-dashoffset:0"
     id="g855"
     transform="matrix(0.971814,0,0,0.64942774,44.007987,64.334752)">
    <path
       d="M 0,252 V 0 h 252 v 252 z"
       id="path840"
       inkscape:connector-curvature="0"
       style="fill:none" />
    <g
       id="g853">
      <g
         id="surface1">
        <path
           d="M 103.51104,63 C 88.806937,63 90.777594,51.4541 90.777594,36.75 c 0,-14.7041 -1.970657,-26.25 12.733446,-26.25 14.7041,0 14.23528,11.5459 14.23528,26.25 0,14.7041 0.46882,26.25 -14.23528,26.25 z"
           id="path842"
           style="fill:#808080"
           inkscape:connector-curvature="0"
           sodipodi:nodetypes="sssss" />
        <path
           d="m 75.027594,115.5 v 42 l 15.75,10.5 5.25,73.5 h 16.468726 l 5.25,-73.5 15.75,-10.5 v -42 c 0,-23.09179 -6.89348,-42 -29.98528,-42 -23.091793,0 -27.659266,18.951207 -28.483446,42 z"
           id="path844"
           style="fill:#808080"
           inkscape:connector-curvature="0"
           sodipodi:nodetypes="sccccccsss" />
        <path
           d="M 157.5,176.9209 V 115.5 c 0,-23.625 -7.34179,-38.84179 -21,-53.5459 3.6709,-7.875 5.25,-16.79589 5.25,-25.2041 0,-9.4541 -2.09179,-18.375 -5.7832,-26.25 h -14.1709 c 5.7832,7.3418 9.4541,16.28321 9.4541,26.25 0,15.75 -11.0332,29.40821 -11.0332,29.40821 0,0 26.7832,11.54589 26.7832,49.34179 v 50.40821 L 130.7168,176.9209 126,241.5 h 10.5 l 3.6709,-53.0332 z"
           id="path846"
           style="fill:#999999"
           inkscape:connector-curvature="0" />
        <path
           d="m 152.25,36.75 c 0,12.0791 -3.6709,22.5791 -3.6709,22.5791 0,0 19.4209,22.57911 19.4209,56.1709 v 68.78321 L 150.15821,195.8291 147,241.5 h 10.5 l 2.625,-39.9082 17.8418,-12.07911 V 115.5 c 0,-21 -6.2959,-40.9541 -18.375,-58.2832 2.1123,-6.80859 3.1582,-13.6377 3.1582,-20.4668 0,-8.9209 -1.5791,-17.84179 -4.2041,-26.25 h -11.01269 c 3.13769,8.40821 4.71679,16.7959 4.71679,26.25 z"
           id="path848"
           style="fill:#b3b3b3"
           inkscape:connector-curvature="0" />
        <path
           d="m 173.25,36.75 c 0,6.2959 -0.5332,12.5918 -1.5791,18.375 C 182.7041,73.5 189,93.9668 189,115.5 v 79.7959 L 170.625,207.375 168,241.5 h 10.5 L 180.5918,213.6709 199.5,201.0791 V 115.5 C 199.5,93.4541 193.7168,71.9209 182.7041,53.03321 183.2168,47.78321 183.75,42 183.75,36.75 c 0,-8.9209 -1.0459,-17.84179 -3.1582,-26.25 h -11.0127 c 2.625,8.40821 3.6709,17.3291 3.6709,26.25 z"
           id="path850"
           style="fill:#cccccc"
           inkscape:connector-curvature="0" />
      </g>
    </g>
  </g>
  <path
     inkscape:connector-curvature="0"
     d="m 53.726834,81.172788 c 0,2.308121 -1.881891,4.188982 -4.191291,4.188982 H 20.196475 c -2.309395,0 -4.191295,-1.880861 -4.191295,-4.188982 V 47.660924 c 0,-2.30814 1.8819,-4.188992 4.191295,-4.188992 h 29.339068 c 2.3094,0 4.191291,1.880852 4.191291,4.188992 z"
     id="path880"
     style="fill:#808080;stroke-width:4.19013929" />
  <path
     inkscape:connector-curvature="0"
     d="M 34.107383,80.640789 C 33.34038,79.983108 32.770366,78.370352 32.770366,76.979617 V 51.854085 c 0,-1.390744 0.570014,-3.032819 1.337017,-3.690491 L 62.222588,16.390151 c 3.621273,-3.615094 8.269422,-2.241106 8.269422,3.062148 v 89.145771 c 0,5.70957 -4.208049,7.87109 -8.399349,3.68211 z"
     id="path882"
     style="fill:#808080;stroke-width:4.19013929" />
  <path
     inkscape:connector-curvature="0"
     d="m 98.772548,41.204375 c -14.165055,0 -25.647656,11.01176 -25.647656,24.596003 0,13.584253 11.482601,24.597928 25.647656,24.597928 14.165072,0 25.649662,-11.013675 25.649662,-24.597928 0,-13.584243 -11.48459,-24.596003 -25.649662,-24.596003 z m 11.570682,33.031448 -2.77857,2.662708 c -0.50847,0.489535 -1.34123,0.489535 -1.84969,0 l -6.942422,-6.657744 -6.940399,6.655828 c -0.510471,0.489535 -1.341234,0.489535 -1.851705,-0.0035 L 87.20189,74.236283 c -0.506471,-0.49146 -0.506471,-1.284316 0,-1.777701 l 6.942392,-6.655819 -6.940412,-6.655828 c -0.508451,-0.49145 -0.508451,-1.290073 0,-1.775776 l 2.778581,-2.664624 c 0.510471,-0.493384 1.343228,-0.493384 1.851705,0 l 6.938392,6.657735 6.942422,-6.657735 c 0.51045,-0.493384 1.34322,-0.493384 1.84969,0 l 2.77857,2.660783 c 0.50845,0.489544 0.50845,1.288167 10e-4,1.779617 l -6.94242,6.655828 6.94242,6.655819 c 0.50446,0.493385 0.50446,1.286241 -10e-4,1.777701 z"
     id="path1455"
     style="fill:#808080;stroke-width:1.96037519" />
</svg>
