<?xml version="1.0" encoding="UTF-8" standalone="no"?>
<!-- Generator: Adobe Illustrator 15.0.0, SVG Export Plug-In . SVG Version: 6.00 Build 0)  -->

<svg
   xmlns:dc="http://purl.org/dc/elements/1.1/"
   xmlns:cc="http://creativecommons.org/ns#"
   xmlns:rdf="http://www.w3.org/1999/02/22-rdf-syntax-ns#"
   xmlns:svg="http://www.w3.org/2000/svg"
   xmlns="http://www.w3.org/2000/svg"
   xmlns:sodipodi="http://sodipodi.sourceforge.net/DTD/sodipodi-0.dtd"
   xmlns:inkscape="http://www.inkscape.org/namespaces/inkscape"
   version="1.1"
   id="Layer_1"
   x="0px"
   y="0px"
   width="416px"
   height="416px"
   viewBox="0 0 26 26"
   enable-background="new 0 0 26 26"
   xml:space="preserve"
   sodipodi:docname="icons8-document-hang-punct.svg"
   inkscape:version="0.92.2 (5c3e80d, 2017-08-06)"><metadata
     id="metadata2600"><rdf:RDF><cc:Work
         rdf:about=""><dc:format>image/svg+xml</dc:format><dc:type
           rdf:resource="http://purl.org/dc/dcmitype/StillImage" /><dc:title></dc:title></cc:Work></rdf:RDF></metadata><defs
     id="defs2598" /><sodipodi:namedview
     pagecolor="#ffffff"
     bordercolor="#666666"
     borderopacity="1"
     objecttolerance="10"
     gridtolerance="10"
     guidetolerance="10"
     inkscape:pageopacity="0"
     inkscape:pageshadow="2"
     inkscape:window-width="737"
     inkscape:window-height="480"
     id="namedview2596"
     showgrid="false"
     inkscape:zoom="0.28365385"
     inkscape:cx="214.64832"
     inkscape:cy="290.02613"
     inkscape:window-x="0"
     inkscape:window-y="0"
     inkscape:window-maximized="0"
     inkscape:current-layer="Layer_1" /><path
     stroke-miterlimit="10"
     d="m 7.4054722,11 c 1.1723544,0 2.8967458,0 4.1382078,0"
     id="path2587"
     inkscape:connector-curvature="0"
     style="fill:#808080;stroke:#808080;stroke-width:1.28657818;stroke-linecap:round;stroke-linejoin:round;stroke-miterlimit:10;stroke-opacity:1" /><path
     stroke-miterlimit="10"
     d="m 7.612289,19 c 2.715776,0 6.710355,0 9.58622,0"
     id="path2589"
     inkscape:connector-curvature="0"
     style="fill:#808080;stroke:#808080;stroke-width:1.30185974;stroke-linecap:round;stroke-linejoin:round;stroke-miterlimit:10;stroke-dasharray:none;stroke-opacity:1" /><path
     stroke-miterlimit="10"
     d="m 7.3871834,15 c 0.3957889,0 2.7705226,0 3.1663116,0"
     id="path2591"
     inkscape:connector-curvature="0"
     style="fill:#808080;stroke:#808080;stroke-width:1.2582351;stroke-linecap:round;stroke-linejoin:round;stroke-miterlimit:10;stroke-opacity:1" /><path
     fill="#000000"
     d="M20.266,4.207c-0.244-0.24-0.494-0.484-0.74-0.732c-0.248-0.246-0.492-0.496-0.732-0.74  C17.082,0.988,16.063,0,15,0H7C4.795,0,3,1.795,3,4v18c0,2.205,1.795,4,4,4h12c2.205,0,4-1.795,4-4V8  C23,6.938,22.012,5.918,20.266,4.207z M21,22c0,1.104-0.896,2-2,2H7c-1.104,0-2-0.896-2-2V4c0-1.104,0.896-2,2-2l7.289-0.004  C15.01,2.18,15,3.066,15,3.953V7c0,0.551,0.449,1,1,1h3c0.998,0,2,0.005,2,1V22z"
     id="path2593"
     style="fill:#808080" /><g
     transform="matrix(0.30269723,0,0,0.30722175,12.650071,9.9696221)"
     id="surface1"
     style="fill:#808080"><path
       inkscape:connector-curvature="0"
       style="fill:#808080;fill-opacity:1;fill-rule:nonzero;stroke:none"
       d="m 12.804688,0.183594 c -6.96875,0 -12.621094,4.992187 -12.621094,11.140625 0,3.121094 1.460937,5.9375 3.796875,7.960937 C 3.46875,22.25 0.15625,23.453125 0.382813,24.265625 c 2.796875,1.160156 8.402343,-1.386719 9.769531,-2.046875 0.859375,0.160156 1.742187,0.25 2.652344,0.25 6.964843,0 12.617187,-4.988281 12.617187,-11.144531 0,-6.152344 -5.652344,-11.140625 -12.617187,-11.140625 z m -0.894532,11.609375 c 0,3.027344 -1.34375,4.726562 -3.980468,5.050781 -0.00781,0 -0.011719,0 -0.019532,0 -0.027343,0 -0.058593,-0.01172 -0.082031,-0.03125 C 7.804688,16.78906 7.785156,16.75391 7.785156,16.71875 v -1.539062 c 0,-0.04687 0.027344,-0.08594 0.066407,-0.105469 C 9.054688,14.414063 9.65625,13.378906 9.6875,11.914063 H 7.910156 c -0.066406,0 -0.125,-0.05859 -0.125,-0.121094 v -3.875 c 0,-0.070313 0.058594,-0.125 0.125,-0.125 h 3.878907 c 0.0625,0 0.121093,0.054687 0.121093,0.125 z m 6.859375,0 c 0,2.980469 -1.1875,4.492187 -3.972656,5.046875 -0.0078,0.0039 -0.01563,0.0039 -0.02344,0.0039 -0.02734,0 -0.05859,-0.01172 -0.07813,-0.02734 -0.03125,-0.02344 -0.04687,-0.0625 -0.04687,-0.09766 v -1.539062 c 0,-0.04687 0.02344,-0.08594 0.0625,-0.105469 1.203125,-0.660156 1.808593,-1.695313 1.839843,-3.160156 h -1.777343 c -0.06641,0 -0.125,-0.05859 -0.125,-0.121094 v -3.875 c 0,-0.070313 0.05859,-0.125 0.125,-0.125 h 3.875 c 0.06641,0 0.121093,0.054687 0.121093,0.125 z"
       id="path3156" /></g></svg>