<?xml version="1.0" encoding="UTF-8" standalone="no"?>
<!-- Generator: Adobe Illustrator 19.1.1, SVG Export Plug-In . SVG Version: 6.00 Build 0)  -->

<svg
   xmlns:dc="http://purl.org/dc/elements/1.1/"
   xmlns:cc="http://creativecommons.org/ns#"
   xmlns:rdf="http://www.w3.org/1999/02/22-rdf-syntax-ns#"
   xmlns:svg="http://www.w3.org/2000/svg"
   xmlns="http://www.w3.org/2000/svg"
   xmlns:sodipodi="http://sodipodi.sourceforge.net/DTD/sodipodi-0.dtd"
   xmlns:inkscape="http://www.inkscape.org/namespaces/inkscape"
   version="1.1"
   x="0px"
   y="0px"
   viewBox="0 0 26 26"
   style="enable-background:new 0 0 26 26;"
   xml:space="preserve"
   width="416px"
   height="416px"
   id="svg2536"
   sodipodi:docname="icons8_left_key.svg"
   inkscape:version="0.92.2 (5c3e80d, 2017-08-06)"><metadata
     id="metadata2542"><rdf:RDF><cc:Work
         rdf:about=""><dc:format>image/svg+xml</dc:format><dc:type
           rdf:resource="http://purl.org/dc/dcmitype/StillImage" /><dc:title></dc:title></cc:Work></rdf:RDF></metadata><defs
     id="defs2540" /><sodipodi:namedview
     pagecolor="#ffffff"
     bordercolor="#666666"
     borderopacity="1"
     objecttolerance="10"
     gridtolerance="10"
     guidetolerance="10"
     inkscape:pageopacity="0"
     inkscape:pageshadow="2"
     inkscape:window-width="737"
     inkscape:window-height="480"
     id="namedview2538"
     showgrid="false"
     inkscape:zoom="0.56730769"
     inkscape:cx="287.23231"
     inkscape:cy="135.04886"
     inkscape:window-x="0"
     inkscape:window-y="0"
     inkscape:window-maximized="0"
     inkscape:current-layer="svg2536" /><path
     d="M23.28,11L10,10V6.851c0-0.328-0.16-0.574-0.48-0.82C9.2,5.949,8.88,5.949,8.64,6.113c-3.28,2.296-6.4,6.144-6.48,6.308  c-0.078,0.159-0.152,0.393-0.157,0.556C2.003,12.982,2,12.989,2,12.994c0,0,0,0,0,0s0,0,0,0c0,0.164,0.08,0.41,0.16,0.492  c0.08,0.164,3.12,4.023,6.48,6.319c0.32,0.164,0.64,0.246,0.88,0.082C9.84,19.724,10,19.478,10,19.15V16l13.28-1  c0.4-0.32,0.72-1.126,0.72-2.006C24,12.194,23.76,11.32,23.28,11z"
     id="path2534"
     style="fill:#808080" /><ellipse
     cx="21.70339"
     cy="22.579914"
     id="circle828"
     style="fill:#808080;stroke-width:0.32035714"
     rx="1.8621893"
     ry="1.9840273" /><path
     style="fill:none;stroke:#808080;stroke-width:0.64071429;stroke-linecap:round;stroke-linejoin:round;stroke-miterlimit:10;stroke-opacity:1"
     d="m 24.442359,21.996281 c -0.254808,-1.364019 -1.383916,-2.392406 -2.738969,-2.392406 -1.355054,0 -2.484161,1.028387 -2.738969,2.392406"
     id="path832"
     inkscape:connector-curvature="0" /></svg>