<?xml version="1.0" encoding="UTF-8" standalone="no"?>
<!-- Generator: Adobe Illustrator 17.1.0, SVG Export Plug-In . SVG Version: 6.00 Build 0)  -->

<svg
   xmlns:dc="http://purl.org/dc/elements/1.1/"
   xmlns:cc="http://creativecommons.org/ns#"
   xmlns:rdf="http://www.w3.org/1999/02/22-rdf-syntax-ns#"
   xmlns:svg="http://www.w3.org/2000/svg"
   xmlns="http://www.w3.org/2000/svg"
   xmlns:sodipodi="http://sodipodi.sourceforge.net/DTD/sodipodi-0.dtd"
   xmlns:inkscape="http://www.inkscape.org/namespaces/inkscape"
   version="1.1"
   id="Layer_1"
   x="0px"
   y="0px"
   viewBox="0 0 26 26"
   enable-background="new 0 0 26 26"
   xml:space="preserve"
   width="416px"
   height="416px"
   sodipodi:docname="icons8_forward_key.svg"
   inkscape:version="0.92.2 (5c3e80d, 2017-08-06)"><metadata
     id="metadata839"><rdf:RDF><cc:Work
         rdf:about=""><dc:format>image/svg+xml</dc:format><dc:type
           rdf:resource="http://purl.org/dc/dcmitype/StillImage" /><dc:title></dc:title></cc:Work></rdf:RDF></metadata><defs
     id="defs837" /><sodipodi:namedview
     pagecolor="#ffffff"
     bordercolor="#666666"
     borderopacity="1"
     objecttolerance="10"
     gridtolerance="10"
     guidetolerance="10"
     inkscape:pageopacity="0"
     inkscape:pageshadow="2"
     inkscape:window-width="1778"
     inkscape:window-height="1061"
     id="namedview835"
     showgrid="false"
     inkscape:zoom="0.37989992"
     inkscape:cx="-772.03634"
     inkscape:cy="163.28704"
     inkscape:window-x="-4"
     inkscape:window-y="-4"
     inkscape:window-maximized="1"
     inkscape:current-layer="Layer_1" /><path
     style="fill:#808080;stroke-width:0.78235584"
     id="circle854"
     ry="2.3419321"
     rx="2.3522143"
     cy="22.380625"
     cx="14.916842" /><ellipse
     cx="20.729143"
     cy="23.044804"
     id="circle828"
     style="fill:#808080;stroke-width:0.32035714"
     rx="1.8621893"
     ry="1.9840273" /><path
     style="fill:none;stroke:#808080;stroke-width:0.64071429;stroke-linecap:round;stroke-linejoin:round;stroke-miterlimit:10;stroke-opacity:1"
     d="m 23.468112,22.461171 c -0.254808,-1.364019 -1.383916,-2.392406 -2.738969,-2.392406 -1.355054,0 -2.484161,1.028387 -2.738969,2.392406"
     id="path832"
     inkscape:connector-curvature="0" /><path
     inkscape:connector-curvature="0"
     d="M 11.804435,10.452842 4.6850058,3.4311949 C 4.3673519,3.1179288 4.3706694,2.6147801 4.6916409,2.3047188 L 5.9655741,1.0740879 c 0.324289,-0.31326613 0.8509478,-0.31246494 1.1752368,0.0016 l 9.0610171,8.8107092 c 0.16173,0.1562329 0.243009,0.3613379 0.243009,0.5664429 0,0.205105 -0.08128,0.41021 -0.243009,0.566443 l -9.0610171,8.810709 c -0.3234597,0.314868 -0.8501183,0.315669 -1.1752368,0.0016 L 4.6916409,18.600965 c -0.3209715,-0.310061 -0.324289,-0.81321 -0.00663,-1.126476 z"
     id="path825-6"
     style="fill:#808080;stroke-width:0.81516594" /></svg>