<?xml version="1.0" encoding="UTF-8" standalone="no"?>
<!-- Generator: Adobe Illustrator 15.0.0, SVG Export Plug-In . SVG Version: 6.00 Build 0)  -->

<svg
   xmlns:dc="http://purl.org/dc/elements/1.1/"
   xmlns:cc="http://creativecommons.org/ns#"
   xmlns:rdf="http://www.w3.org/1999/02/22-rdf-syntax-ns#"
   xmlns:svg="http://www.w3.org/2000/svg"
   xmlns="http://www.w3.org/2000/svg"
   xmlns:sodipodi="http://sodipodi.sourceforge.net/DTD/sodipodi-0.dtd"
   xmlns:inkscape="http://www.inkscape.org/namespaces/inkscape"
   version="1.1"
   id="Layer_1"
   x="0px"
   y="0px"
   width="416px"
   height="416px"
   viewBox="0 0 26 26"
   enable-background="new 0 0 26 26"
   xml:space="preserve"
   sodipodi:docname="icons8-book-scan_properties.svg"
   inkscape:version="0.92.2 (5c3e80d, 2017-08-06)"><metadata
     id="metadata1510"><rdf:RDF><cc:Work
         rdf:about=""><dc:format>image/svg+xml</dc:format><dc:type
           rdf:resource="http://purl.org/dc/dcmitype/StillImage" /><dc:title></dc:title></cc:Work></rdf:RDF></metadata><defs
     id="defs1508" /><sodipodi:namedview
     pagecolor="#ffffff"
     bordercolor="#666666"
     borderopacity="1"
     objecttolerance="10"
     gridtolerance="10"
     guidetolerance="10"
     inkscape:pageopacity="0"
     inkscape:pageshadow="2"
     inkscape:window-width="1786"
     inkscape:window-height="1061"
     id="namedview1506"
     showgrid="false"
     inkscape:zoom="0.56730769"
     inkscape:cx="208"
     inkscape:cy="257.50232"
     inkscape:window-x="-4"
     inkscape:window-y="-4"
     inkscape:window-maximized="1"
     inkscape:current-layer="Layer_1" /><path
     stroke-miterlimit="10"
     d="m 24.841137,10.760684 c -0.276785,0.800841 0,1.517682 0,1.517682 l -4.704379,6.691078 -5.766347,-2.021683 c 0,0 -0.961058,-0.484137 -0.961058,-1.951304 0,-2.029629 1.480509,-1.568763 1.480509,-1.568763"
     id="path1501"
     style="fill:none;stroke:#808080;stroke-width:1.04447806;stroke-linecap:round;stroke-linejoin:round;stroke-miterlimit:10;stroke-opacity:1"
     inkscape:connector-curvature="0" /><path
     d="M 25.345692,7.9398638 C 25.288506,7.7434847 25.147715,7.5976194 24.976646,7.553349 L 18.997424,5.9760731 c -0.179718,-0.04427 -0.367605,0.027811 -0.488698,0.1929737 l -4.971553,6.5361312 c -0.113885,0.153811 -0.428151,0.748057 -0.525699,1.519951 0.277266,-0.405812 0.60835,-0.608434 0.775574,-0.55565 l 5.856207,1.974575 c 0.04325,0.01419 0.08746,0.02043 0.130223,0.02043 0.149445,0 0.293603,-0.07832 0.39019,-0.217946 l 5.096009,-6.9328654 c 0.111484,-0.1606222 0.144159,-0.3780013 0.08601,-0.5738128 z m -2.737093,1.6907897 -0.382982,0.5357855 c -0.106677,0.148703 -0.353188,0.222487 -0.550205,0.167433 L 18.106043,9.3065713 C 17.909507,9.2509495 17.835505,9.084084 17.94026,8.9376511 l 0.383943,-0.5386235 c 0.105716,-0.1475681 0.352708,-0.2213521 0.549725,-0.1657303 l 3.569369,1.0255981 c 0.195576,0.055622 0.270538,0.2230549 0.165302,0.3717581 z"
     id="path1503"
     style="fill:#808080;stroke-width:0.52223903"
     inkscape:connector-curvature="0" /><rect
     x="-5.9375186"
     y="20.486824"
     transform="matrix(0.70709255,-0.70712101,0.70709255,0.70712101,0,0)"
     width="0.96014351"
     height="1.9493185"
     id="rect1431"
     style="fill:#808080;stroke-width:0.42074651" /><path
     inkscape:connector-curvature="0"
     d="m 14.521781,20.790959 c 0.299989,0.300001 0.299989,0.786819 0,1.087241 l -0.362259,0.361853 c -0.300409,0.300422 -0.786787,0.300422 -1.086776,0 L 11.131441,20.29825 c -0.300409,-0.300422 -0.300409,-0.786819 -4.2e-4,-1.08682 l 0.362259,-0.362274 c 0.299989,-0.300001 0.787209,-0.300001 1.087197,0 z"
     id="path1433"
     style="fill:#808080;stroke-width:0.42075053" /><path
     inkscape:connector-curvature="0"
     d="m 8.072226,11.661751 c -2.280422,0 -4.128321,1.847974 -4.128321,4.128487 0,2.280514 1.847899,4.128908 4.128321,4.128908 2.280423,0 4.128743,-1.848394 4.128743,-4.128908 0,-2.280513 -1.84832,-4.128487 -4.128743,-4.128487 z m 0,7.493296 c -1.858838,0 -3.365095,-1.505896 -3.365095,-3.364809 0,-1.858914 1.506257,-3.364811 3.365095,-3.364811 1.858839,0 3.365095,1.505897 3.365095,3.364811 0,1.858913 -1.506256,3.364809 -3.365095,3.364809 z"
     id="path1435"
     style="fill:#808080;stroke-width:0.42075053" /><path
     inkscape:connector-curvature="0"
     d="m 8.918759,17.833865 c -1.646784,0 -2.98264,-1.335489 -2.98264,-2.982762 0,-0.04376 0.0046,-0.08668 0.0067,-0.130436 -0.217524,0.351756 -0.345009,0.765363 -0.345009,1.208843 0,1.273637 1.032501,2.305758 2.305667,2.305758 0.491847,0 0.946248,-0.154839 1.32113,-0.416971 -0.100558,0.01094 -0.202798,0.01557 -0.30588,0.01557 z"
     id="path1437"
     style="fill:#808080;stroke-width:0.42075053" /><rect
     x="1.0400139"
     y="6.4447293"
     style="fill:none;stroke:#808080;stroke-width:0.68609339;stroke-linejoin:round;stroke-miterlimit:10;stroke-dasharray:none;stroke-opacity:1"
     width="2.1135154"
     height="2.0043309"
     id="rect850" /><line
     style="fill:none;stroke:#808080;stroke-width:0.68606639;stroke-linecap:round;stroke-miterlimit:10;stroke-opacity:1"
     x1="4.9147925"
     y1="7.4468946"
     x2="9.8463287"
     y2="7.4468946"
     id="line852" /><rect
     x="1.0400139"
     y="9.4512253"
     style="fill:none;stroke:#808080;stroke-width:0.68609339;stroke-linejoin:round;stroke-miterlimit:10;stroke-dasharray:none;stroke-opacity:1"
     width="2.1135154"
     height="2.0043309"
     id="rect854" /><line
     style="fill:none;stroke:#808080;stroke-width:0.68606639;stroke-linecap:round;stroke-miterlimit:10;stroke-opacity:1"
     x1="4.9147925"
     y1="10.45339"
     x2="9.8463287"
     y2="10.45339"
     id="line856" /><rect
     x="1.0400139"
     y="12.45772"
     style="fill:none;stroke:#808080;stroke-width:0.68609339;stroke-linejoin:round;stroke-miterlimit:10;stroke-dasharray:none;stroke-opacity:1"
     width="2.1135154"
     height="2.0043309"
     id="rect858" /><rect
     x="1.7445199"
     y="7.1128392"
     style="fill:#808080;stroke-width:0.68609339;stroke-linejoin:round;stroke-miterlimit:10;stroke-dasharray:none"
     width="0.70450515"
     height="0.66811025"
     id="rect862" /><rect
     x="1.7445199"
     y="10.119335"
     style="fill:#808080;stroke-width:0.68609339;stroke-linejoin:round;stroke-miterlimit:10;stroke-dasharray:none;paint-order:stroke fill markers"
     width="0.70450515"
     height="0.66811025"
     id="rect864" /></svg>