<?xml version="1.0" encoding="UTF-8" standalone="no"?>
<!-- Generator: Adobe Illustrator 17.1.0, SVG Export Plug-In . SVG Version: 6.00 Build 0)  -->

<svg
   xmlns:dc="http://purl.org/dc/elements/1.1/"
   xmlns:cc="http://creativecommons.org/ns#"
   xmlns:rdf="http://www.w3.org/1999/02/22-rdf-syntax-ns#"
   xmlns:svg="http://www.w3.org/2000/svg"
   xmlns="http://www.w3.org/2000/svg"
   xmlns:sodipodi="http://sodipodi.sourceforge.net/DTD/sodipodi-0.dtd"
   xmlns:inkscape="http://www.inkscape.org/namespaces/inkscape"
   version="1.1"
   id="Layer_1"
   x="0px"
   y="0px"
   viewBox="0 0 26 26"
   enable-background="new 0 0 26 26"
   xml:space="preserve"
   width="416px"
   height="416px"
   sodipodi:docname="icons8_forward_key_double.svg"
   inkscape:version="0.92.2 (5c3e80d, 2017-08-06)"><metadata
     id="metadata839"><rdf:RDF><cc:Work
         rdf:about=""><dc:format>image/svg+xml</dc:format><dc:type
           rdf:resource="http://purl.org/dc/dcmitype/StillImage" /><dc:title></dc:title></cc:Work></rdf:RDF></metadata><defs
     id="defs837" /><sodipodi:namedview
     pagecolor="#ffffff"
     bordercolor="#666666"
     borderopacity="1"
     objecttolerance="10"
     gridtolerance="10"
     guidetolerance="10"
     inkscape:pageopacity="0"
     inkscape:pageshadow="2"
     inkscape:window-width="1778"
     inkscape:window-height="1061"
     id="namedview835"
     showgrid="false"
     inkscape:zoom="0.37989992"
     inkscape:cx="-1224.7872"
     inkscape:cy="163.28704"
     inkscape:window-x="-4"
     inkscape:window-y="-4"
     inkscape:window-maximized="1"
     inkscape:current-layer="Layer_1" /><path
     style="fill:#808080;stroke-width:0.78235584"
     id="circle854"
     ry="2.3419321"
     rx="2.3522143"
     cy="22.380625"
     cx="14.916842" /><ellipse
     cx="20.564627"
     cy="23.344971"
     id="circle828-8"
     style="fill:#808080;stroke-width:0.32035714"
     rx="1.8621893"
     ry="1.9840273" /><path
     style="fill:none;stroke:#808080;stroke-width:0.64071429;stroke-linecap:round;stroke-linejoin:round;stroke-miterlimit:10;stroke-opacity:1"
     d="m 24.520848,22.502089 c -0.368094,-1.97047 -1.99875,-3.455844 -3.956221,-3.455844 -1.957471,0 -3.588128,1.485374 -3.956221,3.455844"
     id="path830"
     inkscape:connector-curvature="0" /><path
     style="fill:none;stroke:#808080;stroke-width:0.64071429;stroke-linecap:round;stroke-linejoin:round;stroke-miterlimit:10;stroke-opacity:1"
     d="M 23.303596,22.761336 C 23.048788,21.397317 21.91968,20.36893 20.564627,20.36893 c -1.355054,0 -2.484161,1.028387 -2.738969,2.392406"
     id="path832-4"
     inkscape:connector-curvature="0" /><path
     inkscape:connector-curvature="0"
     d="M 11.886693,10.206068 4.7672641,3.1844207 c -0.317654,-0.3132661 -0.314336,-0.8164148 0.0066,-1.1264761 l 1.273933,-1.23063093 c 0.324289,-0.3132661 0.850948,-0.3124649 1.175237,0.0016 L 16.284052,9.6396228 c 0.16173,0.156233 0.243008,0.3613382 0.243008,0.5664432 0,0.205105 -0.08128,0.41021 -0.243008,0.566443 l -9.0610179,8.810709 c -0.323459,0.314868 -0.850118,0.315669 -1.175237,0.0016 l -1.273933,-1.230627 c -0.320971,-0.310061 -0.324289,-0.81321 -0.0066,-1.126476 z"
     id="path825-6"
     style="fill:#808080;stroke-width:0.81516594" /></svg>