<?xml version="1.0" encoding="UTF-8" standalone="no"?>
<!-- Generator: Adobe Illustrator 19.1.1, SVG Export Plug-In . SVG Version: 6.00 Build 0)  -->

<svg
   xmlns:dc="http://purl.org/dc/elements/1.1/"
   xmlns:cc="http://creativecommons.org/ns#"
   xmlns:rdf="http://www.w3.org/1999/02/22-rdf-syntax-ns#"
   xmlns:svg="http://www.w3.org/2000/svg"
   xmlns="http://www.w3.org/2000/svg"
   xmlns:sodipodi="http://sodipodi.sourceforge.net/DTD/sodipodi-0.dtd"
   xmlns:inkscape="http://www.inkscape.org/namespaces/inkscape"
   version="1.1"
   x="0px"
   y="0px"
   viewBox="0 0 26 26"
   style="enable-background:new 0 0 26 26;"
   xml:space="preserve"
   width="416px"
   height="416px"
   id="svg2536"
   sodipodi:docname="icons8_right_key_long.svg"
   inkscape:version="0.92.2 (5c3e80d, 2017-08-06)"><metadata
     id="metadata2542"><rdf:RDF><cc:Work
         rdf:about=""><dc:format>image/svg+xml</dc:format><dc:type
           rdf:resource="http://purl.org/dc/dcmitype/StillImage" /><dc:title></dc:title></cc:Work></rdf:RDF></metadata><defs
     id="defs2540" /><sodipodi:namedview
     pagecolor="#ffffff"
     bordercolor="#666666"
     borderopacity="1"
     objecttolerance="10"
     gridtolerance="10"
     guidetolerance="10"
     inkscape:pageopacity="0"
     inkscape:pageshadow="2"
     inkscape:window-width="737"
     inkscape:window-height="480"
     id="namedview2538"
     showgrid="false"
     inkscape:zoom="0.28365385"
     inkscape:cx="177.93412"
     inkscape:cy="295.18899"
     inkscape:window-x="0"
     inkscape:window-y="0"
     inkscape:window-maximized="0"
     inkscape:current-layer="svg2536" /><path
     d="m 1.1776271,8.5762712 13.2799999,-1 v -3.149 c 0,-0.328 0.16,-0.574 0.48,-0.82 0.32,-0.082 0.64,-0.082 0.88,0.082 3.28,2.296 6.4,6.144 6.48,6.308 0.078,0.1589998 0.152,0.3929998 0.157,0.5559998 0,0.005 0.003,0.012 0.003,0.017 0,0 0,0 0,0 0,0 0,0 0,0 0,0.164 -0.08,0.41 -0.16,0.492 -0.08,0.164 -3.12,4.023 -6.48,6.319 -0.32,0.164 -0.64,0.246 -0.88,0.082 -0.32,-0.163 -0.48,-0.409 -0.48,-0.737 v -3.15 l -13.2799999,-1 c -0.39999998,-0.32 -0.71999998,-1.126 -0.71999998,-2.006 0,-0.7999998 0.24,-1.6739998 0.71999998,-1.9939998 z"
     id="path2534"
     style="fill:#808080"
     inkscape:connector-curvature="0" /><ellipse
     cx="20.846943"
     cy="22.00214"
     id="circle828-7"
     style="fill:#808080;stroke-width:0.39189434"
     rx="2.3464022"
     ry="2.3563411" /><path
     inkscape:connector-curvature="0"
     style="fill:none;stroke:#808080;stroke-width:1.87091148;stroke-linecap:round;stroke-linejoin:round;stroke-miterlimit:10;stroke-dasharray:none;stroke-opacity:1"
     d="m 24.346061,20.62172 c -0.327844,-1.619985 -1.780582,-2.841356 -3.524027,-2.841356 -1.743445,0 -3.196182,1.221371 -3.524026,2.841356"
     id="path832-9" /></svg>