<?xml version="1.0" encoding="utf-8"?>
<!-- Generator: Adobe Illustrator 15.0.0, SVG Export Plug-In . SVG Version: 6.00 Build 0)  -->
<!DOCTYPE svg PUBLIC "-//W3C//DTD SVG 1.1//EN" "http://www.w3.org/Graphics/SVG/1.1/DTD/svg11.dtd">
<svg xmlns="http://www.w3.org/2000/svg" xmlns:xlink="http://www.w3.org/1999/xlink" version="1.1" id="Layer_1" x="0px" y="0px" width="416px" height="416px" viewBox="0 0 26 26" enable-background="new 0 0 26 26" xml:space="preserve">


<path fill="#808080" d="M9.043,14.434c0-0.791,0.063-5.586,0.037-8.631c-0.043-4.859,0.258-5.725,1.527-5.725  c1.365,0,1.427,1.345,1.378,5.712c-0.034,3.037-0.05,5.694,0.188,5.694c0.418,0,0.244-1.362,1.343-1.362  c1.373,0,1.328,1.064,1.711,1.064c0.384,0,0.556-1.036,1.653-1.036s1.243,1.396,1.696,1.396s0.571-0.451,1.251-0.451  c0.679,0,2.172,1.417,2.172,6.417c0,6.289-2.041,6.355-2.041,8.487h-8.82c-0.055-0.512-1.209-1.551-2.478-3.073  c-1.989-2.388-2.501-3.29-2.517-4.284C6.107,16.418,9.043,15.871,9.043,14.434z"/>
</svg>
