<?xml version="1.0" encoding="UTF-8" standalone="no"?>
<svg
   xmlns:dc="http://purl.org/dc/elements/1.1/"
   xmlns:cc="http://creativecommons.org/ns#"
   xmlns:rdf="http://www.w3.org/1999/02/22-rdf-syntax-ns#"
   xmlns:svg="http://www.w3.org/2000/svg"
   xmlns="http://www.w3.org/2000/svg"
   xmlns:sodipodi="http://sodipodi.sourceforge.net/DTD/sodipodi-0.dtd"
   xmlns:inkscape="http://www.inkscape.org/namespaces/inkscape"
   version="1.1"
   id="Layer_1"
   x="0px"
   y="0px"
   width="416px"
   height="416px"
   viewBox="0 0 26 26"
   enable-background="new 0 0 26 26"
   xml:space="preserve"
   sodipodi:docname="icons8_speaker_koef.svg"
   inkscape:version="1.0.1 (3bc2e813f5, 2020-09-07)"><metadata
     id="metadata5991"><rdf:RDF><cc:Work
         rdf:about=""><dc:format>image/svg+xml</dc:format><dc:type
           rdf:resource="http://purl.org/dc/dcmitype/StillImage" /><dc:title></dc:title></cc:Work></rdf:RDF></metadata><defs
     id="defs5989" /><sodipodi:namedview
     pagecolor="#ffffff"
     bordercolor="#666666"
     borderopacity="1"
     objecttolerance="10"
     gridtolerance="10"
     guidetolerance="10"
     inkscape:pageopacity="0"
     inkscape:pageshadow="2"
     inkscape:window-width="1920"
     inkscape:window-height="1017"
     id="namedview5987"
     showgrid="false"
     inkscape:zoom="0.56730769"
     inkscape:cx="208"
     inkscape:cy="181.55932"
     inkscape:window-x="-8"
     inkscape:window-y="-8"
     inkscape:window-maximized="1"
     inkscape:current-layer="Layer_1"
     inkscape:document-rotation="0" /><path
     fill="#000000"
     d="m 8.1758475,19.029731 c 0,0.46228 -0.3767034,0.838983 -0.8389831,0.838983 H 1.463983 C 1.0017034,19.868714 0.625,19.492011 0.625,19.029731 v -6.711864 c 0,-0.46228 0.3767034,-0.838983 0.838983,-0.838983 h 5.8728814 c 0.4622797,0 0.8389831,0.376703 0.8389831,0.838983 z"
     id="path5978"
     style="fill:#808080;stroke-width:0.838983" /><path
     fill="#000000"
     d="M 4.2485678,18.923181 C 4.0950339,18.79146 3.9809322,18.468452 3.9809322,18.189909 v -5.03222 c 0,-0.278542 0.1141017,-0.607424 0.2676356,-0.739144 L 9.876466,6.0548586 C 10.601347,5.3308162 11.53178,5.6060026 11.53178,6.6681552 V 24.522553 c 0,1.143534 -0.842339,1.57645 -1.681322,0.737467 z"
     id="path5980"
     style="fill:#808080;stroke-width:0.838983" /><path
     fill="none"
     stroke="#000000"
     stroke-width="1.55945"
     stroke-linecap="round"
     stroke-linejoin="round"
     stroke-miterlimit="10"
     d="m 14.301678,11.805315 c 1.40117,0.870175 2.31657,2.307992 2.31657,3.934503 0,1.636647 -0.926316,3.080702 -2.341521,3.949317"
     id="path5982"
     style="stroke:#808080;stroke-opacity:1" /><path
     fill="none"
     stroke="#000000"
     stroke-width="1.55945"
     stroke-linecap="round"
     stroke-linejoin="round"
     stroke-miterlimit="10"
     d="m 16.227604,8.7729566 c 2.54503,1.2842104 4.289279,3.9204674 4.289279,6.9660814 0,3.045614 -1.744249,5.681871 -4.289279,6.966082"
     id="path5984"
     style="stroke:#808080;stroke-opacity:1" /><g
     id="surface1"
     transform="matrix(0.15362366,0,0,0.15362366,15.403688,-6.2459186)"
     style="fill:#808080"><path
       style="fill:#808080;fill-opacity:1;fill-rule:nonzero;stroke:none"
       d="M 40.799835,46.273382 C 21.239278,45.644596 23.991235,52.603109 24.125735,72.630938 24.248087,92.93614 24.283382,92.96295 40.810938,92.882252 60.15123,92.78782 59.9432,93.114182 60.310259,73.329771 60.2743,46.358346 58.936976,46.316883 40.799835,46.273382 Z m -9.28421,4.937556 h 7.878906 V 69.308594 L 44.765625,63.03125 H 55.152344 L 44.996094,74.878906 54.875,86.667969 H 44.59375 l -5.199219,-6.21875 v 6.21875 h -7.878906 z"
       id="path2"
       sodipodi:nodetypes="ccscccccccccccccc" /></g></svg>
