<?xml version="1.0" encoding="UTF-8" standalone="no"?>
<!-- Generator: Adobe Illustrator 17.0.0, SVG Export Plug-In . SVG Version: 6.00 Build 0)  -->

<svg
   xmlns:dc="http://purl.org/dc/elements/1.1/"
   xmlns:cc="http://creativecommons.org/ns#"
   xmlns:rdf="http://www.w3.org/1999/02/22-rdf-syntax-ns#"
   xmlns:svg="http://www.w3.org/2000/svg"
   xmlns="http://www.w3.org/2000/svg"
   xmlns:sodipodi="http://sodipodi.sourceforge.net/DTD/sodipodi-0.dtd"
   xmlns:inkscape="http://www.inkscape.org/namespaces/inkscape"
   version="1.1"
   id="Layer_1"
   x="0px"
   y="0px"
   width="416px"
   height="416px"
   viewBox="0 0 26 26"
   enable-background="new 0 0 26 26"
   xml:space="preserve"
   sodipodi:docname="icons8-fullscreen.svg"
   inkscape:version="0.92.2 (5c3e80d, 2017-08-06)"><metadata
     id="metadata831"><rdf:RDF><cc:Work
         rdf:about=""><dc:format>image/svg+xml</dc:format><dc:type
           rdf:resource="http://purl.org/dc/dcmitype/StillImage" /><dc:title></dc:title></cc:Work></rdf:RDF></metadata><defs
     id="defs829" /><sodipodi:namedview
     pagecolor="#ffffff"
     bordercolor="#666666"
     borderopacity="1"
     objecttolerance="10"
     gridtolerance="10"
     guidetolerance="10"
     inkscape:pageopacity="0"
     inkscape:pageshadow="2"
     inkscape:window-width="737"
     inkscape:window-height="480"
     id="namedview827"
     showgrid="false"
     inkscape:zoom="0.53725962"
     inkscape:cx="175.79391"
     inkscape:cy="218.20027"
     inkscape:window-x="0"
     inkscape:window-y="0"
     inkscape:window-maximized="1"
     inkscape:current-layer="Layer_1" /><path
     fill="#000000"
     d="M19,0H8C6.343,0,5,1.344,5,3v20c0,1.656,1.343,3,3,3h11c1.657,0,3-1.344,3-3V3C22,1.344,20.657,0,19,0z   M12.5,1h2C14.776,1,15,1.224,15,1.5S14.776,2,14.5,2h-2C12.224,2,12,1.776,12,1.5S12.224,1,12.5,1z M13.5,24.778  c-0.706,0-1.278-0.572-1.278-1.278s0.572-1.278,1.278-1.278s1.278,0.572,1.278,1.278S14.206,24.778,13.5,24.778z M20,20.5  c0,0.276-0.224,0.5-0.5,0.5h-12C7.224,21,7,20.776,7,20.5v-17C7,3.224,7.224,3,7.5,3h12C19.776,3,20,3.224,20,3.5V20.5z"
     id="path824"
     style="fill:#808080" /><rect
     x="15.087314"
     style="fill:#808080;stroke-width:0.16534498"
     y="11.023944"
     width="2.6176114"
     height="1.420417"
     id="rect856" /><polygon
     transform="matrix(0.20187819,0,0,0.17755211,14.409742,9.513032)"
     style="fill:#808080"
     points="12,21.938 25.906,13 12,4.061 "
     id="polygon858" /><rect
     x="-11.795367"
     style="fill:#808080;stroke-width:0.15072446"
     y="11.023944"
     width="2.1751561"
     height="1.420417"
     id="rect856-6"
     transform="scale(-1,1)" /><polygon
     transform="matrix(-0.21058551,0,0,0.17755211,12.711871,9.406396)"
     style="fill:#808080"
     points="12,4.061 12,21.938 25.906,13 "
     id="polygon858-7" /><polygon
     transform="matrix(0,0.16184677,-0.18406793,0,15.875168,16.425312)"
     style="fill:#808080"
     points="25.906,13 12,4.061 12,21.938 "
     id="polygon858-1" /><rect
     x="-6.8303347"
     style="fill:#808080;stroke-width:0.13505483"
     y="-14.146316"
     width="1.7380843"
     height="1.4272113"
     id="rect856-6-1"
     transform="matrix(0,-1,-1,0,0,0)" /><polygon
     transform="matrix(0,-0.14735429,-0.17840141,0,15.725211,7.2399988)"
     style="fill:#808080"
     points="25.906,13 12,4.061 12,21.938 "
     id="polygon858-7-4" /><rect
     x="-18.773937"
     style="fill:#808080;stroke-width:0.15498586"
     y="-14.293211"
     width="1.9763126"
     height="1.6529791"
     id="rect856-6-1-0"
     transform="matrix(0,-1,-1,0,0,0)" /></svg>