<?xml version="1.0" encoding="UTF-8" standalone="no"?>
<svg
   xmlns:dc="http://purl.org/dc/elements/1.1/"
   xmlns:cc="http://creativecommons.org/ns#"
   xmlns:rdf="http://www.w3.org/1999/02/22-rdf-syntax-ns#"
   xmlns:svg="http://www.w3.org/2000/svg"
   xmlns="http://www.w3.org/2000/svg"
   xmlns:sodipodi="http://sodipodi.sourceforge.net/DTD/sodipodi-0.dtd"
   xmlns:inkscape="http://www.inkscape.org/namespaces/inkscape"
   viewBox="0 0 26 26"
   version="1.1"
   width="416px"
   height="416px"
   id="svg2608"
   sodipodi:docname="icons8_l_h.svg"
   inkscape:version="0.92.3 (2405546, 2018-03-11)">
  <metadata
     id="metadata2614">
    <rdf:RDF>
      <cc:Work
         rdf:about="">
        <dc:format>image/svg+xml</dc:format>
        <dc:type
           rdf:resource="http://purl.org/dc/dcmitype/StillImage" />
        <dc:title />
      </cc:Work>
    </rdf:RDF>
  </metadata>
  <defs
     id="defs2612" />
  <sodipodi:namedview
     pagecolor="#ffffff"
     bordercolor="#666666"
     borderopacity="1"
     objecttolerance="10"
     gridtolerance="10"
     guidetolerance="10"
     inkscape:pageopacity="0"
     inkscape:pageshadow="2"
     inkscape:window-width="1850"
     inkscape:window-height="1016"
     id="namedview2610"
     showgrid="false"
     inkscape:zoom="0.5673077"
     inkscape:cx="234.21469"
     inkscape:cy="226.92822"
     inkscape:window-x="70"
     inkscape:window-y="27"
     inkscape:window-maximized="1"
     inkscape:current-layer="svg2608" />
  <g
     id="surface1"
     transform="matrix(0.68707146,0,0,0.67063728,-2.2701529,3.9035188)"
     style="fill:#808080">
    <path
       d="m 4,0 v 24 c 0,1.105469 0.894531,2 2,2 H 22 V 22 H 8 V 0 Z"
       id="path2605"
       inkscape:connector-curvature="0"
       style="fill:#808080" />
  </g>
  <path
     inkscape:connector-curvature="0"
     style="font-weight:400;line-height:normal;font-family:sans-serif;text-indent:0;text-align:start;text-decoration:none;text-decoration-line:none;text-decoration-style:solid;text-decoration-color:#000000;text-transform:none;white-space:normal;overflow:visible;isolation:auto;mix-blend-mode:normal;fill:#808080;stroke-width:0.32644686"
     d="m 9.857616,4.9607271 a 2.9722149,2.9042217 0 0 0 -2.9722148,2.9042215 2.9722149,2.9042217 0 0 0 2.9722148,2.9042224 2.9722149,2.9042217 0 0 0 0.349597,-0.02395 c -0.204631,0.887442 -0.61796,1.449186 -0.619212,1.450851 a 0.33037507,0.32281731 0 0 0 0.467634,0.44496 c 0,0 2.556871,-1.832067 2.754845,-4.4584332 A 2.9722149,2.9042217 0 0 0 12.82983,7.864948 0.33027913,0.32272356 0 0 0 12.82853,7.832806 2.9722149,2.9042217 0 0 0 9.857605,4.9607273 Z"
     font-weight="400"
     overflow="visible"
     id="path825" />
  <g
     transform="matrix(0.68707146,0,0,0.66077008,11.363866,6.8644468)"
     id="surface1-5"
     style="fill:#808080">
    <path
       inkscape:connector-curvature="0"
       d="M 4.7594803,-4.4183167 5,22 H 9 V 10.125 L 11.600421,8 H 15.1875 L 17,9.8125 V 22 h 4 V 9 C 20.996094,8.472656 20.78125,7.964844 20.40625,7.59375 l -3,-3 C 17.035156,4.21875 16.527344,4.003906 16,4 H 12 C 11.9375,3.996094 11.875,3.996094 11.8125,4 11.515625,4.027344 11.226563,4.125 10.96875,4.28125 L 9,5.46875 v -9.8870667 z"
       id="path1475"
       sodipodi:nodetypes="ccccccccccccccccccc"
       style="fill:#808080" />
  </g>
</svg>
