<?xml version="1.0" encoding="UTF-8" standalone="no"?>
<!-- Generator: Adobe Illustrator 21.0.0, SVG Export Plug-In . SVG Version: 6.00 Build 0)  -->

<svg
   xmlns:dc="http://purl.org/dc/elements/1.1/"
   xmlns:cc="http://creativecommons.org/ns#"
   xmlns:rdf="http://www.w3.org/1999/02/22-rdf-syntax-ns#"
   xmlns:svg="http://www.w3.org/2000/svg"
   xmlns="http://www.w3.org/2000/svg"
   xmlns:sodipodi="http://sodipodi.sourceforge.net/DTD/sodipodi-0.dtd"
   xmlns:inkscape="http://www.inkscape.org/namespaces/inkscape"
   version="1.1"
   id="Layer_1"
   x="0px"
   y="0px"
   viewBox="0 0 50 50"
   style="enable-background:new 0 0 50 50;"
   xml:space="preserve"
   fill="#808080"
   width="500px"
   height="500px"
   sodipodi:docname="icons8_esc_key_long.svg"
   inkscape:version="0.92.2 (5c3e80d, 2017-08-06)"><metadata
     id="metadata826"><rdf:RDF><cc:Work
         rdf:about=""><dc:format>image/svg+xml</dc:format><dc:type
           rdf:resource="http://purl.org/dc/dcmitype/StillImage" /><dc:title></dc:title></cc:Work></rdf:RDF></metadata><defs
     id="defs824" /><sodipodi:namedview
     pagecolor="#ffffff"
     bordercolor="#666666"
     borderopacity="1"
     objecttolerance="10"
     gridtolerance="10"
     guidetolerance="10"
     inkscape:pageopacity="0"
     inkscape:pageshadow="2"
     inkscape:window-width="737"
     inkscape:window-height="480"
     id="namedview822"
     showgrid="false"
     inkscape:zoom="0.2235"
     inkscape:cx="232.07136"
     inkscape:cy="390.7254"
     inkscape:window-x="0"
     inkscape:window-y="0"
     inkscape:window-maximized="1"
     inkscape:current-layer="Layer_1" /><path
     style="fill:none;stroke:#808080;stroke-width:1.56812406;stroke-miterlimit:10"
     d="M 31.02802,31.721458 H 8.6811522 c -3.2565905,0 -5.8970902,-2.696117 -5.8970902,-6.0213 V 10.805362 c 0,-3.3251836 2.6404997,-6.0213 5.8970902,-6.0213 H 31.02802 c 3.256591,0 5.89709,2.6961164 5.89709,6.0213 v 14.894796 c 0,3.325183 -2.640499,6.0213 -5.89709,6.0213 z"
     id="path815"
     inkscape:connector-curvature="0" /><path
     style="fill:none;stroke:#808080;stroke-width:1.56812406;stroke-miterlimit:10"
     d="m 36.92511,25.066336 v 6.179756 c 0,3.325184 -2.640499,6.0213 -5.89709,6.0213 H 8.6811522 c -3.2565905,0 -5.8970902,-2.696116 -5.8970902,-6.0213 v -6.179756"
     id="path817"
     inkscape:connector-curvature="0" /><path
     d="M 31.02802,4.784062 H 8.6811522 c -3.2565905,0 -5.8970902,2.6961164 -5.8970902,6.0213 v 14.894796 c 0,3.325183 2.6404997,6.0213 5.8970902,6.0213 H 31.02802 c 3.256591,0 5.89709,-2.696117 5.89709,-6.0213 V 10.805362 c 0,-3.3251836 -2.640499,-6.0213 -5.89709,-6.0213 z M 16.273656,15.498807 H 12.68807 v 2.07418 h 3.389275 v 1.137709 H 12.68807 v 2.187475 h 3.585586 v 1.208221 h -4.954332 v -7.815014 h 4.954332 z m 3.738445,6.727219 c -1.448667,0 -2.360388,-0.639367 -2.46126,-1.716863 h 1.299688 c 0.127253,0.438921 0.535394,0.698788 1.193385,0.698788 0.662646,0 1.124327,-0.297896 1.124327,-0.736817 0,-0.335926 -0.249075,-0.546671 -0.800763,-0.671851 l -1.028887,-0.244021 c -1.11424,-0.259866 -1.638771,-0.785146 -1.638771,-1.678833 7.76e-4,-1.07195 0.955174,-1.813521 2.32392,-1.813521 1.378832,0 2.243997,0.622729 2.339437,1.700225 h -1.236061 c -0.09544,-0.416737 -0.48263,-0.68215 -1.097945,-0.68215 -0.59902,0 -1.050613,0.29235 -1.050613,0.720179 0,0.335926 0.275456,0.541917 0.858958,0.676604 l 1.023455,0.238476 c 1.108808,0.25432 1.623252,0.74157 1.623252,1.613866 0,1.137709 -1.023456,1.895918 -2.472122,1.895918 z m 6.286608,-1.126617 c 0.684373,0 1.140621,-0.330379 1.277961,-0.947563 h 1.25158 c -0.143547,1.239913 -1.055268,2.07418 -2.524885,2.07418 -1.745074,0 -2.773961,-1.148009 -2.773961,-3.097801 0,-1.922854 1.023456,-3.065317 2.768529,-3.065317 1.490567,0 2.392201,0.86675 2.530317,2.112209 h -1.25158 c -0.121821,-0.574401 -0.557119,-0.985592 -1.277961,-0.985592 -0.901634,0 -1.437804,0.70988 -1.437804,1.9387 0,1.245459 0.540826,1.971184 1.437804,1.971184 z"
     id="path819"
     inkscape:connector-curvature="0"
     style="fill:#808080;stroke-width:0.78406203" /><ellipse
     cx="41.921673"
     cy="44.410297"
     id="circle828-7"
     style="fill:#808080;stroke-width:0.62703097"
     rx="3.7542434"
     ry="3.7701459" /><path
     inkscape:connector-curvature="0"
     style="fill:none;stroke:#808080;stroke-width:2.99345827;stroke-linecap:round;stroke-linejoin:round;stroke-miterlimit:10;stroke-dasharray:none;stroke-opacity:1"
     d="m 47.520264,42.201622 c -0.52455,-2.591976 -2.848931,-4.546169 -5.638443,-4.546169 -2.789513,0 -5.113892,1.954193 -5.638443,4.546169"
     id="path832-9" /></svg>