<?xml version="1.0" encoding="UTF-8" standalone="no"?>
<!-- Generator: Adobe Illustrator 15.0.0, SVG Export Plug-In . SVG Version: 6.00 Build 0)  -->

<svg
   xmlns:dc="http://purl.org/dc/elements/1.1/"
   xmlns:cc="http://creativecommons.org/ns#"
   xmlns:rdf="http://www.w3.org/1999/02/22-rdf-syntax-ns#"
   xmlns:svg="http://www.w3.org/2000/svg"
   xmlns="http://www.w3.org/2000/svg"
   xmlns:sodipodi="http://sodipodi.sourceforge.net/DTD/sodipodi-0.dtd"
   xmlns:inkscape="http://www.inkscape.org/namespaces/inkscape"
   version="1.1"
   id="Layer_1"
   x="0px"
   y="0px"
   width="416px"
   height="416px"
   viewBox="0 0 26 26"
   enable-background="new 0 0 26 26"
   xml:space="preserve"
   sodipodi:docname="icons8_blackpage_duration.svg"
   inkscape:version="0.92.3 (2405546, 2018-03-11)"><metadata
   id="metadata17"><rdf:RDF><cc:Work
       rdf:about=""><dc:format>image/svg+xml</dc:format><dc:type
         rdf:resource="http://purl.org/dc/dcmitype/StillImage" /><dc:title /></cc:Work></rdf:RDF></metadata><defs
   id="defs15" /><sodipodi:namedview
   pagecolor="#ffffff"
   bordercolor="#666666"
   borderopacity="1"
   objecttolerance="10"
   gridtolerance="10"
   guidetolerance="10"
   inkscape:pageopacity="0"
   inkscape:pageshadow="2"
   inkscape:window-width="960"
   inkscape:window-height="718"
   id="namedview13"
   showgrid="false"
   inkscape:zoom="1.9399038"
   inkscape:cx="247.75521"
   inkscape:cy="262.81787"
   inkscape:window-x="78"
   inkscape:window-y="78"
   inkscape:window-maximized="0"
   inkscape:current-layer="Layer_1" />
<path
   style="fill:#808080;stroke-width:0.78536326"
   d="m 12.435752,8.4557085 c -0.162928,0 -0.323818,0.00883 -0.482526,0.025839 -0.158708,0.017051 -0.315127,0.042367 -0.468819,0.075629 -0.153693,0.033262 -0.304713,0.07442 -0.452595,0.1230549 C 10.88393,8.7288664 10.739241,8.7848715 10.597964,8.8480337 10.456689,8.9111897 10.318788,8.9815226 10.184911,9.058377 10.051036,9.1352282 9.9210112,9.2187146 9.7953305,9.3084265 9.6696471,9.3981327 9.5482754,9.4940866 9.4315857,9.5958173 9.3148973,9.6975531 9.2029424,9.8049605 9.0960387,9.9178716 8.9891324,10.030785 8.8873765,10.149133 8.7910524,10.272383 c -0.096323,0.123252 -0.1872694,0.251535 -0.2722176,0.38429 -0.084955,0.132753 -0.1638366,0.269971 -0.2366153,0.411391 -0.072772,0.141419 -0.1393111,0.287039 -0.1991225,0.436284 -0.059816,0.149248 -0.1130583,0.30211 -0.1591093,0.458345 -0.046046,0.156235 -0.084916,0.315811 -0.1164174,0.478197 -0.031489,0.162384 -0.055534,0.327673 -0.071678,0.495369 -0.016144,0.167697 -0.024418,0.337697 -0.024418,0.509867 0,0.172237 0.00829,0.342435 0.024418,0.51018 0.016144,0.16775 0.040176,0.333109 0.071678,0.49553 0.031489,0.162421 0.070359,0.321938 0.1164174,0.478196 0.046046,0.156258 0.099301,0.309244 0.1591093,0.458502 0.059802,0.149258 0.1263466,0.294862 0.1991225,0.436284 0.072772,0.141424 0.1516671,0.278643 0.2366153,0.411392 0.084955,0.132749 0.1758957,0.260895 0.2722176,0.384132 0.096324,0.123239 0.1980825,0.241619 0.3049863,0.354512 0.1069063,0.112888 0.218856,0.220343 0.335547,0.322053 0.1166884,0.10171 0.2380653,0.197703 0.3637448,0.287392 0.1256833,0.08969 0.2557055,0.173057 0.3895805,0.249891 0.133877,0.07684 0.271778,0.147047 0.413053,0.210186 0.141277,0.06314 0.285966,0.119354 0.433848,0.167959 0.147882,0.04861 0.298902,0.08966 0.452595,0.122891 0.153692,0.03325 0.310111,0.0586 0.468819,0.07563 0.158708,0.01704 0.319598,0.02584 0.482526,0.02584 0.163086,0 0.324329,-0.0088 0.483156,-0.02584 0.158828,-0.01704 0.3152,-0.04239 0.468978,-0.07563 0.153777,-0.03325 0.304816,-0.07429 0.452751,-0.122891 0.147938,-0.04861 0.292858,-0.10482 0.434163,-0.167959 0.141307,-0.06313 0.279012,-0.133354 0.412896,-0.210186 0.133882,-0.07682 0.263914,-0.160202 0.389581,-0.249891 0.12567,-0.08969 0.247083,-0.185682 0.363746,-0.287392 0.116662,-0.10171 0.228682,-0.20916 0.335545,-0.322053 0.106868,-0.112887 0.208552,-0.231273 0.304828,-0.354512 0.09627,-0.12324 0.187165,-0.251383 0.272061,-0.384132 0.08489,-0.132749 0.163891,-0.269968 0.236615,-0.411392 0.07272,-0.141422 0.139045,-0.287026 0.198809,-0.436284 0.05976,-0.149258 0.112946,-0.302244 0.15895,-0.458502 0.04601,-0.156258 0.08494,-0.315775 0.116418,-0.478196 0.03146,-0.162421 0.05539,-0.32778 0.07152,-0.49553 0.01613,-0.167745 0.02442,-0.337943 0.02442,-0.51018 0,-0.17217 -0.0083,-0.34217 -0.02442,-0.509867 -0.01613,-0.167696 -0.04004,-0.332985 -0.07152,-0.495369 -0.03146,-0.162386 -0.07041,-0.321962 -0.116418,-0.478197 -0.04601,-0.156235 -0.09919,-0.309099 -0.15895,-0.458345 -0.05976,-0.149245 -0.12607,-0.294866 -0.198809,-0.436284 -0.07272,-0.14142 -0.151717,-0.278639 -0.236615,-0.411391 -0.08489,-0.132755 -0.175783,-0.261042 -0.272061,-0.38429 C 15.985123,10.14913 15.883436,10.030781 15.776568,9.9178716 15.669701,9.8049579 15.557685,9.6975454 15.441023,9.5958173 15.32436,9.4940943 15.202947,9.3981391 15.077277,9.3084265 14.951606,9.2187203 14.821578,9.135233 14.687696,9.0583777 14.553812,8.9815273 14.416107,8.911195 14.2748,8.8480344 14.133495,8.7848786 13.988575,8.7288606 13.840637,8.6802321 13.692702,8.6316101 13.541663,8.5904395 13.387886,8.5571772 c -0.153778,-0.033262 -0.31015,-0.058579 -0.468978,-0.075629 -0.158827,-0.017051 -0.32007,-0.025839 -0.483156,-0.02584 z M 8.7828615,10.510772 c 0.053221,-0.0099 0.1088937,-0.0095 0.1641497,6.29e-4 0.05526,0.0102 0.1101068,0.03028 0.1619455,0.06003 0.093601,0.0531 1.9925153,1.098458 2.9309133,1.615154 a 1.1584116,1.2079381 0 0 1 0.09373,-0.0219 1.1584116,1.2079381 0 0 1 0.114997,-0.0145 1.1584116,1.2079381 0 0 1 0.08192,-0.0031 1.1584116,1.2079381 0 0 1 0.115631,0.0062 1.1584116,1.2079381 0 0 1 0.11452,0.01797 1.1584116,1.2079381 0 0 1 0.112159,0.02993 1.1584116,1.2079381 0 0 1 0.1087,0.04143 1.1584116,1.2079381 0 0 1 0.104286,0.05247 1.1584116,1.2079381 0 0 1 0.09878,0.06318 1.1584116,1.2079381 0 0 1 0.09215,0.07295 1.1584116,1.2079381 0 0 1 0.08475,0.0824 1.1584116,1.2079381 0 0 1 0.07641,0.0906 1.1584116,1.2079381 0 0 1 0.06742,0.09832 1.1584116,1.2079381 0 0 1 0.05751,0.104627 1.1584116,1.2079381 0 0 1 0.04741,0.110293 1.1584116,1.2079381 0 0 1 0.03639,0.11454 1.1584116,1.2079381 0 0 1 0.02536,0.117858 1.1584116,1.2079381 0 0 1 0.01402,0.119896 1.1584116,1.2079381 0 0 1 0.0028,0.0854 1.1584116,1.2079381 0 0 1 -0.0057,0.120529 1.1584116,1.2079381 0 0 1 -0.01733,0.119432 1.1584116,1.2079381 0 0 1 -0.02868,0.11707 1.1584116,1.2079381 0 0 1 -0.0397,0.113288 1.1584116,1.2079381 0 0 1 -0.05041,0.108719 1.1584116,1.2079381 0 0 1 -0.06049,0.103039 1.1584116,1.2079381 0 0 1 -0.0701,0.09611 1.1584116,1.2079381 0 0 1 -0.07893,0.08839 1.1584116,1.2079381 0 0 1 -0.08695,0.07956 1.1584116,1.2079381 0 0 1 -0.09421,0.07027 1.1584116,1.2079381 0 0 1 -0.100506,0.06003 1.1584116,1.2079381 0 0 1 -0.105551,0.04932 1.1584116,1.2079381 0 0 1 -0.109965,0.03813 1.1584116,1.2079381 0 0 1 -0.112959,0.02647 1.1584116,1.2079381 0 0 1 -0.114997,0.0145 1.1584116,1.2079381 0 0 1 -0.08192,0.003 1.1584116,1.2079381 0 0 1 -0.115631,-0.0059 1.1584116,1.2079381 0 0 1 -0.11452,-0.01797 1.1584116,1.2079381 0 0 1 -0.112159,-0.02993 1.1584116,1.2079381 0 0 1 -0.108855,-0.04144 1.1584116,1.2079381 0 0 1 -0.104131,-0.05247 1.1584116,1.2079381 0 0 1 -0.09878,-0.06318 1.1584116,1.2079381 0 0 1 -0.09216,-0.07295 1.1584116,1.2079381 0 0 1 -0.08475,-0.0824 1.1584116,1.2079381 0 0 1 -0.0764,-0.0906 1.1584116,1.2079381 0 0 1 -0.06743,-0.09832 1.1584116,1.2079381 0 0 1 -0.05749,-0.104782 1.1584116,1.2079381 0 0 1 -0.04741,-0.110139 1.1584116,1.2079381 0 0 1 -0.03655,-0.11454 1.1584116,1.2079381 0 0 1 -0.0252,-0.117857 1.1584116,1.2079381 0 0 1 -0.0048,-0.04003 c -0.801474,-0.688337 -2.4150472,-2.072 -2.5526762,-2.204989 -0.046047,-0.0447 -0.084666,-0.09298 -0.1146843,-0.143537 -0.03002,-0.05056 -0.051381,-0.103285 -0.062856,-0.156931 -0.011473,-0.05364 -0.01305,-0.108176 -0.00347,-0.16213 0.00959,-0.05395 0.030326,-0.107338 0.063486,-0.158822 0.032725,-0.05149 0.073393,-0.09246 0.1190952,-0.122891 0.045702,-0.03045 0.096443,-0.05045 0.1496567,-0.06034 z"
   id="path837"
   inkscape:connector-curvature="0" /><path
   style="fill:#808080;stroke-width:0.00625;stroke-miterlimit:4;stroke-dasharray:none"
   d="m 5.122409,1.0391717 c -2.5995128,0 -4.70584507,2.3673751 -4.70584507,5.2891539 V 19.619037 c 0,2.92178 2.10633227,5.289154 4.70584507,5.289154 h 15.685944 c 2.599514,0 4.705688,-2.367374 4.705688,-5.289154 V 6.3283256 c 0,-2.9217788 -2.106174,-5.2891539 -4.705688,-5.2891539 z m 5.793849,4.0186985 h 3.21511 l 0.04158,1.1729081 H 10.91626 Z m 0.917162,1.1630832 h 1.31651 l 0.01331,0.9446564 h -1.31651 z m 4.281316,0.710448 0.992475,0.6483615 -0.647195,0.9538716 -0.955506,-0.628126 z M 12.523814,7.132516 c 0.215858,0 0.429206,0.011229 0.639429,0.033095 0.210224,0.021865 0.417301,0.054392 0.620841,0.09705 0.20354,0.042659 0.403448,0.095502 0.599258,0.1578752 0.19581,0.062381 0.387493,0.1342031 0.574524,0.2152278 0.187034,0.08102 0.369436,0.171153 0.546644,0.2697446 0.177207,0.098587 0.349271,0.2057086 0.515606,0.3207933 0.166336,0.1150821 0.771095,0.6514709 0.92551,0.7819735 0.154414,0.1304999 -0.141447,-0.1448426 0,0 0.141448,0.1448426 0.276169,0.29661 0.403602,0.4547201 0.127426,0.1581088 0.247595,0.322548 0.359964,0.4928491 0.112365,0.1703014 0.216916,0.3464124 0.313177,0.5278294 0.09626,0.181415 0.184136,0.368198 0.26324,0.559655 0.07911,0.191456 0.149408,0.387593 0.210307,0.588016 0.0609,0.200422 0.112417,0.405071 0.154067,0.613383 0.04165,0.208312 0.07333,0.420315 0.09467,0.635442 0.02134,0.215127 0.0323,0.433326 0.0323,0.654192 0,0.220949 -0.01097,0.439315 -0.0323,0.654507 -0.02135,0.21519 -0.05303,0.427241 -0.09467,0.6356 -0.04164,0.208357 -0.09317,0.413088 -0.154067,0.613541 -0.0609,0.200451 -0.131204,0.396543 -0.210307,0.588016 -0.07911,0.191473 -0.166979,0.378235 -0.26324,0.559656 -0.09626,0.181419 -0.200807,0.357534 -0.313177,0.527827 -0.112365,0.170295 -0.232532,0.334755 -0.359964,0.49285 -0.127438,0.158094 -0.262154,0.309898 -0.403602,0.45472 -0.141447,0.144822 -0.289672,0.282648 -0.444086,0.413125 -0.154415,0.130475 -0.315088,0.253635 -0.481424,0.368691 -0.166335,0.115056 -0.338399,0.222072 -0.515606,0.320636 -0.177208,0.09856 -0.35961,0.188588 -0.546644,0.269587 -0.187031,0.08099 -0.378714,0.153026 -0.574524,0.215385 -0.19581,0.06236 -0.395718,0.115069 -0.599258,0.157718 -0.20354,0.04265 -0.410617,0.0752 -0.620841,0.09706 -0.210223,0.02187 -0.423571,0.0331 -0.639429,0.0331 -0.215653,0 -0.428733,-0.01123 -0.638799,-0.0331 C 11.674949,19.88142 11.467918,19.84886 11.26449,19.80622 11.061062,19.76357 10.861284,19.71086 10.665547,19.648502 10.46981,19.586146 10.278173,19.514114 10.091179,19.433117 9.9041855,19.352123 9.7217349,19.262094 9.5445368,19.16353 9.3673388,19.064969 9.1952808,18.95795 9.0289294,18.842894 8.8625793,18.727838 8.7019566,18.604678 8.5475064,18.474203 8.3930561,18.343726 8.2447604,18.2059 8.1032618,18.061078 7.9617632,17.916256 7.8271546,17.764452 7.6996607,17.606358 7.5721706,17.448263 7.4518184,17.283803 7.339381,17.113508 7.2269383,16.943215 7.1223756,16.7671 7.0260463,16.585681 6.9297222,16.40426 6.84166,16.217498 6.762492,16.026025 6.6833318,15.834552 6.6129819,15.63846 6.5520282,15.438009 6.4910772,15.237556 6.4394952,15.032825 6.3978025,14.824468 c -0.041684,-0.208359 -0.073469,-0.42041 -0.09484,-0.6356 -0.021371,-0.215192 -0.032289,-0.433558 -0.032289,-0.654507 0,-0.220866 0.010969,-0.439065 0.032289,-0.654192 0.021371,-0.215127 0.053144,-0.42713 0.09484,-0.635442 0.041684,-0.208312 0.093266,-0.412961 0.1542257,-0.613383 0.060951,-0.200423 0.1312971,-0.39656 0.2104638,-0.588016 0.079173,-0.191457 0.1672263,-0.37824 0.2635543,-0.559655 C 7.1223704,10.302256 7.2269435,10.126145 7.339381,9.9558438 7.4518236,9.7855427 7.5721655,9.6211035 7.6996607,9.4629947 7.8271508,9.3048846 7.9617632,9.1531172 8.1032618,9.0082746 8.2447604,8.863432 8.3930561,8.7254935 8.5475064,8.5949936 8.7019566,8.464491 8.8625793,8.3413844 9.0289294,8.2263011 9.1952808,8.111219 9.3673388,8.0040994 9.5445368,7.9055078 9.7217349,7.8069213 9.9041855,7.7167879 10.091179,7.6357632 c 0.186994,-0.08102 0.378631,-0.1528465 0.574368,-0.2152278 0.195737,-0.062381 0.395515,-0.1152111 0.598943,-0.1578752 0.203428,-0.042659 0.410459,-0.075185 0.620525,-0.09705 0.210066,-0.021865 0.423146,-0.033095 0.638799,-0.033094 z m -4.0316024,3.228417 c 0.060474,-0.0111 0.1235669,-0.01071 0.1863634,6.29e-4 -0.062797,-0.01136 -0.1258898,-0.01162 -0.1863634,-6.29e-4 z m 4.0316024,1.825654 c 0.04388,3.7e-5 0.08773,0.0023 0.131383,0.0068 -0.04366,-0.0045 -0.08751,-0.0068 -0.131383,-0.0068 z"
   id="path10"
   inkscape:connector-curvature="0"
   sodipodi:nodetypes="ssssssssscccccccccccccccsssccccccccccccssccccccccccccccsssscccccsccccccsscccccccsccccccsscccccc" />

<path
   style="fill:#ffffff;stroke-width:0.68865216"
   inkscape:connector-curvature="0"
   d="M 60.671818,18.102407 H 47.485461 v -0.647363 c 0,-0.356697 0.328928,-0.647362 0.732576,-0.647362 h 11.721205 c 0.403648,0 0.732576,0.290665 0.732576,0.647362 z"
   id="path113" /><path
   style="fill:#ffffff;stroke-width:0.68865216"
   inkscape:connector-curvature="0"
   d="M 59.206668,17.455044 H 48.950611 V 16.16032 c 0,-0.356696 0.328926,-0.647363 0.732575,-0.647363 h 8.790906 c 0.403649,0 0.732576,0.290667 0.732576,0.647363 z"
   id="path115" /><path
   style="fill:#ffffff;stroke-width:0.68865216"
   inkscape:connector-curvature="0"
   d="m 47.485461,1.2709844 h 13.186357 v 0.6473613 c 0,0.3566974 -0.328928,0.6473632 -0.732576,0.6473632 H 48.218037 c -0.403648,0 -0.732576,-0.2906658 -0.732576,-0.6473632 z"
   id="path117" /><path
   style="fill:#ffffff;stroke-width:0.68865216"
   inkscape:connector-curvature="0"
   d="M 48.950611,1.9183457 H 59.206668 V 3.213072 c 0,0.3566956 -0.328927,0.6473633 -0.732576,0.6473633 h -8.790906 c -0.403649,0 -0.732575,-0.2906677 -0.732575,-0.6473633 z"
   id="path119" /><g
   transform="matrix(0.73257538,0,0,0.6473624,44.55516,1.2709844)"
   id="g123"
   style="fill:#ffffff"><path
     inkscape:connector-curvature="0"
     d="m 11.495,2.008 h 0.31 0.34 0.176 0.171 c 5.071,0 5.44,0.219 5.44,1.582 0,4.199 -2.038,6.307 -3.255,7.566 -0.653,0.677 -1.126,1.165 -1.126,1.845 0,0.686 0.476,1.178 1.134,1.86 1.215,1.259 3.248,3.366 3.248,7.552 0,1.305 -0.173,1.581 -5.128,1.581 h -0.32 -0.34 -0.176 -0.168 c -1.65,0 -3.357,0 -3.622,-0.229 -0.111,-0.159 -0.111,-0.995 -0.111,-1.353 0,-4.203 2.011,-6.312 3.212,-7.571 0.645,-0.676 1.11,-1.164 1.11,-1.841 0,-0.681 -0.469,-1.173 -1.117,-1.854 C 10.074,9.886 8.067,7.778 8.068,3.589 8.068,3.229 8.067,2.386 8.172,2.23 8.438,2.008 10.133,2.008 11.495,2.008 m 0,-1 C 7.25,1.008 7.066,1.067 7.067,3.589 7.066,9.986 11.39,12.006 11.39,13 c 0,0.981 -4.322,3.007 -4.322,9.412 0,2.551 0.192,2.581 4.733,2.581 0.112,0 0.226,0 0.344,0 0.227,0 0.446,0 0.66,0 4.389,0 6.128,-0.059 6.128,-2.581 0,-6.398 -4.382,-8.417 -4.382,-9.412 0,-0.981 4.381,-3.006 4.381,-9.41 0,-2.551 -1.822,-2.582 -6.44,-2.582 -0.114,0 -0.23,0 -0.347,0 -0.227,0 -0.444,0 -0.65,0 z"
     id="path121"
     style="fill:#ffffff" /></g><g
   transform="matrix(0.73257538,0,0,0.6473624,44.55516,1.2709844)"
   id="g127"
   style="fill:#ffffff"><path
     inkscape:connector-curvature="0"
     d="m 13,18.102 c 0,0 -3.738,1.298 -3.738,3.807 0,0.871 1.869,0.615 3.736,0.665 1.87,0.05 3.739,0.167 3.739,-0.697 C 16.737,19.734 13,18.102 13,18.102 Z"
     id="path125"
     style="fill:#ffffff" /></g></svg>