<?xml version="1.0" encoding="UTF-8" standalone="no"?>
<svg
   xmlns:dc="http://purl.org/dc/elements/1.1/"
   xmlns:cc="http://creativecommons.org/ns#"
   xmlns:rdf="http://www.w3.org/1999/02/22-rdf-syntax-ns#"
   xmlns:svg="http://www.w3.org/2000/svg"
   xmlns="http://www.w3.org/2000/svg"
   xmlns:sodipodi="http://sodipodi.sourceforge.net/DTD/sodipodi-0.dtd"
   xmlns:inkscape="http://www.inkscape.org/namespaces/inkscape"
   width="104pt"
   height="104pt"
   viewBox="0 0 104 104"
   version="1.1"
   id="svg5"
   sodipodi:docname="icons8_voice.svg"
   inkscape:version="1.0.1 (3bc2e813f5, 2020-09-07)">
  <metadata
     id="metadata11">
    <rdf:RDF>
      <cc:Work
         rdf:about="">
        <dc:format>image/svg+xml</dc:format>
        <dc:type
           rdf:resource="http://purl.org/dc/dcmitype/StillImage" />
        <dc:title></dc:title>
      </cc:Work>
    </rdf:RDF>
  </metadata>
  <defs
     id="defs9" />
  <sodipodi:namedview
     pagecolor="#ffffff"
     bordercolor="#666666"
     borderopacity="1"
     objecttolerance="10"
     gridtolerance="10"
     guidetolerance="10"
     inkscape:pageopacity="0"
     inkscape:pageshadow="2"
     inkscape:window-width="1920"
     inkscape:window-height="995"
     id="namedview7"
     showgrid="false"
     inkscape:zoom="6.0649038"
     inkscape:cx="69.333333"
     inkscape:cy="69.333333"
     inkscape:window-x="0"
     inkscape:window-y="0"
     inkscape:window-maximized="1"
     inkscape:current-layer="svg5" />
  <g
     id="surface1"
     style="fill:#808080">
    <path
       style="stroke:none;fill-rule:nonzero;fill:#808080;fill-opacity:1"
       d="M 0 0 L 0 102.425781 L 8.25 102.425781 C 8.25 102.425781 9.15625 98.945313 9.726563 97.992188 C 10.292969 97.039063 11.296875 94.53125 15.878906 94.914063 C 20.464844 95.300781 26.589844 96.46875 30.40625 95.898438 C 34.222656 95.332031 35.148438 92.867188 35.332031 91.34375 C 35.53125 89.820313 34.46875 85.066406 34.46875 85.066406 C 34.46875 85.066406 36.671875 83.742188 37.300781 83.464844 C 38.222656 83.050781 38.039063 81.621094 37.179688 81.125 C 29.667969 76.804688 29.175781 74.847656 29.175781 74.847656 C 29.175781 74.847656 36.117188 73.769531 38.285156 73.25 C 39.792969 72.878906 40.253906 72.046875 40.253906 70.910156 C 40.253906 69.769531 38.777344 65.125 38.777344 65.125 C 38.777344 65.125 46.042969 64.015625 46.042969 61.308594 C 46.042969 59.398438 44.5625 57.8125 42.839844 55.519531 C 41.117188 53.226563 36.578125 47.363281 35.699219 45.917969 C 34.824219 44.472656 35.117188 43.195313 36.070313 41.855469 C 37.023438 40.515625 38.363281 39.933594 37.425781 36.5625 C 36.960938 34.929688 33.609375 24.746094 33.609375 24.746094 C 38.023438 20.621094 36.285156 0.769531 0 0 Z M 76.941406 43.457031 C 75.265625 43.703125 73.925781 44.980469 73.617188 46.65625 L 67.460938 79.28125 L 61.308594 61.675781 C 60.785156 60.105469 59.351563 59.03125 57.707031 58.984375 C 56.042969 58.921875 54.535156 59.90625 53.921875 61.429688 L 48.503906 74.847656 L 47.273438 74.847656 C 45.855469 74.832031 44.535156 75.570313 43.808594 76.804688 C 43.101563 78.035156 43.101563 79.542969 43.808594 80.773438 C 44.535156 82.003906 45.855469 82.742188 47.273438 82.726563 L 51.210938 82.726563 C 52.828125 82.742188 54.304688 81.773438 54.90625 80.265625 L 57.246094 74.234375 L 64.875 95.898438 C 65.445313 97.625 67.125 98.746094 68.9375 98.59375 C 70.738281 98.453125 72.21875 97.085938 72.507813 95.285156 L 78.050781 65.863281 L 84.328125 91.835938 C 84.757813 93.4375 86.144531 94.605469 87.804688 94.746094 C 89.453125 94.882813 91.023438 93.960938 91.714844 92.453125 L 102.179688 68.445313 C 103.054688 66.445313 102.148438 64.09375 100.148438 63.214844 C 98.144531 62.324219 95.792969 63.246094 94.914063 65.246094 L 89.128906 78.417969 L 81.375 46.410156 C 80.878906 44.425781 78.957031 43.148438 76.941406 43.457031 Z "
       id="path2" />
  </g>
</svg>
