<?xml version="1.0" encoding="UTF-8"?>
<svg xmlns="http://www.w3.org/2000/svg" xmlns:xlink="http://www.w3.org/1999/xlink" width="500px" height="500px" viewBox="0 0 26 26" version="1.1"> <g id="surface1"> <path style=" stroke:none;fill-rule:nonzero;fill:#808080;fill-opacity:1;" d="M 2.953125 1.96875 C 1.324219 1.96875 0 3.292969 0 4.925781 L 0 21.667969 C 0 23.296875 1.324219 24.621094 2.953125 24.621094 L 22.652344 24.621094 C 24.28125 24.621094 25.605469 23.296875 25.605469 21.667969 L 25.605469 7.878906 C 25.605469 6.246094 24.28125 4.925781 22.652344 4.925781 L 10.832031 4.925781 C 10.832031 3.292969 9.511719 1.96875 7.878906 1.96875 Z M 2.953125 6.894531 L 22.652344 6.894531 C 23.195313 6.894531 23.636719 7.335938 23.636719 7.878906 L 23.636719 21.667969 C 23.636719 22.210938 23.195313 22.652344 22.652344 22.652344 L 2.953125 22.652344 C 2.414063 22.652344 1.96875 22.210938 1.96875 21.667969 L 1.96875 7.878906 C 1.96875 7.335938 2.414063 6.894531 2.953125 6.894531 Z M 10.28125 10.03125 C 8.410156 10.03125 7.109375 11.335938 7.109375 13.203125 C 7.109375 15.257813 8.742188 16.566406 10.308594 17.851563 C 11.046875 18.457031 11.8125 19.09375 12.402344 19.789063 C 12.503906 19.90625 12.621094 19.972656 12.773438 19.972656 L 12.804688 19.972656 C 12.953125 19.972656 13.105469 19.90625 13.203125 19.789063 C 13.792969 19.09375 14.554688 18.453125 15.296875 17.851563 C 16.867188 16.566406 18.496094 15.257813 18.496094 13.203125 C 18.5 11.335938 17.195313 10.03125 15.328125 10.03125 C 14.242188 10.03125 13.3125 10.792969 12.804688 11.324219 C 12.296875 10.792969 11.363281 10.03125 10.28125 10.03125 Z "/> </g> </svg>
