<?xml version="1.0" encoding="UTF-8" standalone="no"?>
<!-- Generator: Adobe Illustrator 15.0.0, SVG Export Plug-In . SVG Version: 6.00 Build 0)  -->

<svg
   xmlns:dc="http://purl.org/dc/elements/1.1/"
   xmlns:cc="http://creativecommons.org/ns#"
   xmlns:rdf="http://www.w3.org/1999/02/22-rdf-syntax-ns#"
   xmlns:svg="http://www.w3.org/2000/svg"
   xmlns="http://www.w3.org/2000/svg"
   xmlns:sodipodi="http://sodipodi.sourceforge.net/DTD/sodipodi-0.dtd"
   xmlns:inkscape="http://www.inkscape.org/namespaces/inkscape"
   version="1.1"
   id="Layer_1"
   x="0px"
   y="0px"
   width="416px"
   height="416px"
   viewBox="0 0 26 26"
   enable-background="new 0 0 26 26"
   xml:space="preserve"
   sodipodi:docname="icons8_page_percent.svg"
   inkscape:version="0.92.3 (2405546, 2018-03-11)"><metadata
   id="metadata875"><rdf:RDF><cc:Work
       rdf:about=""><dc:format>image/svg+xml</dc:format><dc:type
         rdf:resource="http://purl.org/dc/dcmitype/StillImage" /><dc:title></dc:title></cc:Work></rdf:RDF></metadata><defs
   id="defs873" /><sodipodi:namedview
   pagecolor="#ffffff"
   bordercolor="#666666"
   borderopacity="1"
   objecttolerance="10"
   gridtolerance="10"
   guidetolerance="10"
   inkscape:pageopacity="0"
   inkscape:pageshadow="2"
   inkscape:window-width="1920"
   inkscape:window-height="976"
   id="namedview871"
   showgrid="false"
   inkscape:zoom="1.9951923"
   inkscape:cx="117.78313"
   inkscape:cy="208"
   inkscape:window-x="-8"
   inkscape:window-y="-8"
   inkscape:window-maximized="1"
   inkscape:current-layer="Layer_1" />




<path
   fill="#000000"
   d="M20.266,4.207c-0.244-0.24-0.494-0.484-0.74-0.732c-0.248-0.246-0.492-0.496-0.732-0.74  C17.082,0.988,16.063,0,15,0H7C4.795,0,3,1.795,3,4v18c0,2.205,1.795,4,4,4h12c2.205,0,4-1.795,4-4V8  C23,6.938,22.012,5.918,20.266,4.207z M21,22c0,1.104-0.896,2-2,2H7c-1.104,0-2-0.896-2-2V4c0-1.104,0.896-2,2-2l7.289-0.004  C15.01,2.18,15,3.066,15,3.953V7c0,0.551,0.449,1,1,1h3c0.998,0,2,0.005,2,1V22z"
   id="path868"
   style="fill:#808080" />
<line
   stroke-miterlimit="10"
   x1="19.914524"
   y1="18.043373"
   x2="6.1168013"
   y2="18.043373"
   id="line7316"
   style="fill:none;stroke:#808080;stroke-width:1.03731406;stroke-linejoin:round;stroke-miterlimit:10;stroke-dasharray:none;stroke-opacity:1" /><g
   transform="matrix(0.2757629,0,0,0.2274096,9.57418,18.30211)"
   id="g4954"
   style="fill:#808080"><path
     inkscape:connector-curvature="0"
     d="M 4,7 C 4,6.5 4.1,5.9 4.3,5.5 4.5,5.1 4.7,4.6 5.1,4.2 5.5,3.8 5.9,3.5 6.4,3.3 6.9,3.1 7.5,3 8.2,3 8.9,3 9.5,3.1 10,3.3 c 0.5,0.2 1,0.5 1.3,0.9 0.4,0.3 0.7,0.8 0.8,1.3 0.1,0.5 0.3,1 0.3,1.5 v 1 c 0,0.5 -0.1,1.1 -0.3,1.5 -0.2,0.4 -0.4,0.9 -0.8,1.3 -0.4,0.4 -0.8,0.6 -1.3,0.9 C 9.5,11.9 8.9,12 8.2,12 7.5,12 6.9,11.9 6.4,11.7 5.9,11.5 5.4,11.2 5.1,10.8 4.7,10.5 4.5,10 4.3,9.6 4.1,9.2 4,8.6 4,8 Z m 2.6,1 c 0,0.2 0,0.5 0.1,0.7 0,0.2 0.1,0.4 0.3,0.6 0.1,0.2 0.3,0.3 0.5,0.4 0.2,0.1 0.4,0.1 0.7,0.1 0.3,0 0.5,0 0.7,-0.1 C 9.1,9.6 9.3,9.5 9.4,9.3 9.5,9.1 9.6,8.9 9.7,8.7 9.8,8.5 9.8,8.3 9.8,8 V 7 C 9.8,6.8 9.8,6.5 9.7,6.3 9.7,6.1 9.6,5.9 9.4,5.8 9.3,5.6 9.1,5.5 8.9,5.4 8.7,5.3 8.5,5.2 8.2,5.2 7.9,5.2 7.7,5.2 7.5,5.3 7.3,5.5 7.1,5.6 7,5.8 6.8,5.9 6.7,6.1 6.7,6.3 6.6,6.5 6.6,6.8 6.6,7 Z m 2.5,13.3 -1.9,-1 9.5,-15.2 1.9,1 z M 13.6,18 c 0,-0.5 0.1,-1.1 0.3,-1.5 0.2,-0.5 0.5,-0.9 0.8,-1.3 0.4,-0.4 0.8,-0.6 1.3,-0.9 0.5,-0.3 1.1,-0.3 1.8,-0.3 0.7,0 1.3,0.1 1.8,0.3 0.5,0.2 1,0.5 1.3,0.9 0.4,0.4 0.6,0.8 0.8,1.3 0.2,0.5 0.3,1 0.3,1.5 v 1 c 0,0.5 -0.1,1.1 -0.3,1.5 -0.2,0.5 -0.4,0.9 -0.8,1.3 -0.4,0.4 -0.8,0.6 -1.3,0.9 C 19.1,22.9 18.5,23 17.8,23 17.1,23 16.5,22.9 16,22.7 15.5,22.5 15,22.2 14.7,21.8 14.3,21.4 14.1,21 13.9,20.5 13.7,20 13.6,19.5 13.6,19 Z m 2.5,1 c 0,0.2 0,0.5 0.1,0.7 0.1,0.2 0.2,0.4 0.3,0.6 0.1,0.2 0.3,0.3 0.5,0.4 0.2,0.1 0.4,0.1 0.7,0.1 0.3,0 0.6,0 0.8,-0.1 0.2,-0.1 0.4,-0.2 0.5,-0.4 0.1,-0.2 0.2,-0.4 0.3,-0.6 0.1,-0.2 0.1,-0.4 0.1,-0.7 v -1 c 0,-0.2 0,-0.5 -0.1,-0.7 -0.1,-0.2 -0.2,-0.4 -0.3,-0.6 -0.1,-0.2 -0.3,-0.3 -0.5,-0.4 -0.2,-0.1 -0.4,-0.1 -0.7,-0.1 -0.3,0 -0.5,0 -0.7,0.1 -0.2,0.1 -0.4,0.2 -0.5,0.4 -0.1,0.2 -0.2,0.4 -0.3,0.6 -0.1,0.2 -0.1,0.4 -0.1,0.7 v 1 z"
     id="path4952"
     style="fill:#808080" /></g></svg>