<?xml version="1.0" encoding="UTF-8" standalone="no"?>
<svg
   xmlns:dc="http://purl.org/dc/elements/1.1/"
   xmlns:cc="http://creativecommons.org/ns#"
   xmlns:rdf="http://www.w3.org/1999/02/22-rdf-syntax-ns#"
   xmlns:svg="http://www.w3.org/2000/svg"
   xmlns="http://www.w3.org/2000/svg"
   xmlns:sodipodi="http://sodipodi.sourceforge.net/DTD/sodipodi-0.dtd"
   xmlns:inkscape="http://www.inkscape.org/namespaces/inkscape"
   version="1.1"
   id="Capa_1"
   x="0px"
   y="0px"
   viewBox="0 0 512 512"
   style="enable-background:new 0 0 512 512;"
   xml:space="preserve"
   sodipodi:docname="icons8_ligature.svg"
   inkscape:version="1.0.1 (3bc2e813f5, 2020-09-07)"><metadata
   id="metadata63"><rdf:RDF><cc:Work
       rdf:about=""><dc:format>image/svg+xml</dc:format><dc:type
         rdf:resource="http://purl.org/dc/dcmitype/StillImage" /><dc:title></dc:title></cc:Work></rdf:RDF></metadata><defs
   id="defs61" /><sodipodi:namedview
   pagecolor="#ffffff"
   bordercolor="#666666"
   borderopacity="1"
   objecttolerance="10"
   gridtolerance="10"
   guidetolerance="10"
   inkscape:pageopacity="0"
   inkscape:pageshadow="2"
   inkscape:window-width="796"
   inkscape:window-height="480"
   id="namedview59"
   showgrid="false"
   inkscape:zoom="0.4609375"
   inkscape:cx="256"
   inkscape:cy="256"
   inkscape:window-x="70"
   inkscape:window-y="27"
   inkscape:window-maximized="0"
   inkscape:current-layer="Capa_1"
   inkscape:document-rotation="0" />
<g
   id="g14"
   style="fill:#808080;stroke:#808080;stroke-width:10;stroke-miterlimit:4;stroke-dasharray:none;stroke-opacity:1"
   transform="matrix(0.970152,0,0,0.94993399,7.3021037,13.799949)">
	<path
   style="fill:#808080;stroke:#808080;stroke-width:10;stroke-miterlimit:4;stroke-dasharray:none;stroke-opacity:1"
   d="M 170.667,512 C 164.776,512 160,507.224 160,501.333 V 96 c 0,-53.019 42.981,-96 96,-96 53.019,0 96,42.981 96,96 v 32 c 0,5.891 -4.776,10.667 -10.667,10.667 -5.891,0 -10.667,-4.776 -10.667,-10.667 V 96 c 0,-41.237 -33.429,-74.667 -74.667,-74.667 -41.238,0 -74.666,33.43 -74.666,74.667 v 405.333 c 0,5.891 -4.775,10.667 -10.666,10.667 z"
   id="path2"
   inkscape:connector-curvature="0" />
	<path
   style="fill:#808080;stroke:#808080;stroke-width:10;stroke-miterlimit:4;stroke-dasharray:none;stroke-opacity:1"
   d="m 341.333,512 c -5.891,0 -10.667,-4.776 -10.667,-10.667 V 202.667 c 0,-5.891 4.776,-10.667 10.667,-10.667 5.891,0 10.667,4.776 10.667,10.667 v 298.667 c 0,5.89 -4.776,10.666 -10.667,10.666 z"
   id="path4"
   inkscape:connector-curvature="0" />
	<path
   style="fill:#808080;stroke:#808080;stroke-width:10;stroke-miterlimit:4;stroke-dasharray:none;stroke-opacity:1"
   d="M 384,213.333 H 128 c -5.891,0 -10.667,-4.776 -10.667,-10.667 0,-5.891 4.776,-10.666 10.667,-10.666 h 256 c 5.891,0 10.667,4.776 10.667,10.667 0,5.891 -4.776,10.666 -10.667,10.666 z"
   id="path6"
   inkscape:connector-curvature="0" />
	<path
   style="fill:#808080;stroke:#808080;stroke-width:10;stroke-miterlimit:4;stroke-dasharray:none;stroke-opacity:1"
   d="m 330.667,149.333 c -11.782,0 -21.333,-9.551 -21.333,-21.333 0,-11.782 9.551,-21.333 21.333,-21.333 11.782,0 21.333,9.551 21.333,21.333 0,11.782 -9.551,21.333 -21.333,21.333 z"
   id="path8"
   inkscape:connector-curvature="0" />
	<path
   style="fill:#808080;stroke:#808080;stroke-width:10;stroke-miterlimit:4;stroke-dasharray:none;stroke-opacity:1"
   d="M 213.333,512 H 128 c -5.891,0 -10.667,-4.776 -10.667,-10.667 0,-5.891 4.776,-10.667 10.667,-10.667 h 85.333 c 5.891,0 10.667,4.776 10.667,10.667 0,5.891 -4.776,10.667 -10.667,10.667 z"
   id="path10"
   inkscape:connector-curvature="0" />
	<path
   style="fill:#808080;stroke:#808080;stroke-width:10;stroke-miterlimit:4;stroke-dasharray:none;stroke-opacity:1"
   d="M 384,512 H 298.667 C 292.776,512 288,507.224 288,501.333 c 0,-5.891 4.776,-10.667 10.667,-10.667 H 384 c 5.891,0 10.667,4.776 10.667,10.667 0,5.891 -4.776,10.667 -10.667,10.667 z"
   id="path12"
   inkscape:connector-curvature="0" />
</g>
<path
   id="path16"
   style="fill:#808080;stroke:#808080;stroke-width:9.5999;stroke-miterlimit:4;stroke-dasharray:none;stroke-opacity:1"
   d="m 254.59375,9.8066406 c -18.80727,0.1636314 -37.54556,5.8273584 -53.22013,16.2396024 -16.4411,10.85135 -29.4944,26.828038 -36.57688,45.232152 -4.44747,11.476545 -6.52615,23.833839 -6.26939,36.131375 0.005,127.70607 -0.004,255.41232 0.009,383.11829 0.12197,5.85997 4.37279,11.29942 9.96966,12.97077 5.57876,1.82171 12.18444,-0.16228 15.74727,-4.85093 2.25184,-2.83182 3.20227,-6.53517 2.96932,-10.11509 8.9e-4,-128.11299 -0.009,-256.22609 0.009,-384.33902 0.0104,-0.89723 0.0311,-1.82071 0.0774,-2.6013 0.0387,-0.82508 0.0876,-1.53715 0.16701,-2.41851 1.16675,-13.451259 6.6403,-26.466947 15.37574,-36.75573 1.9285,-2.288044 4.01618,-4.440171 6.22789,-6.455359 0.3193,-0.284151 0.90997,-0.818395 1.34739,-1.187203 3.18322,-2.744898 6.6225,-5.190341 10.25026,-7.312797 0.41711,-0.237637 1.14052,-0.661564 1.68972,-0.952851 14.17657,-7.806066 31.12895,-10.266728 46.97627,-7.09641 14.54764,2.827337 28.08456,10.545903 37.92109,21.631804 8.8571,9.87191 14.66906,22.452268 16.2967,35.624629 0.79506,5.717107 0.47112,11.498297 0.53419,17.249467 0.0164,7.55995 -0.0456,15.12251 0.0516,22.68078 0.43494,5.82684 4.91524,11.0289 10.56548,12.44515 5.48365,1.49938 11.77424,-0.56634 15.19147,-5.13921 2.19685,-2.82147 3.12126,-6.47854 2.89033,-10.01797 -0.0297,-10.75737 0.0625,-21.51607 -0.0602,-32.27256 C 352.11845,83.436102 346.01653,65.495951 335.4471,50.693931 324.33336,35.011598 308.42086,22.809138 290.41925,16.081257 279.00422,11.790258 266.78476,9.6774941 254.59375,9.8066406 Z" />
<path
   id="path18"
   style="fill:#808080;stroke:#808080;stroke-width:9.5999;stroke-miterlimit:4;stroke-dasharray:none;stroke-opacity:1"
   d="m 337.82617,192.20117 c -6.1211,0.15807 -11.86494,4.69533 -13.29645,10.6736 -0.7509,3.05943 -0.31378,6.23187 -0.43206,9.34476 0.004,92.8054 -0.009,185.61107 0.0136,278.41631 0.17069,5.89329 4.51259,11.32268 10.16429,12.92552 5.55806,1.72045 12.07456,-0.29619 15.58724,-4.96187 2.22698,-2.82467 3.1642,-6.50737 2.93218,-10.06668 -0.002,-94.23836 0.006,-188.47691 -0.011,-282.71517 -0.12301,-6.00496 -4.59313,-11.555 -10.38228,-13.08129 -1.48331,-0.42067 -3.03523,-0.59386 -4.57544,-0.53518 z" />
<path
   id="path20"
   style="fill:#808080;stroke:#808080;stroke-width:9.5999;stroke-miterlimit:4;stroke-dasharray:none;stroke-opacity:1"
   d="m 378.88086,192.1875 c -82.68745,0.002 -165.37528,-0.0112 -248.0625,0.0156 -6.00848,0.17717 -11.64581,4.55836 -13.18248,10.39119 -1.53849,5.33114 0.50832,11.45964 4.93558,14.80433 2.91596,2.31867 6.7347,3.28483 10.41877,3.05449 82.45646,-6e-5 164.91322,0.008 247.36948,-0.0132 6.00974,-0.11289 11.68791,-4.44036 13.28862,-10.25295 1.55211,-5.21696 -0.30832,-11.24633 -4.54934,-14.66679 -2.81779,-2.3634 -6.56008,-3.51794 -10.21813,-3.33269 z" />
<path
   id="path22"
   style="fill:#808080;stroke:#808080;stroke-width:9.5999;stroke-miterlimit:4;stroke-dasharray:none;stroke-opacity:1"
   d="m 326.92969,111.15234 c -8.38317,0.31698 -16.44278,5.21753 -20.49352,12.57919 -3.94511,6.9604 -4.03807,15.92486 -0.20418,22.95309 3.74597,7.042 11.10669,11.98393 19.03754,12.81538 7.87644,0.93214 16.12721,-2.1365 21.38829,-8.09351 4.98203,-5.51594 7.18847,-13.4181 5.67718,-20.70792 -1.51207,-7.71448 -7.0586,-14.46084 -14.29058,-17.51913 -3.48733,-1.51122 -7.32006,-2.1936 -11.11473,-2.0271 z" />
<path
   id="path24"
   style="fill:#808080;stroke:#808080;stroke-width:9.5999;stroke-miterlimit:4;stroke-dasharray:none;stroke-opacity:1"
   d="m 213.30469,475.90039 c -27.5384,0.007 -55.07758,-0.023 -82.61548,0.0231 -6.0003,0.22964 -11.59097,4.65367 -13.08421,10.48989 -1.49012,5.33975 0.59557,11.44454 5.04218,14.75726 2.90531,2.27976 6.69075,3.22303 10.34305,2.99542 27.35676,-0.007 54.71429,0.0228 82.07056,-0.0231 6.00819,-0.22918 11.61036,-4.66833 13.08856,-10.51778 1.4933,-5.366 -0.6394,-11.49499 -5.12676,-14.79119 -2.74963,-2.10376 -6.27374,-3.10491 -9.7179,-2.93362 z" />
<path
   id="path26"
   style="fill:#808080;stroke:#808080;stroke-width:9.5999;stroke-miterlimit:4;stroke-dasharray:none;stroke-opacity:1"
   d="m 379.41797,475.88086 c -14.52057,0.0451 -29.04256,0.005 -43.56367,0.0178 -13.26398,0.0121 -26.52952,-0.0214 -39.79253,0.0357 -5.98235,0.31484 -11.50358,4.79465 -12.92505,10.63598 -1.4236,5.33898 0.71365,11.39744 5.16908,14.66566 2.89432,2.23596 6.64143,3.15425 10.25865,2.93007 27.3561,-0.007 54.713,0.0229 82.0686,-0.0231 6.0005,-0.22871 11.5909,-4.65421 13.08421,-10.48989 1.49017,-5.33964 -0.59598,-11.44447 -5.04217,-14.75726 -2.61523,-2.03484 -5.95748,-3.05587 -9.25712,-3.01493 z" />
<g
   id="g28"
   style="fill:#808080;stroke:#808080;stroke-width:10;stroke-miterlimit:4;stroke-dasharray:none;stroke-opacity:1"
   transform="matrix(0.970152,0,0,0.94993399,7.3021037,13.799949)">
</g>
<g
   id="g30"
   style="fill:#808080;stroke:#808080;stroke-width:10;stroke-miterlimit:4;stroke-dasharray:none;stroke-opacity:1"
   transform="matrix(0.970152,0,0,0.94993399,7.3021037,13.799949)">
</g>
<g
   id="g32"
   style="fill:#808080;stroke:#808080;stroke-width:10;stroke-miterlimit:4;stroke-dasharray:none;stroke-opacity:1"
   transform="matrix(0.970152,0,0,0.94993399,7.3021037,13.799949)">
</g>
<g
   id="g34"
   style="fill:#808080;stroke:#808080;stroke-width:10;stroke-miterlimit:4;stroke-dasharray:none;stroke-opacity:1"
   transform="matrix(0.970152,0,0,0.94993399,7.3021037,13.799949)">
</g>
<g
   id="g36"
   style="fill:#808080;stroke:#808080;stroke-width:10;stroke-miterlimit:4;stroke-dasharray:none;stroke-opacity:1"
   transform="matrix(0.970152,0,0,0.94993399,7.3021037,13.799949)">
</g>
<g
   id="g38"
   style="fill:#808080;stroke:#808080;stroke-width:10;stroke-miterlimit:4;stroke-dasharray:none;stroke-opacity:1"
   transform="matrix(0.970152,0,0,0.94993399,7.3021037,13.799949)">
</g>
<g
   id="g40"
   style="fill:#808080;stroke:#808080;stroke-width:10;stroke-miterlimit:4;stroke-dasharray:none;stroke-opacity:1"
   transform="matrix(0.970152,0,0,0.94993399,7.3021037,13.799949)">
</g>
<g
   id="g42"
   style="fill:#808080;stroke:#808080;stroke-width:10;stroke-miterlimit:4;stroke-dasharray:none;stroke-opacity:1"
   transform="matrix(0.970152,0,0,0.94993399,7.3021037,13.799949)">
</g>
<g
   id="g44"
   style="fill:#808080;stroke:#808080;stroke-width:10;stroke-miterlimit:4;stroke-dasharray:none;stroke-opacity:1"
   transform="matrix(0.970152,0,0,0.94993399,7.3021037,13.799949)">
</g>
<g
   id="g46"
   style="fill:#808080;stroke:#808080;stroke-width:10;stroke-miterlimit:4;stroke-dasharray:none;stroke-opacity:1"
   transform="matrix(0.970152,0,0,0.94993399,7.3021037,13.799949)">
</g>
<g
   id="g48"
   style="fill:#808080;stroke:#808080;stroke-width:10;stroke-miterlimit:4;stroke-dasharray:none;stroke-opacity:1"
   transform="matrix(0.970152,0,0,0.94993399,7.3021037,13.799949)">
</g>
<g
   id="g50"
   style="fill:#808080;stroke:#808080;stroke-width:10;stroke-miterlimit:4;stroke-dasharray:none;stroke-opacity:1"
   transform="matrix(0.970152,0,0,0.94993399,7.3021037,13.799949)">
</g>
<g
   id="g52"
   style="fill:#808080;stroke:#808080;stroke-width:10;stroke-miterlimit:4;stroke-dasharray:none;stroke-opacity:1"
   transform="matrix(0.970152,0,0,0.94993399,7.3021037,13.799949)">
</g>
<g
   id="g54"
   style="fill:#808080;stroke:#808080;stroke-width:10;stroke-miterlimit:4;stroke-dasharray:none;stroke-opacity:1"
   transform="matrix(0.970152,0,0,0.94993399,7.3021037,13.799949)">
</g>
<g
   id="g56"
   style="fill:#808080;stroke:#808080;stroke-width:10;stroke-miterlimit:4;stroke-dasharray:none;stroke-opacity:1"
   transform="matrix(0.970152,0,0,0.94993399,7.3021037,13.799949)">
</g>
</svg>
