<?xml version="1.0" encoding="UTF-8"?>
<svg xmlns="http://www.w3.org/2000/svg" xmlns:xlink="http://www.w3.org/1999/xlink" width="104pt" height="104pt" viewBox="0 0 104 104" version="1.1">
<g id="surface1">
<path style=" stroke:none;fill-rule:nonzero;fill:#5B5B5B;fill-opacity:1;" d="M 35.902344 57.414063 C 35.578125 54.304688 34.300781 39.101563 32.746094 27.207031 C 30.285156 8.371094 31.914063 8.078125 36.808594 7.03125 C 42.054688 5.910156 41.300781 9.695313 44.117188 26.328125 C 46.132813 38.132813 47.640625 45.242188 49.242188 44.8125 C 50.148438 44.5625 47.765625 27.960938 47.765625 15.632813 C 47.765625 0.125 50.425781 0.398438 54.042969 0.355469 C 58.367188 0.277344 58.460938 4.371094 58.597656 16.375 C 58.707031 26.929688 59.152344 44.132813 61.089844 44.054688 C 62.597656 44.011719 62.167969 39.980469 66.507813 39.980469 C 70.832031 39.980469 71.402344 45.488281 73.1875 45.488281 C 74.972656 45.488281 75.433594 43.703125 78.109375 43.703125 C 80.789063 43.703125 86.667969 49.289063 86.667969 68.984375 C 86.667969 93.761719 78.632813 94.023438 78.632813 102.410156 L 43.886719 102.410156 C 43.671875 100.394531 39.117188 96.300781 34.117188 90.3125 C 26.28125 80.894531 24.265625 77.355469 24.207031 73.433594 C 24.050781 64.675781 36.484375 63.046875 35.902344 57.414063 Z "/>
</g>
</svg>
