<?xml version="1.0" encoding="UTF-8" standalone="no"?>
<!-- Generator: Adobe Illustrator 15.0.0, SVG Export Plug-In . SVG Version: 6.00 Build 0)  -->

<svg
   xmlns:dc="http://purl.org/dc/elements/1.1/"
   xmlns:cc="http://creativecommons.org/ns#"
   xmlns:rdf="http://www.w3.org/1999/02/22-rdf-syntax-ns#"
   xmlns:svg="http://www.w3.org/2000/svg"
   xmlns="http://www.w3.org/2000/svg"
   xmlns:sodipodi="http://sodipodi.sourceforge.net/DTD/sodipodi-0.dtd"
   xmlns:inkscape="http://www.inkscape.org/namespaces/inkscape"
   version="1.1"
   id="Layer_1"
   x="0px"
   y="0px"
   width="416px"
   height="416px"
   viewBox="0 0 26 26"
   enable-background="new 0 0 26 26"
   xml:space="preserve"
   sodipodi:docname="icons8-document-left-margin.svg"
   inkscape:version="0.92.2 (5c3e80d, 2017-08-06)"><metadata
     id="metadata843"><rdf:RDF><cc:Work
         rdf:about=""><dc:format>image/svg+xml</dc:format><dc:type
           rdf:resource="http://purl.org/dc/dcmitype/StillImage" /><dc:title /></cc:Work></rdf:RDF></metadata><defs
     id="defs841" /><sodipodi:namedview
     pagecolor="#ffffff"
     bordercolor="#666666"
     borderopacity="1"
     objecttolerance="10"
     gridtolerance="10"
     guidetolerance="10"
     inkscape:pageopacity="0"
     inkscape:pageshadow="2"
     inkscape:window-width="974"
     inkscape:window-height="734"
     id="namedview839"
     showgrid="false"
     inkscape:zoom="0.75979984"
     inkscape:cx="-30.65718"
     inkscape:cy="132.85348"
     inkscape:window-x="238"
     inkscape:window-y="24"
     inkscape:window-maximized="0"
     inkscape:current-layer="Layer_1" /><path
     stroke-miterlimit="10"
     d="m 12.750429,11.319543 c 2.262056,0 5.589267,0 7.984667,0"
     id="path830"
     inkscape:connector-curvature="0"
     style="fill:#808080;stroke:#808080;stroke-width:1.61799181;stroke-linecap:round;stroke-linejoin:round;stroke-miterlimit:10;stroke-opacity:1" /><path
     stroke-miterlimit="10"
     d="m 12.750429,17.876855 c 2.262056,0 5.589267,0 7.984667,0"
     id="path832"
     inkscape:connector-curvature="0"
     style="fill:#808080;stroke:#808080;stroke-width:1.61799181;stroke-linecap:round;stroke-linejoin:round;stroke-miterlimit:10;stroke-opacity:1" /><path
     stroke-miterlimit="10"
     d="m 12.750429,14.598199 c 0.798466,0 5.589267,0 6.387734,0"
     id="path834"
     inkscape:connector-curvature="0"
     style="fill:#808080;stroke:#808080;stroke-width:1.61799181;stroke-linecap:round;stroke-linejoin:round;stroke-miterlimit:10;stroke-opacity:1" /><path
     d="M 22.544421,5.7515648 C 22.349595,5.5548455 22.149979,5.3548474 21.953556,5.1515707 21.755536,4.9499334 21.56071,4.7450174 21.369078,4.5450194 20.002103,3.1130663 19.188466,2.3032382 18.339696,2.3032382 h -6.387734 c -1.760619,0 -3.1938665,1.471297 -3.1938665,3.2786562 V 20.335847 c 0,1.807359 1.4332475,3.278656 3.1938665,3.278656 h 9.581601 c 1.760619,0 3.193866,-1.471297 3.193866,-3.278656 V 8.8605505 c 0,-0.8704832 -0.788885,-1.7065405 -2.183008,-3.1089857 z m 0.586075,14.5842822 c 0,0.904909 -0.715426,1.639328 -1.596933,1.639328 h -9.581601 c -0.881507,0 -1.596933,-0.734419 -1.596933,-1.639328 V 5.5818944 c 0,-0.9049091 0.715426,-1.6393281 1.596933,-1.6393281 l 5.820024,-0.00328 c 0.575695,0.1508182 0.56771,0.8770406 0.56771,1.6040826 v 2.4975163 c 0,0.4516349 0.358511,0.819664 0.798467,0.819664 h 2.3954 c 0.796869,0 1.596933,0.0041 1.596933,0.8196641 z"
     id="path836"
     inkscape:connector-curvature="0"
     style="fill:#808080;stroke-width:0.8089959" /><rect
     x="3.2811854"
     style="fill:#808080;stroke-width:0.21012473"
     y="12.695848"
     width="3.4319291"
     height="1.7496654"
     id="rect856" /><polygon
     transform="matrix(0.20187819,0,0,0.21870816,3.281184,10.727474)"
     style="fill:#808080"
     points="12,21.938 25.906,13 12,4.061 "
     id="polygon858" /><rect
     x="-6.2683563"
     style="fill:#808080;stroke-width:0.23114143"
     y="12.671511"
     width="4.1527848"
     height="1.7496654"
     id="rect856-6"
     transform="scale(-1,1)" /><polygon
     transform="matrix(-0.21058551,0,0,0.21870816,5.864006,10.703136)"
     style="fill:#808080"
     points="25.906,13 12,4.061 12,21.938 "
     id="polygon858-7" /></svg>