<?xml version="1.0" encoding="UTF-8"?>
<svg xmlns="http://www.w3.org/2000/svg" xmlns:xlink="http://www.w3.org/1999/xlink" width="500px" height="500px" viewBox="0 0 26 26" version="1.1"> <g id="surface1"> <path style=" stroke:none;fill-rule:nonzero;fill:#808080;fill-opacity:1;" d="M 21.359375 0.0625 C 22.160156 0.890625 22.652344 2.015625 22.652344 3.261719 C 22.652344 5.808594 20.585938 7.878906 18.035156 7.878906 C 17.515625 7.878906 17.023438 7.757813 16.558594 7.601563 C 17.4375 8.945313 18.953125 9.847656 20.683594 9.847656 C 23.402344 9.847656 25.605469 7.644531 25.605469 4.925781 C 25.605469 2.433594 23.757813 0.390625 21.359375 0.0625 Z M 8.371094 8.863281 C 7.214844 8.863281 0 21.359375 0 23.082031 L 0 25.605469 L 25.605469 25.605469 L 25.605469 23.820313 C 25.605469 21.386719 19.070313 12.804688 18.21875 12.804688 C 17.734375 12.804688 16.070313 14.492188 14.433594 16.402344 C 12.171875 13.027344 8.984375 8.863281 8.371094 8.863281 Z "/> </g> </svg>
