<?xml version="1.0" encoding="UTF-8" standalone="no"?>
<!-- Generator: Adobe Illustrator 15.0.0, SVG Export Plug-In . SVG Version: 6.00 Build 0)  -->

<svg
   xmlns:dc="http://purl.org/dc/elements/1.1/"
   xmlns:cc="http://creativecommons.org/ns#"
   xmlns:rdf="http://www.w3.org/1999/02/22-rdf-syntax-ns#"
   xmlns:svg="http://www.w3.org/2000/svg"
   xmlns="http://www.w3.org/2000/svg"
   xmlns:sodipodi="http://sodipodi.sourceforge.net/DTD/sodipodi-0.dtd"
   xmlns:inkscape="http://www.inkscape.org/namespaces/inkscape"
   version="1.1"
   id="Layer_1"
   x="0px"
   y="0px"
   width="416px"
   height="416px"
   viewBox="0 0 26 26"
   enable-background="new 0 0 26 26"
   xml:space="preserve"
   sodipodi:docname="icons8-document-first-line-margin.svg"
   inkscape:version="0.92.2 (5c3e80d, 2017-08-06)"><metadata
     id="metadata843"><rdf:RDF><cc:Work
         rdf:about=""><dc:format>image/svg+xml</dc:format><dc:type
           rdf:resource="http://purl.org/dc/dcmitype/StillImage" /><dc:title /></cc:Work></rdf:RDF></metadata><defs
     id="defs841" /><sodipodi:namedview
     pagecolor="#ffffff"
     bordercolor="#666666"
     borderopacity="1"
     objecttolerance="10"
     gridtolerance="10"
     guidetolerance="10"
     inkscape:pageopacity="0"
     inkscape:pageshadow="2"
     inkscape:window-width="1786"
     inkscape:window-height="1061"
     id="namedview839"
     showgrid="false"
     inkscape:zoom="0.37989992"
     inkscape:cx="313.9786"
     inkscape:cy="176.52595"
     inkscape:window-x="-4"
     inkscape:window-y="-4"
     inkscape:window-maximized="1"
     inkscape:current-layer="Layer_1" /><path
     stroke-miterlimit="10"
     d="m 12.633954,11.058165 c 1.634091,0 4.037639,0 5.768056,0"
     id="path830"
     style="fill:#808080;stroke:#808080;stroke-width:1.51895428;stroke-linecap:round;stroke-linejoin:round;stroke-miterlimit:10;stroke-opacity:1"
     inkscape:connector-curvature="0" /><path
     stroke-miterlimit="10"
     d="m 8.164517,17.766122 c 2.833,0 7,0 10,0"
     id="path832"
     inkscape:connector-curvature="0"
     style="fill:#808080;stroke:#808080;stroke-width:2;stroke-linecap:round;stroke-linejoin:round;stroke-miterlimit:10;stroke-opacity:1" /><path
     stroke-miterlimit="10"
     d="m 12.826441,13.958865 c 0.685758,0 4.800309,0 5.486067,0"
     id="path834"
     inkscape:connector-curvature="0"
     style="fill:#808080;stroke:#808080;stroke-width:1.65621066;stroke-linecap:round;stroke-linejoin:round;stroke-miterlimit:10;stroke-opacity:1" /><path
     fill="#000000"
     d="M20.266,4.207c-0.244-0.24-0.494-0.484-0.74-0.732c-0.248-0.246-0.492-0.496-0.732-0.74  C17.082,0.988,16.063,0,15,0H7C4.795,0,3,1.795,3,4v18c0,2.205,1.795,4,4,4h12c2.205,0,4-1.795,4-4V8  C23,6.938,22.012,5.918,20.266,4.207z M21,22c0,1.104-0.896,2-2,2H7c-1.104,0-2-0.896-2-2V4c0-1.104,0.896-2,2-2l7.289-0.004  C15.01,2.18,15,3.066,15,3.953V7c0,0.551,0.449,1,1,1h3c0.998,0,2,0.005,2,1V22z"
     id="path836"
     style="fill:#808080" /><path
     inkscape:connector-curvature="0"
     style="fill:#808080;stroke:#808080;stroke-width:1.98841321;stroke-linecap:round;stroke-linejoin:round;stroke-miterlimit:10;stroke-opacity:1"
     stroke-miterlimit="10"
     d="m 8.2881063,20.899973 c 2.8002697,0 6.9191277,0 9.8844667,0"
     id="path832-9" /><polygon
     transform="matrix(0.20187819,0,0,0.28101497,6.2273859,9.1956857)"
     style="fill:#808080"
     points="12,21.938 25.906,13 12,4.061 "
     id="polygon858" /><rect
     x="-9.2145586"
     style="fill:#808080;stroke-width:0.22229908"
     y="11.69355"
     width="2.9894738"
     height="2.2481198"
     id="rect856-6"
     transform="scale(-1,1)" /></svg>