<?xml version="1.0" encoding="UTF-8" standalone="no"?>
<svg
   xmlns:dc="http://purl.org/dc/elements/1.1/"
   xmlns:cc="http://creativecommons.org/ns#"
   xmlns:rdf="http://www.w3.org/1999/02/22-rdf-syntax-ns#"
   xmlns:svg="http://www.w3.org/2000/svg"
   xmlns="http://www.w3.org/2000/svg"
   xmlns:sodipodi="http://sodipodi.sourceforge.net/DTD/sodipodi-0.dtd"
   xmlns:inkscape="http://www.inkscape.org/namespaces/inkscape"
   width="104pt"
   height="104pt"
   viewBox="0 0 104 104"
   version="1.1"
   id="svg5"
   sodipodi:docname="icons8_disable_trackball.svg"
   inkscape:version="1.0.1 (3bc2e813f5, 2020-09-07)">
  <metadata
     id="metadata11">
    <rdf:RDF>
      <cc:Work
         rdf:about="">
        <dc:format>image/svg+xml</dc:format>
        <dc:type
           rdf:resource="http://purl.org/dc/dcmitype/StillImage" />
        <dc:title></dc:title>
      </cc:Work>
    </rdf:RDF>
  </metadata>
  <defs
     id="defs9" />
  <sodipodi:namedview
     pagecolor="#ffffff"
     bordercolor="#666666"
     borderopacity="1"
     objecttolerance="10"
     gridtolerance="10"
     guidetolerance="10"
     inkscape:pageopacity="0"
     inkscape:pageshadow="2"
     inkscape:window-width="1920"
     inkscape:window-height="1017"
     id="namedview7"
     showgrid="false"
     inkscape:zoom="4.3344286"
     inkscape:cx="79.796281"
     inkscape:cy="77.944626"
     inkscape:window-x="-8"
     inkscape:window-y="-8"
     inkscape:window-maximized="1"
     inkscape:current-layer="svg5" />
  <g
     id="surface1"
     style="fill:#808080">
    <path
       style="stroke:none;fill-rule:nonzero;fill:#808080;fill-opacity:1"
       d="M 51.210938 0 C 29.5 0 11.816406 17.679688 11.816406 39.394531 L 11.816406 63.03125 C 11.816406 84.742188 29.5 102.425781 51.210938 102.425781 C 72.925781 102.425781 90.605469 84.742188 90.605469 63.03125 L 90.605469 39.394531 C 90.605469 17.679688 72.925781 0 51.210938 0 Z M 51.210938 7.878906 C 68.664063 7.878906 82.726563 21.945313 82.726563 39.394531 L 82.726563 51.210938 L 19.695313 51.210938 L 19.695313 39.394531 C 19.695313 21.945313 33.761719 7.878906 51.210938 7.878906 Z M 50.597656 11.203125 C 50.074219 11.308594 49.566406 11.511719 49.121094 11.816406 C 48.566406 12.15625 48.105469 12.617188 47.765625 13.171875 C 47.671875 13.296875 47.597656 13.417969 47.519531 13.542969 L 40.5 20.929688 C 39.347656 21.898438 38.855469 23.453125 39.226563 24.898438 C 39.59375 26.359375 40.777344 27.484375 42.242188 27.792969 C 43.71875 28.097656 45.242188 27.53125 46.164063 26.34375 L 47.273438 25.238281 L 47.273438 34.222656 L 46.042969 33.117188 C 45.164063 32.253906 43.933594 31.839844 42.71875 32.007813 C 41.226563 32.238281 39.992188 33.300781 39.546875 34.730469 C 39.101563 36.179688 39.515625 37.746094 40.625 38.777344 L 47.148438 44.6875 L 47.148438 44.8125 C 47.609375 46.132813 48.734375 47.117188 50.105469 47.394531 C 50.148438 47.441406 50.179688 47.472656 50.226563 47.519531 C 50.304688 47.519531 50.398438 47.519531 50.472656 47.519531 C 50.519531 47.519531 50.550781 47.519531 50.597656 47.519531 C 51.660156 47.859375 52.8125 47.71875 53.78125 47.164063 C 54.734375 46.59375 55.414063 45.65625 55.644531 44.5625 L 61.800781 38.777344 C 63.121094 37.640625 63.539063 35.777344 62.832031 34.191406 C 62.121094 32.59375 60.445313 31.652344 58.722656 31.882813 C 58.597656 31.914063 58.476563 31.960938 58.351563 32.007813 C 57.597656 32.175781 56.921875 32.5625 56.382813 33.117188 L 55.152344 34.222656 L 55.152344 25.238281 L 56.257813 26.34375 C 57.183594 27.53125 58.707031 28.097656 60.183594 27.792969 C 61.644531 27.484375 62.832031 26.359375 63.199219 24.898438 C 63.570313 23.453125 63.078125 21.898438 61.921875 20.929688 L 54.90625 13.417969 L 54.90625 13.296875 C 54.289063 12.125 53.136719 11.339844 51.828125 11.203125 C 51.78125 11.203125 51.75 11.203125 51.703125 11.203125 C 51.628906 11.203125 51.535156 11.203125 51.457031 11.203125 C 51.335938 11.203125 51.210938 11.203125 51.089844 11.203125 C 51.042969 11.203125 51.011719 11.203125 50.964844 11.203125 C 50.84375 11.203125 50.71875 11.203125 50.597656 11.203125 Z M 19.695313 59.089844 L 82.726563 59.089844 L 82.726563 63.03125 C 82.726563 80.480469 68.664063 94.546875 51.210938 94.546875 C 33.761719 94.546875 19.695313 80.480469 19.695313 63.03125 Z "
       id="path2" />
  </g>
  <path
     inkscape:connector-curvature="0"
     d="m 51.885699,62.329127 c -7.768398,0 -14.065684,6.092071 -14.065684,13.607333 0,7.515266 6.297286,13.608406 14.065684,13.608406 7.768407,0 14.066787,-6.09314 14.066787,-13.608406 0,-7.515262 -6.29838,-13.607333 -14.066787,-13.607333 z m 6.345592,18.274107 -1.523819,1.473102 c -0.278859,0.270829 -0.735563,0.270829 -1.014413,0 l -3.80736,-3.683286 -3.806254,3.682229 c -0.279948,0.270818 -0.735558,0.270818 -1.01551,-0.0021 L 45.540119,80.60336 c -0.277757,-0.271903 -0.277757,-0.710534 0,-0.983488 l 3.807347,-3.682292 -3.806262,-3.68223 c -0.278842,-0.271889 -0.278842,-0.713714 0,-0.98242 l 1.523833,-1.474158 c 0.279948,-0.272963 0.736652,-0.272963 1.01551,0 l 3.805152,3.68328 3.80736,-3.68328 c 0.27994,-0.272963 0.736656,-0.272963 1.014413,0 l 1.523819,1.472034 c 0.278846,0.27083 0.278846,0.712655 4.75e-4,0.984544 l -3.807387,3.68223 3.807365,3.682217 c 0.276649,0.27296 0.276649,0.711593 -4.75e-4,0.983494 z"
     id="path1455"
     style="fill:#808080;stroke-width:1.07982" />
</svg>
