<?xml version="1.0" encoding="UTF-8" standalone="no"?>
<!-- Generator: Adobe Illustrator 19.1.1, SVG Export Plug-In . SVG Version: 6.00 Build 0)  -->

<svg
   xmlns:dc="http://purl.org/dc/elements/1.1/"
   xmlns:cc="http://creativecommons.org/ns#"
   xmlns:rdf="http://www.w3.org/1999/02/22-rdf-syntax-ns#"
   xmlns:svg="http://www.w3.org/2000/svg"
   xmlns="http://www.w3.org/2000/svg"
   xmlns:sodipodi="http://sodipodi.sourceforge.net/DTD/sodipodi-0.dtd"
   xmlns:inkscape="http://www.inkscape.org/namespaces/inkscape"
   version="1.1"
   x="0px"
   y="0px"
   viewBox="0 0 26 26"
   style="enable-background:new 0 0 26 26;"
   xml:space="preserve"
   width="416px"
   height="416px"
   id="svg823"
   sodipodi:docname="icons8_zip.svg"
   inkscape:version="0.92.2 (5c3e80d, 2017-08-06)"><metadata
     id="metadata829"><rdf:RDF><cc:Work
         rdf:about=""><dc:format>image/svg+xml</dc:format><dc:type
           rdf:resource="http://purl.org/dc/dcmitype/StillImage" /></cc:Work></rdf:RDF></metadata><defs
     id="defs827" /><sodipodi:namedview
     pagecolor="#ffffff"
     bordercolor="#666666"
     borderopacity="1"
     objecttolerance="10"
     gridtolerance="10"
     guidetolerance="10"
     inkscape:pageopacity="0"
     inkscape:pageshadow="2"
     inkscape:window-width="737"
     inkscape:window-height="480"
     id="namedview825"
     showgrid="false"
     inkscape:zoom="0.40114712"
     inkscape:cx="204.3493"
     inkscape:cy="193.39722"
     inkscape:window-x="0"
     inkscape:window-y="0"
     inkscape:window-maximized="0"
     inkscape:current-layer="svg823" /><g
     id="g819"
     style="fill:#808080"><path
       d="M16,11H1c-0.551,0-1,0.449-1,1v6c0,0.551,0.449,1,1,1h15c0.551,0,1-0.449,1-1v-6C17,11.449,16.551,11,16,11z M7.051,17.841   C7.051,17.929,6.979,18,6.892,18H2.938c-0.088,0-0.159-0.071-0.159-0.159v-0.694c0-0.029,0.009-0.059,0.023-0.083L5.1,13.36H3.157   c-0.088,0-0.159-0.071-0.159-0.159v-1.066c0-0.088,0.071-0.159,0.159-0.159h3.696c0.088,0,0.159,0.071,0.159,0.159v0.745   c0,0.028-0.009,0.058-0.024,0.083l-2.245,3.651h2.148c0.088,0,0.159,0.071,0.159,0.159V17.841z M9.448,17.841   C9.448,17.929,9.377,18,9.289,18H8.141c-0.088,0-0.159-0.071-0.159-0.159v-5.706c0-0.088,0.071-0.159,0.159-0.159h1.148   c0.088,0,0.159,0.071,0.159,0.159V17.841z M14.46,15.336c-0.411,0.425-1.024,0.648-1.77,0.648c-0.088,0-0.166-0.003-0.233-0.008   v1.864c0,0.088-0.071,0.159-0.159,0.159h-1.142c-0.088,0-0.159-0.071-0.159-0.159v-5.63c0-0.077,0.055-0.142,0.129-0.156   c0.423-0.08,0.956-0.121,1.587-0.121c0.746,0,1.29,0.163,1.664,0.498c0.378,0.327,0.598,0.853,0.598,1.439   C14.975,14.479,14.791,15,14.46,15.336z"
       id="path815"
       style="fill:#808080" /><path
       d="M12.766,13.233c-0.143,0-0.243,0.006-0.309,0.015v1.42c0.06,0.006,0.132,0.008,0.226,0.008   c0.529,0,0.832-0.278,0.832-0.763C13.515,13.352,13.107,13.233,12.766,13.233z"
       id="path817"
       style="fill:#808080" /></g><path
     d="M21.266,4.207c-0.244-0.24-0.494-0.484-0.74-0.732c-0.248-0.246-0.492-0.496-0.732-0.74C18.082,0.988,17.063,0,16,0H8  C5.795,0,4,1.795,4,4v7.2h2V4c0-1.103,0.897-2,2-2l7.289-0.004C16.01,2.18,16,3.066,16,3.953V7c0,0.551,0.449,1,1,1h3  c0.998,0,2,0.005,2,1v13c0,1.104-0.896,2-2,2H8c-1.103,0-2-0.896-2-2v-3.2H4V22c0,2.205,1.795,4,4,4h12c2.205,0,4-1.795,4-4V8  C24,6.938,23.012,5.918,21.266,4.207z"
     id="path821"
     style="fill:#808080" /></svg>