<?xml version="1.0" encoding="UTF-8" standalone="no"?>
<!-- Generator: Adobe Illustrator 17.1.0, SVG Export Plug-In . SVG Version: 6.00 Build 0)  -->

<svg
   xmlns:dc="http://purl.org/dc/elements/1.1/"
   xmlns:cc="http://creativecommons.org/ns#"
   xmlns:rdf="http://www.w3.org/1999/02/22-rdf-syntax-ns#"
   xmlns:svg="http://www.w3.org/2000/svg"
   xmlns="http://www.w3.org/2000/svg"
   xmlns:sodipodi="http://sodipodi.sourceforge.net/DTD/sodipodi-0.dtd"
   xmlns:inkscape="http://www.inkscape.org/namespaces/inkscape"
   version="1.1"
   id="Layer_1"
   x="0px"
   y="0px"
   viewBox="0 0 26 26"
   enable-background="new 0 0 26 26"
   xml:space="preserve"
   width="416px"
   height="416px"
   sodipodi:docname="icons8_forward_key_long.svg"
   inkscape:version="0.92.2 (5c3e80d, 2017-08-06)"><metadata
     id="metadata839"><rdf:RDF><cc:Work
         rdf:about=""><dc:format>image/svg+xml</dc:format><dc:type
           rdf:resource="http://purl.org/dc/dcmitype/StillImage" /><dc:title></dc:title></cc:Work></rdf:RDF></metadata><defs
     id="defs837" /><sodipodi:namedview
     pagecolor="#ffffff"
     bordercolor="#666666"
     borderopacity="1"
     objecttolerance="10"
     gridtolerance="10"
     guidetolerance="10"
     inkscape:pageopacity="0"
     inkscape:pageshadow="2"
     inkscape:window-width="1778"
     inkscape:window-height="1061"
     id="namedview835"
     showgrid="false"
     inkscape:zoom="0.37989992"
     inkscape:cx="-1224.7872"
     inkscape:cy="163.28704"
     inkscape:window-x="-4"
     inkscape:window-y="-4"
     inkscape:window-maximized="1"
     inkscape:current-layer="Layer_1" /><path
     style="fill:#808080;stroke-width:0.78235584"
     id="circle854"
     ry="2.3419321"
     rx="2.3522143"
     cy="22.380625"
     cx="14.916842" /><ellipse
     cx="21.057289"
     cy="23.034363"
     id="circle828-7"
     style="fill:#808080;stroke-width:0.39189434"
     rx="2.3464022"
     ry="2.3563411" /><path
     inkscape:connector-curvature="0"
     style="fill:none;stroke:#808080;stroke-width:1.87091148;stroke-linecap:round;stroke-linejoin:round;stroke-miterlimit:10;stroke-dasharray:none;stroke-opacity:1"
     d="m 24.556408,21.653943 c -0.327844,-1.619985 -1.780582,-2.841356 -3.524027,-2.841356 -1.743445,0 -3.196182,1.221371 -3.524026,2.841356"
     id="path832-9" /><path
     inkscape:connector-curvature="0"
     d="M 10.899591,10.206068 3.7801619,3.1844211 c -0.317653,-0.313267 -0.314336,-0.816415 0.0066,-1.126477 l 1.273934,-1.23062998 c 0.324289,-0.313267 0.850947,-0.312465 1.175236,0.0016 L 15.29695,9.6396231 c 0.16173,0.156232 0.243008,0.3613369 0.243008,0.5664419 0,0.205105 -0.08128,0.410211 -0.243008,0.566444 l -9.0610181,8.810709 c -0.323459,0.314868 -0.850118,0.315669 -1.175236,0.0016 l -1.273933,-1.230627 c -0.320972,-0.310061 -0.324289,-0.81321 -0.0066,-1.126476 z"
     id="path825-6"
     style="fill:#808080;stroke-width:0.81516594" /></svg>