<?xml version="1.0" encoding="UTF-8" standalone="no"?>
<svg
   xmlns:dc="http://purl.org/dc/elements/1.1/"
   xmlns:cc="http://creativecommons.org/ns#"
   xmlns:rdf="http://www.w3.org/1999/02/22-rdf-syntax-ns#"
   xmlns:svg="http://www.w3.org/2000/svg"
   xmlns="http://www.w3.org/2000/svg"
   xmlns:sodipodi="http://sodipodi.sourceforge.net/DTD/sodipodi-0.dtd"
   xmlns:inkscape="http://www.inkscape.org/namespaces/inkscape"
   version="1.1"
   id="Layer_1"
   x="0px"
   y="0px"
   width="416px"
   height="416px"
   viewBox="0 0 26 26"
   enable-background="new 0 0 26 26"
   xml:space="preserve"
   sodipodi:docname="icons8_toolbar_background.svg"
   inkscape:version="1.0.1 (3bc2e813f5, 2020-09-07)"><metadata
   id="metadata2458"><rdf:RDF><cc:Work
       rdf:about=""><dc:format>image/svg+xml</dc:format><dc:type
         rdf:resource="http://purl.org/dc/dcmitype/StillImage" /><dc:title></dc:title></cc:Work></rdf:RDF></metadata><defs
   id="defs2456" /><sodipodi:namedview
   pagecolor="#ffffff"
   bordercolor="#666666"
   borderopacity="1"
   objecttolerance="10"
   gridtolerance="10"
   guidetolerance="10"
   inkscape:pageopacity="0"
   inkscape:pageshadow="2"
   inkscape:window-width="863"
   inkscape:window-height="480"
   id="namedview2454"
   showgrid="false"
   inkscape:zoom="0.56730769"
   inkscape:cx="208"
   inkscape:cy="208"
   inkscape:window-x="70"
   inkscape:window-y="27"
   inkscape:window-maximized="0"
   inkscape:current-layer="Layer_1"
   inkscape:document-rotation="0" />

<path
   fill="#000000"
   d="M23,0H3C1.344,0,0,1.344,0,3v20c0,1.656,1.344,3,3,3h20c1.656,0,3-1.344,3-3V3C26,1.344,24.656,0,23,0z   M12,2h11v3H12V2z M8.5,1.85c0.911,0,1.65,0.738,1.65,1.65S9.411,5.15,8.5,5.15S6.85,4.412,6.85,3.5S7.589,1.85,8.5,1.85z M3.5,1.85  c0.911,0,1.65,0.738,1.65,1.65S4.411,5.15,3.5,5.15S1.85,4.412,1.85,3.5S2.589,1.85,3.5,1.85z M24,23c0,0.551-0.449,1-1,1H3  c-0.551,0-1-0.449-1-1V7h22V23z"
   id="path2451"
   style="fill:#808080" />
<g
   id="surface1"
   style="fill:#808080"
   transform="matrix(0.46907828,0,0,0.35167319,1.3500479,6.705433)"><path
     style="fill:#808080"
     d="m 4,3 v 8 H 6 V 3 Z m 5,0 v 2 h 2 V 3 Z m 5,0 v 8 h 2 V 3 Z m 5,0 v 2 h 2 V 3 Z m 5,0 v 8 h 2 V 3 Z m 5,0 v 2 h 2 V 3 Z m 5,0 v 8 h 2 V 3 Z m 5,0 v 2 h 2 V 3 Z m 5,0 v 8 h 2 V 3 Z M 7,6 v 2 h 6 V 6 Z m 10,0 v 2 h 6 V 6 Z m 10,0 v 2 h 6 V 6 Z m 10,0 v 2 h 6 V 6 Z M 9,9 v 8 h 2 V 9 Z m 10,0 v 8 h 2 V 9 Z m 10,0 v 8 h 2 V 9 Z m 10,0 v 8 h 2 V 9 Z M 4,12 v 2 h 4 v -2 z m 8,0 v 2 h 6 v -2 z m 10,0 v 2 h 6 v -2 z m 10,0 v 2 h 6 v -2 z m 10,0 v 2 h 4 V 12 Z M 4,15 v 8 h 2 v -8 z m 10,0 v 8 h 2 v -8 z m 10,0 v 8 h 2 v -8 z m 10,0 v 8 h 2 v -8 z m 10,0 v 8 h 2 V 15 Z M 7,18 v 2 h 6 v -2 z m 10,0 v 2 h 6 v -2 z m 10,0 v 2 h 6 v -2 z m 10,0 v 2 h 6 V 18 Z M 9,21 v 8 h 2 v -8 z m 10,0 v 8 h 2 v -8 z m 10,0 v 8 h 2 v -8 z m 10,0 v 8 h 2 V 21 Z M 4,24 v 2 h 4 v -2 z m 8,0 v 2 h 6 v -2 z m 10,0 v 2 h 6 v -2 z m 10,0 v 2 h 6 v -2 z m 10,0 v 2 h 4 V 24 Z M 4,27 v 8 h 2 v -8 z m 10,0 v 8 h 2 v -8 z m 10,0 v 8 h 2 v -8 z m 10,0 v 8 h 2 v -8 z m 10,0 v 8 h 2 V 27 Z M 7,30 v 2 h 6 v -2 z m 10,0 v 2 h 6 v -2 z m 10,0 v 2 h 6 v -2 z m 10,0 v 2 h 6 V 30 Z M 9,33 v 8 h 2 v -8 z m 10,0 v 8 h 2 v -8 z m 10,0 v 8 h 2 v -8 z m 10,0 v 8 h 2 V 33 Z M 4,36 v 2 h 4 v -2 z m 8,0 v 2 h 6 v -2 z m 10,0 v 2 h 6 v -2 z m 10,0 v 2 h 6 v -2 z m 10,0 v 2 h 4 V 36 Z M 4,39 v 8 h 2 v -8 z m 10,0 v 8 h 2 v -8 z m 10,0 v 8 h 2 v -8 z m 10,0 v 8 h 2 v -8 z m 10,0 v 8 h 2 V 39 Z M 7,42 v 2 h 6 v -2 z m 10,0 v 2 h 6 v -2 z m 10,0 v 2 h 6 v -2 z m 10,0 v 2 h 6 V 42 Z M 9,45 v 2 h 2 v -2 z m 10,0 v 2 h 2 v -2 z m 10,0 v 2 h 2 v -2 z m 10,0 v 2 h 2 v -2 z"
     id="path826" /></g></svg>
