<?xml version="1.0" encoding="UTF-8" standalone="no"?>
<!-- Generator: Adobe Illustrator 15.0.0, SVG Export Plug-In . SVG Version: 6.00 Build 0)  -->

<svg
   xmlns:dc="http://purl.org/dc/elements/1.1/"
   xmlns:cc="http://creativecommons.org/ns#"
   xmlns:rdf="http://www.w3.org/1999/02/22-rdf-syntax-ns#"
   xmlns:svg="http://www.w3.org/2000/svg"
   xmlns="http://www.w3.org/2000/svg"
   xmlns:sodipodi="http://sodipodi.sourceforge.net/DTD/sodipodi-0.dtd"
   xmlns:inkscape="http://www.inkscape.org/namespaces/inkscape"
   version="1.1"
   id="Layer_1"
   x="0px"
   y="0px"
   width="416px"
   height="416px"
   viewBox="0 0 26 26"
   enable-background="new 0 0 26 26"
   xml:space="preserve"
   sodipodi:docname="icons8-ok.svg"
   inkscape:version="0.92.2 (5c3e80d, 2017-08-06)"><metadata
     id="metadata5422"><rdf:RDF><cc:Work
         rdf:about=""><dc:format>image/svg+xml</dc:format><dc:type
           rdf:resource="http://purl.org/dc/dcmitype/StillImage" /></cc:Work></rdf:RDF></metadata><defs
     id="defs5420" /><sodipodi:namedview
     pagecolor="#ffffff"
     bordercolor="#666666"
     borderopacity="1"
     objecttolerance="10"
     gridtolerance="10"
     guidetolerance="10"
     inkscape:pageopacity="0"
     inkscape:pageshadow="2"
     inkscape:window-width="737"
     inkscape:window-height="403"
     id="namedview5418"
     showgrid="false"
     inkscape:zoom="0.40114712"
     inkscape:cx="109.19955"
     inkscape:cy="162.73137"
     inkscape:window-x="204"
     inkscape:window-y="272"
     inkscape:window-maximized="0"
     inkscape:current-layer="Layer_1" /><path
     fill="#000000"
     d="M13,0.188C5.924,0.188,0.188,5.924,0.188,13S5.924,25.813,13,25.813S25.813,20.076,25.813,13  S20.076,0.188,13,0.188z M19.736,9.035l-6.871,10.132c-0.206,0.303-0.528,0.504-0.848,0.504s-0.675-0.175-0.9-0.399l-4.032-4.033  c-0.274-0.275-0.274-0.722,0-0.996l0.996-0.998c0.274-0.272,0.722-0.272,0.995,0l2.623,2.623l5.705-8.414  c0.217-0.32,0.657-0.403,0.979-0.187l1.166,0.791C19.869,8.275,19.953,8.715,19.736,9.035z"
     id="path5415"
     style="fill:#808080" /></svg>