<?xml version="1.0" encoding="UTF-8" standalone="no"?>
<!-- Generator: Adobe Illustrator 15.0.0, SVG Export Plug-In . SVG Version: 6.00 Build 0)  -->

<svg
   xmlns:dc="http://purl.org/dc/elements/1.1/"
   xmlns:cc="http://creativecommons.org/ns#"
   xmlns:rdf="http://www.w3.org/1999/02/22-rdf-syntax-ns#"
   xmlns:svg="http://www.w3.org/2000/svg"
   xmlns="http://www.w3.org/2000/svg"
   xmlns:sodipodi="http://sodipodi.sourceforge.net/DTD/sodipodi-0.dtd"
   xmlns:inkscape="http://www.inkscape.org/namespaces/inkscape"
   version="1.1"
   id="Layer_1"
   x="0px"
   y="0px"
   width="416px"
   height="416px"
   viewBox="0 0 26 26"
   enable-background="new 0 0 26 26"
   xml:space="preserve"
   sodipodi:docname="icons8-document-bottom-margin.svg"
   inkscape:version="0.92.2 (5c3e80d, 2017-08-06)"><metadata
     id="metadata843"><rdf:RDF><cc:Work
         rdf:about=""><dc:format>image/svg+xml</dc:format><dc:type
           rdf:resource="http://purl.org/dc/dcmitype/StillImage" /><dc:title /></cc:Work></rdf:RDF></metadata><defs
     id="defs841" /><sodipodi:namedview
     pagecolor="#ffffff"
     bordercolor="#666666"
     borderopacity="1"
     objecttolerance="10"
     gridtolerance="10"
     guidetolerance="10"
     inkscape:pageopacity="0"
     inkscape:pageshadow="2"
     inkscape:window-width="974"
     inkscape:window-height="734"
     id="namedview839"
     showgrid="false"
     inkscape:zoom="0.75979984"
     inkscape:cx="139.05434"
     inkscape:cy="132.85348"
     inkscape:window-x="238"
     inkscape:window-y="24"
     inkscape:window-maximized="0"
     inkscape:current-layer="Layer_1"
     showguides="false" /><path
     stroke-miterlimit="10"
     d="m 8.8715018,8.4089808 c 2.1549832,0 5.3247022,0 7.6067172,0"
     id="path830"
     inkscape:connector-curvature="0"
     style="fill:#808080;stroke:#808080;stroke-width:1.52779651;stroke-linecap:round;stroke-linejoin:round;stroke-miterlimit:10;stroke-opacity:1" /><path
     stroke-miterlimit="10"
     d="m 8.8715018,14.54609 c 2.1549832,0 5.3247022,0 7.6067172,0"
     id="path832"
     inkscape:connector-curvature="0"
     style="fill:#808080;stroke:#808080;stroke-width:1.52779651;stroke-linecap:round;stroke-linejoin:round;stroke-miterlimit:10;stroke-opacity:1" /><path
     stroke-miterlimit="10"
     d="m 8.8715018,11.477535 c 0.7606713,0 5.3247022,0 6.0853742,0"
     id="path834"
     inkscape:connector-curvature="0"
     style="fill:#808080;stroke:#808080;stroke-width:1.52779651;stroke-linecap:round;stroke-linejoin:round;stroke-miterlimit:10;stroke-opacity:1" /><path
     d="M 18.166385,3.6562508 C 17.984605,3.4899039 17.798356,3.3207843 17.615086,3.1488925 17.430326,2.9783869 17.248546,2.8051087 17.069747,2.6359893 15.794309,1.4251217 15.035155,0.74032656 14.243223,0.74032656 H 8.2832326 c -1.642722,0 -2.9799944,1.24413704 -2.9799944,2.77245004 V 15.988802 c 0,1.528312 1.3372724,2.772449 2.9799944,2.772449 h 8.9399844 c 1.642722,0 2.979994,-1.244137 2.979994,-2.772449 V 6.2852265 c 0,-0.7360849 -0.736059,-1.4430599 -2.036826,-2.6289757 z m 0.546829,12.3325512 c 0,0.765196 -0.667519,1.386224 -1.489997,1.386224 H 8.2832326 c -0.8224783,0 -1.489997,-0.621028 -1.489997,-1.386224 V 3.5127766 c 0,-0.7651963 0.6675187,-1.3862251 1.489997,-1.3862251 l 5.4302954,-0.00277 c 0.537144,0.1275327 0.529695,0.7416304 0.529695,1.3564212 v 2.1119137 c 0,0.3819044 0.334503,0.6931122 0.744998,0.6931122 h 2.234996 c 0.743508,0 1.489997,0.00346 1.489997,0.6931122 z"
     id="path836"
     inkscape:connector-curvature="0"
     style="fill:#808080;stroke-width:0.71858734" /><polygon
     transform="matrix(0,0.1701592,-0.22281956,0,15.531587,21.051756)"
     style="fill:#808080"
     points="25.906,13 12,4.061 12,21.938 "
     id="polygon858" /><rect
     x="-24.346336"
     style="fill:#808080;stroke-width:0.21419284"
     y="-13.480681"
     width="3.5003016"
     height="1.7825567"
     id="rect856-6"
     transform="matrix(0,-1,-1,0,0,0)" /><polygon
     transform="matrix(0,-0.17749842,-0.22281956,0,15.46593,23.880216)"
     style="fill:#808080"
     points="25.906,13 12,4.061 12,21.938 "
     id="polygon858-7" /></svg>