<?xml version="1.0" encoding="UTF-8"?>
<svg xmlns="http://www.w3.org/2000/svg" xmlns:xlink="http://www.w3.org/1999/xlink" width="104pt" height="104pt" viewBox="0 0 104 104" version="1.1">
<g id="surface1">
<path style=" stroke:none;fill-rule:nonzero;fill:#5B5B5B;fill-opacity:1;" d="M 51.210938 24.25 C 31.4375 24.25 12.957031 34.085938 1.847656 50.472656 C -0.230469 53.550781 0.632813 57.628906 3.691406 59.707031 C 4.847656 60.492188 6.09375 60.9375 7.386719 60.9375 C 9.539063 60.9375 11.757813 59.890625 13.050781 57.984375 C 13.464844 57.367188 13.972656 56.84375 14.402344 56.257813 C 19.679688 71.539063 34.132813 82.480469 51.210938 82.480469 C 68.292969 82.480469 82.742188 71.539063 88.019531 56.257813 C 88.453125 56.84375 88.960938 57.367188 89.375 57.984375 C 91.4375 61.046875 95.652344 61.785156 98.730469 59.707031 C 101.792969 57.628906 102.65625 53.535156 100.578125 50.472656 C 89.484375 34.070313 70.984375 24.25 51.210938 24.25 Z M 66.847656 40.378906 C 73.417969 42.734375 79.28125 46.640625 84.203125 51.703125 C 80.527344 66.507813 67.140625 77.558594 51.210938 77.558594 C 35.285156 77.558594 21.898438 66.507813 18.21875 51.703125 C 23.113281 46.671875 29.054688 42.871094 35.578125 40.5 C 33.46875 43.546875 32.253906 47.226563 32.253906 51.210938 C 32.253906 61.675781 40.75 70.171875 51.210938 70.171875 C 61.675781 70.171875 70.171875 61.675781 70.171875 51.210938 C 70.171875 47.195313 68.984375 43.441406 66.847656 40.378906 Z "/>
</g>
</svg>
