<?xml version="1.0" encoding="UTF-8" standalone="no"?>
<svg
   xmlns:dc="http://purl.org/dc/elements/1.1/"
   xmlns:cc="http://creativecommons.org/ns#"
   xmlns:rdf="http://www.w3.org/1999/02/22-rdf-syntax-ns#"
   xmlns:svg="http://www.w3.org/2000/svg"
   xmlns="http://www.w3.org/2000/svg"
   xmlns:sodipodi="http://sodipodi.sourceforge.net/DTD/sodipodi-0.dtd"
   xmlns:inkscape="http://www.inkscape.org/namespaces/inkscape"
   width="104pt"
   height="104pt"
   viewBox="0 0 104 104"
   version="1.1"
   id="svg5"
   sodipodi:docname="icons8_group.svg"
   inkscape:version="1.0.1 (3bc2e813f5, 2020-09-07)">
  <metadata
     id="metadata11">
    <rdf:RDF>
      <cc:Work
         rdf:about="">
        <dc:format>image/svg+xml</dc:format>
        <dc:type
           rdf:resource="http://purl.org/dc/dcmitype/StillImage" />
        <dc:title></dc:title>
      </cc:Work>
    </rdf:RDF>
  </metadata>
  <defs
     id="defs9" />
  <sodipodi:namedview
     pagecolor="#ffffff"
     bordercolor="#666666"
     borderopacity="1"
     objecttolerance="10"
     gridtolerance="10"
     guidetolerance="10"
     inkscape:pageopacity="0"
     inkscape:pageshadow="2"
     inkscape:window-width="1920"
     inkscape:window-height="995"
     id="namedview7"
     showgrid="false"
     inkscape:zoom="4.2885346"
     inkscape:cx="70.474262"
     inkscape:cy="68.72579"
     inkscape:window-x="0"
     inkscape:window-y="0"
     inkscape:window-maximized="1"
     inkscape:current-layer="svg5" />
  <g
     id="surface1">
    <path
       style=" stroke:none;fill-rule:nonzero;fill:#5B5B5B;fill-opacity:1;"
       d="M 92.574219 0 C 87.128906 0 82.726563 4.402344 82.726563 9.847656 C 82.726563 15.296875 87.128906 19.695313 92.574219 19.695313 C 98.023438 19.695313 102.425781 15.296875 102.425781 9.847656 C 102.425781 4.402344 98.023438 0 92.574219 0 Z M 70.417969 0.125 C 68.910156 0.308594 67.632813 1.355469 67.167969 2.800781 C 66.691406 4.261719 67.09375 5.847656 68.199219 6.894531 L 69.1875 7.878906 L 63.03125 7.878906 C 52.414063 7.878906 40.070313 10.417969 29.914063 16.621094 C 22.804688 20.957031 16.882813 27.421875 13.910156 35.699219 C 6.078125 36.625 0 43.132813 0 51.210938 C 0 59.289063 6.078125 65.800781 13.910156 66.722656 C 16.882813 75.019531 22.804688 81.464844 29.914063 85.804688 C 40.070313 92.007813 52.414063 94.546875 63.03125 94.546875 L 69.433594 94.546875 L 68.324219 95.652344 C 67.167969 96.621094 66.675781 98.175781 67.046875 99.625 C 67.414063 101.085938 68.601563 102.207031 70.0625 102.515625 C 71.539063 102.824219 73.0625 102.253906 73.988281 101.070313 L 81.621094 93.191406 C 83.097656 91.621094 83.050781 89.160156 81.496094 87.652344 L 73.617188 80.019531 C 73.046875 79.449219 72.324219 79.050781 71.523438 78.910156 C 72.507813 78.742188 73.386719 78.21875 73.988281 77.433594 L 81.621094 69.554688 C 83.097656 67.984375 83.050781 65.523438 81.496094 64.015625 L 73.617188 56.382813 C 72.769531 55.550781 71.601563 55.136719 70.417969 55.273438 C 68.910156 55.460938 67.632813 56.503906 67.167969 57.953125 C 66.691406 59.414063 67.09375 61 68.199219 62.046875 L 69.1875 63.03125 L 63.03125 63.03125 C 53.859375 63.03125 48.859375 60.492188 41.855469 57.492188 C 38.792969 56.183594 35.332031 54.796875 31.269531 53.675781 C 31.316406 53.351563 31.359375 53.027344 31.390625 52.6875 C 35.394531 51.582031 38.824219 50.179688 41.855469 48.875 C 48.859375 45.871094 53.859375 43.332031 63.03125 43.332031 L 69.433594 43.332031 L 68.324219 44.441406 C 67.167969 45.410156 66.675781 46.964844 67.046875 48.410156 C 67.414063 49.875 68.601563 50.996094 70.0625 51.304688 C 71.539063 51.613281 73.0625 51.042969 73.988281 49.859375 L 81.621094 41.980469 C 83.097656 40.410156 83.050781 37.949219 81.496094 36.4375 L 73.617188 28.808594 C 72.769531 27.976563 71.601563 27.558594 70.417969 27.699219 C 68.910156 27.882813 67.632813 28.929688 67.167969 30.375 C 66.691406 31.839844 67.09375 33.421875 68.199219 34.46875 L 69.1875 35.453125 L 63.03125 35.453125 C 52.304688 35.453125 45.425781 38.824219 38.65625 41.734375 C 36.007813 42.871094 33.207031 43.902344 30.160156 44.8125 C 28.53125 41.117188 25.527344 38.222656 21.789063 36.6875 C 24.191406 31.070313 28.5 26.730469 33.976563 23.390625 C 42.488281 18.1875 53.75 15.757813 63.03125 15.757813 L 69.433594 15.757813 L 68.324219 16.867188 C 67.167969 17.835938 66.675781 19.390625 67.046875 20.835938 C 67.414063 22.296875 68.601563 23.421875 70.0625 23.730469 C 71.539063 24.035156 73.0625 23.46875 73.988281 22.28125 L 81.621094 14.402344 C 83.097656 12.832031 83.050781 10.371094 81.496094 8.863281 L 73.617188 1.230469 C 72.769531 0.398438 71.601563 -0.015625 70.417969 0.125 Z M 92.574219 7.878906 C 93.667969 7.878906 94.546875 8.757813 94.546875 9.847656 C 94.546875 10.941406 93.667969 11.816406 92.574219 11.816406 C 91.484375 11.816406 90.605469 10.941406 90.605469 9.847656 C 90.605469 8.757813 91.484375 7.878906 92.574219 7.878906 Z M 92.574219 27.574219 C 87.128906 27.574219 82.726563 31.976563 82.726563 37.425781 C 82.726563 42.871094 87.128906 47.273438 92.574219 47.273438 C 98.023438 47.273438 102.425781 42.871094 102.425781 37.425781 C 102.425781 31.976563 98.023438 27.574219 92.574219 27.574219 Z M 92.574219 35.453125 C 93.667969 35.453125 94.546875 36.332031 94.546875 37.425781 C 94.546875 38.515625 93.667969 39.394531 92.574219 39.394531 C 91.484375 39.394531 90.605469 38.515625 90.605469 37.425781 C 90.605469 36.332031 91.484375 35.453125 92.574219 35.453125 Z M 92.574219 55.152344 C 87.128906 55.152344 82.726563 59.550781 82.726563 65 C 82.726563 70.449219 87.128906 74.847656 92.574219 74.847656 C 98.023438 74.847656 102.425781 70.449219 102.425781 65 C 102.425781 59.550781 98.023438 55.152344 92.574219 55.152344 Z M 28.066406 61.0625 C 32.023438 62.046875 35.4375 63.246094 38.65625 64.628906 C 45.425781 67.539063 52.304688 70.910156 63.03125 70.910156 L 69.433594 70.910156 L 68.324219 72.015625 C 67.15625 73.015625 66.660156 74.617188 67.09375 76.09375 C 67.507813 77.585938 68.769531 78.679688 70.292969 78.910156 C 68.800781 79.140625 67.570313 80.203125 67.125 81.632813 C 66.675781 83.082031 67.09375 84.652344 68.199219 85.683594 L 69.1875 86.667969 L 63.03125 86.667969 C 53.75 86.667969 42.488281 84.234375 33.976563 79.035156 C 28.46875 75.679688 24.175781 71.402344 21.789063 65.738281 C 24.238281 64.707031 26.4375 63.105469 28.066406 61.0625 Z M 92.574219 63.03125 C 93.667969 63.03125 94.546875 63.90625 94.546875 65 C 94.546875 66.09375 93.667969 66.96875 92.574219 66.96875 C 91.484375 66.96875 90.605469 66.09375 90.605469 65 C 90.605469 63.90625 91.484375 63.03125 92.574219 63.03125 Z M 92.574219 82.726563 C 87.128906 82.726563 82.726563 87.128906 82.726563 92.574219 C 82.726563 98.023438 87.128906 102.425781 92.574219 102.425781 C 98.023438 102.425781 102.425781 98.023438 102.425781 92.574219 C 102.425781 87.128906 98.023438 82.726563 92.574219 82.726563 Z M 92.574219 90.605469 C 93.667969 90.605469 94.546875 91.484375 94.546875 92.574219 C 94.546875 93.667969 93.667969 94.546875 92.574219 94.546875 C 91.484375 94.546875 90.605469 93.667969 90.605469 92.574219 C 90.605469 91.484375 91.484375 90.605469 92.574219 90.605469 Z "
       id="path2" />
  </g>
</svg>
