<?xml version="1.0" encoding="UTF-8" standalone="no"?>
<svg
   xmlns:dc="http://purl.org/dc/elements/1.1/"
   xmlns:cc="http://creativecommons.org/ns#"
   xmlns:rdf="http://www.w3.org/1999/02/22-rdf-syntax-ns#"
   xmlns:svg="http://www.w3.org/2000/svg"
   xmlns="http://www.w3.org/2000/svg"
   xmlns:sodipodi="http://sodipodi.sourceforge.net/DTD/sodipodi-0.dtd"
   xmlns:inkscape="http://www.inkscape.org/namespaces/inkscape"
   width="104pt"
   height="104pt"
   viewBox="0 0 104 104"
   version="1.1"
   id="svg5"
   sodipodi:docname="icons8_theatre_mask.svg"
   inkscape:version="0.92.4 (f8dce91, 2019-08-02)">
  <metadata
     id="metadata11">
    <rdf:RDF>
      <cc:Work
         rdf:about="">
        <dc:format>image/svg+xml</dc:format>
        <dc:type
           rdf:resource="http://purl.org/dc/dcmitype/StillImage" />
      </cc:Work>
    </rdf:RDF>
  </metadata>
  <defs
     id="defs9" />
  <sodipodi:namedview
     pagecolor="#ffffff"
     bordercolor="#666666"
     borderopacity="1"
     objecttolerance="10"
     gridtolerance="10"
     guidetolerance="10"
     inkscape:pageopacity="0"
     inkscape:pageshadow="2"
     inkscape:window-width="666"
     inkscape:window-height="480"
     id="namedview7"
     showgrid="false"
     inkscape:zoom="1.7019231"
     inkscape:cx="69.333333"
     inkscape:cy="69.333333"
     inkscape:window-x="70"
     inkscape:window-y="27"
     inkscape:window-maximized="0"
     inkscape:current-layer="svg5" />
  <g
     id="surface1"
     style="fill:#808080">
    <path
       style="stroke:none;fill-rule:nonzero;fill:#808080;fill-opacity:1"
       d="M 49.980469 0.371094 C 45.257813 1.152344 33.070313 2.414063 24.003906 5.171875 C 14.941406 8.710938 6.679688 14.617188 2.339844 16.988281 C -0.816406 18.558594 1.152344 21.25 2.339844 24.003906 C 12.585938 54.335938 26.746094 63.367188 36.191406 65.738281 C 36.976563 60.613281 38.625 54.8125 40.996094 48.503906 C 40.210938 48.503906 39.808594 48.875 39.023438 48.875 C 33.117188 50.84375 27.574219 58.351563 27.574219 58.351563 C 27.574219 58.351563 28.390625 46.117188 37.054688 42.964844 C 39.023438 42.179688 41.363281 42.195313 43.332031 42.59375 L 45.671875 37.792969 C 45.671875 37.394531 46.042969 37.453125 46.042969 37.054688 C 46.828125 34.683594 48.875 29.546875 54.78125 29.546875 C 55.566406 29.546875 56.707031 29.515625 57.492188 29.914063 C 58.273438 30.699219 59.042969 30.730469 59.828125 31.515625 C 59.429688 24.421875 57.953125 16.15625 54.414063 5.910156 C 53.628906 3.539063 53.519531 -0.03125 49.980469 0.371094 Z M 44.933594 21.296875 C 49.65625 21.296875 53.183594 24.867188 53.183594 24.867188 C 53.183594 24.867188 49.65625 28.808594 44.933594 28.808594 C 40.210938 28.808594 36.6875 25.238281 36.6875 25.238281 C 36.6875 25.238281 40.59375 21.699219 44.933594 21.296875 Z M 26.34375 28.683594 C 28.160156 28.53125 29.546875 28.808594 29.546875 28.808594 C 29.546875 28.808594 28.777344 34.300781 25.238281 37.054688 C 21.699219 39.808594 16.125 39.023438 16.125 39.023438 C 16.125 39.023438 16.894531 33.53125 20.4375 30.777344 C 22.207031 29.390625 24.527344 28.835938 26.34375 28.683594 Z M 54.78125 35.578125 C 52.382813 35.5 52.226563 38.5625 50.84375 40.625 C 29.578125 83.957031 48.042969 98.484375 51.582031 100.453125 C 55.121094 102.023438 78.449219 107.5625 99.714844 64.628906 C 101.285156 62.660156 103.609375 59.828125 100.453125 57.859375 C 96.515625 55.105469 87.804688 48.042969 79.527344 43.703125 C 71.246094 39.363281 60.613281 37.394531 55.890625 35.824219 C 55.445313 35.671875 55.121094 35.59375 54.78125 35.578125 Z M 53.675781 57 C 55.398438 56.84375 57.660156 56.875 59.828125 57.859375 C 63.769531 59.828125 65.738281 64.628906 65.738281 64.628906 C 65.738281 64.628906 61.089844 66.632813 56.75 64.261719 C 52.8125 62.292969 50.84375 57.492188 50.84375 57.492188 C 50.84375 57.492188 51.949219 57.152344 53.675781 57 Z M 73.988281 66.847656 C 75.757813 66.691406 78.050781 66.722656 80.019531 67.707031 C 84.359375 69.679688 85.929688 74.847656 85.929688 74.847656 C 85.929688 74.847656 80.757813 76.480469 76.816406 74.109375 C 72.480469 72.140625 70.910156 67.339844 70.910156 67.339844 C 70.910156 67.339844 72.21875 67 73.988281 66.847656 Z M 48.875 71.277344 C 48.875 71.277344 53.183594 79.972656 59.089844 82.726563 C 65 85.480469 74.480469 83.464844 74.480469 83.464844 C 74.480469 83.464844 64.554688 93.3125 55.890625 89.375 C 47.609375 85.4375 48.875 71.277344 48.875 71.277344 Z "
       id="path2" />
  </g>
</svg>
