<?xml version="1.0" encoding="UTF-8" standalone="no"?>
<!-- Generator: Adobe Illustrator 15.0.0, SVG Export Plug-In . SVG Version: 6.00 Build 0)  -->

<svg
   xmlns:dc="http://purl.org/dc/elements/1.1/"
   xmlns:cc="http://creativecommons.org/ns#"
   xmlns:rdf="http://www.w3.org/1999/02/22-rdf-syntax-ns#"
   xmlns:svg="http://www.w3.org/2000/svg"
   xmlns="http://www.w3.org/2000/svg"
   xmlns:sodipodi="http://sodipodi.sourceforge.net/DTD/sodipodi-0.dtd"
   xmlns:inkscape="http://www.inkscape.org/namespaces/inkscape"
   version="1.1"
   id="Layer_1"
   x="0px"
   y="0px"
   width="416px"
   height="416px"
   viewBox="0 0 26 26"
   enable-background="new 0 0 26 26"
   xml:space="preserve"
   sodipodi:docname="icons8-speaker.svg"
   inkscape:version="0.92.2 (5c3e80d, 2017-08-06)"><metadata
     id="metadata5991"><rdf:RDF><cc:Work
         rdf:about=""><dc:format>image/svg+xml</dc:format><dc:type
           rdf:resource="http://purl.org/dc/dcmitype/StillImage" /></cc:Work></rdf:RDF></metadata><defs
     id="defs5989" /><sodipodi:namedview
     pagecolor="#ffffff"
     bordercolor="#666666"
     borderopacity="1"
     objecttolerance="10"
     gridtolerance="10"
     guidetolerance="10"
     inkscape:pageopacity="0"
     inkscape:pageshadow="2"
     inkscape:window-width="737"
     inkscape:window-height="480"
     id="namedview5987"
     showgrid="false"
     inkscape:zoom="0.56730769"
     inkscape:cx="208"
     inkscape:cy="208"
     inkscape:window-x="0"
     inkscape:window-y="0"
     inkscape:window-maximized="0"
     inkscape:current-layer="Layer_1" /><path
     fill="#000000"
     d="M9,17c0,0.551-0.449,1-1,1H1c-0.551,0-1-0.449-1-1V9c0-0.551,0.449-1,1-1h7c0.551,0,1,0.449,1,1V17z"
     id="path5978"
     style="fill:#808080" /><path
     fill="#000000"
     d="M4.319,16.873C4.136,16.716,4,16.331,4,15.999v-5.998C4,9.669,4.136,9.277,4.319,9.12l6.708-7.585  C11.891,0.672,13,1,13,2.266v21.281c0,1.363-1.004,1.879-2.004,0.879L4.319,16.873z"
     id="path5980"
     style="fill:#808080" /><path
     fill="none"
     stroke="#000000"
     stroke-width="2"
     stroke-linecap="round"
     stroke-linejoin="round"
     stroke-miterlimit="10"
     d="  M17.029,7.955C18.826,9.071,20,10.915,20,13.001c0,2.099-1.188,3.951-3.003,5.065"
     id="path5982"
     style="stroke:#808080;stroke-opacity:1" /><path
     fill="none"
     stroke="#000000"
     stroke-width="2"
     stroke-linecap="round"
     stroke-linejoin="round"
     stroke-miterlimit="10"
     d="  M19.499,4.066C22.763,5.713,25,9.094,25,13s-2.237,7.287-5.501,8.934"
     id="path5984"
     style="stroke:#808080;stroke-opacity:1" /></svg>