<?xml version="1.0" encoding="UTF-8" standalone="no"?>
<!-- Generator: Adobe Illustrator 17.1.0, SVG Export Plug-In . SVG Version: 6.00 Build 0)  -->

<svg
   xmlns:dc="http://purl.org/dc/elements/1.1/"
   xmlns:cc="http://creativecommons.org/ns#"
   xmlns:rdf="http://www.w3.org/1999/02/22-rdf-syntax-ns#"
   xmlns:svg="http://www.w3.org/2000/svg"
   xmlns="http://www.w3.org/2000/svg"
   xmlns:sodipodi="http://sodipodi.sourceforge.net/DTD/sodipodi-0.dtd"
   xmlns:inkscape="http://www.inkscape.org/namespaces/inkscape"
   version="1.0"
   id="Layer_1"
   x="0px"
   y="0px"
   width="416px"
   height="416px"
   viewBox="0 0 26 26"
   style="enable-background:new 0 0 26 26;"
   xml:space="preserve"
   sodipodi:docname="icons8_rate_down.svg"
   inkscape:version="0.92.3 (2405546, 2018-03-11)"><metadata
   id="metadata29"><rdf:RDF><cc:Work
       rdf:about=""><dc:format>image/svg+xml</dc:format><dc:type
         rdf:resource="http://purl.org/dc/dcmitype/StillImage" /><dc:title></dc:title></cc:Work></rdf:RDF></metadata><defs
   id="defs27" /><sodipodi:namedview
   pagecolor="#ffffff"
   bordercolor="#666666"
   borderopacity="1"
   objecttolerance="10"
   gridtolerance="10"
   guidetolerance="10"
   inkscape:pageopacity="0"
   inkscape:pageshadow="2"
   inkscape:window-width="1072"
   inkscape:window-height="480"
   id="namedview25"
   showgrid="false"
   inkscape:zoom="0.56730769"
   inkscape:cx="167.79432"
   inkscape:cy="208"
   inkscape:window-x="498"
   inkscape:window-y="142"
   inkscape:window-maximized="0"
   inkscape:current-layer="Layer_1" />
<rect
   style="fill:none"
   width="26"
   height="26"
   id="rect2"
   x="-2.375"
   y="0" />
<path
   style="fill:#808080;fill-opacity:1"
   d="m 15.325,4.7 c 0.5,-0.4 1.4,-0.3 1.6,0.1 l 1.5,2.4 c 0.2,0.3 -0.2,1.4 -0.6,1.6 l -7.9,5 c -0.3,0.2 -0.6,0.2 -0.8,-0.1 l -1,-1.5 c -0.8,-1.6 -0.1,-2.4 1.1,-3.3 z"
   id="path4"
   inkscape:connector-curvature="0" />
<circle
   style="fill:#808080;fill-opacity:1"
   cx="19.125"
   cy="2.5"
   r="2.5"
   id="circle6" />
<path
   style="fill:#808080;fill-opacity:1"
   d="m 16.725,4.6 -4.1,-2.8 c -0.3,-0.2 -0.6,-0.3 -0.9,-0.2 l -5.5,0.6 c -0.7,0.2 -1.5,0.5 -1.4,1.2 0.1,0.5 0.9,0.6 1.4,0.5 l 5.4,-0.1 3,2.4 c 0.5,0.4 1.3,0.3 1.7,-0.3 0.4,-0.4 0.9,-0.9 0.4,-1.3 z"
   id="path8"
   inkscape:connector-curvature="0" />
<path
   style="fill:#808080;fill-opacity:1"
   d="m 8.725,21 c 0,0 -1.7,1.8 -2.5,2.8 -0.6,0.8 -0.8,1.5 -0.3,1.9 0.5,0.4 1.1,0.3 2.2,-0.7 0.9,-0.8 4.2,-4.1 4.2,-4.1 h -3.6 z"
   id="path10"
   inkscape:connector-curvature="0" />
<path
   style="fill:#808080;fill-opacity:1"
   d="m 15.825,18.7 c -0.3,-0.8 -3.7,-6.3 -3.7,-6.3 -0.5,-0.9 -1.5,-1.2 -2.5,-1.1 -0.9,0.1 -1.4,0.6 -1,1.3 0.3,0.7 3.1,4.7 3.1,4.7 0,0 -4.5,0.2 -5.5,0.3 -0.9,0.1 -1.4,0.7 -1.4,1.2 0,0.5 0.6,1.1 1.5,1.1 0.9,0 8.2,0.1 8.2,0.1 0.6,0 1.5,-0.5 1.3,-1.3 z"
   id="path12"
   inkscape:connector-curvature="0" />
<path
   style="fill:#808080;fill-opacity:1"
   d="m 22.025,11 -3.6,-0.1 V 7.3 c -0.6,-1.1 -1.2,-1.4 -1.8,-1.1 -0.6,0.3 -0.7,1.1 -0.5,1.7 l 0.4,4.3 c 0.2,0.4 0.3,0.7 0.8,0.7 0,0 3.7,-0.2 4.5,-0.2 0.9,0 1.5,-0.3 1.6,-0.9 0,-0.8 -0.6,-0.8 -1.4,-0.8 z"
   id="path14"
   inkscape:connector-curvature="0" />

</svg>