<?xml version="1.0" encoding="UTF-8" standalone="no"?>
<svg
   xmlns:dc="http://purl.org/dc/elements/1.1/"
   xmlns:cc="http://creativecommons.org/ns#"
   xmlns:rdf="http://www.w3.org/1999/02/22-rdf-syntax-ns#"
   xmlns:svg="http://www.w3.org/2000/svg"
   xmlns="http://www.w3.org/2000/svg"
   xmlns:sodipodi="http://sodipodi.sourceforge.net/DTD/sodipodi-0.dtd"
   xmlns:inkscape="http://www.inkscape.org/namespaces/inkscape"
   version="1.1"
   id="Layer_1"
   x="0px"
   y="0px"
   width="416px"
   height="416px"
   viewBox="0 0 26 26"
   enable-background="new 0 0 26 26"
   xml:space="preserve"
   sodipodi:docname="icons8_user_dic_panel.svg"
   inkscape:version="1.0.1 (3bc2e813f5, 2020-09-07)"><metadata
     id="metadata5374"><rdf:RDF><cc:Work
         rdf:about=""><dc:format>image/svg+xml</dc:format><dc:type
           rdf:resource="http://purl.org/dc/dcmitype/StillImage" /><dc:title></dc:title></cc:Work></rdf:RDF></metadata><defs
     id="defs5372" /><sodipodi:namedview
     pagecolor="#ffffff"
     bordercolor="#666666"
     borderopacity="1"
     objecttolerance="10"
     gridtolerance="10"
     guidetolerance="10"
     inkscape:pageopacity="0"
     inkscape:pageshadow="2"
     inkscape:window-width="1920"
     inkscape:window-height="1017"
     id="namedview5370"
     showgrid="false"
     inkscape:zoom="1.1346154"
     inkscape:cx="208.05651"
     inkscape:cy="210.96539"
     inkscape:window-x="-8"
     inkscape:window-y="-8"
     inkscape:window-maximized="1"
     inkscape:current-layer="Layer_1"
     inkscape:document-rotation="0" /><g
     id="g5357"
     style="fill:#808080"
     transform="matrix(0.55532861,0,0,0.5697903,5.4768355,3.0727042)"><g
       id="g5353"
       style="fill:#808080"><path
         d="M 14,2 V 14 H 2 V 2 H 14 M 14.315,0 H 1.685 C 0.754,0 0,0.754 0,1.684 V 14.316 C 0,15.246 0.754,16 1.685,16 H 14.316 C 15.246,16 16,15.246 16,14.316 V 1.684 C 16,0.754 15.246,0 14.315,0 Z"
         id="path5351"
         style="fill:#808080"
         inkscape:connector-curvature="0" /></g><path
       d="M 24.315,10 H 11.685 C 10.754,10 10,10.754 10,11.684 V 24.316 C 10,25.246 10.754,26 11.685,26 H 24.316 C 25.246,26 26,25.246 26,24.316 V 11.684 C 26,10.754 25.246,10 24.315,10 Z m -3.96,12.631 -0.698,-2.008 h -3.322 l -0.69,2.008 h -2.146 l 3.457,-9.309 h 2.104 l 3.442,9.309 z m -2.331,-6.752 1.133,3.281 h -2.314 l 1.14,-3.281 z"
       id="path5355"
       style="fill:#808080"
       inkscape:connector-curvature="0" /></g><polygon
     points="3,4 3,6 13,6 13,4 9,4 9,3 7,3 7,4 "
     id="polygon5359"
     style="fill:#808080"
     transform="matrix(0.55532861,0,0,0.5697903,5.4768355,3.0727042)" /><path
     stroke-miterlimit="10"
     d="m 7.7564594,9.997365 c 0,0 2.5173046,-0.9236295 3.7601306,-3.4785691"
     id="path5361"
     style="fill:#808080;stroke:#808080;stroke-width:1.12503;stroke-linecap:round;stroke-linejoin:round;stroke-miterlimit:10;stroke-opacity:1"
     inkscape:connector-curvature="0" /><path
     stroke-miterlimit="10"
     d="m 8.5150384,7.0418633 c 0,0 0.5525519,1.2313171 2.6566926,2.4626335"
     id="path5363"
     style="fill:#808080;stroke:#808080;stroke-width:1.12503;stroke-linecap:round;stroke-linejoin:round;stroke-miterlimit:10;stroke-opacity:1"
     inkscape:connector-curvature="0" /><polygon
     points="7,16 8,16 5.5,13.5 3,16 4,16 4,19 7,19 "
     id="polygon5365"
     style="fill:#808080"
     transform="matrix(0.55532861,0,0,0.5697903,5.4768355,3.0727042)" /><polygon
     points="10,22 10,23 12.5,20.5 10,18 10,19 4,19 7,22 "
     id="polygon5367"
     style="fill:#808080"
     transform="matrix(0.55532861,0,0,0.5697903,5.4768355,3.0727042)" /><ellipse
     style="fill:#808080;stroke-width:0.584588"
     cx="19.501778"
     cy="2.2107875"
     id="circle6579"
     rx="1.7375711"
     ry="1.7701098" /><path
     inkscape:connector-curvature="0"
     style="fill:#808080;stroke-width:0.584588"
     d="m 21.818537,6.3410444 c 0,-1.2980805 -1.042544,-2.3601466 -2.316762,-2.3601466 -1.274218,0 -2.316762,1.0620661 -2.316762,2.3601466 0,0.2950183 0,1.2980809 0,1.2980809 0,0 0.57919,0.472029 2.316762,0.472029 1.737571,0 2.316762,-0.472029 2.316762,-0.472029 0,0 0,-1.0030626 0,-1.2980809 z"
     id="path6581" /><g
     id="surface1"
     style="fill:#808080"
     transform="matrix(0.84437713,0,0,0.62335874,2.7964198,10.920829)"><path
       style="fill:#808080;fill-opacity:1;fill-rule:nonzero;stroke:none"
       d="M 21.58733,12.528375 H 4.2868323 C 1.6266763,12.528375 0,14.696344 0,17.352594 V 18.2925 c 0,2.65625 1.6266763,4.824219 4.2868323,4.824219 H 21.58733 c 2.660156,0 4.018139,-2.167969 4.018139,-4.824219 v -0.939906 c 0,-2.65625 -1.357983,-4.824219 -4.018139,-4.824219 z m -10.755299,6.894531 v -2.953125 h 3.941407 v 2.953125 z M 3.9375,17.454156 c 0,-0.59375 0.098455,-0.984375 0.6922048,-0.984375 H 7.878906 v 2.953125 H 4.6297048 c -0.59375,0 -0.6922048,-0.390625 -0.6922048,-0.984375 z m 17.730469,0.984375 c 0,0.59375 -0.09845,0.984375 -0.688299,0.984375 h -3.253107 v -2.953125 h 3.253107 c 0.589844,0 0.688299,0.390625 0.688299,0.984375 z"
       id="path826"
       inkscape:connector-curvature="0"
       sodipodi:nodetypes="ssssssssscccccssccsssssccsss" /></g></svg>
