<?xml version="1.0" encoding="UTF-8"?>
<svg xmlns="http://www.w3.org/2000/svg" xmlns:xlink="http://www.w3.org/1999/xlink" width="500px" height="500px" viewBox="0 0 26 26" version="1.1"> <g id="surface1"> <path style=" stroke:none;fill-rule:nonzero;fill:#808080;fill-opacity:1;" d="M 6.09375 4.03125 C 5.703125 4.03125 5.515625 4.148438 5.417969 4.246094 C 5.316406 4.347656 5.207031 4.542969 5.109375 4.738281 L 0.09375 20.988281 C -0.0078125 21.285156 -0.0078125 21.472656 0.09375 21.574219 C 0.191406 21.574219 0.296875 21.667969 0.492188 21.667969 L 3.355469 21.667969 C 3.550781 21.667969 3.742188 21.582031 3.9375 21.480469 C 4.039063 21.382813 4.246094 21.164063 4.246094 20.867188 L 5.140625 17.726563 L 10.402344 17.726563 L 11.234375 20.867188 C 11.332031 21.164063 11.410156 21.382813 11.511719 21.480469 C 11.609375 21.582031 11.828125 21.667969 12.125 21.667969 L 15.359375 21.667969 C 15.554688 21.667969 15.664063 21.582031 15.664063 21.480469 C 15.765625 21.382813 15.765625 21.285156 15.664063 20.988281 L 10.433594 4.832031 C 10.332031 4.535156 10.257813 4.445313 10.15625 4.246094 C 10.054688 4.148438 9.746094 4.03125 9.449219 4.03125 Z M 7.785156 8.277344 L 7.878906 8.277344 L 9.601563 14.773438 L 5.96875 14.773438 Z M 17.726563 11.816406 C 17.136719 11.816406 16.742188 12.210938 16.742188 12.804688 L 16.742188 13.789063 C 16.742188 14.378906 17.136719 14.773438 17.726563 14.773438 L 24.621094 14.773438 C 25.214844 14.773438 25.605469 14.378906 25.605469 13.789063 L 25.605469 12.804688 C 25.605469 12.210938 25.214844 11.816406 24.621094 11.816406 Z "/> </g> </svg>
