<?xml version="1.0" encoding="UTF-8" standalone="no"?>
<svg
   width="104pt"
   height="104pt"
   viewBox="0 0 104 104"
   version="1.1"
   id="svg5"
   sodipodi:docname="autoflip_page_show_speed.svg"
   inkscape:version="1.1.2 (0a00cf5339, 2022-02-04)"
   xmlns:inkscape="http://www.inkscape.org/namespaces/inkscape"
   xmlns:sodipodi="http://sodipodi.sourceforge.net/DTD/sodipodi-0.dtd"
   xmlns="http://www.w3.org/2000/svg"
   xmlns:svg="http://www.w3.org/2000/svg">
  <defs
     id="defs9" />
  <sodipodi:namedview
     id="namedview7"
     pagecolor="#ffffff"
     bordercolor="#666666"
     borderopacity="1.0"
     inkscape:pageshadow="2"
     inkscape:pageopacity="0.0"
     inkscape:pagecheckerboard="0"
     inkscape:document-units="pt"
     showgrid="false"
     inkscape:zoom="5.6394231"
     inkscape:cx="69.244672"
     inkscape:cy="69.333333"
     inkscape:window-width="1920"
     inkscape:window-height="989"
     inkscape:window-x="0"
     inkscape:window-y="0"
     inkscape:window-maximized="1"
     inkscape:current-layer="svg5" />
  <g
     id="surface1"
     style="fill:#808080">
    <path
       style="fill:#808080;fill-opacity:1;fill-rule:nonzero;stroke:none"
       d="M 27.574219,0 C 18.898438,0 11.816406,7.078125 11.816406,15.757813 v 70.910156 c 0,8.675781 7.082032,15.757811 15.757813,15.757811 h 47.273437 c 8.679688,0 15.757813,-7.08203 15.757813,-15.757811 V 31.515625 c 0,-4.1875 -3.832031,-8.15625 -10.710938,-14.894531 -0.953125,-0.941406 -1.984375,-1.988281 -2.953125,-2.957031 -0.96875,-0.96875 -2.015625,-1.875 -2.953125,-2.832032 C 67.246094,3.953125 63.277344,0 59.089844,0 Z m 0,7.878906 h 28.683594 c 2.847656,0.722657 2.832031,4.140625 2.832031,7.632813 v 12.0625 c 0,2.171875 1.769531,3.941406 3.941406,3.941406 h 11.816406 c 3.925782,0 7.878907,0.01563 7.878907,3.9375 v 51.214844 c 0,4.355469 -3.523438,7.878906 -7.878907,7.878906 H 27.574219 c -4.351563,0 -7.878906,-3.523437 -7.878906,-7.878906 V 15.757813 c 0,-4.355469 3.527343,-7.878907 7.878906,-7.878907 z"
       id="path2"
       sodipodi:nodetypes="ssssssscscssscsssssssssss" />
  </g>
  <g
     id="surface1-3"
     transform="matrix(0.45800339,0,0,0.45800339,26.989196,41.944079)"
     style="fill:#808080">
    <path
       style="fill:#808080;fill-opacity:1;fill-rule:nonzero;stroke:none"
       d="m 51.210938,0 c -4.355469,0 -7.878907,3.523438 -7.878907,7.878906 0,4.355469 3.523438,7.878907 7.878907,7.878907 4.355468,0 7.878906,-3.523438 7.878906,-7.878907 C 59.089844,3.523438 55.566406,0 51.210938,0 Z m 20.3125,4.925781 c -1.152344,0.058594 -2.492188,0.628907 -3.445313,2.214844 -2.707031,4.539063 1.539063,7.292969 2.832031,8 12.769532,7.003906 21.542969,20.5 21.542969,36.070313 0,22.730468 -18.511719,41.242187 -41.242187,41.242187 -22.726563,0 -41.238282,-18.511719 -41.238282,-41.242187 0,-5.214844 1.046875,-10.1875 2.832032,-14.773438 0.230468,-0.597656 2.429687,-4.613281 -1.972657,-7.382812 -3.015625,-1.894532 -5.9375,0.246093 -6.523437,1.597656 C 1.539063,36.945313 0,43.902344 0,51.210938 c 0,28.285156 22.929688,51.214842 51.210938,51.214842 28.285156,0 51.214842,-22.929686 51.214842,-51.214842 0,-20.140625 -11.652342,-37.578125 -28.562499,-45.917969 C 73.679688,5.203125 72.679688,4.863281 71.523438,4.925781 Z m -58.226563,8.246094 c -1.234375,1.230469 30.4375,41.273438 31.390625,42.472656 0.03125,0.04687 0.09375,0.07813 0.125,0.121094 0.01172,0.01563 0.367188,0.492188 0.367188,0.492188 1.445312,1.742187 3.601562,2.832031 6.03125,2.832031 4.355468,0 7.863281,-3.539063 7.878906,-7.878906 0,-2.429688 -1.105469,-4.585938 -2.832031,-6.03125 0,0 -41.699219,-33.269532 -42.960938,-32.007813 z"
       id="path2-6" />
  </g>
  <path
     d="m 31.391169,13.079784 c -0.05185,0 -0.06667,0.02963 -0.11852,0.05926 l -4.201895,2.042614 c -0.151854,0.07222 -0.211113,0.240743 -0.174076,0.407411 l 0.524079,2.451878 c 0.02963,0.10926 0.131483,0.181483 0.235188,0.233335 0.101853,0.04445 0.188891,0.04445 0.290744,0 l 2.625953,-1.342606 v 13.598289 c 0,0.196297 0.212965,0.350003 0.409263,0.350003 h 3.092624 c 0.205559,0 0.350004,-0.153706 0.350004,-0.350003 V 13.429788 c 0,-0.203706 -0.151853,-0.350004 -0.350004,-0.350004 z"
     style="fill:#808080;fill-opacity:1;fill-rule:nonzero;stroke:none;stroke-width:0.355559"
     id="path989" />
  <path
     d="m 44.118054,12.603391 c -2.063511,0 -4.089471,0.70411 -5.56153,1.894525 -0.125801,0.103269 -0.178374,0.259112 -0.118291,0.414955 l 1.006408,2.307604 c 0.04318,0.11078 0.125802,0.206539 0.236582,0.23658 0.110779,0.02816 0.206539,0.0075 0.294787,-0.06008 1.207314,-0.916282 2.360176,-1.36128 3.492386,-1.36128 2.365809,0 2.72068,1.547165 2.72068,2.485978 -0.02066,2.093554 -1.774356,4.023754 -5.916401,7.869133 l -2.012816,1.894525 c -0.07323,0.06572 -0.11829,0.191518 -0.11829,0.296666 v 2.010939 c 0,0.199027 0.148332,0.354871 0.356748,0.354871 h 11.71639 c 0.199029,0 0.354873,-0.155844 0.354873,-0.354871 v -2.72256 c 0.0075,-0.199028 -0.148333,-0.354871 -0.354873,-0.354871 h -6.154859 l 0.828034,-0.767949 c 3.379728,-3.114983 5.326825,-5.48267 5.326825,-8.522548 0,-2.58737 -1.620391,-5.621614 -6.096653,-5.621614 z"
     style="fill:#808080;fill-opacity:1;fill-rule:nonzero;stroke:none;stroke-width:0.360504"
     id="path1160" />
</svg>
