<?xml version="1.0" encoding="UTF-8" standalone="no"?>
<!-- Generator: Adobe Illustrator 15.0.0, SVG Export Plug-In . SVG Version: 6.00 Build 0)  -->

<svg
   xmlns:dc="http://purl.org/dc/elements/1.1/"
   xmlns:cc="http://creativecommons.org/ns#"
   xmlns:rdf="http://www.w3.org/1999/02/22-rdf-syntax-ns#"
   xmlns:svg="http://www.w3.org/2000/svg"
   xmlns="http://www.w3.org/2000/svg"
   xmlns:sodipodi="http://sodipodi.sourceforge.net/DTD/sodipodi-0.dtd"
   xmlns:inkscape="http://www.inkscape.org/namespaces/inkscape"
   version="1.1"
   id="Layer_1"
   x="0px"
   y="0px"
   width="416px"
   height="416px"
   viewBox="0 0 26 26"
   enable-background="new 0 0 26 26"
   xml:space="preserve"
   sodipodi:docname="icons8_folder_stars.svg"
   inkscape:version="0.92.3 (2405546, 2018-03-11)"><metadata
     id="metadata835"><rdf:RDF><cc:Work
         rdf:about=""><dc:format>image/svg+xml</dc:format><dc:type
           rdf:resource="http://purl.org/dc/dcmitype/StillImage" /><dc:title></dc:title></cc:Work></rdf:RDF></metadata><defs
     id="defs833" /><sodipodi:namedview
     pagecolor="#ffffff"
     bordercolor="#666666"
     borderopacity="1"
     objecttolerance="10"
     gridtolerance="10"
     guidetolerance="10"
     inkscape:pageopacity="0"
     inkscape:pageshadow="2"
     inkscape:window-width="1920"
     inkscape:window-height="976"
     id="namedview831"
     showgrid="false"
     inkscape:zoom="0.75979984"
     inkscape:cx="93.808927"
     inkscape:cy="218.29072"
     inkscape:window-x="-8"
     inkscape:window-y="-8"
     inkscape:window-maximized="1"
     inkscape:current-layer="Layer_1" /><path
     fill="#000000"
     d="M23,5H3C1.344,5,0,6.344,0,8v14c0,1.656,1.344,3,3,3h20c1.656,0,3-1.344,3-3V8C26,6.344,24.656,5,23,5z   M24,22c0,0.552-0.448,1-1,1H3c-0.552,0-1-0.448-1-1V8c0-0.552,0.448-1,1-1h20c0.552,0,1,0.448,1,1V22z"
     id="path826"
     style="fill:#808080" /><path
     fill="#000000"
     d="M8,2H3C1.344,2,0,3.344,0,5v4c0,0,0.302-3,3-3h8V5C11,3.344,9.656,2,8,2z"
     id="path828"
     style="fill:#808080" /><polygon
     transform="matrix(0.26079122,0,0,0.25587047,16.775495,11.925883)"
     style="fill:none;stroke:#808080;stroke-width:2;stroke-linecap:round;stroke-linejoin:round;stroke-miterlimit:10"
     stroke-miterlimit="10"
     points="24.375,10.446 16.516,9.305 13,2.182 9.484,9.305 1.625,10.446 7.313,15.99 5.97,23.818 13,20.123 20.03,23.818 18.688,15.99 "
     id="polygon2" /><path
     inkscape:connector-curvature="0"
     style="fill:#808080;stroke-width:0.25831911"
     d="m 9.2004564,14.450437 c -0.030513,-0.09237 -0.112401,-0.15992 -0.2104585,-0.173993 L 7.0757904,14.003686 6.2196128,12.301892 c -0.087887,-0.17476 -0.379712,-0.17476 -0.4675986,0 l -0.8561775,1.701794 -1.9142076,0.272758 c -0.098058,0.01408 -0.1796851,0.08136 -0.2104585,0.173993 -0.030513,0.09288 -0.00521,0.194461 0.065981,0.262266 l 1.3853229,1.324898 -0.3270322,1.870413 c -0.016691,0.09595 0.023471,0.193182 0.1035341,0.250241 0.080585,0.05757 0.1869874,0.065 0.2748739,0.01945 l 1.7120944,-0.883265 1.7118335,0.883009 c 0.038076,0.0197 0.080062,0.02943 0.1215287,0.02943 0.053984,0 0.1077067,-0.01637 0.1533453,-0.04887 0.080324,-0.05706 0.1204855,-0.154289 0.1035341,-0.250241 l -0.3270326,-1.870413 1.385323,-1.324898 c 0.071196,-0.06781 0.096492,-0.16913 0.06598,-0.26201 z"
     id="path2-7" /><path
     inkscape:connector-curvature="0"
     style="fill:#808080;stroke-width:0.25831911"
     d="m 16.344071,14.492531 c -0.03051,-0.09236 -0.112401,-0.159919 -0.210459,-0.173992 l -1.914207,-0.272757 -0.856178,-1.701795 c -0.08789,-0.17476 -0.379712,-0.17476 -0.467599,0 l -0.856177,1.701795 -1.914208,0.272757 c -0.09806,0.01408 -0.179685,0.08137 -0.210457,0.173992 -0.03051,0.09288 -0.0052,0.194462 0.06598,0.262268 l 1.385323,1.324897 -0.327033,1.870413 c -0.01668,0.09595 0.02347,0.193182 0.103534,0.250242 0.08059,0.05757 0.186988,0.06499 0.274875,0.01945 l 1.712093,-0.883264 1.711835,0.883008 c 0.03808,0.0197 0.08006,0.02943 0.121528,0.02943 0.05398,0 0.107707,-0.01638 0.153345,-0.04887 0.08032,-0.05706 0.120486,-0.154291 0.103535,-0.250242 l -0.327034,-1.870413 1.385322,-1.324897 c 0.07119,-0.06781 0.09649,-0.16913 0.06598,-0.262012 z"
     id="path2-7-4" /></svg>