<?xml version="1.0" encoding="UTF-8" standalone="no"?>
<svg
   xmlns:dc="http://purl.org/dc/elements/1.1/"
   xmlns:cc="http://creativecommons.org/ns#"
   xmlns:rdf="http://www.w3.org/1999/02/22-rdf-syntax-ns#"
   xmlns:svg="http://www.w3.org/2000/svg"
   xmlns="http://www.w3.org/2000/svg"
   xmlns:sodipodi="http://sodipodi.sourceforge.net/DTD/sodipodi-0.dtd"
   xmlns:inkscape="http://www.inkscape.org/namespaces/inkscape"
   width="104pt"
   height="104pt"
   viewBox="0 0 104 104"
   version="1.1"
   id="svg5"
   sodipodi:docname="icons8_book_scan.svg"
   inkscape:version="1.0.2 (e86c870879, 2021-01-15)">
  <metadata
     id="metadata11">
    <rdf:RDF>
      <cc:Work
         rdf:about="">
        <dc:format>image/svg+xml</dc:format>
        <dc:type
           rdf:resource="http://purl.org/dc/dcmitype/StillImage" />
      </cc:Work>
    </rdf:RDF>
  </metadata>
  <defs
     id="defs9" />
  <sodipodi:namedview
     pagecolor="#ffffff"
     bordercolor="#666666"
     borderopacity="1"
     objecttolerance="10"
     gridtolerance="10"
     guidetolerance="10"
     inkscape:pageopacity="0"
     inkscape:pageshadow="2"
     inkscape:window-width="1920"
     inkscape:window-height="995"
     id="namedview7"
     showgrid="false"
     inkscape:zoom="5.7692308"
     inkscape:cx="69.333333"
     inkscape:cy="69.333333"
     inkscape:window-x="0"
     inkscape:window-y="0"
     inkscape:window-maximized="1"
     inkscape:current-layer="svg5"
     inkscape:document-rotation="0" />
  <g
     id="surface1"
     style="fill:#808080">
    <path
       style="fill:#808080;fill-opacity:1;fill-rule:nonzero;stroke:none"
       d="M 65,0 C 59.074219,0 55.859375,1 54.414063,1.355469 52.964844,1.707031 22.652344,9.140625 16.125,10.832031 c -5.382812,1.402344 -4.445312,4.21875 -3.566406,9.355469 0,0 1.476562,8.882813 2.460937,13.789063 0.984375,4.910156 1.136719,5.480468 5.664063,7.140625 22.757812,8.355468 37.4375,10.09375 41.730469,10.09375 1.261718,0 2.585937,-0.859375 2.585937,-0.859375 0,0 1.96875,0.539062 1.96875,3.078125 0,4.0625 -3.9375,8 -3.9375,10.09375 v 2.585937 c 0,1.828125 3.753906,4.800781 10.339844,4.800781 6.601562,0 9.355469,-16.375 9.355469,-16.375 v 5.664063 c 0,8.078125 -4.507813,14.648437 -7.015625,14.648437 h -4.800782 v 1.109375 c 0,2.816407 -7.878906,5.0625 -7.878906,10.710938 0,4.152344 8.308594,15.757811 11.941406,15.757811 h 16.617188 c 4.480469,0 10.835936,-8.402342 10.835936,-19.945311 0,-11.941406 -9.480467,-28.652344 -9.480467,-44.933594 0,-4.769531 1.125,-9.1875 2.460937,-11.570312 1.339844,-2.386719 3.078125,-2.679688 3.078125,-6.527344 V 7.632813 c 0,-4.1875 -4.386719,-4.800782 -5.417969,-4.925782 C 92.621094,2.648438 73.21875,0 65,0 Z m -45.304687,19.695313 36.6875,6.894531 2.707031,16.128906 c 0,0 -22.3125,-3.246094 -36.808594,-9.726562 -1.261719,-5.96875 -2.585937,-13.296875 -2.585937,-13.296875 z"
       id="path2"
       sodipodi:nodetypes="scccccscsssscsscsssssscsscsccccc" />
  </g>
  <g
     id="surface1-3"
     transform="matrix(0.48187441,0,0,0.48187441,1.9228933,54.992536)"
     style="fill:#808080">
    <path
       style="fill:#808080;fill-opacity:1;fill-rule:nonzero;stroke:none"
       d="m 48.625,4.308594 c -1.105469,0.0625 -2.089844,0.492187 -2.828125,1.355469 l -40.75,45.425781 c -0.847656,0.96875 -2.9375,4.507812 -3.9375,9.109375 C 0.414063,62.136719 0,64.382813 0,66.96875 0,79.1875 10.21875,84.082031 10.21875,84.082031 c 0.152344,0.08984 0.320313,0.167969 0.492188,0.246094 l 47.273437,14.035156 c 1.539063,0.445313 3.199219,-0.09375 4.183594,-1.355468 L 100.69922,50.597656 c 0.95703,-1.1875 1.15625,-2.816406 0.49219,-4.1875 0,0 -1.492191,-3.445312 0.125,-7.386718 0.53906,-1.308594 0.33984,-2.800782 -0.52344,-3.921875 -0.863282,-1.125 -2.26172,-1.695313 -3.664064,-1.492188 -1.382812,0.214844 -2.566406,1.152344 -3.074218,2.460938 -2.015625,4.9375 -1.433594,8.695312 -0.742188,11.078125 L 57.738281,89.992188 13.171875,76.816406 12.925781,76.695313 C 12.1875,76.417969 7.878906,74.480469 7.878906,66.96875 c 0,-2.953125 0.628907,-4.523437 1.230469,-5.414062 0.601563,-0.894532 1.230469,-1.324219 2.09375,-1.601563 0.859375,-0.277344 1.847656,-0.277344 2.585938,-0.246094 h 0.121093 l 41.117188,11.816407 c 0.355469,0.09375 0.753906,0.125 1.109375,0.125 1.230469,0 2.414062,-0.632813 3.199219,-1.601563 L 101.07031,21.914063 c 0.90625,-1.109375 1.21485,-2.585938 0.73828,-3.941407 -0.46093,-1.367187 -1.67578,-2.398437 -3.078121,-2.707031 L 49.734375,4.308594 c -0.367187,-0.078125 -0.738281,-0.015625 -1.109375,0 z m -1.105469,15.632812 c 0.429688,-0.01172 0.832032,0.03125 1.230469,0.125 l 29.300781,7.140625 c 1.597657,0.382813 2.214844,1.429688 1.351563,2.460938 l -3.199219,3.816406 c -0.878906,1.03125 -2.941406,1.492188 -4.554687,1.109375 L 42.472656,27.453125 c -1.617187,-0.386719 -2.21875,-1.570312 -1.355468,-2.585937 l 3.078125,-3.691407 c 0.644531,-0.769531 2.03125,-1.203125 3.324218,-1.234375 z"
       id="path2-6" />
  </g>
</svg>
