<?xml version="1.0" encoding="UTF-8" standalone="no"?>
<!-- Generator: Adobe Illustrator 19.1.1, SVG Export Plug-In . SVG Version: 6.00 Build 0)  -->

<svg
   xmlns:dc="http://purl.org/dc/elements/1.1/"
   xmlns:cc="http://creativecommons.org/ns#"
   xmlns:rdf="http://www.w3.org/1999/02/22-rdf-syntax-ns#"
   xmlns:svg="http://www.w3.org/2000/svg"
   xmlns="http://www.w3.org/2000/svg"
   xmlns:sodipodi="http://sodipodi.sourceforge.net/DTD/sodipodi-0.dtd"
   xmlns:inkscape="http://www.inkscape.org/namespaces/inkscape"
   version="1.1"
   x="0px"
   y="0px"
   viewBox="0 0 26 26"
   style="enable-background:new 0 0 26 26;"
   xml:space="preserve"
   width="416px"
   height="416px"
   id="svg2536"
   sodipodi:docname="icons8_right_key_double.svg"
   inkscape:version="0.92.2 (5c3e80d, 2017-08-06)"><metadata
     id="metadata2542"><rdf:RDF><cc:Work
         rdf:about=""><dc:format>image/svg+xml</dc:format><dc:type
           rdf:resource="http://purl.org/dc/dcmitype/StillImage" /><dc:title></dc:title></cc:Work></rdf:RDF></metadata><defs
     id="defs2540" /><sodipodi:namedview
     pagecolor="#ffffff"
     bordercolor="#666666"
     borderopacity="1"
     objecttolerance="10"
     gridtolerance="10"
     guidetolerance="10"
     inkscape:pageopacity="0"
     inkscape:pageshadow="2"
     inkscape:window-width="737"
     inkscape:window-height="480"
     id="namedview2538"
     showgrid="false"
     inkscape:zoom="0.40114712"
     inkscape:cx="98.210776"
     inkscape:cy="213.11097"
     inkscape:window-x="0"
     inkscape:window-y="0"
     inkscape:window-maximized="0"
     inkscape:current-layer="svg2536" /><path
     d="m 1.7851809,9.4419681 13.2800001,-1 v -3.149 c 0,-0.328 0.16,-0.574 0.48,-0.82 0.32,-0.082 0.64,-0.082 0.88,0.082 3.28,2.296 6.4,6.1439999 6.48,6.3079999 0.078,0.159 0.152,0.393 0.157,0.556 0,0.005 0.003,0.012 0.003,0.017 0,0 0,0 0,0 0,0 0,0 0,0 0,0.164 -0.08,0.41 -0.16,0.492 -0.08,0.164 -3.12,4.023 -6.48,6.319 -0.32,0.164 -0.64,0.246 -0.88,0.082 -0.32,-0.163 -0.48,-0.409 -0.48,-0.737 v -3.15 l -13.2800001,-1 c -0.4,-0.32 -0.72,-1.126 -0.72,-2.006 0,-0.8 0.24,-1.6739999 0.72,-1.9939999 z"
     id="path2534"
     style="fill:#808080"
     inkscape:connector-curvature="0" /><ellipse
     cx="20.822035"
     cy="22.47007"
     id="circle828-8"
     style="fill:#808080;stroke-width:0.32035714"
     rx="1.8621893"
     ry="1.9840273" /><path
     style="fill:none;stroke:#808080;stroke-width:0.64071429;stroke-linecap:round;stroke-linejoin:round;stroke-miterlimit:10;stroke-opacity:1"
     d="m 24.778255,21.627189 c -0.368094,-1.97047 -1.99875,-3.455844 -3.956221,-3.455844 -1.957471,0 -3.588128,1.485374 -3.956221,3.455844"
     id="path830"
     inkscape:connector-curvature="0" /><path
     style="fill:none;stroke:#808080;stroke-width:0.64071429;stroke-linecap:round;stroke-linejoin:round;stroke-miterlimit:10;stroke-opacity:1"
     d="m 23.561003,21.886436 c -0.254808,-1.364019 -1.383916,-2.392406 -2.738969,-2.392406 -1.355054,0 -2.484161,1.028387 -2.738969,2.392406"
     id="path832-4"
     inkscape:connector-curvature="0" /></svg>