<?xml version="1.0" encoding="utf-8"?>
<!-- Generator: Adobe Illustrator 16.0.0, SVG Export Plug-In . SVG Version: 6.00 Build 0)  -->
<!DOCTYPE svg PUBLIC "-//W3C//DTD SVG 1.1//EN" "http://www.w3.org/Graphics/SVG/1.1/DTD/svg11.dtd">
<svg xmlns="http://www.w3.org/2000/svg" xmlns:xlink="http://www.w3.org/1999/xlink" version="1.1" id="Layer_1" x="0px" y="0px" width="416px" height="416px" viewBox="0 0 26 26" enable-background="new 0 0 26 26" xml:space="preserve">

<g>
	<g>
		<path fill="#808080" d="M14,2v12H2V2H14 M14.315,0H1.685C0.754,0,0,0.754,0,1.684v12.632C0,15.246,0.754,16,1.685,16h12.631    C15.246,16,16,15.246,16,14.316V1.684C16,0.754,15.246,0,14.315,0L14.315,0z"/>
	</g>
	<path fill="#808080" d="M24.315,10H11.685C10.754,10,10,10.754,10,11.684v12.632C10,25.246,10.754,26,11.685,26h12.631   C25.246,26,26,25.246,26,24.316V11.684C26,10.754,25.246,10,24.315,10z M20.355,22.631l-0.698-2.008h-3.322l-0.69,2.008h-2.146   l3.457-9.309h2.104l3.442,9.309H20.355z M18.024,15.879l1.133,3.281h-2.314l1.14-3.281H18.024z"/>
</g>
<polygon fill="#808080" points="9,4 9,3 7,3 7,4 3,4 3,6 13,6 13,4 "/>
<path fill="none" stroke="#808080" stroke-width="2" stroke-linecap="round" stroke-linejoin="round" stroke-miterlimit="10" d="  M4.105,12.153c0,0,4.533-1.621,6.771-6.105"/>
<path fill="none" stroke="#808080" stroke-width="2" stroke-linecap="round" stroke-linejoin="round" stroke-miterlimit="10" d="  M5.471,6.966c0,0,0.995,2.161,4.784,4.322"/>
<polygon fill="#808080" points="4,16 4,19 7,19 7,16 8,16 5.5,13.5 3,16 "/>
<polygon fill="#808080" points="10,19 4,19 7,22 10,22 10,23 12.5,20.5 10,18 "/>
</svg>
