<?xml version="1.0" encoding="UTF-8" standalone="no"?>
<!-- Generator: Adobe Illustrator 15.0.0, SVG Export Plug-In . SVG Version: 6.00 Build 0)  -->

<svg
   xmlns:dc="http://purl.org/dc/elements/1.1/"
   xmlns:cc="http://creativecommons.org/ns#"
   xmlns:rdf="http://www.w3.org/1999/02/22-rdf-syntax-ns#"
   xmlns:svg="http://www.w3.org/2000/svg"
   xmlns="http://www.w3.org/2000/svg"
   xmlns:sodipodi="http://sodipodi.sourceforge.net/DTD/sodipodi-0.dtd"
   xmlns:inkscape="http://www.inkscape.org/namespaces/inkscape"
   version="1.1"
   id="Layer_1"
   x="0px"
   y="0px"
   width="416px"
   height="416px"
   viewBox="0 0 26 26"
   enable-background="new 0 0 26 26"
   xml:space="preserve"
   sodipodi:docname="icons8-folder-star-arrow.svg"
   inkscape:version="0.92.2 (5c3e80d, 2017-08-06)"><metadata
     id="metadata4750"><rdf:RDF><cc:Work
         rdf:about=""><dc:format>image/svg+xml</dc:format><dc:type
           rdf:resource="http://purl.org/dc/dcmitype/StillImage" /><dc:title></dc:title></cc:Work></rdf:RDF></metadata><defs
     id="defs4748" /><sodipodi:namedview
     pagecolor="#ffffff"
     bordercolor="#666666"
     borderopacity="1"
     objecttolerance="10"
     gridtolerance="10"
     guidetolerance="10"
     inkscape:pageopacity="0"
     inkscape:pageshadow="2"
     inkscape:window-width="737"
     inkscape:window-height="480"
     id="namedview4746"
     showgrid="false"
     inkscape:zoom="0.40114712"
     inkscape:cx="258.44014"
     inkscape:cy="128.17104"
     inkscape:window-x="331"
     inkscape:window-y="243"
     inkscape:window-maximized="0"
     inkscape:current-layer="Layer_1" /><path
     d="M 17.937494,5.7622683 H 2.3396732 C 1.0481736,5.7622683 0,6.8877645 0,8.2745366 V 19.998455 c 0,1.386772 1.0481736,2.512268 2.3396732,2.512268 H 17.937494 c 1.2915,0 2.339674,-1.125496 2.339674,-2.512268 V 8.2745366 c 0,-1.3867721 -1.048174,-2.5122683 -2.339674,-2.5122683 z m 0.779891,14.2361867 c 0,0.462258 -0.349391,0.837423 -0.779891,0.837423 H 2.3396732 c -0.4304999,0 -0.7798911,-0.375165 -0.7798911,-0.837423 V 8.2745366 c 0,-0.4622574 0.3493912,-0.8374228 0.7798911,-0.8374228 H 17.937494 c 0.4305,0 0.779891,0.3751654 0.779891,0.8374228 z"
     id="path4741"
     style="fill:#808080;stroke-width:0.80814511"
     inkscape:connector-curvature="0" /><path
     d="M 6.2391285,3.25 H 2.3396732 C 1.0481736,3.25 0,4.3754962 0,5.7622683 v 3.349691 c 0,0 0.2355271,-2.5122683 2.3396732,-2.5122683 H 8.5788017 V 5.7622683 C 8.5788017,4.3754962 7.5306281,3.25 6.2391285,3.25 Z"
     id="path4743"
     style="fill:#808080;stroke-width:0.80814511"
     inkscape:connector-curvature="0" /><polygon
     transform="matrix(0.41599782,0,0,0.43078578,4.7735723,8.429819)"
     style="fill:none;stroke:#808080;stroke-width:2;stroke-linecap:round;stroke-linejoin:round;stroke-miterlimit:10;stroke-opacity:1"
     stroke-miterlimit="10"
     points="1.625,10.446 7.313,15.99 5.97,23.818 13,20.123 20.03,23.818 18.688,15.99 24.375,10.446 16.516,9.305 13,2.182 9.484,9.305 "
     id="polygon4721" /><path
     style="fill:#808080;stroke-width:0.49995002"
     inkscape:connector-curvature="0"
     d="m 16.083356,12.929807 6.154873,-0.539302 v -1.698263 c 0,-0.17689 0.07416,-0.30956 0.222464,-0.442228 0.148311,-0.04423 0.296621,-0.04423 0.407854,0.04422 1.520179,1.238238 2.966203,3.313474 3.003281,3.401919 0.03616,0.08575 0.07045,0.211946 0.07277,0.299852 0,0.0027 0.0014,0.0064 0.0014,0.0092 0,0 0,0 0,0 0,0 0,0 0,0 0,0.08844 -0.03708,0.221114 -0.07416,0.265336 -0.03708,0.08845 -1.446023,2.169614 -3.003281,3.407851 -0.148324,0.08844 -0.296634,0.132667 -0.407866,0.04422 -0.148311,-0.08845 -0.222465,-0.221114 -0.222465,-0.398006 V 15.625813 L 16.083351,15.08651 c -0.185388,-0.172038 -0.333699,-0.606715 -0.333699,-1.081301 0,-0.431442 0.111233,-0.902792 0.333699,-1.075368 z"
     id="path847" /></svg>