<?xml version="1.0" encoding="UTF-8" standalone="no"?>
<svg
   xmlns:dc="http://purl.org/dc/elements/1.1/"
   xmlns:cc="http://creativecommons.org/ns#"
   xmlns:rdf="http://www.w3.org/1999/02/22-rdf-syntax-ns#"
   xmlns:svg="http://www.w3.org/2000/svg"
   xmlns="http://www.w3.org/2000/svg"
   xmlns:sodipodi="http://sodipodi.sourceforge.net/DTD/sodipodi-0.dtd"
   xmlns:inkscape="http://www.inkscape.org/namespaces/inkscape"
   version="1.1"
   viewBox="0 0 252 252"
   width="416px"
   height="416px"
   id="svg857"
   sodipodi:docname="icons8_moving_sensor.svg"
   inkscape:version="1.0.1 (3bc2e813f5, 2020-09-07)">
  <metadata
     id="metadata863">
    <rdf:RDF>
      <cc:Work
         rdf:about="">
        <dc:format>image/svg+xml</dc:format>
        <dc:type
           rdf:resource="http://purl.org/dc/dcmitype/StillImage" />
        <dc:title></dc:title>
      </cc:Work>
    </rdf:RDF>
  </metadata>
  <defs
     id="defs861" />
  <sodipodi:namedview
     pagecolor="#ffffff"
     bordercolor="#666666"
     borderopacity="1"
     objecttolerance="10"
     gridtolerance="10"
     guidetolerance="10"
     inkscape:pageopacity="0"
     inkscape:pageshadow="2"
     inkscape:window-width="1920"
     inkscape:window-height="1017"
     id="namedview859"
     showgrid="false"
     inkscape:zoom="0.35652799"
     inkscape:cx="212.98818"
     inkscape:cy="-338.24861"
     inkscape:window-x="-8"
     inkscape:window-y="-8"
     inkscape:window-maximized="1"
     inkscape:current-layer="svg857"
     inkscape:document-rotation="0" />
  <path
     inkscape:connector-curvature="0"
     d="m 107.27184,149.99985 c 0,2.82628 -2.28431,5.12938 -5.08756,5.12938 H 66.571369 c -2.803237,0 -5.087565,-2.3031 -5.087565,-5.12938 v -41.03508 c 0,-2.82631 2.284328,-5.12939 5.087565,-5.12939 h 35.612911 c 2.80325,0 5.08756,2.30308 5.08756,5.12939 z"
     id="path880"
     style="fill:#808080;stroke-width:5.10843" />
  <path
     inkscape:connector-curvature="0"
     d="m 83.456975,149.34842 c -0.931011,-0.80533 -1.622924,-2.78013 -1.622924,-4.48308 v -30.76606 c 0,-1.70296 0.691913,-3.71367 1.622924,-4.519 L 117.58431,70.67391 c 4.39565,-4.426664 10.03776,-2.744229 10.03776,3.749571 V 183.58194 c 0,6.99133 -5.1079,9.6381 -10.19546,4.50872 z"
     id="path882"
     style="fill:#808080;stroke-width:5.10843" />
  <path
     inkscape:connector-curvature="0"
     d="m 161.9501,101.05878 c -17.1941,0 -31.13213,13.48382 -31.13213,30.11764 0,16.63384 13.93803,30.12002 31.13213,30.12002 17.19412,0 31.13457,-13.48618 31.13457,-30.12002 0,-16.63382 -13.94045,-30.11764 -31.13457,-30.11764 z m 14.04495,40.4468 -3.37273,3.26047 c -0.61721,0.59944 -1.62805,0.59944 -2.24524,0 l -8.42698,-8.15236 -8.42453,8.15002 c -0.61962,0.59942 -1.62804,0.59942 -2.24767,-0.005 l -3.37272,-3.25322 c -0.61477,-0.6018 -0.61477,-1.57265 0,-2.17679 l 8.42695,-8.15001 -8.42455,-8.15002 c -0.61717,-0.60178 -0.61717,-1.57969 0,-2.17443 l 3.37276,-3.26281 c 0.61962,-0.60416 1.63046,-0.60416 2.24767,0 l 8.42209,8.15235 8.42698,-8.15235 c 0.6196,-0.60416 1.63047,-0.60416 2.24524,0 l 3.37273,3.25811 c 0.61718,0.59944 0.61718,1.57735 0.001,2.17913 l -8.42699,8.15002 8.42699,8.15001 c 0.61232,0.60414 0.61232,1.57499 -0.001,2.17679 z"
     id="path1455"
     style="fill:#808080;stroke-width:2.39" />
  <path
     style="fill:none;stroke:#808080;stroke-width:9.97238;stroke-linecap:round;stroke-linejoin:round;stroke-miterlimit:10;stroke-opacity:1"
     d="m 187.56125,191.00065 c 13.74887,-3.07441 24.11468,-26.65321 24.11468,-59.22021 0,-32.567008 -9.56053,-56.654076 -24.11468,-62.269817"
     id="path832"
     sodipodi:nodetypes="csc" />
  <path
     style="fill:none;stroke:#808080;stroke-width:9.97238;stroke-linecap:round;stroke-linejoin:round;stroke-miterlimit:10;stroke-opacity:1"
     d="m 212.43788,191.07214 c 13.74887,-3.07442 24.11469,-26.65323 24.11469,-59.22022 0,-32.567008 -9.56053,-56.654069 -24.11469,-62.269821"
     id="path832-4"
     sodipodi:nodetypes="csc" />
  <path
     style="fill:none;stroke:#808080;stroke-width:9.97238;stroke-linecap:round;stroke-linejoin:round;stroke-miterlimit:10;stroke-opacity:1"
     d="m 64.211978,189.29999 c -13.748863,-3.07441 -24.114685,-26.65321 -24.114685,-59.22021 0,-32.567012 9.560531,-56.654078 24.114685,-62.269819"
     id="path832-6"
     sodipodi:nodetypes="csc" />
  <path
     style="fill:none;stroke:#808080;stroke-width:9.97238;stroke-linecap:round;stroke-linejoin:round;stroke-miterlimit:10;stroke-opacity:1"
     d="m 39.335356,189.37146 c -13.748874,-3.07441 -24.114685,-26.6532 -24.114685,-59.22019 0,-32.567027 9.560519,-56.654092 24.114685,-62.269833"
     id="path832-4-5"
     sodipodi:nodetypes="csc" />
</svg>
