<?xml version="1.0" encoding="UTF-8" standalone="no"?>
<!-- Generator: Adobe Illustrator 15.0.0, SVG Export Plug-In . SVG Version: 6.00 Build 0)  -->

<svg
   xmlns:dc="http://purl.org/dc/elements/1.1/"
   xmlns:cc="http://creativecommons.org/ns#"
   xmlns:rdf="http://www.w3.org/1999/02/22-rdf-syntax-ns#"
   xmlns:svg="http://www.w3.org/2000/svg"
   xmlns="http://www.w3.org/2000/svg"
   xmlns:sodipodi="http://sodipodi.sourceforge.net/DTD/sodipodi-0.dtd"
   xmlns:inkscape="http://www.inkscape.org/namespaces/inkscape"
   version="1.1"
   id="Layer_1"
   x="0px"
   y="0px"
   width="416px"
   height="416px"
   viewBox="0 0 26 26"
   enable-background="new 0 0 26 26"
   xml:space="preserve"
   sodipodi:docname="icons8_book_edit.svg"
   inkscape:version="0.92.3 (2405546, 2018-03-11)"><metadata
     id="metadata835"><rdf:RDF><cc:Work
         rdf:about=""><dc:format>image/svg+xml</dc:format><dc:type
           rdf:resource="http://purl.org/dc/dcmitype/StillImage" /><dc:title></dc:title></cc:Work></rdf:RDF></metadata><defs
     id="defs833" /><sodipodi:namedview
     pagecolor="#ffffff"
     bordercolor="#666666"
     borderopacity="1"
     objecttolerance="10"
     gridtolerance="10"
     guidetolerance="10"
     inkscape:pageopacity="0"
     inkscape:pageshadow="2"
     inkscape:window-width="1850"
     inkscape:window-height="1016"
     id="namedview831"
     showgrid="false"
     inkscape:zoom="0.53725962"
     inkscape:cx="191.50075"
     inkscape:cy="212.69662"
     inkscape:window-x="70"
     inkscape:window-y="27"
     inkscape:window-maximized="1"
     inkscape:current-layer="Layer_1" /><path
     stroke-miterlimit="10"
     d="m 21.781716,8.6729843 c -0.506056,1.2671068 0,2.4013067 0,2.4013067 L 13.180531,21.661053 2.6377109,18.462304 c 0,0 -1.75713675,-0.766011 -1.75713675,-3.087394 0,-3.21132 2.70686915,-2.482128 2.70686915,-2.482128"
     id="path826"
     style="fill:none;stroke:#808080;stroke-width:1.77648222;stroke-linecap:round;stroke-linejoin:round;stroke-miterlimit:10;stroke-opacity:1"
     inkscape:connector-curvature="0" /><path
     d="M 22.704213,4.2098231 C 22.599663,3.899108 22.342242,3.6683168 22.029472,3.5982712 L 11.097446,1.1026726 C 10.768861,1.032627 10.425341,1.1466756 10.203942,1.4079995 L 1.1142733,11.749602 C 0.90605263,11.992966 0.33146891,12.933193 0.15311953,14.154501 0.66005348,13.512416 1.2653871,13.191823 1.5711289,13.275339 l 10.7071131,3.124213 c 0.07907,0.02245 0.159899,0.03233 0.238092,0.03233 0.273234,0 0.536805,-0.123926 0.713397,-0.344839 L 22.546949,5.1177217 c 0.203828,-0.2541398 0.26357,-0.5980816 0.157264,-0.9078986 z M 17.699887,6.8850258 16.999668,7.732757 C 16.804626,7.9680383 16.35392,8.084781 15.993707,7.997673 L 9.4677015,6.3722561 C 9.108367,6.2842501 8.9730675,6.0202321 9.1645954,5.7885429 L 9.8665715,4.9363216 C 10.059857,4.7028363 10.511441,4.5860936 10.871654,4.6740996 l 6.526006,1.6227228 c 0.357577,0.088006 0.494634,0.352922 0.302227,0.5882034 z"
     id="path828"
     style="fill:#808080;stroke-width:0.88824111"
     inkscape:connector-curvature="0" /><path
     style="fill:#808080;fill-opacity:1;fill-rule:nonzero;stroke:none;stroke-width:0.69664723"
     d="m 23.437125,14.998709 c -0.220854,0 -0.449787,0.08798 -0.616774,0.261204 l -0.974987,0.995323 2.440161,2.513054 0.996534,-1.017319 c 0.336666,-0.34094 0.339361,-0.890842 0,-1.234531 l -1.230854,-1.256527 c -0.16968,-0.173219 -0.39592,-0.261204 -0.61408,-0.261204 z m -2.483256,2.015392 -3.969974,4.072028 c -0.04848,0.04674 -0.107734,0.10173 -0.126587,0.173218 l -0.848401,2.966724 c -0.01077,0.03574 -0.02155,0.07423 -0.02155,0.109981 0,0.09623 0.03771,0.189715 0.10504,0.258454 0.09427,0.09624 0.23432,0.126477 0.360907,0.08798 l 2.930348,-0.866097 c 0.07003,-0.02199 0.123893,-0.07699 0.169679,-0.131977 l 3.967283,-4.05003 z m -3.439388,4.613682 1.252401,0.258452 0.255867,1.256529 -1.656401,0.500411 -0.33936,-0.346439 z"
     id="path18548"
     inkscape:connector-curvature="0"
     sodipodi:nodetypes="scccccssccccscccccccccccc" /></svg>