<?xml version="1.0" encoding="UTF-8" standalone="no"?>
<svg
   xmlns:dc="http://purl.org/dc/elements/1.1/"
   xmlns:cc="http://creativecommons.org/ns#"
   xmlns:rdf="http://www.w3.org/1999/02/22-rdf-syntax-ns#"
   xmlns:svg="http://www.w3.org/2000/svg"
   xmlns="http://www.w3.org/2000/svg"
   xmlns:sodipodi="http://sodipodi.sourceforge.net/DTD/sodipodi-0.dtd"
   xmlns:inkscape="http://www.inkscape.org/namespaces/inkscape"
   width="500px"
   height="500px"
   viewBox="0 0 26 26"
   version="1.1"
   id="svg829"
   sodipodi:docname="icons8-change-theme-1.svg"
   inkscape:version="0.92.2 (5c3e80d, 2017-08-06)">
  <metadata
     id="metadata835">
    <rdf:RDF>
      <cc:Work
         rdf:about="">
        <dc:format>image/svg+xml</dc:format>
        <dc:type
           rdf:resource="http://purl.org/dc/dcmitype/StillImage" />
      </cc:Work>
    </rdf:RDF>
  </metadata>
  <defs
     id="defs833" />
  <sodipodi:namedview
     pagecolor="#ffffff"
     bordercolor="#666666"
     borderopacity="1"
     objecttolerance="10"
     gridtolerance="10"
     guidetolerance="10"
     inkscape:pageopacity="0"
     inkscape:pageshadow="2"
     inkscape:window-width="737"
     inkscape:window-height="480"
     id="namedview831"
     showgrid="false"
     inkscape:zoom="0.31607673"
     inkscape:cx="302.23084"
     inkscape:cy="329.10376"
     inkscape:window-x="0"
     inkscape:window-y="0"
     inkscape:window-maximized="1"
     inkscape:current-layer="svg829" />
  <g
     id="surface1"
     style="fill:#808080">
    <path
       style="stroke:none;fill-rule:nonzero;fill:#808080;fill-opacity:1"
       d="M 1.96875 0 C 1.453125 0 0.925781 0.179688 0.554688 0.554688 C 0.179688 0.925781 0 1.453125 0 1.96875 L 0 13.789063 C 0 14.304688 0.179688 14.832031 0.554688 15.203125 C 0.925781 15.578125 1.453125 15.757813 1.96875 15.757813 L 8.1875 15.757813 L 8.1875 13.789063 L 1.96875 13.789063 L 1.96875 3.9375 L 15.757813 3.9375 L 15.757813 8.863281 L 17.726563 8.863281 L 17.726563 1.96875 C 17.726563 1.453125 17.546875 0.925781 17.171875 0.554688 C 16.800781 0.179688 16.273438 0 15.757813 0 Z M 3.9375 6.894531 L 3.9375 10.832031 L 7.878906 10.832031 L 7.878906 6.894531 Z M 9.847656 6.894531 L 9.847656 9.265625 C 9.847656 9.265625 10.144531 8.863281 10.832031 8.863281 L 13.789063 8.863281 L 13.789063 6.894531 Z M 10.832031 9.847656 C 10.316406 9.847656 9.789063 10.03125 9.417969 10.402344 C 9.042969 10.777344 8.863281 11.300781 8.863281 11.816406 L 8.863281 23.636719 C 8.863281 24.152344 9.042969 24.679688 9.417969 25.050781 C 9.789063 25.425781 10.316406 25.605469 10.832031 25.605469 L 23.636719 25.605469 C 24.152344 25.605469 24.679688 25.425781 25.050781 25.050781 C 25.425781 24.679688 25.605469 24.152344 25.605469 23.636719 L 25.605469 11.816406 C 25.605469 11.300781 25.425781 10.777344 25.050781 10.402344 C 24.679688 10.03125 24.152344 9.847656 23.636719 9.847656 Z M 10.832031 11.816406 L 23.636719 11.816406 L 23.636719 13.789063 L 10.832031 13.789063 Z M 11.816406 17.726563 L 15.757813 17.726563 L 15.757813 21.667969 L 11.816406 21.667969 Z M 18.710938 17.726563 L 22.652344 17.726563 L 22.652344 21.667969 L 18.710938 21.667969 Z "
       id="path826" />
  </g>
</svg>
