<?xml version="1.0" encoding="UTF-8" standalone="no"?>
<!-- Generator: Adobe Illustrator 15.0.0, SVG Export Plug-In . SVG Version: 6.00 Build 0)  -->

<svg
   xmlns:dc="http://purl.org/dc/elements/1.1/"
   xmlns:cc="http://creativecommons.org/ns#"
   xmlns:rdf="http://www.w3.org/1999/02/22-rdf-syntax-ns#"
   xmlns:svg="http://www.w3.org/2000/svg"
   xmlns="http://www.w3.org/2000/svg"
   xmlns:sodipodi="http://sodipodi.sourceforge.net/DTD/sodipodi-0.dtd"
   xmlns:inkscape="http://www.inkscape.org/namespaces/inkscape"
   version="1.1"
   id="Layer_1"
   x="0px"
   y="0px"
   width="416px"
   height="416px"
   viewBox="0 0 26 26"
   enable-background="new 0 0 26 26"
   xml:space="preserve"
   sodipodi:docname="icons8-position-to-gd-interval.svg"
   inkscape:version="0.92.2 (5c3e80d, 2017-08-06)"><metadata
     id="metadata861"><rdf:RDF><cc:Work
         rdf:about=""><dc:format>image/svg+xml</dc:format><dc:type
           rdf:resource="http://purl.org/dc/dcmitype/StillImage" /><dc:title></dc:title></cc:Work></rdf:RDF></metadata><defs
     id="defs859" /><sodipodi:namedview
     pagecolor="#ffffff"
     bordercolor="#666666"
     borderopacity="1"
     objecttolerance="10"
     gridtolerance="10"
     guidetolerance="10"
     inkscape:pageopacity="0"
     inkscape:pageshadow="2"
     inkscape:window-width="1786"
     inkscape:window-height="1061"
     id="namedview857"
     showgrid="false"
     inkscape:zoom="0.80229424"
     inkscape:cx="246.5991"
     inkscape:cy="110.50048"
     inkscape:window-x="-4"
     inkscape:window-y="-4"
     inkscape:window-maximized="1"
     inkscape:current-layer="Layer_1" /><polygon
     transform="matrix(0,0.23063669,-0.32469357,0,24.722972,8.4718964)"
     style="fill:#808080"
     points="25.906,13 12,4.061 12,21.938 "
     id="polygon858" /><rect
     x="-12.937429"
     style="fill:#808080;stroke-width:0.30102435"
     y="-21.859388"
     width="4.744369"
     height="2.5975487"
     id="rect856-6"
     transform="matrix(0,-1,-1,0,0,0)" /><g
     transform="matrix(0.39873449,0,0,0.39186171,15.49174,14.747327)"
     id="surface1"
     style="fill:#808080"><path
       inkscape:connector-curvature="0"
       style="fill:#808080;fill-opacity:1;fill-rule:nonzero;stroke:none"
       d="M 17.289063,1.96875 H 8.316406 L 0,16.078125 4.160156,23.988281 h 16.796875 l 4.648438,-8.398437 z M 24.160156,15.601563 15.15625,12.28125 10.214844,3.207031 h 6.378906 z m -13.851562,-0.585938 2.574219,-4.222656 2.414062,4.222656 z M 9.023438,3.207031 h 0.023437 l 1.695313,8.726563 -6.328125,9.871094 -3,-5.691407 z M 20.226563,22.75 H 4.910156 l -0.00391,-0.0039 7.886719,-6.488281 11.03125,-0.0039 z"
       id="path826" /></g><path
     inkscape:connector-curvature="0"
     d="m 9.2587875,1.0688558 c -3.8300801,0 -6.9356944,2.9366691 -6.9356944,6.5583912 0,3.621724 6.0478687,10.082731 6.0478687,14.954512 h 1.7756512 c 0,-4.85583 6.048758,-11.627462 6.048758,-14.954512 0,-3.6217221 -3.106503,-6.5583912 -6.9365835,-6.5583912 z m 0,9.2465602 c -1.5696758,0 -2.8428179,-1.2047229 -2.8428179,-2.688169 0,-1.4834451 1.2731421,-2.6881673 2.8428179,-2.6881673 1.5696755,0 2.8428175,1.2038819 2.8428175,2.6881673 0,1.4842861 -1.273142,2.688169 -2.8428175,2.688169 z"
     id="path1411"
     style="fill:#808080;stroke-width:0.86333913" /><g
     transform="matrix(0.53878559,0,0,0.54412625,12.149284,-2.7585616)"
     id="g850"
     style="fill:#808080"><path
       inkscape:connector-curvature="0"
       d="m 14.1,9 v 8.6 h -1.8 v -6.5 c -0.6,0.5 -1.6,0.7 -1.8,0.7 V 10.2 C 11,10.1 12.2,9.6 13,8.9 h 1.1 z"
       id="path848"
       style="fill:#808080" /></g><g
     transform="matrix(0.56719129,0,0,0.56089449,14.699037,-2.9577995)"
     id="g1437"
     style="fill:#808080"><path
       inkscape:connector-curvature="0"
       d="m 12.2,15.9 h 3.6 v 1.5 h -5.6 v -0.6 c 0,-2.7 2.5,-2.9 3.6,-4.8 0.2,-0.3 0.3,-1.6 -1.1,-1.6 -0.7,0 -1.4,0.3 -2.1,0.9 V 9.6 c 0.7,-0.5 1.6,-0.7 2.5,-0.7 0.8,0 2.7,0.3 2.7,2.4 0,2.7 -3.6,3.6 -3.6,4.6 z"
       id="path1435"
       style="fill:#808080" /></g></svg>