<?xml version="1.0" encoding="UTF-8" standalone="no"?>
<!-- Generator: Adobe Illustrator 15.0.0, SVG Export Plug-In . SVG Version: 6.00 Build 0)  -->

<svg
   xmlns:dc="http://purl.org/dc/elements/1.1/"
   xmlns:cc="http://creativecommons.org/ns#"
   xmlns:rdf="http://www.w3.org/1999/02/22-rdf-syntax-ns#"
   xmlns:svg="http://www.w3.org/2000/svg"
   xmlns="http://www.w3.org/2000/svg"
   xmlns:sodipodi="http://sodipodi.sourceforge.net/DTD/sodipodi-0.dtd"
   xmlns:inkscape="http://www.inkscape.org/namespaces/inkscape"
   version="1.1"
   id="Layer_1"
   x="0px"
   y="0px"
   width="416px"
   height="416px"
   viewBox="0 0 26 26"
   enable-background="new 0 0 26 26"
   xml:space="preserve"
   sodipodi:docname="icons8-folder-star.svg"
   inkscape:version="0.92.2 (5c3e80d, 2017-08-06)"><metadata
     id="metadata4750"><rdf:RDF><cc:Work
         rdf:about=""><dc:format>image/svg+xml</dc:format><dc:type
           rdf:resource="http://purl.org/dc/dcmitype/StillImage" /></cc:Work></rdf:RDF></metadata><defs
     id="defs4748" /><sodipodi:namedview
     pagecolor="#ffffff"
     bordercolor="#666666"
     borderopacity="1"
     objecttolerance="10"
     gridtolerance="10"
     guidetolerance="10"
     inkscape:pageopacity="0"
     inkscape:pageshadow="2"
     inkscape:window-width="737"
     inkscape:window-height="480"
     id="namedview4746"
     showgrid="false"
     inkscape:zoom="0.80229423"
     inkscape:cx="184.06275"
     inkscape:cy="123.95693"
     inkscape:window-x="331"
     inkscape:window-y="243"
     inkscape:window-maximized="0"
     inkscape:current-layer="Layer_1" /><path
     fill="#000000"
     d="M23,5H3C1.344,5,0,6.344,0,8v14c0,1.656,1.344,3,3,3h20c1.656,0,3-1.344,3-3V8C26,6.344,24.656,5,23,5z   M24,22c0,0.552-0.448,1-1,1H3c-0.552,0-1-0.448-1-1V8c0-0.552,0.448-1,1-1h20c0.552,0,1,0.448,1,1V22z"
     id="path4741"
     style="fill:#808080" /><path
     fill="#000000"
     d="M8,2H3C1.344,2,0,3.344,0,5v4c0,0,0.302-3,3-3h8V5C11,3.344,9.656,2,8,2z"
     id="path4743"
     style="fill:#808080" /><polygon
     transform="matrix(0.53340503,0,0,0.51441853,6.1208194,8.185429)"
     style="fill:none;stroke:#808080;stroke-width:2;stroke-linecap:round;stroke-linejoin:round;stroke-miterlimit:10;stroke-opacity:1"
     stroke-miterlimit="10"
     points="13,20.123 20.03,23.818 18.688,15.99 24.375,10.446 16.516,9.305 13,2.182 9.484,9.305 1.625,10.446 7.313,15.99 5.97,23.818 "
     id="polygon4721" /></svg>