<?xml version="1.0" encoding="UTF-8" standalone="no"?>
<svg
   xmlns:dc="http://purl.org/dc/elements/1.1/"
   xmlns:cc="http://creativecommons.org/ns#"
   xmlns:rdf="http://www.w3.org/1999/02/22-rdf-syntax-ns#"
   xmlns:svg="http://www.w3.org/2000/svg"
   xmlns="http://www.w3.org/2000/svg"
   xmlns:sodipodi="http://sodipodi.sourceforge.net/DTD/sodipodi-0.dtd"
   xmlns:inkscape="http://www.inkscape.org/namespaces/inkscape"
   width="104pt"
   height="104pt"
   viewBox="0 0 104 104"
   version="1.1"
   id="svg5"
   sodipodi:docname="icons8_help.svg"
   inkscape:version="1.0.2 (e86c870879, 2021-01-15)">
  <metadata
     id="metadata11">
    <rdf:RDF>
      <cc:Work
         rdf:about="">
        <dc:format>image/svg+xml</dc:format>
        <dc:type
           rdf:resource="http://purl.org/dc/dcmitype/StillImage" />
      </cc:Work>
    </rdf:RDF>
  </metadata>
  <defs
     id="defs9" />
  <sodipodi:namedview
     pagecolor="#ffffff"
     bordercolor="#666666"
     borderopacity="1"
     objecttolerance="10"
     gridtolerance="10"
     guidetolerance="10"
     inkscape:pageopacity="0"
     inkscape:pageshadow="2"
     inkscape:window-width="1920"
     inkscape:window-height="995"
     id="namedview7"
     showgrid="false"
     inkscape:zoom="5.7692308"
     inkscape:cx="69.333333"
     inkscape:cy="69.333333"
     inkscape:window-x="0"
     inkscape:window-y="0"
     inkscape:window-maximized="1"
     inkscape:current-layer="svg5" />
  <g
     id="surface1"
     style="fill:#808080">
    <path
       style="stroke:none;fill-rule:nonzero;fill:#808080;fill-opacity:1"
       d="M 51.210938 4.679688 C 25.515625 4.679688 4.679688 25.515625 4.679688 51.210938 C 4.679688 76.910156 25.515625 97.746094 51.210938 97.746094 C 76.910156 97.746094 97.746094 76.910156 97.746094 51.210938 C 97.746094 25.515625 76.910156 4.679688 51.210938 4.679688 Z M 50.996094 79.632813 C 47.289063 79.632813 44.363281 76.710938 44.363281 73 C 44.363281 69.292969 47.289063 66.371094 50.996094 66.371094 C 54.691406 66.371094 57.644531 69.292969 57.644531 73 C 57.644531 76.710938 54.707031 79.632813 50.996094 79.632813 Z M 60.769531 49.566406 L 56.445313 53.320313 C 53.183594 56.183594 53.734375 57.582031 53.734375 59.335938 L 48.886719 59.335938 L 48.886719 57.566406 C 48.886719 49.027344 57.042969 47.550781 57.042969 34.929688 C 57.042969 30.085938 55.460938 27.867188 51.425781 27.867188 C 47.71875 27.867188 46.058594 29.683594 46.59375 34.054688 C 46.917969 36.808594 44.148438 37.902344 42.332031 37.902344 C 40.285156 37.902344 38.546875 35.855469 38.546875 33.085938 C 38.546875 28.390625 43.472656 23.46875 52.042969 23.46875 C 60.382813 23.46875 67.664063 27.238281 67.664063 36.316406 C 67.675781 41.933594 65.617188 45.332031 60.769531 49.566406 Z "
       id="path2" />
  </g>
</svg>
