<?xml version="1.0" encoding="UTF-8" standalone="no"?>
<!-- Generator: Adobe Illustrator 15.0.0, SVG Export Plug-In . SVG Version: 6.00 Build 0)  -->

<svg
   xmlns:dc="http://purl.org/dc/elements/1.1/"
   xmlns:cc="http://creativecommons.org/ns#"
   xmlns:rdf="http://www.w3.org/1999/02/22-rdf-syntax-ns#"
   xmlns:svg="http://www.w3.org/2000/svg"
   xmlns="http://www.w3.org/2000/svg"
   xmlns:sodipodi="http://sodipodi.sourceforge.net/DTD/sodipodi-0.dtd"
   xmlns:inkscape="http://www.inkscape.org/namespaces/inkscape"
   version="1.1"
   id="Layer_1"
   x="0px"
   y="0px"
   width="416px"
   height="416px"
   viewBox="0 0 26 26"
   enable-background="new 0 0 26 26"
   xml:space="preserve"
   sodipodi:docname="icons8-book-minus.svg"
   inkscape:version="0.92.2 (5c3e80d, 2017-08-06)"><metadata
     id="metadata835"><rdf:RDF><cc:Work
         rdf:about=""><dc:format>image/svg+xml</dc:format><dc:type
           rdf:resource="http://purl.org/dc/dcmitype/StillImage" /><dc:title></dc:title></cc:Work></rdf:RDF></metadata><defs
     id="defs833" /><sodipodi:namedview
     pagecolor="#ffffff"
     bordercolor="#666666"
     borderopacity="1"
     objecttolerance="10"
     gridtolerance="10"
     guidetolerance="10"
     inkscape:pageopacity="0"
     inkscape:pageshadow="2"
     inkscape:window-width="1786"
     inkscape:window-height="1061"
     id="namedview831"
     showgrid="false"
     inkscape:zoom="0.53725962"
     inkscape:cx="191.50075"
     inkscape:cy="212.69662"
     inkscape:window-x="-4"
     inkscape:window-y="-4"
     inkscape:window-maximized="1"
     inkscape:current-layer="Layer_1" /><path
     stroke-miterlimit="10"
     d="m 21.781716,8.6729843 c -0.506056,1.2671068 0,2.4013067 0,2.4013067 L 13.180531,21.661053 2.6377109,18.462304 c 0,0 -1.75713675,-0.766011 -1.75713675,-3.087394 0,-3.21132 2.70686915,-2.482128 2.70686915,-2.482128"
     id="path826"
     style="fill:none;stroke:#808080;stroke-width:1.77648222;stroke-linecap:round;stroke-linejoin:round;stroke-miterlimit:10;stroke-opacity:1"
     inkscape:connector-curvature="0" /><path
     d="M 22.704213,4.2098231 C 22.599663,3.899108 22.342242,3.6683168 22.029472,3.5982712 L 11.097446,1.1026726 C 10.768861,1.032627 10.425341,1.1466756 10.203942,1.4079995 L 1.1142733,11.749602 C 0.90605263,11.992966 0.33146891,12.933193 0.15311953,14.154501 0.66005348,13.512416 1.2653871,13.191823 1.5711289,13.275339 l 10.7071131,3.124213 c 0.07907,0.02245 0.159899,0.03233 0.238092,0.03233 0.273234,0 0.536805,-0.123926 0.713397,-0.344839 L 22.546949,5.1177217 c 0.203828,-0.2541398 0.26357,-0.5980816 0.157264,-0.9078986 z M 17.699887,6.8850258 16.999668,7.732757 C 16.804626,7.9680383 16.35392,8.084781 15.993707,7.997673 L 9.4677015,6.3722561 C 9.108367,6.2842501 8.9730675,6.0202321 9.1645954,5.7885429 L 9.8665715,4.9363216 C 10.059857,4.7028363 10.511441,4.5860936 10.871654,4.6740996 l 6.526006,1.6227228 c 0.357577,0.088006 0.494634,0.352922 0.302227,0.5882034 z"
     id="path828"
     style="fill:#808080;stroke-width:0.88824111"
     inkscape:connector-curvature="0" /><path
     inkscape:connector-curvature="0"
     style="fill:#808080;stroke-width:0.45570275"
     d="m 21.17203,16.385486 c -2.611338,0 -4.728378,2.091 -4.728378,4.670216 0,2.579216 2.11704,4.670668 4.728378,4.670668 2.611338,0 4.728837,-2.091452 4.728837,-4.670668 0,-2.579216 -2.117499,-4.670216 -4.728837,-4.670216 z m 2.521924,5.349553 h -5.043848 v -1.358674 h 5.043848 z"
     id="path836" /></svg>