<?xml version="1.0" encoding="UTF-8"?>
<svg xmlns="http://www.w3.org/2000/svg" xmlns:xlink="http://www.w3.org/1999/xlink" width="500px" height="500px" viewBox="0 0 26 26" version="1.1"> <g id="surface1"> <path style=" stroke:none;fill-rule:nonzero;fill:#808080;fill-opacity:1;" d="M 17.851563 2.953125 L 8.742188 2.953125 C 7.179688 2.953125 5.910156 4.222656 5.910156 5.785156 L 5.910156 11.425781 C 5.058594 12.183594 3.9375 13.433594 3.9375 13.664063 L 3.9375 19.820313 C 3.9375 21.382813 5.207031 22.652344 6.769531 22.652344 L 17.851563 22.652344 C 19.414063 22.652344 20.683594 21.382813 20.683594 19.820313 L 20.683594 5.785156 C 20.683594 4.222656 19.414063 2.953125 17.851563 2.953125 Z M 13.789063 4.925781 L 15.757813 4.925781 L 15.757813 8.863281 L 13.789063 8.863281 Z M 10.832031 4.925781 L 12.804688 4.925781 L 12.804688 8.863281 L 10.832031 8.863281 Z M 7.878906 4.925781 L 9.847656 4.925781 L 9.847656 8.863281 L 7.878906 8.863281 Z M 18.710938 8.863281 L 16.742188 8.863281 L 16.742188 4.925781 L 18.710938 4.925781 Z "/> </g> </svg>
