<?xml version="1.0" encoding="UTF-8"?>
<svg xmlns="http://www.w3.org/2000/svg" xmlns:xlink="http://www.w3.org/1999/xlink" width="500px" height="500px" viewBox="0 0 26 26" version="1.1"> <g id="surface1"> <path style=" stroke:none;fill-rule:nonzero;fill:#808080;fill-opacity:1;" d="M 2.953125 1.96875 C 1.324219 1.96875 0 3.292969 0 4.925781 L 0 21.667969 C 0 23.296875 1.324219 24.621094 2.953125 24.621094 L 22.652344 24.621094 C 24.28125 24.621094 25.605469 23.296875 25.605469 21.667969 L 25.605469 7.878906 C 25.605469 6.246094 24.28125 4.925781 22.652344 4.925781 L 10.832031 4.925781 C 10.832031 3.292969 9.511719 1.96875 7.878906 1.96875 Z M 2.953125 6.894531 L 22.652344 6.894531 C 23.195313 6.894531 23.636719 7.335938 23.636719 7.878906 L 23.636719 21.667969 C 23.636719 22.210938 23.195313 22.652344 22.652344 22.652344 L 2.953125 22.652344 C 2.414063 22.652344 1.96875 22.210938 1.96875 21.667969 L 1.96875 7.878906 C 1.96875 7.335938 2.414063 6.894531 2.953125 6.894531 Z M 12.804688 9.046875 C 9.640625 9.046875 7.078125 11.609375 7.078125 14.773438 C 7.078125 17.933594 9.640625 20.496094 12.804688 20.496094 C 15.964844 20.496094 18.527344 17.933594 18.527344 14.773438 C 18.527344 11.609375 15.964844 9.046875 12.804688 9.046875 Z M 13.757813 10.125 C 13.757813 10.128906 13.789063 10.121094 13.789063 10.125 C 14.046875 10.179688 14.289063 10.28125 14.527344 10.371094 C 14.542969 10.378906 14.542969 10.375 14.617188 10.402344 C 14.753906 10.460938 14.859375 10.546875 14.988281 10.617188 C 14.976563 10.621094 14.964844 10.640625 14.957031 10.648438 L 14.925781 10.679688 C 14.917969 10.6875 14.929688 10.703125 14.925781 10.710938 L 14.894531 10.742188 C 14.890625 10.75 14.898438 10.765625 14.894531 10.773438 L 14.894531 10.800781 L 14.863281 10.988281 C 14.859375 10.992188 14.867188 11.015625 14.863281 11.019531 L 14.773438 11.140625 C 14.761719 11.15625 14.761719 11.15625 14.773438 11.171875 L 14.894531 11.386719 L 14.925781 11.417969 C 14.929688 11.425781 14.921875 11.445313 14.925781 11.449219 C 14.957031 11.476563 15.011719 11.472656 15.050781 11.480469 C 15.054688 11.480469 15.078125 11.480469 15.082031 11.480469 L 15.050781 11.570313 C 15.046875 11.582031 15.070313 11.589844 15.082031 11.601563 L 15.109375 11.632813 C 15.113281 11.636719 15.109375 11.660156 15.109375 11.664063 L 15.050781 11.695313 C 15.042969 11.699219 15.023438 11.691406 15.019531 11.695313 L 14.988281 11.757813 C 14.976563 11.757813 14.964844 11.75 14.957031 11.757813 L 14.925781 11.789063 C 14.925781 11.792969 14.925781 11.816406 14.925781 11.816406 L 14.894531 11.847656 L 14.894531 11.789063 C 14.890625 11.769531 14.902344 11.777344 14.648438 11.542969 L 14.648438 11.480469 C 14.648438 11.476563 14.648438 11.453125 14.648438 11.449219 C 14.648438 11.445313 14.621094 11.421875 14.617188 11.417969 C 14.605469 11.398438 14.605469 11.394531 14.527344 11.355469 L 14.527344 11.324219 C 14.515625 11.300781 14.496094 11.296875 14.464844 11.296875 L 14.402344 11.296875 C 14.359375 11.296875 14.347656 11.320313 14.3125 11.511719 C 14.3125 11.515625 14.3125 11.539063 14.3125 11.542969 C 14.308594 11.542969 14.285156 11.542969 14.28125 11.542969 C 14.269531 11.546875 14.257813 11.5625 14.25 11.570313 C 14.242188 11.574219 14.230469 11.5625 14.21875 11.570313 C 14.214844 11.574219 14.222656 11.601563 14.21875 11.601563 C 14.191406 11.601563 14.164063 11.59375 14.125 11.632813 C 14.117188 11.644531 14.121094 11.683594 14.125 11.695313 L 14.15625 11.757813 C 14.160156 11.765625 14.152344 11.785156 14.15625 11.789063 L 14.15625 11.878906 C 14.15625 11.894531 14.144531 11.898438 14.15625 11.910156 C 14.167969 11.921875 14.1875 11.945313 14.21875 11.941406 L 14.34375 11.910156 C 14.34375 11.910156 14.367188 11.910156 14.371094 11.910156 L 14.433594 11.910156 L 14.433594 11.972656 C 14.429688 11.988281 14.421875 12.019531 14.433594 12.035156 C 14.445313 12.050781 14.46875 12.0625 14.496094 12.0625 L 14.527344 12.0625 L 14.527344 12.125 C 14.53125 12.144531 14.523438 12.167969 14.527344 12.1875 C 14.53125 12.195313 14.554688 12.214844 14.558594 12.21875 C 14.566406 12.230469 14.578125 12.25 14.589844 12.25 C 14.613281 12.25 14.625 12.25 14.648438 12.25 L 14.742188 12.3125 L 14.742188 12.339844 C 14.742188 12.34375 14.742188 12.367188 14.742188 12.371094 L 14.742188 12.433594 C 14.699219 12.425781 14.691406 12.421875 14.527344 12.402344 C 14.511719 12.398438 14.523438 12.382813 14.464844 12.371094 C 14.457031 12.371094 14.441406 12.367188 14.433594 12.371094 L 14.402344 12.371094 C 14.386719 12.375 14.378906 12.390625 14.371094 12.402344 C 14.367188 12.40625 14.375 12.425781 14.371094 12.433594 L 14.34375 12.433594 C 14.332031 12.433594 14.320313 12.453125 14.3125 12.464844 C 14.304688 12.476563 14.28125 12.484375 14.28125 12.496094 C 14.292969 12.554688 14.304688 12.621094 14.3125 12.679688 L 14.28125 12.863281 C 14.28125 12.871094 14.277344 12.882813 14.28125 12.894531 C 14.28125 12.90625 14.304688 12.917969 14.3125 12.925781 L 14.34375 12.957031 L 14.371094 13.078125 C 14.382813 13.105469 14.433594 13.117188 14.464844 13.109375 L 14.527344 13.078125 L 14.558594 13.140625 L 14.28125 13.355469 C 14.277344 13.359375 14.285156 13.382813 14.28125 13.386719 L 14.21875 13.601563 L 14.035156 13.726563 L 13.941406 13.757813 C 13.929688 13.761719 13.914063 13.777344 13.910156 13.789063 C 13.875 13.871094 13.8125 13.976563 13.757813 14.066406 C 13.734375 14.101563 13.71875 14.117188 13.695313 14.15625 L 13.601563 14.402344 C 13.597656 14.410156 13.601563 14.425781 13.601563 14.433594 C 13.605469 14.460938 13.601563 14.449219 13.601563 14.464844 C 13.601563 14.472656 13.597656 14.488281 13.601563 14.496094 C 13.601563 14.5 13.597656 14.527344 13.601563 14.527344 L 13.632813 14.558594 L 13.664063 14.773438 L 13.542969 15.050781 C 13.53125 15.070313 13.527344 15.097656 13.542969 15.109375 L 13.601563 15.171875 C 13.601563 15.199219 13.601563 15.207031 13.601563 15.234375 C 13.601563 15.238281 13.601563 15.261719 13.601563 15.265625 C 13.601563 15.273438 13.597656 15.289063 13.601563 15.296875 L 13.632813 15.359375 L 13.695313 15.449219 L 13.847656 15.632813 C 13.851563 15.636719 13.84375 15.660156 13.847656 15.664063 L 13.941406 15.726563 L 14.003906 15.789063 C 14.003906 15.792969 14.03125 15.816406 14.035156 15.820313 C 14.035156 15.820313 14.066406 15.851563 14.066406 15.851563 L 14.28125 15.972656 L 14.34375 16.035156 C 14.347656 16.042969 14.363281 16.035156 14.371094 16.035156 C 14.402344 16.035156 14.4375 16.015625 14.464844 16.003906 L 14.835938 16.003906 C 14.839844 16.003906 14.859375 15.972656 14.863281 15.972656 L 15.109375 15.972656 C 15.113281 15.972656 15.109375 15.945313 15.109375 15.941406 L 15.203125 15.910156 L 15.296875 15.910156 L 15.359375 15.878906 L 15.417969 16.035156 C 15.425781 16.054688 15.429688 16.070313 15.449219 16.066406 L 15.605469 16.035156 L 15.664063 16.125 L 15.695313 16.15625 L 15.574219 16.402344 C 15.570313 16.414063 15.570313 16.453125 15.574219 16.464844 L 15.664063 16.710938 L 15.695313 16.773438 L 15.695313 16.835938 C 15.695313 16.84375 15.691406 16.863281 15.695313 16.867188 C 15.699219 16.875 15.691406 16.886719 15.695313 16.894531 C 15.699219 16.902344 15.722656 16.886719 15.726563 16.894531 L 15.726563 16.957031 L 15.695313 17.019531 L 15.632813 17.328125 L 15.542969 17.417969 L 15.480469 17.542969 L 15.449219 17.542969 C 15.445313 17.546875 15.453125 17.570313 15.449219 17.574219 C 15.441406 17.578125 15.421875 17.597656 15.417969 17.605469 C 15.394531 17.664063 15.378906 17.703125 15.359375 17.757813 C 15.355469 17.761719 15.359375 17.785156 15.359375 17.789063 L 15.386719 17.910156 C 15.339844 18.097656 15.285156 18.292969 15.234375 18.433594 C 15.234375 18.4375 15.234375 18.460938 15.234375 18.464844 L 15.203125 18.496094 L 15.171875 18.589844 C 15.152344 18.628906 15.144531 18.652344 15.109375 18.710938 L 15.082031 18.742188 C 15.054688 18.773438 15.039063 18.828125 15.019531 18.867188 L 14.988281 18.898438 C 14.980469 18.910156 14.984375 18.914063 14.988281 18.925781 C 14.992188 18.9375 15.007813 18.953125 15.019531 18.957031 C 14.355469 19.3125 13.601563 19.511719 12.804688 19.511719 C 12.351563 19.511719 11.921875 19.445313 11.511719 19.328125 C 11.496094 19.3125 11.496094 19.28125 11.480469 19.265625 L 11.449219 19.265625 C 11.460938 19.25 11.457031 19.21875 11.449219 19.203125 L 11.511719 19.144531 C 11.523438 19.136719 11.539063 19.125 11.542969 19.113281 L 11.511719 19.019531 C 11.511719 19.007813 11.519531 18.996094 11.511719 18.988281 C 11.5 18.976563 11.492188 18.964844 11.480469 18.957031 C 11.488281 18.953125 11.507813 18.933594 11.511719 18.925781 L 11.542969 18.867188 L 11.542969 18.835938 C 11.546875 18.828125 11.566406 18.84375 11.570313 18.835938 L 11.570313 18.710938 C 11.574219 18.707031 11.597656 18.714844 11.601563 18.710938 C 11.605469 18.707031 11.601563 18.6875 11.601563 18.679688 L 11.601563 18.621094 C 11.613281 18.609375 11.609375 18.605469 11.601563 18.589844 L 11.511719 18.34375 C 11.613281 18.285156 11.753906 18.238281 11.847656 18.1875 C 11.859375 18.179688 11.875 18.171875 11.878906 18.15625 L 11.878906 18.066406 C 11.894531 17.960938 11.925781 17.855469 11.941406 17.757813 C 11.941406 17.75 11.941406 17.730469 11.941406 17.726563 L 11.878906 17.480469 L 11.878906 17.449219 L 11.941406 17.417969 L 11.972656 17.417969 C 11.976563 17.414063 11.96875 17.390625 11.972656 17.390625 L 12.035156 17.265625 C 12.035156 17.265625 12.035156 17.234375 12.035156 17.234375 L 12.125 17.082031 C 12.128906 17.078125 12.125 17.058594 12.125 17.050781 L 12.09375 16.804688 C 12.089844 16.789063 12.074219 16.78125 12.0625 16.773438 C 11.933594 16.707031 11.773438 16.625 11.632813 16.558594 L 11.265625 16.496094 L 11.140625 16.464844 L 11.019531 16.375 C 11.015625 16.375 10.992188 16.34375 10.988281 16.34375 C 10.996094 16.332031 10.964844 16.292969 10.957031 16.28125 C 10.949219 16.269531 10.9375 16.246094 10.925781 16.25 L 10.800781 16.15625 L 10.679688 15.972656 L 10.648438 15.941406 L 10.433594 15.851563 L 10.371094 15.789063 C 10.363281 15.78125 10.320313 15.753906 10.308594 15.757813 L 10.1875 15.789063 L 10.0625 15.632813 C 10.078125 15.625 10.089844 15.617188 10.09375 15.605469 C 10.097656 15.570313 10.09375 15.535156 10.09375 15.511719 L 10.125 15.480469 C 10.132813 15.46875 10.15625 15.460938 10.15625 15.449219 L 10.15625 15.417969 C 10.15625 15.394531 10.117188 15.359375 10.09375 15.359375 C 10.035156 15.355469 9.988281 15.359375 9.941406 15.359375 C 9.941406 15.347656 9.960938 15.347656 9.941406 15.296875 C 9.960938 15.285156 9.972656 15.257813 9.972656 15.234375 C 9.972656 15.222656 9.96875 15.214844 9.941406 15.140625 C 9.941406 15.128906 9.921875 15.113281 9.910156 15.082031 C 9.917969 15.078125 9.9375 15.089844 9.941406 15.082031 C 9.957031 15.058594 9.9375 15.03125 9.910156 14.957031 C 9.914063 14.945313 9.914063 14.9375 9.910156 14.925781 C 9.933594 14.914063 9.9375 14.890625 9.941406 14.863281 C 9.941406 14.851563 9.964844 14.851563 9.941406 14.773438 C 9.929688 14.753906 9.894531 14.746094 9.878906 14.742188 C 9.882813 14.722656 9.890625 14.695313 9.878906 14.679688 C 9.867188 14.664063 9.835938 14.648438 9.816406 14.648438 C 9.8125 14.628906 9.78125 14.625 9.757813 14.617188 C 9.71875 14.605469 9.679688 14.597656 9.632813 14.589844 C 9.609375 14.585938 9.585938 14.59375 9.570313 14.589844 C 9.5625 14.585938 9.546875 14.558594 9.539063 14.558594 C 9.523438 14.5625 9.519531 14.578125 9.511719 14.589844 C 9.492188 14.574219 9.464844 14.570313 9.449219 14.558594 L 9.417969 14.527344 C 9.40625 14.519531 9.398438 14.523438 9.386719 14.527344 C 9.367188 14.53125 9.335938 14.539063 9.324219 14.558594 C 9.324219 14.558594 9.324219 14.527344 9.324219 14.527344 L 9.140625 14.433594 C 9.132813 14.429688 9.125 14.4375 9.109375 14.433594 C 9.101563 14.429688 9.085938 14.429688 9.078125 14.433594 C 9.097656 14.425781 9.109375 14.386719 9.109375 14.371094 C 9.113281 14.351563 9.117188 14.375 9.078125 14.28125 C 9.066406 14.253906 9.042969 14.210938 9.015625 14.21875 C 9.007813 14.222656 9.003906 14.226563 8.988281 14.25 C 8.976563 14.265625 8.964844 14.292969 8.957031 14.3125 L 8.957031 14.34375 C 8.910156 14.3125 8.851563 14.253906 8.800781 14.21875 C 8.730469 14.167969 8.648438 14.140625 8.585938 14.09375 C 8.578125 14.09375 8.5625 14.066406 8.554688 14.066406 C 8.546875 14.066406 8.527344 14.066406 8.523438 14.066406 L 8.402344 14.09375 C 8.378906 14.101563 8.371094 14.109375 8.308594 14.25 C 8.300781 14.242188 8.285156 14.253906 8.277344 14.25 L 8.09375 14.28125 C 8.121094 14.03125 8.1875 13.808594 8.25 13.574219 L 8.339844 13.664063 C 8.355469 13.679688 8.382813 13.675781 8.402344 13.664063 C 8.441406 13.640625 8.453125 13.582031 8.464844 13.542969 L 8.585938 13.601563 L 8.554688 13.972656 C 8.554688 13.992188 8.570313 13.996094 8.585938 14.003906 C 8.625 14.023438 8.660156 14.035156 8.679688 14.035156 C 8.691406 14.035156 8.703125 14.011719 8.710938 14.003906 C 8.710938 14.007813 8.742188 14 8.742188 14.003906 L 8.742188 14.066406 C 8.746094 14.082031 8.761719 14.089844 8.800781 14.09375 L 8.863281 14.09375 C 8.890625 14.09375 8.921875 14.089844 8.925781 14.066406 C 8.933594 14.050781 8.917969 14.054688 8.894531 13.941406 C 8.886719 13.914063 8.859375 13.878906 8.832031 13.878906 L 8.800781 13.878906 L 8.832031 13.757813 C 8.84375 13.679688 8.847656 13.613281 8.863281 13.542969 L 8.988281 13.355469 C 8.996094 13.355469 9.011719 13.359375 9.015625 13.355469 L 9.140625 13.265625 C 9.21875 13.210938 9.285156 13.15625 9.355469 13.109375 C 9.359375 13.105469 9.382813 13.113281 9.386719 13.109375 C 9.398438 13.089844 9.382813 13.0625 9.386719 13.050781 C 9.398438 13.007813 9.4375 12.96875 9.449219 12.925781 C 9.46875 12.941406 9.496094 12.941406 9.511719 12.925781 L 9.695313 12.710938 C 9.699219 12.707031 9.722656 12.714844 9.726563 12.710938 L 9.726563 12.679688 L 9.941406 12.648438 C 9.953125 12.648438 9.964844 12.625 9.972656 12.617188 L 10.03125 12.558594 C 10.042969 12.546875 10.039063 12.542969 10.03125 12.527344 L 10.03125 12.496094 L 10.0625 12.464844 L 10.125 12.464844 C 10.128906 12.464844 10.152344 12.433594 10.15625 12.433594 L 10.28125 12.371094 L 10.28125 12.402344 C 10.277344 12.417969 10.269531 12.421875 10.28125 12.433594 L 10.308594 12.464844 C 10.320313 12.480469 10.324219 12.472656 10.339844 12.464844 C 10.414063 12.4375 10.535156 12.402344 10.617188 12.371094 L 10.679688 12.339844 C 10.6875 12.335938 10.707031 12.34375 10.710938 12.339844 L 10.710938 12.3125 C 10.714844 12.308594 10.738281 12.3125 10.742188 12.3125 L 10.773438 12.3125 C 10.789063 12.3125 10.800781 12.292969 10.863281 12.25 C 10.867188 12.246094 10.890625 12.253906 10.894531 12.25 C 10.90625 12.222656 10.882813 12.207031 10.863281 12.1875 L 10.894531 12.125 C 10.898438 12.113281 10.871094 12.074219 10.863281 12.0625 C 10.851563 12.054688 10.859375 12.035156 10.832031 12.035156 C 10.808594 12.035156 10.785156 12.046875 10.648438 12.1875 L 10.617188 12.15625 C 10.621094 12.136719 10.644531 12.113281 10.648438 12.09375 C 10.660156 12.09375 10.671875 12.101563 10.679688 12.09375 L 10.742188 12.035156 C 10.753906 12.023438 10.742188 11.988281 10.742188 11.972656 C 10.738281 11.960938 10.75 11.949219 10.742188 11.941406 L 10.925781 11.941406 C 10.917969 11.949219 10.898438 11.949219 10.894531 11.972656 C 10.890625 11.988281 10.917969 12.023438 10.925781 12.035156 L 10.894531 12.0625 C 10.886719 12.074219 10.886719 12.113281 10.894531 12.125 C 10.90625 12.152344 10.917969 12.132813 11.046875 12.15625 L 11.046875 12.1875 C 11.054688 12.195313 11.074219 12.21875 11.109375 12.21875 L 11.140625 12.21875 C 11.152344 12.214844 11.160156 12.199219 11.171875 12.1875 C 11.179688 12.195313 11.21875 12.214844 11.234375 12.21875 L 11.265625 12.21875 C 11.285156 12.214844 11.296875 12.21875 11.386719 12.15625 C 11.390625 12.152344 11.382813 12.144531 11.386719 12.125 C 11.386719 12.113281 11.414063 12.078125 11.417969 12.0625 C 11.417969 12.042969 11.40625 12.046875 11.386719 12.035156 L 11.386719 12.003906 C 11.390625 11.992188 11.390625 11.984375 11.386719 11.972656 C 11.378906 11.953125 11.390625 11.957031 11.355469 11.941406 L 11.417969 11.878906 C 11.4375 11.859375 11.425781 11.808594 11.417969 11.789063 C 11.410156 11.773438 11.402344 11.796875 11.386719 11.789063 L 11.449219 11.695313 C 11.457031 11.683594 11.453125 11.675781 11.449219 11.664063 C 11.445313 11.648438 11.433594 11.636719 11.417969 11.632813 L 11.324219 11.601563 C 11.335938 11.566406 11.347656 11.539063 11.355469 11.511719 C 11.359375 11.492188 11.375 11.460938 11.355469 11.449219 L 11.324219 11.449219 C 11.328125 11.445313 11.324219 11.421875 11.324219 11.417969 L 11.355469 11.386719 C 11.375 11.253906 11.386719 11.175781 11.386719 11.171875 C 11.390625 11.152344 11.375 11.152344 11.355469 11.140625 C 11.375 11.132813 11.378906 11.117188 11.417969 11.046875 C 11.421875 11.046875 11.445313 11.046875 11.449219 11.046875 L 11.480469 11.046875 C 11.507813 11.046875 11.492188 11.042969 11.601563 10.925781 C 11.609375 10.929688 11.625 10.957031 11.632813 10.957031 C 11.65625 10.957031 11.664063 10.933594 11.847656 10.832031 C 11.855469 10.824219 11.878906 10.8125 11.878906 10.800781 C 11.882813 10.78125 11.886719 10.773438 11.789063 10.648438 L 11.816406 10.617188 C 11.832031 10.585938 11.851563 10.574219 11.757813 10.433594 C 11.753906 10.429688 11.730469 10.40625 11.726563 10.402344 C 11.738281 10.394531 11.753906 10.375 11.789063 10.339844 C 11.796875 10.34375 11.808594 10.34375 11.816406 10.339844 C 11.863281 10.328125 11.902344 10.304688 11.941406 10.28125 C 11.953125 10.273438 11.960938 10.257813 11.972656 10.25 C 11.976563 10.25 12 10.25 12.003906 10.25 L 12.0625 10.25 C 12.066406 10.246094 12.089844 10.253906 12.09375 10.25 C 12.089844 10.261719 12.097656 10.273438 12.09375 10.28125 C 12.09375 10.28125 12.09375 10.304688 12.09375 10.308594 L 12.09375 10.339844 C 12.097656 10.351563 12.117188 10.363281 12.125 10.371094 C 12.132813 10.375 12.148438 10.371094 12.15625 10.371094 C 12.199219 10.371094 12.25 10.371094 12.28125 10.371094 L 12.3125 10.371094 L 12.3125 10.402344 L 12.28125 10.496094 C 12.277344 10.503906 12.28125 10.519531 12.28125 10.527344 C 12.28125 10.539063 12.304688 10.546875 12.3125 10.554688 C 12.308594 10.566406 12.304688 10.574219 12.3125 10.585938 C 12.3125 10.59375 12.308594 10.609375 12.3125 10.617188 L 12.3125 10.648438 L 12.28125 10.648438 C 12.257813 10.652344 12.257813 10.65625 12.15625 10.742188 C 12.148438 10.746094 12.128906 10.765625 12.125 10.773438 L 12.125 10.863281 C 12.121094 10.871094 12.121094 10.886719 12.125 10.894531 C 12.125 10.898438 12.125 10.921875 12.125 10.925781 L 12.09375 10.925781 C 12.085938 10.929688 12.066406 10.9375 12.0625 10.957031 C 12.0625 10.964844 12.0625 10.980469 12.0625 10.988281 L 12.125 11.171875 C 12.128906 11.183594 12.117188 11.199219 12.125 11.203125 C 12.132813 11.210938 12.148438 11.230469 12.15625 11.234375 C 12.164063 11.238281 12.179688 11.234375 12.1875 11.234375 L 12.21875 11.234375 L 12.25 11.265625 C 12.253906 11.273438 12.273438 11.292969 12.28125 11.296875 C 12.296875 11.304688 12.289063 11.296875 12.3125 11.296875 L 12.402344 11.296875 C 12.410156 11.296875 12.429688 11.269531 12.433594 11.265625 L 12.496094 11.203125 C 12.558594 11.136719 12.621094 11.078125 12.679688 11.019531 L 12.832031 10.957031 C 12.835938 10.957031 12.859375 10.960938 12.863281 10.957031 L 12.894531 10.957031 C 12.917969 10.957031 12.941406 10.953125 13.019531 10.894531 L 13.140625 10.800781 L 13.234375 10.832031 L 13.265625 10.800781 C 13.351563 10.773438 13.453125 10.746094 13.542969 10.710938 C 13.542969 10.714844 13.570313 10.714844 13.574219 10.710938 C 13.589844 10.710938 13.59375 10.695313 13.601563 10.679688 L 13.632813 10.648438 C 13.644531 10.628906 13.625 10.605469 13.632813 10.585938 C 13.636719 10.578125 13.664063 10.5625 13.664063 10.554688 C 13.664063 10.542969 13.640625 10.535156 13.632813 10.527344 C 13.644531 10.519531 13.660156 10.507813 13.664063 10.496094 L 13.695313 10.339844 C 13.695313 10.332031 13.667969 10.347656 13.664063 10.339844 C 13.671875 10.328125 13.671875 10.289063 13.664063 10.28125 C 13.648438 10.25 13.648438 10.246094 13.632813 10.21875 C 13.640625 10.214844 13.660156 10.195313 13.664063 10.1875 C 13.679688 10.195313 13.714844 10.199219 13.726563 10.1875 L 13.757813 10.15625 C 13.761719 10.152344 13.753906 10.128906 13.757813 10.125 Z M 11.265625 10.648438 C 11.285156 10.65625 11.300781 10.671875 11.324219 10.679688 L 11.265625 10.710938 C 11.261719 10.714844 11.269531 10.738281 11.265625 10.742188 L 11.234375 10.773438 L 11.140625 10.773438 Z M 11.078125 10.800781 C 11.078125 10.800781 11.046875 10.832031 11.046875 10.832031 L 10.988281 10.894531 C 10.984375 10.902344 10.972656 10.933594 10.988281 10.957031 L 10.957031 10.925781 C 10.953125 10.925781 10.929688 10.925781 10.925781 10.925781 L 10.957031 10.832031 Z M 13.542969 10.800781 C 13.527344 10.800781 13.515625 10.8125 13.417969 10.832031 C 13.398438 10.839844 13.390625 10.84375 13.386719 10.863281 C 13.382813 10.878906 13.375 10.914063 13.386719 10.925781 C 13.402344 10.941406 13.429688 10.945313 13.449219 10.957031 L 13.449219 10.988281 C 13.445313 11 13.441406 11.039063 13.449219 11.046875 C 13.460938 11.074219 13.441406 11.074219 13.664063 11.140625 C 13.671875 11.144531 13.691406 11.140625 13.695313 11.140625 C 13.710938 11.140625 13.703125 11.121094 13.941406 11.019531 C 13.96875 11 13.976563 10.972656 13.972656 10.957031 C 13.96875 10.945313 13.949219 10.945313 13.941406 10.925781 C 13.9375 10.917969 13.945313 10.898438 13.941406 10.894531 L 13.847656 10.832031 C 13.839844 10.824219 13.8125 10.800781 13.789063 10.800781 L 13.601563 10.832031 L 13.574219 10.800781 C 13.566406 10.796875 13.550781 10.800781 13.542969 10.800781 Z M 10.554688 10.925781 L 10.648438 10.925781 L 10.648438 10.957031 C 10.644531 10.980469 10.660156 10.980469 10.679688 10.988281 C 10.710938 10.996094 10.726563 11.019531 10.742188 11.019531 C 10.726563 11.039063 10.722656 11.058594 10.710938 11.078125 C 10.691406 11.101563 10.664063 11.152344 10.648438 11.171875 L 10.554688 11.203125 C 10.542969 11.207031 10.53125 11.195313 10.527344 11.203125 L 10.433594 11.386719 L 10.21875 11.449219 C 10.207031 11.453125 10.195313 11.46875 10.1875 11.480469 L 10.125 11.386719 L 10.09375 11.296875 C 10.089844 11.285156 10.074219 11.273438 10.0625 11.265625 C 10.074219 11.257813 10.09375 11.246094 10.09375 11.234375 L 10.09375 11.203125 L 10.21875 11.078125 C 10.269531 11.058594 10.34375 11.042969 10.402344 11.019531 L 10.527344 10.988281 C 10.535156 10.984375 10.523438 10.960938 10.527344 10.957031 C 10.53125 10.953125 10.550781 10.960938 10.554688 10.957031 C 10.5625 10.949219 10.550781 10.9375 10.554688 10.925781 Z M 11.019531 10.957031 C 11.046875 10.972656 11.042969 10.972656 11.140625 10.957031 L 11.171875 10.957031 L 11.171875 10.988281 C 11.140625 11.035156 11.144531 11.042969 11.296875 11.140625 L 11.171875 11.171875 C 11.1875 11.15625 11.1875 11.128906 11.171875 11.109375 L 11.078125 10.988281 C 11.074219 10.984375 11.050781 10.992188 11.046875 10.988281 Z M 15.542969 11.296875 L 15.605469 11.324219 C 15.613281 11.328125 15.621094 11.328125 15.632813 11.324219 C 15.640625 11.355469 15.652344 11.367188 15.664063 11.386719 C 15.667969 11.390625 15.691406 11.414063 15.695313 11.417969 C 15.691406 11.429688 15.691406 11.441406 15.695313 11.449219 L 15.726563 11.542969 C 15.691406 11.53125 15.667969 11.535156 15.632813 11.542969 C 15.621094 11.546875 15.613281 11.539063 15.605469 11.542969 C 15.601563 11.542969 15.578125 11.570313 15.574219 11.570313 L 15.480469 11.601563 C 15.5 11.59375 15.511719 11.5625 15.511719 11.542969 L 15.511719 11.417969 Z M 16.621094 12.371094 C 16.710938 12.457031 16.71875 12.433594 16.742188 12.433594 C 16.75 12.433594 16.765625 12.4375 16.773438 12.433594 C 16.78125 12.417969 16.796875 12.414063 16.804688 12.402344 L 16.957031 12.496094 C 16.964844 12.511719 16.949219 12.542969 16.957031 12.558594 C 16.894531 12.515625 16.882813 12.527344 16.867188 12.527344 C 16.835938 12.539063 16.777344 12.542969 16.742188 12.558594 C 16.710938 12.570313 16.707031 12.574219 16.679688 12.585938 L 16.648438 12.585938 L 16.589844 12.527344 C 16.59375 12.519531 16.589844 12.507813 16.589844 12.496094 L 16.589844 12.464844 C 16.597656 12.457031 16.585938 12.441406 16.589844 12.433594 C 16.59375 12.425781 16.589844 12.410156 16.589844 12.402344 Z M 15.203125 12.585938 L 15.359375 12.585938 C 15.363281 12.585938 15.378906 12.589844 15.386719 12.585938 L 15.417969 12.585938 C 15.417969 12.589844 15.414063 12.589844 15.417969 12.617188 C 15.421875 12.632813 15.445313 12.664063 15.449219 12.679688 C 15.453125 12.6875 15.441406 12.707031 15.449219 12.710938 C 15.445313 12.71875 15.445313 12.730469 15.449219 12.742188 L 15.480469 12.773438 C 15.488281 12.800781 15.472656 12.804688 15.480469 12.832031 C 15.492188 12.871094 15.527344 12.890625 15.542969 12.894531 C 15.550781 12.898438 15.566406 12.898438 15.574219 12.894531 L 15.632813 12.863281 C 15.65625 12.855469 15.664063 12.824219 15.664063 12.804688 C 15.664063 12.792969 15.664063 12.8125 15.632813 12.710938 C 15.625 12.691406 15.621094 12.6875 15.605469 12.679688 C 15.609375 12.667969 15.601563 12.632813 15.605469 12.617188 L 15.695313 12.710938 C 15.699219 12.714844 15.722656 12.707031 15.726563 12.710938 L 15.878906 12.804688 L 15.910156 12.804688 L 15.910156 12.863281 L 15.820313 12.832031 C 15.8125 12.828125 15.765625 12.828125 15.757813 12.832031 C 15.738281 12.839844 15.722656 12.875 15.726563 12.894531 C 15.730469 12.910156 15.753906 12.90625 15.757813 12.925781 C 15.757813 12.933594 15.753906 12.953125 15.757813 12.957031 C 15.789063 12.996094 15.835938 13.019531 15.878906 13.050781 C 15.882813 13.054688 15.90625 13.078125 15.910156 13.078125 C 15.878906 13.082031 15.851563 13.109375 15.851563 13.140625 C 15.847656 13.121094 15.824219 13.097656 15.820313 13.078125 C 15.816406 13.070313 15.828125 13.058594 15.820313 13.050781 L 15.789063 13.019531 L 15.695313 12.988281 C 15.683594 12.980469 15.675781 12.957031 15.664063 12.957031 L 15.574219 12.988281 L 15.171875 13.019531 C 15.167969 13.019531 15.144531 13.019531 15.140625 13.019531 L 14.925781 13.078125 L 14.988281 12.988281 L 15.019531 12.988281 C 15.03125 12.972656 15.035156 12.9375 15.050781 12.925781 C 15.0625 12.914063 15.089844 12.914063 15.082031 12.894531 L 15.050781 12.773438 L 15.050781 12.742188 L 15.109375 12.742188 C 15.109375 12.742188 15.140625 12.742188 15.140625 12.742188 L 15.171875 12.710938 C 15.1875 12.703125 15.199219 12.695313 15.203125 12.679688 Z M 16.125 12.804688 C 16.136719 12.804688 16.148438 12.8125 16.15625 12.804688 L 16.15625 12.832031 C 16.160156 12.835938 16.183594 12.828125 16.1875 12.832031 C 16.191406 12.835938 16.179688 12.855469 16.1875 12.863281 C 16.195313 12.871094 16.210938 12.859375 16.21875 12.863281 L 16.28125 12.925781 C 16.289063 12.933594 16.269531 12.953125 16.28125 12.957031 C 16.289063 12.960938 16.308594 12.957031 16.3125 12.957031 C 16.324219 12.976563 16.332031 13 16.34375 13.019531 L 16.375 13.050781 C 16.375 13.058594 16.367188 13.078125 16.375 13.078125 L 16.402344 13.078125 C 16.410156 13.085938 16.425781 13.078125 16.433594 13.078125 L 16.464844 13.078125 C 16.464844 13.085938 16.464844 13.101563 16.464844 13.109375 C 16.46875 13.121094 16.46875 13.121094 16.496094 13.171875 C 16.511719 13.195313 16.496094 13.195313 16.679688 13.234375 L 16.710938 13.234375 C 16.765625 13.230469 16.75 13.1875 16.742188 13.109375 L 16.773438 13.140625 C 16.785156 13.152344 16.789063 13.144531 16.804688 13.140625 L 16.894531 13.109375 C 16.890625 13.113281 16.894531 13.136719 16.894531 13.140625 C 16.890625 13.160156 16.90625 13.1875 16.925781 13.203125 C 16.929688 13.207031 16.917969 13.195313 16.988281 13.234375 C 16.992188 13.238281 17.015625 13.234375 17.019531 13.234375 C 17.027344 13.234375 17.046875 13.234375 17.050781 13.234375 C 17.058594 13.230469 17.078125 13.238281 17.082031 13.234375 C 17.085938 13.246094 17.109375 13.253906 17.113281 13.265625 L 17.113281 13.449219 L 16.988281 13.417969 C 16.96875 13.410156 16.9375 13.402344 16.925781 13.417969 L 16.894531 13.480469 L 16.742188 13.417969 C 16.734375 13.414063 16.71875 13.386719 16.710938 13.386719 C 16.683594 13.386719 16.667969 13.417969 16.648438 13.417969 L 16.621094 13.386719 C 16.613281 13.375 16.601563 13.359375 16.589844 13.355469 C 16.53125 13.34375 16.507813 13.355469 16.464844 13.355469 C 16.457031 13.355469 16.4375 13.351563 16.433594 13.355469 L 16.375 13.386719 C 16.363281 13.394531 16.347656 13.40625 16.34375 13.417969 L 16.34375 13.511719 L 16.15625 13.386719 C 16.152344 13.386719 16.128906 13.386719 16.125 13.386719 L 15.910156 13.328125 L 15.851563 13.296875 C 15.855469 13.289063 15.851563 13.273438 15.851563 13.265625 C 15.851563 13.242188 15.855469 13.222656 15.851563 13.203125 C 15.855469 13.210938 15.871094 13.222656 15.878906 13.234375 C 15.894531 13.261719 15.933594 13.261719 15.941406 13.265625 L 15.941406 13.234375 C 15.960938 13.230469 15.996094 13.230469 16.035156 13.171875 C 16.039063 13.164063 16.035156 13.148438 16.035156 13.140625 C 16.03125 13.128906 16.042969 13.117188 16.035156 13.109375 C 16.054688 13.101563 16.066406 13.105469 16.066406 13.078125 L 16.066406 12.988281 C 16.078125 12.984375 16.089844 12.96875 16.097656 12.957031 L 16.125 12.863281 C 16.132813 12.851563 16.132813 12.84375 16.125 12.832031 Z M 16.589844 12.988281 L 16.648438 13.050781 C 16.628906 13.046875 16.582031 13.050781 16.558594 13.050781 L 16.558594 13.019531 C 16.570313 13.011719 16.589844 13 16.589844 12.988281 Z M 14.894531 13.078125 L 14.894531 13.109375 L 14.773438 13.109375 Z M 8.09375 15.265625 L 8.1875 15.511719 C 8.1875 15.515625 8.214844 15.539063 8.21875 15.542969 L 8.21875 15.574219 C 8.230469 15.589844 8.257813 15.582031 8.277344 15.574219 L 8.308594 15.574219 L 8.339844 15.632813 C 8.34375 15.644531 8.359375 15.65625 8.371094 15.664063 C 8.378906 15.667969 8.398438 15.664063 8.402344 15.664063 L 8.464844 15.757813 C 8.476563 15.777344 8.507813 15.765625 8.523438 15.757813 L 8.585938 15.726563 L 8.617188 15.757813 C 8.636719 15.878906 8.65625 16.003906 8.679688 16.125 L 8.679688 16.21875 L 8.648438 16.28125 L 8.617188 16.464844 C 8.617188 16.46875 8.617188 16.492188 8.617188 16.496094 C 8.628906 16.539063 8.636719 16.582031 8.648438 16.621094 L 8.648438 16.648438 C 8.652344 16.652344 8.667969 16.667969 8.679688 16.679688 C 8.675781 16.6875 8.675781 16.699219 8.679688 16.710938 C 8.679688 16.714844 8.675781 16.738281 8.679688 16.742188 L 8.769531 16.925781 C 8.773438 16.929688 8.765625 16.953125 8.769531 16.957031 L 8.957031 17.113281 L 9.046875 17.234375 C 9.050781 17.238281 9.042969 17.261719 9.046875 17.265625 C 9.183594 17.441406 9.382813 17.671875 9.417969 17.695313 L 9.664063 17.820313 C 9.667969 17.820313 9.691406 17.820313 9.695313 17.820313 C 9.71875 17.835938 9.738281 17.867188 9.816406 17.910156 L 9.816406 17.941406 C 9.917969 18.089844 10.070313 18.304688 10.1875 18.464844 C 10.359375 18.683594 10.480469 18.8125 10.617188 18.957031 C 9.246094 18.234375 8.257813 16.882813 8.09375 15.265625 Z M 15.417969 16.1875 C 15.355469 16.195313 15.3125 16.253906 15.296875 16.3125 C 15.285156 16.359375 15.320313 16.40625 15.359375 16.433594 C 15.375 16.449219 15.390625 16.433594 15.417969 16.433594 C 15.484375 16.433594 15.558594 16.402344 15.574219 16.34375 C 15.585938 16.308594 15.566406 16.28125 15.542969 16.25 C 15.519531 16.21875 15.496094 16.1875 15.449219 16.1875 C 15.449219 16.1875 15.421875 16.1875 15.417969 16.1875 Z "/> </g> </svg>
