<?xml version="1.0" encoding="UTF-8" standalone="no"?>
<!-- Generator: Adobe Illustrator 18.1.1, SVG Export Plug-In . SVG Version: 6.00 Build 0)  -->

<svg
   xmlns:dc="http://purl.org/dc/elements/1.1/"
   xmlns:cc="http://creativecommons.org/ns#"
   xmlns:rdf="http://www.w3.org/1999/02/22-rdf-syntax-ns#"
   xmlns:svg="http://www.w3.org/2000/svg"
   xmlns="http://www.w3.org/2000/svg"
   xmlns:sodipodi="http://sodipodi.sourceforge.net/DTD/sodipodi-0.dtd"
   xmlns:inkscape="http://www.inkscape.org/namespaces/inkscape"
   version="1.1"
   id="Layer_1"
   x="0px"
   y="0px"
   viewBox="0 0 26 26"
   enable-background="new 0 0 26 26"
   xml:space="preserve"
   width="416px"
   height="416px"
   sodipodi:docname="icons8-italic.svg"
   inkscape:version="0.92.3 (2405546, 2018-03-11)"><metadata
   id="metadata861"><rdf:RDF><cc:Work
       rdf:about=""><dc:format>image/svg+xml</dc:format><dc:type
         rdf:resource="http://purl.org/dc/dcmitype/StillImage" /></cc:Work></rdf:RDF></metadata><defs
   id="defs859" /><sodipodi:namedview
   pagecolor="#ffffff"
   bordercolor="#666666"
   borderopacity="1"
   objecttolerance="10"
   gridtolerance="10"
   guidetolerance="10"
   inkscape:pageopacity="0"
   inkscape:pageshadow="2"
   inkscape:window-width="1850"
   inkscape:window-height="1016"
   id="namedview857"
   showgrid="false"
   inkscape:zoom="1.9951923"
   inkscape:cx="208"
   inkscape:cy="208"
   inkscape:window-x="70"
   inkscape:window-y="27"
   inkscape:window-maximized="1"
   inkscape:current-layer="Layer_1" />
<path
   d="M16.4,24H4.2l0.5-1.9C5,22.1,5.5,22,6,22c0.6,0,0.9-0.1,1.2-0.2c0.4-0.2,0.7-0.4,0.9-0.6c0.2-0.3,0.4-0.6,0.5-1l3.6-14.1  c0.1-0.4,0.1-0.7,0-0.9c-0.1-0.3-0.3-0.5-0.6-0.7c-0.2-0.1-0.6-0.2-1-0.3C10.1,4.1,9.6,4,9.3,4l0.5-2H22l-0.5,2  c-0.3,0-1.1,0.1-1.6,0.1c-0.5,0.1-0.9,0.1-1.2,0.2c-0.4,0.1-0.8,0.3-1,0.6c-0.2,0.3-0.4,0.6-0.4,1l-3.6,14.1c-0.1,0.4-0.1,0.7,0,1  c0.1,0.3,0.3,0.5,0.6,0.6c0.2,0.1,0.5,0.2,1,0.3c0.5,0.1,1.3,0.1,1.6,0.2L16.4,24z"
   id="path854"
   style="fill:#808080" />
</svg>