<?xml version="1.0" encoding="UTF-8" standalone="no"?>
<!-- Generator: Adobe Illustrator 15.0.0, SVG Export Plug-In . SVG Version: 6.00 Build 0)  -->

<svg
   xmlns:dc="http://purl.org/dc/elements/1.1/"
   xmlns:cc="http://creativecommons.org/ns#"
   xmlns:rdf="http://www.w3.org/1999/02/22-rdf-syntax-ns#"
   xmlns:svg="http://www.w3.org/2000/svg"
   xmlns="http://www.w3.org/2000/svg"
   xmlns:sodipodi="http://sodipodi.sourceforge.net/DTD/sodipodi-0.dtd"
   xmlns:inkscape="http://www.inkscape.org/namespaces/inkscape"
   version="1.1"
   id="Layer_1"
   x="0px"
   y="0px"
   width="416px"
   height="416px"
   viewBox="0 0 26 26"
   enable-background="new 0 0 26 26"
   xml:space="preserve"
   sodipodi:docname="icons8-book_big_and_small.svg"
   inkscape:version="0.92.2 (5c3e80d, 2017-08-06)"><metadata
     id="metadata1510"><rdf:RDF><cc:Work
         rdf:about=""><dc:format>image/svg+xml</dc:format><dc:type
           rdf:resource="http://purl.org/dc/dcmitype/StillImage" /><dc:title></dc:title></cc:Work></rdf:RDF></metadata><defs
     id="defs1508" /><sodipodi:namedview
     pagecolor="#ffffff"
     bordercolor="#666666"
     borderopacity="1"
     objecttolerance="10"
     gridtolerance="10"
     guidetolerance="10"
     inkscape:pageopacity="0"
     inkscape:pageshadow="2"
     inkscape:window-width="737"
     inkscape:window-height="480"
     id="namedview1506"
     showgrid="false"
     inkscape:zoom="0.56730769"
     inkscape:cx="208"
     inkscape:cy="208"
     inkscape:window-x="0"
     inkscape:window-y="0"
     inkscape:window-maximized="0"
     inkscape:current-layer="Layer_1" /><path
     stroke-miterlimit="10"
     d="m 12.701044,5.477272 c -0.272092,0.7157188 0,1.3563661 0,1.3563661 L 8.0764226,12.813521 2.4078357,11.006723 c 0,0 -0.9447644,-0.432678 -0.9447644,-1.7438998 0,-1.8138995 1.4554096,-1.4020188 1.4554096,-1.4020188"
     id="path1501"
     style="fill:none;stroke:#808080;stroke-width:0.97900426;stroke-linecap:round;stroke-linejoin:round;stroke-miterlimit:10;stroke-opacity:1"
     inkscape:connector-curvature="0" /><path
     d="M 13.197046,2.9562764 C 13.140832,2.7807705 13.002424,2.6504091 12.834256,2.6108441 L 6.9564043,1.2012172 C 6.7797333,1.1616522 6.5950318,1.2260721 6.4759915,1.3736796 L 1.588725,7.215085 C 1.4767704,7.3525478 1.1678324,7.8836306 1.0719388,8.5734803 1.3445033,8.2108019 1.6699748,8.0297166 1.8343638,8.0768901 l 5.7569221,1.7646961 c 0.042515,0.012683 0.085974,0.018254 0.1280157,0.018254 0.1469108,0 0.2886255,-0.069992 0.3835743,-0.1947806 L 13.11249,3.4690987 C 13.222082,3.325549 13.254204,3.131275 13.197041,2.9562764 Z M 10.506357,4.4673519 10.129868,4.9461888 C 10.024999,5.0790866 9.7826671,5.1450281 9.5889908,5.0958258 L 6.0801353,4.1777165 C 5.8869309,4.1280067 5.814184,3.9788774 5.9171633,3.8480088 L 6.2945968,3.3666356 C 6.3985211,3.2347526 6.6413253,3.1688111 6.8350021,3.2185207 l 3.5088549,0.9165874 c 0.19226,0.04971 0.265951,0.1993464 0.1625,0.3322438 z"
     id="path1503"
     style="fill:#808080;stroke-width:0.48950213"
     inkscape:connector-curvature="0" /><path
     stroke-miterlimit="10"
     d="m 23.412066,12.415319 c -0.347617,0.996553 0,1.888576 0,1.888576 l -5.908262,8.326265 -7.241997,-2.515748 c 0,0 -1.206999,-0.602452 -1.206999,-2.428169 0,-2.525637 1.859382,-1.952143 1.859382,-1.952143"
     id="path1501-6"
     style="fill:none;stroke:#808080;stroke-width:1.30573511;stroke-linecap:round;stroke-linejoin:round;stroke-miterlimit:10;stroke-opacity:1"
     inkscape:connector-curvature="0" /><path
     d="m 24.045741,8.9051376 c -0.07182,-0.244371 -0.248643,-0.425884 -0.46349,-0.480973 L 16.072906,6.4614281 c -0.225709,-0.055082 -0.461677,0.034603 -0.613759,0.2401342 L 9.2153387,14.835014 C 9.0723086,15.026415 8.6776205,15.765884 8.5551088,16.726416 8.9033299,16.22143 9.3191416,15.96929 9.5291576,16.034973 L 16.88401,18.4921 c 0.05431,0.01766 0.109845,0.02541 0.163548,0.02541 0.187688,0 0.368739,-0.09745 0.490043,-0.271208 l 6.400114,-8.6271274 c 0.140011,-0.199876 0.181049,-0.470378 0.108016,-0.714043 z m -3.437535,2.1039904 -0.480989,0.666723 c -0.133982,0.185043 -0.443572,0.276859 -0.691006,0.208351 l -4.482796,-1.278356 c -0.246832,-0.06922 -0.339772,-0.27686 -0.208208,-0.459079 l 0.482196,-0.6702544 c 0.132766,-0.18363 0.442969,-0.275447 0.690404,-0.206232 l 4.482796,1.2762384 c 0.245624,0.06922 0.339769,0.277565 0.207603,0.462609 z"
     id="path1503-7"
     style="fill:#808080;stroke-width:0.65286756"
     inkscape:connector-curvature="0" /></svg>