<?xml version="1.0" encoding="UTF-8" standalone="no"?>
<!-- Generator: Adobe Illustrator 15.0.0, SVG Export Plug-In . SVG Version: 6.00 Build 0)  -->

<svg
   xmlns:dc="http://purl.org/dc/elements/1.1/"
   xmlns:cc="http://creativecommons.org/ns#"
   xmlns:rdf="http://www.w3.org/1999/02/22-rdf-syntax-ns#"
   xmlns:svg="http://www.w3.org/2000/svg"
   xmlns="http://www.w3.org/2000/svg"
   xmlns:sodipodi="http://sodipodi.sourceforge.net/DTD/sodipodi-0.dtd"
   xmlns:inkscape="http://www.inkscape.org/namespaces/inkscape"
   version="1.1"
   id="Layer_1"
   x="0px"
   y="0px"
   width="416px"
   height="416px"
   viewBox="0 0 26 26"
   enable-background="new 0 0 26 26"
   xml:space="preserve"
   sodipodi:docname="icons8_position_to_disk.svg"
   inkscape:version="0.92.3 (2405546, 2018-03-11)"><metadata
     id="metadata861"><rdf:RDF><cc:Work
         rdf:about=""><dc:format>image/svg+xml</dc:format><dc:type
           rdf:resource="http://purl.org/dc/dcmitype/StillImage" /><dc:title /></cc:Work></rdf:RDF></metadata><defs
     id="defs859" /><sodipodi:namedview
     pagecolor="#ffffff"
     bordercolor="#666666"
     borderopacity="1"
     objecttolerance="10"
     gridtolerance="10"
     guidetolerance="10"
     inkscape:pageopacity="0"
     inkscape:pageshadow="2"
     inkscape:window-width="1920"
     inkscape:window-height="976"
     id="namedview857"
     showgrid="false"
     inkscape:zoom="1.1346154"
     inkscape:cx="-97.413089"
     inkscape:cy="63.269943"
     inkscape:window-x="-8"
     inkscape:window-y="-8"
     inkscape:window-maximized="1"
     inkscape:current-layer="Layer_1" /><polygon
     transform="matrix(0,0.23063669,-0.32469357,0,24.722972,7.7218964)"
     style="fill:#808080"
     points="25.906,13 12,4.061 12,21.938 "
     id="polygon858" /><rect
     x="-12.187429"
     style="fill:#808080;stroke-width:0.30102435"
     y="-21.859388"
     width="4.744369"
     height="2.5975487"
     id="rect856-6"
     transform="matrix(0,-1,-1,0,0,0)" /><path
     inkscape:connector-curvature="0"
     d="m 9.2587875,1.0688558 c -3.8300801,0 -6.9356944,2.9366691 -6.9356944,6.5583912 0,3.621724 6.0478687,10.082731 6.0478687,14.954512 h 1.7756512 c 0,-4.85583 6.048758,-11.627462 6.048758,-14.954512 0,-3.6217221 -3.106503,-6.5583912 -6.9365835,-6.5583912 z m 0,9.2465602 c -1.5696758,0 -2.8428179,-1.2047229 -2.8428179,-2.688169 0,-1.4834451 1.2731421,-2.6881673 2.8428179,-2.6881673 1.5696755,0 2.8428175,1.2038819 2.8428175,2.6881673 0,1.4842861 -1.273142,2.688169 -2.8428175,2.688169 z"
     id="path1411"
     style="fill:#808080;stroke-width:0.86333913" /><path
     style="fill:#808080;fill-opacity:1;stroke-width:0.3782824"
     inkscape:connector-curvature="0"
     d="m 22.524134,18.012702 h -1.139351 v -2.637511 h 1.139351 z m 3.038269,-1.130362 v 6.405384 c 0,0.624336 -0.510429,1.130362 -1.139351,1.130362 h -7.59567 c -0.628921,0 -1.13935,-0.506026 -1.13935,-1.130362 v -7.535746 c 0,-0.624336 0.510429,-1.130361 1.13935,-1.130361 h 6.456319 c 0.314462,0 0.488023,0.0162 1.375197,0.896377 0.887174,0.880175 0.903505,1.052366 0.903505,1.364346 z m -7.975454,1.130362 c 0,0.20761 0.170523,0.376787 0.379783,0.376787 h 4.937185 c 0.209261,0 0.379784,-0.169177 0.379784,-0.376787 v -2.637511 c 0,-0.20761 -0.170523,-0.376787 -0.379784,-0.376787 h -4.937185 c -0.20926,0 -0.379783,0.169177 -0.379783,0.376787 z m 6.836103,1.883936 c 0,-0.207609 -0.170523,-0.376787 -0.379783,-0.376787 h -6.836104 c -0.20926,0 -0.379783,0.169177 -0.379783,0.376787 v 3.767872 c 0,0.207611 0.170523,0.376788 0.379783,0.376788 h 6.836104 c 0.20926,0 0.379783,-0.169177 0.379783,-0.376788 z"
     id="path2" /></svg>