<?xml version="1.0" encoding="UTF-8" standalone="no"?>
<svg
   xmlns:dc="http://purl.org/dc/elements/1.1/"
   xmlns:cc="http://creativecommons.org/ns#"
   xmlns:rdf="http://www.w3.org/1999/02/22-rdf-syntax-ns#"
   xmlns:svg="http://www.w3.org/2000/svg"
   xmlns="http://www.w3.org/2000/svg"
   xmlns:sodipodi="http://sodipodi.sourceforge.net/DTD/sodipodi-0.dtd"
   xmlns:inkscape="http://www.inkscape.org/namespaces/inkscape"
   width="48"
   height="48"
   viewBox="0 0 48 48"
   version="1.1"
   id="svg16092"
   sodipodi:docname="icons8_bookmark_simple_add.svg"
   inkscape:version="1.0.2 (e86c870879, 2021-01-15)">
  <metadata
     id="metadata16098">
    <rdf:RDF>
      <cc:Work
         rdf:about="">
        <dc:format>image/svg+xml</dc:format>
        <dc:type
           rdf:resource="http://purl.org/dc/dcmitype/StillImage" />
        <dc:title />
      </cc:Work>
    </rdf:RDF>
  </metadata>
  <defs
     id="defs16096" />
  <sodipodi:namedview
     pagecolor="#ffffff"
     bordercolor="#666666"
     borderopacity="1"
     objecttolerance="10"
     gridtolerance="10"
     guidetolerance="10"
     inkscape:pageopacity="0"
     inkscape:pageshadow="2"
     inkscape:window-width="1920"
     inkscape:window-height="995"
     id="namedview16094"
     showgrid="false"
     inkscape:zoom="4.9166667"
     inkscape:cx="24"
     inkscape:cy="24"
     inkscape:window-x="0"
     inkscape:window-y="0"
     inkscape:window-maximized="1"
     inkscape:current-layer="svg16092"
     inkscape:document-rotation="0" />
  <path
     d="M 27.737818,0.579714 H 7.7378175 c -2.21,0 -3.98,1.79 -3.98,4 l -0.02,32 14.0000005,-6 14,6 v -32 c 0,-2.21 -1.79,-4 -4,-4 z m 0,30 -10,-4.35 -10.0000005,4.35 v -26 H 27.737818 Z"
     id="path16088"
     style="fill:#808080;stroke-width:0.999999" />
  <path
     d="M0 0h48v48H0z"
     fill="none"
     id="path16090" />
  <circle
     fill="#808080"
     cx="32.478413"
     cy="43.412209"
     r="3.385725"
     id="circle2"
     style="stroke-width:1.12858" />
  <circle
     fill="#808080"
     cx="24.210411"
     cy="43.306541"
     r="3.385725"
     id="circle4"
     style="stroke-width:1.12858" />
  <circle
     fill="#808080"
     cx="40.78191"
     cy="43.306541"
     r="3.385725"
     id="circle6"
     style="stroke-width:1.12858" />
  <path
     style="fill:#808080;stroke-width:0.840522"
     inkscape:connector-curvature="0"
     d="m 17.806033,7.6616035 c -4.786787,0 -8.6674845,3.8806995 -8.6674845,8.6674825 0,4.786784 3.8806975,8.668323 8.6674845,8.668323 4.786782,0 8.668321,-3.881539 8.668321,-8.668323 0,-4.786783 -3.881539,-8.6674825 -8.668321,-8.6674825 z m 4.622876,9.9282685 H 19.06682 v 3.362095 H 16.545247 V 17.589872 H 13.183146 V 15.0683 h 3.362101 V 11.706205 H 19.06682 V 15.0683 h 3.362089 z"
     id="path2571" />
</svg>
