<?xml version="1.0" encoding="UTF-8"?>
<svg xmlns="http://www.w3.org/2000/svg" xmlns:xlink="http://www.w3.org/1999/xlink" width="500px" height="500px" viewBox="0 0 26 26" version="1.1"> <g id="surface1"> <path style=" stroke:none;fill-rule:nonzero;fill:#808080;fill-opacity:1;" d="M 16.34375 0.125 C 14.984375 0.183594 13.691406 0.777344 12.679688 1.785156 L 8.710938 5.753906 C 9.332031 5.128906 11.660156 5.535156 12.21875 6.09375 L 14.589844 3.722656 C 15.117188 3.195313 15.816406 2.863281 16.496094 2.832031 C 16.957031 2.808594 17.613281 2.902344 18.1875 3.476563 C 18.722656 4.015625 18.835938 4.65625 18.835938 5.078125 C 18.835938 5.789063 18.5 6.519531 17.941406 7.078125 L 13.789063 11.234375 C 12.738281 12.28125 11.109375 12.402344 10.1875 11.480469 C 9.660156 10.953125 8.808594 10.953125 8.277344 11.480469 C 7.75 12.007813 7.75 12.855469 8.277344 13.386719 C 9.234375 14.339844 10.5 14.804688 11.789063 14.804688 C 13.179688 14.804688 14.601563 14.265625 15.695313 13.171875 L 19.882813 8.988281 C 20.945313 7.925781 21.542969 6.503906 21.542969 5.078125 C 21.542969 3.757813 21.027344 2.5 20.097656 1.570313 C 19.101563 0.574219 17.757813 0.0585938 16.34375 0.125 Z M 9.878906 6.863281 C 8.488281 6.863281 7.0625 7.402344 5.96875 8.496094 L 1.785156 12.679688 C 0.722656 13.742188 0.125 15.160156 0.125 16.589844 C 0.125 17.910156 0.636719 19.167969 1.570313 20.097656 C 2.566406 21.09375 3.910156 21.609375 5.324219 21.542969 C 6.683594 21.480469 7.980469 20.890625 8.988281 19.882813 L 12.957031 15.910156 C 12.332031 16.539063 10.011719 16.128906 9.449219 15.574219 L 7.078125 17.941406 C 6.546875 18.46875 5.851563 18.804688 5.171875 18.835938 C 4.707031 18.859375 4.054688 18.765625 3.476563 18.1875 C 2.941406 17.648438 2.832031 17.011719 2.832031 16.589844 C 2.832031 15.875 3.167969 15.144531 3.722656 14.589844 L 7.878906 10.433594 C 8.929688 9.386719 10.554688 9.265625 11.480469 10.1875 C 12.007813 10.714844 12.855469 10.714844 13.386719 10.1875 C 13.914063 9.660156 13.914063 8.808594 13.386719 8.277344 C 12.433594 7.328125 11.164063 6.863281 9.878906 6.863281 Z M 19.695313 13.972656 C 16.535156 13.972656 13.972656 16.535156 13.972656 19.695313 C 13.972656 22.859375 16.535156 25.421875 19.695313 25.421875 C 22.859375 25.421875 25.421875 22.859375 25.421875 19.695313 C 25.421875 16.535156 22.859375 13.972656 19.695313 13.972656 Z M 18.710938 16.742188 L 20.683594 16.742188 L 20.683594 18.710938 L 22.652344 18.710938 L 22.652344 20.683594 L 20.683594 20.683594 L 20.683594 22.652344 L 18.710938 22.652344 L 18.710938 20.683594 L 16.742188 20.683594 L 16.742188 18.710938 L 18.710938 18.710938 Z "/> </g> </svg>
