<?xml version="1.0" encoding="UTF-8" standalone="no"?>
<!-- Generator: Adobe Illustrator 15.0.0, SVG Export Plug-In . SVG Version: 6.00 Build 0)  -->

<svg
   xmlns:dc="http://purl.org/dc/elements/1.1/"
   xmlns:cc="http://creativecommons.org/ns#"
   xmlns:rdf="http://www.w3.org/1999/02/22-rdf-syntax-ns#"
   xmlns:svg="http://www.w3.org/2000/svg"
   xmlns="http://www.w3.org/2000/svg"
   xmlns:sodipodi="http://sodipodi.sourceforge.net/DTD/sodipodi-0.dtd"
   xmlns:inkscape="http://www.inkscape.org/namespaces/inkscape"
   version="1.1"
   id="Layer_1"
   x="0px"
   y="0px"
   width="416px"
   height="416px"
   viewBox="0 0 26 26"
   enable-background="new 0 0 26 26"
   xml:space="preserve"
   sodipodi:docname="icons8_fix_port.svg"
   inkscape:version="0.92.3 (5aff6ba, 2018-11-25)"><metadata
     id="metadata843"><rdf:RDF><cc:Work
         rdf:about=""><dc:format>image/svg+xml</dc:format><dc:type
           rdf:resource="http://purl.org/dc/dcmitype/StillImage" /><dc:title></dc:title></cc:Work></rdf:RDF></metadata><defs
     id="defs841" /><sodipodi:namedview
     pagecolor="#ffffff"
     bordercolor="#666666"
     borderopacity="1"
     objecttolerance="10"
     gridtolerance="10"
     guidetolerance="10"
     inkscape:pageopacity="0"
     inkscape:pageshadow="2"
     inkscape:window-width="1853"
     inkscape:window-height="1025"
     id="namedview839"
     showgrid="false"
     inkscape:zoom="0.26862981"
     inkscape:cx="-1384.3514"
     inkscape:cy="274.20149"
     inkscape:window-x="67"
     inkscape:window-y="27"
     inkscape:window-maximized="1"
     inkscape:current-layer="Layer_1" /><path
     stroke-miterlimit="10"
     d="m 13.650083,10.739466 c 2.271262,0 5.612016,0 8.017166,0"
     id="path830"
     inkscape:connector-curvature="0"
     style="fill:#808080;stroke:#808080;stroke-width:1.5592767;stroke-linecap:round;stroke-linejoin:round;stroke-miterlimit:10;stroke-dasharray:none;stroke-opacity:1" /><path
     stroke-miterlimit="10"
     d="m 13.650083,16.804814 c 2.271262,0 5.612016,0 8.017166,0"
     id="path832"
     inkscape:connector-curvature="0"
     style="fill:#808080;stroke:#808080;stroke-width:1.5592767;stroke-linecap:round;stroke-linejoin:round;stroke-miterlimit:10;stroke-dasharray:none;stroke-opacity:1" /><path
     stroke-miterlimit="10"
     d="m 13.650083,13.772139 c 0.801717,0 5.612016,0 6.413732,0"
     id="path834"
     inkscape:connector-curvature="0"
     style="fill:#808080;stroke:#808080;stroke-width:1.55927742;stroke-linecap:round;stroke-linejoin:round;stroke-miterlimit:10;stroke-opacity:1" /><path
     d="M 23.48394,5.5892244 C 23.288321,5.4072639 23.087893,5.2222706 22.890671,5.0342449 22.691844,4.8477354 22.496225,4.6581933 22.303814,4.4732001 20.931274,3.1486792 20.114326,2.3996085 19.262099,2.3996085 h -6.413732 c -1.767787,0 -3.2068681,1.3609129 -3.2068681,3.032675 V 19.07932 c 0,1.671763 1.4390811,3.032674 3.2068681,3.032674 h 9.6206 c 1.767785,0 3.206866,-1.360911 3.206866,-3.032674 V 8.4649588 c 0,-0.8051757 -0.792096,-1.5785079 -2.191893,-2.8757344 z M 24.072401,19.07932 c 0,0.837019 -0.718339,1.516338 -1.603434,1.516338 h -9.6206 c -0.885097,0 -1.603435,-0.679319 -1.603435,-1.516338 V 5.4322835 c 0,-0.8370182 0.718338,-1.5163375 1.603435,-1.5163375 l 5.843713,-0.00303 c 0.578038,0.1395028 0.570019,0.8112407 0.570019,1.4837363 v 2.3101401 c 0,0.4177498 0.35997,0.7581679 0.801716,0.7581679 h 2.405152 c 0.800112,0 1.603434,0.00367 1.603434,0.7581693 z"
     id="path836"
     inkscape:connector-curvature="0"
     style="fill:#808080;stroke-width:0.77963871" /><path
     inkscape:connector-curvature="0"
     d="m 4.6466929,8.6172559 c -2.211817,0 -4.00477875,1.6545541 -4.00477875,3.6956311 0,2.04108 1.79296175,3.695922 4.00477875,3.695922 2.2118187,0 4.0050914,-1.654842 4.0050914,-3.695922 0,-2.041077 -1.7932727,-3.6956311 -4.0050914,-3.6956311 z m 2.1055427,2.5519241 -2.147739,2.922585 c -0.064389,0.0874 -0.165043,0.145379 -0.2650692,0.145379 -0.1000262,0 -0.2109923,-0.05048 -0.2813219,-0.115087 L 2.7977817,12.958734 c -0.085649,-0.07932 -0.085649,-0.208261 0,-0.287298 l 0.3113285,-0.287873 c 0.085649,-0.07846 0.2256833,-0.07846 0.3110193,0 l 0.8198961,0.756607 1.7832717,-2.427025 c 0.067829,-0.09232 0.2053651,-0.116246 0.3060148,-0.05394 l 0.3644692,0.228164 c 0.1000262,0.06259 0.1262834,0.189513 0.058449,0.281817 z"
     id="path5415"
     style="fill:#808080;stroke-width:0.30027327" /></svg>