<?xml version="1.0" encoding="UTF-8" standalone="no"?>
<svg
   width="104pt"
   height="104pt"
   viewBox="0 0 104 104"
   version="1.1"
   id="svg5"
   sodipodi:docname="icons8_offline_dics2.svg"
   inkscape:version="1.1.1 (3bf5ae0d25, 2021-09-20)"
   xmlns:inkscape="http://www.inkscape.org/namespaces/inkscape"
   xmlns:sodipodi="http://sodipodi.sourceforge.net/DTD/sodipodi-0.dtd"
   xmlns="http://www.w3.org/2000/svg"
   xmlns:svg="http://www.w3.org/2000/svg"
   xmlns:rdf="http://www.w3.org/1999/02/22-rdf-syntax-ns#"
   xmlns:cc="http://creativecommons.org/ns#"
   xmlns:dc="http://purl.org/dc/elements/1.1/">
  <metadata
     id="metadata11">
    <rdf:RDF>
      <cc:Work
         rdf:about="">
        <dc:format>image/svg+xml</dc:format>
        <dc:type
           rdf:resource="http://purl.org/dc/dcmitype/StillImage" />
        <dc:title />
      </cc:Work>
    </rdf:RDF>
  </metadata>
  <defs
     id="defs9" />
  <sodipodi:namedview
     pagecolor="#ffffff"
     bordercolor="#666666"
     borderopacity="1"
     objecttolerance="10"
     gridtolerance="10"
     guidetolerance="10"
     inkscape:pageopacity="0"
     inkscape:pageshadow="2"
     inkscape:window-width="1920"
     inkscape:window-height="995"
     id="namedview7"
     showgrid="false"
     inkscape:zoom="4.3344286"
     inkscape:cx="94.360765"
     inkscape:cy="72.90465"
     inkscape:window-x="0"
     inkscape:window-y="0"
     inkscape:window-maximized="1"
     inkscape:current-layer="svg5"
     inkscape:pagecheckerboard="0"
     inkscape:document-units="pt" />
  <g
     id="surface1"
     style="fill:#000000">
    <path
       style="fill:#000000;fill-opacity:1;fill-rule:nonzero;stroke:none"
       d="M 11.816406,0 C 7.507813,0 3.9375,3.570313 3.9375,7.878906 v 86.667969 c 0,4.308594 3.570313,7.878905 7.878906,7.878905 h 78.789063 c 4.308594,0 7.878906,-3.570311 7.878906,-7.878905 V 7.878906 C 98.484375,3.570313 94.914063,0 90.605469,0 Z m 0,7.878906 H 90.605469 V 94.546875 H 11.816406 Z"
       id="path2"
       sodipodi:nodetypes="sssssssssccccc" />
  </g>
  <path
     style="fill:#ffffff;stroke-width:0.163137"
     d="M 15.905882,68.272941 V 10.603922 H 68.35451 120.80314 V 68.272941 125.94196 H 68.35451 15.905882 Z"
     id="path15"
     transform="scale(0.74999997)" />
  <g
     id="surface1-7"
     transform="matrix(0.55381692,0,0,0.55050366,14.93425,14.354149)"
     style="fill:#000065;fill-opacity:1">
    <path
       style="fill:#000065;fill-opacity:1;fill-rule:nonzero;stroke:none"
       d="m 41.363281,0.738281 c -22.4375,0 -40.625,8.496094 -40.625,18.957032 0,10.464843 18.1875,18.960937 40.625,18.960937 22.4375,0 40.625,-8.496094 40.625,-18.960937 0,-10.460938 -18.1875,-18.957032 -40.625,-18.957032 z m -40.625,24.007813 v 14.648437 c 0,10.480469 18.1875,18.957032 40.625,18.957032 9.953104,0.61756 40.797568,-5.628639 41.114412,-13.206933 L 81.988281,24.746094 c 0,10.476562 -18.1875,18.957031 -40.625,18.957031 -22.4375,0 -40.625,-8.480469 -40.625,-18.957031 z m 0,19.695312 v 14.648438 c 0,10.480469 18.1875,18.960937 40.625,18.960937 2.847657,0 8.246573,-0.109375 10.92626,-0.371093 0.04181,-6.529229 -0.123005,-7.072999 0.244889,-15.386719 -4.1875,0.675781 -6.491461,1.105469 -11.171149,1.105469 -22.4375,0 -40.625,-8.476563 -40.625,-18.957032 z m 0,19.695313 v 14.652344 c 0,10.476562 18.1875,18.957031 40.625,18.957031 5.03125,0 10.999586,-0.771768 10.999586,-0.771768 -0.127726,-7.198079 -9.92e-4,-8.452437 0.172768,-14.139506 -2.742187,0.277344 -8.246572,0.262836 -11.172354,0.262836 -22.4375,0 -40.625,-8.480468 -40.625,-18.960937 z"
       id="path2-6"
       sodipodi:nodetypes="ssssscscccsccssccscscssccs" />
  </g>
  <g
     id="surface1-4"
     transform="matrix(0.39180111,0,0,0.38945713,46.813399,48.188971)"
     style="fill:#800000">
    <path
       style="fill:#800000;fill-opacity:1;fill-rule:nonzero;stroke:none"
       d="M 7.878906,0 C 5.816406,0 3.707031,0.722656 2.214844,2.214844 0.722656,3.707031 0,5.816406 0,7.878906 V 63.03125 c 0,2.0625 0.722656,4.167969 2.214844,5.660156 1.492187,1.496094 3.601562,2.21875 5.664062,2.21875 h 23.636719 v 23.636719 c 0,4.339844 3.539063,7.878905 7.878906,7.878905 h 55.152344 c 4.339844,0 7.878905,-3.539061 7.878905,-7.878905 V 39.394531 c 0,-4.339843 -3.539061,-7.878906 -7.878905,-7.878906 H 70.910156 V 7.878906 c 0,-2.0625 -0.722656,-4.171875 -2.21875,-5.664062 C 67.199219,0.722656 65.09375,0 63.03125,0 Z m 0,7.878906 H 63.03125 V 35.453125 L 35.453125,63.03125 H 7.878906 Z m 23.636719,7.878907 v 3.9375 H 15.757813 v 7.878906 h 26.46875 c -1.878907,4.265625 -5.09375,7.910156 -8.496094,10.957031 -0.199219,-0.136719 -0.414063,-0.230469 -0.613281,-0.367187 -3.511719,-2.417969 -5.542969,-5.265625 -5.542969,-6.648438 h -7.878906 c 0,5.402344 3.648437,9.171875 7.511718,12.0625 -4.695312,3.09375 -8.617187,4.800781 -8.617187,4.800781 l 2.953125,7.265625 c 0,0 6.402344,-2.339843 13.296875,-7.386718 2.183594,1.0625 4.183594,1.847656 5.660156,2.339843 l 2.464844,-7.511718 C 42.640625,42.980469 41.949219,42.65625 41.488281,42.472656 45.332031,38.5 48.78125,33.53125 50.597656,27.574219 h 4.554688 V 19.695313 H 39.394531 v -3.9375 z m 32.746094,33.855468 h 9.355469 L 86.667969,86.667969 H 78.050781 L 75.21875,78.050781 H 61.800781 l -2.339843,8.617188 h -8.25 z m 4.675781,5.90625 c -0.398437,1.972657 -1.921875,7.464844 -4.675781,16.128907 h 9.355469 C 71.246094,63.769531 69.707031,59.136719 69.308594,58.351563 68.910156,56.78125 68.9375,55.921875 68.9375,55.519531 Z"
       id="path2-3"
       sodipodi:nodetypes="scsscscsssssscscsscccccccccccccccccccccccccccccccccccccccccc" />
  </g>
</svg>
