<?xml version="1.0" encoding="UTF-8" standalone="no"?>
<svg
   xmlns:dc="http://purl.org/dc/elements/1.1/"
   xmlns:cc="http://creativecommons.org/ns#"
   xmlns:rdf="http://www.w3.org/1999/02/22-rdf-syntax-ns#"
   xmlns:svg="http://www.w3.org/2000/svg"
   xmlns="http://www.w3.org/2000/svg"
   xmlns:sodipodi="http://sodipodi.sourceforge.net/DTD/sodipodi-0.dtd"
   xmlns:inkscape="http://www.inkscape.org/namespaces/inkscape"
   version="1.1"
   id="Layer_1"
   x="0px"
   y="0px"
   width="416px"
   height="416px"
   viewBox="0 0 26 26"
   enable-background="new 0 0 26 26"
   xml:space="preserve"
   sodipodi:docname="icons8_quick_transl_dir.svg"
   inkscape:version="1.0.1 (3bc2e813f5, 2020-09-07)"><metadata
     id="metadata861"><rdf:RDF><cc:Work
         rdf:about=""><dc:format>image/svg+xml</dc:format><dc:type
           rdf:resource="http://purl.org/dc/dcmitype/StillImage" /><dc:title /></cc:Work></rdf:RDF></metadata><defs
     id="defs859" /><sodipodi:namedview
     pagecolor="#ffffff"
     bordercolor="#666666"
     borderopacity="1"
     objecttolerance="10"
     gridtolerance="10"
     guidetolerance="10"
     inkscape:pageopacity="0"
     inkscape:pageshadow="2"
     inkscape:window-width="1920"
     inkscape:window-height="1017"
     id="namedview857"
     showgrid="false"
     inkscape:zoom="1.1346154"
     inkscape:cx="-14.732643"
     inkscape:cy="63.269943"
     inkscape:window-x="-8"
     inkscape:window-y="-8"
     inkscape:window-maximized="1"
     inkscape:current-layer="Layer_1"
     inkscape:document-rotation="0" /><g
     aria-label="en  ru
de  fr"
     id="text23"
     style="font-style:normal;font-weight:normal;font-size:8.5646px;line-height:1.25;font-family:sans-serif;fill:#808080;fill-opacity:1;stroke:none;stroke-width:0.214115"><path
       d="M 4.8105537,7.1433091 H 1.3688224 q 0,0.4307391 0.1296399,0.752748 0.12964,0.317827 0.3554644,0.5227417 0.2174605,0.2007328 0.5143778,0.3010993 0.3010992,0.1003664 0.6607455,0.1003664 0.4767404,0 0.9576628,-0.1881871 0.4851043,-0.1923689 0.690019,-0.376374 h 0.041819 V 9.1129998 Q 4.3212675,9.2802772 3.9072561,9.3931894 3.4932446,9.5061016 3.0374139,9.5061016 q -1.1625776,0 -1.8149592,-0.6272901 Q 0.57007306,8.2473396 0.57007306,7.088944 q 0,-1.1458499 0.62310814,-1.8191412 0.62729,-0.6732913 1.6476818,-0.6732913 0.945117,0 1.4553129,0.5520153 0.5143778,0.5520152 0.5143778,1.5682251 z M 4.0452599,6.5411107 Q 4.0410779,5.9221845 3.7316148,5.5834479 3.4263337,5.2447112 2.7990437,5.2447112 q -0.631472,0 -1.007846,0.3721921 -0.3721921,0.3721921 -0.4223753,0.9242074 z"
       style="fill:#808080;stroke-width:0.214115"
       id="path13" /><path
       d="M 9.5333305,9.3973713 H 8.747127 V 6.7376615 C 8.747127,6.5229889 8.7345813,6.3222561 8.70949,6.1354631 8.6843981,5.9458821 8.6383967,5.7981204 8.5714858,5.6921781 8.5017869,5.575084 8.4014205,5.4886573 8.2703866,5.4328982 8.1393527,5.3743511 7.9692874,5.3450776 7.7601907,5.3450776 c -0.2146726,0 -0.439103,0.052971 -0.6732913,0.1589135 C 6.8527111,5.6099334 6.6282807,5.7451493 6.4136081,5.9096387 V 9.3973713 H 5.6274046 V 4.7261515 H 6.4136081 V 5.2447112 C 6.6589482,5.0411905 6.9126521,4.882277 7.17472,4.7679708 7.4367878,4.6536646 7.7058255,4.5965115 7.9818332,4.5965115 c 0.50462,0 0.8893579,0.1519436 1.1542136,0.4558308 0.2648558,0.3038872 0.3972837,0.7415962 0.3972837,1.3131271 z"
       style="fill:#808080;stroke-width:0.214115"
       id="path15"
       sodipodi:nodetypes="ccscccssccccccssssc" /><path
       d="m 20.358983,5.5834479 h -0.04182 q -0.175641,-0.041819 -0.342919,-0.058547 -0.163095,-0.02091 -0.388919,-0.02091 -0.363829,0 -0.702565,0.1630954 Q 18.544024,5.826 18.230379,6.081098 V 9.3973713 H 17.444176 V 4.7261515 h 0.786203 v 0.690019 q 0.468377,-0.376374 0.823841,-0.5311056 0.359646,-0.1589134 0.731838,-0.1589134 0.204915,0 0.296918,0.012546 0.092,0.00836 0.276007,0.037637 z"
       style="fill:#808080;stroke-width:0.214115"
       id="path17" /><path
       d="M 24.971656,9.3973713 H 24.185453 V 8.8788115 q -0.397284,0.313645 -0.761112,0.4809224 -0.363828,0.1672773 -0.802931,0.1672773 -0.736021,0 -1.14585,-0.4474669 -0.40983,-0.4516488 -0.40983,-1.321491 V 4.7261515 h 0.786204 v 2.6597097 q 0,0.3554644 0.03346,0.6105623 0.03346,0.2509161 0.142186,0.4307392 0.112912,0.1840051 0.292735,0.2676437 0.179824,0.083639 0.522742,0.083639 0.305281,0 0.664928,-0.1589135 0.363828,-0.1589134 0.677473,-0.4056475 V 4.7261515 h 0.786203 z"
       style="fill:#808080;stroke-width:0.214115"
       id="path19" /><path
       d="M 4.6892776,20.103121 H 3.9030741 v -0.489286 q -0.3387366,0.292735 -0.7067468,0.455831 -0.3680101,0.163095 -0.7987493,0.163095 -0.8363867,0 -1.3298548,-0.644018 -0.48928628,-0.644017 -0.48928628,-1.785685 0,-0.593835 0.16727735,-1.058029 0.17145927,-0.464195 0.46001273,-0.790386 0.2843714,-0.317827 0.6607455,-0.485104 0.3805559,-0.167277 0.7862035,-0.167277 0.3680101,0 0.6523816,0.07946 0.2843715,0.07528 0.5980165,0.23837 V 13.596033 H 4.6892776 Z M 3.9030741,18.95309 v -2.68062 q -0.3178269,-0.142186 -0.5687429,-0.196551 -0.2509161,-0.05437 -0.5478333,-0.05437 -0.6607455,0 -1.0287557,0.460013 -0.3680102,0.460012 -0.3680102,1.304763 0,0.832205 0.2843715,1.267126 0.2843715,0.430739 0.9116615,0.430739 0.3345547,0 0.6774733,-0.146368 0.3429185,-0.150549 0.6398358,-0.384737 z"
       style="fill:#808080;stroke-width:0.214115"
       id="path21" /><path
       d="M 9.771701,17.849059 H 6.3299697 c 0,0.287159 0.043213,0.538075 0.1296399,0.752748 0.086427,0.211885 0.2049148,0.386132 0.3554644,0.522742 0.1449737,0.133822 0.3164329,0.234188 0.5143778,0.301099 0.2007328,0.06691 0.4209813,0.100366 0.6607455,0.100366 0.3178269,0 0.6370479,-0.06273 0.9576628,-0.188187 0.3234029,-0.128246 0.5534092,-0.253704 0.6900189,-0.376374 h 0.04182 v 0.857297 c -0.2648555,0.111518 -0.535287,0.204914 -0.8112946,0.280189 -0.2760077,0.07527 -0.5659551,0.112913 -0.8698422,0.112913 -0.7750517,0 -1.3800381,-0.209097 -1.8149592,-0.62729 -0.4349211,-0.420981 -0.6523816,-1.017604 -0.6523816,-1.789868 0,-0.7639 0.2077027,-1.37028 0.6231081,-1.819141 0.4181933,-0.448861 0.9674206,-0.673291 1.6476818,-0.673291 0.630078,0 1.1151823,0.184005 1.4553129,0.552015 0.3429185,0.36801 0.5143794,0.890752 0.5143778,1.568225 z M 9.0064072,17.246861 C 9.0036192,16.834243 8.8990709,16.515022 8.6927622,16.289198 8.4892414,16.063373 8.1783843,15.950461 7.760191,15.950461 c -0.4209813,0 -0.75693,0.124064 -1.007846,0.372192 -0.2481281,0.248128 -0.3889198,0.556197 -0.4223753,0.924208 z"
       style="fill:#808080;stroke-width:0.214115"
       id="path23"
       sodipodi:nodetypes="cccccsccccsscscscscccsccc" /><path
       d="m 20.498879,14.357145 h -0.04182 c -0.08643,-0.02509 -0.199339,-0.05018 -0.338736,-0.07527 -0.139398,-0.02788 -0.262068,-0.04182 -0.368011,-0.04182 -0.337343,0 -0.582683,0.07527 -0.73602,0.225825 -0.150549,0.147761 0.01549,0.500333 -0.225824,0.807113 v 0.158913 h 1.417675 v 0.660746 h -1.392584 v 4.010474 H 18.027356 V 16.092647 H 17.49625 v -0.660746 h 0.531106 V 15.27717 c 0,-0.554803 0.138004,-0.979967 0.414011,-1.27549 0.276008,-0.298311 0.674686,-0.447467 1.196033,-0.447467 0.175641,0 0.333161,0.0084 0.472559,0.02509 0.142185,0.01673 0.271825,0.03624 0.38892,0.05855 z"
       style="fill:#808080;stroke-width:0.214115"
       id="path25"
       sodipodi:nodetypes="cccscsccccccccccscsccc" /><path
       d="m 23.911336,16.289198 h -0.04182 c -0.117094,-0.02788 -0.2314,-0.0474 -0.342919,-0.05855 -0.10873,-0.01394 -0.23837,-0.02091 -0.38892,-0.02091 -0.242552,0 -0.47674,0.05436 -0.702564,0.163096 -0.225825,0.105942 -0.443285,0.243946 -0.652382,0.414011 v 3.316273 h -0.786204 v -4.67122 h 0.786204 v 0.69002 c 0.312251,-0.250917 0.586865,-0.427952 0.823841,-0.531106 0.239764,-0.105943 0.48371,-0.158914 0.731838,-0.158914 0.13661,0 0.235583,0.0042 0.296918,0.01255 0.06133,0.0056 0.153336,0.01815 0.276007,0.03764 z"
       style="fill:#808080;stroke-width:0.214115"
       id="path27"
       sodipodi:nodetypes="cccsccccccccsccc" /></g><polygon
     transform="matrix(0.13751504,0,0,-0.19359564,12.207015,9.6534223)"
     style="fill:#808080"
     points="25.906,13 12,4.061 12,21.938 "
     id="polygon858-4" /><rect
     x="-14.456196"
     style="fill:#808080;stroke-width:0.179483"
     y="-7.9227457"
     width="2.8287876"
     height="1.5487652"
     id="rect856-6-6"
     transform="scale(-1)" /><polygon
     transform="matrix(-0.13751504,0,0,-0.19359564,15.01673,19.651188)"
     style="fill:#808080"
     points="25.906,13 12,4.061 12,21.938 "
     id="polygon858-4-8" /><rect
     x="12.767545"
     style="fill:#808080;stroke-width:0.179483"
     y="-17.920509"
     width="2.8287876"
     height="1.5487652"
     id="rect856-6-6-3"
     transform="scale(1,-1)" /></svg>
