<?xml version="1.0" encoding="UTF-8" standalone="no"?>
<svg
   xmlns:dc="http://purl.org/dc/elements/1.1/"
   xmlns:cc="http://creativecommons.org/ns#"
   xmlns:rdf="http://www.w3.org/1999/02/22-rdf-syntax-ns#"
   xmlns:svg="http://www.w3.org/2000/svg"
   xmlns="http://www.w3.org/2000/svg"
   xmlns:sodipodi="http://sodipodi.sourceforge.net/DTD/sodipodi-0.dtd"
   xmlns:inkscape="http://www.inkscape.org/namespaces/inkscape"
   width="104pt"
   height="104pt"
   viewBox="0 0 104 104"
   version="1.1"
   id="svg5"
   sodipodi:docname="alligator.svg"
   inkscape:version="1.0.1 (3bc2e813f5, 2020-09-07)">
  <metadata
     id="metadata11">
    <rdf:RDF>
      <cc:Work
         rdf:about="">
        <dc:format>image/svg+xml</dc:format>
        <dc:type
           rdf:resource="http://purl.org/dc/dcmitype/StillImage" />
        <dc:title></dc:title>
      </cc:Work>
    </rdf:RDF>
  </metadata>
  <defs
     id="defs9" />
  <sodipodi:namedview
     pagecolor="#ffffff"
     bordercolor="#666666"
     borderopacity="1"
     objecttolerance="10"
     gridtolerance="10"
     guidetolerance="10"
     inkscape:pageopacity="0"
     inkscape:pageshadow="2"
     inkscape:window-width="1920"
     inkscape:window-height="1017"
     id="namedview7"
     showgrid="false"
     inkscape:zoom="6.1298077"
     inkscape:cx="69.333333"
     inkscape:cy="69.333333"
     inkscape:window-x="-8"
     inkscape:window-y="-8"
     inkscape:window-maximized="1"
     inkscape:current-layer="svg5" />
  <g
     id="surface1"
     style="fill:#808080">
    <path
       style="stroke:none;fill-rule:nonzero;fill:#808080;fill-opacity:1"
       d="M 80.265625 0 C 77.710938 0.308594 75.511719 1.921875 74.480469 5.171875 C 62.261719 16.988281 43.78125 27.238281 32.746094 30.777344 C 35.902344 32.347656 47.640625 32.746094 47.640625 32.746094 C 47.640625 32.746094 37.871094 35.855469 26.835938 33.484375 C 10.292969 26.390625 5.863281 37.46875 6.648438 46.535156 C 5.460938 50.074219 0 57.167969 0 66.230469 C 0 82.390625 6.695313 102.425781 27.574219 102.425781 C 48.457031 102.425781 55.566406 88.191406 62.660156 81.496094 C 69.753906 74.800781 86.328125 70.941406 93.808594 66.601563 C 100.902344 62.261719 104.363281 55.519531 100.824219 47.640625 C 91.761719 46.457031 86.667969 56.75 82.726563 58.722656 C 74.449219 62.261719 69.308594 62.199219 61.429688 63.769531 C 39.761719 68.109375 37.453125 79.574219 21.296875 74.847656 C 35.085938 72.09375 40.164063 57.90625 47.640625 55.152344 C 61.03125 50.425781 70.570313 41.410156 74.109375 32.746094 C 77.265625 24.082031 90.558594 23.605469 91.34375 6.277344 C 89.621094 2.339844 84.527344 -0.523438 80.265625 0 Z M 81.25 3.570313 C 81.480469 3.539063 81.742188 3.523438 81.988281 3.570313 C 83.957031 3.96875 85.4375 5.171875 85.4375 5.171875 C 85.4375 5.171875 83.867188 6.695313 81.496094 7.878906 C 79.125 8.664063 77.234375 7.480469 78.417969 5.910156 C 78.417969 5.910156 79.632813 3.832031 81.25 3.570313 Z M 91.835938 14.15625 C 91.4375 15.726563 90.652344 17.390625 89.867188 18.957031 C 91.050781 20.527344 91.421875 20.851563 92.207031 20.066406 C 92.207031 17.3125 91.835938 14.558594 91.835938 14.15625 Z M 86.667969 22.40625 C 85.882813 23.589844 84.652344 24.820313 83.464844 25.605469 C 85.4375 27.976563 85.851563 29.128906 87.035156 27.945313 C 87.035156 25.976563 87.066406 23.976563 86.667969 22.40625 Z M 80.386719 27.574219 C 79.203125 29.144531 77.601563 29.960938 76.816406 31.144531 C 79.1875 33.898438 79.574219 35.039063 80.757813 33.855469 C 80.757813 31.101563 80.789063 28.761719 80.386719 27.574219 Z M 74.109375 36.191406 C 73.324219 37.761719 72.09375 39.792969 70.910156 41.363281 L 71.277344 41.734375 C 74.03125 44.101563 74.402344 45.257813 75.585938 44.070313 C 75.1875 39.734375 74.109375 36.191406 74.109375 36.191406 Z M 19.203125 37.179688 C 21.960938 37.007813 23.789063 38.132813 24.375 39.023438 C 24.773438 39.808594 24.082031 42.59375 22.898438 44.5625 C 20.144531 41.808594 16.125 40.625 16.125 40.625 C 16.125 40.625 19.742188 47.242188 18.957031 47.640625 C 16.988281 48.042969 14.574219 47.226563 13.789063 46.042969 C 12.601563 44.472656 12.972656 38.976563 16.125 37.792969 C 17.203125 37.394531 18.28125 37.238281 19.203125 37.179688 Z M 93.808594 44.070313 C 92.621094 44.472656 93.023438 45.304688 93.808594 47.273438 C 94.589844 46.488281 95.730469 46.042969 96.515625 46.042969 C 95.730469 45.257813 94.992188 44.472656 93.808594 44.070313 Z M 67.339844 45.304688 C 66.152344 46.488281 64.953125 47.320313 63.769531 48.503906 C 64.953125 50.875 65.414063 51.628906 66.601563 50.84375 C 67 48.875 67.339844 46.871094 67.339844 45.304688 Z M 87.40625 47.640625 C 86.21875 48.042969 87.003906 48.796875 87.40625 51.949219 C 88.191406 51.550781 89.050781 50.398438 90.238281 49.613281 C 89.453125 48.828125 88.589844 48.042969 87.40625 47.640625 Z M 58.722656 51.949219 C 57.535156 52.734375 56.335938 53.519531 55.152344 53.921875 C 56.335938 56.675781 56.289063 57.9375 57.859375 56.75 C 58.261719 54.78125 58.320313 53.136719 58.722656 51.949219 Z M 80.386719 52.8125 C 79.203125 53.210938 79.617188 53.964844 80.019531 57.121094 L 80.019531 57.492188 C 80.804688 57.089844 81.941406 56.78125 82.726563 56.382813 C 83.128906 56.382813 83.066406 55.890625 83.464844 55.890625 C 83.066406 55.105469 81.957031 53.996094 80.386719 52.8125 Z M 49.980469 55.890625 C 49.582031 55.890625 49.273438 56.382813 48.875 56.382813 C 48.089844 56.78125 47.6875 57.089844 46.902344 57.492188 C 48.472656 60.246094 48.425781 61.105469 49.613281 60.320313 C 50.011719 58.753906 49.980469 57.074219 49.980469 55.890625 Z M 65 56.382813 C 63.816406 56.78125 64.230469 57.535156 64.628906 60.691406 C 66.199219 60.292969 67.371094 60.230469 68.9375 59.828125 C 68.15625 59.429688 66.96875 57.953125 65 56.382813 Z M 72.140625 57.121094 C 70.957031 57.519531 71.277344 57.859375 71.277344 59.828125 C 72.0625 59.828125 73.324219 59.460938 74.109375 59.460938 C 73.710938 58.273438 72.925781 57.90625 72.140625 57.121094 Z M 58.230469 60.691406 C 57.890625 60.859375 57.859375 61.398438 57.859375 62.292969 C 58.644531 62.292969 59.042969 61.800781 59.828125 61.800781 L 58.722656 60.691406 C 58.523438 60.691406 58.335938 60.628906 58.230469 60.691406 Z "
       id="path2" />
  </g>
</svg>
