<?xml version="1.0" encoding="UTF-8" standalone="no"?>
<!-- Generator: Adobe Illustrator 15.0.0, SVG Export Plug-In . SVG Version: 6.00 Build 0)  -->

<svg
   xmlns:dc="http://purl.org/dc/elements/1.1/"
   xmlns:cc="http://creativecommons.org/ns#"
   xmlns:rdf="http://www.w3.org/1999/02/22-rdf-syntax-ns#"
   xmlns:svg="http://www.w3.org/2000/svg"
   xmlns="http://www.w3.org/2000/svg"
   xmlns:sodipodi="http://sodipodi.sourceforge.net/DTD/sodipodi-0.dtd"
   xmlns:inkscape="http://www.inkscape.org/namespaces/inkscape"
   version="1.1"
   id="Layer_1"
   x="0px"
   y="0px"
   width="416px"
   height="416px"
   viewBox="0 0 26 26"
   enable-background="new 0 0 26 26"
   xml:space="preserve"
   sodipodi:docname="icons8-document-space-width.svg"
   inkscape:version="0.92.2 (5c3e80d, 2017-08-06)"><metadata
     id="metadata843"><rdf:RDF><cc:Work
         rdf:about=""><dc:format>image/svg+xml</dc:format><dc:type
           rdf:resource="http://purl.org/dc/dcmitype/StillImage" /><dc:title /></cc:Work></rdf:RDF></metadata><defs
     id="defs841" /><sodipodi:namedview
     pagecolor="#ffffff"
     bordercolor="#666666"
     borderopacity="1"
     objecttolerance="10"
     gridtolerance="10"
     guidetolerance="10"
     inkscape:pageopacity="0"
     inkscape:pageshadow="2"
     inkscape:window-width="974"
     inkscape:window-height="734"
     id="namedview839"
     showgrid="false"
     inkscape:zoom="0.75979984"
     inkscape:cx="139.05434"
     inkscape:cy="132.85348"
     inkscape:window-x="238"
     inkscape:window-y="24"
     inkscape:window-maximized="0"
     inkscape:current-layer="Layer_1" /><path
     stroke-miterlimit="10"
     d="m 8.2760271,10.955647 c 2.8083399,0 6.9390699,0 9.9129559,0"
     id="path830"
     inkscape:connector-curvature="0"
     style="fill:#808080;stroke:#808080;stroke-width:1.25;stroke-linecap:round;stroke-linejoin:round;stroke-miterlimit:10;stroke-opacity:1;stroke-dasharray:none" /><path
     stroke-miterlimit="10"
     d="m 8.2371517,18.968545 c 2.7011663,0 6.6742553,0 9.5346493,0"
     id="path832"
     inkscape:connector-curvature="0"
     style="fill:#808080;stroke:#808080;stroke-width:1.25;stroke-linecap:round;stroke-linejoin:round;stroke-miterlimit:10;stroke-dasharray:none;stroke-opacity:1" /><path
     stroke-miterlimit="10"
     d="m 7.420182,15.087096 c 0.3494377,0 2.4460643,0 2.795502,0"
     id="path834"
     inkscape:connector-curvature="0"
     style="fill:#808080;stroke:#808080;stroke-width:1.24443746;stroke-linecap:round;stroke-linejoin:round;stroke-miterlimit:10;stroke-dasharray:none;stroke-opacity:1" /><path
     d="M 19.657065,5.2508194 C 19.432133,5.0404325 19.20167,4.826539 18.974894,4.6091392 18.746273,4.3934926 18.52134,4.1743396 18.300095,3.9604462 16.721881,2.4290046 15.782511,1.5629116 14.80258,1.5629116 H 7.4277442 c -2.0326889,0 -3.6874176,1.5735191 -3.6874176,3.5064491 V 20.848381 c 0,1.93293 1.6547287,3.506449 3.6874176,3.506449 H 18.489998 c 2.032689,0 3.687417,-1.573519 3.687417,-3.506449 V 8.5758096 c 0,-0.9309622 -0.910792,-1.8251067 -2.52035,-3.3249902 z m 0.676641,15.5975616 c 0,0.96778 -0.82598,1.753225 -1.843708,1.753225 H 7.4277442 c -1.0177272,0 -1.8437088,-0.785445 -1.8437088,-1.753225 V 5.0693607 c 0,-0.9677799 0.8259816,-1.7532245 1.8437088,-1.7532245 l 6.7193978,-0.00351 c 0.664657,0.1612967 0.655438,0.9379752 0.655438,1.7155302 v 2.6710375 c 0,0.4830133 0.413912,0.8766122 0.921855,0.8766122 h 2.765563 c 0.92001,0 1.843708,0.00438 1.843708,0.8766123 z"
     id="path836"
     inkscape:connector-curvature="0"
     style="fill:#808080;stroke-width:0.89894873" /><rect
     x="14.326984"
     style="fill:#808080;stroke-width:0.2307926"
     y="13.874249"
     width="3.6409657"
     height="1.9896016"
     id="rect856" /><polygon
     transform="matrix(0.21417445,0,0,0.24870019,14.326981,11.635947)"
     style="fill:#808080"
     points="25.906,13 12,4.061 12,21.938 "
     id="polygon858" /><rect
     x="-17.496101"
     style="fill:#808080;stroke-width:0.25387648"
     y="13.846575"
     width="4.4057279"
     height="1.9896016"
     id="rect856-6"
     transform="scale(-1,1)" /><polygon
     transform="matrix(-0.22341213,0,0,0.24870019,17.067121,11.608273)"
     style="fill:#808080"
     points="12,4.061 12,21.938 25.906,13 "
     id="polygon858-7" /></svg>