<?xml version="1.0" encoding="UTF-8" standalone="no"?>
<!-- Generator: Adobe Illustrator 15.0.0, SVG Export Plug-In . SVG Version: 6.00 Build 0)  -->

<svg
   xmlns:dc="http://purl.org/dc/elements/1.1/"
   xmlns:cc="http://creativecommons.org/ns#"
   xmlns:rdf="http://www.w3.org/1999/02/22-rdf-syntax-ns#"
   xmlns:svg="http://www.w3.org/2000/svg"
   xmlns="http://www.w3.org/2000/svg"
   xmlns:sodipodi="http://sodipodi.sourceforge.net/DTD/sodipodi-0.dtd"
   xmlns:inkscape="http://www.inkscape.org/namespaces/inkscape"
   version="1.1"
   id="Layer_1"
   x="0px"
   y="0px"
   width="416px"
   height="416px"
   viewBox="0 0 26 26"
   enable-background="new 0 0 26 26"
   xml:space="preserve"
   sodipodi:docname="icons8-settings-to-gd.svg"
   inkscape:version="0.92.2 (5c3e80d, 2017-08-06)"><metadata
     id="metadata861"><rdf:RDF><cc:Work
         rdf:about=""><dc:format>image/svg+xml</dc:format><dc:type
           rdf:resource="http://purl.org/dc/dcmitype/StillImage" /><dc:title></dc:title></cc:Work></rdf:RDF></metadata><defs
     id="defs859" /><sodipodi:namedview
     pagecolor="#ffffff"
     bordercolor="#666666"
     borderopacity="1"
     objecttolerance="10"
     gridtolerance="10"
     guidetolerance="10"
     inkscape:pageopacity="0"
     inkscape:pageshadow="2"
     inkscape:window-width="737"
     inkscape:window-height="480"
     id="namedview857"
     showgrid="false"
     inkscape:zoom="0.28365385"
     inkscape:cx="65.18708"
     inkscape:cy="146.07082"
     inkscape:window-x="0"
     inkscape:window-y="0"
     inkscape:window-maximized="0"
     inkscape:current-layer="Layer_1" /><g
     id="g854"
     transform="matrix(0.72537725,0,0,0.70709341,-0.26465007,2.0090569)"
     style="fill:#808080"><path
       d="m 13,8.07 c -2.718,0 -4.93,2.212 -4.93,4.93 0,2.718 2.212,4.93 4.93,4.93 2.718,0 4.93,-2.212 4.93,-4.93 0,-2.718 -2.212,-4.93 -4.93,-4.93 z m -0.023,7.008 c -1.146,0 -2.078,-0.931 -2.078,-2.077 0,-1.147 0.932,-2.077 2.078,-2.077 1.146,0 2.076,0.93 2.076,2.077 0,1.146 -0.93,2.077 -2.076,2.077 z"
       id="path850"
       inkscape:connector-curvature="0"
       style="fill:#808080" /><path
       d="M 25.035,14.481 V 11.472 L 21.454,10.887 C 21.242,10.038 20.909,9.241 20.471,8.511 L 22.558,5.536 20.43,3.41 17.493,5.521 C 16.761,5.078 15.959,4.74 15.104,4.527 L 14.48,0.964 h -3.009 l -0.58,3.552 C 10.037,4.726 9.23,5.059 8.496,5.5 L 5.568,3.408 3.44,5.535 5.5,8.48 C 5.055,9.217 4.716,10.023 4.501,10.883 l -3.536,0.589 v 3.009 l 3.532,0.626 c 0.213,0.858 0.552,1.664 0.999,2.402 l -2.088,2.92 2.127,2.129 2.949,-2.065 c 0.736,0.442 1.541,0.778 2.396,0.989 l 0.592,3.554 h 3.009 l 0.632,-3.563 c 0.851,-0.215 1.653,-0.554 2.383,-0.998 l 2.97,2.084 2.127,-2.129 -2.119,-2.943 c 0.438,-0.73 0.771,-1.528 0.981,-2.377 z M 13,19.525 C 9.396,19.525 6.475,16.603 6.475,13 6.475,9.397 9.396,6.475 13,6.475 c 3.604,0 6.525,2.921 6.525,6.525 0,3.604 -2.921,6.525 -6.525,6.525 z"
       id="path852"
       inkscape:connector-curvature="0"
       style="fill:#808080" /></g><polygon
     transform="matrix(0,0.23063669,-0.32469357,0,25.972972,7.7218964)"
     style="fill:#808080"
     points="12,21.938 25.906,13 12,4.061 "
     id="polygon858" /><rect
     x="-12.187429"
     style="fill:#808080;stroke-width:0.30102435"
     y="-23.109388"
     width="4.744369"
     height="2.5975487"
     id="rect856-6"
     transform="matrix(0,-1,-1,0,0,0)" /><g
     transform="matrix(0.39873449,0,0,0.39186171,15.49174,14.747327)"
     id="surface1"
     style="fill:#808080"><path
       inkscape:connector-curvature="0"
       style="fill:#808080;fill-opacity:1;fill-rule:nonzero;stroke:none"
       d="M 17.289063,1.96875 H 8.316406 L 0,16.078125 4.160156,23.988281 h 16.796875 l 4.648438,-8.398437 z M 24.160156,15.601563 15.15625,12.28125 10.214844,3.207031 h 6.378906 z m -13.851562,-0.585938 2.574219,-4.222656 2.414062,4.222656 z M 9.023438,3.207031 h 0.023437 l 1.695313,8.726563 -6.328125,9.871094 -3,-5.691407 z M 20.226563,22.75 H 4.910156 l -0.00391,-0.0039 7.886719,-6.488281 11.03125,-0.0039 z"
       id="path826" /></g></svg>