<?xml version="1.0" encoding="UTF-8" standalone="no"?>
<!-- Generator: Adobe Illustrator 15.0.0, SVG Export Plug-In . SVG Version: 6.00 Build 0)  -->

<svg
   xmlns:dc="http://purl.org/dc/elements/1.1/"
   xmlns:cc="http://creativecommons.org/ns#"
   xmlns:rdf="http://www.w3.org/1999/02/22-rdf-syntax-ns#"
   xmlns:svg="http://www.w3.org/2000/svg"
   xmlns="http://www.w3.org/2000/svg"
   xmlns:sodipodi="http://sodipodi.sourceforge.net/DTD/sodipodi-0.dtd"
   xmlns:inkscape="http://www.inkscape.org/namespaces/inkscape"
   version="1.1"
   id="Layer_1"
   x="0px"
   y="0px"
   width="416px"
   height="416px"
   viewBox="0 0 26 26"
   enable-background="new 0 0 26 26"
   xml:space="preserve"
   sodipodi:docname="icons8_position_info.svg"
   inkscape:version="0.92.3 (2405546, 2018-03-11)"><metadata
     id="metadata861"><rdf:RDF><cc:Work
         rdf:about=""><dc:format>image/svg+xml</dc:format><dc:type
           rdf:resource="http://purl.org/dc/dcmitype/StillImage" /><dc:title></dc:title></cc:Work></rdf:RDF></metadata><defs
     id="defs859" /><sodipodi:namedview
     pagecolor="#ffffff"
     bordercolor="#666666"
     borderopacity="1"
     objecttolerance="10"
     gridtolerance="10"
     guidetolerance="10"
     inkscape:pageopacity="0"
     inkscape:pageshadow="2"
     inkscape:window-width="1850"
     inkscape:window-height="1016"
     id="namedview857"
     showgrid="false"
     inkscape:zoom="0.28365385"
     inkscape:cx="-622.27054"
     inkscape:cy="146.07082"
     inkscape:window-x="70"
     inkscape:window-y="27"
     inkscape:window-maximized="1"
     inkscape:current-layer="Layer_1" /><path
     inkscape:connector-curvature="0"
     d="m 9.2587875,1.0688558 c -3.8300801,0 -6.9356944,2.9366691 -6.9356944,6.5583912 0,3.621724 6.0478687,10.082731 6.0478687,14.954512 h 1.7756512 c 0,-4.85583 6.048758,-11.627462 6.048758,-14.954512 0,-3.6217221 -3.106503,-6.5583912 -6.9365835,-6.5583912 z m 0,9.2465602 c -1.5696758,0 -2.8428179,-1.2047229 -2.8428179,-2.688169 0,-1.4834451 1.2731421,-2.6881673 2.8428179,-2.6881673 1.5696755,0 2.8428175,1.2038819 2.8428175,2.6881673 0,1.4842861 -1.273142,2.688169 -2.8428175,2.688169 z"
     id="path1411"
     style="fill:#808080;stroke-width:0.86333913" /><path
     inkscape:connector-curvature="0"
     d="m 19.610169,11.739841 c -2.677288,0 -4.847457,1.835154 -4.847457,4.099507 0,1.161052 0.573119,2.207317 1.490407,2.953071 -0.252814,1.020955 -1.528441,1.442313 -1.444543,1.731061 0.807289,0.444529 2.979695,-0.402108 3.685186,-0.698342 0.359085,0.07165 0.731594,0.113717 1.116407,0.113717 2.677288,0 4.847457,-1.835153 4.847457,-4.099507 0,-2.264353 -2.170169,-4.099507 -4.847457,-4.099507 z m 0.718542,6.208079 c -0.181966,0.07201 -0.60705,0.258447 -0.996711,0.258447 -0.360577,0 -0.854272,-0.158989 -0.854272,-0.668397 0,-0.590329 0.43739,-1.431263 0.43739,-1.918926 0,-0.542917 -0.738304,-0.248466 -0.791999,-0.228859 l 0.07383,-0.290174 c 0.182712,-0.0713 0.614881,-0.258804 0.99783,-0.258804 0.31061,0 0.83861,0.106944 0.83861,0.668398 0,0.563593 -0.436644,1.465841 -0.436644,1.918569 0,0.125124 -0.01678,0.323326 0.391153,0.323326 0.158847,0 0.37661,-0.07629 0.41539,-0.0934 z m -0.517186,-3.6425 c -0.264,0 -0.66522,-0.173962 -0.66522,-0.591042 0,-0.423497 0.427322,-0.593894 0.66522,-0.593894 0.280407,0 0.66261,0.195351 0.66261,0.593894 0,0.241336 -0.198373,0.591042 -0.66261,0.591042 z"
     id="path843"
     style="fill:#808080;stroke-width:0.36458784" /></svg>