<?xml version="1.0" encoding="UTF-8" standalone="no"?>
<svg
   xmlns:dc="http://purl.org/dc/elements/1.1/"
   xmlns:cc="http://creativecommons.org/ns#"
   xmlns:rdf="http://www.w3.org/1999/02/22-rdf-syntax-ns#"
   xmlns:svg="http://www.w3.org/2000/svg"
   xmlns="http://www.w3.org/2000/svg"
   xmlns:sodipodi="http://sodipodi.sourceforge.net/DTD/sodipodi-0.dtd"
   xmlns:inkscape="http://www.inkscape.org/namespaces/inkscape"
   version="1.1"
   id="Layer_1"
   x="0px"
   y="0px"
   width="416px"
   height="416px"
   viewBox="0 0 26 26"
   enable-background="new 0 0 26 26"
   xml:space="preserve"
   sodipodi:docname="icons8_font_select_dialog.svg"
   inkscape:version="1.0.1 (3bc2e813f5, 2020-09-07)"><metadata
   id="metadata2458"><rdf:RDF><cc:Work
       rdf:about=""><dc:format>image/svg+xml</dc:format><dc:type
         rdf:resource="http://purl.org/dc/dcmitype/StillImage" /><dc:title></dc:title></cc:Work></rdf:RDF></metadata><defs
   id="defs2456" /><sodipodi:namedview
   pagecolor="#ffffff"
   bordercolor="#666666"
   borderopacity="1"
   objecttolerance="10"
   gridtolerance="10"
   guidetolerance="10"
   inkscape:pageopacity="0"
   inkscape:pageshadow="2"
   inkscape:window-width="812"
   inkscape:window-height="480"
   id="namedview2454"
   showgrid="false"
   inkscape:zoom="0.56730769"
   inkscape:cx="208"
   inkscape:cy="208"
   inkscape:window-x="70"
   inkscape:window-y="27"
   inkscape:window-maximized="0"
   inkscape:current-layer="Layer_1"
   inkscape:document-rotation="0" />

<path
   fill="#000000"
   d="M23,0H3C1.344,0,0,1.344,0,3v20c0,1.656,1.344,3,3,3h20c1.656,0,3-1.344,3-3V3C26,1.344,24.656,0,23,0z   M12,2h11v3H12V2z M8.5,1.85c0.911,0,1.65,0.738,1.65,1.65S9.411,5.15,8.5,5.15S6.85,4.412,6.85,3.5S7.589,1.85,8.5,1.85z M3.5,1.85  c0.911,0,1.65,0.738,1.65,1.65S4.411,5.15,3.5,5.15S1.85,4.412,1.85,3.5S2.589,1.85,3.5,1.85z M24,23c0,0.551-0.449,1-1,1H3  c-0.551,0-1-0.449-1-1V7h22V23z"
   id="path2451"
   style="fill:#808080" />
<path
   style="fill:#808080;fill-opacity:1;fill-rule:nonzero;stroke:none;stroke-width:0.568385"
   d="m 6.9878805,10.170424 c -0.2176744,0 -0.322158,0.06794 -0.3765765,0.124555 -0.056595,0.05888 -0.1175444,0.172113 -0.1719628,0.285345 l -2.7949383,9.420927 c -0.056595,0.172114 -0.056595,0.280817 0,0.339697 0.054419,0 0.1131906,0.05435 0.2220281,0.05435 h 1.5955526 c 0.1088369,0 0.2154978,-0.04982 0.3243346,-0.108702 0.056595,-0.05662 0.1719629,-0.183436 0.1719629,-0.35555 l 0.498474,-1.820773 h 2.9320731 l 0.4636462,1.820775 c 0.054419,0.172113 0.097953,0.298933 0.1545496,0.355549 0.05442,0.05889 0.176316,0.108703 0.341748,0.108703 h 1.802344 c 0.108837,0 0.169786,-0.04983 0.169786,-0.108703 0.0566,-0.05662 0.0566,-0.113233 0,-0.285346 L 9.4062421,10.634676 c -0.056595,-0.172113 -0.097953,-0.2242 -0.1545486,-0.339697 -0.056595,-0.05662 -0.2285581,-0.124555 -0.3939904,-0.124555 z m 0.9425297,2.46167 H 7.982652 L 8.9425962,16.3982 H 6.9182246 Z"
   id="path826"
   inkscape:connector-curvature="0"
   sodipodi:nodetypes="sccccssccccccssccccssccccc" /><path
   inkscape:connector-curvature="0"
   style="font-weight:400;line-height:normal;font-family:sans-serif;text-indent:0;text-align:start;text-decoration:none;text-decoration-line:none;text-decoration-style:solid;text-decoration-color:#000000;text-transform:none;white-space:normal;overflow:visible;isolation:auto;mix-blend-mode:normal;fill:#808080;stroke-width:0.445227"
   d="m 17.751302,10.065112 a 0.63698181,0.70033006 0 0 0 -0.558133,0.442222 l -3.193713,8.893667 h -0.226404 a 0.42465454,0.46688669 0 1 0 0,0.93368 H 15.4715 a 0.42465454,0.46688669 0 1 0 0,-0.93368 h -0.102836 l 0.67175,-1.87192 a 0.42465454,0.46688669 0 0 0 0.068,0.0045 h 3.756822 l 0.766291,1.867359 h -0.06469 a 0.42465454,0.46688669 0 1 0 0,0.93368 h 1.698448 a 0.42465454,0.46688669 0 1 0 0,-0.93368 h -0.235519 l -3.663938,-8.924607 a 0.63698181,0.70033006 0 0 0 -0.614526,-0.411221 z m 0.07298,2.497412 1.657811,4.037437 h -3.107464 z"
   font-weight="400"
   overflow="visible"
   id="path837" /></svg>
