<?xml version="1.0" encoding="UTF-8" standalone="no"?>
<!-- Generator: Adobe Illustrator 15.0.0, SVG Export Plug-In . SVG Version: 6.00 Build 0)  -->

<svg
   xmlns:dc="http://purl.org/dc/elements/1.1/"
   xmlns:cc="http://creativecommons.org/ns#"
   xmlns:rdf="http://www.w3.org/1999/02/22-rdf-syntax-ns#"
   xmlns:svg="http://www.w3.org/2000/svg"
   xmlns="http://www.w3.org/2000/svg"
   xmlns:sodipodi="http://sodipodi.sourceforge.net/DTD/sodipodi-0.dtd"
   xmlns:inkscape="http://www.inkscape.org/namespaces/inkscape"
   version="1.1"
   id="Layer_1"
   x="0px"
   y="0px"
   width="416px"
   height="416px"
   viewBox="0 0 26 26"
   enable-background="new 0 0 26 26"
   xml:space="preserve"
   sodipodi:docname="icons8-speaker-buttons.svg"
   inkscape:version="0.92.2 (5c3e80d, 2017-08-06)"><metadata
     id="metadata1479"><rdf:RDF><cc:Work
         rdf:about=""><dc:format>image/svg+xml</dc:format><dc:type
           rdf:resource="http://purl.org/dc/dcmitype/StillImage" /><dc:title></dc:title></cc:Work></rdf:RDF></metadata><defs
     id="defs1477" /><sodipodi:namedview
     pagecolor="#ffffff"
     bordercolor="#666666"
     borderopacity="1"
     objecttolerance="10"
     gridtolerance="10"
     guidetolerance="10"
     inkscape:pageopacity="0"
     inkscape:pageshadow="2"
     inkscape:window-width="737"
     inkscape:window-height="480"
     id="namedview1475"
     showgrid="false"
     inkscape:zoom="0.56730769"
     inkscape:cx="214.55367"
     inkscape:cy="217.74334"
     inkscape:window-x="0"
     inkscape:window-y="0"
     inkscape:window-maximized="0"
     inkscape:current-layer="Layer_1" /><path
     fill="#000000"
     d="M9,17c0,0.551-0.449,1-1,1H1c-0.551,0-1-0.449-1-1V9c0-0.551,0.449-1,1-1h7c0.551,0,1,0.449,1,1V17z"
     id="path1466"
     style="fill:#808080" /><path
     fill="#000000"
     d="M4.319,16.873C4.136,16.716,4,16.331,4,15.999v-5.998C4,9.669,4.136,9.277,4.319,9.12l6.708-7.585  C11.891,0.672,13,1,13,2.266v21.281c0,1.363-1.004,1.879-2.004,0.879L4.319,16.873z"
     id="path1468"
     style="fill:#808080" /><path
     style="stroke-width:0.55936319;fill:#808080"
     inkscape:connector-curvature="0"
     d="m 14.973129,13.940678 c -0.232219,0 -0.541334,0.184322 -0.61874,0.460805 -0.07741,0.276483 0,0.552966 0.154812,0.829449 1.702426,2.949152 4.952465,5.898305 4.952465,5.898305 0,0 0.154812,0.184322 0.46189,0.184322 0.311662,0 0.466474,-0.184322 0.466474,-0.184322 0,0 3.250039,-2.949153 4.952464,-5.898305 0.154813,-0.276483 0.232219,-0.552966 0.154813,-0.829449 -0.07792,-0.276483 -0.387031,-0.460805 -0.619249,-0.460805 z"
     id="path2051" /><path
     style="stroke-width:0.55936319;fill:#808080"
     inkscape:connector-curvature="0"
     d="m 24.783227,12.279661 c 0.232219,0 0.541334,-0.184322 0.61874,-0.460805 0.07741,-0.276483 0,-0.552966 -0.154812,-0.829449 C 23.544729,8.0402549 20.29469,5.0911019 20.29469,5.0911019 c 0,0 -0.154812,-0.184322 -0.46189,-0.184322 -0.311662,0 -0.466474,0.184322 -0.466474,0.184322 0,0 -3.25004,2.949153 -4.952465,5.8983051 -0.154812,0.276483 -0.232219,0.552966 -0.154812,0.829449 0.07792,0.276483 0.38703,0.460805 0.619248,0.460805 z"
     id="path2051-9" /></svg>