<?xml version="1.0" encoding="UTF-8" standalone="no"?>
<!-- Generator: Adobe Illustrator 15.0.0, SVG Export Plug-In . SVG Version: 6.00 Build 0)  -->

<svg
   xmlns:dc="http://purl.org/dc/elements/1.1/"
   xmlns:cc="http://creativecommons.org/ns#"
   xmlns:rdf="http://www.w3.org/1999/02/22-rdf-syntax-ns#"
   xmlns:svg="http://www.w3.org/2000/svg"
   xmlns="http://www.w3.org/2000/svg"
   xmlns:sodipodi="http://sodipodi.sourceforge.net/DTD/sodipodi-0.dtd"
   xmlns:inkscape="http://www.inkscape.org/namespaces/inkscape"
   version="1.1"
   id="Layer_1"
   x="0px"
   y="0px"
   width="416px"
   height="416px"
   viewBox="0 0 26 26"
   enable-background="new 0 0 26 26"
   xml:space="preserve"
   sodipodi:docname="icons8-document-line-space.svg"
   inkscape:version="0.92.2 (5c3e80d, 2017-08-06)"><metadata
     id="metadata843"><rdf:RDF><cc:Work
         rdf:about=""><dc:format>image/svg+xml</dc:format><dc:type
           rdf:resource="http://purl.org/dc/dcmitype/StillImage" /><dc:title /></cc:Work></rdf:RDF></metadata><defs
     id="defs841" /><sodipodi:namedview
     pagecolor="#ffffff"
     bordercolor="#666666"
     borderopacity="1"
     objecttolerance="10"
     gridtolerance="10"
     guidetolerance="10"
     inkscape:pageopacity="0"
     inkscape:pageshadow="2"
     inkscape:window-width="974"
     inkscape:window-height="734"
     id="namedview839"
     showgrid="false"
     inkscape:zoom="0.75979984"
     inkscape:cx="139.05434"
     inkscape:cy="132.85348"
     inkscape:window-x="238"
     inkscape:window-y="24"
     inkscape:window-maximized="1"
     inkscape:current-layer="Layer_1" /><path
     stroke-miterlimit="10"
     d="m 10.37434,11.470104 c 2.643905,0 6.532768,0 9.332525,0"
     id="path830"
     inkscape:connector-curvature="0"
     style="fill:#808080;stroke:#808080;stroke-width:1.94726384;stroke-linecap:round;stroke-linejoin:round;stroke-miterlimit:10;stroke-opacity:1" /><path
     stroke-miterlimit="10"
     d="m 10.193388,19.596173 c 2.695169,0 6.659435,0 9.513477,0"
     id="path832"
     inkscape:connector-curvature="0"
     style="fill:#808080;stroke:#808080;stroke-width:1.96605134;stroke-linecap:round;stroke-linejoin:round;stroke-miterlimit:10;stroke-opacity:1" /><path
     stroke-miterlimit="10"
     d="m 11.768055,15.533139 c 0.757039,0 5.299275,0 6.056314,0"
     id="path834"
     inkscape:connector-curvature="0"
     style="fill:#808080;stroke:#808080;stroke-width:1.75381768;stroke-linecap:round;stroke-linejoin:round;stroke-miterlimit:10;stroke-opacity:1" /><path
     d="M 21.379731,5.1770745 C 21.117666,4.9568166 20.849159,4.7328876 20.584947,4.5052878 20.318587,4.2795235 20.056522,4.050088 19.798754,3.8261591 17.96001,2.2228647 16.865572,1.3161361 15.723876,1.3161361 H 7.1316134 c -2.368242,0 -4.2961304,1.6473461 -4.2961304,3.670966 V 21.506449 c 0,2.02362 1.9278884,3.670966 4.2961304,3.670966 H 20.020007 c 2.368242,0 4.296129,-1.647346 4.296129,-3.670966 V 8.658068 c 0,-0.9746407 -1.061144,-1.9107374 -2.936405,-3.4809935 z M 22.16807,21.506449 c 0,1.013188 -0.962332,1.835483 -2.148063,1.835483 H 7.1316134 c -1.1857317,0 -2.1480648,-0.822295 -2.1480648,-1.835483 V 4.9871021 c 0,-1.0131867 0.9623331,-1.835483 2.1480648,-1.835483 l 7.8286256,-0.00367 c 0.774377,0.1688644 0.763637,0.9819834 0.763637,1.7960202 v 2.7963582 c 0,0.5056747 0.482239,0.9177411 1.074032,0.9177411 h 3.222099 c 1.071883,0 2.148063,0.00459 2.148063,0.9177411 z"
     id="path836"
     inkscape:connector-curvature="0"
     style="fill:#808080;stroke-width:0.99281627" /><polygon
     transform="matrix(0,0.1996941,-0.20923933,0,10.366737,14.281755)"
     style="fill:#808080"
     points="25.906,13 12,4.061 12,21.938 "
     id="polygon858" /><rect
     x="-16.779821"
     style="fill:#808080;stroke-width:0.21398379"
     y="-8.4408293"
     width="3.7202094"
     height="1.6739147"
     id="rect856-6"
     transform="matrix(0,-1,-1,0,0,0)" /><polygon
     transform="matrix(0,-0.20986724,-0.20923933,0,10.305081,16.328394)"
     style="fill:#808080"
     points="25.906,13 12,4.061 12,21.938 "
     id="polygon858-7" /></svg>