<?xml version="1.0" encoding="UTF-8" standalone="no"?>
<!-- Generator: Adobe Illustrator 15.0.0, SVG Export Plug-In . SVG Version: 6.00 Build 0)  -->

<svg
   xmlns:dc="http://purl.org/dc/elements/1.1/"
   xmlns:cc="http://creativecommons.org/ns#"
   xmlns:rdf="http://www.w3.org/1999/02/22-rdf-syntax-ns#"
   xmlns:svg="http://www.w3.org/2000/svg"
   xmlns="http://www.w3.org/2000/svg"
   xmlns:sodipodi="http://sodipodi.sourceforge.net/DTD/sodipodi-0.dtd"
   xmlns:inkscape="http://www.inkscape.org/namespaces/inkscape"
   version="1.1"
   id="Layer_1"
   x="0px"
   y="0px"
   width="416px"
   height="416px"
   viewBox="0 0 26 26"
   enable-background="new 0 0 26 26"
   xml:space="preserve"
   sodipodi:docname="icons8-folder-arrow.svg"
   inkscape:version="0.92.2 (5c3e80d, 2017-08-06)"><metadata
     id="metadata835"><rdf:RDF><cc:Work
         rdf:about=""><dc:format>image/svg+xml</dc:format><dc:type
           rdf:resource="http://purl.org/dc/dcmitype/StillImage" /><dc:title></dc:title></cc:Work></rdf:RDF></metadata><defs
     id="defs833" /><sodipodi:namedview
     pagecolor="#ffffff"
     bordercolor="#666666"
     borderopacity="1"
     objecttolerance="10"
     gridtolerance="10"
     guidetolerance="10"
     inkscape:pageopacity="0"
     inkscape:pageshadow="2"
     inkscape:window-width="978"
     inkscape:window-height="630"
     id="namedview831"
     showgrid="false"
     inkscape:zoom="0.53725962"
     inkscape:cx="151.90256"
     inkscape:cy="206.69984"
     inkscape:window-x="199"
     inkscape:window-y="42"
     inkscape:window-maximized="0"
     inkscape:current-layer="Layer_1" /><path
     d="M 23.127657,4.838148 H 6.3053178 c -1.3928896,0 -2.5233508,1.1672577 -2.5233508,2.6054857 V 19.602568 c 0,1.438228 1.1304612,2.605486 2.5233508,2.605486 H 23.127657 c 1.392889,0 2.52335,-1.167258 2.52335,-2.605486 V 7.4436337 c 0,-1.438228 -1.130461,-2.6054857 -2.52335,-2.6054857 z m 0.841116,14.76442 c 0,0.479409 -0.37682,0.868495 -0.841116,0.868495 H 6.3053178 c -0.4642966,0 -0.8411169,-0.389086 -0.8411169,-0.868495 V 7.4436337 c 0,-0.4794096 0.3768203,-0.8684951 0.8411169,-0.8684951 H 23.127657 c 0.464296,0 0.841116,0.3890855 0.841116,0.8684951 z"
     id="path826"
     inkscape:connector-curvature="0"
     style="fill:#808080;stroke-width:0.85469645" /><path
     d="M 10.510902,2.2326622 H 6.3053178 c -1.3928896,0 -2.5233508,1.1672577 -2.5233508,2.6054858 v 3.4739808 c 0,0 0.2540173,-2.6054855 2.5233508,-2.6054855 H 13.034253 V 4.838148 c 0,-1.4382281 -1.13046,-2.6054858 -2.523351,-2.6054858 z"
     id="path828"
     inkscape:connector-curvature="0"
     style="fill:#808080;stroke-width:0.85469645" /><path
     style="stroke-width:0.61863893;fill:#808080"
     inkscape:connector-curvature="0"
     d="M 1.0609873,12.639336 8.9529514,11.995333 V 9.9673698 c 0,-0.2112321 0.095086,-0.369658 0.2852517,-0.5280823 0.1901672,-0.052813 0.3803354,-0.052813 0.5229618,0.052813 1.9492201,1.4786285 3.8033561,3.9567505 3.8508971,4.0623655 0.04636,0.102394 0.09033,0.253094 0.09331,0.358066 0,0.0032 0.0018,0.0077 0.0018,0.01095 0,0 0,0 0,0 0,0 0,0 0,0 0,0.105616 -0.04754,0.264041 -0.09509,0.316849 -0.04754,0.105617 -1.854135,2.590822 -3.850897,4.069451 -0.1901862,0.105614 -0.3803543,0.158423 -0.5229797,0.0528 C 9.0480381,18.256964 8.9529546,18.09854 8.9529546,17.887307 V 15.858703 L 1.0609873,15.2147 C 0.82327752,15.009263 0.63310975,14.490198 0.63310975,13.923476 c 0,-0.515203 0.14262588,-1.07806 0.42787755,-1.28414 z"
     id="path847" /></svg>