<?xml version="1.0" encoding="UTF-8" standalone="no"?>
<svg
   xmlns:dc="http://purl.org/dc/elements/1.1/"
   xmlns:cc="http://creativecommons.org/ns#"
   xmlns:rdf="http://www.w3.org/1999/02/22-rdf-syntax-ns#"
   xmlns:svg="http://www.w3.org/2000/svg"
   xmlns="http://www.w3.org/2000/svg"
   xmlns:sodipodi="http://sodipodi.sourceforge.net/DTD/sodipodi-0.dtd"
   xmlns:inkscape="http://www.inkscape.org/namespaces/inkscape"
   width="104pt"
   height="104pt"
   viewBox="0 0 104 104"
   version="1.1"
   id="svg5"
   sodipodi:docname="icons8_library.svg"
   inkscape:version="1.0.1 (3bc2e813f5, 2020-09-07)">
  <metadata
     id="metadata11">
    <rdf:RDF>
      <cc:Work
         rdf:about="">
        <dc:format>image/svg+xml</dc:format>
        <dc:type
           rdf:resource="http://purl.org/dc/dcmitype/StillImage" />
      </cc:Work>
    </rdf:RDF>
  </metadata>
  <defs
     id="defs9" />
  <sodipodi:namedview
     pagecolor="#ffffff"
     bordercolor="#666666"
     borderopacity="1"
     objecttolerance="10"
     gridtolerance="10"
     guidetolerance="10"
     inkscape:pageopacity="0"
     inkscape:pageshadow="2"
     inkscape:window-width="1920"
     inkscape:window-height="1011"
     id="namedview7"
     showgrid="false"
     inkscape:zoom="6.2379808"
     inkscape:cx="69.333333"
     inkscape:cy="69.333333"
     inkscape:window-x="0"
     inkscape:window-y="0"
     inkscape:window-maximized="1"
     inkscape:current-layer="svg5" />
  <g
     id="surface1"
     style="fill:#808080">
    <path
       style="stroke:none;fill-rule:nonzero;fill:#808080;fill-opacity:1"
       d="M 49.242188 0 C 48.582031 0 47.859375 0.136719 47.273438 0.492188 L 1.847656 28.066406 C 0.371094 28.960938 -0.324219 30.777344 0.125 32.5 C 0.570313 34.222656 2.109375 35.453125 3.816406 35.453125 L 94.667969 35.453125 C 96.761719 35.453125 98.484375 33.699219 98.484375 31.515625 C 98.484375 29.851563 97.53125 28.40625 96.144531 27.820313 L 51.089844 0.492188 C 50.503906 0.136719 49.902344 0 49.242188 0 Z M 49.242188 13.171875 C 53.921875 13.171875 57.738281 16.988281 57.738281 21.667969 C 57.738281 26.34375 53.921875 30.160156 49.242188 30.160156 C 44.5625 30.160156 40.75 26.34375 40.75 21.667969 C 40.75 16.988281 44.5625 13.171875 49.242188 13.171875 Z M 3.9375 39.394531 L 3.9375 43.332031 C 3.9375 45.503906 5.710938 47.273438 7.878906 47.273438 L 7.878906 78.789063 L 19.695313 78.789063 L 19.695313 47.273438 C 21.867188 47.273438 23.636719 45.503906 23.636719 43.332031 L 23.636719 39.394531 Z M 27.574219 39.394531 L 27.574219 43.332031 C 27.574219 45.503906 29.34375 47.273438 31.515625 47.273438 L 31.515625 78.789063 L 43.332031 78.789063 L 43.332031 47.273438 C 45.503906 47.273438 47.273438 45.503906 47.273438 43.332031 L 47.273438 39.394531 Z M 51.210938 39.394531 L 51.210938 43.332031 C 51.210938 45.503906 52.980469 47.273438 55.152344 47.273438 L 55.152344 78.789063 L 66.96875 78.789063 L 66.96875 47.273438 C 69.140625 47.273438 70.910156 45.503906 70.910156 43.332031 L 70.910156 39.394531 Z M 74.847656 39.394531 L 74.847656 43.332031 C 74.847656 45.503906 76.617188 47.273438 78.789063 47.273438 L 78.789063 78.789063 L 90.605469 78.789063 L 90.605469 47.273438 C 92.777344 47.273438 94.546875 45.503906 94.546875 43.332031 L 94.546875 39.394531 Z M 7.878906 82.726563 L 7.878906 90.605469 L 3.9375 90.605469 C 1.769531 90.605469 0 92.375 0 94.546875 L 0 98.484375 C 0 100.65625 1.769531 102.425781 3.9375 102.425781 L 94.546875 102.425781 C 96.714844 102.425781 98.484375 100.65625 98.484375 98.484375 L 98.484375 94.546875 C 98.484375 92.375 96.714844 90.605469 94.546875 90.605469 L 90.605469 90.605469 L 90.605469 82.726563 Z "
       id="path2" />
  </g>
</svg>
