<?xml version="1.0" encoding="utf-8"?>
<!-- Generator: Adobe Illustrator 17.1.0, SVG Export Plug-In . SVG Version: 6.00 Build 0)  -->
<!DOCTYPE svg PUBLIC "-//W3C//DTD SVG 1.0//EN" "http://www.w3.org/TR/2001/REC-SVG-20010904/DTD/svg10.dtd">
<svg xmlns="http://www.w3.org/2000/svg" xmlns:xlink="http://www.w3.org/1999/xlink" version="1.0" id="Layer_1" x="0px" y="0px" viewBox="0 0 26 26" enable-background="new 0 0 26 26" xml:space="preserve" width="416px" height="416px">
<path fill="#808080" d="M16.5,3.3H20l-6.6,13.6c0.2,0.6,0.6,3.1,0.6,4.9c0,3-0.8,4.3-2,4.3c-1.2,0-2-1.1-2-2.9  c0-2.3,1.4-4.7,2.2-6.2c-0.2-1.6-0.5-2.9-0.9-5.2c-0.4-2.3-0.9-3.9-1.4-4.9c-0.5-1-1.1-1.5-2-1.5c-1.4,0-2,1-2.1,3.1H5  C5,4.9,6.1,3,8.3,3c1.3,0,2.2,0.7,2.8,2.2c0.6,1.5,1.3,4.7,1.9,9.7L16.5,3.3z"/>
</svg>
