<?xml version="1.0" encoding="UTF-8" standalone="no"?>
<svg
   xmlns:dc="http://purl.org/dc/elements/1.1/"
   xmlns:cc="http://creativecommons.org/ns#"
   xmlns:rdf="http://www.w3.org/1999/02/22-rdf-syntax-ns#"
   xmlns:svg="http://www.w3.org/2000/svg"
   xmlns="http://www.w3.org/2000/svg"
   xmlns:sodipodi="http://sodipodi.sourceforge.net/DTD/sodipodi-0.dtd"
   xmlns:inkscape="http://www.inkscape.org/namespaces/inkscape"
   width="48"
   height="48"
   viewBox="0 0 48 48"
   version="1.1"
   id="svg16092"
   sodipodi:docname="icons8_bookmark_simple_fast_add.svg"
   inkscape:version="1.0.2 (e86c870879, 2021-01-15)">
  <metadata
     id="metadata16098">
    <rdf:RDF>
      <cc:Work
         rdf:about="">
        <dc:format>image/svg+xml</dc:format>
        <dc:type
           rdf:resource="http://purl.org/dc/dcmitype/StillImage" />
        <dc:title></dc:title>
      </cc:Work>
    </rdf:RDF>
  </metadata>
  <defs
     id="defs16096" />
  <sodipodi:namedview
     pagecolor="#ffffff"
     bordercolor="#666666"
     borderopacity="1"
     objecttolerance="10"
     gridtolerance="10"
     guidetolerance="10"
     inkscape:pageopacity="0"
     inkscape:pageshadow="2"
     inkscape:window-width="1920"
     inkscape:window-height="995"
     id="namedview16094"
     showgrid="false"
     inkscape:zoom="4.9166667"
     inkscape:cx="24"
     inkscape:cy="24"
     inkscape:window-x="0"
     inkscape:window-y="0"
     inkscape:window-maximized="1"
     inkscape:current-layer="svg16092"
     inkscape:document-rotation="0" />
  <path
     d="M 41.869704,5.0913665 H 21.869703 c -2.21,0 -3.98,1.79 -3.98,4 l -0.02,32.0000005 14.000001,-6 14,6 V 9.0913665 c 0,-2.21 -1.79,-4 -4,-4 z m 0,30.0000005 -10,-4.35 -10.000001,4.35 V 9.0913665 h 20.000001 z"
     id="path16088"
     style="fill:#808080;stroke-width:0.999999" />
  <path
     d="M0 0h48v48H0z"
     fill="none"
     id="path16090" />
  <path
     style="fill:#808080;stroke-width:0.840522"
     inkscape:connector-curvature="0"
     d="m 31.937919,12.173256 c -4.786787,0 -8.667485,3.8807 -8.667485,8.667483 0,4.786784 3.880698,8.668323 8.667485,8.668323 4.786782,0 8.668321,-3.881539 8.668321,-8.668323 0,-4.786783 -3.881539,-8.667483 -8.668321,-8.667483 z m 4.622876,9.928269 h -3.362089 v 3.362095 h -2.521573 v -3.362095 h -3.362101 v -2.521572 h 3.362101 v -3.362095 h 2.521573 v 3.362095 h 3.362089 z"
     id="path2571" />
  <g
     transform="matrix(-1.1773728,0,0,2.019752,14.683671,0.84255695)"
     id="g22"
     style="fill:#808080;fill-opacity:1">
    <polygon
       style="fill:#808080;fill-opacity:1"
       points="8.7,8 11.7,6 0,6 0,8 "
       id="polygon16" />
    <path
       inkscape:connector-curvature="0"
       style="fill:#808080;fill-opacity:1"
       d="M 7.5,10 H 0 v 2 H 7.6 C 7.1,11.1 7.3,10.3 7.5,10 Z"
       id="path18" />
    <polygon
       style="fill:#808080;fill-opacity:1"
       points="9.8,16 8.5,14 0,14 0,16 "
       id="polygon20" />
  </g>
</svg>
