<?xml version="1.0" encoding="UTF-8" standalone="no"?>
<svg
   xmlns:dc="http://purl.org/dc/elements/1.1/"
   xmlns:cc="http://creativecommons.org/ns#"
   xmlns:rdf="http://www.w3.org/1999/02/22-rdf-syntax-ns#"
   xmlns:svg="http://www.w3.org/2000/svg"
   xmlns="http://www.w3.org/2000/svg"
   xmlns:sodipodi="http://sodipodi.sourceforge.net/DTD/sodipodi-0.dtd"
   xmlns:inkscape="http://www.inkscape.org/namespaces/inkscape"
   width="500px"
   height="500px"
   viewBox="0 0 26 26"
   version="1.1"
   id="svg905"
   sodipodi:docname="icons8-css-filetype-1.svg"
   inkscape:version="0.92.3 (2405546, 2018-03-11)">
  <metadata
     id="metadata911">
    <rdf:RDF>
      <cc:Work
         rdf:about="">
        <dc:format>image/svg+xml</dc:format>
        <dc:type
           rdf:resource="http://purl.org/dc/dcmitype/StillImage" />
      </cc:Work>
    </rdf:RDF>
  </metadata>
  <defs
     id="defs909" />
  <sodipodi:namedview
     pagecolor="#ffffff"
     bordercolor="#666666"
     borderopacity="1"
     objecttolerance="10"
     gridtolerance="10"
     guidetolerance="10"
     inkscape:pageopacity="0"
     inkscape:pageshadow="2"
     inkscape:window-width="1850"
     inkscape:window-height="1016"
     id="namedview907"
     showgrid="false"
     inkscape:zoom="1.66"
     inkscape:cx="250"
     inkscape:cy="250"
     inkscape:window-x="70"
     inkscape:window-y="27"
     inkscape:window-maximized="1"
     inkscape:current-layer="svg905" />
  <g
     id="surface1"
     style="fill:#808080">
    <path
       style="stroke:none;fill-rule:nonzero;fill:#808080;fill-opacity:1"
       d="M 7.878906 0 C 5.710938 0 3.9375 1.773438 3.9375 3.9375 L 3.9375 10.832031 L 0.984375 10.832031 C 0.390625 10.832031 0 11.324219 0 11.816406 L 0 17.726563 C 0 18.21875 0.390625 18.710938 0.984375 18.710938 L 3.9375 18.710938 L 3.9375 21.667969 C 3.9375 23.832031 5.710938 25.605469 7.878906 25.605469 L 19.695313 25.605469 C 21.863281 25.605469 23.636719 23.832031 23.636719 21.667969 L 23.636719 7.878906 C 23.636719 6.792969 22.664063 5.796875 20.988281 4.125 C 20.695313 3.929688 20.484375 3.644531 20.1875 3.445313 C 19.992188 3.152344 19.707031 2.941406 19.511719 2.648438 C 17.839844 0.972656 16.84375 0 15.757813 0 Z M 7.878906 1.96875 L 15.082031 1.96875 C 15.769531 2.164063 15.757813 3.054688 15.757813 3.9375 L 15.757813 6.894531 C 15.757813 7.488281 16.148438 7.878906 16.742188 7.878906 L 19.695313 7.878906 C 20.683594 7.878906 21.667969 7.878906 21.667969 8.863281 L 21.667969 21.667969 C 21.667969 22.75 20.78125 23.636719 19.695313 23.636719 L 7.878906 23.636719 C 6.792969 23.636719 5.910156 22.75 5.910156 21.667969 L 5.910156 18.710938 L 16.742188 18.710938 C 17.335938 18.710938 17.726563 18.21875 17.726563 17.726563 L 17.726563 11.816406 C 17.726563 11.324219 17.335938 10.832031 16.742188 10.832031 L 5.910156 10.832031 L 5.910156 3.9375 C 5.910156 2.855469 6.792969 1.96875 7.878906 1.96875 Z M 4.832031 11.726563 C 5.519531 11.726563 6.019531 11.804688 6.21875 12.003906 L 6.308594 12.125 L 6 13.109375 C 6 13.109375 6.007813 13.203125 5.910156 13.203125 L 5.816406 13.203125 C 5.621094 13.101563 5.324219 12.988281 4.832031 12.988281 C 3.847656 12.988281 3.261719 13.59375 3.261719 14.679688 C 3.261719 15.664063 3.847656 16.25 4.832031 16.25 C 5.222656 16.25 5.519531 16.164063 5.816406 16.066406 L 5.910156 16.066406 L 5.910156 16.15625 L 6.09375 17.140625 C 6.09375 17.242188 6.101563 17.234375 6 17.234375 C 5.707031 17.335938 5.207031 17.417969 4.617188 17.417969 C 2.84375 17.417969 1.785156 16.355469 1.785156 14.679688 C 1.785156 12.90625 2.960938 11.726563 4.832031 11.726563 Z M 8.957031 11.726563 C 9.546875 11.726563 9.949219 11.804688 10.339844 12.003906 C 10.441406 12.003906 10.433594 12.125 10.433594 12.125 L 10.15625 13.109375 C 10.15625 13.109375 10.132813 13.203125 10.03125 13.203125 L 9.941406 13.203125 C 9.746094 13.101563 9.355469 12.988281 8.863281 12.988281 C 8.371094 12.988281 8.1875 13.191406 8.1875 13.386719 C 8.1875 13.585938 8.359375 13.777344 9.046875 13.972656 C 10.03125 14.363281 10.527344 14.875 10.527344 15.664063 C 10.722656 16.550781 10.136719 17.417969 8.464844 17.417969 C 7.773438 17.417969 7.191406 17.246094 6.894531 17.050781 L 6.800781 16.925781 L 6.984375 15.941406 C 6.984375 15.941406 6.980469 15.851563 7.078125 15.851563 L 7.203125 15.851563 C 7.496094 16.046875 7.972656 16.15625 8.464844 16.15625 C 8.660156 16.15625 9.171875 16.15625 9.171875 15.664063 C 9.171875 15.46875 9.058594 15.277344 8.371094 15.082031 C 7.386719 14.6875 6.800781 14.078125 6.800781 13.386719 C 6.800781 12.402344 7.675781 11.726563 8.957031 11.726563 Z M 13.601563 11.726563 C 14.195313 11.726563 14.566406 11.804688 14.957031 12.003906 C 15.058594 12.003906 15.082031 12.125 15.082031 12.125 L 14.773438 13.109375 C 14.773438 13.109375 14.78125 13.203125 14.679688 13.203125 L 14.589844 13.203125 C 14.390625 13.101563 13.972656 12.988281 13.480469 12.988281 C 12.988281 12.988281 12.804688 13.191406 12.804688 13.386719 C 12.804688 13.585938 13.007813 13.777344 13.695313 13.972656 C 14.679688 14.363281 15.171875 14.875 15.171875 15.664063 C 15.367188 16.550781 14.785156 17.417969 13.109375 17.417969 C 12.421875 17.417969 11.804688 17.246094 11.511719 17.050781 L 11.417969 16.925781 L 11.632813 15.941406 C 11.632813 15.941406 11.625 15.851563 11.726563 15.851563 L 11.816406 15.851563 C 12.113281 16.046875 12.617188 16.15625 13.109375 16.15625 C 13.308594 16.15625 13.789063 16.15625 13.789063 15.664063 C 13.789063 15.46875 13.675781 15.277344 12.988281 15.082031 C 12.003906 14.6875 11.417969 14.078125 11.417969 13.386719 C 11.417969 12.402344 12.320313 11.726563 13.601563 11.726563 Z "
       id="path902" />
  </g>
</svg>
