<?xml version="1.0" encoding="UTF-8" standalone="no"?>
<!-- Generator: Adobe Illustrator 22.0.1, SVG Export Plug-In . SVG Version: 6.00 Build 0)  -->

<svg
   xmlns:dc="http://purl.org/dc/elements/1.1/"
   xmlns:cc="http://creativecommons.org/ns#"
   xmlns:rdf="http://www.w3.org/1999/02/22-rdf-syntax-ns#"
   xmlns:svg="http://www.w3.org/2000/svg"
   xmlns="http://www.w3.org/2000/svg"
   xmlns:sodipodi="http://sodipodi.sourceforge.net/DTD/sodipodi-0.dtd"
   xmlns:inkscape="http://www.inkscape.org/namespaces/inkscape"
   version="1.1"
   id="Layer_1"
   x="0px"
   y="0px"
   viewBox="0 0 26 26"
   style="enable-background:new 0 0 26 26;"
   xml:space="preserve"
   width="416px"
   height="416px"
   sodipodi:docname="icons8_drop_down.svg"
   inkscape:version="0.92.3 (2405546, 2018-03-11)"><metadata
   id="metadata85"><rdf:RDF><cc:Work
       rdf:about=""><dc:format>image/svg+xml</dc:format><dc:type
         rdf:resource="http://purl.org/dc/dcmitype/StillImage" /></cc:Work></rdf:RDF></metadata><defs
   id="defs83" /><sodipodi:namedview
   pagecolor="#ffffff"
   bordercolor="#666666"
   borderopacity="1"
   objecttolerance="10"
   gridtolerance="10"
   guidetolerance="10"
   inkscape:pageopacity="0"
   inkscape:pageshadow="2"
   inkscape:window-width="1850"
   inkscape:window-height="1016"
   id="namedview81"
   showgrid="false"
   inkscape:zoom="1.9951923"
   inkscape:cx="112.77108"
   inkscape:cy="208"
   inkscape:window-x="70"
   inkscape:window-y="27"
   inkscape:window-maximized="1"
   inkscape:current-layer="Layer_1" />
<path
   style="fill:none;stroke:#808080;stroke-width:2;stroke-miterlimit:10;"
   d="M21.471,1H13H4.529C2.58,1,1,2.58,1,4.529V13v8.471  C1,23.42,2.58,25,4.529,25H13h8.471C23.42,25,25,23.42,25,21.471V13V4.529C25,2.58,23.42,1,21.471,1z"
   id="path76" />
<path
   d="M13,14.358l7.304-7.122c0.327-0.318,0.849-0.315,1.172,0.007l1.28,1.274c0.326,0.324,0.325,0.851-0.002,1.176l-9.165,9.064  C13.427,18.919,13.213,19,13,19c-0.213,0-0.427-0.081-0.589-0.243L3.245,9.693C2.918,9.37,2.917,8.843,3.244,8.518l1.28-1.274  C4.846,6.922,5.37,6.919,5.696,7.237L13,14.358z"
   id="path78"
   style="stroke:#808080;stroke-opacity:1;fill:#808080;fill-opacity:1" />
</svg>