<?xml version="1.0" encoding="UTF-8" standalone="no"?>
<svg
   version="1.1"
   id="Layer_1"
   x="0px"
   y="0px"
   width="416px"
   height="416px"
   viewBox="0 0 26 26"
   enable-background="new 0 0 26 26"
   xml:space="preserve"
   sodipodi:docname="offline_dic.svg"
   inkscape:version="1.1.1 (3bf5ae0d25, 2021-09-20)"
   xmlns:inkscape="http://www.inkscape.org/namespaces/inkscape"
   xmlns:sodipodi="http://sodipodi.sourceforge.net/DTD/sodipodi-0.dtd"
   xmlns="http://www.w3.org/2000/svg"
   xmlns:svg="http://www.w3.org/2000/svg"
   xmlns:rdf="http://www.w3.org/1999/02/22-rdf-syntax-ns#"
   xmlns:cc="http://creativecommons.org/ns#"
   xmlns:dc="http://purl.org/dc/elements/1.1/"><metadata
     id="metadata1510"><rdf:RDF><cc:Work
         rdf:about=""><dc:format>image/svg+xml</dc:format><dc:type
           rdf:resource="http://purl.org/dc/dcmitype/StillImage" /></cc:Work></rdf:RDF></metadata><defs
     id="defs1508" /><sodipodi:namedview
     pagecolor="#ffffff"
     bordercolor="#666666"
     borderopacity="1"
     objecttolerance="10"
     gridtolerance="10"
     guidetolerance="10"
     inkscape:pageopacity="0"
     inkscape:pageshadow="2"
     inkscape:window-width="1920"
     inkscape:window-height="995"
     id="namedview1506"
     showgrid="false"
     inkscape:zoom="0.56730769"
     inkscape:cx="207.11864"
     inkscape:cy="257.35593"
     inkscape:window-x="0"
     inkscape:window-y="0"
     inkscape:window-maximized="1"
     inkscape:current-layer="Layer_1"
     inkscape:document-rotation="0"
     inkscape:pagecheckerboard="0" /><g
     id="g5357"
     style="fill:#808080"
     transform="matrix(0.41366909,0,0,0.42444173,1.4417779,12.710315)"><g
       id="g5353"
       style="fill:#808080"><path
         d="M 14,2 V 14 H 2 V 2 H 14 M 14.315,0 H 1.685 C 0.754,0 0,0.754 0,1.684 V 14.316 C 0,15.246 0.754,16 1.685,16 H 14.316 C 15.246,16 16,15.246 16,14.316 V 1.684 C 16,0.754 15.246,0 14.315,0 Z"
         id="path5351"
         style="fill:#808080"
         inkscape:connector-curvature="0" /></g><path
       d="M 24.315,10 H 11.685 C 10.754,10 10,10.754 10,11.684 V 24.316 C 10,25.246 10.754,26 11.685,26 H 24.316 C 25.246,26 26,25.246 26,24.316 V 11.684 C 26,10.754 25.246,10 24.315,10 Z m -3.96,12.631 -0.698,-2.008 h -3.322 l -0.69,2.008 h -2.146 l 3.457,-9.309 h 2.104 l 3.442,9.309 z m -2.331,-6.752 1.133,3.281 h -2.314 l 1.14,-3.281 z"
       id="path5355"
       style="fill:#808080"
       inkscape:connector-curvature="0" /></g><polygon
     points="3,6 13,6 13,4 9,4 9,3 7,3 7,4 3,4 "
     id="polygon5359"
     style="fill:#808080"
     transform="matrix(0.41366909,0,0,0.42444173,1.4417779,12.710315)" /><path
     stroke-miterlimit="10"
     d="m 3.1398896,17.868555 c 0,0 1.8751623,-0.68802 2.8009541,-2.591217"
     id="path5361"
     style="fill:#808080;stroke:#808080;stroke-width:0.838045;stroke-linecap:round;stroke-linejoin:round;stroke-miterlimit:10;stroke-opacity:1"
     inkscape:connector-curvature="0" /><path
     stroke-miterlimit="10"
     d="m 3.7049616,15.666975 c 0,0 0.4116008,0.91722 1.9789937,1.834438"
     id="path5363"
     style="fill:#808080;stroke:#808080;stroke-width:0.838045;stroke-linecap:round;stroke-linejoin:round;stroke-miterlimit:10;stroke-opacity:1"
     inkscape:connector-curvature="0" /><polygon
     points="3,16 4,16 4,19 7,19 7,16 8,16 5.5,13.5 "
     id="polygon5365"
     style="fill:#808080"
     transform="matrix(0.41366909,0,0,0.42444173,1.4417779,12.710315)" /><polygon
     points="10,18 10,19 4,19 7,22 10,22 10,23 12.5,20.5 "
     id="polygon5367"
     style="fill:#808080"
     transform="matrix(0.41366909,0,0,0.42444173,1.4417779,12.710315)" /><g
     id="surface1"
     transform="matrix(0.15252932,0,0,0.15252932,8.7526375,1.7603859)"
     style="fill:#808080"><path
       style="fill:#808080;fill-opacity:1;fill-rule:nonzero;stroke:none"
       d="M 3.570313,-0.125 C 3.402344,-0.09375 3.230469,-0.046875 3.078125,0 1.601563,0.261719 0.414063,1.339844 0,2.769531 c -0.414063,1.445313 0.015625,2.984375 1.109375,4 l 28.066406,27.945313 66.476563,66.601566 c 1.570312,1.57031 4.09375,1.57031 5.664066,0 1.57031,-1.570316 1.57031,-4.093754 0,-5.664066 L 87.160156,81.496094 C 94.5625,72.847656 98.484375,62.214844 98.484375,50.84375 c 0,-12.605469 -4.722656,-24.421875 -13.789062,-33.484375 -2.367188,-2.371094 -5.875,-2.371094 -8.246094,0 -2.371094,2.367188 -2.371094,5.875 0,8.246094 6.695312,7.09375 10.21875,16.160156 10.21875,25.605469 0,8.21875 -2.664063,15.789062 -7.757813,22.039062 l -5.539062,-5.542969 c 3.507812,-4.675781 5.417969,-10.460937 5.417969,-16.496093 0,-7.878907 -3.203125,-15.308594 -9.109375,-20.433594 -2.371094,-2.371094 -6.28125,-2 -8.25,0.367187 -2.371094,2.371094 -2,6.28125 0.371093,8.25 3.152344,3.152344 5.167969,7.476563 5.167969,11.816407 0,2.742187 -0.84375,5.449218 -2.214844,7.878906 l -5.910156,-5.90625 c 0.171875,-0.632813 0.246094,-1.261719 0.246094,-1.972656 0,-4.339844 -3.539063,-7.878907 -7.878906,-7.878907 -0.660157,0 -1.335938,0.09375 -1.96875,0.246094 L 42.226563,36.5625 C 42.824219,34.667969 42.53125,32.683594 40.996094,31.144531 39.625,29.5 37.285156,29.039063 35.207031,29.546875 l -7.386718,-7.386719 c 0.0625,-1.554687 -0.597657,-3.1875 -1.84375,-4.433593 -1.1875,-1.183594 -2.585938,-1.644532 -4.0625,-1.601563 -0.04687,0 -0.07813,0 -0.125,0 L 6.769531,1.109375 c -0.8125,-0.878906 -2,-1.324219 -3.199218,-1.234375 z m 7.015625,27.332031 C 6.246094,34.300781 3.9375,42.546875 3.9375,51.210938 c 0,12.605468 4.726563,24.421875 13.789063,33.484375 1.1875,1.1875 2.738281,1.601562 4.308593,1.601562 1.570313,0 3.125,-0.414062 4.308594,-1.601562 2.371094,-2.367188 2.371094,-5.875 0,-8.246094 C 19.25,69.753906 15.757813,60.660156 15.757813,51.210938 c 0,-5.507813 1.199218,-10.664063 3.570312,-15.386719 z m 14.652343,14.527344 c -0.785156,3.152344 -1.601562,6.324219 -1.601562,9.476563 0,7.878906 3.199219,15.3125 9.109375,20.4375 1.183594,1.183593 2.371094,1.601562 3.941406,1.601562 1.566406,0 3.121094,-0.785156 4.308594,-1.972656 C 43.363281,68.910156 42.996094,65 40.625,63.03125 37.46875,59.875 35.855469,55.890625 35.453125,51.949219 Z"
       id="path2" /></g></svg>
