<?xml version="1.0" encoding="UTF-8" standalone="no"?>
<!-- Generator: Adobe Illustrator 15.0.0, SVG Export Plug-In . SVG Version: 6.00 Build 0)  -->

<svg
   xmlns:dc="http://purl.org/dc/elements/1.1/"
   xmlns:cc="http://creativecommons.org/ns#"
   xmlns:rdf="http://www.w3.org/1999/02/22-rdf-syntax-ns#"
   xmlns:svg="http://www.w3.org/2000/svg"
   xmlns="http://www.w3.org/2000/svg"
   xmlns:sodipodi="http://sodipodi.sourceforge.net/DTD/sodipodi-0.dtd"
   xmlns:inkscape="http://www.inkscape.org/namespaces/inkscape"
   version="1.1"
   id="Layer_1"
   x="0px"
   y="0px"
   width="416px"
   height="416px"
   viewBox="0 0 26 26"
   enable-background="new 0 0 26 26"
   xml:space="preserve"
   sodipodi:docname="icons8_port_to_landsc.svg"
   inkscape:version="0.92.3 (5aff6ba, 2018-11-25)"><metadata
     id="metadata843"><rdf:RDF><cc:Work
         rdf:about=""><dc:format>image/svg+xml</dc:format><dc:type
           rdf:resource="http://purl.org/dc/dcmitype/StillImage" /><dc:title /></cc:Work></rdf:RDF></metadata><defs
     id="defs841" /><sodipodi:namedview
     pagecolor="#ffffff"
     bordercolor="#666666"
     borderopacity="1"
     objecttolerance="10"
     gridtolerance="10"
     guidetolerance="10"
     inkscape:pageopacity="0"
     inkscape:pageshadow="2"
     inkscape:window-width="1853"
     inkscape:window-height="1025"
     id="namedview839"
     showgrid="false"
     inkscape:zoom="0.26862981"
     inkscape:cx="-1200.0829"
     inkscape:cy="274.20149"
     inkscape:window-x="67"
     inkscape:window-y="27"
     inkscape:window-maximized="1"
     inkscape:current-layer="Layer_1" /><path
     stroke-miterlimit="10"
     d="m 3.2624986,10.084204 c 1.4473484,0 3.5762227,0 5.1088894,0"
     id="path830"
     inkscape:connector-curvature="0"
     style="fill:#808080;stroke:#808080;stroke-width:1.0285625;stroke-linecap:round;stroke-linejoin:round;stroke-miterlimit:10;stroke-dasharray:none;stroke-opacity:1" /><path
     stroke-miterlimit="10"
     d="m 3.2624986,14.225776 c 1.4473484,0 3.5762227,0 5.1088894,0"
     id="path832"
     inkscape:connector-curvature="0"
     style="fill:#808080;stroke:#808080;stroke-width:1.0285625;stroke-linecap:round;stroke-linejoin:round;stroke-miterlimit:10;stroke-dasharray:none;stroke-opacity:1" /><path
     stroke-miterlimit="10"
     d="m 3.2624986,12.154989 c 0.5108889,0 3.5762227,0 4.0871114,0"
     id="path834"
     inkscape:connector-curvature="0"
     style="fill:#808080;stroke:#808080;stroke-width:1.02856302;stroke-linecap:round;stroke-linejoin:round;stroke-miterlimit:10;stroke-opacity:1" /><path
     d="M 9.529063,6.5674908 C 9.4044061,6.4432436 9.2766835,6.3169256 9.1510055,6.1885369 9.0243048,6.0611835 8.8996478,5.9317594 8.7770346,5.8054415 7.9023918,4.9010255 7.3817967,4.3895414 6.8387213,4.3895414 H 2.7516096 c -1.1265102,0 -2.0435559,0.9292653 -2.0435559,2.0707862 v 9.3185374 c 0,1.141521 0.9170457,2.070786 2.0435559,2.070786 h 6.1306681 c 1.1265103,0 2.0435553,-0.929265 2.0435553,-2.070786 V 8.531114 c 0,-0.549794 -0.504758,-1.0778446 -1.39677,-1.9636232 z m 0.3749928,9.2113742 c 0,0.571537 -0.4577565,1.035393 -1.0217781,1.035393 H 2.7516096 c -0.5640215,0 -1.021778,-0.463856 -1.021778,-1.035393 V 6.4603276 c 0,-0.571537 0.4577565,-1.0353931 1.021778,-1.0353931 l 3.72387,-0.00207 c 0.3683511,0.095256 0.3632417,0.5539354 0.3632417,1.0131322 V 8.013418 c 0,0.28525 0.2293888,0.517696 0.5108887,0.517696 h 1.5326677 c 0.5098668,0 1.0217781,0.0025 1.0217781,0.517697 z"
     id="path836"
     inkscape:connector-curvature="0"
     style="fill:#808080;stroke-width:0.51428151" /><path
     inkscape:connector-curvature="0"
     style="fill:#808080;stroke:#808080;stroke-width:1.0285625;stroke-linecap:round;stroke-linejoin:round;stroke-miterlimit:10;stroke-dasharray:none;stroke-opacity:1"
     stroke-miterlimit="10"
     d="m 13.853096,11.055369 c 1.738006,0 4.2944,0 6.134859,0"
     id="path830-3" /><path
     inkscape:connector-curvature="0"
     style="fill:#808080;stroke:#808080;stroke-width:1.0285625;stroke-linecap:round;stroke-linejoin:round;stroke-miterlimit:10;stroke-dasharray:none;stroke-opacity:1"
     stroke-miterlimit="10"
     d="m 13.890658,15.495519 c 2.355015,0 5.818955,0 8.312794,0"
     id="path832-8" /><path
     inkscape:connector-curvature="0"
     style="fill:#808080;stroke:#808080;stroke-width:1.0285625;stroke-linecap:round;stroke-linejoin:round;stroke-miterlimit:10;stroke-dasharray:none;stroke-opacity:1"
     stroke-miterlimit="10"
     d="m 13.97373,13.339011 c 0.775797,0 5.430575,0 6.206371,0"
     id="path834-6" /><path
     inkscape:connector-curvature="0"
     style="fill:#808080;stroke-width:0.49237397"
     d="M 23.9678,10.225859 C 23.853537,10.101612 23.736465,9.975294 23.621266,9.846906 23.505129,9.719552 23.390866,9.590128 23.278477,9.46381 22.476765,8.559394 21.999577,8.04791 21.501785,8.04791 h -8.267611 c -1.032579,0 -1.87316,0.929265 -1.87316,2.070786 v 5.835126 c 0,1.141521 0.840581,2.070786 1.87316,2.070786 h 10.140771 c 1.032579,0 1.87316,-0.929265 1.87316,-2.070786 v -3.76434 c 0,-0.549794 -0.46267,-1.077844 -1.280305,-1.963623 z m 0.343725,5.727963 c 0,0.571537 -0.419588,1.035393 -0.93658,1.035393 H 13.234174 c -0.516992,0 -0.93658,-0.463856 -0.93658,-1.035393 v -5.835126 c 0,-0.571537 0.419588,-1.035393 0.93658,-1.035393 l 7.934656,-0.0021 c 0.337638,0.09526 0.332955,0.553935 0.332955,1.013132 v 1.577421 c 0,0.285251 0.210263,0.517697 0.468291,0.517697 h 1.404869 c 0.467354,0 0.93658,0.0026 0.93658,0.517696 z"
     id="path836-7"
     sodipodi:nodetypes="cccsssssssscsssssccssssss" /><g
     transform="matrix(0.44999434,0,0,-0.43863691,7.151474,10.966612)"
     id="g858"
     style="fill:#808080"><path
       inkscape:connector-curvature="0"
       d="m 16.8,19.3 6.7,-5.9 c 0.2,-0.2 0.2,-0.6 0,-0.8 L 16.8,6.7 C 16.5,6.4 16,6.7 16,7.1 V 10 C 2.9,10 3,24 3,24 3,24 3.9,16 16,16 v 2.9 c 0,0.4 0.5,0.7 0.8,0.4 z"
       id="path856"
       style="fill:#808080" /></g><path
     inkscape:connector-curvature="0"
     d="m 18.88759,19.075084 c -1.872028,0 -3.389548,1.413359 -3.389548,3.156895 0,1.743538 1.51752,3.157143 3.389548,3.157143 1.872031,0 3.389815,-1.413605 3.389815,-3.157143 0,-1.743536 -1.517784,-3.156895 -3.389815,-3.156895 z m 1.782082,2.179913 -1.817795,2.496541 c -0.0545,0.07466 -0.139689,0.124186 -0.224349,0.124186 -0.08466,0 -0.178578,-0.04312 -0.238103,-0.09831 l -1.066709,-0.993738 c -0.07249,-0.06776 -0.07249,-0.177901 0,-0.245416 l 0.263502,-0.245908 c 0.07249,-0.06702 0.191012,-0.06702 0.263238,0 l 0.693942,0.646311 1.509317,-2.073222 c 0.05741,-0.07886 0.173816,-0.0993 0.259005,-0.04608 l 0.308478,0.194903 c 0.08466,0.05347 0.106882,0.161887 0.04947,0.240735 z"
     id="path5415"
     style="fill:#808080;stroke-width:0.25531957" /><path
     inkscape:connector-curvature="0"
     d="m 6.0774682,18.82061 c -1.87203,0 -3.389549,1.465439 -3.389549,3.273222 0,1.807784 1.517519,3.273478 3.389549,3.273478 1.87203,0 3.3898147,-1.465694 3.3898147,-3.273478 0,-1.807783 -1.5177847,-3.273222 -3.3898147,-3.273222 z m 1.52916,4.395806 -0.36721,0.354352 c -0.0672,0.06515 -0.177256,0.06515 -0.244454,0 l -0.917496,-0.886008 -0.917231,0.885753 c -0.06746,0.06515 -0.177256,0.06515 -0.244719,-5.13e-4 l -0.36721,-0.353586 c -0.06693,-0.0654 -0.06693,-0.170917 0,-0.236575 l 0.917496,-0.885751 -0.917231,-0.885753 c -0.0672,-0.0654 -0.0672,-0.171683 0,-0.23632 l 0.36721,-0.354607 c 0.06746,-0.06566 0.17752,-0.06566 0.244718,0 l 0.916967,0.886008 0.917496,-0.886008 c 0.06746,-0.06566 0.17752,-0.06566 0.244454,0 l 0.36721,0.354096 c 0.0672,0.06515 0.0672,0.171428 2.625e-4,0.236831 l -0.9174945,0.885753 0.917496,0.885753 c 0.06667,0.06566 0.06667,0.171172 -2.625e-4,0.236575 z"
     id="path5976"
     style="fill:#808080;stroke-width:0.2599811" /></svg>