<?xml version="1.0" encoding="UTF-8" standalone="no"?>
<!-- Generator: Adobe Illustrator 15.0.0, SVG Export Plug-In . SVG Version: 6.00 Build 0)  -->

<svg
   xmlns:dc="http://purl.org/dc/elements/1.1/"
   xmlns:cc="http://creativecommons.org/ns#"
   xmlns:rdf="http://www.w3.org/1999/02/22-rdf-syntax-ns#"
   xmlns:svg="http://www.w3.org/2000/svg"
   xmlns="http://www.w3.org/2000/svg"
   xmlns:sodipodi="http://sodipodi.sourceforge.net/DTD/sodipodi-0.dtd"
   xmlns:inkscape="http://www.inkscape.org/namespaces/inkscape"
   version="1.1"
   id="Layer_1"
   x="0px"
   y="0px"
   width="416px"
   height="416px"
   viewBox="0 0 26 26"
   enable-background="new 0 0 26 26"
   xml:space="preserve"
   sodipodi:docname="icons8-document-right-margin.svg"
   inkscape:version="0.92.2 (5c3e80d, 2017-08-06)"><metadata
     id="metadata843"><rdf:RDF><cc:Work
         rdf:about=""><dc:format>image/svg+xml</dc:format><dc:type
           rdf:resource="http://purl.org/dc/dcmitype/StillImage" /><dc:title /></cc:Work></rdf:RDF></metadata><defs
     id="defs841" /><sodipodi:namedview
     pagecolor="#ffffff"
     bordercolor="#666666"
     borderopacity="1"
     objecttolerance="10"
     gridtolerance="10"
     guidetolerance="10"
     inkscape:pageopacity="0"
     inkscape:pageshadow="2"
     inkscape:window-width="974"
     inkscape:window-height="734"
     id="namedview839"
     showgrid="false"
     inkscape:zoom="0.75979984"
     inkscape:cx="195.71823"
     inkscape:cy="132.85348"
     inkscape:window-x="238"
     inkscape:window-y="24"
     inkscape:window-maximized="1"
     inkscape:current-layer="Layer_1" /><path
     stroke-miterlimit="10"
     d="m 5.3471632,11.319543 c 2.262056,0 5.5892668,0 7.9846668,0"
     id="path830"
     inkscape:connector-curvature="0"
     style="fill:#808080;stroke:#808080;stroke-width:1.61799181;stroke-linecap:round;stroke-linejoin:round;stroke-miterlimit:10;stroke-opacity:1" /><path
     stroke-miterlimit="10"
     d="m 5.3471632,17.876855 c 2.262056,0 5.5892668,0 7.9846668,0"
     id="path832"
     inkscape:connector-curvature="0"
     style="fill:#808080;stroke:#808080;stroke-width:1.61799181;stroke-linecap:round;stroke-linejoin:round;stroke-miterlimit:10;stroke-opacity:1" /><path
     stroke-miterlimit="10"
     d="m 5.3471632,14.598199 c 0.7984666,0 5.5892668,0 6.3877338,0"
     id="path834"
     inkscape:connector-curvature="0"
     style="fill:#808080;stroke:#808080;stroke-width:1.61799181;stroke-linecap:round;stroke-linejoin:round;stroke-miterlimit:10;stroke-opacity:1" /><path
     d="M 15.141155,5.7515648 C 14.946329,5.5548455 14.746713,5.3548474 14.55029,5.1515707 14.35227,4.9499334 14.157444,4.7450174 13.965812,4.5450194 12.598837,3.1130663 11.7852,2.3032382 10.93643,2.3032382 H 4.5486965 c -1.7606189,0 -3.1938666,1.471297 -3.1938666,3.2786562 V 20.335847 c 0,1.807359 1.4332477,3.278656 3.1938666,3.278656 h 9.5816005 c 1.760619,0 3.193866,-1.471297 3.193866,-3.278656 V 8.8605505 c 0,-0.8704832 -0.788885,-1.7065405 -2.183008,-3.1089857 z M 15.72723,20.335847 c 0,0.904909 -0.715426,1.639328 -1.596933,1.639328 H 4.5486965 c -0.8815072,0 -1.5969333,-0.734419 -1.5969333,-1.639328 V 5.5818944 c 0,-0.9049091 0.7154261,-1.6393281 1.5969333,-1.6393281 l 5.8200235,-0.00328 c 0.575695,0.1508182 0.56771,0.8770406 0.56771,1.6040826 v 2.4975163 c 0,0.4516349 0.358511,0.819664 0.798467,0.819664 h 2.3954 c 0.796869,0 1.596933,0.0041 1.596933,0.8196641 z"
     id="path836"
     inkscape:connector-curvature="0"
     style="fill:#808080;stroke-width:0.8089959" /><rect
     x="20.473213"
     style="fill:#808080;stroke-width:0.21661465"
     y="13.258682"
     width="3.4319291"
     height="1.8594148"
     id="rect856" /><polygon
     transform="matrix(0.20187819,0,0,0.23242684,20.473212,11.16684)"
     style="fill:#808080"
     points="25.906,13 12,4.061 12,21.938 "
     id="polygon858" /><rect
     x="-23.460384"
     style="fill:#808080;stroke-width:0.23828048"
     y="13.232819"
     width="4.1527848"
     height="1.8594148"
     id="rect856-6"
     transform="scale(-1,1)" /><polygon
     transform="matrix(-0.21058551,0,0,0.23242684,23.056034,11.140976)"
     style="fill:#808080"
     points="12,4.061 12,21.938 25.906,13 "
     id="polygon858-7" /></svg>