<?xml version="1.0" encoding="UTF-8" standalone="no"?>
<!-- Generator: Adobe Illustrator 15.0.0, SVG Export Plug-In . SVG Version: 6.00 Build 0)  -->

<svg
   xmlns:dc="http://purl.org/dc/elements/1.1/"
   xmlns:cc="http://creativecommons.org/ns#"
   xmlns:rdf="http://www.w3.org/1999/02/22-rdf-syntax-ns#"
   xmlns:svg="http://www.w3.org/2000/svg"
   xmlns="http://www.w3.org/2000/svg"
   xmlns:sodipodi="http://sodipodi.sourceforge.net/DTD/sodipodi-0.dtd"
   xmlns:inkscape="http://www.inkscape.org/namespaces/inkscape"
   version="1.1"
   id="Layer_1"
   x="0px"
   y="0px"
   width="416px"
   height="416px"
   viewBox="0 0 26 26"
   enable-background="new 0 0 26 26"
   xml:space="preserve"
   sodipodi:docname="icons8_page_num.svg"
   inkscape:version="0.92.3 (2405546, 2018-03-11)"><metadata
   id="metadata875"><rdf:RDF><cc:Work
       rdf:about=""><dc:format>image/svg+xml</dc:format><dc:type
         rdf:resource="http://purl.org/dc/dcmitype/StillImage" /><dc:title></dc:title></cc:Work></rdf:RDF></metadata><defs
   id="defs873" /><sodipodi:namedview
   pagecolor="#ffffff"
   bordercolor="#666666"
   borderopacity="1"
   objecttolerance="10"
   gridtolerance="10"
   guidetolerance="10"
   inkscape:pageopacity="0"
   inkscape:pageshadow="2"
   inkscape:window-width="1920"
   inkscape:window-height="976"
   id="namedview871"
   showgrid="false"
   inkscape:zoom="1.9951923"
   inkscape:cx="208"
   inkscape:cy="208"
   inkscape:window-x="-8"
   inkscape:window-y="-8"
   inkscape:window-maximized="1"
   inkscape:current-layer="Layer_1" />




<path
   fill="#000000"
   d="M20.266,4.207c-0.244-0.24-0.494-0.484-0.74-0.732c-0.248-0.246-0.492-0.496-0.732-0.74  C17.082,0.988,16.063,0,15,0H7C4.795,0,3,1.795,3,4v18c0,2.205,1.795,4,4,4h12c2.205,0,4-1.795,4-4V8  C23,6.938,22.012,5.918,20.266,4.207z M21,22c0,1.104-0.896,2-2,2H7c-1.104,0-2-0.896-2-2V4c0-1.104,0.896-2,2-2l7.289-0.004  C15.01,2.18,15,3.066,15,3.953V7c0,0.551,0.449,1,1,1h3c0.998,0,2,0.005,2,1V22z"
   id="path868"
   style="fill:#808080" />
<g
   transform="matrix(0.56818713,0,0,0.44945354,4.074999,15.234799)"
   id="g913"
   style="fill:#808080"><path
     inkscape:connector-curvature="0"
     d="m 14.1,9 v 8.6 h -1.8 v -6.5 c -0.6,0.5 -1.6,0.7 -1.8,0.7 V 10.2 C 11,10.1 12.2,9.6 13,8.9 h 1.1 z"
     id="path911"
     style="fill:#808080" /></g><g
   transform="matrix(0.56818713,0,0,0.46436101,6.9166192,15.048513)"
   id="g826"
   style="fill:#808080"><path
     inkscape:connector-curvature="0"
     d="m 12.2,15.9 h 3.6 v 1.5 h -5.6 v -0.6 c 0,-2.7 2.5,-2.9 3.6,-4.8 0.2,-0.3 0.3,-1.6 -1.1,-1.6 -0.7,0 -1.4,0.3 -2.1,0.9 V 9.6 c 0.7,-0.5 1.6,-0.7 2.5,-0.7 0.8,0 2.7,0.3 2.7,2.4 0,2.7 -3.6,3.6 -3.6,4.6 z"
     id="path824"
     style="fill:#808080" /></g><line
   stroke-miterlimit="10"
   x1="19.914524"
   y1="18.043373"
   x2="6.1168013"
   y2="18.043373"
   id="line7316"
   style="fill:none;stroke:#808080;stroke-width:1.03731406;stroke-linejoin:round;stroke-miterlimit:10;stroke-dasharray:none;stroke-opacity:1" /></svg>