<?xml version="1.0" encoding="UTF-8"?>
<svg xmlns="http://www.w3.org/2000/svg" xmlns:xlink="http://www.w3.org/1999/xlink" width="500px" height="500px" viewBox="0 0 26 26" version="1.1">
<g id="surface1"> <path style=" stroke:none;fill-rule:nonzero;fill:#808080;fill-opacity:1;" d="M 2.953125 1.96875 C 1.324219 1.96875 0 3.292969 0 4.925781 L 0 21.667969 C 0 23.296875 1.324219 24.621094 2.953125 24.621094 L 22.652344 24.621094 C 24.28125 24.621094 25.605469 23.296875 25.605469 21.667969 L 25.605469 7.878906 C 25.605469 6.246094 24.28125 4.925781 22.652344 4.925781 L 10.832031 4.925781 C 10.832031 3.292969 9.511719 1.96875 7.878906 1.96875 Z M 2.953125 6.894531 L 22.652344 6.894531 C 23.195313 6.894531 23.636719 7.335938 23.636719 7.878906 L 23.636719 21.667969 C 23.636719 22.210938 23.195313 22.652344 22.652344 22.652344 L 2.953125 22.652344 C 2.414063 22.652344 1.96875 22.210938 1.96875 21.667969 L 1.96875 7.878906 C 1.96875 7.335938 2.414063 6.894531 2.953125 6.894531 Z M 9.847656 8.863281 C 8.761719 8.863281 7.878906 9.679688 7.878906 10.679688 L 7.878906 18.867188 C 7.878906 19.867188 8.761719 20.683594 9.847656 20.683594 L 15.757813 20.683594 C 16.84375 20.683594 17.726563 19.867188 17.726563 18.867188 L 17.726563 13.355469 C 17.726563 12.875 16.890625 11.886719 16.035156 11.109375 C 15.914063 11 15.785156 10.914063 15.664063 10.800781 C 15.542969 10.691406 15.414063 10.574219 15.296875 10.464844 C 14.453125 9.671875 13.757813 8.863281 13.234375 8.863281 Z M 9.847656 9.847656 L 12.863281 9.847656 C 13.617188 9.847656 13.789063 10.28125 13.789063 10.800781 L 13.789063 12.339844 C 13.789063 12.589844 14.007813 12.804688 14.28125 12.804688 L 15.757813 12.804688 C 16.246094 12.804688 16.742188 13.265625 16.742188 13.789063 L 16.742188 18.804688 C 16.742188 19.304688 16.300781 19.726563 15.757813 19.726563 L 9.847656 19.726563 C 9.304688 19.726563 8.863281 19.304688 8.863281 18.804688 L 8.863281 10.742188 C 8.863281 10.242188 9.304688 9.847656 9.847656 9.847656 Z "/> </g> </svg>
