<?xml version="1.0" encoding="UTF-8" standalone="no"?>
<!-- Generator: Adobe Illustrator 15.0.0, SVG Export Plug-In . SVG Version: 6.00 Build 0)  -->

<svg
   version="1.1"
   id="Layer_1"
   x="0px"
   y="0px"
   width="416px"
   height="416px"
   viewBox="0 0 26 26"
   enable-background="new 0 0 26 26"
   xml:space="preserve"
   sodipodi:docname="icons8_settings_from_hist.svg"
   inkscape:version="1.1.1 (3bf5ae0d25, 2021-09-20)"
   xmlns:inkscape="http://www.inkscape.org/namespaces/inkscape"
   xmlns:sodipodi="http://sodipodi.sourceforge.net/DTD/sodipodi-0.dtd"
   xmlns="http://www.w3.org/2000/svg"
   xmlns:svg="http://www.w3.org/2000/svg"
   xmlns:rdf="http://www.w3.org/1999/02/22-rdf-syntax-ns#"
   xmlns:cc="http://creativecommons.org/ns#"
   xmlns:dc="http://purl.org/dc/elements/1.1/"><metadata
     id="metadata861"><rdf:RDF><cc:Work
         rdf:about=""><dc:format>image/svg+xml</dc:format><dc:type
           rdf:resource="http://purl.org/dc/dcmitype/StillImage" /></cc:Work></rdf:RDF></metadata><defs
     id="defs859" /><sodipodi:namedview
     pagecolor="#ffffff"
     bordercolor="#666666"
     borderopacity="1"
     objecttolerance="10"
     gridtolerance="10"
     guidetolerance="10"
     inkscape:pageopacity="0"
     inkscape:pageshadow="2"
     inkscape:window-width="1920"
     inkscape:window-height="995"
     id="namedview857"
     showgrid="false"
     inkscape:zoom="0.80229424"
     inkscape:cx="173.25314"
     inkscape:cy="198.18165"
     inkscape:window-x="0"
     inkscape:window-y="0"
     inkscape:window-maximized="1"
     inkscape:current-layer="Layer_1"
     inkscape:pagecheckerboard="0" /><g
     id="g854"
     transform="matrix(0.69064827,0,0,0.67323982,0.24868395,8.0904205)"
     style="fill:#808080"><path
       d="m 13,8.07 c -2.718,0 -4.93,2.212 -4.93,4.93 0,2.718 2.212,4.93 4.93,4.93 2.718,0 4.93,-2.212 4.93,-4.93 0,-2.718 -2.212,-4.93 -4.93,-4.93 z m -0.023,7.008 c -1.146,0 -2.078,-0.931 -2.078,-2.077 0,-1.147 0.932,-2.077 2.078,-2.077 1.146,0 2.076,0.93 2.076,2.077 0,1.146 -0.93,2.077 -2.076,2.077 z"
       id="path850"
       inkscape:connector-curvature="0"
       style="fill:#808080" /><path
       d="M 25.035,14.481 V 11.472 L 21.454,10.887 C 21.242,10.038 20.909,9.241 20.471,8.511 L 22.558,5.536 20.43,3.41 17.493,5.521 C 16.761,5.078 15.959,4.74 15.104,4.527 L 14.48,0.964 h -3.009 l -0.58,3.552 C 10.037,4.726 9.23,5.059 8.496,5.5 L 5.568,3.408 3.44,5.535 5.5,8.48 C 5.055,9.217 4.716,10.023 4.501,10.883 l -3.536,0.589 v 3.009 l 3.532,0.626 c 0.213,0.858 0.552,1.664 0.999,2.402 l -2.088,2.92 2.127,2.129 2.949,-2.065 c 0.736,0.442 1.541,0.778 2.396,0.989 l 0.592,3.554 h 3.009 l 0.632,-3.563 c 0.851,-0.215 1.653,-0.554 2.383,-0.998 l 2.97,2.084 2.127,-2.129 -2.119,-2.943 c 0.438,-0.73 0.771,-1.528 0.981,-2.377 z M 13,19.525 C 9.396,19.525 6.475,16.603 6.475,13 6.475,9.397 9.396,6.475 13,6.475 c 3.604,0 6.525,2.921 6.525,6.525 0,3.604 -2.921,6.525 -6.525,6.525 z"
       id="path852"
       inkscape:connector-curvature="0"
       style="fill:#808080" /></g><g
     transform="matrix(0.13281108,0,0,0.12162871,11.997089,-0.3107251)"
     id="surface1"
     style="fill:#808080" /><g
     id="surface1-3-6"
     transform="matrix(0.13281108,0,0,-0.12162871,14.437207,20.67643)"
     style="fill:#808080"><path
       style="fill:#808080;fill-opacity:1;fill-rule:nonzero;stroke:none"
       d="m 50.472656,34.714844 c -0.292968,0.04687 -0.660156,0.171875 -0.859375,0.371094 -0.402343,0.398437 -11.035156,10.21875 -17.730468,20.066406 -0.398438,0.785156 -0.367188,1.523437 -0.367188,2.707031 0.398438,0.785156 1.554688,1.230469 2.339844,1.230469 h 8.246094 c 0,0 1.679687,28.390625 2.460937,29.175781 1.1875,1.570313 3.910156,2.339844 6.28125,2.339844 2.753906,0 5.863281,-1.152344 6.648438,-2.339844 0.78125,-0.785156 1.96875,-29.175781 1.96875,-29.175781 h 8.738281 c 1.1875,0 1.941406,-0.445313 2.339844,-1.230469 0.402343,-1.183594 0.402343,-1.921875 0,-2.707031 C 63.847656,45.304688 53.210938,35.484375 52.8125,35.085938 c -0.398437,-0.402344 -1.199219,-0.371094 -1.601562,-0.371094 -0.199219,0 -0.445313,-0.04687 -0.738282,0 z"
       id="path2-6"
       inkscape:connector-curvature="0"
       sodipodi:nodetypes="scccsccsccscccss" /></g><path
     d="m 18.06555,1.0592168 c -0.411823,0 -0.684563,0.2727387 -0.684563,0.6845636 V 7.901451 c 0,0.4118228 0.27274,0.6845616 0.684563,0.6845616 h 6.157671 c 0.411823,0 0.684564,-0.2727388 0.684564,-0.6845616 V 3.112226 L 22.854773,1.0592168 Z m 0.683884,1.3684477 h 3.421455 V 3.79611 h -3.421455 z m 2.394951,2.7368911 c 0.548193,0 1.026504,0.4783135 1.026504,1.0265047 0,0.5475157 -0.478311,1.0265066 -1.026504,1.0265066 -0.548192,0 -1.026505,-0.4789909 -1.026505,-1.0265066 0,-0.5481912 0.478313,-1.0265047 1.026505,-1.0265047 z"
     style="fill:#808080;fill-opacity:1;fill-rule:nonzero;stroke:none;stroke-width:0.130263"
     id="path233" /></svg>
