<?xml version="1.0" encoding="UTF-8" standalone="no"?>
<!-- Generator: Adobe Illustrator 17.1.0, SVG Export Plug-In . SVG Version: 6.00 Build 0)  -->

<svg
   xmlns:dc="http://purl.org/dc/elements/1.1/"
   xmlns:cc="http://creativecommons.org/ns#"
   xmlns:rdf="http://www.w3.org/1999/02/22-rdf-syntax-ns#"
   xmlns:svg="http://www.w3.org/2000/svg"
   xmlns="http://www.w3.org/2000/svg"
   xmlns:sodipodi="http://sodipodi.sourceforge.net/DTD/sodipodi-0.dtd"
   xmlns:inkscape="http://www.inkscape.org/namespaces/inkscape"
   version="1.1"
   id="Layer_1"
   x="0px"
   y="0px"
   viewBox="0 0 26 26"
   enable-background="new 0 0 26 26"
   xml:space="preserve"
   width="416px"
   height="416px"
   sodipodi:docname="icons8_back_key_long.svg"
   inkscape:version="0.92.2 (5c3e80d, 2017-08-06)"><metadata
     id="metadata839"><rdf:RDF><cc:Work
         rdf:about=""><dc:format>image/svg+xml</dc:format><dc:type
           rdf:resource="http://purl.org/dc/dcmitype/StillImage" /><dc:title></dc:title></cc:Work></rdf:RDF></metadata><defs
     id="defs837" /><sodipodi:namedview
     pagecolor="#ffffff"
     bordercolor="#666666"
     borderopacity="1"
     objecttolerance="10"
     gridtolerance="10"
     guidetolerance="10"
     inkscape:pageopacity="0"
     inkscape:pageshadow="2"
     inkscape:window-width="1786"
     inkscape:window-height="1061"
     id="namedview835"
     showgrid="false"
     inkscape:zoom="0.37989992"
     inkscape:cx="-772.03634"
     inkscape:cy="163.28704"
     inkscape:window-x="-4"
     inkscape:window-y="-4"
     inkscape:window-maximized="1"
     inkscape:current-layer="Layer_1" /><path
     style="fill:#808080;stroke-width:0.78235584"
     id="circle854"
     ry="2.3419321"
     rx="2.3522143"
     cy="22.380625"
     cx="14.916842" /><path
     inkscape:connector-curvature="0"
     d="M 6.9131021,10.37058 14.227841,3.288852 c 0.326367,-0.3167546 0.323811,-0.8234004 -0.0068,-1.1361148 L 12.912116,0.91157623 C 12.57893,0.59562966 12.037824,0.59643771 11.704639,0.91319233 L 2.3950756,9.7992904 C 2.228909,9.9568596 2.1453996,10.16372 2.1453996,10.37058 c 0,0.20686 0.08351,0.41372 0.249676,0.571289 l 9.3095894,8.886099 c 0.332333,0.317562 0.873439,0.318371 1.207477,0.0016 l 1.308882,-1.241161 c 0.329776,-0.312714 0.333184,-0.820168 0.0068,-1.136115 z"
     id="path825"
     style="fill:#808080;stroke-width:0.82979912" /><ellipse
     cx="21.057289"
     cy="23.034363"
     id="circle828-7"
     style="fill:#808080;stroke-width:0.39189434"
     rx="2.3464022"
     ry="2.3563411" /><path
     inkscape:connector-curvature="0"
     style="fill:none;stroke:#808080;stroke-width:1.87091148;stroke-linecap:round;stroke-linejoin:round;stroke-miterlimit:10;stroke-dasharray:none;stroke-opacity:1"
     d="m 24.556408,21.653943 c -0.327844,-1.619985 -1.780582,-2.841356 -3.524027,-2.841356 -1.743445,0 -3.196182,1.221371 -3.524026,2.841356"
     id="path832-9" /></svg>