<?xml version="1.0" encoding="UTF-8" standalone="no"?>
<svg
   xmlns:dc="http://purl.org/dc/elements/1.1/"
   xmlns:cc="http://creativecommons.org/ns#"
   xmlns:rdf="http://www.w3.org/1999/02/22-rdf-syntax-ns#"
   xmlns:svg="http://www.w3.org/2000/svg"
   xmlns="http://www.w3.org/2000/svg"
   xmlns:sodipodi="http://sodipodi.sourceforge.net/DTD/sodipodi-0.dtd"
   xmlns:inkscape="http://www.inkscape.org/namespaces/inkscape"
   width="104pt"
   height="104pt"
   viewBox="0 0 104 104"
   version="1.1"
   id="svg5"
   sodipodi:docname="icons8_group2.svg"
   inkscape:version="1.0.2 (e86c870879, 2021-01-15)">
  <metadata
     id="metadata11">
    <rdf:RDF>
      <cc:Work
         rdf:about="">
        <dc:format>image/svg+xml</dc:format>
        <dc:type
           rdf:resource="http://purl.org/dc/dcmitype/StillImage" />
        <dc:title />
      </cc:Work>
    </rdf:RDF>
  </metadata>
  <defs
     id="defs9" />
  <sodipodi:namedview
     pagecolor="#ffffff"
     bordercolor="#666666"
     borderopacity="1"
     objecttolerance="10"
     gridtolerance="10"
     guidetolerance="10"
     inkscape:pageopacity="0"
     inkscape:pageshadow="2"
     inkscape:window-width="1920"
     inkscape:window-height="995"
     id="namedview7"
     showgrid="false"
     inkscape:zoom="4.2885346"
     inkscape:cx="70.474262"
     inkscape:cy="74.827415"
     inkscape:window-x="0"
     inkscape:window-y="0"
     inkscape:window-maximized="1"
     inkscape:current-layer="svg5"
     inkscape:document-rotation="0" />
  <g
     id="surface1"
     transform="matrix(0.67531184,0,0,0.67531184,2.9999999,19.499999)"
     style="fill:#808080">
    <path
       style="fill:#808080;fill-opacity:1;fill-rule:nonzero;stroke:none"
       d="m 79.074219,0 c -5.445313,0 -9.847656,4.402344 -9.847656,9.847656 0,5.449219 4.402343,9.847657 9.847656,9.847657 5.449219,0 9.851562,-4.398438 9.851562,-9.847657 C 88.925781,4.402344 84.523438,0 79.074219,0 Z m -22.15625,0.125 c -1.507813,0.183594 -2.785156,1.230469 -3.25,2.675781 -0.476563,1.460938 -0.07422,3.046875 1.03125,4.09375 L 55.6875,7.878906 h -6.15625 c -10.617187,0 -12.460937,2.539063 -22.617187,8.742188 C 19.804688,20.957031 16.882813,27.421875 13.910156,35.699219 6.078125,36.625 0,43.132813 0,51.210938 c 0,8.078125 6.078125,14.589843 13.910156,15.511718 2.972657,8.296875 4.394532,13.242188 11.503907,17.582032 10.15625,6.203125 13.5,10.242187 24.117187,10.242187 h 6.402344 l -1.109375,1.105469 c -1.15625,0.96875 -1.648438,2.523437 -1.277344,3.972656 0.367188,1.46094 1.554688,2.58203 3.015625,2.89063 1.476563,0.30859 3,-0.26172 3.925781,-1.44532 l 7.632813,-7.878904 c 1.476562,-1.570312 1.429687,-4.03125 -0.125,-5.539062 l -7.878906,-7.632813 c -0.570313,-0.570312 -1.292969,-0.96875 -2.09375,-1.109375 0.984375,-0.167968 1.863281,-0.691406 2.464843,-1.476562 l 7.632813,-7.878906 c 1.476562,-1.570313 1.429687,-4.03125 -0.125,-5.539063 l -7.878906,-7.632812 c -0.847657,-0.832032 -2.015625,-1.246094 -3.199219,-1.109375 -1.507813,0.1875 -2.785156,1.230468 -3.25,2.679687 -0.476563,1.460938 -0.07422,3.046875 1.03125,4.09375 L 55.6875,63.03125 h -6.15625 c -3.72443,0 -4.541781,-1.825945 -12.175781,-5.539062 -3.0625,-1.308594 -2.828673,-1.17694 -6.085938,-3.816407 0.04687,-0.324218 0.08984,-0.648437 0.121094,-0.988281 5.964844,-3.8125 2.933594,-2.507812 5.964844,-3.8125 4.152644,-3.73581 8.576676,-5.542969 12.175781,-5.542969 h 6.402344 l -1.109375,1.109375 c -1.15625,0.96875 -1.648438,2.523438 -1.277344,3.96875 0.367188,1.464844 1.554688,2.585938 3.015625,2.894532 1.476563,0.308593 3,-0.261719 3.925781,-1.445313 l 7.632813,-7.878906 c 1.476562,-1.570313 1.429687,-4.03125 -0.125,-5.542969 l -7.878906,-7.628906 c -0.847657,-0.832031 -2.015625,-1.25 -3.199219,-1.109375 -1.507813,0.183594 -2.785156,1.230469 -3.25,2.675781 -0.476563,1.464844 -0.07422,3.046875 1.03125,4.09375 l 0.988281,0.984375 h -6.15625 c -7.018999,0 -9.481708,1.632652 -15.375,6.28125 -3.996094,3.078125 0,0 -3.996094,3.078125 C 28.53125,41.117188 25.527344,38.222656 21.789063,36.6875 24.191406,31.070313 25.5,26.730469 30.976563,23.390625 39.488281,18.1875 40.25,15.757813 49.53125,15.757813 h 6.402344 l -1.109375,1.109375 c -1.15625,0.96875 -1.648438,2.523437 -1.277344,3.96875 0.367188,1.460937 1.554688,2.585937 3.015625,2.894531 1.476563,0.304687 3,-0.261719 3.925781,-1.449219 l 7.632813,-7.878906 c 1.476562,-1.570313 1.429687,-4.03125 -0.125,-5.539063 L 60.117188,1.230469 C 59.269531,0.398438 58.101563,-0.015625 56.917969,0.125 Z m 22.15625,7.753906 c 1.09375,0 1.972656,0.878907 1.972656,1.96875 0,1.09375 -0.878906,1.96875 -1.972656,1.96875 -1.089844,0 -1.96875,-0.875 -1.96875,-1.96875 0,-1.089843 0.878906,-1.96875 1.96875,-1.96875 z m 0,19.695313 c -5.445313,0 -9.847656,4.402344 -9.847656,9.851562 0,5.445313 4.402343,9.847657 9.847656,9.847657 5.449219,0 9.851562,-4.402344 9.851562,-9.847657 0,-5.449218 -4.402343,-9.851562 -9.851562,-9.851562 z m 0,7.878906 c 1.09375,0 1.972656,0.878906 1.972656,1.972656 0,1.089844 -0.878906,1.96875 -1.972656,1.96875 -1.089844,0 -1.96875,-0.878906 -1.96875,-1.96875 0,-1.09375 0.878906,-1.972656 1.96875,-1.972656 z m 0,19.699219 c -5.445313,0 -9.847656,4.398437 -9.847656,9.847656 0,5.449219 4.402343,9.847656 9.847656,9.847656 5.449219,0 9.851562,-4.398437 9.851562,-9.847656 0,-5.449219 -4.402343,-9.847656 -9.851562,-9.847656 z M 28.066406,61.0625 c 3.075797,2.156853 2.871094,2.183594 6.089844,3.566406 4.646693,3.568644 8.500443,6.28125 15.375,6.28125 h 6.402344 l -1.109375,1.105469 c -1.167969,1 -1.664063,2.601563 -1.230469,4.078125 0.414063,1.492188 1.675781,2.585938 3.199219,2.816406 -1.492188,0.230469 -2.722656,1.292969 -3.167969,2.722657 -0.449219,1.449218 -0.03125,3.019531 1.074219,4.050781 l 0.988281,0.984375 h -6.15625 c -9.28125,0 -11.542969,-3.933594 -20.054687,-9.132813 -5.507813,-3.355468 -5.300782,-6.132812 -7.6875,-11.796875 2.449218,-1.03125 4.648437,-2.632812 6.277343,-4.675781 z m 51.007813,1.96875 c 1.09375,0 1.972656,0.875 1.972656,1.96875 0,1.09375 -0.878906,1.96875 -1.972656,1.96875 -1.089844,0 -1.96875,-0.875 -1.96875,-1.96875 0,-1.09375 0.878906,-1.96875 1.96875,-1.96875 z m 0,19.695313 c -5.445313,0 -9.847656,4.402343 -9.847656,9.847656 0,5.449219 4.402343,9.851561 9.847656,9.851561 5.449219,0 9.851562,-4.402342 9.851562,-9.851561 0,-5.445313 -4.402343,-9.847656 -9.851562,-9.847656 z m 0,7.878906 c 1.09375,0 1.972656,0.878906 1.972656,1.96875 0,1.09375 -0.878906,1.972656 -1.972656,1.972656 -1.089844,0 -1.96875,-0.878906 -1.96875,-1.972656 0,-1.089844 0.878906,-1.96875 1.96875,-1.96875 z"
       id="path2"
       sodipodi:nodetypes="sssssccccsccsccscccccccccccccccccsccccsccccccccccccsccccscccccccccssssssssssssssssssssccscccccccscccsssssssssssssss" />
  </g>
  <path
     style="fill:#808080;fill-opacity:1;fill-rule:nonzero;stroke:none;stroke-width:0.67531"
     d="m 96.113509,28.106758 c -3.677289,0 -6.650241,2.972956 -6.650241,6.65024 0,3.679921 2.972952,6.650239 6.650241,6.650239 3.679914,0 6.652871,-2.970318 6.652871,-6.650239 0,-3.677284 -2.972957,-6.65024 -6.652871,-6.65024 z m -14.962378,0.08441 c -1.018248,0.123984 -1.880851,0.830951 -2.194763,1.806988 -0.321833,0.986588 -0.05011,2.05759 0.696415,2.764557 l 0.667398,0.664761 h -4.15739 c -3.261275,0 -3.350181,1.714658 -10.208815,5.903701 l -6.44161,4.402805 c 0.03167,-0.218949 -3.66816,1.121037 3.028469,6.785762 1.234918,1.413863 3.969984,3.392043 7.311575,5.051183 5.462548,1.956854 3.87986,1.798463 6.310381,1.798463 h 4.323577 l -0.749171,0.749175 c -0.780829,0.654208 -1.113211,1.704108 -0.86261,2.680144 0.247968,0.989226 1.049902,1.746314 2.036491,1.954712 0.997139,0.208396 2.025936,-0.176743 2.651126,-0.976037 l 5.154528,-5.320719 c 0.997137,-1.060451 0.965485,-2.722351 -0.08441,-3.743232 L 83.311606,47.56154 c -0.572434,-0.561881 -1.361178,-0.84414 -2.160471,-0.749174 -1.018248,0.123983 -1.880851,0.83095 -2.194763,1.806986 -0.321833,0.989227 -0.05011,2.057592 0.696415,2.764559 l 0.667398,0.664761 h -4.157389 c -4.073575,0.121212 -4.83715,-1.963961 -7.951863,-3.366648 -5.229931,-5.587924 -5.988915,-0.670434 0.486502,-4.779302 5.748063,-3.513733 7.465361,-5.154529 7.465361,-5.154529 h 4.323576 l -0.749171,0.749174 c -0.780829,0.654209 -1.113211,1.704107 -0.86261,2.680144 0.247968,0.986588 1.049902,1.746314 2.036491,1.95471 0.997139,0.205759 2.025936,-0.176741 2.651126,-0.978673 l 5.154528,-5.320719 c 0.997137,-1.060451 0.965486,-2.722351 -0.08441,-3.740595 l -5.320723,-5.154529 c -0.572434,-0.56188 -1.361178,-0.841502 -2.160471,-0.746536 z m 14.962378,18.536783 c -3.677289,0 -6.650241,2.972954 -6.650241,6.652878 0,3.677284 2.972952,6.650239 6.650241,6.650239 3.679914,0 6.652871,-2.972955 6.652871,-6.650239 0,-3.679924 -2.972957,-6.652878 -6.652871,-6.652878 z"
     id="path2-3"
     sodipodi:nodetypes="sssssccccsccccscccccccccccccccccccccccccsssss" />
</svg>
