<?xml version="1.0" encoding="UTF-8" standalone="no"?>
<svg
   width="104pt"
   height="104pt"
   viewBox="0 0 104 104"
   version="1.1"
   id="svg61"
   sodipodi:docname="icons8_eink_sett.svg"
   inkscape:version="1.1.1 (3bf5ae0d25, 2021-09-20)"
   xmlns:inkscape="http://www.inkscape.org/namespaces/inkscape"
   xmlns:sodipodi="http://sodipodi.sourceforge.net/DTD/sodipodi-0.dtd"
   xmlns="http://www.w3.org/2000/svg"
   xmlns:svg="http://www.w3.org/2000/svg">
  <defs
     id="defs65" />
  <sodipodi:namedview
     id="namedview63"
     pagecolor="#ffffff"
     bordercolor="#666666"
     borderopacity="1.0"
     inkscape:pageshadow="2"
     inkscape:pageopacity="0.0"
     inkscape:pagecheckerboard="0"
     inkscape:document-units="pt"
     showgrid="false"
     inkscape:zoom="5.6682692"
     inkscape:cx="69.245123"
     inkscape:cy="69.333333"
     inkscape:window-width="1920"
     inkscape:window-height="995"
     inkscape:window-x="0"
     inkscape:window-y="0"
     inkscape:window-maximized="1"
     inkscape:current-layer="svg61" />
  <g
     id="surface1"
     style="fill:#808080">
    <path
       style="stroke:none;fill-rule:nonzero;fill:#808080;fill-opacity:1"
       d="M 74.847656 0 L 31.515625 0 C 24.992188 0 19.695313 5.292969 19.695313 11.816406 L 19.695313 90.605469 C 19.695313 97.128906 24.992188 102.425781 31.515625 102.425781 L 74.847656 102.425781 C 81.375 102.425781 86.667969 97.128906 86.667969 90.605469 L 86.667969 11.816406 C 86.667969 5.292969 81.375 0 74.847656 0 Z M 49.242188 3.9375 L 57.121094 3.9375 C 58.214844 3.9375 59.089844 4.816406 59.089844 5.910156 C 59.089844 7 58.214844 7.878906 57.121094 7.878906 L 49.242188 7.878906 C 48.148438 7.878906 47.273438 7 47.273438 5.910156 C 47.273438 4.816406 48.148438 3.9375 49.242188 3.9375 Z M 53.183594 97.609375 C 50.398438 97.609375 48.148438 95.359375 48.148438 92.574219 C 48.148438 89.789063 50.398438 87.542969 53.183594 87.542969 C 55.96875 87.542969 58.214844 89.789063 58.214844 92.574219 C 58.214844 95.359375 55.96875 97.609375 53.183594 97.609375 Z M 78.789063 80.757813 C 78.789063 81.851563 77.910156 82.726563 76.816406 82.726563 L 29.546875 82.726563 C 28.453125 82.726563 27.574219 81.851563 27.574219 80.757813 L 27.574219 13.789063 C 27.574219 12.695313 28.453125 11.816406 29.546875 11.816406 L 76.816406 11.816406 C 77.910156 11.816406 78.789063 12.695313 78.789063 13.789063 Z "
       id="path58" />
  </g>
  <g
     id="surface1-7"
     transform="matrix(0.48085773,0,0,0.48085773,28.454118,22.392413)"
     style="fill:#808080">
    <path
       style="fill:#808080;fill-opacity:1;fill-rule:nonzero;stroke:none"
       d="m 45.179688,3.816406 -2.214844,14.035157 c -3.371094,0.828125 -6.585938,2.078125 -9.480469,3.816406 l -11.570312,-8.25 -8.371094,8.371094 8.125,11.574218 c -1.753906,2.90625 -3.09375,6.09375 -3.941406,9.476563 L 3.816406,45.179688 V 57 l 13.910157,2.460938 c 0.847656,3.382812 2.1875,6.570312 3.941406,9.476562 l -8.25,11.574219 8.371094,8.371094 11.574218,-8.125 c 2.890625,1.738281 6.109375,2.984375 9.476563,3.816406 l 2.339844,14.035156 H 57 L 59.582031,84.574219 C 62.9375,83.726563 66.0625,82.390625 68.9375,80.632813 l 11.695313,8.25 8.371093,-8.371094 L 80.632813,68.9375 c 1.726562,-2.875 3.109375,-6.015625 3.941406,-9.355469 L 98.609375,57 V 45.179688 L 84.574219,42.839844 C 83.742188,39.5 82.359375,36.363281 80.632813,33.484375 l 8.25,-11.695312 -8.371094,-8.371094 -11.574219,8.371094 c -2.875,-1.738282 -6.105469,-3.09375 -9.476562,-3.9375 L 57,3.816406 Z m 6.03125,21.667969 c 14.203125,0 25.730468,11.523438 25.730468,25.726563 0,14.203125 -11.527343,25.730468 -25.730468,25.730468 -14.203125,0 -25.726563,-11.542968 -25.726563,-25.730468 0,-14.1875 11.523438,-25.726563 25.726563,-25.726563 z m 0,6.277344 C 40.5,31.761719 31.761719,40.5 31.761719,51.210938 c 0,10.710937 8.738281,19.453125 19.449219,19.453125 10.710937,0 19.453125,-8.742188 19.453125,-19.453125 0,-10.710938 -8.742188,-19.449219 -19.453125,-19.449219 z m -0.121094,11.324219 c 4.507812,0 8.246094,3.601562 8.246094,8.125 0,4.511718 -3.738282,8.125 -8.246094,8.125 -4.507813,0 -8.125,-3.613282 -8.125,-8.125 0,-4.523438 3.617187,-8.125 8.125,-8.125 z"
       id="path403" />
  </g>
</svg>
