<?xml version="1.0" encoding="utf-8"?>
<!-- Generator: Adobe Illustrator 15.0.0, SVG Export Plug-In . SVG Version: 6.00 Build 0)  -->
<!DOCTYPE svg PUBLIC "-//W3C//DTD SVG 1.1//EN" "http://www.w3.org/Graphics/SVG/1.1/DTD/svg11.dtd">
<svg xmlns="http://www.w3.org/2000/svg" xmlns:xlink="http://www.w3.org/1999/xlink" version="1.1" id="Layer_1" x="0px" y="0px" width="416px" height="416px" viewBox="0 0 26 26" enable-background="new 0 0 26 26" xml:space="preserve">

<path fill="#808080" d="M21.844,20.342c-0.105,0.081-0.229,0.122-0.354,0.122s-0.252-0.041-0.355-0.122  c-0.1-0.081-2.481-2.104-4.007-4.374c-0.117-0.176-0.129-0.401-0.029-0.587s0.293-0.303,0.505-0.303h1.992  c0.209-1.247,0.272-8.226,0.417-8.43c0.213-0.301,0.902-0.505,1.477-0.505c0.572,0,1.182,0.204,1.393,0.505  c0.145,0.204,0.289,7.183,0.498,8.43h1.998c0.21,0,0.404,0.117,0.504,0.303c0.099,0.186,0.088,0.411-0.029,0.587  C24.325,18.238,21.945,20.261,21.844,20.342z"/>
<g>
	<path fill="#808080" d="M10.253,10.741L6.96,0.116C6.938,0.047,6.875,0,6.803,0H3.636C3.563,0,3.499,0.047,3.478,0.117l-3.26,10.67   c-0.017,0.05-0.007,0.105,0.024,0.146C0.274,10.977,0.323,11,0.375,11h2.5c0.074,0,0.139-0.049,0.159-0.121l0.727-2.618h2.807   l0.787,2.622C7.377,10.953,7.441,11,7.514,11h2.596c0.002,0,0.006,0,0.008,0c0.091,0,0.166-0.074,0.166-0.164   C10.284,10.801,10.272,10.768,10.253,10.741z M6.123,6.127H4.201l0.574-2.054c0.107-0.376,0.206-0.818,0.303-1.248   c0.017-0.073,0.034-0.146,0.05-0.218C5.25,3.1,5.386,3.627,5.52,4.076L6.123,6.127z"/>
</g>
<path fill="#808080" d="M9.394,23.676H4.613l4.838-7.023c0.019-0.028,0.029-0.061,0.029-0.094v-1.393C9.48,15.074,9.405,15,9.314,15  h-7.74c-0.091,0-0.166,0.074-0.166,0.166v1.994c0,0.092,0.074,0.164,0.166,0.164h4.334l-4.944,7.119  c-0.02,0.027-0.03,0.061-0.03,0.094v1.299c0,0.09,0.074,0.164,0.165,0.164h8.295c0.091,0,0.166-0.074,0.166-0.164v-1.995  C9.56,23.748,9.485,23.676,9.394,23.676z"/>
</svg>
