<?xml version="1.0" encoding="UTF-8" standalone="no"?>
<!-- Generator: Adobe Illustrator 15.0.0, SVG Export Plug-In . SVG Version: 6.00 Build 0)  -->

<svg
   xmlns:dc="http://purl.org/dc/elements/1.1/"
   xmlns:cc="http://creativecommons.org/ns#"
   xmlns:rdf="http://www.w3.org/1999/02/22-rdf-syntax-ns#"
   xmlns:svg="http://www.w3.org/2000/svg"
   xmlns="http://www.w3.org/2000/svg"
   xmlns:sodipodi="http://sodipodi.sourceforge.net/DTD/sodipodi-0.dtd"
   xmlns:inkscape="http://www.inkscape.org/namespaces/inkscape"
   version="1.1"
   id="Layer_1"
   x="0px"
   y="0px"
   width="416px"
   height="416px"
   viewBox="0 0 26 26"
   enable-background="new 0 0 26 26"
   xml:space="preserve"
   sodipodi:docname="icons8-document-2pages.svg"
   inkscape:version="0.92.3 (2405546, 2018-03-11)"><metadata
   id="metadata1239"><rdf:RDF><cc:Work
       rdf:about=""><dc:format>image/svg+xml</dc:format><dc:type
         rdf:resource="http://purl.org/dc/dcmitype/StillImage" /><dc:title></dc:title></cc:Work></rdf:RDF></metadata><defs
   id="defs1237" /><sodipodi:namedview
   pagecolor="#ffffff"
   bordercolor="#666666"
   borderopacity="1"
   objecttolerance="10"
   gridtolerance="10"
   guidetolerance="10"
   inkscape:pageopacity="0"
   inkscape:pageshadow="2"
   inkscape:window-width="812"
   inkscape:window-height="480"
   id="namedview1235"
   showgrid="false"
   inkscape:zoom="0.56730769"
   inkscape:cx="208"
   inkscape:cy="208"
   inkscape:window-x="70"
   inkscape:window-y="27"
   inkscape:window-maximized="0"
   inkscape:current-layer="Layer_1" />
<path
   stroke-miterlimit="10"
   d="m 3.7412772,11.983051 c 1.7308703,0 4.276771,0 6.1096729,0"
   id="path1226"
   inkscape:connector-curvature="0"
   style="fill:#808080;stroke:#808080;stroke-width:1.22958744;stroke-linecap:round;stroke-linejoin:round;stroke-miterlimit:10;stroke-opacity:1" />
<path
   stroke-miterlimit="10"
   d="m 3.7412772,16.932203 c 1.7308703,0 4.276771,0 6.1096729,0"
   id="path1228"
   inkscape:connector-curvature="0"
   style="fill:#808080;stroke:#808080;stroke-width:1.22958744;stroke-linecap:round;stroke-linejoin:round;stroke-miterlimit:10;stroke-opacity:1" />
<path
   stroke-miterlimit="10"
   d="m 3.7412772,14.457627 c 0.6109673,0 4.276771,0 4.8877382,0"
   id="path1230"
   inkscape:connector-curvature="0"
   style="fill:#808080;stroke:#808080;stroke-width:1.22958744;stroke-linecap:round;stroke-linejoin:round;stroke-miterlimit:10;stroke-opacity:1" />

<path
   d="M 11.235403,7.7806017 C 11.086327,7.6321271 10.933585,7.481178 10.783286,7.3277542 10.631767,7.1755678 10.482691,7.0209068 10.336059,6.8699576 9.2900819,5.7891864 8.6675069,5.1779661 8.0180482,5.1779661 H 3.1303098 c -1.3471828,0 -2.44386912,1.1104661 -2.44386912,2.4745763 V 18.788135 c 0,1.364111 1.09668632,2.474577 2.44386912,2.474577 h 7.3316072 c 1.347184,0 2.44387,-1.110466 2.44387,-2.474577 v -8.661016 c 0,-0.6570004 -0.603636,-1.2880173 -1.670384,-2.3465173 z m 0.44845,11.0075333 c 0,0.682984 -0.547427,1.237289 -1.221936,1.237289 H 3.1303098 c -0.6745078,0 -1.2219345,-0.554305 -1.2219345,-1.237289 V 7.6525424 c 0,-0.6829831 0.5474267,-1.2372882 1.2219345,-1.2372882 l 4.4533407,-0.00247 c 0.4405073,0.113826 0.4343977,0.6619446 0.4343977,1.2106819 v 1.8850085 c 0,0.3408729 0.2743243,0.6186444 0.6109672,0.6186444 h 1.8329016 c 0.609746,0 1.221936,0.0031 1.221936,0.618644 z"
   id="path1232"
   inkscape:connector-curvature="0"
   style="fill:#808080;stroke-width:0.61479372" />
<path
   stroke-miterlimit="10"
   d="m 16.526169,11.930085 c 1.73087,0 4.27677,0 6.109673,0"
   id="path1226-3"
   inkscape:connector-curvature="0"
   style="fill:#808080;stroke:#808080;stroke-width:1.22958744;stroke-linecap:round;stroke-linejoin:round;stroke-miterlimit:10;stroke-opacity:1" /><path
   stroke-miterlimit="10"
   d="m 16.526169,16.879237 c 1.73087,0 4.27677,0 6.109673,0"
   id="path1228-6"
   inkscape:connector-curvature="0"
   style="fill:#808080;stroke:#808080;stroke-width:1.22958744;stroke-linecap:round;stroke-linejoin:round;stroke-miterlimit:10;stroke-opacity:1" /><path
   stroke-miterlimit="10"
   d="m 16.526169,14.40466 c 0.610966,0 4.27677,0 4.887738,0"
   id="path1230-7"
   inkscape:connector-curvature="0"
   style="fill:#808080;stroke:#808080;stroke-width:1.22958744;stroke-linecap:round;stroke-linejoin:round;stroke-miterlimit:10;stroke-opacity:1" /><path
   d="M 24.020295,7.727635 C 23.871218,7.579161 23.718476,7.428212 23.568178,7.274788 23.416658,7.122602 23.267582,6.967941 23.12095,6.816991 22.074973,5.73622 21.452398,5.125 20.802939,5.125 h -4.887737 c -1.347183,0 -2.44387,1.110466 -2.44387,2.474576 v 11.135593 c 0,1.364111 1.096687,2.474577 2.44387,2.474577 h 7.331607 c 1.347184,0 2.443869,-1.110466 2.443869,-2.474577 v -8.661016 c 0,-0.657001 -0.603636,-1.288018 -1.670383,-2.346518 z m 0.44845,11.007534 c 0,0.682984 -0.547428,1.237289 -1.221936,1.237289 h -7.331607 c -0.674508,0 -1.221935,-0.554305 -1.221935,-1.237289 V 7.599576 c 0,-0.682983 0.547427,-1.237288 1.221935,-1.237288 l 4.45334,-0.0025 c 0.440508,0.113856 0.434397,0.661975 0.434397,1.210712 v 1.885008 c 0,0.340873 0.274325,0.618645 0.610968,0.618645 h 1.832902 c 0.609745,0 1.221936,0.0031 1.221936,0.618644 z"
   id="path1232-5"
   inkscape:connector-curvature="0"
   style="fill:#808080;stroke-width:0.61479372" /></svg>