<?xml version="1.0" encoding="UTF-8" standalone="no"?>
<svg
   xmlns:dc="http://purl.org/dc/elements/1.1/"
   xmlns:cc="http://creativecommons.org/ns#"
   xmlns:rdf="http://www.w3.org/1999/02/22-rdf-syntax-ns#"
   xmlns:svg="http://www.w3.org/2000/svg"
   xmlns="http://www.w3.org/2000/svg"
   xmlns:sodipodi="http://sodipodi.sourceforge.net/DTD/sodipodi-0.dtd"
   xmlns:inkscape="http://www.inkscape.org/namespaces/inkscape"
   version="1.1"
   id="Layer_1"
   x="0px"
   y="0px"
   width="416px"
   height="416px"
   viewBox="0 0 26 26"
   enable-background="new 0 0 26 26"
   xml:space="preserve"
   sodipodi:docname="icons8_dic_list.svg"
   inkscape:version="1.0.2 (e86c870879, 2021-01-15)"><metadata
     id="metadata1510"><rdf:RDF><cc:Work
         rdf:about=""><dc:format>image/svg+xml</dc:format><dc:type
           rdf:resource="http://purl.org/dc/dcmitype/StillImage" /><dc:title /></cc:Work></rdf:RDF></metadata><defs
     id="defs1508" /><sodipodi:namedview
     pagecolor="#ffffff"
     bordercolor="#666666"
     borderopacity="1"
     objecttolerance="10"
     gridtolerance="10"
     guidetolerance="10"
     inkscape:pageopacity="0"
     inkscape:pageshadow="2"
     inkscape:window-width="1920"
     inkscape:window-height="995"
     id="namedview1506"
     showgrid="false"
     inkscape:zoom="0.56730769"
     inkscape:cx="208"
     inkscape:cy="257.50232"
     inkscape:window-x="0"
     inkscape:window-y="0"
     inkscape:window-maximized="1"
     inkscape:current-layer="Layer_1"
     inkscape:document-rotation="0" /><rect
     x="13.869806"
     y="1.2732091"
     style="fill:none;stroke:#808080;stroke-width:0.799091;stroke-linejoin:round;stroke-miterlimit:10;stroke-dasharray:none;stroke-opacity:1"
     width="2.461606"
     height="2.334439"
     id="rect850" /><line
     style="fill:none;stroke:#808080;stroke-width:0.799059;stroke-linecap:round;stroke-miterlimit:10;stroke-opacity:1"
     x1="18.382751"
     y1="2.4404285"
     x2="24.126497"
     y2="2.4404285"
     id="line852" /><rect
     x="13.869806"
     y="4.774868"
     style="fill:none;stroke:#808080;stroke-width:0.799091;stroke-linejoin:round;stroke-miterlimit:10;stroke-dasharray:none;stroke-opacity:1"
     width="2.461606"
     height="2.334439"
     id="rect854" /><line
     style="fill:none;stroke:#808080;stroke-width:0.799059;stroke-linecap:round;stroke-miterlimit:10;stroke-opacity:1"
     x1="18.382751"
     y1="5.9420867"
     x2="24.126497"
     y2="5.9420867"
     id="line856" /><rect
     x="14.690342"
     y="2.0513549"
     style="fill:#808080;stroke-width:0.799091;stroke-linejoin:round;stroke-miterlimit:10;stroke-dasharray:none"
     width="0.82053536"
     height="0.77814633"
     id="rect862" /><rect
     x="14.690342"
     y="5.5530138"
     style="fill:#808080;stroke-width:0.799091;stroke-linejoin:round;stroke-miterlimit:10;stroke-dasharray:none;paint-order:stroke fill markers"
     width="0.82053536"
     height="0.77814633"
     id="rect864" /><g
     id="g5357"
     style="fill:#808080"
     transform="matrix(0.64678984,0,0,0.66363334,1.8167779,6.1163328)"><g
       id="g5353"
       style="fill:#808080"><path
         d="M 14,2 V 14 H 2 V 2 H 14 M 14.315,0 H 1.685 C 0.754,0 0,0.754 0,1.684 V 14.316 C 0,15.246 0.754,16 1.685,16 H 14.316 C 15.246,16 16,15.246 16,14.316 V 1.684 C 16,0.754 15.246,0 14.315,0 Z"
         id="path5351"
         style="fill:#808080"
         inkscape:connector-curvature="0" /></g><path
       d="M 24.315,10 H 11.685 C 10.754,10 10,10.754 10,11.684 V 24.316 C 10,25.246 10.754,26 11.685,26 H 24.316 C 25.246,26 26,25.246 26,24.316 V 11.684 C 26,10.754 25.246,10 24.315,10 Z m -3.96,12.631 -0.698,-2.008 h -3.322 l -0.69,2.008 h -2.146 l 3.457,-9.309 h 2.104 l 3.442,9.309 z m -2.331,-6.752 1.133,3.281 h -2.314 l 1.14,-3.281 z"
       id="path5355"
       style="fill:#808080"
       inkscape:connector-curvature="0" /></g><polygon
     points="13,6 13,4 9,4 9,3 7,3 7,4 3,4 3,6 "
     id="polygon5359"
     style="fill:#808080"
     transform="matrix(0.64678984,0,0,0.66363334,1.8167779,6.1163328)" /><path
     stroke-miterlimit="10"
     d="m 4.4718503,14.181469 c 0,0 2.9318988,-1.07575 4.3794151,-4.051482"
     id="path5361"
     style="fill:#808080;stroke:#808080;stroke-width:1.31032;stroke-linecap:round;stroke-linejoin:round;stroke-miterlimit:10;stroke-opacity:1"
     inkscape:connector-curvature="0" /><path
     stroke-miterlimit="10"
     d="m 5.3553653,10.739202 c 0,0 0.643556,1.434113 3.0942437,2.868224"
     id="path5363"
     style="fill:#808080;stroke:#808080;stroke-width:1.31032;stroke-linecap:round;stroke-linejoin:round;stroke-miterlimit:10;stroke-opacity:1"
     inkscape:connector-curvature="0" /><polygon
     points="3,16 4,16 4,19 7,19 7,16 8,16 5.5,13.5 "
     id="polygon5365"
     style="fill:#808080"
     transform="matrix(0.64678984,0,0,0.66363334,1.8167779,6.1163328)" /><polygon
     points="10,18 10,19 4,19 7,22 10,22 10,23 12.5,20.5 "
     id="polygon5367"
     style="fill:#808080"
     transform="matrix(0.64678984,0,0,0.66363334,1.8167779,6.1163328)" /><rect
     x="13.849906"
     y="8.3378973"
     style="fill:none;stroke:#808080;stroke-width:0.799091;stroke-linejoin:round;stroke-miterlimit:10;stroke-dasharray:none;stroke-opacity:1"
     width="2.461606"
     height="2.334439"
     id="rect854-3" /><line
     style="fill:none;stroke:#808080;stroke-width:0.799059;stroke-linecap:round;stroke-miterlimit:10;stroke-opacity:1"
     x1="18.362852"
     y1="9.5051165"
     x2="24.106598"
     y2="9.5051165"
     id="line856-6" /><rect
     x="14.670443"
     y="9.1160431"
     style="fill:#808080;stroke-width:0.799091;stroke-linejoin:round;stroke-miterlimit:10;stroke-dasharray:none;paint-order:stroke fill markers"
     width="0.82053536"
     height="0.77814633"
     id="rect864-7" /></svg>
