<?xml version="1.0" encoding="UTF-8" standalone="no"?>
<svg
   xmlns:dc="http://purl.org/dc/elements/1.1/"
   xmlns:cc="http://creativecommons.org/ns#"
   xmlns:rdf="http://www.w3.org/1999/02/22-rdf-syntax-ns#"
   xmlns:svg="http://www.w3.org/2000/svg"
   xmlns="http://www.w3.org/2000/svg"
   xmlns:sodipodi="http://sodipodi.sourceforge.net/DTD/sodipodi-0.dtd"
   xmlns:inkscape="http://www.inkscape.org/namespaces/inkscape"
   viewBox="0 0 80 80"
   width="416px"
   height="416px"
   version="1.1"
   id="svg827"
   sodipodi:docname="icons8-разрешение.svg"
   inkscape:version="0.92.2 (5c3e80d, 2017-08-06)">
  <metadata
     id="metadata833">
    <rdf:RDF>
      <cc:Work
         rdf:about="">
        <dc:format>image/svg+xml</dc:format>
        <dc:type
           rdf:resource="http://purl.org/dc/dcmitype/StillImage" />
      </cc:Work>
    </rdf:RDF>
  </metadata>
  <defs
     id="defs831" />
  <sodipodi:namedview
     pagecolor="#ffffff"
     bordercolor="#666666"
     borderopacity="1"
     objecttolerance="10"
     gridtolerance="10"
     guidetolerance="10"
     inkscape:pageopacity="0"
     inkscape:pageshadow="2"
     inkscape:window-width="737"
     inkscape:window-height="480"
     id="namedview829"
     showgrid="false"
     inkscape:zoom="0.37989992"
     inkscape:cx="242.97534"
     inkscape:cy="233.72365"
     inkscape:window-x="0"
     inkscape:window-y="0"
     inkscape:window-maximized="1"
     inkscape:current-layer="svg827" />
  <path
     style="line-height:normal;text-indent:0;text-align:start;text-decoration-line:none;text-decoration-style:solid;text-decoration-color:#000;text-transform:none;block-progression:tb;isolation:auto;mix-blend-mode:normal;fill:#808080"
     d="M 5 14 L 5 15 L 5 44 L 51 44 L 51 14 L 5 14 z M 54 14 A 1 1 0 0 0 53 15 A 1 1 0 0 0 54 16 A 1 1 0 0 0 55 15 A 1 1 0 0 0 54 14 z M 58 14 A 1 1 0 0 0 57 15 A 1 1 0 0 0 58 16 A 1 1 0 0 0 59 15 A 1 1 0 0 0 58 14 z M 62 14 A 1 1 0 0 0 61 15 A 1 1 0 0 0 62 16 A 1 1 0 0 0 63 15 A 1 1 0 0 0 62 14 z M 66 14 A 1 1 0 0 0 65 15 A 1 1 0 0 0 66 16 A 1 1 0 0 0 67 15 A 1 1 0 0 0 66 14 z M 70 14 A 1 1 0 0 0 69 15 A 1 1 0 0 0 70 16 A 1 1 0 0 0 71 15 A 1 1 0 0 0 70 14 z M 74 14 A 1 1 0 0 0 73 15 A 1 1 0 0 0 74 16 A 1 1 0 0 0 75 15 A 1 1 0 0 0 74 14 z M 7 16 L 49 16 L 49 42 L 7 42 L 7 16 z M 62 18 A 1 1 0 0 0 61 19 A 1 1 0 0 0 62 20 A 1 1 0 0 0 63 19 A 1 1 0 0 0 62 18 z M 74 18 A 1 1 0 0 0 73 19 A 1 1 0 0 0 74 20 A 1 1 0 0 0 75 19 A 1 1 0 0 0 74 18 z M 62 22 A 1 1 0 0 0 61 23 A 1 1 0 0 0 62 24 A 1 1 0 0 0 63 23 A 1 1 0 0 0 62 22 z M 74 22 A 1 1 0 0 0 73 23 A 1 1 0 0 0 74 24 A 1 1 0 0 0 75 23 A 1 1 0 0 0 74 22 z M 62 26 A 1 1 0 0 0 61 27 A 1 1 0 0 0 62 28 A 1 1 0 0 0 63 27 A 1 1 0 0 0 62 26 z M 74 26 A 1 1 0 0 0 73 27 A 1 1 0 0 0 74 28 A 1 1 0 0 0 75 27 A 1 1 0 0 0 74 26 z M 62 30 A 1 1 0 0 0 61 31 A 1 1 0 0 0 62 32 A 1 1 0 0 0 63 31 A 1 1 0 0 0 62 30 z M 74 30 A 1 1 0 0 0 73 31 A 1 1 0 0 0 74 32 A 1 1 0 0 0 75 31 A 1 1 0 0 0 74 30 z M 62 34 A 1 1 0 0 0 61 35 A 1 1 0 0 0 62 36 A 1 1 0 0 0 63 35 A 1 1 0 0 0 62 34 z M 74 34 A 1 1 0 0 0 73 35 A 1 1 0 0 0 74 36 A 1 1 0 0 0 75 35 A 1 1 0 0 0 74 34 z M 62 38 A 1 1 0 0 0 61 39 A 1 1 0 0 0 62 40 A 1 1 0 0 0 63 39 A 1 1 0 0 0 62 38 z M 74 38 A 1 1 0 0 0 73 39 A 1 1 0 0 0 74 40 A 1 1 0 0 0 75 39 A 1 1 0 0 0 74 38 z M 62 42 A 1 1 0 0 0 61 43 A 1 1 0 0 0 62 44 A 1 1 0 0 0 63 43 A 1 1 0 0 0 62 42 z M 74 42 A 1 1 0 0 0 73 43 A 1 1 0 0 0 74 44 A 1 1 0 0 0 75 43 A 1 1 0 0 0 74 42 z M 6 46 A 1 1 0 0 0 5 47 A 1 1 0 0 0 6 48 A 1 1 0 0 0 7 47 A 1 1 0 0 0 6 46 z M 62 46 A 1 1 0 0 0 61 47 A 1 1 0 0 0 62 48 A 1 1 0 0 0 63 47 A 1 1 0 0 0 62 46 z M 74 46 A 1 1 0 0 0 73 47 A 1 1 0 0 0 74 48 A 1 1 0 0 0 75 47 A 1 1 0 0 0 74 46 z M 6 50 A 1 1 0 0 0 5 51 A 1 1 0 0 0 6 52 A 1 1 0 0 0 7 51 A 1 1 0 0 0 6 50 z M 62 50 A 1 1 0 0 0 61 51 A 1 1 0 0 0 62 52 A 1 1 0 0 0 63 51 A 1 1 0 0 0 62 50 z M 74 50 A 1 1 0 0 0 73 51 A 1 1 0 0 0 74 52 A 1 1 0 0 0 75 51 A 1 1 0 0 0 74 50 z M 6 54 A 1 1 0 0 0 5 55 A 1 1 0 0 0 6 56 A 1 1 0 0 0 7 55 A 1 1 0 0 0 6 54 z M 10 54 A 1 1 0 0 0 9 55 A 1 1 0 0 0 10 56 A 1 1 0 0 0 11 55 A 1 1 0 0 0 10 54 z M 14 54 A 1 1 0 0 0 13 55 A 1 1 0 0 0 14 56 A 1 1 0 0 0 15 55 A 1 1 0 0 0 14 54 z M 18 54 A 1 1 0 0 0 17 55 A 1 1 0 0 0 18 56 A 1 1 0 0 0 19 55 A 1 1 0 0 0 18 54 z M 22 54 A 1 1 0 0 0 21 55 A 1 1 0 0 0 22 56 A 1 1 0 0 0 23 55 A 1 1 0 0 0 22 54 z M 26 54 A 1 1 0 0 0 25 55 A 1 1 0 0 0 26 56 A 1 1 0 0 0 27 55 A 1 1 0 0 0 26 54 z M 30 54 A 1 1 0 0 0 29 55 A 1 1 0 0 0 30 56 A 1 1 0 0 0 31 55 A 1 1 0 0 0 30 54 z M 34 54 A 1 1 0 0 0 33 55 A 1 1 0 0 0 34 56 A 1 1 0 0 0 35 55 A 1 1 0 0 0 34 54 z M 38 54 A 1 1 0 0 0 37 55 A 1 1 0 0 0 38 56 A 1 1 0 0 0 39 55 A 1 1 0 0 0 38 54 z M 42 54 A 1 1 0 0 0 41 55 A 1 1 0 0 0 42 56 A 1 1 0 0 0 43 55 A 1 1 0 0 0 42 54 z M 46 54 A 1 1 0 0 0 45 55 A 1 1 0 0 0 46 56 A 1 1 0 0 0 47 55 A 1 1 0 0 0 46 54 z M 50 54 A 1 1 0 0 0 49 55 A 1 1 0 0 0 50 56 A 1 1 0 0 0 51 55 A 1 1 0 0 0 50 54 z M 54 54 A 1 1 0 0 0 53 55 A 1 1 0 0 0 54 56 A 1 1 0 0 0 55 55 A 1 1 0 0 0 54 54 z M 58 54 A 1 1 0 0 0 57 55 A 1 1 0 0 0 58 56 A 1 1 0 0 0 59 55 A 1 1 0 0 0 58 54 z M 62 54 A 1 1 0 0 0 61 55 A 1 1 0 0 0 62 56 A 1 1 0 0 0 63 55 A 1 1 0 0 0 62 54 z M 74 54 A 1 1 0 0 0 73 55 A 1 1 0 0 0 74 56 A 1 1 0 0 0 75 55 A 1 1 0 0 0 74 54 z M 6 58 A 1 1 0 0 0 5 59 A 1 1 0 0 0 6 60 A 1 1 0 0 0 7 59 A 1 1 0 0 0 6 58 z M 74 58 A 1 1 0 0 0 73 59 A 1 1 0 0 0 74 60 A 1 1 0 0 0 75 59 A 1 1 0 0 0 74 58 z M 6 62 A 1 1 0 0 0 5 63 A 1 1 0 0 0 6 64 A 1 1 0 0 0 7 63 A 1 1 0 0 0 6 62 z M 74 62 A 1 1 0 0 0 73 63 A 1 1 0 0 0 74 64 A 1 1 0 0 0 75 63 A 1 1 0 0 0 74 62 z M 6 66 A 1 1 0 0 0 5 67 A 1 1 0 0 0 6 68 A 1 1 0 0 0 7 67 A 1 1 0 0 0 6 66 z M 10 66 A 1 1 0 0 0 9 67 A 1 1 0 0 0 10 68 A 1 1 0 0 0 11 67 A 1 1 0 0 0 10 66 z M 14 66 A 1 1 0 0 0 13 67 A 1 1 0 0 0 14 68 A 1 1 0 0 0 15 67 A 1 1 0 0 0 14 66 z M 18 66 A 1 1 0 0 0 17 67 A 1 1 0 0 0 18 68 A 1 1 0 0 0 19 67 A 1 1 0 0 0 18 66 z M 22 66 A 1 1 0 0 0 21 67 A 1 1 0 0 0 22 68 A 1 1 0 0 0 23 67 A 1 1 0 0 0 22 66 z M 26 66 A 1 1 0 0 0 25 67 A 1 1 0 0 0 26 68 A 1 1 0 0 0 27 67 A 1 1 0 0 0 26 66 z M 30 66 A 1 1 0 0 0 29 67 A 1 1 0 0 0 30 68 A 1 1 0 0 0 31 67 A 1 1 0 0 0 30 66 z M 34 66 A 1 1 0 0 0 33 67 A 1 1 0 0 0 34 68 A 1 1 0 0 0 35 67 A 1 1 0 0 0 34 66 z M 38 66 A 1 1 0 0 0 37 67 A 1 1 0 0 0 38 68 A 1 1 0 0 0 39 67 A 1 1 0 0 0 38 66 z M 42 66 A 1 1 0 0 0 41 67 A 1 1 0 0 0 42 68 A 1 1 0 0 0 43 67 A 1 1 0 0 0 42 66 z M 46 66 A 1 1 0 0 0 45 67 A 1 1 0 0 0 46 68 A 1 1 0 0 0 47 67 A 1 1 0 0 0 46 66 z M 50 66 A 1 1 0 0 0 49 67 A 1 1 0 0 0 50 68 A 1 1 0 0 0 51 67 A 1 1 0 0 0 50 66 z M 54 66 A 1 1 0 0 0 53 67 A 1 1 0 0 0 54 68 A 1 1 0 0 0 55 67 A 1 1 0 0 0 54 66 z M 58 66 A 1 1 0 0 0 57 67 A 1 1 0 0 0 58 68 A 1 1 0 0 0 59 67 A 1 1 0 0 0 58 66 z M 62 66 A 1 1 0 0 0 61 67 A 1 1 0 0 0 62 68 A 1 1 0 0 0 63 67 A 1 1 0 0 0 62 66 z M 66 66 A 1 1 0 0 0 65 67 A 1 1 0 0 0 66 68 A 1 1 0 0 0 67 67 A 1 1 0 0 0 66 66 z M 70 66 A 1 1 0 0 0 69 67 A 1 1 0 0 0 70 68 A 1 1 0 0 0 71 67 A 1 1 0 0 0 70 66 z M 74 66 A 1 1 0 0 0 73 67 A 1 1 0 0 0 74 68 A 1 1 0 0 0 75 67 A 1 1 0 0 0 74 66 z"
     id="path825" />
</svg>
