<?xml version="1.0" encoding="UTF-8" standalone="no"?>
<!-- Generator: Adobe Illustrator 15.0.0, SVG Export Plug-In . SVG Version: 6.00 Build 0)  -->

<svg
   xmlns:dc="http://purl.org/dc/elements/1.1/"
   xmlns:cc="http://creativecommons.org/ns#"
   xmlns:rdf="http://www.w3.org/1999/02/22-rdf-syntax-ns#"
   xmlns:svg="http://www.w3.org/2000/svg"
   xmlns="http://www.w3.org/2000/svg"
   xmlns:sodipodi="http://sodipodi.sourceforge.net/DTD/sodipodi-0.dtd"
   xmlns:inkscape="http://www.inkscape.org/namespaces/inkscape"
   version="1.1"
   id="Layer_1"
   x="0px"
   y="0px"
   width="416px"
   height="416px"
   viewBox="0 0 26 26"
   enable-background="new 0 0 26 26"
   xml:space="preserve"
   sodipodi:docname="icons8_ok_from_clipboard.svg"
   inkscape:version="0.92.3 (2405546, 2018-03-11)"><metadata
     id="metadata5422"><rdf:RDF><cc:Work
         rdf:about=""><dc:format>image/svg+xml</dc:format><dc:type
           rdf:resource="http://purl.org/dc/dcmitype/StillImage" /><dc:title></dc:title></cc:Work></rdf:RDF></metadata><defs
     id="defs5420" /><sodipodi:namedview
     pagecolor="#ffffff"
     bordercolor="#666666"
     borderopacity="1"
     objecttolerance="10"
     gridtolerance="10"
     guidetolerance="10"
     inkscape:pageopacity="0"
     inkscape:pageshadow="2"
     inkscape:window-width="1850"
     inkscape:window-height="1016"
     id="namedview5418"
     showgrid="false"
     inkscape:zoom="0.40114712"
     inkscape:cx="109.19955"
     inkscape:cy="162.73137"
     inkscape:window-x="70"
     inkscape:window-y="27"
     inkscape:window-maximized="1"
     inkscape:current-layer="Layer_1" /><path
     d="M 8.637681,0.188 C 3.9709668,0.188 0.188,4.0058424 0.188,8.7155795 c 0,4.7097375 3.7829668,8.5282455 8.449681,8.5282455 4.666714,0 8.45034,-3.818508 8.45034,-8.5282455 C 17.088021,4.0058424 13.304395,0.188 8.637681,0.188 Z m 4.44248,5.8885027 -4.5315143,6.7437903 c -0.1358597,0.201674 -0.3482229,0.335459 -0.559267,0.335459 -0.2110442,0 -0.4451713,-0.116479 -0.5935618,-0.265572 L 4.7366614,10.205843 c -0.1807066,-0.183038 -0.1807066,-0.4805586 0,-0.6629312 l 0.656875,-0.6642619 c 0.1807065,-0.1810414 0.4761684,-0.1810414 0.6562154,0 L 7.7796545,10.624501 11.542176,5.0241999 c 0.143115,-0.2129898 0.4333,-0.2682341 0.645664,-0.1244659 l 0.768992,0.5264842 c 0.211044,0.1444337 0.266443,0.4372947 0.123329,0.6502845 z"
     id="path5415"
     style="fill:#808080;stroke-width:0.6625461"
     inkscape:connector-curvature="0" /><path
     inkscape:connector-curvature="0"
     stroke-miterlimit="10"
     d="m 22.077009,15.908642 c 0,0.217515 -0.187427,0.394764 -0.417432,0.394764 h -2.504589 c -0.230005,0 -0.417432,-0.177249 -0.417432,-0.394764 v -0.789529 c 0,-0.217516 0.187427,-0.394765 0.417432,-0.394765 h 0.834863 c 0,0 -0.0067,-0.394764 0.417432,-0.394764 0.42411,0 0.417431,0.394764 0.417431,0.394764 h 0.834863 c 0.230005,0 0.417432,0.177249 0.417432,0.394765 z"
     id="path1543"
     style="fill:none;stroke:#808080;stroke-width:0.81187975;stroke-miterlimit:10;stroke-opacity:1" /><line
     stroke-miterlimit="10"
     x1="18.320126"
     y1="18.277229"
     x2="22.494442"
     y2="18.277229"
     id="line1545"
     style="fill:none;stroke:#808080;stroke-width:0.81187975;stroke-miterlimit:10;stroke-opacity:1" /><line
     stroke-miterlimit="10"
     x1="18.320126"
     y1="19.856287"
     x2="21.242146"
     y2="19.856287"
     id="line1547"
     style="fill:none;stroke:#808080;stroke-width:0.81187975;stroke-miterlimit:10;stroke-opacity:1" /><line
     stroke-miterlimit="10"
     x1="18.320126"
     y1="21.435345"
     x2="22.494442"
     y2="21.435345"
     id="line1549"
     style="fill:none;stroke:#808080;stroke-width:0.81187975;stroke-miterlimit:10;stroke-opacity:1" /><path
     inkscape:connector-curvature="0"
     d="m 23.329304,15.119113 h -1.252295 v 1.184293 h 1.252295 v 6.710997 h -5.844042 v -6.710997 h 1.252294 v -1.184293 h -1.252294 c -0.691267,0 -1.252295,0.530563 -1.252295,1.184293 v 6.710997 c 0,0.653731 0.561028,1.184294 1.252295,1.184294 h 5.844042 c 0.691266,0 1.252294,-0.530563 1.252294,-1.184294 v -6.710997 c 0,-0.65373 -0.561028,-1.184293 -1.252294,-1.184293 z"
     id="path1551"
     style="fill:#808080;stroke-width:0.40593988" /><path
     inkscape:connector-curvature="0"
     style="fill:#000000;stroke-width:0.40593988"
     d="M 25.333893,14.059819"
     id="path1553" /><polygon
     transform="matrix(0,-0.23063669,-0.32469357,0,24.723481,12.99011)"
     style="fill:#808080"
     points="25.906,13 12,4.061 12,21.938 "
     id="polygon858" /><rect
     x="-12.766093"
     style="fill:#808080;stroke-width:0.2556664"
     y="-21.8599"
     width="3.4223351"
     height="2.5975487"
     id="rect856-6"
     transform="matrix(0,-1,-1,0,0,0)" /></svg>