<?xml version="1.0" encoding="UTF-8" standalone="no"?>
<!-- Generator: Adobe Illustrator 15.0.0, SVG Export Plug-In . SVG Version: 6.00 Build 0)  -->

<svg
   xmlns:dc="http://purl.org/dc/elements/1.1/"
   xmlns:cc="http://creativecommons.org/ns#"
   xmlns:rdf="http://www.w3.org/1999/02/22-rdf-syntax-ns#"
   xmlns:svg="http://www.w3.org/2000/svg"
   xmlns="http://www.w3.org/2000/svg"
   xmlns:sodipodi="http://sodipodi.sourceforge.net/DTD/sodipodi-0.dtd"
   xmlns:inkscape="http://www.inkscape.org/namespaces/inkscape"
   version="1.1"
   id="Layer_1"
   x="0px"
   y="0px"
   width="416px"
   height="416px"
   viewBox="0 0 26 26"
   enable-background="new 0 0 26 26"
   xml:space="preserve"
   sodipodi:docname="icons8-bookmarks-to-gd.svg"
   inkscape:version="0.92.2 (5c3e80d, 2017-08-06)"><metadata
     id="metadata861"><rdf:RDF><cc:Work
         rdf:about=""><dc:format>image/svg+xml</dc:format><dc:type
           rdf:resource="http://purl.org/dc/dcmitype/StillImage" /><dc:title></dc:title></cc:Work></rdf:RDF></metadata><defs
     id="defs859" /><sodipodi:namedview
     pagecolor="#ffffff"
     bordercolor="#666666"
     borderopacity="1"
     objecttolerance="10"
     gridtolerance="10"
     guidetolerance="10"
     inkscape:pageopacity="0"
     inkscape:pageshadow="2"
     inkscape:window-width="737"
     inkscape:window-height="403"
     id="namedview857"
     showgrid="false"
     inkscape:zoom="0.28365385"
     inkscape:cx="65.18708"
     inkscape:cy="146.07082"
     inkscape:window-x="132"
     inkscape:window-y="132"
     inkscape:window-maximized="0"
     inkscape:current-layer="Layer_1" /><polygon
     transform="matrix(0,0.23063669,-0.32469357,0,24.722972,7.7218964)"
     style="fill:#808080"
     points="25.906,13 12,4.061 12,21.938 "
     id="polygon858" /><rect
     x="-12.187429"
     style="fill:#808080;stroke-width:0.30102435"
     y="-21.859388"
     width="4.744369"
     height="2.5975487"
     id="rect856-6"
     transform="matrix(0,-1,-1,0,0,0)" /><g
     transform="matrix(0.39873449,0,0,0.39186171,15.49174,14.747327)"
     id="surface1"
     style="fill:#808080"><path
       inkscape:connector-curvature="0"
       style="fill:#808080;fill-opacity:1;fill-rule:nonzero;stroke:none"
       d="M 17.289063,1.96875 H 8.316406 L 0,16.078125 4.160156,23.988281 h 16.796875 l 4.648438,-8.398437 z M 24.160156,15.601563 15.15625,12.28125 10.214844,3.207031 h 6.378906 z m -13.851562,-0.585938 2.574219,-4.222656 2.414062,4.222656 z M 9.023438,3.207031 h 0.023437 l 1.695313,8.726563 -6.328125,9.871094 -3,-5.691407 z M 20.226563,22.75 H 4.910156 l -0.00391,-0.0039 7.886719,-6.488281 11.03125,-0.0039 z"
       id="path826" /></g><path
     inkscape:connector-curvature="0"
     d="m 13.307506,5.1949152 h -0.131873 c -0.296717,-0.807491 -1.082945,-1.38983 -2.018248,-1.38983 H 2.5569008 c -1.1868672,0 -2.15012154,0.933966 -2.15012154,2.084745 v 1.389831 10.4237288 1.389831 c 0,1.296017 2.54359354,2.779661 3.58353554,2.779661 h 9.3171912 c 1.185434,0 2.150122,-0.935356 2.150122,-2.084746 V 7.2796612 c 0,-1.14939 -0.964688,-2.084746 -2.150122,-2.084746 z m -9.3171912,1.694203 c 0,-1.667101 1.433414,-1.694203 1.433414,-1.694203 h 5.0169492 c 0,0 -1.4334142,0.01459 -1.4334142,1.694203 0,1.129238 0,7.3396958 0,7.3396958 l -2.508475,-1.694203 -2.508474,1.694203 c 0,0 0,-6.2111528 0,-7.3396958 z M 14.024213,19.788136 c 0,0.383593 -0.3218,0.694915 -0.716707,0.694915 H 3.9903148 c -0.264465,-0.0028 -0.901618,-0.337034 -1.41693,-0.694915 h 8.5840002 c 1.186868,0 2.150121,-0.933966 2.150121,-2.084746 V 6.5847462 c 0.394907,0 0.716707,0.311322 0.716707,0.694915 z"
     id="path2002"
     style="fill:#808080;stroke-width:0.70572704" /></svg>