<?xml version="1.0" encoding="UTF-8" standalone="no"?>
<svg
   xmlns:dc="http://purl.org/dc/elements/1.1/"
   xmlns:cc="http://creativecommons.org/ns#"
   xmlns:rdf="http://www.w3.org/1999/02/22-rdf-syntax-ns#"
   xmlns:svg="http://www.w3.org/2000/svg"
   xmlns="http://www.w3.org/2000/svg"
   xmlns:sodipodi="http://sodipodi.sourceforge.net/DTD/sodipodi-0.dtd"
   xmlns:inkscape="http://www.inkscape.org/namespaces/inkscape"
   version="1.1"
   id="Layer_1"
   x="0px"
   y="0px"
   width="416px"
   height="416px"
   viewBox="0 0 26 26"
   enable-background="new 0 0 26 26"
   xml:space="preserve"
   sodipodi:docname="icons8_highlight_tap_zone.svg"
   inkscape:version="1.0.1 (3bc2e813f5, 2020-09-07)"><metadata
   id="metadata11"><rdf:RDF><cc:Work
       rdf:about=""><dc:format>image/svg+xml</dc:format><dc:type
         rdf:resource="http://purl.org/dc/dcmitype/StillImage" /><dc:title></dc:title></cc:Work></rdf:RDF></metadata><defs
   id="defs9" /><sodipodi:namedview
   pagecolor="#ffffff"
   bordercolor="#666666"
   borderopacity="1"
   objecttolerance="10"
   gridtolerance="10"
   guidetolerance="10"
   inkscape:pageopacity="0"
   inkscape:pageshadow="2"
   inkscape:window-width="1920"
   inkscape:window-height="1017"
   id="namedview7"
   showgrid="false"
   inkscape:zoom="1.0216346"
   inkscape:cx="199.19087"
   inkscape:cy="215.17744"
   inkscape:window-x="-8"
   inkscape:window-y="-8"
   inkscape:window-maximized="1"
   inkscape:current-layer="Layer_1" />

<path
   fill="#808080"
   d="M 9.3290148,11.618181 C 9.1829931,11.123698 9.0427791,10.628386 8.9374112,10.153816 8.2446378,9.7439592 7.7733859,8.998087 7.7733859,8.1360611 c 0,-1.2967722 1.054509,-2.3504515 2.3504511,-2.3504515 1.295943,0 2.350452,1.054509 2.350452,2.3504515 0,0.1783788 -0.02406,0.3501203 -0.0614,0.5168837 0.22484,0.4953122 0.406537,1.0528496 0.565834,1.6195132 0.448021,-0.5973613 0.723471,-1.3316182 0.723471,-2.1363969 0,-1.9771006 -1.601261,-3.5783613 -3.578362,-3.5783613 -1.9771001,0 -3.5775312,1.6012607 -3.5775312,3.5783613 0,1.7024803 1.1905747,3.1203839 2.782709,3.4821199 z"
   id="path2"
   style="stroke-width:0.829669" />
<path
   fill="#808080"
   d="m 6.8574316,20.089929 c 0.8819379,-0.95329 1.8717327,-0.579939 3.1967134,-0.378329 1.138306,0.17506 2.259188,-0.144363 2.184518,-0.759147 -0.117813,-0.994773 -0.283747,-1.439476 -0.661246,-2.727951 -0.30117,-1.024641 -0.872811,-2.871484 -1.393014,-4.637019 -0.6969214,-2.3620668 -0.8985309,-3.4588889 0.02904,-3.7326796 0.999751,-0.2912137 1.573052,1.1291792 2.092424,3.0988126 0.591554,2.241765 0.90268,3.23156 1.07691,3.179291 0.306978,-0.08794 -0.112835,-1.047042 0.690285,-1.283498 1.003899,-0.292043 1.198041,0.492824 1.479299,0.414005 0.281258,-0.08463 0.185846,-0.879449 0.986476,-1.113415 0.804779,-0.232308 1.208828,0.758317 1.540695,0.659586 0.328549,-0.09707 0.321082,-0.454658 0.817224,-0.596532 0.496971,-0.147681 2.367045,0.689455 3.437318,4.345805 1.343233,4.597195 -0.170083,5.451754 0.288724,7.008212 L 16.626781,25.847 C 16.141425,24.679656 14.638065,24.593371 13.308106,23.849158 11.968191,23.094989 11.058045,21.625645 7.5659687,21.696997 6.2526031,21.723546 6.3148283,20.676504 6.8574316,20.089929 Z"
   id="path4"
   style="stroke-width:0.829669" />
<g
   id="g4924"
   style="fill:#808080"
   transform="matrix(0.82966875,0,0,0.82966875,24.685988,2.7022188)" /><line
   fill="none"
   stroke="#000000"
   stroke-width="1.17672"
   stroke-linecap="round"
   stroke-linejoin="round"
   stroke-miterlimit="10"
   x1="10.154193"
   y1="1.1066101"
   x2="10.154193"
   y2="2.8716874"
   id="line4926"
   style="fill:#999999;stroke:#808080;stroke-opacity:1" /><line
   fill="none"
   stroke="#000000"
   stroke-width="1.17672"
   stroke-linecap="round"
   stroke-linejoin="round"
   stroke-miterlimit="10"
   x1="17.2145"
   y1="8.1669178"
   x2="15.449424"
   y2="8.1669178"
   id="line4930"
   style="fill:#999999;stroke:#808080;stroke-opacity:1" /><line
   fill="none"
   stroke="#000000"
   stroke-width="1.17672"
   stroke-linecap="round"
   stroke-linejoin="round"
   stroke-miterlimit="10"
   x1="4.8589625"
   y1="8.1669178"
   x2="3.0938857"
   y2="8.1669178"
   id="line4932"
   style="fill:#999999;stroke:#808080;stroke-opacity:1" /><line
   fill="none"
   stroke="#000000"
   stroke-width="1.17672"
   stroke-linecap="round"
   stroke-linejoin="round"
   stroke-miterlimit="10"
   x1="4.0399666"
   y1="4.636764"
   x2="5.5685229"
   y2="5.5193028"
   id="line4934"
   style="fill:#999999;stroke:#808080;stroke-opacity:1" /><line
   fill="none"
   stroke="#000000"
   stroke-width="1.17672"
   stroke-linecap="round"
   stroke-linejoin="round"
   stroke-miterlimit="10"
   x1="13.684347"
   y1="2.052103"
   x2="12.801809"
   y2="3.5806596"
   id="line4938"
   style="fill:#999999;stroke:#808080;stroke-opacity:1" /><line
   fill="none"
   stroke="#000000"
   stroke-width="1.17672"
   stroke-linecap="round"
   stroke-linejoin="round"
   stroke-miterlimit="10"
   x1="7.506578"
   y1="12.752587"
   x2="6.6240392"
   y2="14.281732"
   id="line4940"
   style="fill:#999999;stroke:#808080;stroke-opacity:1" /><line
   fill="none"
   stroke="#000000"
   stroke-width="1.17672"
   stroke-linecap="round"
   stroke-linejoin="round"
   stroke-miterlimit="10"
   x1="4.0399666"
   y1="11.696484"
   x2="5.5685229"
   y2="10.814532"
   id="line4942"
   style="fill:#999999;stroke:#808080;stroke-opacity:1" /><line
   fill="none"
   stroke="#000000"
   stroke-width="1.17672"
   stroke-linecap="round"
   stroke-linejoin="round"
   stroke-miterlimit="10"
   x1="14.739863"
   y1="5.5193028"
   x2="16.269007"
   y2="4.636764"
   id="line4944"
   style="fill:#999999;stroke:#808080;stroke-opacity:1" /><line
   fill="none"
   stroke="#000000"
   stroke-width="1.17672"
   stroke-linecap="round"
   stroke-linejoin="round"
   stroke-miterlimit="10"
   x1="6.6240392"
   y1="2.052103"
   x2="7.50599"
   y2="3.5806596"
   id="line4946"
   style="fill:#999999;stroke:#808080;stroke-opacity:1" /></svg>
