<?xml version="1.0" encoding="UTF-8" standalone="no"?>
<svg
   width="104pt"
   height="104pt"
   viewBox="0 0 104 104"
   version="1.1"
   id="svg5"
   sodipodi:docname="icons8_autoflip_page.svg"
   inkscape:version="1.1.2 (0a00cf5339, 2022-02-04)"
   xmlns:inkscape="http://www.inkscape.org/namespaces/inkscape"
   xmlns:sodipodi="http://sodipodi.sourceforge.net/DTD/sodipodi-0.dtd"
   xmlns="http://www.w3.org/2000/svg"
   xmlns:svg="http://www.w3.org/2000/svg">
  <defs
     id="defs9" />
  <sodipodi:namedview
     id="namedview7"
     pagecolor="#ffffff"
     bordercolor="#666666"
     borderopacity="1.0"
     inkscape:pageshadow="2"
     inkscape:pageopacity="0.0"
     inkscape:pagecheckerboard="0"
     inkscape:document-units="pt"
     showgrid="false"
     inkscape:zoom="5.6394231"
     inkscape:cx="69.244671"
     inkscape:cy="69.333333"
     inkscape:window-width="1920"
     inkscape:window-height="989"
     inkscape:window-x="0"
     inkscape:window-y="0"
     inkscape:window-maximized="1"
     inkscape:current-layer="svg5" />
  <g
     id="surface1"
     style="fill:#808080">
    <path
       style="fill:#808080;fill-opacity:1;fill-rule:nonzero;stroke:none"
       d="M 27.574219,0 C 18.898438,0 11.816406,7.078125 11.816406,15.757813 v 70.910156 c 0,8.675781 7.082032,15.757811 15.757813,15.757811 h 47.273437 c 8.679688,0 15.757813,-7.08203 15.757813,-15.757811 V 31.515625 c 0,-4.1875 -3.832031,-8.15625 -10.710938,-14.894531 -0.953125,-0.941406 -1.984375,-1.988281 -2.953125,-2.957031 -0.96875,-0.96875 -2.015625,-1.875 -2.953125,-2.832032 C 67.246094,3.953125 63.277344,0 59.089844,0 Z m 0,7.878906 h 28.683594 c 2.847656,0.722657 2.832031,4.140625 2.832031,7.632813 v 12.0625 c 0,2.171875 1.769531,3.941406 3.941406,3.941406 h 11.816406 c 3.925782,0 7.878907,0.01563 7.878907,3.9375 v 51.214844 c 0,4.355469 -3.523438,7.878906 -7.878907,7.878906 H 27.574219 c -4.351563,0 -7.878906,-3.523437 -7.878906,-7.878906 V 15.757813 c 0,-4.355469 3.527343,-7.878907 7.878906,-7.878907 z"
       id="path2"
       sodipodi:nodetypes="ssssssscscssscsssssssssss" />
  </g>
  <g
     id="surface1-3"
     transform="matrix(0.45800339,0,0,0.45800339,26.989196,41.944079)"
     style="fill:#808080">
    <path
       style="fill:#808080;fill-opacity:1;fill-rule:nonzero;stroke:none"
       d="m 51.210938,0 c -4.355469,0 -7.878907,3.523438 -7.878907,7.878906 0,4.355469 3.523438,7.878907 7.878907,7.878907 4.355468,0 7.878906,-3.523438 7.878906,-7.878907 C 59.089844,3.523438 55.566406,0 51.210938,0 Z m 20.3125,4.925781 c -1.152344,0.058594 -2.492188,0.628907 -3.445313,2.214844 -2.707031,4.539063 1.539063,7.292969 2.832031,8 12.769532,7.003906 21.542969,20.5 21.542969,36.070313 0,22.730468 -18.511719,41.242187 -41.242187,41.242187 -22.726563,0 -41.238282,-18.511719 -41.238282,-41.242187 0,-5.214844 1.046875,-10.1875 2.832032,-14.773438 0.230468,-0.597656 2.429687,-4.613281 -1.972657,-7.382812 -3.015625,-1.894532 -5.9375,0.246093 -6.523437,1.597656 C 1.539063,36.945313 0,43.902344 0,51.210938 c 0,28.285156 22.929688,51.214842 51.210938,51.214842 28.285156,0 51.214842,-22.929686 51.214842,-51.214842 0,-20.140625 -11.652342,-37.578125 -28.562499,-45.917969 C 73.679688,5.203125 72.679688,4.863281 71.523438,4.925781 Z m -58.226563,8.246094 c -1.234375,1.230469 30.4375,41.273438 31.390625,42.472656 0.03125,0.04687 0.09375,0.07813 0.125,0.121094 0.01172,0.01563 0.367188,0.492188 0.367188,0.492188 1.445312,1.742187 3.601562,2.832031 6.03125,2.832031 4.355468,0 7.863281,-3.539063 7.878906,-7.878906 0,-2.429688 -1.105469,-4.585938 -2.832031,-6.03125 0,0 -41.699219,-33.269532 -42.960938,-32.007813 z"
       id="path2-6" />
  </g>
  <g
     id="surface1-7"
     transform="matrix(0.34578973,0,0,0.34578973,21.2447,6.2146558)"
     style="fill:#808080">
    <path
       style="fill:#808080;fill-opacity:1;fill-rule:nonzero;stroke:none;stroke-width:1.24678"
       d="m 70.869734,19.973516 c -0.20942,0.03896 -0.418842,0.09741 -0.613652,0.155848 -1.840956,0.326306 -3.316642,1.670496 -3.83776,3.45301 -0.516247,1.801993 0.01949,3.720873 1.383152,4.987139 l 6.292368,6.292368 H 46.007088 c -2.186743,-8.45963 -9.730766,-14.732517 -18.881973,-14.732517 -10.855796,0 -19.6466053,8.785938 -19.6466053,19.646603 0,10.860667 8.7908093,19.646605 19.6466053,19.646605 9.151207,0 16.69523,-6.272887 18.881973,-14.737389 h 28.086754 l -6.292368,6.292368 c -1.957842,1.957843 -1.957842,5.104026 0,7.061869 1.957842,1.957841 5.104026,1.957841 7.061868,0 L 89.59586,43.306901 c 0.95944,-0.920478 1.495167,-2.206225 1.495167,-3.530934 0,-1.324709 -0.535727,-2.610456 -1.495167,-3.530934 L 74.863342,21.512516 c -1.017883,-1.095808 -2.49844,-1.651016 -3.993608,-1.539 z"
       id="path2-5"
       sodipodi:nodetypes="ccccccsssccssscsccc" />
  </g>
</svg>
