<?xml version="1.0" encoding="UTF-8" standalone="no"?>
<svg
   xmlns:dc="http://purl.org/dc/elements/1.1/"
   xmlns:cc="http://creativecommons.org/ns#"
   xmlns:rdf="http://www.w3.org/1999/02/22-rdf-syntax-ns#"
   xmlns:svg="http://www.w3.org/2000/svg"
   xmlns="http://www.w3.org/2000/svg"
   xmlns:sodipodi="http://sodipodi.sourceforge.net/DTD/sodipodi-0.dtd"
   xmlns:inkscape="http://www.inkscape.org/namespaces/inkscape"
   version="1.1"
   x="0px"
   y="0px"
   viewBox="0 0 26 26"
   style="enable-background:new 0 0 26 26;"
   xml:space="preserve"
   width="416px"
   height="416px"
   id="svg827"
   sodipodi:docname="icons8_skim.svg"
   inkscape:version="1.0.1 (3bc2e813f5, 2020-09-07)"><metadata
     id="metadata833"><rdf:RDF><cc:Work
         rdf:about=""><dc:format>image/svg+xml</dc:format><dc:type
           rdf:resource="http://purl.org/dc/dcmitype/StillImage" /><dc:title></dc:title></cc:Work></rdf:RDF></metadata><defs
     id="defs831" /><sodipodi:namedview
     pagecolor="#ffffff"
     bordercolor="#666666"
     borderopacity="1"
     objecttolerance="10"
     gridtolerance="10"
     guidetolerance="10"
     inkscape:pageopacity="0"
     inkscape:pageshadow="2"
     inkscape:window-width="1920"
     inkscape:window-height="995"
     id="namedview829"
     showgrid="false"
     inkscape:zoom="0.53725962"
     inkscape:cx="238.86437"
     inkscape:cy="262.85147"
     inkscape:window-x="0"
     inkscape:window-y="0"
     inkscape:window-maximized="1"
     inkscape:current-layer="svg827"
     inkscape:document-rotation="0" /><path
     d="m 19.139988,13.793292 -5.15502,-5.263118 c -0.230006,-0.23481 -0.227604,-0.611948 0.0048,-0.844356 l 0.922427,-0.922427 c 0.234811,-0.234811 0.616152,-0.23421 0.850963,0.0012 l 6.56088,6.604119 C 22.441147,13.485816 22.5,13.639554 22.5,13.793292 c 0,0.153737 -0.05885,0.307475 -0.175958,0.42458 l -6.56088,6.604119 c -0.23421,0.236012 -0.615552,0.236613 -0.850963,0.0012 l -0.922427,-0.922427 c -0.232408,-0.232409 -0.23481,-0.609547 -0.0048,-0.844357 z"
     id="path825"
     style="fill:#808080;stroke-width:0.600538" /><path
     d="M 7.2048163,13.774017 12.359837,8.5109 c 0.230006,-0.235411 0.228204,-0.611949 -0.0048,-0.844357 L 11.432606,6.744116 c -0.234811,-0.23481 -0.616153,-0.23421 -0.850963,0.0012 l -6.5608803,6.604119 c -0.117105,0.117105 -0.1759577,0.270843 -0.1759577,0.424581 0,0.153738 0.058853,0.307475 0.1759577,0.42458 l 6.5608803,6.60412 c 0.23421,0.236011 0.615552,0.236612 0.850963,0.0012 l 0.922426,-0.922427 c 0.232409,-0.232408 0.234811,-0.609546 0.0048,-0.844357 z"
     id="path825-3"
     style="fill:#808080;stroke-width:0.600538" /><path
     fill="#000000"
     d="m 2.7026706,20.876769 c 0,0.551 -0.178715,1 -0.398029,1 h -1.194088 c -0.21931404,0 -0.39802904,-0.449 -0.39802904,-1 V 6.8767686 c 0,-0.551 0.178715,-1 0.39802904,-1 h 1.194088 c 0.219314,0 0.398029,0.449 0.398029,1 z"
     id="path2"
     style="fill:#808080;fill-opacity:1;stroke-width:0.630892" /><path
     fill="#000000"
     d="m 25.33489,20.81914 c 0,0.551 -0.178715,1 -0.398029,1 h -1.194088 c -0.219314,0 -0.398029,-0.449 -0.398029,-1 V 6.8191387 c 0,-0.551 0.178715,-1 0.398029,-1 h 1.194088 c 0.219314,0 0.398029,0.449 0.398029,1 z"
     id="path2-6"
     style="fill:#808080;fill-opacity:1;stroke-width:0.630894" /></svg>
