<?xml version="1.0" encoding="utf-8"?>
<!-- Generator: Adobe Illustrator 15.0.0, SVG Export Plug-In . SVG Version: 6.00 Build 0)  -->
<!DOCTYPE svg PUBLIC "-//W3C//DTD SVG 1.1//EN" "http://www.w3.org/Graphics/SVG/1.1/DTD/svg11.dtd">
<svg xmlns="http://www.w3.org/2000/svg" xmlns:xlink="http://www.w3.org/1999/xlink" version="1.1" id="Layer_1" x="0px" y="0px" width="416px" height="416px" viewBox="0 0 26 26" enable-background="new 0 0 26 26" xml:space="preserve">

<path fill="#808080" d="M23,5H3C1.344,5,0,6.344,0,8v14c0,1.656,1.344,3,3,3h20c1.656,0,3-1.344,3-3V8C26,6.344,24.656,5,23,5z   M24,22c0,0.552-0.448,1-1,1H3c-0.552,0-1-0.448-1-1V8c0-0.552,0.448-1,1-1h20c0.552,0,1,0.448,1,1V22z"/>
<path fill="#808080" d="M8,2H3C1.344,2,0,3.344,0,5v4c0,0,0.302-3,3-3h8V5C11,3.344,9.656,2,8,2z"/>
</svg>
