<?xml version="1.0" encoding="UTF-8" standalone="no"?>
<!-- Generator: Adobe Illustrator 15.0.0, SVG Export Plug-In . SVG Version: 6.00 Build 0)  -->

<svg
   xmlns:dc="http://purl.org/dc/elements/1.1/"
   xmlns:cc="http://creativecommons.org/ns#"
   xmlns:rdf="http://www.w3.org/1999/02/22-rdf-syntax-ns#"
   xmlns:svg="http://www.w3.org/2000/svg"
   xmlns="http://www.w3.org/2000/svg"
   xmlns:sodipodi="http://sodipodi.sourceforge.net/DTD/sodipodi-0.dtd"
   xmlns:inkscape="http://www.inkscape.org/namespaces/inkscape"
   version="1.1"
   id="Layer_1"
   x="0px"
   y="0px"
   width="416px"
   height="416px"
   viewBox="0 0 26 26"
   enable-background="new 0 0 26 26"
   xml:space="preserve"
   sodipodi:docname="icons8_rewind.svg"
   inkscape:version="0.92.2 (5c3e80d, 2017-08-06)"><metadata
     id="metadata846"><rdf:RDF><cc:Work
         rdf:about=""><dc:format>image/svg+xml</dc:format><dc:type
           rdf:resource="http://purl.org/dc/dcmitype/StillImage" /></cc:Work></rdf:RDF></metadata><defs
     id="defs844" /><sodipodi:namedview
     pagecolor="#ffffff"
     bordercolor="#666666"
     borderopacity="1"
     objecttolerance="10"
     gridtolerance="10"
     guidetolerance="10"
     inkscape:pageopacity="0"
     inkscape:pageshadow="2"
     inkscape:window-width="737"
     inkscape:window-height="480"
     id="namedview842"
     showgrid="false"
     inkscape:zoom="0.56730769"
     inkscape:cx="208"
     inkscape:cy="208"
     inkscape:window-x="0"
     inkscape:window-y="0"
     inkscape:window-maximized="0"
     inkscape:current-layer="Layer_1" /><path
     fill="#000000"
     d="M11.792,14.143l8.306,6.598c0.403,0.203,0.885,0.181,1.269-0.052c0.386-0.232,0.619-0.646,0.619-1.09V6.4  c0-0.443-0.233-0.856-0.619-1.089c-0.208-0.126-0.444-0.19-0.683-0.19c-0.201,0-0.401,0.046-0.586,0.138l-8.306,6.599  c-0.4,0.376-0.716,0.658-0.716,1.143S11.344,13.747,11.792,14.143z"
     id="path837"
     style="fill:#808080;fill-opacity:1" /><path
     fill="#000000"
     d="M3.792,14.143l8.306,6.598c0.403,0.203,0.885,0.181,1.269-0.052c0.386-0.232,0.619-0.646,0.619-1.09V6.4  c0-0.443-0.233-0.856-0.619-1.089c-0.208-0.126-0.444-0.19-0.683-0.19c-0.201,0-0.401,0.046-0.586,0.138l-8.306,6.599  c-0.4,0.376-0.716,0.658-0.716,1.143S3.344,13.747,3.792,14.143z"
     id="path839"
     style="fill:#808080;fill-opacity:1" /></svg>