<?xml version="1.0" encoding="UTF-8" standalone="no"?>
<!-- Generator: Adobe Illustrator 17.1.0, SVG Export Plug-In . SVG Version: 6.00 Build 0)  -->

<svg
   xmlns:dc="http://purl.org/dc/elements/1.1/"
   xmlns:cc="http://creativecommons.org/ns#"
   xmlns:rdf="http://www.w3.org/1999/02/22-rdf-syntax-ns#"
   xmlns:svg="http://www.w3.org/2000/svg"
   xmlns="http://www.w3.org/2000/svg"
   xmlns:sodipodi="http://sodipodi.sourceforge.net/DTD/sodipodi-0.dtd"
   xmlns:inkscape="http://www.inkscape.org/namespaces/inkscape"
   version="1.1"
   id="Layer_1"
   x="0px"
   y="0px"
   viewBox="0 0 26 26"
   enable-background="new 0 0 26 26"
   xml:space="preserve"
   width="416px"
   height="416px"
   sodipodi:docname="icons8-sunrise.svg"
   inkscape:version="0.92.2 (5c3e80d, 2017-08-06)"><metadata
     id="metadata1511"><rdf:RDF><cc:Work
         rdf:about=""><dc:format>image/svg+xml</dc:format><dc:type
           rdf:resource="http://purl.org/dc/dcmitype/StillImage" /></cc:Work></rdf:RDF></metadata><defs
     id="defs1509" /><sodipodi:namedview
     pagecolor="#ffffff"
     bordercolor="#666666"
     borderopacity="1"
     objecttolerance="10"
     gridtolerance="10"
     guidetolerance="10"
     inkscape:pageopacity="0"
     inkscape:pageshadow="2"
     inkscape:window-width="737"
     inkscape:window-height="480"
     id="namedview1507"
     showgrid="false"
     inkscape:zoom="0.40114712"
     inkscape:cx="208.5194"
     inkscape:cy="247.42751"
     inkscape:window-x="0"
     inkscape:window-y="0"
     inkscape:window-maximized="0"
     inkscape:current-layer="Layer_1" /><line
     fill="none"
     stroke="#000000"
     stroke-width="2"
     stroke-miterlimit="10"
     x1="26"
     y1="25"
     x2="0"
     y2="25"
     id="line1484" /><line
     fill="none"
     stroke="#000000"
     stroke-width="2"
     stroke-miterlimit="10"
     x1="26"
     y1="25"
     x2="0"
     y2="25"
     id="line1486" /><line
     fill="none"
     stroke="#000000"
     stroke-width="2"
     stroke-miterlimit="10"
     x1="26"
     y1="25"
     x2="0"
     y2="25"
     id="line1488"
     style="stroke:#808080;stroke-opacity:1" /><g
     id="g1492"
     style="stroke:#808080;stroke-opacity:1"><path
       fill="none"
       stroke="#000000"
       stroke-width="2"
       stroke-linecap="round"
       stroke-linejoin="round"
       stroke-miterlimit="10"
       d="   M19,25c0-3.3-2.7-6-6-6l0,0c-3.3,0-6,2.7-6,6"
       id="path1490"
       style="stroke:#808080;stroke-opacity:1" /></g><line
     fill="none"
     stroke="#000000"
     stroke-width="2"
     stroke-linecap="round"
     stroke-linejoin="round"
     stroke-miterlimit="10"
     x1="13"
     y1="13"
     x2="13"
     y2="16"
     id="line1494"
     style="stroke:#808080;stroke-opacity:1" /><line
     fill="none"
     stroke="#000000"
     stroke-width="2"
     stroke-linecap="round"
     stroke-linejoin="round"
     stroke-miterlimit="10"
     x1="2.6"
     y1="19"
     x2="5.2"
     y2="20.5"
     id="line1496"
     style="stroke:#808080;stroke-opacity:1" /><line
     fill="none"
     stroke="#000000"
     stroke-width="2"
     stroke-linecap="round"
     stroke-linejoin="round"
     stroke-miterlimit="10"
     x1="19"
     y1="14.6"
     x2="17.5"
     y2="17.2"
     id="line1498"
     style="stroke:#808080;stroke-opacity:1" /><line
     fill="none"
     stroke="#000000"
     stroke-width="2"
     stroke-linecap="round"
     stroke-linejoin="round"
     stroke-miterlimit="10"
     x1="20.8"
     y1="20.5"
     x2="23.4"
     y2="19"
     id="line1500"
     style="stroke:#808080;stroke-opacity:1" /><line
     fill="none"
     stroke="#000000"
     stroke-width="2"
     stroke-linecap="round"
     stroke-linejoin="round"
     stroke-miterlimit="10"
     x1="7"
     y1="14.6"
     x2="8.5"
     y2="17.2"
     id="line1502"
     style="stroke:#808080;stroke-opacity:1" /><path
     fill="#000000"
     d="M12.7,0.2C12.8,0.1,12.9,0,13,0c0.1,0,0.2,0,0.3,0.1c0.1,0.1,2.2,2,3.6,4c0.1,0.2,0.1,0.4,0,0.5  C16.8,4.9,16.7,5,16.5,5h-1.8c0,0-0.2,4.4-0.4,4.5C14.1,9.8,13.5,10,13,10c-0.5,0-1.1-0.2-1.2-0.4C11.6,9.3,11.3,5,11.3,5H9.6  C9.4,5,9.2,4.9,9.1,4.7C9,4.5,9,4.3,9.1,4.2C10.5,2.2,12.6,0.2,12.7,0.2z"
     id="path1504"
     style="fill:#808080" /></svg>