<?xml version="1.0" encoding="UTF-8" standalone="no"?>
<svg
   xmlns:dc="http://purl.org/dc/elements/1.1/"
   xmlns:cc="http://creativecommons.org/ns#"
   xmlns:rdf="http://www.w3.org/1999/02/22-rdf-syntax-ns#"
   xmlns:svg="http://www.w3.org/2000/svg"
   xmlns="http://www.w3.org/2000/svg"
   xmlns:sodipodi="http://sodipodi.sourceforge.net/DTD/sodipodi-0.dtd"
   xmlns:inkscape="http://www.inkscape.org/namespaces/inkscape"
   version="1.1"
   id="Layer_1"
   x="0px"
   y="0px"
   width="416px"
   height="416px"
   viewBox="0 0 26 26"
   enable-background="new 0 0 26 26"
   xml:space="preserve"
   sodipodi:docname="icons8_sun_auto.svg"
   inkscape:version="1.0.1 (3bc2e813f5, 2020-09-07)"><metadata
     id="metadata4955"><rdf:RDF><cc:Work
         rdf:about=""><dc:format>image/svg+xml</dc:format><dc:type
           rdf:resource="http://purl.org/dc/dcmitype/StillImage" /><dc:title></dc:title></cc:Work></rdf:RDF></metadata><defs
     id="defs4953" /><sodipodi:namedview
     pagecolor="#ffffff"
     bordercolor="#666666"
     borderopacity="1"
     objecttolerance="10"
     gridtolerance="10"
     guidetolerance="10"
     inkscape:pageopacity="0"
     inkscape:pageshadow="2"
     inkscape:window-width="1920"
     inkscape:window-height="995"
     id="namedview4951"
     showgrid="false"
     inkscape:zoom="0.56730769"
     inkscape:cx="-95.186442"
     inkscape:cy="208"
     inkscape:window-x="0"
     inkscape:window-y="0"
     inkscape:window-maximized="1"
     inkscape:current-layer="Layer_1"
     inkscape:document-rotation="0" /><g
     id="g4924"
     style="fill:#808080"><path
       fill="#000000"
       d="M13,8c2.757,0,5,2.243,5,5s-2.243,5-5,5s-5-2.243-5-5S10.243,8,13,8 M13,6c-3.866,0-7,3.134-7,7   s3.134,7,7,7s7-3.134,7-7S16.866,6,13,6L13,6z"
       id="path4922"
       style="fill:#808080" /></g><line
     fill="none"
     stroke="#000000"
     stroke-width="2"
     stroke-linecap="round"
     stroke-linejoin="round"
     stroke-miterlimit="10"
     x1="13"
     y1="1"
     x2="13"
     y2="4"
     id="line4926"
     style="fill:#999999;stroke:#808080;stroke-opacity:1" /><line
     fill="none"
     stroke="#000000"
     stroke-width="2"
     stroke-linecap="round"
     stroke-linejoin="round"
     stroke-miterlimit="10"
     x1="13"
     y1="22"
     x2="13"
     y2="25"
     id="line4928"
     style="fill:#999999;stroke:#808080;stroke-opacity:1" /><line
     fill="none"
     stroke="#000000"
     stroke-width="2"
     stroke-linecap="round"
     stroke-linejoin="round"
     stroke-miterlimit="10"
     x1="25"
     y1="13"
     x2="22"
     y2="13"
     id="line4930"
     style="fill:#999999;stroke:#808080;stroke-opacity:1" /><line
     fill="none"
     stroke="#000000"
     stroke-width="2"
     stroke-linecap="round"
     stroke-linejoin="round"
     stroke-miterlimit="10"
     x1="4"
     y1="13"
     x2="1"
     y2="13"
     id="line4932"
     style="fill:#999999;stroke:#808080;stroke-opacity:1" /><line
     fill="none"
     stroke="#000000"
     stroke-width="2"
     stroke-linecap="round"
     stroke-linejoin="round"
     stroke-miterlimit="10"
     x1="2.608"
     y1="7"
     x2="5.206"
     y2="8.5"
     id="line4934"
     style="fill:#999999;stroke:#808080;stroke-opacity:1" /><line
     fill="none"
     stroke="#000000"
     stroke-width="2"
     stroke-linecap="round"
     stroke-linejoin="round"
     stroke-miterlimit="10"
     x1="20.794"
     y1="17.5"
     x2="23.393"
     y2="19"
     id="line4936"
     style="fill:#999999;stroke:#808080;stroke-opacity:1" /><line
     fill="none"
     stroke="#000000"
     stroke-width="2"
     stroke-linecap="round"
     stroke-linejoin="round"
     stroke-miterlimit="10"
     x1="19"
     y1="2.607"
     x2="17.5"
     y2="5.205"
     id="line4938"
     style="fill:#999999;stroke:#808080;stroke-opacity:1" /><line
     fill="none"
     stroke="#000000"
     stroke-width="2"
     stroke-linecap="round"
     stroke-linejoin="round"
     stroke-miterlimit="10"
     x1="8.5"
     y1="20.794"
     x2="7"
     y2="23.393"
     id="line4940"
     style="fill:#999999;stroke:#808080;stroke-opacity:1" /><line
     fill="none"
     stroke="#000000"
     stroke-width="2"
     stroke-linecap="round"
     stroke-linejoin="round"
     stroke-miterlimit="10"
     x1="2.608"
     y1="18.999"
     x2="5.206"
     y2="17.5"
     id="line4942"
     style="fill:#999999;stroke:#808080;stroke-opacity:1" /><line
     fill="none"
     stroke="#000000"
     stroke-width="2"
     stroke-linecap="round"
     stroke-linejoin="round"
     stroke-miterlimit="10"
     x1="20.794"
     y1="8.5"
     x2="23.393"
     y2="7"
     id="line4944"
     style="fill:#999999;stroke:#808080;stroke-opacity:1" /><line
     fill="none"
     stroke="#000000"
     stroke-width="2"
     stroke-linecap="round"
     stroke-linejoin="round"
     stroke-miterlimit="10"
     x1="7"
     y1="2.607"
     x2="8.499"
     y2="5.205"
     id="line4946"
     style="fill:#999999;stroke:#808080;stroke-opacity:1" /><line
     fill="none"
     stroke="#000000"
     stroke-width="2"
     stroke-linecap="round"
     stroke-linejoin="round"
     stroke-miterlimit="10"
     x1="17.5"
     y1="20.794"
     x2="19.001"
     y2="23.393"
     id="line4948"
     style="fill:#999999;stroke:#808080;stroke-opacity:1" /><path
     style="fill:#808080;fill-opacity:1;fill-rule:nonzero;stroke:none;stroke-width:0.341866"
     d="m 12.272648,9.8171357 c -0.137315,0 -0.203226,0.038961 -0.237555,0.071428 -0.0357,0.033766 -0.07416,0.098701 -0.108478,0.1636353 l -1.763124,5.402579 c -0.0357,0.0987 -0.0357,0.161038 0,0.194805 0.03433,0 0.07141,0.03117 0.140062,0.03117 h 1.006518 c 0.06866,0 0.135942,-0.02858 0.204599,-0.06234 0.0357,-0.03247 0.108478,-0.105195 0.108478,-0.203895 l 0.31445,-1.044152 h 1.849631 l 0.292481,1.044152 c 0.03433,0.0987 0.06179,0.171428 0.09749,0.203895 0.03433,0.03376 0.111228,0.06234 0.215585,0.06234 h 1.136967 c 0.06866,0 0.10711,-0.02858 0.10711,-0.06234 0.0357,-0.03247 0.0357,-0.06493 0,-0.163636 l -1.838649,-5.371409 c -0.0357,-0.098701 -0.06179,-0.1285703 -0.09749,-0.1948039 -0.0357,-0.032467 -0.144181,-0.071428 -0.24854,-0.071428 z m 0.594574,1.4116833 h 0.03295 l 0.605558,2.159733 h -1.277029 z"
     id="path158"
     sodipodi:nodetypes="sscccssccccccssccccssccccc" /></svg>
