<?xml version="1.0" encoding="UTF-8" standalone="no"?>
<!-- Generator: Adobe Illustrator 15.0.0, SVG Export Plug-In . SVG Version: 6.00 Build 0)  -->

<svg
   xmlns:dc="http://purl.org/dc/elements/1.1/"
   xmlns:cc="http://creativecommons.org/ns#"
   xmlns:rdf="http://www.w3.org/1999/02/22-rdf-syntax-ns#"
   xmlns:svg="http://www.w3.org/2000/svg"
   xmlns="http://www.w3.org/2000/svg"
   xmlns:sodipodi="http://sodipodi.sourceforge.net/DTD/sodipodi-0.dtd"
   xmlns:inkscape="http://www.inkscape.org/namespaces/inkscape"
   version="1.1"
   id="Layer_1"
   x="0px"
   y="0px"
   width="416px"
   height="416px"
   viewBox="0 0 26 26"
   enable-background="new 0 0 26 26"
   xml:space="preserve"
   sodipodi:docname="icons8_volume_up_key_long.svg"
   inkscape:version="0.92.2 (5c3e80d, 2017-08-06)"><metadata
     id="metadata1479"><rdf:RDF><cc:Work
         rdf:about=""><dc:format>image/svg+xml</dc:format><dc:type
           rdf:resource="http://purl.org/dc/dcmitype/StillImage" /><dc:title></dc:title></cc:Work></rdf:RDF></metadata><defs
     id="defs1477" /><sodipodi:namedview
     pagecolor="#ffffff"
     bordercolor="#666666"
     borderopacity="1"
     objecttolerance="10"
     gridtolerance="10"
     guidetolerance="10"
     inkscape:pageopacity="0"
     inkscape:pageshadow="2"
     inkscape:window-width="737"
     inkscape:window-height="480"
     id="namedview1475"
     showgrid="false"
     inkscape:zoom="0.56730769"
     inkscape:cx="349.14465"
     inkscape:cy="41.648424"
     inkscape:window-x="0"
     inkscape:window-y="0"
     inkscape:window-maximized="1"
     inkscape:current-layer="Layer_1" /><path
     d="m 6.7777523,13.250226 c 0,0.421437 -0.3381345,0.764857 -0.7530836,0.764857 H 0.75308359 C 0.33813453,14.015083 0,13.671663 0,13.250226 V 7.13137 C 0,6.7099337 0.33813453,6.3665129 0.75308359,6.3665129 H 6.0246687 c 0.4149491,0 0.7530836,0.3434208 0.7530836,0.7648571 z"
     id="path1466"
     style="fill:#808080;stroke-width:0.75894749"
     inkscape:connector-curvature="0" /><path
     d="M 3.252568,13.15309 C 3.1147537,13.033007 3.0123343,12.738537 3.0123343,12.484604 V 7.8969919 c 0,-0.2539326 0.1024194,-0.5537565 0.2402337,-0.6738391 L 8.3042527,1.4217121 C 8.9549169,0.76164047 9.7900866,1.0125136 9.7900866,1.9808226 V 18.257745 c 0,1.042501 -0.7560959,1.437167 -1.5091795,0.67231 z"
     id="path1468"
     style="fill:#808080;stroke-width:0.75894749"
     inkscape:connector-curvature="0" /><path
     style="fill:#808080;stroke-width:0.42452729"
     inkscape:connector-curvature="0"
     d="m 18.663841,9.6398418 c 0.174881,0 0.40767,-0.14098 0.465963,-0.3524499 0.0583,-0.21147 0,-0.42294 -0.116586,-0.6344099 -1.282069,-2.2556798 -3.72962,-4.5113603 -3.72962,-4.5113603 0,0 -0.116586,-0.14098 -0.347842,-0.14098 -0.234707,0 -0.351294,0.14098 -0.351294,0.14098 0,0 -2.447552,2.2556805 -3.72962,4.5113603 -0.116586,0.2114699 -0.17488,0.4229399 -0.116586,0.6344099 0.05868,0.2114699 0.291466,0.3524499 0.466345,0.3524499 z"
     id="path2051-9" /><ellipse
     cx="20.406265"
     cy="22.247902"
     id="circle828-7"
     style="fill:#808080;stroke-width:0.39189434"
     rx="2.3464022"
     ry="2.3563411" /><path
     inkscape:connector-curvature="0"
     style="fill:none;stroke:#808080;stroke-width:1.87091148;stroke-linecap:round;stroke-linejoin:round;stroke-miterlimit:10;stroke-dasharray:none;stroke-opacity:1"
     d="m 23.905382,20.867484 c -0.327843,-1.619985 -1.780582,-2.841356 -3.524027,-2.841356 -1.743445,0 -3.196182,1.221371 -3.524025,2.841356"
     id="path832-9" /></svg>