<?xml version="1.0" encoding="UTF-8" standalone="no"?>
<svg
   version="1.1"
   id="Capa_1"
   x="0px"
   y="0px"
   viewBox="0 0 286.374 286.374"
   style="enable-background:new 0 0 286.374 286.374;"
   xml:space="preserve"
   sodipodi:docname="icons8_save_ell.svg"
   inkscape:version="1.1.2 (0a00cf5339, 2022-02-04)"
   xmlns:inkscape="http://www.inkscape.org/namespaces/inkscape"
   xmlns:sodipodi="http://sodipodi.sourceforge.net/DTD/sodipodi-0.dtd"
   xmlns="http://www.w3.org/2000/svg"
   xmlns:svg="http://www.w3.org/2000/svg"
   xmlns:rdf="http://www.w3.org/1999/02/22-rdf-syntax-ns#"
   xmlns:cc="http://creativecommons.org/ns#"
   xmlns:dc="http://purl.org/dc/elements/1.1/"><metadata
   id="metadata40"><rdf:RDF><cc:Work
       rdf:about=""><dc:format>image/svg+xml</dc:format><dc:type
         rdf:resource="http://purl.org/dc/dcmitype/StillImage" /></cc:Work></rdf:RDF></metadata><defs
   id="defs38" /><sodipodi:namedview
   pagecolor="#ffffff"
   bordercolor="#666666"
   borderopacity="1"
   objecttolerance="10"
   gridtolerance="10"
   guidetolerance="10"
   inkscape:pageopacity="0"
   inkscape:pageshadow="2"
   inkscape:window-width="1846"
   inkscape:window-height="989"
   id="namedview36"
   showgrid="false"
   inkscape:zoom="2.0987966"
   inkscape:cx="161.2829"
   inkscape:cy="179.15028"
   inkscape:window-x="0"
   inkscape:window-y="0"
   inkscape:window-maximized="1"
   inkscape:current-layer="Capa_1"
   inkscape:document-rotation="0"
   inkscape:pagecheckerboard="0" />

<g
   id="g5"
   style="fill:#808080"
   transform="matrix(2.0391055,0,0,2.0391055,-342.7901,-355.01112)">
</g>
<g
   id="g7"
   style="fill:#808080"
   transform="matrix(2.0391055,0,0,2.0391055,-342.7901,-355.01112)">
</g>
<g
   id="g9"
   style="fill:#808080"
   transform="matrix(2.0391055,0,0,2.0391055,-342.7901,-355.01112)">
</g>
<g
   id="g11"
   style="fill:#808080"
   transform="matrix(2.0391055,0,0,2.0391055,-342.7901,-355.01112)">
</g>
<g
   id="g13"
   style="fill:#808080"
   transform="matrix(2.0391055,0,0,2.0391055,-342.7901,-355.01112)">
</g>
<g
   id="g15"
   style="fill:#808080"
   transform="matrix(2.0391055,0,0,2.0391055,-342.7901,-355.01112)">
</g>
<g
   id="g17"
   style="fill:#808080"
   transform="matrix(2.0391055,0,0,2.0391055,-342.7901,-355.01112)">
</g>
<g
   id="g19"
   style="fill:#808080"
   transform="matrix(2.0391055,0,0,2.0391055,-342.7901,-355.01112)">
</g>
<g
   id="g21"
   style="fill:#808080"
   transform="matrix(2.0391055,0,0,2.0391055,-342.7901,-355.01112)">
</g>
<g
   id="g23"
   style="fill:#808080"
   transform="matrix(2.0391055,0,0,2.0391055,-342.7901,-355.01112)">
</g>
<g
   id="g25"
   style="fill:#808080"
   transform="matrix(2.0391055,0,0,2.0391055,-342.7901,-355.01112)">
</g>
<g
   id="g27"
   style="fill:#808080"
   transform="matrix(2.0391055,0,0,2.0391055,-342.7901,-355.01112)">
</g>
<g
   id="g29"
   style="fill:#808080"
   transform="matrix(2.0391055,0,0,2.0391055,-342.7901,-355.01112)">
</g>
<g
   id="g31"
   style="fill:#808080"
   transform="matrix(2.0391055,0,0,2.0391055,-342.7901,-355.01112)">
</g>
<g
   id="g33"
   style="fill:#808080"
   transform="matrix(2.0391055,0,0,2.0391055,-342.7901,-355.01112)">
</g>
<path
   style="fill:#808080;fill-opacity:1;stroke-width:7.27961"
   inkscape:connector-curvature="0"
   d="M 139.01654,72.898718 H 117.09101 V 22.142763 h 21.92553 z M 197.48463,51.146162 V 174.41062 c 0,12.01464 -9.82264,21.75255 -21.92553,21.75255 H 29.38891 c -12.102878,0 -21.9255162,-9.73791 -21.9255162,-21.75255 V 29.393608 c 0,-12.014641 9.8226382,-21.752535 21.9255162,-21.752535 h 124.24463 c 6.05149,0 9.39147,0.311754 26.46415,17.249776 17.07266,16.937986 17.38694,20.25161 17.38694,26.255313 z M 44.005932,72.898718 c 0,3.995228 3.281512,7.250842 7.308493,7.250842 h 95.010605 c 4.02699,0 7.30851,-3.255614 7.30851,-7.250842 V 22.142763 c 0,-3.995228 -3.28152,-7.250845 -7.30851,-7.250845 H 51.314425 c -4.026981,0 -7.308493,3.255617 -7.308493,7.250845 z M 175.5591,109.15296 c 0,-3.99521 -3.28154,-7.25085 -7.30852,-7.25085 H 36.697421 c -4.026981,0 -7.308511,3.25562 -7.308511,7.25085 v 72.50847 c 0,3.99526 3.28153,7.25088 7.308511,7.25088 H 168.25058 c 4.02698,0 7.30852,-3.25562 7.30852,-7.25088 z"
   id="path2-0" /><ellipse
   cx="113.34046"
   cy="245.53775"
   id="circle828-8"
   style="fill:#808080;stroke-width:5.12571"
   rx="29.795029"
   ry="31.744436" /><ellipse
   cx="183.84892"
   cy="247.30048"
   id="circle828-8-3"
   style="fill:#808080;stroke-width:5.12571"
   rx="29.795029"
   ry="31.744436" /><ellipse
   cx="252.59468"
   cy="247.30048"
   id="circle828-8-6"
   style="fill:#808080;stroke-width:5.12571"
   rx="29.795029"
   ry="31.744436" /></svg>
