<?xml version="1.0" encoding="UTF-8" standalone="no"?>
<!-- Generator: Adobe Illustrator 17.1.0, SVG Export Plug-In . SVG Version: 6.00 Build 0)  -->

<svg
   xmlns:dc="http://purl.org/dc/elements/1.1/"
   xmlns:cc="http://creativecommons.org/ns#"
   xmlns:rdf="http://www.w3.org/1999/02/22-rdf-syntax-ns#"
   xmlns:svg="http://www.w3.org/2000/svg"
   xmlns="http://www.w3.org/2000/svg"
   xmlns:sodipodi="http://sodipodi.sourceforge.net/DTD/sodipodi-0.dtd"
   xmlns:inkscape="http://www.inkscape.org/namespaces/inkscape"
   version="1.1"
   id="Layer_1"
   x="0px"
   y="0px"
   width="416px"
   height="416px"
   viewBox="0 0 26 26"
   style="enable-background:new 0 0 26 26;"
   xml:space="preserve"
   sodipodi:docname="icons8_me_smb.svg"
   inkscape:version="0.92.2 (5c3e80d, 2017-08-06)"><metadata
     id="metadata2618"><rdf:RDF><cc:Work
         rdf:about=""><dc:format>image/svg+xml</dc:format><dc:type
           rdf:resource="http://purl.org/dc/dcmitype/StillImage" /><dc:title></dc:title></cc:Work></rdf:RDF></metadata><defs
     id="defs2616" /><sodipodi:namedview
     pagecolor="#ffffff"
     bordercolor="#666666"
     borderopacity="1"
     objecttolerance="10"
     gridtolerance="10"
     guidetolerance="10"
     inkscape:pageopacity="0"
     inkscape:pageshadow="2"
     inkscape:window-width="1778"
     inkscape:window-height="1061"
     id="namedview2614"
     showgrid="false"
     inkscape:zoom="0.56730769"
     inkscape:cx="459.80008"
     inkscape:cy="70.578802"
     inkscape:window-x="-4"
     inkscape:window-y="-4"
     inkscape:window-maximized="1"
     inkscape:current-layer="Layer_1" /><style
     type="text/css"
     id="style2607">
	.st0{fill:none;stroke:#000000;stroke-width:4;stroke-linejoin:round;stroke-miterlimit:10;}
</style><polygon
     class="st0"
     points="21,15 17,12 19,9 19,5 16,2 5,2 5,24 18,24 21,21 "
     id="polygon2609"
     transform="matrix(0.35105973,0,0,0.32365062,17.052863,16.10556)"
     style="fill:none;stroke:#808080;stroke-width:4;stroke-linejoin:round;stroke-miterlimit:10;stroke-opacity:1" /><line
     class="st0"
     x1="19.159222"
     y1="19.989367"
     x2="23.020878"
     y2="19.989367"
     id="line2611"
     style="fill:none;stroke:#808080;stroke-width:1.34830678;stroke-linejoin:round;stroke-miterlimit:10;stroke-opacity:1" /><polyline
     transform="matrix(0.35105973,0,0,0.32365062,8.5371913,16.13177)"
     class="st0"
     points="23,26 23,2 22,2 13,20 4,2 3,2 3,26 "
     id="polyline2042"
     style="fill:none;stroke:#808080;stroke-width:4;stroke-linejoin:round;stroke-miterlimit:10;stroke-opacity:1" /><polyline
     transform="matrix(0.35105973,0,0,0.32365062,0.16459939,16.145595)"
     class="st0"
     points="4,20 8,24 17,24 21,20 21,17 17,13 9,13 5,9 5,6 9,2 16,2 20,6 "
     id="polyline1477"
     style="fill:none;stroke:#808080;stroke-width:4;stroke-linejoin:round;stroke-miterlimit:10;stroke-opacity:1" /><polyline
     transform="matrix(0.38376752,0,0,0.33013107,12.720629,0.63770916)"
     class="st0"
     points="22,2 6,2 6,24 22,24 "
     id="polyline3782"
     style="fill:none;stroke:#808080;stroke-width:4;stroke-linejoin:round;stroke-miterlimit:10;stroke-opacity:1" /><line
     style="fill:none;stroke:#808080;stroke-width:1.25;stroke-linejoin:round;stroke-miterlimit:10;stroke-dasharray:none;stroke-opacity:1"
     class="st0"
     x1="19.628443"
     y1="4.9294128"
     x2="15.023234"
     y2="4.9294128"
     id="line3784" /><polyline
     transform="matrix(0.35105973,0,0,0.32365062,4.1898334,0.72668036)"
     class="st0"
     points="23,26 23,2 22,2 13,20 4,2 3,2 3,26 "
     id="polyline2042-1"
     style="fill:none;stroke:#808080;stroke-width:4;stroke-linejoin:round;stroke-miterlimit:10;stroke-opacity:1" /><path
     style="stroke-width:0.33258232;fill:#808080"
     d="m 14.126141,10.381804 0.383716,3.828129 h 1.208323 c 0.125856,0 0.220253,0.04612 0.314647,0.138367 0.03147,0.09224 0.03147,0.184487 -0.03146,0.25367 -0.881013,0.9455 -2.357551,1.84488 -2.420481,1.867941 -0.06063,0.02249 -0.150418,0.04382 -0.213347,0.04526 -0.0019,0 -0.0047,8.53e-4 -0.0065,8.53e-4 0,0 0,0 0,0 0,0 0,0 0,0 -0.06292,0 -0.157325,-0.02306 -0.188789,-0.04612 -0.06294,-0.02306 -1.54369,-0.899379 -2.424701,-1.867941 -0.06331,-0.09224 -0.09478,-0.184488 -0.03185,-0.253671 0.06293,-0.09224 0.157324,-0.138366 0.283183,-0.138366 h 1.208727 l 0.383717,-3.828129 c 0.122789,-0.115305 0.432063,-0.207549 0.769733,-0.207549 0.306973,0 0.642342,0.06918 0.76513,0.207549 z"
     id="path4412"
     inkscape:connector-curvature="0" /></svg>