<?xml version="1.0" encoding="UTF-8" standalone="no"?>
<!-- Generator: Adobe Illustrator 18.1.0, SVG Export Plug-In . SVG Version: 6.00 Build 0)  -->

<svg
   xmlns:dc="http://purl.org/dc/elements/1.1/"
   xmlns:cc="http://creativecommons.org/ns#"
   xmlns:rdf="http://www.w3.org/1999/02/22-rdf-syntax-ns#"
   xmlns:svg="http://www.w3.org/2000/svg"
   xmlns="http://www.w3.org/2000/svg"
   xmlns:sodipodi="http://sodipodi.sourceforge.net/DTD/sodipodi-0.dtd"
   xmlns:inkscape="http://www.inkscape.org/namespaces/inkscape"
   version="1.1"
   id="Layer_1"
   x="0px"
   y="0px"
   viewBox="0 0 26 26"
   enable-background="new 0 0 26 26"
   xml:space="preserve"
   width="416px"
   height="416px"
   sodipodi:docname="drk_icons8_ask_question.svg"
   inkscape:version="0.92.2 (5c3e80d, 2017-08-06)"><metadata
     id="metadata826"><rdf:RDF><cc:Work
         rdf:about=""><dc:format>image/svg+xml</dc:format><dc:type
           rdf:resource="http://purl.org/dc/dcmitype/StillImage" /></cc:Work></rdf:RDF></metadata><defs
     id="defs824" /><sodipodi:namedview
     pagecolor="#ffffff"
     bordercolor="#666666"
     borderopacity="1"
     objecttolerance="10"
     gridtolerance="10"
     guidetolerance="10"
     inkscape:pageopacity="0"
     inkscape:pageshadow="2"
     inkscape:window-width="1778"
     inkscape:window-height="1061"
     id="namedview822"
     showgrid="false"
     inkscape:zoom="0.26862981"
     inkscape:cx="81.961592"
     inkscape:cy="272.74804"
     inkscape:window-x="-4"
     inkscape:window-y="-4"
     inkscape:window-maximized="1"
     inkscape:current-layer="Layer_1" /><line
     fill="none"
     stroke="#000000"
     stroke-width="2"
     stroke-linejoin="round"
     stroke-miterlimit="10"
     x1="13"
     y1="18"
     x2="13"
     y2="16"
     id="line815"
     style="stroke:#808080;stroke-opacity:1" /><polyline
     fill="none"
     stroke="#000000"
     stroke-width="2"
     stroke-linejoin="round"
     stroke-miterlimit="10"
     points="13,15 13,13   16,11 16,8.6 14.5,6.9 11.3,6.9 9.8,8.3 "
     id="polyline817"
     style="stroke:#808080;stroke-opacity:1" /><path
     fill="none"
     stroke="#000000"
     stroke-width="2"
     stroke-linecap="round"
     stroke-linejoin="round"
     stroke-miterlimit="10"
     d="  M13,1C6.4,1,1,5.7,1,11.5c0,3,1.4,5.7,3.7,7.6C4.4,20.7,2.2,23,1,24c4.4,0,6.1-0.2,8.5-2.5c1.1,0.3,2.3,0.5,3.5,0.5  c6.6,0,12-4.7,12-10.5C25,5.7,19.6,1,13,1z"
     id="path819"
     style="stroke:#808080;stroke-opacity:1" /></svg>