<?xml version="1.0" encoding="UTF-8" standalone="no"?>
<!-- Generator: Adobe Illustrator 15.0.0, SVG Export Plug-In . SVG Version: 6.00 Build 0)  -->

<svg
   xmlns:dc="http://purl.org/dc/elements/1.1/"
   xmlns:cc="http://creativecommons.org/ns#"
   xmlns:rdf="http://www.w3.org/1999/02/22-rdf-syntax-ns#"
   xmlns:svg="http://www.w3.org/2000/svg"
   xmlns="http://www.w3.org/2000/svg"
   xmlns:sodipodi="http://sodipodi.sourceforge.net/DTD/sodipodi-0.dtd"
   xmlns:inkscape="http://www.inkscape.org/namespaces/inkscape"
   version="1.1"
   id="Layer_1"
   x="0px"
   y="0px"
   width="416px"
   height="416px"
   viewBox="0 0 26 26"
   enable-background="new 0 0 26 26"
   xml:space="preserve"
   sodipodi:docname="icons8-fast-forward-percent.svg"
   inkscape:version="0.92.2 (5c3e80d, 2017-08-06)"><metadata
     id="metadata65"><rdf:RDF><cc:Work
         rdf:about=""><dc:format>image/svg+xml</dc:format><dc:type
           rdf:resource="http://purl.org/dc/dcmitype/StillImage" /><dc:title></dc:title></cc:Work></rdf:RDF></metadata><defs
     id="defs63" /><sodipodi:namedview
     pagecolor="#ffffff"
     bordercolor="#666666"
     borderopacity="1"
     objecttolerance="10"
     gridtolerance="10"
     guidetolerance="10"
     inkscape:pageopacity="0"
     inkscape:pageshadow="2"
     inkscape:window-width="737"
     inkscape:window-height="480"
     id="namedview61"
     showgrid="false"
     inkscape:zoom="0.56730769"
     inkscape:cx="208"
     inkscape:cy="208"
     inkscape:window-x="431"
     inkscape:window-y="409"
     inkscape:window-maximized="0"
     inkscape:current-layer="Layer_1" /><path
     d="M 14.291503,16.454736 6.9049741,10.641824 c -0.358388,-0.178873 -0.7861415,-0.159488 -1.1276328,0.04582 -0.3432699,0.204426 -0.5504769,0.56922 -0.5504769,0.960448 v 11.62935 c 0,0.390347 0.207207,0.75426 0.5504769,0.959566 0.1849745,0.111025 0.3948493,0.167418 0.6073921,0.167418 0.1787494,0 0.3566094,-0.04053 0.52113,-0.121598 l 7.3865286,-5.814676 c 0.355721,-0.33131 0.636739,-0.579793 0.636739,-1.007148 0,-0.427355 -0.239221,-0.657334 -0.637628,-1.006268 z"
     id="path56"
     inkscape:connector-curvature="0"
     style="fill:#808080;stroke-width:0.8852132;fill-opacity:1" /><path
     d="m 21.405906,16.454736 -7.386529,-5.812912 c -0.358388,-0.178873 -0.787031,-0.159488 -1.128522,0.04582 -0.34327,0.204426 -0.550477,0.56922 -0.550477,0.960448 v 11.62935 c 0,0.390347 0.207207,0.75426 0.550477,0.959566 0.184975,0.111025 0.394849,0.167418 0.607392,0.167418 0.17875,0 0.35661,-0.04053 0.52113,-0.121598 l 7.386529,-5.814675 c 0.35572,-0.33131 0.636739,-0.579793 0.636739,-1.007148 0,-0.427355 -0.238333,-0.657334 -0.636739,-1.006268 z"
     id="path58"
     inkscape:connector-curvature="0"
     style="fill:#808080;stroke-width:0.8852132;fill-opacity:1" /><g
     id="g36"
     transform="matrix(0.47363465,0,0,0.37754237,6.4020716,0.60042376)"
     style="fill:#808080;fill-opacity:1"><path
       d="M 4,7 C 4,6.5 4.1,5.9 4.3,5.5 4.5,5.1 4.7,4.6 5.1,4.2 5.5,3.8 5.9,3.5 6.4,3.3 6.9,3.1 7.5,3 8.2,3 8.9,3 9.5,3.1 10,3.3 c 0.5,0.2 1,0.5 1.3,0.9 0.4,0.3 0.7,0.8 0.8,1.3 0.1,0.5 0.3,1 0.3,1.5 v 1 c 0,0.5 -0.1,1.1 -0.3,1.5 -0.2,0.4 -0.4,0.9 -0.8,1.3 -0.4,0.4 -0.8,0.6 -1.3,0.9 C 9.5,11.9 8.9,12 8.2,12 7.5,12 6.9,11.9 6.4,11.7 5.9,11.5 5.4,11.2 5.1,10.8 4.7,10.5 4.5,10 4.3,9.6 4.1,9.2 4,8.6 4,8 Z m 2.6,1 c 0,0.2 0,0.5 0.1,0.7 0,0.2 0.1,0.4 0.3,0.6 0.1,0.2 0.3,0.3 0.5,0.4 0.2,0.1 0.4,0.1 0.7,0.1 0.3,0 0.5,0 0.7,-0.1 C 9.1,9.6 9.3,9.5 9.4,9.3 9.5,9.1 9.6,8.9 9.7,8.7 9.8,8.5 9.8,8.3 9.8,8 V 7 C 9.8,6.8 9.8,6.5 9.7,6.3 9.7,6.1 9.6,5.9 9.4,5.8 9.3,5.6 9.1,5.5 8.9,5.4 8.7,5.3 8.5,5.2 8.2,5.2 7.9,5.2 7.7,5.2 7.5,5.3 7.3,5.5 7.1,5.6 7,5.8 6.8,5.9 6.7,6.1 6.7,6.3 6.6,6.5 6.6,6.8 6.6,7 Z m 2.5,13.3 -1.9,-1 9.5,-15.2 1.9,1 z M 13.6,18 c 0,-0.5 0.1,-1.1 0.3,-1.5 0.2,-0.5 0.5,-0.9 0.8,-1.3 0.4,-0.4 0.8,-0.6 1.3,-0.9 0.5,-0.3 1.1,-0.3 1.8,-0.3 0.7,0 1.3,0.1 1.8,0.3 0.5,0.2 1,0.5 1.3,0.9 0.4,0.4 0.6,0.8 0.8,1.3 0.2,0.5 0.3,1 0.3,1.5 v 1 c 0,0.5 -0.1,1.1 -0.3,1.5 -0.2,0.5 -0.4,0.9 -0.8,1.3 -0.4,0.4 -0.8,0.6 -1.3,0.9 C 19.1,22.9 18.5,23 17.8,23 17.1,23 16.5,22.9 16,22.7 15.5,22.5 15,22.2 14.7,21.8 14.3,21.4 14.1,21 13.9,20.5 13.7,20 13.6,19.5 13.6,19 Z m 2.5,1 c 0,0.2 0,0.5 0.1,0.7 0.1,0.2 0.2,0.4 0.3,0.6 0.1,0.2 0.3,0.3 0.5,0.4 0.2,0.1 0.4,0.1 0.7,0.1 0.3,0 0.6,0 0.8,-0.1 0.2,-0.1 0.4,-0.2 0.5,-0.4 0.1,-0.2 0.2,-0.4 0.3,-0.6 0.1,-0.2 0.1,-0.4 0.1,-0.7 v -1 c 0,-0.2 0,-0.5 -0.1,-0.7 -0.1,-0.2 -0.2,-0.4 -0.3,-0.6 -0.1,-0.2 -0.3,-0.3 -0.5,-0.4 -0.2,-0.1 -0.4,-0.1 -0.7,-0.1 -0.3,0 -0.5,0 -0.7,0.1 -0.2,0.1 -0.4,0.2 -0.5,0.4 -0.1,0.2 -0.2,0.4 -0.3,0.6 -0.1,0.2 -0.1,0.4 -0.1,0.7 v 1 z"
       id="path34"
       inkscape:connector-curvature="0"
       style="fill:#808080;fill-opacity:1" /></g></svg>