<?xml version="1.0" encoding="UTF-8" standalone="no"?>
<svg
   xmlns:dc="http://purl.org/dc/elements/1.1/"
   xmlns:cc="http://creativecommons.org/ns#"
   xmlns:rdf="http://www.w3.org/1999/02/22-rdf-syntax-ns#"
   xmlns:svg="http://www.w3.org/2000/svg"
   xmlns="http://www.w3.org/2000/svg"
   xmlns:sodipodi="http://sodipodi.sourceforge.net/DTD/sodipodi-0.dtd"
   xmlns:inkscape="http://www.inkscape.org/namespaces/inkscape"
   viewBox="0 0 80 80"
   width="416px"
   height="416px"
   version="1.1"
   id="svg827"
   sodipodi:docname="icons8_resolution.svg"
   inkscape:version="1.0.1 (3bc2e813f5, 2020-09-07)">
  <metadata
     id="metadata833">
    <rdf:RDF>
      <cc:Work
         rdf:about="">
        <dc:format>image/svg+xml</dc:format>
        <dc:type
           rdf:resource="http://purl.org/dc/dcmitype/StillImage" />
        <dc:title></dc:title>
      </cc:Work>
    </rdf:RDF>
  </metadata>
  <defs
     id="defs831" />
  <sodipodi:namedview
     pagecolor="#ffffff"
     bordercolor="#666666"
     borderopacity="1"
     objecttolerance="10"
     gridtolerance="10"
     guidetolerance="10"
     inkscape:pageopacity="0"
     inkscape:pageshadow="2"
     inkscape:window-width="1920"
     inkscape:window-height="1017"
     id="namedview829"
     showgrid="false"
     inkscape:zoom="0.37989992"
     inkscape:cx="-204.51093"
     inkscape:cy="233.72365"
     inkscape:window-x="-8"
     inkscape:window-y="-8"
     inkscape:window-maximized="1"
     inkscape:current-layer="svg827"
     inkscape:document-rotation="0" />
  <path
     id="path825"
     style="line-height:normal;text-indent:0;text-align:start;text-decoration:none;text-decoration-line:none;text-decoration-style:solid;text-decoration-color:#000000;text-transform:none;isolation:auto;mix-blend-mode:normal;fill:#808080;stroke:#808080;stroke-width:1.26923;stroke-miterlimit:6;stroke-dasharray:none;stroke-opacity:1"
     d="m 4.6152344,14 c 0,10.128255 0,20.25651 0,30.384766 15.5898436,0 31.1796876,0 46.7695316,0 0,-10.256511 0,-20.513021 0,-30.769532 -15.589844,0 -31.179688,0 -46.7695316,0 0,0.128256 0,0.256511 0,0.384766 z M 53.898438,13.619141 c -1.130007,0.02531 -1.720507,1.574447 -0.892579,2.345703 0.736523,0.838231 2.282032,0.323624 2.367188,-0.789063 0.127472,-0.84607 -0.622518,-1.636024 -1.474609,-1.55664 z m 4,0 c -1.130007,0.02531 -1.720507,1.574447 -0.892579,2.345703 0.736523,0.838231 2.282032,0.323624 2.367188,-0.789063 0.127472,-0.84607 -0.622518,-1.636024 -1.474609,-1.55664 z m 4,0 c -1.130007,0.02531 -1.720507,1.574447 -0.892579,2.345703 0.736523,0.838231 2.282032,0.323624 2.367188,-0.789063 0.127472,-0.84607 -0.622518,-1.636024 -1.474609,-1.55664 z m 4,0 c -1.130007,0.02531 -1.720507,1.574447 -0.892579,2.345703 0.736523,0.838231 2.282032,0.323624 2.367188,-0.789063 0.127472,-0.84607 -0.622518,-1.636024 -1.474609,-1.55664 z m 4,0 c -1.130007,0.02531 -1.720507,1.574447 -0.892579,2.345703 0.736523,0.838231 2.282032,0.323624 2.367188,-0.789063 0.127472,-0.84607 -0.622518,-1.636024 -1.474609,-1.55664 z m 4,0 c -1.130007,0.02531 -1.720507,1.574447 -0.892579,2.345703 0.736523,0.838231 2.282032,0.323624 2.367188,-0.789063 0.127472,-0.84607 -0.622518,-1.636024 -1.474609,-1.55664 z m -25.283204,2.765625 c 0,8.410156 0,16.820312 0,25.230468 -13.743489,0 -27.486979,0 -41.2304684,0 0,-8.410156 0,-16.820312 0,-25.230468 13.7434894,0 27.4869794,0 41.2304684,0 z m 13.283204,1.234375 c -1.130007,0.02531 -1.720507,1.574447 -0.892579,2.345703 0.736523,0.838231 2.282032,0.323624 2.367188,-0.789063 0.127472,-0.84607 -0.622518,-1.636024 -1.474609,-1.55664 z m 12,0 c -1.130007,0.02531 -1.720507,1.574447 -0.892579,2.345703 0.736523,0.838231 2.282032,0.323624 2.367188,-0.789063 0.127472,-0.84607 -0.622518,-1.636024 -1.474609,-1.55664 z m -12,4 c -1.130007,0.02531 -1.720507,1.574447 -0.892579,2.345703 0.736523,0.838231 2.282032,0.323624 2.367188,-0.789063 0.127472,-0.84607 -0.622518,-1.636024 -1.474609,-1.55664 z m 12,0 c -1.130007,0.02531 -1.720507,1.574447 -0.892579,2.345703 0.736523,0.838231 2.282032,0.323624 2.367188,-0.789063 0.127472,-0.84607 -0.622518,-1.636024 -1.474609,-1.55664 z m -12,4 c -1.130007,0.02531 -1.720507,1.574447 -0.892579,2.345703 0.736523,0.838231 2.282032,0.323624 2.367188,-0.789063 0.127472,-0.84607 -0.622518,-1.636024 -1.474609,-1.55664 z m 12,0 c -1.130007,0.02531 -1.720507,1.574447 -0.892579,2.345703 0.736523,0.838231 2.282032,0.323624 2.367188,-0.789063 0.127472,-0.84607 -0.622518,-1.636024 -1.474609,-1.55664 z m -12,4 c -1.130007,0.02531 -1.720507,1.574447 -0.892579,2.345703 0.736523,0.838231 2.282032,0.323624 2.367188,-0.789063 0.127472,-0.84607 -0.622518,-1.636024 -1.474609,-1.55664 z m 12,0 c -1.130007,0.02531 -1.720507,1.574447 -0.892579,2.345703 0.736523,0.838231 2.282032,0.323624 2.367188,-0.789063 0.127472,-0.84607 -0.622518,-1.636024 -1.474609,-1.55664 z m -12,4 c -1.130007,0.02531 -1.720507,1.574447 -0.892579,2.345703 0.736523,0.838231 2.282032,0.323624 2.367188,-0.789063 0.127472,-0.84607 -0.622518,-1.636024 -1.474609,-1.55664 z m 12,0 c -1.130007,0.02531 -1.720507,1.574447 -0.892579,2.345703 0.736523,0.838231 2.282032,0.323624 2.367188,-0.789063 0.127472,-0.84607 -0.622518,-1.636024 -1.474609,-1.55664 z m -12,4 c -1.130007,0.02531 -1.720507,1.574447 -0.892579,2.345703 0.736523,0.838231 2.282032,0.323624 2.367188,-0.789063 0.127472,-0.84607 -0.622518,-1.636024 -1.474609,-1.55664 z m 12,0 c -1.130007,0.02531 -1.720507,1.574447 -0.892579,2.345703 0.736523,0.838231 2.282032,0.323624 2.367188,-0.789063 0.127472,-0.84607 -0.622518,-1.636024 -1.474609,-1.55664 z m -12,4 c -1.130007,0.02531 -1.720507,1.574447 -0.892579,2.345703 0.736523,0.838231 2.282032,0.323624 2.367188,-0.789063 0.127472,-0.84607 -0.622518,-1.636024 -1.474609,-1.55664 z m 12,0 c -1.130007,0.02531 -1.720507,1.574447 -0.892579,2.345703 0.736523,0.838231 2.282032,0.323624 2.367188,-0.789063 0.127472,-0.84607 -0.622518,-1.636024 -1.474609,-1.55664 z m -68.0000005,4 c -1.1300061,0.02531 -1.7205067,1.574447 -0.8925781,2.345703 0.7365228,0.838231 2.2820316,0.323624 2.3671875,-0.789063 0.1274719,-0.84607 -0.6225182,-1.636024 -1.4746094,-1.55664 z m 56.0000005,0 c -1.130007,0.02531 -1.720507,1.574447 -0.892579,2.345703 0.736523,0.838231 2.282032,0.323624 2.367188,-0.789063 0.127472,-0.84607 -0.622518,-1.636024 -1.474609,-1.55664 z m 12,0 c -1.130007,0.02531 -1.720507,1.574447 -0.892579,2.345703 0.736523,0.838231 2.282032,0.323624 2.367188,-0.789063 0.127472,-0.84607 -0.622518,-1.636024 -1.474609,-1.55664 z m -68.0000005,4 c -1.1300061,0.02531 -1.7205067,1.574447 -0.8925781,2.345703 0.7365228,0.838231 2.2820316,0.323624 2.3671875,-0.789063 0.1274719,-0.84607 -0.6225182,-1.636024 -1.4746094,-1.55664 z m 56.0000005,0 c -1.130007,0.02531 -1.720507,1.574447 -0.892579,2.345703 0.736523,0.838231 2.282032,0.323624 2.367188,-0.789063 0.127472,-0.84607 -0.622518,-1.636024 -1.474609,-1.55664 z m 12,0 c -1.130007,0.02531 -1.720507,1.574447 -0.892579,2.345703 0.736523,0.838231 2.282032,0.323624 2.367188,-0.789063 0.127472,-0.84607 -0.622518,-1.636024 -1.474609,-1.55664 z m -68.0000005,4 c -1.1300061,0.02531 -1.7205067,1.574447 -0.8925781,2.345703 0.7365228,0.838231 2.2820316,0.323624 2.3671875,-0.789063 0.1274719,-0.84607 -0.6225182,-1.636024 -1.4746094,-1.55664 z m 4,0 c -1.1300061,0.02531 -1.7205067,1.574447 -0.8925781,2.345703 0.7365228,0.838231 2.2820316,0.323624 2.3671876,-0.789063 0.127472,-0.84607 -0.622518,-1.636024 -1.4746095,-1.55664 z m 4.0000005,0 c -1.130007,0.02531 -1.720507,1.574447 -0.892579,2.345703 0.736523,0.838231 2.282032,0.323624 2.367188,-0.789063 0.127472,-0.84607 -0.622518,-1.636024 -1.474609,-1.55664 z m 4,0 c -1.130007,0.02531 -1.720507,1.574447 -0.892579,2.345703 0.736523,0.838231 2.282032,0.323624 2.367188,-0.789063 0.127472,-0.84607 -0.622518,-1.636024 -1.474609,-1.55664 z m 4,0 c -1.130007,0.02531 -1.720507,1.574447 -0.892579,2.345703 0.736523,0.838231 2.282032,0.323624 2.367188,-0.789063 0.127472,-0.84607 -0.622518,-1.636024 -1.474609,-1.55664 z m 4,0 c -1.130007,0.02531 -1.720507,1.574447 -0.892579,2.345703 0.736523,0.838231 2.282032,0.323624 2.367188,-0.789063 0.127472,-0.84607 -0.622518,-1.636024 -1.474609,-1.55664 z m 4,0 c -1.130007,0.02531 -1.720507,1.574447 -0.892579,2.345703 0.736523,0.838231 2.282032,0.323624 2.367188,-0.789063 0.127472,-0.84607 -0.622518,-1.636024 -1.474609,-1.55664 z m 4,0 c -1.130007,0.02531 -1.720507,1.574447 -0.892579,2.345703 0.736523,0.838231 2.282032,0.323624 2.367188,-0.789063 0.127472,-0.84607 -0.622518,-1.636024 -1.474609,-1.55664 z m 4,0 c -1.130007,0.02531 -1.720507,1.574447 -0.892579,2.345703 0.736523,0.838231 2.282032,0.323624 2.367188,-0.789063 0.127472,-0.84607 -0.622518,-1.636024 -1.474609,-1.55664 z m 4,0 c -1.130007,0.02531 -1.720507,1.574447 -0.892579,2.345703 0.736523,0.838231 2.282032,0.323624 2.367188,-0.789063 0.127472,-0.84607 -0.622518,-1.636024 -1.474609,-1.55664 z m 4,0 c -1.130007,0.02531 -1.720507,1.574447 -0.892579,2.345703 0.736523,0.838231 2.282032,0.323624 2.367188,-0.789063 0.127472,-0.84607 -0.622518,-1.636024 -1.474609,-1.55664 z m 4,0 c -1.130007,0.02531 -1.720507,1.574447 -0.892579,2.345703 0.736523,0.838231 2.282032,0.323624 2.367188,-0.789063 0.127472,-0.84607 -0.622518,-1.636024 -1.474609,-1.55664 z m 4,0 c -1.130007,0.02531 -1.720507,1.574447 -0.892579,2.345703 0.736523,0.838231 2.282032,0.323624 2.367188,-0.789063 0.127472,-0.84607 -0.622518,-1.636024 -1.474609,-1.55664 z m 4,0 c -1.130007,0.02531 -1.720507,1.574447 -0.892579,2.345703 0.736523,0.838231 2.282032,0.323624 2.367188,-0.789063 0.127472,-0.84607 -0.622518,-1.636024 -1.474609,-1.55664 z m 4,0 c -1.130007,0.02531 -1.720507,1.574447 -0.892579,2.345703 0.736523,0.838231 2.282032,0.323624 2.367188,-0.789063 0.127472,-0.84607 -0.622518,-1.636024 -1.474609,-1.55664 z m 12,0 c -1.130007,0.02531 -1.720507,1.574447 -0.892579,2.345703 0.736523,0.838231 2.282032,0.323624 2.367188,-0.789063 0.127472,-0.84607 -0.622518,-1.636024 -1.474609,-1.55664 z m -68.0000005,4 c -1.1300061,0.02531 -1.7205067,1.574447 -0.8925781,2.345703 0.7365228,0.838231 2.2820316,0.323624 2.3671875,-0.789063 0.1274719,-0.84607 -0.6225182,-1.636024 -1.4746094,-1.55664 z m 68.0000005,0 c -1.130007,0.02531 -1.720507,1.574447 -0.892579,2.345703 0.736523,0.838231 2.282032,0.323624 2.367188,-0.789063 0.127472,-0.84607 -0.622518,-1.636024 -1.474609,-1.55664 z m -68.0000005,4 c -1.1300061,0.02531 -1.7205067,1.574447 -0.8925781,2.345703 0.7365228,0.838231 2.2820316,0.323624 2.3671875,-0.789063 0.1274719,-0.84607 -0.6225182,-1.636024 -1.4746094,-1.55664 z m 68.0000005,0 c -1.130007,0.02531 -1.720507,1.574447 -0.892579,2.345703 0.736523,0.838231 2.282032,0.323624 2.367188,-0.789063 0.127472,-0.84607 -0.622518,-1.636024 -1.474609,-1.55664 z m -68.0000005,4 c -1.1300061,0.02531 -1.7205067,1.574447 -0.8925781,2.345703 0.7365228,0.838231 2.2820316,0.323624 2.3671875,-0.789063 0.1274719,-0.84607 -0.6225182,-1.636024 -1.4746094,-1.55664 z m 4,0 c -1.1300061,0.02531 -1.7205067,1.574447 -0.8925781,2.345703 0.7365228,0.838231 2.2820316,0.323624 2.3671876,-0.789063 0.127472,-0.84607 -0.622518,-1.636024 -1.4746095,-1.55664 z m 4.0000005,0 c -1.130007,0.02531 -1.720507,1.574447 -0.892579,2.345703 0.736523,0.838231 2.282032,0.323624 2.367188,-0.789063 0.127472,-0.84607 -0.622518,-1.636024 -1.474609,-1.55664 z m 4,0 c -1.130007,0.02531 -1.720507,1.574447 -0.892579,2.345703 0.736523,0.838231 2.282032,0.323624 2.367188,-0.789063 0.127472,-0.84607 -0.622518,-1.636024 -1.474609,-1.55664 z m 4,0 c -1.130007,0.02531 -1.720507,1.574447 -0.892579,2.345703 0.736523,0.838231 2.282032,0.323624 2.367188,-0.789063 0.127472,-0.84607 -0.622518,-1.636024 -1.474609,-1.55664 z m 4,0 c -1.130007,0.02531 -1.720507,1.574447 -0.892579,2.345703 0.736523,0.838231 2.282032,0.323624 2.367188,-0.789063 0.127472,-0.84607 -0.622518,-1.636024 -1.474609,-1.55664 z m 4,0 c -1.130007,0.02531 -1.720507,1.574447 -0.892579,2.345703 0.736523,0.838231 2.282032,0.323624 2.367188,-0.789063 0.127472,-0.84607 -0.622518,-1.636024 -1.474609,-1.55664 z m 4,0 c -1.130007,0.02531 -1.720507,1.574447 -0.892579,2.345703 0.736523,0.838231 2.282032,0.323624 2.367188,-0.789063 0.127472,-0.84607 -0.622518,-1.636024 -1.474609,-1.55664 z m 4,0 c -1.130007,0.02531 -1.720507,1.574447 -0.892579,2.345703 0.736523,0.838231 2.282032,0.323624 2.367188,-0.789063 0.127472,-0.84607 -0.622518,-1.636024 -1.474609,-1.55664 z m 4,0 c -1.130007,0.02531 -1.720507,1.574447 -0.892579,2.345703 0.736523,0.838231 2.282032,0.323624 2.367188,-0.789063 0.127472,-0.84607 -0.622518,-1.636024 -1.474609,-1.55664 z m 4,0 c -1.130007,0.02531 -1.720507,1.574447 -0.892579,2.345703 0.736523,0.838231 2.282032,0.323624 2.367188,-0.789063 0.127472,-0.84607 -0.622518,-1.636024 -1.474609,-1.55664 z m 4,0 c -1.130007,0.02531 -1.720507,1.574447 -0.892579,2.345703 0.736523,0.838231 2.282032,0.323624 2.367188,-0.789063 0.127472,-0.84607 -0.622518,-1.636024 -1.474609,-1.55664 z m 4,0 c -1.130007,0.02531 -1.720507,1.574447 -0.892579,2.345703 0.736523,0.838231 2.282032,0.323624 2.367188,-0.789063 0.127472,-0.84607 -0.622518,-1.636024 -1.474609,-1.55664 z m 4,0 c -1.130007,0.02531 -1.720507,1.574447 -0.892579,2.345703 0.736523,0.838231 2.282032,0.323624 2.367188,-0.789063 0.127472,-0.84607 -0.622518,-1.636024 -1.474609,-1.55664 z m 4,0 c -1.130007,0.02531 -1.720507,1.574447 -0.892579,2.345703 0.736523,0.838231 2.282032,0.323624 2.367188,-0.789063 0.127472,-0.84607 -0.622518,-1.636024 -1.474609,-1.55664 z m 4,0 c -1.130007,0.02531 -1.720507,1.574447 -0.892579,2.345703 0.736523,0.838231 2.282032,0.323624 2.367188,-0.789063 0.127472,-0.84607 -0.622518,-1.636024 -1.474609,-1.55664 z m 4,0 c -1.130007,0.02531 -1.720507,1.574447 -0.892579,2.345703 0.736523,0.838231 2.282032,0.323624 2.367188,-0.789063 0.127472,-0.84607 -0.622518,-1.636024 -1.474609,-1.55664 z m 4,0 c -1.130007,0.02531 -1.720507,1.574447 -0.892579,2.345703 0.736523,0.838231 2.282032,0.323624 2.367188,-0.789063 0.127472,-0.84607 -0.622518,-1.636024 -1.474609,-1.55664 z" />
</svg>
