<?xml version="1.0" encoding="UTF-8" standalone="no"?>
<!-- Generator: Adobe Illustrator 15.0.0, SVG Export Plug-In . SVG Version: 6.00 Build 0)  -->

<svg
   xmlns:dc="http://purl.org/dc/elements/1.1/"
   xmlns:cc="http://creativecommons.org/ns#"
   xmlns:rdf="http://www.w3.org/1999/02/22-rdf-syntax-ns#"
   xmlns:svg="http://www.w3.org/2000/svg"
   xmlns="http://www.w3.org/2000/svg"
   xmlns:sodipodi="http://sodipodi.sourceforge.net/DTD/sodipodi-0.dtd"
   xmlns:inkscape="http://www.inkscape.org/namespaces/inkscape"
   version="1.1"
   id="Layer_1"
   x="0px"
   y="0px"
   width="416px"
   height="416px"
   viewBox="0 0 26 26"
   enable-background="new 0 0 26 26"
   xml:space="preserve"
   sodipodi:docname="icons8_download_book.svg"
   inkscape:version="0.92.3 (2405546, 2018-03-11)"><metadata
     id="metadata861"><rdf:RDF><cc:Work
         rdf:about=""><dc:format>image/svg+xml</dc:format><dc:type
           rdf:resource="http://purl.org/dc/dcmitype/StillImage" /><dc:title></dc:title></cc:Work></rdf:RDF></metadata><defs
     id="defs859" /><sodipodi:namedview
     pagecolor="#ffffff"
     bordercolor="#666666"
     borderopacity="1"
     objecttolerance="10"
     gridtolerance="10"
     guidetolerance="10"
     inkscape:pageopacity="0"
     inkscape:pageshadow="2"
     inkscape:window-width="779"
     inkscape:window-height="416"
     id="namedview857"
     showgrid="false"
     inkscape:zoom="0.28365385"
     inkscape:cx="161.27022"
     inkscape:cy="83.524182"
     inkscape:window-x="141"
     inkscape:window-y="245"
     inkscape:window-maximized="0"
     inkscape:current-layer="Layer_1" /><polygon
     transform="matrix(0,0.23063669,-0.32469357,0,25.472972,7.9718964)"
     style="fill:#808080"
     points="12,21.938 25.906,13 12,4.061 "
     id="polygon858" /><rect
     x="-12.437429"
     style="fill:#808080;stroke-width:0.30102435"
     y="-22.609388"
     width="4.744369"
     height="2.5975487"
     id="rect856-6"
     transform="matrix(0,-1,-1,0,0,0)" /><path
     stroke-miterlimit="10"
     d="m 16.099844,12.489537 v 3.260014 c -4.630457,0 -7.173946,2.507703 -7.173946,2.507703 V 5.7187397 c 0,0 2.608707,-1.671802 7.173946,-1.671802 V 15.749551"
     id="path832"
     style="fill:none;stroke:#808080;stroke-width:1.47669268;stroke-linejoin:round;stroke-miterlimit:10;stroke-opacity:1"
     inkscape:connector-curvature="0"
     sodipodi:nodetypes="cccccc" /><path
     stroke-miterlimit="10"
     d="m 1.7519508,12.489537 v 3.260014 c 4.6304566,0 7.1739472,2.507703 7.1739472,2.507703 V 5.7187397 c 0,0 -2.6087083,-1.671802 -7.1739472,-1.671802 V 15.749551"
     id="path834"
     style="fill:none;stroke:#808080;stroke-width:1.47669268;stroke-linejoin:round;stroke-miterlimit:10;stroke-opacity:1"
     inkscape:connector-curvature="0"
     sodipodi:nodetypes="cccccc" /><g
     transform="matrix(0.29702829,0,0,0.30635289,17.329389,15.779739)"
     id="g4"
     style="fill:#808080"><path
       style="fill:#808080"
       inkscape:connector-curvature="0"
       d="M 18,9 H 15 V 2 h 3 z m 8,-3 v 17 c 0,1.657 -1.344,3 -3,3 H 3 C 1.344,26 0,24.657 0,23 V 3 C 0,1.343 1.344,0 3,0 h 17 c 0.828,0 1.285,0.043 3.621,2.379 C 25.957,4.715 26,5.172 26,6 Z M 5,9 c 0,0.551 0.449,1 1,1 h 13 c 0.551,0 1,-0.449 1,-1 V 2 C 20,1.449 19.551,1 19,1 H 6 C 5.449,1 5,1.449 5,2 Z m 18,5 c 0,-0.551 -0.449,-1 -1,-1 H 4 c -0.551,0 -1,0.449 -1,1 v 10 c 0,0.551 0.449,1 1,1 h 18 c 0.551,0 1,-0.449 1,-1 z"
       id="path2" /></g></svg>