<?xml version="1.0" encoding="UTF-8" standalone="no"?>
<svg
   xmlns:dc="http://purl.org/dc/elements/1.1/"
   xmlns:cc="http://creativecommons.org/ns#"
   xmlns:rdf="http://www.w3.org/1999/02/22-rdf-syntax-ns#"
   xmlns:svg="http://www.w3.org/2000/svg"
   xmlns="http://www.w3.org/2000/svg"
   xmlns:sodipodi="http://sodipodi.sourceforge.net/DTD/sodipodi-0.dtd"
   xmlns:inkscape="http://www.inkscape.org/namespaces/inkscape"
   width="104pt"
   height="104pt"
   viewBox="0 0 104 104"
   version="1.1"
   id="svg5"
   sodipodi:docname="cloud_storage.svg"
   inkscape:version="0.92.4 (33fec40, 2019-01-16)">
  <metadata
     id="metadata11">
    <rdf:RDF>
      <cc:Work
         rdf:about="">
        <dc:format>image/svg+xml</dc:format>
        <dc:type
           rdf:resource="http://purl.org/dc/dcmitype/StillImage" />
      </cc:Work>
    </rdf:RDF>
  </metadata>
  <defs
     id="defs9" />
  <sodipodi:namedview
     pagecolor="#ffffff"
     bordercolor="#666666"
     borderopacity="1"
     objecttolerance="10"
     gridtolerance="10"
     guidetolerance="10"
     inkscape:pageopacity="0"
     inkscape:pageshadow="2"
     inkscape:window-width="652"
     inkscape:window-height="480"
     id="namedview7"
     showgrid="false"
     inkscape:zoom="1.7019231"
     inkscape:cx="69.333333"
     inkscape:cy="69.333333"
     inkscape:window-x="70"
     inkscape:window-y="27"
     inkscape:window-maximized="0"
     inkscape:current-layer="svg5" />
  <g
     id="surface1"
     style="fill:#808080">
    <path
       style="stroke:none;fill-rule:nonzero;fill:#808080;fill-opacity:1"
       d="M 59.828125 0.738281 C 51.152344 0.738281 44.210938 7.277344 42.71875 15.632813 C 36.699219 17.664063 32.253906 23.207031 32.253906 29.914063 C 32.253906 37.609375 38.039063 43.949219 45.425781 44.933594 C 47.796875 50.226563 52.367188 54.414063 58.476563 54.414063 C 62.507813 54.414063 65.863281 52.382813 68.570313 49.734375 C 70.695313 51.152344 73.109375 52.195313 75.832031 52.195313 C 81.375 52.195313 85.3125 48.289063 87.40625 43.457031 C 95.300781 43.457031 101.6875 36.855469 101.6875 28.929688 C 101.6875 22.21875 97.054688 16.757813 90.851563 15.140625 C 88.621094 10.019531 84.066406 6.03125 78.171875 6.03125 C 76.265625 6.03125 74.800781 7.0625 73.125 7.753906 C 69.894531 3.722656 65.355469 0.738281 59.828125 0.738281 Z M 59.828125 8.617188 C 63.585938 8.617188 66.785156 10.710938 68.445313 13.910156 L 70.539063 18.097656 L 74.355469 15.265625 C 75.480469 14.402344 76.710938 13.910156 78.171875 13.910156 C 81.3125 13.910156 83.925781 16.113281 84.574219 19.203125 L 85.1875 22.035156 L 88.019531 22.40625 C 91.222656 22.742188 93.808594 25.390625 93.808594 28.929688 C 93.808594 32.683594 90.945313 35.578125 87.40625 35.578125 C 86.960938 35.578125 86.558594 35.53125 86.175781 35.453125 L 81.867188 34.59375 L 81.375 39.023438 C 81.097656 42.085938 78.789063 44.316406 75.832031 44.316406 C 74.046875 44.316406 72.464844 43.457031 71.402344 42.101563 L 67.707031 37.425781 L 64.875 42.71875 C 63.628906 45.027344 61.183594 46.535156 58.476563 46.535156 C 54.980469 46.535156 52.121094 43.949219 51.457031 40.5 L 50.84375 37.179688 L 47.519531 37.300781 C 47.210938 37.316406 47.089844 37.425781 47.273438 37.425781 C 43.316406 37.425781 40.132813 34.117188 40.132813 29.914063 C 40.132813 26.007813 42.996094 22.929688 46.535156 22.527344 L 49.980469 22.160156 L 49.980469 18.710938 C 50.011719 13.078125 54.445313 8.617188 59.828125 8.617188 Z M 23.636719 31.515625 C 17.113281 31.515625 13.863281 36.792969 11.816406 43.332031 L 0 74.972656 C 3.308594 72.480469 7.371094 70.910156 11.816406 70.910156 L 82.726563 70.910156 C 87.175781 70.910156 91.238281 72.480469 94.546875 74.972656 L 87.652344 54.042969 C 84.375 56.566406 80.28125 58.105469 75.832031 58.105469 C 73.710938 58.105469 71.632813 57.765625 69.679688 57.121094 C 66.398438 59.183594 62.476563 60.320313 58.476563 60.320313 C 50.964844 60.320313 44.210938 56.214844 40.5 49.980469 C 32.714844 47.289063 27.097656 40.132813 26.46875 31.515625 Z M 11.816406 74.847656 C 5.292969 74.847656 0 80.140625 0 86.667969 L 0 90.605469 C 0 97.128906 5.292969 102.425781 11.816406 102.425781 L 82.726563 102.425781 C 89.25 102.425781 94.546875 97.128906 94.546875 90.605469 L 94.546875 86.667969 C 94.546875 80.140625 89.25 74.847656 82.726563 74.847656 Z M 76.816406 82.726563 C 80.082031 82.726563 82.726563 85.375 82.726563 88.636719 C 82.726563 91.898438 80.082031 94.546875 76.816406 94.546875 C 73.554688 94.546875 70.910156 91.898438 70.910156 88.636719 C 70.910156 85.375 73.554688 82.726563 76.816406 82.726563 Z "
       id="path2" />
  </g>
</svg>
