<?xml version="1.0" encoding="UTF-8" standalone="no"?>
<svg
   xmlns:dc="http://purl.org/dc/elements/1.1/"
   xmlns:cc="http://creativecommons.org/ns#"
   xmlns:rdf="http://www.w3.org/1999/02/22-rdf-syntax-ns#"
   xmlns:svg="http://www.w3.org/2000/svg"
   xmlns="http://www.w3.org/2000/svg"
   xmlns:sodipodi="http://sodipodi.sourceforge.net/DTD/sodipodi-0.dtd"
   xmlns:inkscape="http://www.inkscape.org/namespaces/inkscape"
   width="104pt"
   height="104pt"
   viewBox="0 0 104 104"
   version="1.1"
   id="svg5"
   sodipodi:docname="icons8_night_vision.svg"
   inkscape:version="0.92.5 (2060ec1f9f, 2020-04-08)">
  <metadata
     id="metadata11">
    <rdf:RDF>
      <cc:Work
         rdf:about="">
        <dc:format>image/svg+xml</dc:format>
        <dc:type
           rdf:resource="http://purl.org/dc/dcmitype/StillImage" />
      </cc:Work>
    </rdf:RDF>
  </metadata>
  <defs
     id="defs9" />
  <sodipodi:namedview
     pagecolor="#ffffff"
     bordercolor="#666666"
     borderopacity="1"
     objecttolerance="10"
     gridtolerance="10"
     guidetolerance="10"
     inkscape:pageopacity="0"
     inkscape:pageshadow="2"
     inkscape:window-width="660"
     inkscape:window-height="480"
     id="namedview7"
     showgrid="false"
     inkscape:zoom="1.7019231"
     inkscape:cx="69.333333"
     inkscape:cy="69.333333"
     inkscape:window-x="0"
     inkscape:window-y="0"
     inkscape:window-maximized="0"
     inkscape:current-layer="svg5" />
  <g
     id="surface1"
     style="fill:#808080">
    <path
       style="stroke:none;fill-rule:nonzero;fill:#808080;fill-opacity:1"
       d="M 35.453125 16.496094 C 29.328125 16.496094 24.375 21.453125 24.375 27.574219 L 22.652344 27.574219 C 17.925781 27.574219 13.050781 31.347656 11.570313 36.316406 L 1.476563 58.722656 L 0.738281 60.320313 C 0.863281 60.183594 0.984375 60.089844 1.109375 59.953125 C 0.460938 61.859375 0 63.859375 0 65.984375 L 0 71.894531 C 0 82.25 8.324219 90.605469 18.589844 90.605469 L 28.3125 90.605469 C 33.269531 97.332031 41.6875 101.808594 51.210938 101.808594 C 60.738281 101.808594 69.15625 97.332031 74.109375 90.605469 L 83.835938 90.605469 C 94.113281 90.605469 102.425781 82.25 102.425781 71.894531 L 102.425781 65.984375 C 102.425781 63.953125 102.039063 62.03125 101.4375 60.199219 C 101.363281 59.953125 101.285156 59.707031 101.191406 59.460938 C 100.945313 58.8125 100.640625 58.230469 100.332031 57.613281 L 90.851563 36.316406 C 89.375 31.347656 84.496094 27.574219 79.773438 27.574219 L 78.050781 27.574219 C 78.050781 21.453125 73.09375 16.496094 66.96875 16.496094 C 63.90625 16.496094 61.089844 17.695313 59.089844 19.695313 L 43.332031 19.695313 C 41.332031 17.695313 38.515625 16.496094 35.453125 16.496094 Z M 51.210938 57.984375 C 62.382813 57.984375 71.402344 66.214844 71.402344 76.449219 C 71.402344 86.683594 62.382813 95.039063 51.210938 95.039063 C 40.039063 95.039063 31.023438 86.683594 31.023438 76.449219 C 31.023438 66.214844 40.039063 57.984375 51.210938 57.984375 Z M 40.378906 68.324219 C 39.070313 70.15625 38.285156 72.308594 38.285156 74.601563 C 38.285156 81.1875 44.535156 86.542969 52.195313 86.542969 C 55.152344 86.542969 57.828125 85.683594 60.074219 84.328125 C 59.476563 84.359375 58.96875 84.449219 58.351563 84.449219 C 48.441406 84.449219 40.378906 77.464844 40.378906 68.9375 C 40.378906 68.707031 40.363281 68.554688 40.378906 68.324219 Z "
       id="path2" />
  </g>
</svg>
