<?xml version="1.0" encoding="UTF-8" standalone="no"?>
<svg
   xmlns:dc="http://purl.org/dc/elements/1.1/"
   xmlns:cc="http://creativecommons.org/ns#"
   xmlns:rdf="http://www.w3.org/1999/02/22-rdf-syntax-ns#"
   xmlns:svg="http://www.w3.org/2000/svg"
   xmlns="http://www.w3.org/2000/svg"
   xmlns:sodipodi="http://sodipodi.sourceforge.net/DTD/sodipodi-0.dtd"
   xmlns:inkscape="http://www.inkscape.org/namespaces/inkscape"
   version="1.1"
   id="Layer_1"
   x="0px"
   y="0px"
   width="416px"
   height="416px"
   viewBox="0 0 26 26"
   enable-background="new 0 0 26 26"
   xml:space="preserve"
   sodipodi:docname="icons8_position_to_disk_interval.svg"
   inkscape:version="1.0.1 (3bc2e813f5, 2020-09-07)"><metadata
     id="metadata861"><rdf:RDF><cc:Work
         rdf:about=""><dc:format>image/svg+xml</dc:format><dc:type
           rdf:resource="http://purl.org/dc/dcmitype/StillImage" /><dc:title></dc:title></cc:Work></rdf:RDF></metadata><defs
     id="defs859" /><sodipodi:namedview
     pagecolor="#ffffff"
     bordercolor="#666666"
     borderopacity="1"
     objecttolerance="10"
     gridtolerance="10"
     guidetolerance="10"
     inkscape:pageopacity="0"
     inkscape:pageshadow="2"
     inkscape:window-width="1920"
     inkscape:window-height="1017"
     id="namedview857"
     showgrid="false"
     inkscape:zoom="0.80229424"
     inkscape:cx="22.24251"
     inkscape:cy="110.50048"
     inkscape:window-x="-8"
     inkscape:window-y="-8"
     inkscape:window-maximized="1"
     inkscape:current-layer="Layer_1"
     inkscape:document-rotation="0" /><polygon
     transform="matrix(0,0.23063669,-0.32469357,0,24.722972,8.7218964)"
     style="fill:#808080"
     points="12,21.938 25.906,13 12,4.061 "
     id="polygon858" /><rect
     x="-13.187429"
     style="fill:#808080;stroke-width:0.26697"
     y="-21.859388"
     width="3.7316482"
     height="2.5975487"
     id="rect856-6"
     transform="matrix(0,-1,-1,0,0,0)" /><path
     inkscape:connector-curvature="0"
     d="m 9.2587875,1.0688558 c -3.8300801,0 -6.9356944,2.9366691 -6.9356944,6.5583912 0,3.621724 6.0478687,10.082731 6.0478687,14.954512 h 1.7756512 c 0,-4.85583 6.048758,-11.627462 6.048758,-14.954512 0,-3.6217221 -3.106503,-6.5583912 -6.9365835,-6.5583912 z m 0,9.2465602 c -1.5696758,0 -2.8428179,-1.2047229 -2.8428179,-2.688169 0,-1.4834451 1.2731421,-2.6881673 2.8428179,-2.6881673 1.5696755,0 2.8428175,1.2038819 2.8428175,2.6881673 0,1.4842861 -1.273142,2.688169 -2.8428175,2.688169 z"
     id="path1411"
     style="fill:#808080;stroke-width:0.86333913" /><g
     id="g4"
     transform="matrix(0.37978346,0,0,0.37678725,15.511982,15.259146)"><path
       style="fill:#808080;fill-opacity:1"
       inkscape:connector-curvature="0"
       d="M 18,9 H 15 V 2 h 3 z m 8,-3 v 17 c 0,1.657 -1.344,3 -3,3 H 3 C 1.344,26 0,24.657 0,23 V 3 C 0,1.343 1.344,0 3,0 h 17 c 0.828,0 1.285,0.043 3.621,2.379 C 25.957,4.715 26,5.172 26,6 Z M 5,9 c 0,0.551 0.449,1 1,1 h 13 c 0.551,0 1,-0.449 1,-1 V 2 C 20,1.449 19.551,1 19,1 H 6 C 5.449,1 5,1.449 5,2 Z m 18,5 c 0,-0.551 -0.449,-1 -1,-1 H 4 c -0.551,0 -1,0.449 -1,1 v 10 c 0,0.551 0.449,1 1,1 h 18 c 0.551,0 1,-0.449 1,-1 z"
       id="path2" /></g><g
     id="surface1"
     style="fill:#808080"
     transform="matrix(0.07344598,0,0,0.07344598,16.829083,0.8266656)"><path
       style="fill:#808080;fill-opacity:1;fill-rule:nonzero;stroke:none"
       d="m 42.59375,0 c -1.875,0.355469 -3.230469,2.015625 -3.199219,3.9375 v 3.941406 c 0,2.167969 1.769532,3.9375 3.9375,3.9375 v 4.679688 c -20.125,3.722656 -35.453125,21.421875 -35.453125,42.59375 0,23.867187 19.480469,43.335936 43.332032,43.335936 23.867187,0 43.335937,-19.468749 43.335937,-43.335936 0,-12.339844 -5.203125,-23.480469 -13.542969,-31.390625 L 85.1875,22.527344 c 1.355469,-1.691406 1.078125,-4.183594 -0.613281,-5.539063 l -4.800781,-3.691406 c -0.07813,-0.09375 -0.15625,-0.171875 -0.246094,-0.246094 -1.722656,-1.140625 -4.03125,-0.769531 -5.292969,0.859375 l -4.679687,6.03125 C 66.261719,18.40625 62.769531,17.171875 59.089844,16.496094 v -4.679688 c 2.171875,0 3.941406,-1.769531 3.941406,-3.9375 V 3.9375 C 63.03125,1.769531 61.261719,0 59.089844,0 H 43.332031 c -0.121093,0 -0.246093,0 -0.367187,0 -0.125,0 -0.246094,0 -0.371094,0 z m 8.617188,27.574219 c 17.480468,0 31.515625,14.050781 31.515625,31.515625 0,17.464844 -14.035157,31.515625 -31.515625,31.515625 -17.449219,0 -31.515625,-14.050781 -31.515625,-31.515625 0,-17.464844 14.066406,-31.515625 31.515625,-31.515625 z M 27.082031,40.5 c -0.722656,0.125 -1.398437,0.554688 -1.84375,1.234375 -0.910156,1.335938 -0.386718,2.890625 0.859375,4.0625 0.941407,0.859375 11.894532,9.785156 17.359375,14.277344 0.492188,3.878906 3.738282,6.894531 7.753907,6.894531 4.355468,0 7.878906,-3.523437 7.878906,-7.878906 0,-4.355469 -3.523438,-7.878906 -7.878906,-7.878906 -0.722657,0 -1.429688,0.0625 -2.089844,0.246093 C 42.6875,48.058594 29.929688,41.332031 29.300781,40.996094 28.589844,40.609375 27.804688,40.378906 27.082031,40.5 Z"
       id="path2-3" /></g></svg>
