<?xml version="1.0" encoding="UTF-8" standalone="no"?>
<svg
   xmlns:dc="http://purl.org/dc/elements/1.1/"
   xmlns:cc="http://creativecommons.org/ns#"
   xmlns:rdf="http://www.w3.org/1999/02/22-rdf-syntax-ns#"
   xmlns:svg="http://www.w3.org/2000/svg"
   xmlns="http://www.w3.org/2000/svg"
   xmlns:sodipodi="http://sodipodi.sourceforge.net/DTD/sodipodi-0.dtd"
   xmlns:inkscape="http://www.inkscape.org/namespaces/inkscape"
   width="104pt"
   height="104pt"
   viewBox="0 0 104 104"
   version="1.1"
   id="svg5"
   sodipodi:docname="icons8_questions.svg"
   inkscape:version="1.0.1 (3bc2e813f5, 2020-09-07)">
  <metadata
     id="metadata11">
    <rdf:RDF>
      <cc:Work
         rdf:about="">
        <dc:format>image/svg+xml</dc:format>
        <dc:type
           rdf:resource="http://purl.org/dc/dcmitype/StillImage" />
      </cc:Work>
    </rdf:RDF>
  </metadata>
  <defs
     id="defs9" />
  <sodipodi:namedview
     pagecolor="#ffffff"
     bordercolor="#666666"
     borderopacity="1"
     objecttolerance="10"
     gridtolerance="10"
     guidetolerance="10"
     inkscape:pageopacity="0"
     inkscape:pageshadow="2"
     inkscape:window-width="1920"
     inkscape:window-height="995"
     id="namedview7"
     showgrid="false"
     inkscape:zoom="6.0649038"
     inkscape:cx="69.333333"
     inkscape:cy="69.333333"
     inkscape:window-x="0"
     inkscape:window-y="0"
     inkscape:window-maximized="1"
     inkscape:current-layer="svg5" />
  <g
     id="surface1"
     style="fill:#808080">
    <path
       style="stroke:none;fill-rule:nonzero;fill:#808080;fill-opacity:1"
       d="M 15.757813 0 C 13.695313 0 11.585938 0.722656 10.09375 2.214844 C 8.601563 3.707031 7.878906 5.816406 7.878906 7.878906 L 7.878906 82.726563 C 7.878906 84.789063 8.601563 86.898438 10.09375 88.390625 C 11.585938 89.882813 13.695313 90.605469 15.757813 90.605469 L 19.695313 90.605469 L 19.695313 94.546875 C 19.695313 96.609375 20.421875 98.714844 21.914063 100.207031 C 23.40625 101.699219 25.515625 102.425781 27.574219 102.425781 L 86.667969 102.425781 C 88.730469 102.425781 90.835938 101.699219 92.328125 100.207031 C 93.820313 98.714844 94.546875 96.609375 94.546875 94.546875 L 94.546875 19.695313 C 94.546875 17.636719 93.820313 15.527344 92.328125 14.035156 C 90.835938 12.542969 88.730469 11.816406 86.667969 11.816406 L 82.726563 11.816406 L 82.726563 7.878906 C 82.726563 5.816406 82.003906 3.707031 80.511719 2.214844 C 79.019531 0.722656 76.910156 0 74.847656 0 Z M 15.757813 7.878906 L 74.847656 7.878906 L 74.847656 14.527344 C 74.617188 15.296875 74.617188 16.097656 74.847656 16.867188 L 74.847656 82.726563 L 15.757813 82.726563 Z M 45.304688 18.957031 C 37.425781 18.957031 29.546875 24.453125 29.546875 35.085938 L 38.65625 35.085938 C 38.65625 28.777344 41.363281 27.207031 45.304688 27.207031 C 48.457031 27.207031 50.84375 29.578125 50.84375 33.117188 C 50.84375 39.023438 40.996094 39.792969 40.996094 51.210938 L 49.242188 51.210938 C 49.242188 42.148438 61.0625 43.703125 61.0625 31.882813 C 61.0625 24.003906 54.75 18.957031 45.304688 18.957031 Z M 82.726563 19.695313 L 86.667969 19.695313 L 86.667969 94.546875 L 27.574219 94.546875 L 27.574219 90.605469 L 74.847656 90.605469 C 76.910156 90.605469 79.019531 89.882813 80.511719 88.390625 C 82.003906 86.898438 82.726563 84.789063 82.726563 82.726563 Z M 45.304688 57.859375 C 42.472656 57.859375 40.132813 60.199219 40.132813 63.03125 C 40.132813 65.863281 42.472656 68.199219 45.304688 68.199219 C 48.132813 68.199219 50.472656 65.863281 50.472656 63.03125 C 50.472656 60.199219 48.132813 57.859375 45.304688 57.859375 Z "
       id="path2" />
  </g>
</svg>
