<?xml version="1.0" encoding="UTF-8" standalone="no"?>
<!-- Generator: Adobe Illustrator 21.0.1, SVG Export Plug-In . SVG Version: 6.00 Build 0)  -->

<svg
   xmlns:dc="http://purl.org/dc/elements/1.1/"
   xmlns:cc="http://creativecommons.org/ns#"
   xmlns:rdf="http://www.w3.org/1999/02/22-rdf-syntax-ns#"
   xmlns:svg="http://www.w3.org/2000/svg"
   xmlns="http://www.w3.org/2000/svg"
   xmlns:sodipodi="http://sodipodi.sourceforge.net/DTD/sodipodi-0.dtd"
   xmlns:inkscape="http://www.inkscape.org/namespaces/inkscape"
   version="1.1"
   x="0px"
   y="0px"
   viewBox="0 0 50 50"
   style="enable-background:new 0 0 50 50;"
   xml:space="preserve"
   width="50px"
   height="50px"
   id="svg843"
   sodipodi:docname="icons8-computer-mouse.svg"
   inkscape:version="0.92.2 (5c3e80d, 2017-08-06)"><metadata
     id="metadata849"><rdf:RDF><cc:Work
         rdf:about=""><dc:format>image/svg+xml</dc:format><dc:type
           rdf:resource="http://purl.org/dc/dcmitype/StillImage" /></cc:Work></rdf:RDF></metadata><defs
     id="defs847" /><sodipodi:namedview
     pagecolor="#ffffff"
     bordercolor="#666666"
     borderopacity="1"
     objecttolerance="10"
     gridtolerance="10"
     guidetolerance="10"
     inkscape:pageopacity="0"
     inkscape:pageshadow="2"
     inkscape:window-width="737"
     inkscape:window-height="480"
     id="namedview845"
     showgrid="false"
     inkscape:zoom="6.3215346"
     inkscape:cx="27.065356"
     inkscape:cy="25.794385"
     inkscape:window-x="0"
     inkscape:window-y="0"
     inkscape:window-maximized="1"
     inkscape:current-layer="svg843" /><line
     style="fill:none;stroke:#808080;stroke-width:2;stroke-linecap:round;stroke-linejoin:round;stroke-miterlimit:10;stroke-opacity:1"
     x1="7.999"
     y1="25"
     x2="41.999"
     y2="25"
     id="line833" /><line
     style="fill:none;stroke:#808080;stroke-width:1.91956866;stroke-linecap:round;stroke-linejoin:round;stroke-miterlimit:10;stroke-opacity:1"
     x1="24.999001"
     y1="25.079937"
     x2="24.999001"
     y2="19.55282"
     id="line835" /><line
     style="fill:none;stroke:#808080;stroke-width:1.96839094;stroke-linecap:round;stroke-linejoin:round;stroke-miterlimit:10;stroke-opacity:1"
     x1="24.999001"
     y1="8.8118448"
     x2="24.999001"
     y2="3"
     id="line837" /><path
     style="fill:none;stroke:#808080;stroke-width:2;stroke-linecap:round;stroke-linejoin:round;stroke-miterlimit:10;stroke-opacity:1"
     d="  M8.001,20c0-9.389,7.611-17,17-17s17,7.611,17,17c0,1.927,0,8.073,0,10c0,9.389-7.611,17-17,17s-17-7.611-17-17  C8.001,28.073,8.001,21.927,8.001,20z"
     id="path839" /><path
     style="fill:none;stroke:#808080;stroke-width:1.73858273;stroke-linecap:round;stroke-linejoin:round;stroke-miterlimit:10;stroke-dasharray:none;stroke-opacity:1"
     d="m 24.999001,19 v 0 c -2.279943,0 -3.700171,-0.896049 -4.442973,-3.107326 l 0,-3.468969 C 20.556028,10.273975 22.719058,9 24.999001,9 v 0 c 2.279943,0 4.126594,1.634073 4.126594,3.423705 l 0,3.468969 C 29.125595,17.630431 27.278944,19 24.999001,19 Z"
     id="path841"
     inkscape:connector-curvature="0"
     sodipodi:nodetypes="cccsccssc" /></svg>