<?xml version="1.0" encoding="UTF-8" standalone="no"?>
<!-- Generator: Adobe Illustrator 15.0.0, SVG Export Plug-In . SVG Version: 6.00 Build 0)  -->

<svg
   xmlns:dc="http://purl.org/dc/elements/1.1/"
   xmlns:cc="http://creativecommons.org/ns#"
   xmlns:rdf="http://www.w3.org/1999/02/22-rdf-syntax-ns#"
   xmlns:svg="http://www.w3.org/2000/svg"
   xmlns="http://www.w3.org/2000/svg"
   xmlns:sodipodi="http://sodipodi.sourceforge.net/DTD/sodipodi-0.dtd"
   xmlns:inkscape="http://www.inkscape.org/namespaces/inkscape"
   version="1.1"
   id="Layer_1"
   x="0px"
   y="0px"
   width="416px"
   height="416px"
   viewBox="0 0 26 26"
   enable-background="new 0 0 26 26"
   xml:space="preserve"
   sodipodi:docname="icons8_page_up_key.svg"
   inkscape:version="0.92.2 (5c3e80d, 2017-08-06)"><metadata
     id="metadata875"><rdf:RDF><cc:Work
         rdf:about=""><dc:format>image/svg+xml</dc:format><dc:type
           rdf:resource="http://purl.org/dc/dcmitype/StillImage" /><dc:title></dc:title></cc:Work></rdf:RDF></metadata><defs
     id="defs873" /><sodipodi:namedview
     pagecolor="#ffffff"
     bordercolor="#666666"
     borderopacity="1"
     objecttolerance="10"
     gridtolerance="10"
     guidetolerance="10"
     inkscape:pageopacity="0"
     inkscape:pageshadow="2"
     inkscape:window-width="737"
     inkscape:window-height="403"
     id="namedview871"
     showgrid="false"
     inkscape:zoom="0.24939904"
     inkscape:cx="119.1157"
     inkscape:cy="103.22779"
     inkscape:window-x="77"
     inkscape:window-y="90"
     inkscape:window-maximized="0"
     inkscape:current-layer="Layer_1" /><path
     d="M 15.458615,4.6107427 C 15.260015,4.4083641 15.056531,4.2026126 14.856302,3.9934882 14.654445,3.7860503 14.455845,3.5752392 14.260501,3.3694878 12.867039,1.8963408 12.037638,1.063216 11.172423,1.063216 H 4.6609248 c -1.7947316,0 -3.2557488,1.5136226 -3.2557488,3.3729752 V 19.614579 c 0,1.859353 1.4610172,3.372976 3.2557488,3.372976 h 9.7672462 c 1.794731,0 3.255749,-1.513623 3.255749,-3.372976 V 7.8091664 c 0,-0.895525 -0.80417,-1.7556336 -2.225305,-3.1984237 z m 0.59743,15.0038363 c 0,0.930942 -0.729287,1.686488 -1.627874,1.686488 H 4.6609248 c -0.8985866,0 -1.6278744,-0.755546 -1.6278744,-1.686488 V 4.4361912 c 0,-0.9309411 0.7292878,-1.6864876 1.6278744,-1.6864876 l 5.9327882,-0.00338 c 0.586849,0.1551569 0.57871,0.9022709 0.57871,1.6502281 V 6.96592 c 0,0.4646273 0.365457,0.8432438 0.813936,0.8432438 h 2.441812 c 0.812309,0 1.627874,0.00422 1.627874,0.8432438 z"
     id="path868"
     style="fill:#808080;stroke-width:0.82846093"
     inkscape:connector-curvature="0" /><path
     inkscape:connector-curvature="0"
     d="m 5.2058422,16.077774 c -0.1914744,0 -0.4463537,-0.152598 -0.5101785,-0.381493 -0.063825,-0.228894 0,-0.457789 0.1276496,-0.686684 1.4037256,-2.441547 4.0835281,-4.883093 4.0835281,-4.883093 0,0 0.1276491,-0.152597 0.3808494,-0.152597 0.2569781,0 0.3846283,0.152597 0.3846283,0.152597 0,0 2.6798009,2.441546 4.0835269,4.883093 0.12765,0.228895 0.191475,0.45779 0.12765,0.686684 -0.06425,0.228895 -0.319125,0.381493 -0.510598,0.381493 z"
     id="path8216"
     style="fill:#808080;stroke-width:0.46215194" /><ellipse
     cx="21.977373"
     cy="22.475672"
     id="circle828"
     style="fill:#808080;stroke-width:0.32035714"
     rx="1.8621893"
     ry="1.9840273" /><path
     style="fill:none;stroke:#808080;stroke-width:0.64071429;stroke-linecap:round;stroke-linejoin:round;stroke-miterlimit:10;stroke-opacity:1"
     d="m 24.716342,21.892038 c -0.254808,-1.364019 -1.383916,-2.392406 -2.738969,-2.392406 -1.355054,0 -2.484161,1.028387 -2.738969,2.392406"
     id="path832"
     inkscape:connector-curvature="0" /></svg>