<?xml version="1.0" encoding="UTF-8" standalone="no"?>
<!-- Generator: Adobe Illustrator 15.0.0, SVG Export Plug-In . SVG Version: 6.00 Build 0)  -->

<svg
   xmlns:dc="http://purl.org/dc/elements/1.1/"
   xmlns:cc="http://creativecommons.org/ns#"
   xmlns:rdf="http://www.w3.org/1999/02/22-rdf-syntax-ns#"
   xmlns:svg="http://www.w3.org/2000/svg"
   xmlns="http://www.w3.org/2000/svg"
   xmlns:sodipodi="http://sodipodi.sourceforge.net/DTD/sodipodi-0.dtd"
   xmlns:inkscape="http://www.inkscape.org/namespaces/inkscape"
   version="1.1"
   id="Layer_1"
   x="0px"
   y="0px"
   width="416px"
   height="416px"
   viewBox="0 0 26 26"
   enable-background="new 0 0 26 26"
   xml:space="preserve"
   sodipodi:docname="icons8_position_from_gd.svg"
   inkscape:version="0.92.4 (33fec40, 2019-01-16)"><metadata
     id="metadata861"><rdf:RDF><cc:Work
         rdf:about=""><dc:format>image/svg+xml</dc:format><dc:type
           rdf:resource="http://purl.org/dc/dcmitype/StillImage" /><dc:title /></cc:Work></rdf:RDF></metadata><defs
     id="defs859" /><sodipodi:namedview
     pagecolor="#ffffff"
     bordercolor="#666666"
     borderopacity="1"
     objecttolerance="10"
     gridtolerance="10"
     guidetolerance="10"
     inkscape:pageopacity="0"
     inkscape:pageshadow="2"
     inkscape:window-width="1850"
     inkscape:window-height="1016"
     id="namedview857"
     showgrid="false"
     inkscape:zoom="0.80229424"
     inkscape:cx="246.5991"
     inkscape:cy="110.50048"
     inkscape:window-x="70"
     inkscape:window-y="27"
     inkscape:window-maximized="1"
     inkscape:current-layer="Layer_1" /><path
     inkscape:connector-curvature="0"
     d="m 7.5162803,7.5690657 c -3.298986,0 -5.9739642,2.3624257 -5.9739642,5.2759463 0,2.913525 5.2092487,8.11113 5.2092487,12.030271 h 1.5294328 c 0,-3.90631 5.2100154,-9.353799 5.2100154,-12.030271 0,-2.9135206 -2.675745,-5.2759463 -5.9747327,-5.2759463 z m 0,7.4384653 c -1.3520175,0 -2.4486213,-0.969148 -2.4486213,-2.162519 0,-1.193367 1.0966038,-2.162515 2.4486213,-2.162515 1.3520195,0 2.4486237,0.968471 2.4486237,2.162515 0,1.194046 -1.0966042,2.162519 -2.4486237,2.162519 z"
     id="path1411"
     style="fill:#808080;stroke-width:0.71865314" /><g
     transform="matrix(0.13031318,0,0,0.11934112,12.452704,-0.65923605)"
     id="surface1"
     style="fill:#808080"><path
       style="fill:#808080;fill-opacity:1;fill-rule:nonzero;stroke:none"
       d="m 59.089844,7.878906 c -7.476563,0 -14.941406,3.109375 -20.066406,8.617188 -1.570313,-0.398438 -3.570313,-0.738281 -5.539063,-0.738281 -11.816406,0 -21.667969,9.480468 -21.667969,21.296875 C 4.722656,40.210938 0,47.273438 0,55.152344 0,66.183594 8.664063,74.847656 19.695313,74.847656 h 16.128906 c 0,-2.367187 -0.371094,-4.722656 -0.371094,-7.878906 H 19.695313 c -6.691407,0 -11.816407,-5.125 -11.816407,-11.816406 0,-5.511719 3.601563,-10.265625 9.109375,-11.449219 L 20.4375,42.59375 19.695313,39.023438 v -1.597657 c 0,-7.480468 6.3125,-13.789062 13.789062,-13.789062 1.96875,0 3.570313,0.445312 5.539063,1.230469 l 2.710937,1.109375 1.597656,-2.339844 c 3.941407,-4.722656 9.449219,-7.878906 15.757813,-7.878906 9.449219,0 18.144531,7.046875 19.328125,16.496093 l 0.371094,2.832032 2.707031,0.367187 c 7.480469,1.570313 13.050781,7.910156 13.050781,15.390625 0,8.664063 -7.09375,15.757813 -15.757812,15.757813 H 66.96875 c 0,3.152343 -0.367187,5.507812 -0.367187,7.878906 h 12.1875 c 13,0 23.636717,-10.632813 23.636717,-23.636719 0,-9.847656 -6.648436,-19.28125 -16.496092,-22.035156 C 82.773438,16.589844 71.695313,7.878906 59.089844,7.878906 Z"
       id="path2-3"
       inkscape:connector-curvature="0"
       sodipodi:nodetypes="scscssccsscccsscccscccssccsscs" /></g><g
     id="surface1-3-6"
     transform="matrix(0.13031318,0,0,-0.11934112,12.33123,15.734662)"
     style="fill:#808080"><path
       style="fill:#808080;fill-opacity:1;fill-rule:nonzero;stroke:none"
       d="m 50.472656,34.714844 c -0.292968,0.04687 -0.660156,0.171875 -0.859375,0.371094 -0.402343,0.398437 -11.035156,10.21875 -17.730468,20.066406 -0.398438,0.785156 -0.367188,1.523437 -0.367188,2.707031 0.398438,0.785156 1.554688,1.230469 2.339844,1.230469 h 8.246094 c 0,0 1.679687,28.390625 2.460937,29.175781 1.1875,1.570313 3.910156,2.339844 6.28125,2.339844 2.753906,0 5.863281,-1.152344 6.648438,-2.339844 0.78125,-0.785156 1.96875,-29.175781 1.96875,-29.175781 h 8.738281 c 1.1875,0 1.941406,-0.445313 2.339844,-1.230469 0.402343,-1.183594 0.402343,-1.921875 0,-2.707031 C 63.847656,45.304688 53.210938,35.484375 52.8125,35.085938 c -0.398437,-0.402344 -1.199219,-0.371094 -1.601562,-0.371094 -0.199219,0 -0.445313,-0.04687 -0.738282,0 z"
       id="path2-6"
       inkscape:connector-curvature="0"
       sodipodi:nodetypes="scccsccsccscccss" /></g></svg>