<?xml version="1.0" encoding="UTF-8"?>
<svg xmlns="http://www.w3.org/2000/svg" xmlns:xlink="http://www.w3.org/1999/xlink" viewBox="0 0 50 50" version="1.1" width="50px" height="50px">
<g id="surface1">
<path style="fill:#808080;fill-opacity:1" d="M 25 2.15625 L 23.59375 3.59375 L 16.59375 10.59375 C 15.996094 11.074219 15.726563 11.851563 15.898438 12.597656 C 16.070313 13.347656 16.652344 13.929688 17.402344 14.101563 C 18.148438 14.273438 18.925781 14.003906 19.40625 13.40625 L 23 9.8125 L 23 32 C 22.988281 32.722656 23.367188 33.390625 23.992188 33.753906 C 24.613281 34.121094 25.386719 34.121094 26.007813 33.753906 C 26.632813 33.390625 27.011719 32.722656 27 32 L 27 9.8125 L 30.59375 13.40625 C 31.074219 14.003906 31.851563 14.273438 32.597656 14.101563 C 33.347656 13.929688 33.929688 13.347656 34.101563 12.597656 C 34.273438 11.851563 34.003906 11.074219 33.40625 10.59375 L 26.40625 3.59375 Z M 3.78125 15.96875 C 2.75 16.082031 1.976563 16.964844 2 18 L 2 47 L 48 47 L 48 18 C 48.011719 17.277344 47.632813 16.609375 47.007813 16.246094 C 46.386719 15.878906 45.613281 15.878906 44.992188 16.246094 C 44.367188 16.609375 43.988281 17.277344 44 18 L 44 43 L 6 43 L 6 18 C 6.007813 17.457031 5.796875 16.9375 5.414063 16.554688 C 5.03125 16.171875 4.511719 15.960938 3.96875 15.96875 C 3.90625 15.964844 3.84375 15.964844 3.78125 15.96875 Z "/>
</g>
</svg>
