<?xml version="1.0" encoding="UTF-8" standalone="no"?>
<svg
   xmlns:dc="http://purl.org/dc/elements/1.1/"
   xmlns:cc="http://creativecommons.org/ns#"
   xmlns:rdf="http://www.w3.org/1999/02/22-rdf-syntax-ns#"
   xmlns:svg="http://www.w3.org/2000/svg"
   xmlns="http://www.w3.org/2000/svg"
   xmlns:sodipodi="http://sodipodi.sourceforge.net/DTD/sodipodi-0.dtd"
   xmlns:inkscape="http://www.inkscape.org/namespaces/inkscape"
   width="128pt"
   height="128pt"
   viewBox="0 0 128 128"
   version="1.1"
   id="svg31"
   sodipodi:docname="icons8_combo.svg"
   inkscape:version="1.0.1 (3bc2e813f5, 2020-09-07)">
  <metadata
     id="metadata37">
    <rdf:RDF>
      <cc:Work
         rdf:about="">
        <dc:format>image/svg+xml</dc:format>
        <dc:type
           rdf:resource="http://purl.org/dc/dcmitype/StillImage" />
      </cc:Work>
    </rdf:RDF>
  </metadata>
  <defs
     id="defs35" />
  <sodipodi:namedview
     pagecolor="#ffffff"
     bordercolor="#666666"
     borderopacity="1"
     objecttolerance="10"
     gridtolerance="10"
     guidetolerance="10"
     inkscape:pageopacity="0"
     inkscape:pageshadow="2"
     inkscape:window-width="1920"
     inkscape:window-height="995"
     id="namedview33"
     showgrid="false"
     inkscape:zoom="4.7109375"
     inkscape:cx="85.333333"
     inkscape:cy="85.333333"
     inkscape:window-x="0"
     inkscape:window-y="0"
     inkscape:window-maximized="1"
     inkscape:current-layer="svg31" />
  <g
     id="surface1"
     transform="matrix(1.1645228,0,0,1.1645228,-0.29610892,-67.411105)">
    <path
       style="fill:#ffffff;fill-opacity:1;fill-rule:nonzero;stroke:none"
       d="m 36,104 c 0,5.52344 -4.476562,10 -10,10 -5.523437,0 -10,-4.47656 -10,-10 0,-5.523437 4.476563,-10 10,-10 5.523438,0 10,4.476563 10,10 z"
       id="path8" />
    <path
       style="fill:#ffffff;fill-opacity:1;fill-rule:nonzero;stroke:none"
       d="m 71,114 c 0,5.52344 -4.476562,10 -10,10 -5.523437,0 -10,-4.47656 -10,-10 0,-5.52344 4.476563,-10 10,-10 5.523438,0 10,4.47656 10,10 z"
       id="path10" />
    <path
       style="fill:#ffffff;fill-opacity:1;fill-rule:nonzero;stroke:none"
       d="m 104,94 c 0,5.523438 -4.476562,10 -10,10 -5.523437,0 -10,-4.476562 -10,-10 0,-5.523437 4.476563,-10 10,-10 5.523438,0 10,4.476563 10,10 z"
       id="path12" />
    <path
       style="fill:#808080;fill-opacity:1;fill-rule:nonzero;stroke:none"
       d="m 106.89844,94 c 0,-7.199219 -5.79688,-13 -13.000002,-13 -7.199219,0 -13,5.800781 -13,13 0,1.5 0.300781,2.898438 0.703125,4.300781 L 70,104.69922 C 67.699219,102.39844 64.5,101 61,101 c -4.898437,0 -9.101562,2.69922 -11.300781,6.60156 L 39,104.60156 V 104 c 0,-7.199219 -5.800781,-13 -13,-13 -7.199219,0 -13,5.800781 -13,13 0,2.19922 0.5,4.19922 1.5,6 L 2.699219,121.89844 C 1.5,123.10156 1.5,125 2.699219,126.10156 3.300781,126.69922 4,127 4.800781,127 c 0.800782,0 1.5,-0.30078 2.097657,-0.89844 L 18.300781,114.5 c 2.097657,1.5 4.800782,2.5 7.597657,2.5 4.902343,0 9.101562,-2.69922 11.300781,-6.60156 L 47.898438,113.5 v 0.60156 c 0,7.19922 5.800781,13 13,13 7.203125,0 13,-5.80078 13,-13 0,-1.5 -0.296875,-2.90234 -0.699219,-4.30078 l 11.699219,-6.40234 c 2.300781,2.30078 5.5,3.70312 9,3.70312 C 101.47152,107.31173 106.67884,101.73383 106.89844,94 Z M 26,111 c -3.898437,0 -7,-3.10156 -7,-7 0,-3.89844 3.101563,-7 7,-7 3.898438,0 7,3.10156 7,7 0,0.69922 -0.101562,1.30078 -0.300781,1.89844 -0.800781,3 -3.5,5.10156 -6.699219,5.10156 z m 35,10 c -3.898437,0 -7,-3.10156 -7,-7 0,-3.89844 3.101563,-7 7,-7 3.898438,0 7,3.10156 7,7 0,3.89844 -3.101562,7 -7,7 z M 87,94 c 0,-3.898437 3.101563,-7 7,-7 3.898438,0 7,3.101563 7,7 0,3.898438 -3.101562,7 -7,7 -3.898437,0 -7,-3.101562 -7,-7 z"
       id="path14"
       sodipodi:nodetypes="cssccsccssscccsccsccsssccccsssscsssssssssss" />
  </g>
</svg>
