<?xml version="1.0" encoding="UTF-8" standalone="no"?>
<svg
   xmlns:dc="http://purl.org/dc/elements/1.1/"
   xmlns:cc="http://creativecommons.org/ns#"
   xmlns:rdf="http://www.w3.org/1999/02/22-rdf-syntax-ns#"
   xmlns:svg="http://www.w3.org/2000/svg"
   xmlns="http://www.w3.org/2000/svg"
   xmlns:sodipodi="http://sodipodi.sourceforge.net/DTD/sodipodi-0.dtd"
   xmlns:inkscape="http://www.inkscape.org/namespaces/inkscape"
   version="1.1"
   viewBox="0 0 252 252"
   width="416px"
   height="416px"
   id="svg857"
   sodipodi:docname="icons8_moving_sensor.svg"
   inkscape:version="0.92.2 (5c3e80d, 2017-08-06)">
  <metadata
     id="metadata863">
    <rdf:RDF>
      <cc:Work
         rdf:about="">
        <dc:format>image/svg+xml</dc:format>
        <dc:type
           rdf:resource="http://purl.org/dc/dcmitype/StillImage" />
      </cc:Work>
    </rdf:RDF>
  </metadata>
  <defs
     id="defs861" />
  <sodipodi:namedview
     pagecolor="#ffffff"
     bordercolor="#666666"
     borderopacity="1"
     objecttolerance="10"
     gridtolerance="10"
     guidetolerance="10"
     inkscape:pageopacity="0"
     inkscape:pageshadow="2"
     inkscape:window-width="1039"
     inkscape:window-height="573"
     id="namedview859"
     showgrid="false"
     inkscape:zoom="0.26862981"
     inkscape:cx="469.85522"
     inkscape:cy="364.33515"
     inkscape:window-x="236"
     inkscape:window-y="50"
     inkscape:window-maximized="1"
     inkscape:current-layer="svg857" />
  <g
     stroke-miterlimit="10"
     font-weight="none"
     font-size="none"
     text-anchor="none"
     style="font-family:none;mix-blend-mode:normal;fill:none;fill-rule:nonzero;stroke:none;stroke-width:1;stroke-linecap:butt;stroke-linejoin:miter;stroke-miterlimit:10;stroke-dasharray:none;stroke-dashoffset:0"
     id="g855"
     transform="matrix(1.0930564,0,0,0.74739912,13.454902,39.645965)">
    <path
       d="M 0,252 V 0 h 252 v 252 z"
       id="path840"
       inkscape:connector-curvature="0"
       style="fill:none" />
    <g
       id="g853">
      <g
         id="surface1">
        <path
           d="M 103.51104,63 C 88.806937,63 90.777594,51.4541 90.777594,36.75 c 0,-14.7041 -1.970657,-26.25 12.733446,-26.25 14.7041,0 14.23528,11.5459 14.23528,26.25 0,14.7041 0.46882,26.25 -14.23528,26.25 z"
           id="path842"
           style="fill:#808080"
           inkscape:connector-curvature="0"
           sodipodi:nodetypes="sssss" />
        <path
           d="m 75.027594,115.5 v 42 l 15.75,10.5 5.25,73.5 h 16.468726 l 5.25,-73.5 15.75,-10.5 v -42 c 0,-23.09179 -6.89348,-42 -29.98528,-42 -23.091793,0 -27.659266,18.951207 -28.483446,42 z"
           id="path844"
           style="fill:#808080"
           inkscape:connector-curvature="0"
           sodipodi:nodetypes="sccccccsss" />
        <path
           d="M 157.5,176.9209 V 115.5 c 0,-23.625 -7.34179,-38.84179 -21,-53.5459 3.6709,-7.875 5.25,-16.79589 5.25,-25.2041 0,-9.4541 -2.09179,-18.375 -5.7832,-26.25 h -14.1709 c 5.7832,7.3418 9.4541,16.28321 9.4541,26.25 0,15.75 -11.0332,29.40821 -11.0332,29.40821 0,0 26.7832,11.54589 26.7832,49.34179 v 50.40821 L 130.7168,176.9209 126,241.5 h 10.5 l 3.6709,-53.0332 z"
           id="path846"
           style="fill:#999999"
           inkscape:connector-curvature="0" />
        <path
           d="m 152.25,36.75 c 0,12.0791 -3.6709,22.5791 -3.6709,22.5791 0,0 19.4209,22.57911 19.4209,56.1709 v 68.78321 L 150.15821,195.8291 147,241.5 h 10.5 l 2.625,-39.9082 17.8418,-12.07911 V 115.5 c 0,-21 -6.2959,-40.9541 -18.375,-58.2832 2.1123,-6.80859 3.1582,-13.6377 3.1582,-20.4668 0,-8.9209 -1.5791,-17.84179 -4.2041,-26.25 h -11.01269 c 3.13769,8.40821 4.71679,16.7959 4.71679,26.25 z"
           id="path848"
           style="fill:#b3b3b3"
           inkscape:connector-curvature="0" />
        <path
           d="m 173.25,36.75 c 0,6.2959 -0.5332,12.5918 -1.5791,18.375 C 182.7041,73.5 189,93.9668 189,115.5 v 79.7959 L 170.625,207.375 168,241.5 h 10.5 L 180.5918,213.6709 199.5,201.0791 V 115.5 C 199.5,93.4541 193.7168,71.9209 182.7041,53.03321 183.2168,47.78321 183.75,42 183.75,36.75 c 0,-8.9209 -1.0459,-17.84179 -3.1582,-26.25 h -11.0127 c 2.625,8.40821 3.6709,17.3291 3.6709,26.25 z"
           id="path850"
           style="fill:#cccccc"
           inkscape:connector-curvature="0" />
      </g>
    </g>
  </g>
  <path
     inkscape:connector-curvature="0"
     d="m 44.007987,64.334752 c 0,1.726329 -1.397029,3.133094 -3.11142,3.133094 H 19.116603 c -1.714388,0 -3.111423,-1.406765 -3.111423,-3.133094 V 39.27 c 0,-1.726343 1.397035,-3.133101 3.111423,-3.133101 h 21.779964 c 1.714391,0 3.11142,1.406758 3.11142,3.133101 z"
     id="path880"
     style="fill:#808080;stroke-width:3.12224007" />
  <path
     inkscape:connector-curvature="0"
     d="M 29.443416,63.936851 C 28.874029,63.444947 28.450877,62.238708 28.450877,61.198526 V 42.406219 c 0,-1.040189 0.423152,-2.268357 0.992539,-2.760254 L 50.314841,15.881441 c 2.688265,-2.703861 6.138835,-1.676205 6.138835,2.290293 v 66.67539 c 0,4.270398 -3.12386,5.887078 -6.235287,2.753991 z"
     id="path882"
     style="fill:#808080;stroke-width:3.12224007" />
  <path
     inkscape:connector-curvature="0"
     d="m 77.447836,34.44091 c -10.51548,0 -19.03963,8.236099 -19.03963,18.396253 0,10.160161 8.52415,18.397693 19.03963,18.397693 10.51549,0 19.04112,-8.237532 19.04112,-18.397693 0,-10.160154 -8.52563,-18.396253 -19.04112,-18.396253 z m 8.58954,24.705432 -2.06268,1.991537 c -0.37747,0.366141 -0.99567,0.366141 -1.37313,0 l -5.15373,-4.979571 -5.15223,4.978138 c -0.37895,0.366141 -0.99567,0.366141 -1.37462,-0.0026 l -2.06267,-1.98716 c -0.37598,-0.367581 -0.37598,-0.960587 0,-1.329608 l 5.15371,-4.978131 -5.15224,-4.978138 c -0.37745,-0.367574 -0.37745,-0.964893 0,-1.328168 l 2.06269,-1.99297 c 0.37895,-0.36902 0.99715,-0.36902 1.37462,0 l 5.15074,4.979564 5.15373,-4.979564 c 0.37894,-0.36902 0.99715,-0.36902 1.37313,0 l 2.06268,1.990097 c 0.37745,0.366148 0.37745,0.963467 0.001,1.331041 l -5.15373,4.978138 5.15373,4.978131 c 0.37449,0.369021 0.37449,0.962027 -0.001,1.329608 z"
     id="path1455"
     style="fill:#808080;stroke-width:1.4607538" />
</svg>
