<?xml version="1.0" encoding="UTF-8" standalone="no"?>
<!-- Generator: Adobe Illustrator 15.0.0, SVG Export Plug-In . SVG Version: 6.00 Build 0)  -->

<svg
   xmlns:dc="http://purl.org/dc/elements/1.1/"
   xmlns:cc="http://creativecommons.org/ns#"
   xmlns:rdf="http://www.w3.org/1999/02/22-rdf-syntax-ns#"
   xmlns:svg="http://www.w3.org/2000/svg"
   xmlns="http://www.w3.org/2000/svg"
   xmlns:sodipodi="http://sodipodi.sourceforge.net/DTD/sodipodi-0.dtd"
   xmlns:inkscape="http://www.inkscape.org/namespaces/inkscape"
   version="1.1"
   id="Layer_1"
   x="0px"
   y="0px"
   width="416px"
   height="416px"
   viewBox="0 0 26 26"
   enable-background="new 0 0 26 26"
   xml:space="preserve"
   sodipodi:docname="icons8-bookmarks-from-gd.svg"
   inkscape:version="0.92.2 (5c3e80d, 2017-08-06)"><metadata
     id="metadata861"><rdf:RDF><cc:Work
         rdf:about=""><dc:format>image/svg+xml</dc:format><dc:type
           rdf:resource="http://purl.org/dc/dcmitype/StillImage" /><dc:title></dc:title></cc:Work></rdf:RDF></metadata><defs
     id="defs859" /><sodipodi:namedview
     pagecolor="#ffffff"
     bordercolor="#666666"
     borderopacity="1"
     objecttolerance="10"
     gridtolerance="10"
     guidetolerance="10"
     inkscape:pageopacity="0"
     inkscape:pageshadow="2"
     inkscape:window-width="737"
     inkscape:window-height="480"
     id="namedview857"
     showgrid="false"
     inkscape:zoom="0.28365385"
     inkscape:cx="109.33716"
     inkscape:cy="52.167497"
     inkscape:window-x="34"
     inkscape:window-y="74"
     inkscape:window-maximized="0"
     inkscape:current-layer="Layer_1" /><polygon
     transform="matrix(0,-0.23063669,-0.32469357,0,24.722972,14.089411)"
     style="fill:#808080"
     points="12,21.938 25.906,13 12,4.061 "
     id="polygon858" /><rect
     x="-13.865396"
     style="fill:#808080;stroke-width:0.2556664"
     y="-21.859388"
     width="3.4223351"
     height="2.5975487"
     id="rect856-6"
     transform="matrix(0,-1,-1,0,0,0)" /><g
     transform="matrix(0.39873449,0,0,0.39186171,15.49174,14.747327)"
     id="surface1"
     style="fill:#808080"><path
       inkscape:connector-curvature="0"
       style="fill:#808080;fill-opacity:1;fill-rule:nonzero;stroke:none"
       d="M 17.289063,1.96875 H 8.316406 L 0,16.078125 4.160156,23.988281 h 16.796875 l 4.648438,-8.398437 z M 24.160156,15.601563 15.15625,12.28125 10.214844,3.207031 h 6.378906 z m -13.851562,-0.585938 2.574219,-4.222656 2.414062,4.222656 z M 9.023438,3.207031 h 0.023437 l 1.695313,8.726563 -6.328125,9.871094 -3,-5.691407 z M 20.226563,22.75 H 4.910156 l -0.00391,-0.0039 7.886719,-6.488281 11.03125,-0.0039 z"
       id="path826" /></g><path
     inkscape:connector-curvature="0"
     d="M 13.350315,4.5520114 H 13.218441 C 12.921725,3.7445199 12.135497,3.1621809 11.200194,3.1621809 H 2.59971 c -1.1868669,0 -2.1501212,0.9339661 -2.1501212,2.0847458 v 1.3898305 10.4237288 1.389831 c 0,1.296017 2.5435933,2.779661 3.5835351,2.779661 h 9.3171911 c 1.185434,0 2.150122,-0.935356 2.150122,-2.084746 V 6.6367572 c 0,-1.1493898 -0.964688,-2.0847458 -2.150122,-2.0847458 z M 4.0331239,6.2462148 c 0,-1.6671017 1.4334141,-1.6942034 1.4334141,-1.6942034 h 5.016949 c 0,0 -1.4334137,0.014593 -1.4334137,1.6942034 0,1.1292373 0,7.3396952 0,7.3396952 L 6.5415985,11.891707 4.0331239,13.58591 c 0,0 0,-6.2111528 0,-7.3396952 z M 14.067022,19.145232 c 0,0.383593 -0.321801,0.694915 -0.716707,0.694915 H 4.0331239 C 3.768659,19.837368 3.1315066,19.503113 2.6161942,19.145232 h 8.5839998 c 1.186867,0 2.150121,-0.933966 2.150121,-2.084746 V 5.9418419 c 0.394906,0 0.716707,0.3113221 0.716707,0.6949153 z"
     id="path2002"
     style="fill:#808080;stroke-width:0.70572704" /></svg>