<?xml version="1.0" encoding="UTF-8" standalone="no"?>
<!-- Generator: Adobe Illustrator 15.0.0, SVG Export Plug-In . SVG Version: 6.00 Build 0)  -->

<svg
   xmlns:dc="http://purl.org/dc/elements/1.1/"
   xmlns:cc="http://creativecommons.org/ns#"
   xmlns:rdf="http://www.w3.org/1999/02/22-rdf-syntax-ns#"
   xmlns:svg="http://www.w3.org/2000/svg"
   xmlns="http://www.w3.org/2000/svg"
   xmlns:sodipodi="http://sodipodi.sourceforge.net/DTD/sodipodi-0.dtd"
   xmlns:inkscape="http://www.inkscape.org/namespaces/inkscape"
   version="1.1"
   id="Layer_1"
   x="0px"
   y="0px"
   width="416px"
   height="416px"
   viewBox="0 0 26 26"
   enable-background="new 0 0 26 26"
   xml:space="preserve"
   sodipodi:docname="icons8_document_selection1_long.svg"
   inkscape:version="0.92.3 (2405546, 2018-03-11)"><metadata
     id="metadata7908"><rdf:RDF><cc:Work
         rdf:about=""><dc:format>image/svg+xml</dc:format><dc:type
           rdf:resource="http://purl.org/dc/dcmitype/StillImage" /><dc:title></dc:title></cc:Work></rdf:RDF></metadata><defs
     id="defs7906" /><sodipodi:namedview
     pagecolor="#ffffff"
     bordercolor="#666666"
     borderopacity="1"
     objecttolerance="10"
     gridtolerance="10"
     guidetolerance="10"
     inkscape:pageopacity="0"
     inkscape:pageshadow="2"
     inkscape:window-width="1850"
     inkscape:window-height="1016"
     id="namedview7904"
     showgrid="false"
     inkscape:zoom="0.40114712"
     inkscape:cx="109.16286"
     inkscape:cy="119.23805"
     inkscape:window-x="70"
     inkscape:window-y="27"
     inkscape:window-maximized="1"
     inkscape:current-layer="Layer_1" /><path
     stroke-miterlimit="10"
     d="m 6.1113066,12.034928 c 1.7057544,0 4.2147124,0 6.0210174,0"
     id="path7895"
     inkscape:connector-curvature="0"
     style="fill:none;stroke:#808080;stroke-width:1.41201663;stroke-linecap:round;stroke-linejoin:round;stroke-miterlimit:10;stroke-opacity:1" /><path
     stroke-miterlimit="10"
     d="m 5.0621628,19.206672 c 2.3520238,0 5.8115662,0 8.3022372,0"
     id="path7897"
     inkscape:connector-curvature="0"
     style="fill:none;stroke:#808080;stroke-width:1.65806818;stroke-linecap:round;stroke-linejoin:round;stroke-miterlimit:10;stroke-opacity:1" /><path
     stroke-miterlimit="10"
     d="m 5.0621628,16.30921 c 0.8302238,0 5.8115662,0 6.6417892,0"
     id="path7899"
     inkscape:connector-curvature="0"
     style="fill:none;stroke:#808080;stroke-width:1.65806818;stroke-linecap:round;stroke-linejoin:round;stroke-miterlimit:10;stroke-opacity:1" /><path
     d="M 15.245687,5.453733 C 15.043112,5.2550499 14.835557,5.0530555 14.631321,4.8477495 14.425426,4.6440995 14.222851,4.4371379 14.023598,4.2351433 12.602255,2.7888961 11.756257,1.9709841 10.873729,1.9709841 H 4.2319391 c -1.8306432,0 -3.32089479,1.4859839 -3.32089479,3.3113848 V 20.1836 c 0,1.825401 1.49025159,3.311385 3.32089479,3.311385 h 9.9626849 c 1.830643,0 3.320895,-1.485984 3.320895,-3.311385 V 8.5937536 c 0,-0.8791726 -0.820261,-1.7235758 -2.269832,-3.1400206 z M 15.855071,20.1836 c 0,0.913943 -0.743881,1.655693 -1.660447,1.655693 H 4.2319391 c -0.9165669,0 -1.6604473,-0.74175 -1.6604473,-1.655693 V 5.2823689 c 0,-0.9139422 0.7438804,-1.6556924 1.6604473,-1.6556924 l 6.0514999,-0.00331 c 0.598592,0.1523237 0.59029,0.8857955 0.59029,1.620095 v 2.5224474 c 0,0.4561432 0.372771,0.8278461 0.830223,0.8278461 h 2.490672 c 0.828563,0 1.660447,0.00414 1.660447,0.8278463 z"
     id="path7901"
     style="fill:#808080;stroke-width:0.82903409"
     inkscape:connector-curvature="0" /><polyline
     style="fill:none;stroke:#808080;stroke-width:2;stroke-miterlimit:10;stroke-opacity:1"
     stroke-miterlimit="10"
     points="21,1 25,1 25,5 "
     id="polyline7298"
     transform="matrix(0.42632698,0,0,0.33670785,3.5795654,10.204092)" /><polyline
     stroke-miterlimit="10"
     points="25,21 25,25 21,25 "
     id="polyline7300"
     transform="matrix(0.42632698,0,0,0.33670785,3.5795654,5.3218285)"
     style="fill:none;stroke:#808080;stroke-width:2;stroke-miterlimit:10;stroke-opacity:1" /><polyline
     stroke-miterlimit="10"
     points="5,25 1,25 1,21 "
     id="polyline7306"
     transform="matrix(0.42632698,0,0,0.33670785,3.5795654,5.3218285)"
     style="fill:none;stroke:#808080;stroke-width:2;stroke-miterlimit:10;stroke-opacity:1" /><polyline
     style="fill:none;stroke:#808080;stroke-width:2;stroke-miterlimit:10;stroke-opacity:1"
     stroke-miterlimit="10"
     points="1,5 1,1 5,1 "
     id="polyline7308"
     transform="matrix(0.42632698,0,0,0.33670785,3.5795654,10.204092)" /><line
     stroke-miterlimit="10"
     x1="8.6954889"
     y1="13.739524"
     x2="6.5638537"
     y2="13.739524"
     id="line7314"
     style="fill:none;stroke:#808080;stroke-width:0.75775367;stroke-linejoin:round;stroke-miterlimit:10;stroke-opacity:1" /><line
     stroke-miterlimit="10"
     x1="11.679778"
     y1="13.739524"
     x2="9.5481434"
     y2="13.739524"
     id="line7316"
     style="fill:none;stroke:#808080;stroke-width:0.75775367;stroke-linejoin:round;stroke-miterlimit:10;stroke-opacity:1" /><line
     style="fill:none;stroke:#808080;stroke-width:0.75775367;stroke-linejoin:round;stroke-miterlimit:10;stroke-opacity:1"
     stroke-miterlimit="10"
     x1="9.5481434"
     y1="10.540802"
     x2="11.679778"
     y2="10.540802"
     id="line7326" /><line
     style="fill:none;stroke:#808080;stroke-width:0.75775367;stroke-linejoin:round;stroke-miterlimit:10;stroke-opacity:1"
     stroke-miterlimit="10"
     x1="6.5638537"
     y1="10.540802"
     x2="8.6954889"
     y2="10.540802"
     id="line7328" /><ellipse
     cx="21.43854"
     cy="21.171848"
     id="circle828-7"
     style="fill:#808080;stroke-width:0.30895767"
     rx="1.7616223"
     ry="1.9506881" /><path
     inkscape:connector-curvature="0"
     style="fill:none;stroke:#808080;stroke-width:1.47497022;stroke-linecap:round;stroke-linejoin:round;stroke-miterlimit:10;stroke-dasharray:none;stroke-opacity:1"
     d="m 24.065587,20.029074 c -0.246134,-1.341099 -1.336816,-2.352207 -2.645749,-2.352207 -1.30894,0 -2.399615,1.011108 -2.645757,2.352207"
     id="path832-9" /></svg>