<?xml version="1.0" encoding="UTF-8" standalone="no"?>
<!-- Generator: Adobe Illustrator 18.1.1, SVG Export Plug-In . SVG Version: 6.00 Build 0)  -->

<svg
   xmlns:dc="http://purl.org/dc/elements/1.1/"
   xmlns:cc="http://creativecommons.org/ns#"
   xmlns:rdf="http://www.w3.org/1999/02/22-rdf-syntax-ns#"
   xmlns:svg="http://www.w3.org/2000/svg"
   xmlns="http://www.w3.org/2000/svg"
   xmlns:sodipodi="http://sodipodi.sourceforge.net/DTD/sodipodi-0.dtd"
   xmlns:inkscape="http://www.inkscape.org/namespaces/inkscape"
   version="1.1"
   id="Layer_1"
   x="0px"
   y="0px"
   viewBox="0 0 26 26"
   enable-background="new 0 0 26 26"
   xml:space="preserve"
   width="416px"
   height="416px"
   sodipodi:docname="icons8_odt.svg"
   inkscape:version="0.92.3 (2405546, 2018-03-11)"><metadata
   id="metadata970"><rdf:RDF><cc:Work
       rdf:about=""><dc:format>image/svg+xml</dc:format><dc:type
         rdf:resource="http://purl.org/dc/dcmitype/StillImage" /><dc:title /></cc:Work></rdf:RDF></metadata><defs
   id="defs968" /><sodipodi:namedview
   pagecolor="#ffffff"
   bordercolor="#666666"
   borderopacity="1"
   objecttolerance="10"
   gridtolerance="10"
   guidetolerance="10"
   inkscape:pageopacity="0"
   inkscape:pageshadow="2"
   inkscape:window-width="1850"
   inkscape:window-height="1016"
   id="namedview966"
   showgrid="false"
   inkscape:zoom="0.56730769"
   inkscape:cx="-135.72881"
   inkscape:cy="208"
   inkscape:window-x="70"
   inkscape:window-y="27"
   inkscape:window-maximized="1"
   inkscape:current-layer="Layer_1" />
<path
   d="M21.3,4.2C21,4,20.8,3.7,20.5,3.5C20.3,3.2,20,3,19.8,2.7C18.1,1,17.1,0,16,0H8C5.8,0,4,1.8,4,4v7.2h2V4c0-1.1,0.9-2,2-2  l7.3,0C16,2.2,16,3.1,16,4v3c0,0.6,0.4,1,1,1h3c1,0,2,0,2,1v13c0,1.1-0.9,2-2,2H8c-1.1,0-2-0.9-2-2v-3.2H4V22c0,2.2,1.8,4,4,4h12  c2.2,0,4-1.8,4-4V8C24,6.9,23,5.9,21.3,4.2z"
   id="path955"
   style="fill:#808080" />

<path
   inkscape:connector-curvature="0"
   d="m 9.720984,5.8596792 c 0.0358,-0.068982 0.07629,-0.1331922 0.115804,-0.1986366 0.0383,-0.066823 0.08228,-0.1260741 0.123096,-0.1905174 0.03982,-0.06525 0.08704,-0.1205022 0.130099,-0.1811691 0.04309,-0.061677 0.0909,-0.1152236 0.137392,-0.1713211 0.0453,-0.058438 0.09445,-0.1095716 0.144481,-0.1599706 0.04946,-0.050507 0.09667,-0.1076522 0.150476,-0.1492361 0.05257,-0.044202 0.104655,-0.092376 0.158748,-0.1346172 0.05586,-0.036511 0.111938,-0.074754 0.167193,-0.1159567 0.05516,-0.043016 0.115688,-0.06429 0.174022,-0.098414 l 0.08908,-0.047161 c 0.03009,-0.013503 0.06156,-0.021008 0.09208,-0.033658 0.06156,-0.022008 0.123414,-0.048401 0.186935,-0.067982 0.06384,-0.01173 0.128284,-0.022807 0.193334,-0.038044 0.06594,-0.019088 0.131598,-0.020701 0.198492,-0.021888 l 0.203363,-0.014196 c -0.06441,-0.028006 -0.130099,-0.051973 -0.196647,-0.077913 -0.06658,-0.025553 -0.134048,-0.048787 -0.203363,-0.055479 -0.06903,-0.01213 -0.139063,-0.020275 -0.209473,-0.029206 -0.06992,-9.238e-4 -0.140418,0.00533 -0.211549,0.00853 -0.07206,-3.079e-4 -0.141974,0.016742 -0.211895,0.036511 -0.06923,0.020808 -0.142549,0.030352 -0.210136,0.061677 -0.06834,0.028086 -0.136785,0.058825 -0.204804,0.091416 -0.06626,0.036631 -0.130388,0.080019 -0.196446,0.1205022 -0.06686,0.038243 -0.126209,0.091416 -0.18875,0.139388 C 10.089056,4.5788856 10.029708,4.6337913 9.97293,4.6921149 9.9155,4.7495139 9.855598,4.8041126 9.80323,4.8691305 9.75002,4.9333405 9.693276,4.9930184 9.644021,5.0621872 9.593961,5.1301692 9.540663,5.1949929 9.495072,5.2684019 9.447942,5.3403429 9.39999,5.4114449 9.3564411,5.4872373 c -0.01556,0.024967 -0.028932,0.05236 -0.043465,0.078326 l -0.06597,-0.100334 C 9.1944373,5.39009 9.1458758,5.3086071 9.0882638,5.2410485 L 8.9134919,5.042028 C 8.8551324,4.9755785 8.7878882,4.9274176 8.7256354,4.8697459 L 8.6302599,4.7872605 8.5297318,4.7191981 C 8.4621719,4.6761826 8.3968072,4.6254757 8.3274929,4.5899649 L 8.1183649,4.4870848 C 8.0484485,4.4567727 7.9770257,4.432419 7.906558,4.4052127 7.8366415,4.3765134 7.764584,4.3586647 7.6928478,4.3411892 7.621398,4.3217276 7.5496054,4.3075179 7.4775524,4.2975605 7.4058207,4.2855636 7.3343675,4.2730202 7.2623437,4.2687413 c -0.1441646,-0.0096 -0.2876371,-0.01381 -0.4305029,-0.00129 -0.1425805,0.010797 -0.2845252,0.031552 -0.4235011,0.073754 0.1404462,0.028313 0.2781255,0.060864 0.4140177,0.1006406 0.135864,0.038124 0.2705453,0.079326 0.4018553,0.1318859 0.066342,0.021394 0.1313969,0.048974 0.1961291,0.076673 0.065057,0.02578 0.1291193,0.054786 0.1917486,0.088684 0.062249,0.034471 0.1269861,0.057398 0.1871654,0.096148 0.061471,0.036044 0.1230962,0.068982 0.1827557,0.1068391 l 0.1747719,0.1230348 c 0.058687,0.038164 0.1112507,0.09007 0.167106,0.1338867 0.056228,0.043242 0.1085446,0.092723 0.1587489,0.1460809 0.049464,0.053666 0.1052524,0.097881 0.1498699,0.1579325 l 0.138977,0.1721275 c 0.045912,0.057438 0.081079,0.1276203 0.1230962,0.1892871 l 0.061652,0.094562 c 0.018852,0.033045 0.034118,0.069795 0.051358,0.1042663 L 9.110656,6.272006 9.331024,6.72037 9.518881,6.2668126 c 0.02456,-0.059171 0.06017,-0.135233 0.0937,-0.2025996 0.03504,-0.068862 0.07069,-0.1371179 0.108398,-0.2044831 z"
   id="path4700"
   style="fill:#808080;stroke-width:0.03329926" /><path
   inkscape:connector-curvature="0"
   d="m 14.776356,6.7499437 c -0.06899,-0.012264 -0.139062,-0.020395 -0.209443,-0.029326 -0.07024,-7.998e-4 -0.140447,0.00533 -0.211578,0.00853 -0.07203,-1.92e-4 -0.141945,0.016849 -0.211866,0.036511 -0.06932,0.020808 -0.142578,0.030432 -0.210049,0.061784 -0.06839,0.028006 -0.137103,0.058718 -0.204862,0.091376 -0.06661,0.036511 -0.130417,0.079953 -0.196071,0.1205289 -0.06719,0.038124 -0.126468,0.091416 -0.189097,0.1393866 -0.06352,0.046548 -0.122808,0.1013338 -0.179643,0.15974 -0.05743,0.057332 -0.117332,0.1119977 -0.169613,0.1770529 -0.05321,0.06409 -0.11036,0.123768 -0.159585,0.1929421 -0.04984,0.067982 -0.103031,0.1328057 -0.14863,0.2063307 -0.04713,0.071901 -0.09517,0.142927 -0.138631,0.2187194 -0.0155,0.024927 -0.02888,0.05244 -0.04349,0.078406 L 12.437537,8.111513 C 12.385254,8.0363324 12.336918,7.9548895 12.279163,7.8874469 L 12.104391,7.6884264 C 12.046054,7.6218702 11.978413,7.573696 11.916246,7.5161829 l -0.09514,-0.082485 -0.100619,-0.068169 C 11.652997,7.322513 11.587651,7.2718061 11.518337,7.2362953 L 11.309497,7.133002 C 11.239267,7.10269 11.167841,7.078443 11.097344,7.05113 11.027424,7.022537 10.95537,7.004649 10.88372,6.987227 10.81227,6.967645 10.740536,6.953569 10.668425,6.943598 10.596695,6.931601 10.525241,6.919058 10.452899,6.914699 10.309053,6.905099 10.165551,6.900996 10.022684,6.913469 9.880421,6.924266 9.738159,6.945021 9.599269,6.987223 c 0.140361,0.028206 0.278039,0.060864 0.413933,0.100534 0.135862,0.038244 0.270545,0.079326 0.401855,0.1318859 0.06634,0.021395 0.131397,0.049094 0.196158,0.076674 0.06505,0.02578 0.12909,0.054906 0.191718,0.088764 0.06223,0.034471 0.126901,0.057332 0.187253,0.096175 0.06139,0.035937 0.122953,0.068982 0.182698,0.106719 l 0.174773,0.1230749 c 0.05865,0.038243 0.111217,0.090177 0.167019,0.1339627 0.05623,0.043242 0.108827,0.092643 0.158835,0.1460822 0.04958,0.053586 0.105308,0.097801 0.14987,0.1578539 l 0.139062,0.1722448 c 0.04588,0.057332 0.08102,0.1275003 0.123096,0.189287 l 0.06156,0.094456 c 0.01882,0.033045 0.03422,0.069862 0.05136,0.104373 l 0.103031,0.2087913 0.220367,0.4483641 0.187858,-0.4536347 c 0.0245,-0.059251 0.06021,-0.1351557 0.09347,-0.202521 0.03528,-0.068982 0.07084,-0.1373484 0.108398,-0.2046764 0.03571,-0.068982 0.07626,-0.1331122 0.115803,-0.1986366 0.0383,-0.066823 0.08225,-0.1260741 0.122837,-0.1905174 0.04012,-0.06513 0.08738,-0.1203822 0.130705,-0.1810919 0.04268,-0.061744 0.09027,-0.1153435 0.137073,-0.1714356 0.0453,-0.058332 0.0944,-0.1094517 0.144568,-0.1599707 0.04941,-0.05052 0.09666,-0.1076121 0.150476,-0.1491214 0.05289,-0.044202 0.104565,-0.092496 0.158661,-0.1346945 0.05595,-0.036511 0.111882,-0.074754 0.167193,-0.1158367 0.05502,-0.043002 0.115833,-0.064397 0.174196,-0.098494 l 0.08906,-0.047161 c 0.02995,-0.013503 0.06142,-0.021008 0.09212,-0.033671 0.06139,-0.022008 0.123702,-0.048361 0.186935,-0.067862 0.06352,-0.011864 0.128256,-0.022927 0.193622,-0.038017 0.06565,-0.019088 0.131338,-0.020808 0.198031,-0.022008 l 0.203535,-0.014116 c -0.06415,-0.028086 -0.130271,-0.051933 -0.19682,-0.077913 -0.06641,-0.025233 -0.133875,-0.048561 -0.203219,-0.055133 z"
   id="path4702"
   style="fill:#808080;stroke-width:0.03329926" /><g
   transform="matrix(0.03618106,0,0,0.03624302,0.31421235,3.7903308)"
   id="g5450"><path
     inkscape:connector-curvature="0"
     d="m 282.413,254.859 c -7.564,0 -12.464,0.672 -15.357,1.333 v 98.144 c 2.893,0.671 7.567,0.671 11.793,0.671 30.714,0.221 50.741,-16.693 50.741,-52.525 0.221,-31.158 -18.022,-47.623 -47.177,-47.623 z"
     id="path5444"
     style="fill:#808080" /><path
     d="m 486.201,196.124 c -315.43582,2.94297 -160.24651,2.3194 -424.109,-0.009 -16.971,0 -30.732,13.756 -30.732,30.733 V 386.66 c 0,16.968 13.761,30.731 30.732,30.731 192.2004,2.47983 282.73867,10e-4 424.108,10e-4 16.966,0 30.729,-13.764 30.729,-30.731 V 226.854 c 10e-4,-16.982 -13.762,-30.73 -30.728,-30.73 z M 365.643,301.37 c 0,28.72 -10.457,48.524 -24.925,60.75 -15.795,13.141 -39.832,19.376 -69.216,19.376 -17.578,0 -30.045,-1.112 -38.504,-2.236 V 231.932 c 12.459,-2.005 28.714,-3.118 45.846,-3.118 28.482,0 46.955,5.123 61.433,16.032 15.576,11.572 25.366,30.034 25.366,56.524 z m -299.139,4.672 c 0,-44.961 28.714,-78.571 73.004,-78.571 46.076,0 71.224,34.512 71.224,75.904 0,49.187 -29.827,79.004 -73.665,79.004 C 92.55,382.378 66.504,348.782 66.504,306.042 Z m 419.12,-47.629 H 444.679 V 379.942 H 410.63 V 258.413 h -40.284 v -28.486 h 115.277 v 28.486 z"
     id="path5446-3"
     inkscape:connector-curvature="0"
     sodipodi:nodetypes="ccssccsccscsccscsssscscccccccccc"
     style="fill:#808080" /><path
     inkscape:connector-curvature="0"
     d="m 174.895,304.487 c 0,-26.929 -12.905,-50.074 -36.279,-50.074 -22.921,0 -36.279,21.832 -36.279,50.967 0,29.376 13.798,50.069 36.5,50.069 22.926,0 36.058,-21.818 36.058,-50.962 z"
     id="path5448"
     style="fill:#808080" /></g></svg>