<?xml version="1.0" encoding="UTF-8"?>
<svg xmlns="http://www.w3.org/2000/svg" xmlns:xlink="http://www.w3.org/1999/xlink" width="500px" height="500px" viewBox="0 0 26 26" version="1.1"> <g id="surface1"> <path style=" stroke:none;fill-rule:nonzero;fill:#808080;fill-opacity:1;" d="M 21.667969 0 L 3.9375 0 C 1.773438 0 0 1.773438 0 3.9375 L 0 21.667969 C 0 23.832031 1.773438 25.605469 3.9375 25.605469 L 21.667969 25.605469 C 23.832031 25.605469 25.605469 23.832031 25.605469 21.667969 L 25.605469 3.9375 C 25.605469 1.773438 23.832031 0 21.667969 0 Z M 18.710938 14.773438 C 18.710938 15.265625 18.710938 15.757813 18.710938 16.25 C 18.710938 19.203125 17.921875 21.667969 13.296875 21.667969 C 9.257813 21.667969 8.566406 20.1875 7.980469 19.402344 C 7.386719 18.613281 4.234375 14.179688 4.234375 14.179688 C 3.742188 13.492188 3.9375 12.605469 4.628906 12.113281 C 5.316406 11.621094 6.207031 11.816406 6.699219 12.507813 L 7.878906 14.179688 L 7.878906 5.910156 C 7.878906 5.316406 8.269531 4.925781 8.863281 4.925781 C 9.457031 4.925781 9.847656 5.316406 9.847656 5.910156 L 9.847656 11.324219 C 10.144531 11.226563 10.441406 11.128906 10.832031 11.03125 L 10.832031 3.9375 C 10.832031 3.347656 11.226563 2.953125 11.816406 2.953125 C 12.410156 2.953125 12.804688 3.347656 12.804688 3.9375 L 12.804688 10.832031 C 13 10.832031 13.097656 10.832031 13.296875 10.832031 C 13.492188 10.832031 13.589844 10.832031 13.789063 10.832031 L 13.789063 4.433594 C 13.789063 3.839844 14.179688 3.445313 14.773438 3.445313 C 15.363281 3.445313 15.757813 3.839844 15.757813 4.433594 L 15.757813 11.03125 C 16.148438 11.128906 16.445313 11.226563 16.742188 11.324219 L 16.742188 6.894531 C 16.742188 6.300781 17.136719 5.910156 17.726563 5.910156 C 18.320313 5.910156 18.710938 6.300781 18.710938 6.894531 Z "/> </g> </svg>
