<?xml version="1.0" encoding="UTF-8" standalone="no"?>
<!-- Generator: Adobe Illustrator 15.0.0, SVG Export Plug-In . SVG Version: 6.00 Build 0)  -->

<svg
   xmlns:dc="http://purl.org/dc/elements/1.1/"
   xmlns:cc="http://creativecommons.org/ns#"
   xmlns:rdf="http://www.w3.org/1999/02/22-rdf-syntax-ns#"
   xmlns:svg="http://www.w3.org/2000/svg"
   xmlns="http://www.w3.org/2000/svg"
   xmlns:sodipodi="http://sodipodi.sourceforge.net/DTD/sodipodi-0.dtd"
   xmlns:inkscape="http://www.inkscape.org/namespaces/inkscape"
   version="1.1"
   id="Layer_1"
   x="0px"
   y="0px"
   width="416px"
   height="416px"
   viewBox="0 0 26 26"
   enable-background="new 0 0 26 26"
   xml:space="preserve"
   sodipodi:docname="icons8_landsc_to_port.svg"
   inkscape:version="0.92.3 (5aff6ba, 2018-11-25)"><metadata
     id="metadata843"><rdf:RDF><cc:Work
         rdf:about=""><dc:format>image/svg+xml</dc:format><dc:type
           rdf:resource="http://purl.org/dc/dcmitype/StillImage" /><dc:title></dc:title></cc:Work></rdf:RDF></metadata><defs
     id="defs841" /><sodipodi:namedview
     pagecolor="#ffffff"
     bordercolor="#666666"
     borderopacity="1"
     objecttolerance="10"
     gridtolerance="10"
     guidetolerance="10"
     inkscape:pageopacity="0"
     inkscape:pageshadow="2"
     inkscape:window-width="1853"
     inkscape:window-height="1025"
     id="namedview839"
     showgrid="false"
     inkscape:zoom="0.26862981"
     inkscape:cx="-751.51022"
     inkscape:cy="274.20149"
     inkscape:window-x="67"
     inkscape:window-y="27"
     inkscape:window-maximized="1"
     inkscape:current-layer="Layer_1" /><path
     stroke-miterlimit="10"
     d="m 18.012499,10.584204 c 1.447348,0 3.576222,0 5.108889,0"
     id="path830"
     inkscape:connector-curvature="0"
     style="fill:#808080;stroke:#808080;stroke-width:1.02856255;stroke-linecap:round;stroke-linejoin:round;stroke-miterlimit:10;stroke-dasharray:none;stroke-opacity:1" /><path
     stroke-miterlimit="10"
     d="m 18.012499,14.725776 c 1.447348,0 3.576222,0 5.108889,0"
     id="path832"
     inkscape:connector-curvature="0"
     style="fill:#808080;stroke:#808080;stroke-width:1.02856255;stroke-linecap:round;stroke-linejoin:round;stroke-miterlimit:10;stroke-dasharray:none;stroke-opacity:1" /><path
     stroke-miterlimit="10"
     d="m 18.012499,12.654989 c 0.510889,0 3.576222,0 4.087111,0"
     id="path834"
     inkscape:connector-curvature="0"
     style="fill:#808080;stroke:#808080;stroke-width:1.02856302;stroke-linecap:round;stroke-linejoin:round;stroke-miterlimit:10;stroke-opacity:1" /><path
     d="M 24.279063,7.0674908 C 24.154406,6.9432436 24.026684,6.8169256 23.901006,6.6885369 23.774305,6.5611835 23.649648,6.4317594 23.527035,6.3054415 22.652392,5.4010255 22.131797,4.8895414 21.588721,4.8895414 H 17.50161 c -1.126511,0 -2.043556,0.9292653 -2.043556,2.0707862 v 9.3185374 c 0,1.141521 0.917045,2.070786 2.043556,2.070786 h 6.130668 c 1.12651,0 2.043555,-0.929265 2.043555,-2.070786 V 9.031114 c 0,-0.549794 -0.504758,-1.0778446 -1.39677,-1.9636232 z m 0.374993,9.2113742 c 0,0.571537 -0.457757,1.035393 -1.021778,1.035393 H 17.50161 c -0.564022,0 -1.021778,-0.463856 -1.021778,-1.035393 V 6.9603276 c 0,-0.571537 0.457756,-1.0353931 1.021778,-1.0353931 l 3.72387,-0.00207 c 0.368351,0.095256 0.363241,0.5539354 0.363241,1.0131322 V 8.513418 c 0,0.28525 0.229389,0.517696 0.510889,0.517696 h 1.532668 c 0.509866,0 1.021778,0.0025 1.021778,0.517697 z"
     id="path836"
     inkscape:connector-curvature="0"
     style="fill:#808080;stroke-width:0.51428151" /><path
     inkscape:connector-curvature="0"
     style="fill:#808080;stroke:#808080;stroke-width:1.02856255;stroke-linecap:round;stroke-linejoin:round;stroke-miterlimit:10;stroke-dasharray:none;stroke-opacity:1"
     stroke-miterlimit="10"
     d="m 3.103096,11.180369 c 1.738006,0 4.2944,0 6.134859,0"
     id="path830-3" /><path
     inkscape:connector-curvature="0"
     style="fill:#808080;stroke:#808080;stroke-width:1.02856255;stroke-linecap:round;stroke-linejoin:round;stroke-miterlimit:10;stroke-dasharray:none;stroke-opacity:1"
     stroke-miterlimit="10"
     d="m 3.140658,15.620519 c 2.355015,0 5.818955,0 8.312794,0"
     id="path832-8" /><path
     inkscape:connector-curvature="0"
     style="fill:#808080;stroke:#808080;stroke-width:1.02856255;stroke-linecap:round;stroke-linejoin:round;stroke-miterlimit:10;stroke-dasharray:none;stroke-opacity:1"
     stroke-miterlimit="10"
     d="m 3.22373,13.464011 c 0.775797,0 5.430575,0 6.206371,0"
     id="path834-6" /><path
     inkscape:connector-curvature="0"
     style="fill:#808080;stroke-width:0.49237397"
     d="M 13.2178,10.350859 C 13.103537,10.226612 12.986465,10.100294 12.871266,9.971906 12.755129,9.844552 12.640866,9.715128 12.528477,9.58881 11.726765,8.684394 11.249577,8.17291 10.751785,8.17291 H 2.484174 c -1.032579,0 -1.87316,0.929265 -1.87316,2.070786 v 5.835126 c 0,1.141521 0.840581,2.070786 1.87316,2.070786 h 10.140771 c 1.032579,0 1.87316,-0.929265 1.87316,-2.070786 v -3.76434 c 0,-0.549794 -0.46267,-1.077844 -1.280305,-1.963623 z m 0.343725,5.727963 c 0,0.571537 -0.419588,1.035393 -0.93658,1.035393 H 2.484174 c -0.516992,0 -0.93658,-0.463856 -0.93658,-1.035393 v -5.835126 c 0,-0.571537 0.419588,-1.035393 0.93658,-1.035393 l 7.934656,-0.0021 c 0.337638,0.09526 0.332955,0.553935 0.332955,1.013132 v 1.577421 c 0,0.285251 0.210263,0.517697 0.468291,0.517697 h 1.404869 c 0.467354,0 0.93658,0.0026 0.93658,0.517696 z"
     id="path836-7"
     sodipodi:nodetypes="cccsssssssscsssssccssssss" /><g
     transform="matrix(0.44999434,0,0,0.43863691,4.45181,-2.5920564)"
     id="g858"
     style="fill:#808080"><path
       inkscape:connector-curvature="0"
       d="m 16.8,19.3 6.7,-5.9 c 0.2,-0.2 0.2,-0.6 0,-0.8 L 16.8,6.7 C 16.5,6.4 16,6.7 16,7.1 V 10 C 2.9,10 3,24 3,24 3,24 3.9,16 16,16 v 2.9 c 0,0.4 0.5,0.7 0.8,0.4 z"
       id="path856"
       style="fill:#808080" /></g><path
     inkscape:connector-curvature="0"
     d="m 20.138849,19.025867 c -1.872029,0 -3.389549,1.413359 -3.389549,3.156895 0,1.743538 1.51752,3.157143 3.389549,3.157143 1.872031,0 3.389814,-1.413605 3.389814,-3.157143 0,-1.743536 -1.517783,-3.156895 -3.389814,-3.156895 z m 1.782081,2.179913 -1.817795,2.496541 c -0.0545,0.07466 -0.139688,0.124186 -0.224348,0.124186 -0.08466,0 -0.178579,-0.04312 -0.238104,-0.09831 l -1.066708,-0.993738 c -0.07249,-0.06776 -0.07249,-0.177901 0,-0.245416 l 0.263501,-0.245908 c 0.07249,-0.06702 0.191013,-0.06702 0.263239,0 l 0.693941,0.646311 1.509318,-2.073222 c 0.05741,-0.07886 0.173816,-0.0993 0.259004,-0.04608 l 0.308478,0.194903 c 0.08466,0.05347 0.106883,0.161887 0.04947,0.240735 z"
     id="path5415"
     style="fill:#808080;stroke-width:0.25531957" /><path
     inkscape:connector-curvature="0"
     d="m 7.3287265,18.771393 c -1.87203,0 -3.389549,1.465439 -3.389549,3.273222 0,1.807784 1.517519,3.273478 3.389549,3.273478 1.87203,0 3.3898145,-1.465694 3.3898145,-3.273478 0,-1.807783 -1.5177845,-3.273222 -3.3898145,-3.273222 z m 1.52916,4.395806 -0.36721,0.354352 c -0.0672,0.06515 -0.177256,0.06515 -0.244454,0 l -0.917496,-0.886008 -0.917231,0.885753 c -0.06746,0.06515 -0.177256,0.06515 -0.244719,-5.11e-4 l -0.36721,-0.353586 c -0.06693,-0.0654 -0.06693,-0.170917 0,-0.236575 l 0.917496,-0.885753 -0.917231,-0.885753 c -0.0672,-0.0654 -0.0672,-0.171683 0,-0.23632 l 0.36721,-0.354607 c 0.06746,-0.06566 0.17752,-0.06566 0.244718,0 l 0.916967,0.886008 0.917496,-0.886008 c 0.06746,-0.06566 0.17752,-0.06566 0.244454,0 l 0.36721,0.354096 c 0.0672,0.06515 0.0672,0.171428 2.64e-4,0.236831 l -0.917496,0.885753 0.917496,0.885753 c 0.06667,0.06566 0.06667,0.171172 -2.64e-4,0.236575 z"
     id="path5976"
     style="fill:#808080;stroke-width:0.2599811" /></svg>