<?xml version="1.0" encoding="UTF-8" standalone="no"?>
<!-- Generator: Adobe Illustrator 15.0.0, SVG Export Plug-In . SVG Version: 6.00 Build 0)  -->

<svg
   xmlns:dc="http://purl.org/dc/elements/1.1/"
   xmlns:cc="http://creativecommons.org/ns#"
   xmlns:rdf="http://www.w3.org/1999/02/22-rdf-syntax-ns#"
   xmlns:svg="http://www.w3.org/2000/svg"
   xmlns="http://www.w3.org/2000/svg"
   xmlns:sodipodi="http://sodipodi.sourceforge.net/DTD/sodipodi-0.dtd"
   xmlns:inkscape="http://www.inkscape.org/namespaces/inkscape"
   version="1.1"
   id="Layer_1"
   x="0px"
   y="0px"
   width="416px"
   height="416px"
   viewBox="0 0 26 26"
   enable-background="new 0 0 26 26"
   xml:space="preserve"
   sodipodi:docname="icons8_headset_key_double.svg"
   inkscape:version="0.92.2 (5c3e80d, 2017-08-06)"><metadata
     id="metadata830"><rdf:RDF><cc:Work
         rdf:about=""><dc:format>image/svg+xml</dc:format><dc:type
           rdf:resource="http://purl.org/dc/dcmitype/StillImage" /><dc:title></dc:title></cc:Work></rdf:RDF></metadata><defs
     id="defs828" /><sodipodi:namedview
     pagecolor="#ffffff"
     bordercolor="#666666"
     borderopacity="1"
     objecttolerance="10"
     gridtolerance="10"
     guidetolerance="10"
     inkscape:pageopacity="0"
     inkscape:pageshadow="2"
     inkscape:window-width="737"
     inkscape:window-height="480"
     id="namedview826"
     showgrid="false"
     inkscape:zoom="0.26862981"
     inkscape:cx="174.48398"
     inkscape:cy="117.92219"
     inkscape:window-x="0"
     inkscape:window-y="0"
     inkscape:window-maximized="1"
     inkscape:current-layer="Layer_1" /><path
     stroke-miterlimit="10"
     d="m 2.7320169,9.8289855 c 0,-4.8491328 3.6875796,-8.7803228 8.2347051,-8.7803228 4.547126,0 8.234706,3.93119 8.234706,8.7803228"
     id="path815"
     style="fill:none;stroke:#808080;stroke-width:1.54601204;stroke-miterlimit:10;stroke-opacity:1"
     inkscape:connector-curvature="0" /><path
     d="m 3.9084034,6.636141 c 0,0 0.4148723,0 0,0 -1.9488803,0 -3.13703069,1.6083955 -3.13703069,3.59195 0,1.983555 1.18815039,3.59195 3.13703069,3.59195 0.4148723,0 0,0 0,0 0.4336945,0 0.7842578,-0.356799 0.7842578,-0.798211 V 7.4343521 c 0,-0.4406126 -0.3505633,-0.7982111 -0.7842578,-0.7982111 z"
     id="path817"
     style="fill:#808080;stroke:#808080;stroke-width:0.79120368;stroke-opacity:1"
     inkscape:connector-curvature="0" /><path
     d="m 18.025042,13.820041 c 0,0 -0.414873,0 0,0 1.94888,0 3.13703,-1.608395 3.13703,-3.59195 0,-1.9835545 -1.18815,-3.59195 -3.13703,-3.59195 -0.414873,0 0,0 0,0 -0.433695,0 -0.784258,0.3575985 -0.784258,0.7982111 V 13.02183 c 0,0.441412 0.350563,0.798211 0.784258,0.798211 z"
     id="path819"
     style="fill:#808080;stroke:#808080;stroke-width:0.79120368;stroke-opacity:1"
     inkscape:connector-curvature="0" /><ellipse
     cx="11.75098"
     cy="19.008415"
     rx="2.352773"
     ry="1.995528"
     id="ellipse821"
     style="fill:#808080;stroke:#808080;stroke-width:0.79120368;stroke-opacity:1" /><path
     stroke-miterlimit="10"
     d="m 12.143109,19.008414 c 0.316056,0 3.088407,0 3.398973,0 0.403893,0 3.52916,-1.928478 3.659346,-6.38569"
     id="path823"
     style="fill:none;stroke:#808080;stroke-width:1.10768509;stroke-miterlimit:10;stroke-opacity:1"
     inkscape:connector-curvature="0" /><ellipse
     cx="21.280251"
     cy="22.94739"
     id="circle828-8"
     style="fill:#808080;stroke-width:0.32035714"
     rx="1.8621893"
     ry="1.9840273" /><path
     style="fill:none;stroke:#808080;stroke-width:0.64071429;stroke-linecap:round;stroke-linejoin:round;stroke-miterlimit:10;stroke-opacity:1"
     d="m 25.23647,22.10451 c -0.368094,-1.97047 -1.99875,-3.455844 -3.956221,-3.455844 -1.957471,0 -3.588128,1.485374 -3.956221,3.455844"
     id="path830"
     inkscape:connector-curvature="0" /><path
     style="fill:none;stroke:#808080;stroke-width:0.64071429;stroke-linecap:round;stroke-linejoin:round;stroke-miterlimit:10;stroke-opacity:1"
     d="m 24.019218,22.363757 c -0.254808,-1.364019 -1.383916,-2.392406 -2.738969,-2.392406 -1.355054,0 -2.484161,1.028387 -2.738969,2.392406"
     id="path832-4"
     inkscape:connector-curvature="0" /></svg>