<?xml version="1.0" encoding="utf-8"?>
<!-- Generator: Adobe Illustrator 15.0.0, SVG Export Plug-In . SVG Version: 6.00 Build 0)  -->
<!DOCTYPE svg PUBLIC "-//W3C//DTD SVG 1.1//EN" "http://www.w3.org/Graphics/SVG/1.1/DTD/svg11.dtd">
<svg xmlns="http://www.w3.org/2000/svg" xmlns:xlink="http://www.w3.org/1999/xlink" version="1.1" id="Layer_1" x="0px" y="0px" width="416px" height="416px" viewBox="0 0 26 26" enable-background="new 0 0 26 26" xml:space="preserve">


<path fill="#808080" d="M11.516,5.726l4.273,4.187c0.254,0.13,0.56,0.113,0.803-0.034c0.245-0.146,0.394-0.409,0.394-0.691V0.813  c0-0.281-0.148-0.545-0.394-0.691C16.461,0.042,16.311,0,16.16,0c-0.127,0-0.254,0.029-0.371,0.087l-4.273,4.187  C11.262,4.514,11.063,4.692,11.063,5C11.063,5.307,11.232,5.474,11.516,5.726z"/>
<path fill="#808080" d="M14.484,20.274l-4.273-4.187c-0.254-0.13-0.56-0.113-0.803,0.034c-0.245,0.146-0.394,0.409-0.394,0.691  v8.374c0,0.281,0.148,0.545,0.394,0.691C9.539,25.958,9.689,26,9.84,26c0.127,0,0.254-0.029,0.371-0.087l4.273-4.187  c0.254-0.24,0.453-0.419,0.453-0.727C14.938,20.693,14.768,20.526,14.484,20.274z"/>
<path fill="none" stroke="#808080" stroke-width="4" stroke-linecap="round" stroke-linejoin="round" stroke-miterlimit="10" d="  M11,21H7c-2.762,0-5-2.238-5-5v-6c0-2.762,2.238-5,5-5"/>
<path fill="none" stroke="#808080" stroke-width="4" stroke-linecap="round" stroke-linejoin="round" stroke-miterlimit="10" d="  M16,5h3c2.762,0,5,2.238,5,5v6c0,2.762-2.238,5-5,5"/>
</svg>
