<?xml version="1.0" encoding="UTF-8" standalone="no"?>
<svg
   xmlns:dc="http://purl.org/dc/elements/1.1/"
   xmlns:cc="http://creativecommons.org/ns#"
   xmlns:rdf="http://www.w3.org/1999/02/22-rdf-syntax-ns#"
   xmlns:svg="http://www.w3.org/2000/svg"
   xmlns="http://www.w3.org/2000/svg"
   xmlns:sodipodi="http://sodipodi.sourceforge.net/DTD/sodipodi-0.dtd"
   xmlns:inkscape="http://www.inkscape.org/namespaces/inkscape"
   width="500px"
   height="500px"
   viewBox="0 0 26 26"
   version="1.1"
   id="svg829"
   sodipodi:docname="icons8_ext_toolbar.svg"
   inkscape:version="1.0.1 (3bc2e813f5, 2020-09-07)">
  <metadata
     id="metadata835">
    <rdf:RDF>
      <cc:Work
         rdf:about="">
        <dc:format>image/svg+xml</dc:format>
        <dc:type
           rdf:resource="http://purl.org/dc/dcmitype/StillImage" />
        <dc:title></dc:title>
      </cc:Work>
    </rdf:RDF>
  </metadata>
  <defs
     id="defs833" />
  <sodipodi:namedview
     pagecolor="#ffffff"
     bordercolor="#666666"
     borderopacity="1"
     objecttolerance="10"
     gridtolerance="10"
     guidetolerance="10"
     inkscape:pageopacity="0"
     inkscape:pageshadow="2"
     inkscape:window-width="1920"
     inkscape:window-height="1017"
     id="namedview831"
     showgrid="false"
     inkscape:zoom="0.894"
     inkscape:cx="239.81804"
     inkscape:cy="307.53516"
     inkscape:window-x="-8"
     inkscape:window-y="-8"
     inkscape:window-maximized="1"
     inkscape:current-layer="svg829"
     inkscape:document-rotation="0" />
  <g
     id="surface1"
     style="fill:#808080">
    <path
       style="fill:#808080;fill-opacity:1;fill-rule:nonzero;stroke:none"
       d="M 20.78125,5.352375 H 4.824219 C 2.164063,5.352375 0,7.520344 0,10.176594 V 16.1085 c 0,2.65625 2.164063,4.824219 4.824219,4.824219 H 20.78125 c 2.660156,0 4.824219,-2.167969 4.824219,-4.824219 v -5.931906 c 0,-2.65625 -2.164063,-4.824219 -4.824219,-4.824219 z m -6.007812,9.205813 v 2.953125 H 10.832031 V 14.558188 Z M 10.832031,11.726906 V 8.773781 h 3.941407 v 2.953125 z M 3.9375,9.758156 c 0,-0.59375 0.3948989,-1.0052721 0.988281,-0.984375 h 2.953125 v 2.953125 H 4.925781 c -0.59375,0 -0.988281,-0.390625 -0.988281,-0.984375 z m 0,6.768782 v -0.984375 c 0,-0.589844 0.3948989,-0.963478 0.988281,-0.984375 h 2.953125 v 2.953125 H 4.925781 c -0.59375,0 -0.988281,-0.390625 -0.988281,-0.984375 z m 17.730469,0 c 0,0.59375 -0.394531,0.984375 -0.984375,0.984375 h -2.957031 v -2.953125 h 2.957031 c 0.589844,0 0.984375,0.394531 0.984375,0.984375 z m 0,-5.784407 c 0,0.59375 -0.394895,0.963643 -0.984375,0.984375 H 17.726563 V 8.773781 h 2.957031 c 0.589844,0 0.984375,0.390625 0.984375,0.984375 z"
       id="path826"
       sodipodi:nodetypes="sssssssssccccccccccssccssssssccssssccsssssccsss" />
  </g>
</svg>
