<?xml version="1.0" encoding="UTF-8" standalone="no"?>
<svg
   xmlns:dc="http://purl.org/dc/elements/1.1/"
   xmlns:cc="http://creativecommons.org/ns#"
   xmlns:rdf="http://www.w3.org/1999/02/22-rdf-syntax-ns#"
   xmlns:svg="http://www.w3.org/2000/svg"
   xmlns="http://www.w3.org/2000/svg"
   xmlns:sodipodi="http://sodipodi.sourceforge.net/DTD/sodipodi-0.dtd"
   xmlns:inkscape="http://www.inkscape.org/namespaces/inkscape"
   version="1.1"
   id="Layer_1"
   x="0px"
   y="0px"
   width="416px"
   height="416px"
   viewBox="0 0 26 26"
   enable-background="new 0 0 26 26"
   xml:space="preserve"
   sodipodi:docname="icons8_prevent_accidental_tap_interval.svg"
   inkscape:version="1.0.1 (3bc2e813f5, 2020-09-07)"><metadata
   id="metadata11"><rdf:RDF><cc:Work
       rdf:about=""><dc:format>image/svg+xml</dc:format><dc:type
         rdf:resource="http://purl.org/dc/dcmitype/StillImage" /><dc:title></dc:title></cc:Work></rdf:RDF></metadata><defs
   id="defs9" /><sodipodi:namedview
   pagecolor="#ffffff"
   bordercolor="#666666"
   borderopacity="1"
   objecttolerance="10"
   gridtolerance="10"
   guidetolerance="10"
   inkscape:pageopacity="0"
   inkscape:pageshadow="2"
   inkscape:window-width="1920"
   inkscape:window-height="1017"
   id="namedview7"
   showgrid="false"
   inkscape:zoom="1.0216346"
   inkscape:cx="42.578824"
   inkscape:cy="289.75082"
   inkscape:window-x="-8"
   inkscape:window-y="-8"
   inkscape:window-maximized="1"
   inkscape:current-layer="Layer_1" />

<path
   fill="#808080"
   d="M 8.5308165,11.082271 C 8.4044349,10.654296 8.2830798,10.225604 8.191884,9.8148635 7.5922895,9.4601335 7.1844216,8.8145818 7.1844216,8.0684996 c 0,-1.1223547 0.9126762,-2.0343128 2.0343128,-2.0343128 1.1216366,0 2.0343136,0.9126761 2.0343136,2.0343128 0,0.1543866 -0.02083,0.3030286 -0.05314,0.4473621 0.194599,0.4286918 0.351858,0.9112398 0.489729,1.4016868 0.387761,-0.517016 0.626163,-1.152514 0.626163,-1.8490489 0,-1.711178 -1.385889,-3.0970671 -3.0970675,-3.0970671 -1.711178,0 -3.0963489,1.3858891 -3.0963489,3.0970671 0,1.4734949 1.0304408,2.7006884 2.408431,3.0137714 z"
   id="path2"
   style="stroke-width:0.718077" />
<path
   fill="#808080"
   d="M 6.3916644,18.414557 C 7.1549805,17.589486 8.0116466,17.912621 9.1584159,18.087114 10.143618,18.238628 11.113741,17.962168 11.049114,17.430073 10.947146,16.569098 10.803531,16.184209 10.476806,15.069035 10.216144,14.182209 9.7213887,12.58377 9.2711543,11.055702 8.6679692,9.0113345 8.4934764,8.0620369 9.2962865,7.8250714 10.16157,7.5730263 10.657761,8.8023745 11.107278,10.50709 c 0.511989,1.940245 0.781267,2.796911 0.932064,2.751672 0.265689,-0.07611 -0.09766,-0.906213 0.59744,-1.110865 0.868874,-0.252764 1.036904,0.426538 1.280332,0.358321 0.243428,-0.07324 0.16085,-0.761163 0.853794,-0.963661 0.696535,-0.201061 1.046238,0.656323 1.333469,0.570872 0.284359,-0.08402 0.277896,-0.393506 0.707307,-0.516297 0.430128,-0.127818 2.048674,0.596722 2.974993,3.761288 1.162568,3.978866 -0.147205,4.718485 0.249891,6.065599 l -5.189544,1.973276 C 14.426949,22.38696 13.125793,22.31228 11.974715,21.668165 10.81502,21.015432 10.02729,19.743718 7.0049023,19.805472 5.8681861,19.828452 5.9220419,18.922238 6.3916644,18.414557 Z"
   id="path4"
   style="stroke-width:0.718077" />
<path
   style="fill:none;stroke:#808080;stroke-width:0.900411;stroke-linecap:round;stroke-linejoin:round;stroke-miterlimit:10;stroke-opacity:1"
   d="m 20.621327,22.632743 c 1.241393,-0.277591 2.177328,-2.406534 2.177328,-5.347027 0,-2.940494 -0.863225,-5.115329 -2.177328,-5.622378"
   id="path832"
   sodipodi:nodetypes="csc" /><g
   id="surface1"
   style="fill:#808080"
   transform="matrix(0.07016753,0,0,0.07016753,15.585061,1.0999058)"><path
     style="fill:#808080;fill-opacity:1;fill-rule:nonzero;stroke:none"
     d="m 42.59375,0 c -1.875,0.355469 -3.230469,2.015625 -3.199219,3.9375 v 3.941406 c 0,2.167969 1.769532,3.9375 3.9375,3.9375 v 4.679688 c -20.125,3.722656 -35.453125,21.421875 -35.453125,42.59375 0,23.867187 19.480469,43.335936 43.332032,43.335936 23.867187,0 43.335937,-19.468749 43.335937,-43.335936 0,-12.339844 -5.203125,-23.480469 -13.542969,-31.390625 L 85.1875,22.527344 c 1.355469,-1.691406 1.078125,-4.183594 -0.613281,-5.539063 l -4.800781,-3.691406 c -0.07813,-0.09375 -0.15625,-0.171875 -0.246094,-0.246094 -1.722656,-1.140625 -4.03125,-0.769531 -5.292969,0.859375 l -4.679687,6.03125 C 66.261719,18.40625 62.769531,17.171875 59.089844,16.496094 v -4.679688 c 2.171875,0 3.941406,-1.769531 3.941406,-3.9375 V 3.9375 C 63.03125,1.769531 61.261719,0 59.089844,0 H 43.332031 c -0.121093,0 -0.246093,0 -0.367187,0 -0.125,0 -0.246094,0 -0.371094,0 z m 8.617188,27.574219 c 17.480468,0 31.515625,14.050781 31.515625,31.515625 0,17.464844 -14.035157,31.515625 -31.515625,31.515625 -17.449219,0 -31.515625,-14.050781 -31.515625,-31.515625 0,-17.464844 14.066406,-31.515625 31.515625,-31.515625 z M 27.082031,40.5 c -0.722656,0.125 -1.398437,0.554688 -1.84375,1.234375 -0.910156,1.335938 -0.386718,2.890625 0.859375,4.0625 0.941407,0.859375 11.894532,9.785156 17.359375,14.277344 0.492188,3.878906 3.738282,6.894531 7.753907,6.894531 4.355468,0 7.878906,-3.523437 7.878906,-7.878906 0,-4.355469 -3.523438,-7.878906 -7.878906,-7.878906 -0.722657,0 -1.429688,0.0625 -2.089844,0.246093 C 42.6875,48.058594 29.929688,41.332031 29.300781,40.996094 28.589844,40.609375 27.804688,40.378906 27.082031,40.5 Z"
     id="path2-2" /></g><path
   style="fill:none;stroke:#808080;stroke-width:0.900411;stroke-linecap:round;stroke-linejoin:round;stroke-miterlimit:10;stroke-opacity:1"
   d="m 22.867452,22.639197 c 1.241393,-0.277591 2.177329,-2.406534 2.177329,-5.347027 0,-2.940494 -0.863226,-5.115329 -2.177329,-5.622378"
   id="path832-4"
   sodipodi:nodetypes="csc" /><path
   style="fill:none;stroke:#808080;stroke-width:0.900411;stroke-linecap:round;stroke-linejoin:round;stroke-miterlimit:10;stroke-opacity:1"
   d="m 5.7340454,22.479189 c -1.2413933,-0.27759 -2.1773287,-2.406533 -2.1773287,-5.347026 0,-2.940495 0.8632254,-5.11533 2.1773287,-5.622379"
   id="path832-6"
   sodipodi:nodetypes="csc" /><path
   style="fill:none;stroke:#808080;stroke-width:0.900411;stroke-linecap:round;stroke-linejoin:round;stroke-miterlimit:10;stroke-opacity:1"
   d="M 3.4879201,22.485643 C 2.2465268,22.208053 1.3105914,20.07911 1.3105914,17.138617 c 0,-2.940495 0.8632254,-5.11533 2.1773287,-5.622379"
   id="path832-4-5"
   sodipodi:nodetypes="csc" /></svg>
