<?xml version="1.0" encoding="UTF-8" standalone="no"?>
<svg
   width="104pt"
   height="104pt"
   viewBox="0 0 104 104"
   version="1.1"
   id="svg5"
   sodipodi:docname="icons8_font_scale.svg"
   inkscape:version="1.1.1 (3bf5ae0d25, 2021-09-20)"
   xmlns:inkscape="http://www.inkscape.org/namespaces/inkscape"
   xmlns:sodipodi="http://sodipodi.sourceforge.net/DTD/sodipodi-0.dtd"
   xmlns="http://www.w3.org/2000/svg"
   xmlns:svg="http://www.w3.org/2000/svg">
  <defs
     id="defs9" />
  <sodipodi:namedview
     id="namedview7"
     pagecolor="#ffffff"
     bordercolor="#666666"
     borderopacity="1.0"
     inkscape:pageshadow="2"
     inkscape:pageopacity="0.0"
     inkscape:pagecheckerboard="0"
     inkscape:document-units="pt"
     showgrid="false"
     inkscape:zoom="5.6394231"
     inkscape:cx="69.244672"
     inkscape:cy="69.333333"
     inkscape:window-width="1920"
     inkscape:window-height="995"
     inkscape:window-x="0"
     inkscape:window-y="0"
     inkscape:window-maximized="1"
     inkscape:current-layer="svg5" />
  <g
     id="surface1"
     style="fill:#808080">
    <path
       style="fill:#808080;fill-opacity:1;fill-rule:nonzero;stroke:none"
       d="m 24.375,16.125 c -1.570312,0 -2.308594,0.464844 -2.707031,0.863281 -0.402344,0.402344 -0.832031,1.183594 -1.230469,1.96875 l -20.066406,65 c -0.402344,1.1875 -0.402344,1.941407 0,2.339844 0.398437,0 0.8125,0.371094 1.597656,0.371094 h 11.449219 c 0.785156,0 1.554687,-0.339844 2.339844,-0.738281 0.398437,-0.402344 1.230468,-1.277344 1.230468,-2.464844 l 3.570313,-12.554688 h 21.050781 l 3.324219,12.554688 c 0.398437,1.1875 0.707031,2.0625 1.109375,2.464844 0.398437,0.398437 1.277344,0.738281 2.460937,0.738281 h 12.925782 c 0.785156,0 1.230468,-0.339844 1.230468,-0.738281 0.402344,-0.402344 0.402344,-0.785157 0,-1.972657 L 41.734375,19.328125 C 41.332031,18.144531 41.023438,17.773438 40.625,16.988281 40.226563,16.589844 38.976563,16.125 37.792969,16.125 Z m 6.769531,16.992188 h 0.371094 l 6.894531,25.972656 H 23.882813 Z M 82.726563,20.453125 c -2.367188,0 -3.9375,1.570313 -3.9375,3.941406 v 7.878907 h -7.878907 c -2.371093,0 -3.941406,1.570312 -3.941406,3.9375 v 3.941406 c 0,2.367187 1.570313,3.9375 3.941406,3.9375 h 7.878907 v 7.878906 c 0,2.371094 1.570312,3.941406 3.9375,3.941406 h 3.941406 c 2.367187,0 3.9375,-1.570312 3.9375,-3.941406 v -7.878906 h 7.878906 c 2.371095,0 3.941405,-1.570313 3.941405,-3.9375 v -3.941406 c 0,-2.367188 -1.61215,-4.380948 -3.941405,-3.9375 h -7.878906 v -7.878907 c 0,-2.371093 -1.570313,-3.941406 -3.9375,-3.941406 z"
       id="path2"
       sodipodi:nodetypes="sscccsscccccsssccccsscccccsscsssscsssscsssscsss" />
  </g>
  <path
     d="m 71.134725,61.667484 c -2.37109,0 -3.9414,1.570312 -3.9414,3.9375 v 3.941406 c 0,2.367187 1.57031,3.9375 3.9414,3.9375 h 27.57422 c 2.371095,0 3.941405,-1.570313 3.941405,-3.9375 v -3.941406 c 0,-2.367188 -1.57031,-3.9375 -3.941405,-3.9375 z"
     style="fill:#808080;fill-opacity:1;fill-rule:nonzero;stroke:none;stroke-width:0.75"
     id="path36" />
</svg>
