<?xml version="1.0" encoding="UTF-8"?>
<svg xmlns="http://www.w3.org/2000/svg" xmlns:xlink="http://www.w3.org/1999/xlink" width="104pt" height="104pt" viewBox="0 0 104 104" version="1.1">
<g id="surface1">
<path style=" stroke:none;fill-rule:nonzero;fill:#5B5B5B;fill-opacity:1;" d="M 7.140625 3.9375 C 5.402344 3.9375 3.9375 5.371094 3.9375 7.140625 L 3.9375 95.285156 C 3.9375 97.054688 5.402344 98.484375 7.140625 98.484375 L 95.285156 98.484375 C 97.023438 98.484375 98.484375 97.054688 98.484375 95.285156 L 98.484375 7.140625 C 98.484375 5.371094 97.023438 3.9375 95.285156 3.9375 Z M 43.332031 19.695313 C 56.382813 19.695313 66.96875 30.285156 66.96875 43.332031 C 66.96875 48.441406 65.292969 53.136719 62.539063 57 L 83.21875 77.558594 C 83.710938 78.035156 83.621094 79.496094 81.496094 81.621094 C 79.371094 83.742188 78.109375 83.773438 77.558594 83.21875 C 77.003906 82.664063 57 62.539063 57 62.539063 C 53.136719 65.292969 48.441406 66.96875 43.332031 66.96875 C 30.285156 66.96875 19.695313 56.382813 19.695313 43.332031 C 19.695313 30.285156 30.285156 19.695313 43.332031 19.695313 Z M 43.332031 27.574219 C 34.625 27.574219 27.574219 34.625 27.574219 43.332031 C 27.574219 52.042969 34.625 59.089844 43.332031 59.089844 C 52.042969 59.089844 59.089844 52.042969 59.089844 43.332031 C 59.089844 34.625 52.042969 27.574219 43.332031 27.574219 Z "/>
</g>
</svg>
