<?xml version="1.0" encoding="UTF-8" standalone="no"?>
<svg
   width="104pt"
   height="104pt"
   viewBox="0 0 104 104"
   version="1.1"
   id="svg5"
   sodipodi:docname="icons8_tear_off_calendar.svg"
   inkscape:version="1.1.1 (3bf5ae0d25, 2021-09-20)"
   xmlns:inkscape="http://www.inkscape.org/namespaces/inkscape"
   xmlns:sodipodi="http://sodipodi.sourceforge.net/DTD/sodipodi-0.dtd"
   xmlns="http://www.w3.org/2000/svg"
   xmlns:svg="http://www.w3.org/2000/svg">
  <defs
     id="defs9" />
  <sodipodi:namedview
     id="namedview7"
     pagecolor="#ffffff"
     bordercolor="#666666"
     borderopacity="1.0"
     inkscape:pageshadow="2"
     inkscape:pageopacity="0.0"
     inkscape:pagecheckerboard="0"
     inkscape:document-units="pt"
     showgrid="false"
     inkscape:zoom="5.6394231"
     inkscape:cx="69.333333"
     inkscape:cy="69.333333"
     inkscape:window-width="1920"
     inkscape:window-height="995"
     inkscape:window-x="0"
     inkscape:window-y="0"
     inkscape:window-maximized="1"
     inkscape:current-layer="svg5" />
  <g
     id="surface1"
     style="fill:#808080">
    <path
       style="stroke:none;fill-rule:nonzero;fill:#808080;fill-opacity:1"
       d="M 27.574219 0 C 25.40625 0 23.636719 1.769531 23.636719 3.9375 L 23.636719 15.757813 C 23.636719 17.925781 25.40625 19.695313 27.574219 19.695313 C 29.746094 19.695313 31.515625 17.925781 31.515625 15.757813 L 31.515625 3.9375 C 31.515625 1.769531 29.746094 0 27.574219 0 Z M 74.847656 0 C 72.679688 0 70.910156 1.769531 70.910156 3.9375 L 70.910156 15.757813 C 70.910156 17.925781 72.679688 19.695313 74.847656 19.695313 C 77.019531 19.695313 78.789063 17.925781 78.789063 15.757813 L 78.789063 3.9375 C 78.789063 1.769531 77.019531 0 74.847656 0 Z M 11.816406 7.878906 C 5.292969 7.878906 0 13.171875 0 19.695313 L 0 90.605469 C 0 97.128906 5.292969 102.425781 11.816406 102.425781 L 90.605469 102.425781 C 97.128906 102.425781 102.425781 97.128906 102.425781 90.605469 L 102.425781 19.695313 C 102.425781 13.171875 97.128906 7.878906 90.605469 7.878906 L 82.726563 7.878906 L 82.726563 15.757813 C 82.726563 20.097656 79.203125 23.636719 74.847656 23.636719 C 70.492188 23.636719 66.96875 20.097656 66.96875 15.757813 L 66.96875 7.878906 L 35.453125 7.878906 L 35.453125 15.757813 C 35.453125 20.097656 31.929688 23.636719 27.574219 23.636719 C 23.222656 23.636719 19.695313 20.097656 19.695313 15.757813 L 19.695313 7.878906 Z M 7.878906 35.453125 L 94.546875 35.453125 L 94.546875 90.605469 C 94.546875 92.777344 92.777344 94.546875 90.605469 94.546875 L 11.816406 94.546875 C 9.648438 94.546875 7.878906 92.777344 7.878906 90.605469 Z M 17.113281 43.332031 C 16.265625 43.609375 15.710938 44.410156 15.757813 45.304688 L 15.757813 56.011719 C 15.3125 56.691406 15.3125 57.550781 15.757813 58.230469 L 15.757813 72.015625 C 15.496094 72.554688 15.496094 73.203125 15.757813 73.742188 L 15.757813 84.695313 C 15.757813 85.789063 16.632813 86.667969 17.726563 86.667969 L 84.695313 86.667969 C 85.789063 86.667969 86.667969 85.789063 86.667969 84.695313 L 86.667969 73.371094 C 86.726563 73.09375 86.726563 72.785156 86.667969 72.507813 L 86.667969 57.613281 C 86.726563 57.335938 86.726563 57.027344 86.667969 56.75 L 86.667969 45.304688 C 86.667969 44.210938 85.789063 43.332031 84.695313 43.332031 L 17.726563 43.332031 C 17.605469 43.316406 17.480469 43.316406 17.359375 43.332031 C 17.28125 43.332031 17.1875 43.332031 17.113281 43.332031 Z M 19.695313 47.273438 L 31.515625 47.273438 L 31.515625 51.582031 C 29.808594 52.167969 28.53125 53.445313 27.945313 55.152344 L 19.695313 55.152344 Z M 35.453125 47.273438 L 51.210938 47.273438 L 51.210938 51.210938 L 35.453125 51.210938 Z M 55.152344 47.273438 L 66.96875 47.273438 L 66.96875 55.152344 L 58.722656 55.152344 C 58.136719 53.445313 56.859375 52.167969 55.152344 51.582031 Z M 70.910156 47.273438 L 82.726563 47.273438 L 82.726563 55.152344 L 70.910156 55.152344 Z M 19.695313 59.089844 L 27.574219 59.089844 L 27.574219 70.910156 L 19.695313 70.910156 Z M 35.453125 59.089844 L 51.210938 59.089844 L 51.210938 70.910156 L 35.453125 70.910156 Z M 59.089844 59.089844 L 66.96875 59.089844 L 66.96875 70.910156 L 59.089844 70.910156 Z M 70.910156 59.089844 L 82.726563 59.089844 L 82.726563 70.910156 L 70.910156 70.910156 Z M 19.695313 74.847656 L 27.945313 74.847656 C 28.53125 76.554688 29.808594 77.832031 31.515625 78.417969 L 31.515625 82.726563 L 19.695313 82.726563 Z M 58.722656 74.847656 L 66.96875 74.847656 L 66.96875 82.726563 L 55.152344 82.726563 L 55.152344 78.417969 C 56.859375 77.832031 58.136719 76.554688 58.722656 74.847656 Z M 70.910156 74.847656 L 82.726563 74.847656 L 82.726563 82.726563 L 70.910156 82.726563 Z M 35.453125 78.789063 L 51.210938 78.789063 L 51.210938 82.726563 L 35.453125 82.726563 Z "
       id="path2" />
  </g>
</svg>
