<?xml version="1.0" encoding="UTF-8" standalone="no"?>
<!-- Generator: Adobe Illustrator 15.0.0, SVG Export Plug-In . SVG Version: 6.00 Build 0)  -->

<svg
   version="1.1"
   id="Layer_1"
   x="0px"
   y="0px"
   width="416px"
   height="416px"
   viewBox="0 0 26 26"
   enable-background="new 0 0 26 26"
   xml:space="preserve"
   sodipodi:docname="icons8_folder.svg"
   inkscape:version="1.3.1 (6036e22fae, 2023-11-19, custom)"
   xmlns:inkscape="http://www.inkscape.org/namespaces/inkscape"
   xmlns:sodipodi="http://sodipodi.sourceforge.net/DTD/sodipodi-0.dtd"
   xmlns="http://www.w3.org/2000/svg"
   xmlns:svg="http://www.w3.org/2000/svg"><defs
   id="defs2" /><sodipodi:namedview
   id="namedview2"
   pagecolor="#ffffff"
   bordercolor="#000000"
   borderopacity="0.25"
   inkscape:showpageshadow="2"
   inkscape:pageopacity="0.0"
   inkscape:pagecheckerboard="0"
   inkscape:deskcolor="#d1d1d1"
   inkscape:zoom="1.9495192"
   inkscape:cx="208"
   inkscape:cy="208"
   inkscape:window-width="1850"
   inkscape:window-height="1011"
   inkscape:window-x="0"
   inkscape:window-y="0"
   inkscape:window-maximized="1"
   inkscape:current-layer="Layer_1" />

<path
   fill="#808080"
   d="M23,5H3C1.344,5,0,6.344,0,8v14c0,1.656,1.344,3,3,3h20c1.656,0,3-1.344,3-3V8C26,6.344,24.656,5,23,5z   M24,22c0,0.552-0.448,1-1,1H3c-0.552,0-1-0.448-1-1V8c0-0.552,0.448-1,1-1h20c0.552,0,1,0.448,1,1V22z"
   id="path1" />
<path
   fill="#808080"
   d="M8,2H3C1.344,2,0,3.344,0,5v4c0,0,0.302-3,3-3h8V5C11,3.344,9.656,2,8,2z"
   id="path2" />
</svg>
