<?xml version="1.0" encoding="UTF-8" standalone="no"?>
<!-- Generator: Adobe Illustrator 15.0.0, SVG Export Plug-In . SVG Version: 6.00 Build 0)  -->

<svg
   xmlns:dc="http://purl.org/dc/elements/1.1/"
   xmlns:cc="http://creativecommons.org/ns#"
   xmlns:rdf="http://www.w3.org/1999/02/22-rdf-syntax-ns#"
   xmlns:svg="http://www.w3.org/2000/svg"
   xmlns="http://www.w3.org/2000/svg"
   xmlns:sodipodi="http://sodipodi.sourceforge.net/DTD/sodipodi-0.dtd"
   xmlns:inkscape="http://www.inkscape.org/namespaces/inkscape"
   version="1.1"
   id="Layer_1"
   x="0px"
   y="0px"
   width="416px"
   height="416px"
   viewBox="0 0 26 26"
   enable-background="new 0 0 26 26"
   xml:space="preserve"
   sodipodi:docname="icons8-position-from-gd.svg"
   inkscape:version="0.92.2 (5c3e80d, 2017-08-06)"><metadata
     id="metadata861"><rdf:RDF><cc:Work
         rdf:about=""><dc:format>image/svg+xml</dc:format><dc:type
           rdf:resource="http://purl.org/dc/dcmitype/StillImage" /><dc:title /></cc:Work></rdf:RDF></metadata><defs
     id="defs859" /><sodipodi:namedview
     pagecolor="#ffffff"
     bordercolor="#666666"
     borderopacity="1"
     objecttolerance="10"
     gridtolerance="10"
     guidetolerance="10"
     inkscape:pageopacity="0"
     inkscape:pageshadow="2"
     inkscape:window-width="737"
     inkscape:window-height="480"
     id="namedview857"
     showgrid="false"
     inkscape:zoom="0.28365385"
     inkscape:cx="109.33716"
     inkscape:cy="52.167497"
     inkscape:window-x="34"
     inkscape:window-y="74"
     inkscape:window-maximized="0"
     inkscape:current-layer="Layer_1" /><polygon
     transform="matrix(0,-0.23063669,-0.32469357,0,24.722972,14.089411)"
     style="fill:#808080"
     points="12,21.938 25.906,13 12,4.061 "
     id="polygon858" /><rect
     x="-13.865396"
     style="fill:#808080;stroke-width:0.2556664"
     y="-21.859388"
     width="3.4223351"
     height="2.5975487"
     id="rect856-6"
     transform="matrix(0,-1,-1,0,0,0)" /><g
     transform="matrix(0.39873449,0,0,0.39186171,15.49174,14.747327)"
     id="surface1"
     style="fill:#808080"><path
       inkscape:connector-curvature="0"
       style="fill:#808080;fill-opacity:1;fill-rule:nonzero;stroke:none"
       d="M 17.289063,1.96875 H 8.316406 L 0,16.078125 4.160156,23.988281 h 16.796875 l 4.648438,-8.398437 z M 24.160156,15.601563 15.15625,12.28125 10.214844,3.207031 h 6.378906 z m -13.851562,-0.585938 2.574219,-4.222656 2.414062,4.222656 z M 9.023438,3.207031 h 0.023437 l 1.695313,8.726563 -6.328125,9.871094 -3,-5.691407 z M 20.226563,22.75 H 4.910156 l -0.00391,-0.0039 7.886719,-6.488281 11.03125,-0.0039 z"
       id="path826" /></g><path
     inkscape:connector-curvature="0"
     d="m 8.8161788,1.18647 c -3.8300801,0 -6.9356944,2.936669 -6.9356944,6.558391 0,3.621724 6.0478687,10.082732 6.0478687,14.954512 h 1.7756513 c 0,-4.85583 6.0487586,-11.627462 6.0487586,-14.954512 0,-3.621722 -3.106503,-6.558391 -6.9365842,-6.558391 z m 0,9.24656 c -1.5696758,0 -2.8428179,-1.204723 -2.8428179,-2.688169 0,-1.483445 1.2731421,-2.688167 2.8428179,-2.688167 1.5696752,0 2.8428172,1.203882 2.8428172,2.688167 0,1.484286 -1.273142,2.688169 -2.8428172,2.688169 z"
     id="path1411"
     style="fill:#808080;stroke-width:0.86333913" /></svg>