<?xml version="1.0" encoding="UTF-8" standalone="no"?>
<svg
   xmlns:dc="http://purl.org/dc/elements/1.1/"
   xmlns:cc="http://creativecommons.org/ns#"
   xmlns:rdf="http://www.w3.org/1999/02/22-rdf-syntax-ns#"
   xmlns:svg="http://www.w3.org/2000/svg"
   xmlns="http://www.w3.org/2000/svg"
   xmlns:sodipodi="http://sodipodi.sourceforge.net/DTD/sodipodi-0.dtd"
   xmlns:inkscape="http://www.inkscape.org/namespaces/inkscape"
   version="1.1"
   id="Layer_1"
   x="0px"
   y="0px"
   width="416px"
   height="416px"
   viewBox="0 0 26 26"
   enable-background="new 0 0 26 26"
   xml:space="preserve"
   sodipodi:docname="icons8_sun_cold.svg"
   inkscape:version="1.0.1 (3bc2e813f5, 2020-09-07)"><metadata
     id="metadata4955"><rdf:RDF><cc:Work
         rdf:about=""><dc:format>image/svg+xml</dc:format><dc:type
           rdf:resource="http://purl.org/dc/dcmitype/StillImage" /><dc:title></dc:title></cc:Work></rdf:RDF></metadata><defs
     id="defs4953" /><sodipodi:namedview
     pagecolor="#ffffff"
     bordercolor="#666666"
     borderopacity="1"
     objecttolerance="10"
     gridtolerance="10"
     guidetolerance="10"
     inkscape:pageopacity="0"
     inkscape:pageshadow="2"
     inkscape:window-width="1920"
     inkscape:window-height="995"
     id="namedview4951"
     showgrid="false"
     inkscape:zoom="1.6045885"
     inkscape:cx="84.558754"
     inkscape:cy="230.49745"
     inkscape:window-x="0"
     inkscape:window-y="0"
     inkscape:window-maximized="1"
     inkscape:current-layer="Layer_1"
     inkscape:document-rotation="0" /><g
     id="g4924"
     style="fill:#808080"><path
       fill="#000000"
       d="M13,8c2.757,0,5,2.243,5,5s-2.243,5-5,5s-5-2.243-5-5S10.243,8,13,8 M13,6c-3.866,0-7,3.134-7,7   s3.134,7,7,7s7-3.134,7-7S16.866,6,13,6L13,6z"
       id="path4922"
       style="fill:#808080" /></g><line
     fill="none"
     stroke="#000000"
     stroke-width="2"
     stroke-linecap="round"
     stroke-linejoin="round"
     stroke-miterlimit="10"
     x1="13"
     y1="1"
     x2="13"
     y2="4"
     id="line4926"
     style="fill:#999999;stroke:#808080;stroke-opacity:1" /><line
     fill="none"
     stroke="#000000"
     stroke-width="2"
     stroke-linecap="round"
     stroke-linejoin="round"
     stroke-miterlimit="10"
     x1="13"
     y1="22"
     x2="13"
     y2="25"
     id="line4928"
     style="fill:#999999;stroke:#808080;stroke-opacity:1" /><line
     fill="none"
     stroke="#000000"
     stroke-width="2"
     stroke-linecap="round"
     stroke-linejoin="round"
     stroke-miterlimit="10"
     x1="25"
     y1="13"
     x2="22"
     y2="13"
     id="line4930"
     style="fill:#999999;stroke:#808080;stroke-opacity:1" /><line
     fill="none"
     stroke="#000000"
     stroke-width="2"
     stroke-linecap="round"
     stroke-linejoin="round"
     stroke-miterlimit="10"
     x1="4"
     y1="13"
     x2="1"
     y2="13"
     id="line4932"
     style="fill:#999999;stroke:#808080;stroke-opacity:1" /><line
     fill="none"
     stroke="#000000"
     stroke-width="2"
     stroke-linecap="round"
     stroke-linejoin="round"
     stroke-miterlimit="10"
     x1="2.608"
     y1="7"
     x2="5.206"
     y2="8.5"
     id="line4934"
     style="fill:#999999;stroke:#808080;stroke-opacity:1" /><line
     fill="none"
     stroke="#000000"
     stroke-width="2"
     stroke-linecap="round"
     stroke-linejoin="round"
     stroke-miterlimit="10"
     x1="20.794"
     y1="17.5"
     x2="23.393"
     y2="19"
     id="line4936"
     style="fill:#999999;stroke:#808080;stroke-opacity:1" /><line
     fill="none"
     stroke="#000000"
     stroke-width="2"
     stroke-linecap="round"
     stroke-linejoin="round"
     stroke-miterlimit="10"
     x1="19"
     y1="2.607"
     x2="17.5"
     y2="5.205"
     id="line4938"
     style="fill:#999999;stroke:#808080;stroke-opacity:1" /><line
     fill="none"
     stroke="#000000"
     stroke-width="2"
     stroke-linecap="round"
     stroke-linejoin="round"
     stroke-miterlimit="10"
     x1="8.5"
     y1="20.794"
     x2="7"
     y2="23.393"
     id="line4940"
     style="fill:#999999;stroke:#808080;stroke-opacity:1" /><line
     fill="none"
     stroke="#000000"
     stroke-width="2"
     stroke-linecap="round"
     stroke-linejoin="round"
     stroke-miterlimit="10"
     x1="2.608"
     y1="18.999"
     x2="5.206"
     y2="17.5"
     id="line4942"
     style="fill:#999999;stroke:#808080;stroke-opacity:1" /><line
     fill="none"
     stroke="#000000"
     stroke-width="2"
     stroke-linecap="round"
     stroke-linejoin="round"
     stroke-miterlimit="10"
     x1="20.794"
     y1="8.5"
     x2="23.393"
     y2="7"
     id="line4944"
     style="fill:#999999;stroke:#808080;stroke-opacity:1" /><line
     fill="none"
     stroke="#000000"
     stroke-width="2"
     stroke-linecap="round"
     stroke-linejoin="round"
     stroke-miterlimit="10"
     x1="7"
     y1="2.607"
     x2="8.499"
     y2="5.205"
     id="line4946"
     style="fill:#999999;stroke:#808080;stroke-opacity:1" /><line
     fill="none"
     stroke="#000000"
     stroke-width="2"
     stroke-linecap="round"
     stroke-linejoin="round"
     stroke-miterlimit="10"
     x1="17.5"
     y1="20.794"
     x2="19.001"
     y2="23.393"
     id="line4948"
     style="fill:#999999;stroke:#808080;stroke-opacity:1" /><g
     id="surface1"
     transform="matrix(0.08333334,0,0,0.08333334,8.623971,8.8305722)"
     style="fill:#808080"><path
       style="fill:#808080;fill-opacity:1;fill-rule:nonzero;stroke:none"
       d="m 50.84375,-0.125 c -0.171875,0.03125 -0.339844,0.078125 -0.492187,0.125 -1.832032,0.414063 -3.125,2.0625 -3.078125,3.9375 V 14.035156 L 42.226563,8.988281 c -0.816407,-0.878906 -2,-1.324218 -3.203125,-1.234375 -0.167969,0.03125 -0.335938,0.078125 -0.492188,0.125 -1.476562,0.261719 -2.660156,1.339844 -3.078125,2.769532 -0.414062,1.445312 0.01563,2.984375 1.109375,4 l 8.988281,8.988281 -6.648437,6.648437 L 30.160156,32.625 26.835938,20.3125 C 26.4375,18.527344 24.851563,17.25 23.019531,17.234375 c -0.121093,0 -0.246093,0 -0.367187,0 -1.1875,0.09375 -2.261719,0.722656 -2.925781,1.707031 -0.660157,0.972657 -0.859375,2.203125 -0.523438,3.339844 l 1.847656,7.019531 -8.863281,-5.171875 c -0.785156,-0.460937 -1.691406,-0.632812 -2.585937,-0.492187 -1.707032,0.214844 -3.0625,1.507812 -3.382813,3.199219 -0.308594,1.695312 0.519531,3.386718 2.03125,4.1875 l 8.738281,5.046875 -6.769531,1.847656 c -2.109375,0.539062 -3.371094,2.691406 -2.832031,4.800781 0.539062,2.105469 2.691406,3.367188 4.800781,2.832031 L 24.5,42.226563 26.960938,51.210938 24.621094,60.199219 12.1875,56.875 c -0.523437,-0.152344 -1.0625,-0.183594 -1.601562,-0.125 -1.90625,0.234375 -3.351563,1.800781 -3.445313,3.726563 -0.09375,1.90625 1.199219,3.617187 3.078125,4.03125 L 16.988281,66.355469 8.25,71.402344 c -1.910156,1.089844 -2.570312,3.507812 -1.480469,5.414062 1.09375,1.910157 3.511719,2.570313 5.417969,1.480469 L 21.050781,73.125 19.203125,80.140625 c -0.539062,2.109375 0.726563,4.265625 2.832031,4.800781 2.109375,0.539063 4.261719,-0.722656 4.800782,-2.828125 l 3.324218,-12.3125 8.742188,2.339844 6.648437,6.648438 -8.988281,8.984375 c -1.570312,1.570312 -1.570312,4.09375 0,5.664062 1.570313,1.570313 4.09375,1.570313 5.664063,0 l 5.046875,-5.046875 v 10.09375 c -0.01563,1.417969 0.722656,2.738285 1.953125,3.460935 1.230468,0.71094 2.738281,0.71094 3.96875,0 1.234375,-0.72265 1.972656,-2.042966 1.957031,-3.460935 v -10.09375 l 5.046875,5.046875 c 1.570312,1.570313 4.09375,1.570313 5.664062,0 1.566407,-1.570312 1.566407,-4.09375 0,-5.664062 L 56.875,78.789063 l 6.648438,-6.648438 8.738281,-2.339844 3.324219,12.3125 C 76.125,84.21875 78.28125,85.480469 80.386719,84.941406 82.496094,84.40625 83.757813,82.25 83.21875,80.140625 L 81.375,73.125 l 8.863281,5.171875 c 1.90625,1.089844 4.324219,0.429688 5.414063,-1.480469 1.09375,-1.90625 0.433594,-4.324218 -1.476563,-5.414062 L 85.4375,66.355469 92.207031,64.507813 C 94.34375,64.03125 95.699219,61.90625 95.222656,59.769531 94.746094,57.628906 92.621094,56.273438 90.484375,56.75 c -0.07813,0.03125 -0.171875,0.07813 -0.246094,0.125 l -12.3125,3.324219 -2.460937,-8.988281 2.339844,-8.984375 12.433593,3.324218 C 92.34375,46.085938 94.5,44.824219 95.039063,42.71875 95.578125,40.609375 94.316406,38.457031 92.207031,37.917969 L 85.4375,36.070313 94.175781,31.023438 c 1.800782,-0.878907 2.648438,-2.957032 1.984375,-4.847657 -0.644531,-1.878906 -2.613281,-2.96875 -4.570312,-2.539062 -0.476563,0.07813 -0.9375,0.246094 -1.351563,0.492187 L 81.375,29.300781 83.21875,22.28125 c 0.355469,-1.214844 0.109375,-2.539062 -0.675781,-3.539062 -0.785156,-1 -2,-1.554688 -3.261719,-1.507813 -0.125,0 -0.246094,0 -0.371094,0 -1.644531,0.214844 -2.96875,1.445313 -3.324218,3.078125 L 72.261719,32.625 63.523438,30.285156 56.875,23.636719 65.863281,14.648438 c 1.566407,-1.570313 1.566407,-4.09375 0,-5.660157 -1.570312,-1.570312 -4.09375,-1.570312 -5.664062,0 l -5.046875,5.046875 V 3.9375 c 0.04687,-1.136719 -0.417969,-2.230469 -1.230469,-3 C 53.089844,0.152344 51.964844,-0.230469 50.84375,-0.125 Z m -3.570312,33.363281 v 11.203125 l -9.726563,-5.664062 4.554688,-1.230469 c 0.691406,-0.152344 1.339843,-0.492187 1.847656,-0.984375 z m 7.878906,0 3.324219,3.324219 c 0.507812,0.492188 1.152343,0.832031 1.84375,0.984375 L 64.875,38.777344 55.152344,44.441406 Z M 33.609375,45.671875 43.210938,51.210938 33.609375,56.75 34.839844,52.195313 c 0.167969,-0.644532 0.167969,-1.320313 0,-1.96875 z m 35.207031,0 -1.230468,4.554688 c -0.171875,0.648437 -0.171875,1.324218 0,1.96875 L 68.816406,56.75 59.214844,51.210938 Z m -21.542968,12.3125 V 69.1875 L 43.949219,65.863281 C 43.441406,65.371094 42.792969,65.03125 42.101563,64.875 l -4.554688,-1.230469 z m 7.878906,0 L 64.875,63.644531 60.320313,64.875 c -0.691407,0.15625 -1.335938,0.496094 -1.84375,0.988281 L 55.152344,69.1875 Z"
       id="path2" /></g></svg>
