<?xml version="1.0" encoding="UTF-8" standalone="no"?>
<svg
   xmlns:dc="http://purl.org/dc/elements/1.1/"
   xmlns:cc="http://creativecommons.org/ns#"
   xmlns:rdf="http://www.w3.org/1999/02/22-rdf-syntax-ns#"
   xmlns:svg="http://www.w3.org/2000/svg"
   xmlns="http://www.w3.org/2000/svg"
   xmlns:sodipodi="http://sodipodi.sourceforge.net/DTD/sodipodi-0.dtd"
   xmlns:inkscape="http://www.inkscape.org/namespaces/inkscape"
   width="500px"
   height="500px"
   viewBox="0 0 26 26"
   version="1.1"
   id="svg829"
   sodipodi:docname="icons8-font-face.svg"
   inkscape:version="0.92.2 (5c3e80d, 2017-08-06)">
  <metadata
     id="metadata835">
    <rdf:RDF>
      <cc:Work
         rdf:about="">
        <dc:format>image/svg+xml</dc:format>
        <dc:type
           rdf:resource="http://purl.org/dc/dcmitype/StillImage" />
        <dc:title></dc:title>
      </cc:Work>
    </rdf:RDF>
  </metadata>
  <defs
     id="defs833" />
  <sodipodi:namedview
     pagecolor="#ffffff"
     bordercolor="#666666"
     borderopacity="1"
     objecttolerance="10"
     gridtolerance="10"
     guidetolerance="10"
     inkscape:pageopacity="0"
     inkscape:pageshadow="2"
     inkscape:window-width="737"
     inkscape:window-height="480"
     id="namedview831"
     showgrid="false"
     inkscape:zoom="0.236"
     inkscape:cx="307.01492"
     inkscape:cy="363.48197"
     inkscape:window-x="53"
     inkscape:window-y="131"
     inkscape:window-maximized="0"
     inkscape:current-layer="surface1" />
  <g
     id="surface1">
    <path
       style="fill:#808080;fill-opacity:1;fill-rule:nonzero;stroke:none;stroke-width:0.73795432"
       d="m 5.2949877,7.0706507 c -0.2826136,0 -0.4182681,0.088208 -0.4889213,0.1617146 -0.07348,0.076446 -0.1526117,0.2234599 -0.2232649,0.3704727 L 0.9540437,19.834329 c -0.0734795,0.22346 -0.0734795,0.364593 0,0.44104 0.0706532,0 0.146959,0.07057 0.2882662,0.07057 h 2.071557 c 0.1413064,0 0.2797876,-0.06469 0.421094,-0.141132 0.07348,-0.07351 0.2232649,-0.238161 0.2232649,-0.461621 l 0.6471848,-2.363971 h 3.8068046 l 0.6019667,2.363971 c 0.070656,0.22346 0.1271759,0.388114 0.2006557,0.461621 0.070656,0.07645 0.2289168,0.141132 0.4437031,0.141132 h 2.3400403 c 0.141307,0 0.220439,-0.06469 0.220439,-0.141132 0.07348,-0.07351 0.07348,-0.147014 0,-0.370474 L 8.4348243,7.6734043 C 8.3613444,7.4499443 8.3076484,7.3823189 8.2341685,7.2323653 8.1606893,7.1588589 7.9374244,7.0706507 7.7226382,7.0706507 Z m 1.2237164,3.1960653 h 0.067827 l 1.2463265,4.889657 H 5.2045513 Z"
       id="path826"
       inkscape:connector-curvature="0"
       sodipodi:nodetypes="sccccssccccccssccccssccccc" />
    <path
       inkscape:connector-curvature="0"
       style="font-weight:400;line-height:normal;font-family:sans-serif;text-indent:0;text-align:start;text-decoration:none;text-decoration-line:none;text-decoration-style:solid;text-decoration-color:#000000;text-transform:none;white-space:normal;overflow:visible;isolation:auto;mix-blend-mode:normal;fill:#808080;stroke-width:0.57805073"
       d="m 19.269483,6.9339217 a 0.82701386,0.90926091 0 0 0 -0.724642,0.5741504 l -4.1465,11.5469329 h -0.293948 a 0.55134257,0.60617394 0 1 0 0,1.212227 h 2.20515 a 0.55134257,0.60617394 0 1 0 0,-1.212227 h -0.133515 l 0.872154,-2.430373 a 0.55134257,0.60617394 0 0 0 0.08829,0.0059 h 4.877602 l 0.994901,2.424454 h -0.08399 a 0.55134257,0.60617394 0 1 0 0,1.212226 h 2.20515 a 0.55134257,0.60617394 0 1 0 0,-1.212226 H 24.824349 L 20.067342,7.4678224 A 0.82701386,0.90926091 0 0 0 19.269483,6.9339217 Z m 0.09475,3.2424693 2.152389,5.241934 h -4.034519 z"
       font-weight="400"
       overflow="visible"
       id="path837" />
  </g>
</svg>
