<?xml version="1.0" encoding="UTF-8" standalone="no"?>
<svg
   xmlns:dc="http://purl.org/dc/elements/1.1/"
   xmlns:cc="http://creativecommons.org/ns#"
   xmlns:rdf="http://www.w3.org/1999/02/22-rdf-syntax-ns#"
   xmlns:svg="http://www.w3.org/2000/svg"
   xmlns="http://www.w3.org/2000/svg"
   xmlns:sodipodi="http://sodipodi.sourceforge.net/DTD/sodipodi-0.dtd"
   xmlns:inkscape="http://www.inkscape.org/namespaces/inkscape"
   version="1.1"
   id="Layer_1"
   x="0px"
   y="0px"
   width="416px"
   height="416px"
   viewBox="0 0 26 26"
   enable-background="new 0 0 26 26"
   xml:space="preserve"
   sodipodi:docname="icons8_sun_warm.svg"
   inkscape:version="1.0.1 (3bc2e813f5, 2020-09-07)"><metadata
     id="metadata4955"><rdf:RDF><cc:Work
         rdf:about=""><dc:format>image/svg+xml</dc:format><dc:type
           rdf:resource="http://purl.org/dc/dcmitype/StillImage" /><dc:title></dc:title></cc:Work></rdf:RDF></metadata><defs
     id="defs4953" /><sodipodi:namedview
     pagecolor="#ffffff"
     bordercolor="#666666"
     borderopacity="1"
     objecttolerance="10"
     gridtolerance="10"
     guidetolerance="10"
     inkscape:pageopacity="0"
     inkscape:pageshadow="2"
     inkscape:window-width="1920"
     inkscape:window-height="995"
     id="namedview4951"
     showgrid="false"
     inkscape:zoom="1.6045885"
     inkscape:cx="84.558754"
     inkscape:cy="230.49745"
     inkscape:window-x="0"
     inkscape:window-y="0"
     inkscape:window-maximized="1"
     inkscape:current-layer="Layer_1"
     inkscape:document-rotation="0" /><g
     id="g4924"
     style="fill:#808080"><path
       fill="#000000"
       d="M13,8c2.757,0,5,2.243,5,5s-2.243,5-5,5s-5-2.243-5-5S10.243,8,13,8 M13,6c-3.866,0-7,3.134-7,7   s3.134,7,7,7s7-3.134,7-7S16.866,6,13,6L13,6z"
       id="path4922"
       style="fill:#808080" /></g><line
     fill="none"
     stroke="#000000"
     stroke-width="2"
     stroke-linecap="round"
     stroke-linejoin="round"
     stroke-miterlimit="10"
     x1="13"
     y1="1"
     x2="13"
     y2="4"
     id="line4926"
     style="fill:#999999;stroke:#808080;stroke-opacity:1" /><line
     fill="none"
     stroke="#000000"
     stroke-width="2"
     stroke-linecap="round"
     stroke-linejoin="round"
     stroke-miterlimit="10"
     x1="13"
     y1="22"
     x2="13"
     y2="25"
     id="line4928"
     style="fill:#999999;stroke:#808080;stroke-opacity:1" /><line
     fill="none"
     stroke="#000000"
     stroke-width="2"
     stroke-linecap="round"
     stroke-linejoin="round"
     stroke-miterlimit="10"
     x1="25"
     y1="13"
     x2="22"
     y2="13"
     id="line4930"
     style="fill:#999999;stroke:#808080;stroke-opacity:1" /><line
     fill="none"
     stroke="#000000"
     stroke-width="2"
     stroke-linecap="round"
     stroke-linejoin="round"
     stroke-miterlimit="10"
     x1="4"
     y1="13"
     x2="1"
     y2="13"
     id="line4932"
     style="fill:#999999;stroke:#808080;stroke-opacity:1" /><line
     fill="none"
     stroke="#000000"
     stroke-width="2"
     stroke-linecap="round"
     stroke-linejoin="round"
     stroke-miterlimit="10"
     x1="2.608"
     y1="7"
     x2="5.206"
     y2="8.5"
     id="line4934"
     style="fill:#999999;stroke:#808080;stroke-opacity:1" /><line
     fill="none"
     stroke="#000000"
     stroke-width="2"
     stroke-linecap="round"
     stroke-linejoin="round"
     stroke-miterlimit="10"
     x1="20.794"
     y1="17.5"
     x2="23.393"
     y2="19"
     id="line4936"
     style="fill:#999999;stroke:#808080;stroke-opacity:1" /><line
     fill="none"
     stroke="#000000"
     stroke-width="2"
     stroke-linecap="round"
     stroke-linejoin="round"
     stroke-miterlimit="10"
     x1="19"
     y1="2.607"
     x2="17.5"
     y2="5.205"
     id="line4938"
     style="fill:#999999;stroke:#808080;stroke-opacity:1" /><line
     fill="none"
     stroke="#000000"
     stroke-width="2"
     stroke-linecap="round"
     stroke-linejoin="round"
     stroke-miterlimit="10"
     x1="8.5"
     y1="20.794"
     x2="7"
     y2="23.393"
     id="line4940"
     style="fill:#999999;stroke:#808080;stroke-opacity:1" /><line
     fill="none"
     stroke="#000000"
     stroke-width="2"
     stroke-linecap="round"
     stroke-linejoin="round"
     stroke-miterlimit="10"
     x1="2.608"
     y1="18.999"
     x2="5.206"
     y2="17.5"
     id="line4942"
     style="fill:#999999;stroke:#808080;stroke-opacity:1" /><line
     fill="none"
     stroke="#000000"
     stroke-width="2"
     stroke-linecap="round"
     stroke-linejoin="round"
     stroke-miterlimit="10"
     x1="20.794"
     y1="8.5"
     x2="23.393"
     y2="7"
     id="line4944"
     style="fill:#999999;stroke:#808080;stroke-opacity:1" /><line
     fill="none"
     stroke="#000000"
     stroke-width="2"
     stroke-linecap="round"
     stroke-linejoin="round"
     stroke-miterlimit="10"
     x1="7"
     y1="2.607"
     x2="8.499"
     y2="5.205"
     id="line4946"
     style="fill:#999999;stroke:#808080;stroke-opacity:1" /><line
     fill="none"
     stroke="#000000"
     stroke-width="2"
     stroke-linecap="round"
     stroke-linejoin="round"
     stroke-miterlimit="10"
     x1="17.5"
     y1="20.794"
     x2="19.001"
     y2="23.393"
     id="line4948"
     style="fill:#999999;stroke:#808080;stroke-opacity:1" /><path
     style="fill:#808080;fill-opacity:1;fill-rule:nonzero;stroke:none;stroke-width:0.105797"
     d="m 10.271559,10.703145 c -0.01913,0.0031 -0.0387,0.0077 -0.05605,0.0119 -0.168126,0.02573 -0.3033383,0.13171 -0.3504859,0.272252 -0.047153,0.142463 0.00178,0.293757 0.12632,0.393595 0,0 0.1436649,0.117881 0.2241689,0.362876 0.08051,0.244989 0.104964,0.579449 -0.2806556,1.077107 -0.5114947,0.663929 -0.5359567,1.297906 -0.3922935,1.730669 0.1436631,0.432378 0.4487802,0.701943 0.4487802,0.701943 0.1783559,0.153983 0.4656839,0.153983 0.6444849,0 0.178802,-0.154365 0.178802,-0.402427 0,-0.556793 0,0 -0.143664,-0.117892 -0.224168,-0.36326 -0.08051,-0.244989 -0.104964,-0.579065 0.280211,-1.076723 0.511939,-0.664313 0.536402,-1.297905 0.392739,-1.730669 -0.143664,-0.432762 -0.448782,-0.701943 -0.448782,-0.701943 -0.09295,-0.0864 -0.227727,-0.130175 -0.364274,-0.120958 z m 2.691356,0 c -0.01957,0.0031 -0.0387,0.0077 -0.05605,0.0119 -0.168127,0.02573 -0.303339,0.13171 -0.350485,0.272252 -0.04759,0.142463 0.0017,0.293757 0.125869,0.393595 0,0 0.143663,0.117881 0.224613,0.362876 0.08051,0.244989 0.104963,0.579449 -0.280655,1.077107 -0.511495,0.663929 -0.535958,1.297906 -0.392295,1.730669 0.143664,0.432378 0.448337,0.701943 0.448337,0.701943 0.178801,0.153983 0.466127,0.153983 0.644929,0 0.178801,-0.154365 0.178801,-0.402427 0,-0.556793 0,0 -0.143662,-0.117892 -0.224168,-0.36326 -0.08051,-0.244989 -0.104964,-0.579065 0.280209,-1.076723 0.511942,-0.664313 0.536405,-1.297905 0.39274,-1.730669 -0.143663,-0.432762 -0.448781,-0.701943 -0.448781,-0.701943 -0.09295,-0.0864 -0.227727,-0.130175 -0.364274,-0.120958 z m 2.691356,0 c -0.01957,0.0031 -0.0387,0.0077 -0.05605,0.0119 -0.168571,0.02573 -0.303338,0.13171 -0.350485,0.272252 -0.04759,0.142463 0.0017,0.293757 0.125869,0.393595 0,0 0.143663,0.117881 0.224613,0.362876 0.08051,0.244989 0.104964,0.579449 -0.280655,1.077107 -0.511496,0.663929 -0.535958,1.297906 -0.392295,1.730669 0.143663,0.432378 0.448337,0.701943 0.448337,0.701943 0.178801,0.153983 0.466128,0.153983 0.644929,0 0.1788,-0.154365 0.1788,-0.402427 0,-0.556793 0,0 -0.143663,-0.117892 -0.224168,-0.36326 -0.08051,-0.244989 -0.105415,-0.579065 0.28021,-1.076723 0.511496,-0.664313 0.536403,-1.297905 0.39274,-1.730669 -0.143663,-0.432762 -0.448782,-0.701943 -0.448782,-0.701943 -0.09295,-0.0864 -0.227726,-0.130175 -0.364273,-0.120958 z"
     id="path2"
     sodipodi:nodetypes="ccccscccccccsccccccccccccccsccccccccccccccscc" /></svg>
