<?xml version="1.0" encoding="UTF-8" standalone="no"?>
<!-- Generator: Adobe Illustrator 15.0.0, SVG Export Plug-In . SVG Version: 6.00 Build 0)  -->

<svg
   xmlns:dc="http://purl.org/dc/elements/1.1/"
   xmlns:cc="http://creativecommons.org/ns#"
   xmlns:rdf="http://www.w3.org/1999/02/22-rdf-syntax-ns#"
   xmlns:svg="http://www.w3.org/2000/svg"
   xmlns="http://www.w3.org/2000/svg"
   xmlns:sodipodi="http://sodipodi.sourceforge.net/DTD/sodipodi-0.dtd"
   xmlns:inkscape="http://www.inkscape.org/namespaces/inkscape"
   version="1.1"
   id="Layer_1"
   x="0px"
   y="0px"
   width="416px"
   height="416px"
   viewBox="0 0 26 26"
   enable-background="new 0 0 26 26"
   xml:space="preserve"
   sodipodi:docname="icons8_search_key_double.svg"
   inkscape:version="0.92.2 (5c3e80d, 2017-08-06)"><metadata
     id="metadata828"><rdf:RDF><cc:Work
         rdf:about=""><dc:format>image/svg+xml</dc:format><dc:type
           rdf:resource="http://purl.org/dc/dcmitype/StillImage" /><dc:title></dc:title></cc:Work></rdf:RDF></metadata><defs
     id="defs826" /><sodipodi:namedview
     pagecolor="#ffffff"
     bordercolor="#666666"
     borderopacity="1"
     objecttolerance="10"
     gridtolerance="10"
     guidetolerance="10"
     inkscape:pageopacity="0"
     inkscape:pageshadow="2"
     inkscape:window-width="737"
     inkscape:window-height="480"
     id="namedview824"
     showgrid="false"
     inkscape:zoom="0.40114712"
     inkscape:cx="176.57054"
     inkscape:cy="235.74529"
     inkscape:window-x="38"
     inkscape:window-y="176"
     inkscape:window-maximized="0"
     inkscape:current-layer="Layer_1" /><rect
     x="-4.0393434"
     y="21.021624"
     transform="matrix(0.70154931,-0.71262092,0.70154931,0.71262092,0,0)"
     width="1.76969"
     height="3.5928895"
     id="rect815"
     style="fill:#808080;stroke-width:0.77549958" /><path
     d="m 19.656786,21.770389 c 0.54859,0.557248 0.54859,1.461507 0,2.019537 l -0.662464,0.672137 c -0.54936,0.55803 -1.4388,0.55803 -1.987391,0 l -3.550067,-3.606874 c -0.54936,-0.55803 -0.54936,-1.461507 -7.69e-4,-2.018756 l 0.662464,-0.672918 c 0.54859,-0.557249 1.439569,-0.557249 1.98816,0 z"
     id="path817"
     inkscape:connector-curvature="0"
     style="fill:#808080;stroke-width:0.77545947" /><path
     d="m 7.86247,4.813 c -4.1702127,0 -7.54947,3.4325875 -7.54947,7.668613 0,4.236026 3.3792573,7.669395 7.54947,7.669395 4.170213,0 7.550239,-3.433369 7.550239,-7.669395 C 15.412709,8.2455875 12.032683,4.813 7.86247,4.813 Z m 0,13.918705 c -3.399262,0 -6.1537567,-2.797184 -6.1537567,-6.250092 0,-3.4529078 2.7544947,-6.2500915 6.1537567,-6.2500915 3.399262,0 6.153757,2.7971837 6.153757,6.2500915 0,3.452908 -2.754495,6.250092 -6.153757,6.250092 z"
     id="path819"
     inkscape:connector-curvature="0"
     style="fill:#808080;stroke-width:0.77545947" /><path
     d="m 9.4105269,16.277624 c -3.0114784,0 -5.4543613,-2.480655 -5.4543613,-5.540441 0,-0.08128 0.00846,-0.161 0.012311,-0.242282 -0.397786,0.65338 -0.6309178,1.421648 -0.6309178,2.245407 0,2.365765 1.8881369,4.282919 4.2163774,4.282919 0.8994426,0 1.7304075,-0.287612 2.4159536,-0.774521 -0.1838895,0.02032 -0.3708566,0.02892 -0.5593625,0.02892 z"
     id="path821"
     inkscape:connector-curvature="0"
     style="fill:#808080;stroke-width:0.77545947" /><ellipse
     cx="21.531643"
     cy="18.000139"
     id="circle828-8"
     style="fill:#808080;stroke-width:0.32035714"
     rx="1.8621893"
     ry="1.9840273" /><path
     style="fill:none;stroke:#808080;stroke-width:0.64071429;stroke-linecap:round;stroke-linejoin:round;stroke-miterlimit:10;stroke-opacity:1"
     d="m 25.487865,17.157258 c -0.368094,-1.97047 -1.99875,-3.455844 -3.956221,-3.455844 -1.957471,0 -3.588128,1.485374 -3.956221,3.455844"
     id="path830"
     inkscape:connector-curvature="0" /><path
     style="fill:none;stroke:#808080;stroke-width:0.64071429;stroke-linecap:round;stroke-linejoin:round;stroke-miterlimit:10;stroke-opacity:1"
     d="m 24.270613,17.416505 c -0.254808,-1.364019 -1.383916,-2.392406 -2.738969,-2.392406 -1.355054,0 -2.484161,1.028387 -2.738969,2.392406"
     id="path832-4"
     inkscape:connector-curvature="0" /></svg>