<?xml version="1.0" encoding="UTF-8" standalone="no"?>
<!-- Generator: Adobe Illustrator 15.0.0, SVG Export Plug-In . SVG Version: 6.00 Build 0)  -->

<svg
   xmlns:dc="http://purl.org/dc/elements/1.1/"
   xmlns:cc="http://creativecommons.org/ns#"
   xmlns:rdf="http://www.w3.org/1999/02/22-rdf-syntax-ns#"
   xmlns:svg="http://www.w3.org/2000/svg"
   xmlns="http://www.w3.org/2000/svg"
   xmlns:sodipodi="http://sodipodi.sourceforge.net/DTD/sodipodi-0.dtd"
   xmlns:inkscape="http://www.inkscape.org/namespaces/inkscape"
   version="1.1"
   id="Layer_1"
   x="0px"
   y="0px"
   width="416px"
   height="416px"
   viewBox="0 0 26 26"
   enable-background="new 0 0 26 26"
   xml:space="preserve"
   sodipodi:docname="icons8_folder_hash.svg"
   inkscape:version="0.92.3 (2405546, 2018-03-11)"><metadata
     id="metadata835"><rdf:RDF><cc:Work
         rdf:about=""><dc:format>image/svg+xml</dc:format><dc:type
           rdf:resource="http://purl.org/dc/dcmitype/StillImage" /><dc:title /></cc:Work></rdf:RDF></metadata><defs
     id="defs833" /><sodipodi:namedview
     pagecolor="#ffffff"
     bordercolor="#666666"
     borderopacity="1"
     objecttolerance="10"
     gridtolerance="10"
     guidetolerance="10"
     inkscape:pageopacity="0"
     inkscape:pageshadow="2"
     inkscape:window-width="1920"
     inkscape:window-height="976"
     id="namedview831"
     showgrid="false"
     inkscape:zoom="0.75979984"
     inkscape:cx="93.808927"
     inkscape:cy="218.29072"
     inkscape:window-x="-8"
     inkscape:window-y="-8"
     inkscape:window-maximized="1"
     inkscape:current-layer="Layer_1" /><path
     fill="#000000"
     d="M23,5H3C1.344,5,0,6.344,0,8v14c0,1.656,1.344,3,3,3h20c1.656,0,3-1.344,3-3V8C26,6.344,24.656,5,23,5z   M24,22c0,0.552-0.448,1-1,1H3c-0.552,0-1-0.448-1-1V8c0-0.552,0.448-1,1-1h20c0.552,0,1,0.448,1,1V22z"
     id="path826"
     style="fill:#808080" /><path
     fill="#000000"
     d="M8,2H3C1.344,2,0,3.344,0,5v4c0,0,0.302-3,3-3h8V5C11,3.344,9.656,2,8,2z"
     id="path828"
     style="fill:#808080" /><g
     transform="matrix(0.3595742,0,0,0.35040477,4.1233669,6.4581987)"
     id="surface1"
     style="fill:#808080"><path
       inkscape:connector-curvature="0"
       style="fill:#808080"
       d="m 17,9 -0.65625,7 h -6.25 L 9.6875,20 h 6.28125 L 14.9375,31 h -6.25 l -0.375,4 h 6.25 L 14,40.90625 V 41 h 4 l 0.5625,-6 h 11 L 29,40.90625 V 41 h 4 l 0.5625,-6 h 6.75 l 0.375,-4 h -6.75 l 1.03125,-11 h 6.71875 l 0.40625,-4 h -6.75 L 36,9.09375 V 9 h -4 l -0.65625,7 h -11 L 21,9.09375 V 9 Z m 2.96875,11 h 11 L 29.9375,31 h -11 z"
       id="path2" /></g></svg>