<?xml version="1.0" encoding="UTF-8" standalone="no"?>
<!-- Generator: Adobe Illustrator 15.0.0, SVG Export Plug-In . SVG Version: 6.00 Build 0)  -->

<svg
   xmlns:dc="http://purl.org/dc/elements/1.1/"
   xmlns:cc="http://creativecommons.org/ns#"
   xmlns:rdf="http://www.w3.org/1999/02/22-rdf-syntax-ns#"
   xmlns:svg="http://www.w3.org/2000/svg"
   xmlns="http://www.w3.org/2000/svg"
   xmlns:sodipodi="http://sodipodi.sourceforge.net/DTD/sodipodi-0.dtd"
   xmlns:inkscape="http://www.inkscape.org/namespaces/inkscape"
   version="1.1"
   id="Layer_1"
   x="0px"
   y="0px"
   width="416px"
   height="416px"
   viewBox="0 0 26 26"
   enable-background="new 0 0 26 26"
   xml:space="preserve"
   sodipodi:docname="icons8-document-top-margin.svg"
   inkscape:version="0.92.2 (5c3e80d, 2017-08-06)"><metadata
     id="metadata843"><rdf:RDF><cc:Work
         rdf:about=""><dc:format>image/svg+xml</dc:format><dc:type
           rdf:resource="http://purl.org/dc/dcmitype/StillImage" /><dc:title /></cc:Work></rdf:RDF></metadata><defs
     id="defs841" /><sodipodi:namedview
     pagecolor="#ffffff"
     bordercolor="#666666"
     borderopacity="1"
     objecttolerance="10"
     gridtolerance="10"
     guidetolerance="10"
     inkscape:pageopacity="0"
     inkscape:pageshadow="2"
     inkscape:window-width="974"
     inkscape:window-height="734"
     id="namedview839"
     showgrid="false"
     inkscape:zoom="0.75979984"
     inkscape:cx="139.05434"
     inkscape:cy="132.85348"
     inkscape:window-x="238"
     inkscape:window-y="24"
     inkscape:window-maximized="0"
     inkscape:current-layer="Layer_1" /><path
     stroke-miterlimit="10"
     d="m 9.6246057,14.690755 c 2.2620563,0 5.5892673,0 7.9846673,0"
     id="path830"
     inkscape:connector-curvature="0"
     style="fill:#808080;stroke:#808080;stroke-width:1.57541919;stroke-linecap:round;stroke-linejoin:round;stroke-miterlimit:10;stroke-opacity:1" /><path
     stroke-miterlimit="10"
     d="m 9.6246057,20.907534 c 2.2620563,0 5.5892673,0 7.9846673,0"
     id="path832"
     inkscape:connector-curvature="0"
     style="fill:#808080;stroke:#808080;stroke-width:1.57541919;stroke-linecap:round;stroke-linejoin:round;stroke-miterlimit:10;stroke-opacity:1" /><path
     stroke-miterlimit="10"
     d="m 9.6246057,17.799144 c 0.7984663,0 5.5892673,0 6.3877343,0"
     id="path834"
     inkscape:connector-curvature="0"
     style="fill:#808080;stroke:#808080;stroke-width:1.57541919;stroke-linecap:round;stroke-linejoin:round;stroke-miterlimit:10;stroke-opacity:1" /><path
     d="M 19.381318,9.8763262 C 19.190506,9.7078198 18.995003,9.5365048 18.802627,9.3623816 18.608687,9.1896625 18.417875,9.0141349 18.230192,8.84282 16.891382,7.6162334 16.094509,6.9225485 15.263228,6.9225485 H 9.0071074 c -1.724343,0 -3.1280597,1.2602879 -3.1280597,2.808441 V 22.368974 c 0,1.548153 1.4037167,2.808441 3.1280597,2.808441 h 9.3841806 c 1.724343,0 3.128059,-1.260288 3.128059,-2.808441 V 12.53943 c 0,-0.74564 -0.772631,-1.461793 -2.138029,-2.6631038 z m 0.573999,12.4926478 c 0,0.77513 -0.700685,1.40422 -1.564029,1.40422 H 9.0071074 c -0.8633443,0 -1.5640296,-0.62909 -1.5640296,-1.40422 V 9.7309895 c 0,-0.7751298 0.7006853,-1.4042206 1.5640296,-1.4042206 l 5.7001076,-0.00281 c 0.563833,0.1291883 0.556013,0.751258 0.556013,1.3740298 v 2.1393293 c 0,0.386862 0.351124,0.70211 0.782015,0.70211 h 2.346045 c 0.78045,0 1.564029,0.0035 1.564029,0.70211 z"
     id="path836"
     inkscape:connector-curvature="0"
     style="fill:#808080;stroke-width:0.74098629" /><polygon
     transform="matrix(0,0.16562791,-0.21376607,0,15.814181,2.0158088)"
     style="fill:#808080"
     points="12,21.938 25.906,13 12,4.061 "
     id="polygon858" /><rect
     x="-5.2226572"
     style="fill:#808080;stroke-width:0.20698398"
     y="-13.846608"
     width="3.4070897"
     height="1.7101287"
     id="rect856-6"
     transform="matrix(0,-1,-1,0,0,0)" /><polygon
     transform="matrix(0,-0.17277171,-0.21376607,0,15.751192,4.7689481)"
     style="fill:#808080"
     points="12,21.938 25.906,13 12,4.061 "
     id="polygon858-7" /></svg>