<?xml version="1.0" encoding="UTF-8" standalone="no"?>
<svg
   xmlns:dc="http://purl.org/dc/elements/1.1/"
   xmlns:cc="http://creativecommons.org/ns#"
   xmlns:rdf="http://www.w3.org/1999/02/22-rdf-syntax-ns#"
   xmlns:svg="http://www.w3.org/2000/svg"
   xmlns="http://www.w3.org/2000/svg"
   xmlns:sodipodi="http://sodipodi.sourceforge.net/DTD/sodipodi-0.dtd"
   xmlns:inkscape="http://www.inkscape.org/namespaces/inkscape"
   version="1.1"
   id="Layer_1"
   x="0px"
   y="0px"
   width="416px"
   height="416px"
   viewBox="0 0 26 26"
   enable-background="new 0 0 26 26"
   xml:space="preserve"
   sodipodi:docname="icons8_document_lang.svg"
   inkscape:version="1.0.1 (3bc2e813f5, 2020-09-07)"><metadata
     id="metadata5374"><rdf:RDF><cc:Work
         rdf:about=""><dc:format>image/svg+xml</dc:format><dc:type
           rdf:resource="http://purl.org/dc/dcmitype/StillImage" /><dc:title></dc:title></cc:Work></rdf:RDF></metadata><defs
     id="defs5372" /><sodipodi:namedview
     pagecolor="#ffffff"
     bordercolor="#666666"
     borderopacity="1"
     objecttolerance="10"
     gridtolerance="10"
     guidetolerance="10"
     inkscape:pageopacity="0"
     inkscape:pageshadow="2"
     inkscape:window-width="871"
     inkscape:window-height="480"
     id="namedview5370"
     showgrid="false"
     inkscape:zoom="0.56730769"
     inkscape:cx="206.56308"
     inkscape:cy="208"
     inkscape:window-x="0"
     inkscape:window-y="0"
     inkscape:window-maximized="0"
     inkscape:current-layer="Layer_1"
     inkscape:document-rotation="0" /><g
     id="g5357"
     style="fill:#808080"
     transform="matrix(0.58003924,0,0,0.59514443,0,10.526245)"><g
       id="g5353"
       style="fill:#808080"><path
         d="M 14,2 V 14 H 2 V 2 H 14 M 14.315,0 H 1.685 C 0.754,0 0,0.754 0,1.684 V 14.316 C 0,15.246 0.754,16 1.685,16 H 14.316 C 15.246,16 16,15.246 16,14.316 V 1.684 C 16,0.754 15.246,0 14.315,0 Z"
         id="path5351"
         style="fill:#808080"
         inkscape:connector-curvature="0" /></g><path
       d="M 24.315,10 H 11.685 C 10.754,10 10,10.754 10,11.684 V 24.316 C 10,25.246 10.754,26 11.685,26 H 24.316 C 25.246,26 26,25.246 26,24.316 V 11.684 C 26,10.754 25.246,10 24.315,10 Z m -3.96,12.631 -0.698,-2.008 h -3.322 l -0.69,2.008 h -2.146 l 3.457,-9.309 h 2.104 l 3.442,9.309 z m -2.331,-6.752 1.133,3.281 h -2.314 l 1.14,-3.281 z"
       id="path5355"
       style="fill:#808080"
       inkscape:connector-curvature="0" /></g><polygon
     points="7,4 3,4 3,6 13,6 13,4 9,4 9,3 7,3 "
     id="polygon5359"
     style="fill:#808080"
     transform="matrix(0.58003924,0,0,0.59514443,0,10.526245)" /><path
     stroke-miterlimit="10"
     d="m 2.3810611,17.759035 c 0,0 2.6293179,-0.964728 3.9274457,-3.633356"
     id="path5361"
     style="fill:#808080;stroke:#808080;stroke-width:1.17508;stroke-linecap:round;stroke-linejoin:round;stroke-miterlimit:10;stroke-opacity:1"
     inkscape:connector-curvature="0" /><path
     stroke-miterlimit="10"
     d="m 3.1733948,14.67202 c 0,0 0.577139,1.286108 2.7749076,2.572215"
     id="path5363"
     style="fill:#808080;stroke:#808080;stroke-width:1.17508;stroke-linecap:round;stroke-linejoin:round;stroke-miterlimit:10;stroke-opacity:1"
     inkscape:connector-curvature="0" /><polygon
     points="7,16 8,16 5.5,13.5 3,16 4,16 4,19 7,19 "
     id="polygon5365"
     style="fill:#808080"
     transform="matrix(0.58003924,0,0,0.59514443,0,10.526245)" /><polygon
     points="10,22 10,23 12.5,20.5 10,18 10,19 4,19 7,22 "
     id="polygon5367"
     style="fill:#808080"
     transform="matrix(0.58003924,0,0,0.59514443,0,10.526245)" /><path
     stroke-miterlimit="10"
     d="m 16.355371,6.6925378 c 1.547625,0 3.823995,0 5.46285,0"
     id="path1226-3"
     inkscape:connector-curvature="0"
     style="fill:#808080;stroke:#808080;stroke-width:1.11209;stroke-linecap:round;stroke-linejoin:round;stroke-miterlimit:10;stroke-opacity:1" /><path
     stroke-miterlimit="10"
     d="m 16.355371,11.220388 c 1.547625,0 3.823995,0 5.46285,0"
     id="path1228-6"
     inkscape:connector-curvature="0"
     style="fill:#808080;stroke:#808080;stroke-width:1.11209;stroke-linecap:round;stroke-linejoin:round;stroke-miterlimit:10;stroke-opacity:1" /><path
     stroke-miterlimit="10"
     d="m 16.355371,8.9564632 c 0.546284,0 3.823995,0 4.370279,0"
     id="path1230-7"
     inkscape:connector-curvature="0"
     style="fill:#808080;stroke:#808080;stroke-width:1.11209;stroke-linecap:round;stroke-linejoin:round;stroke-miterlimit:10;stroke-opacity:1" /><path
     d="M 23.056104,2.8478257 C 22.922809,2.7119906 22.78624,2.5738915 22.651852,2.4335273 22.516375,2.2942967 22.38308,2.1528009 22.251973,2.0147007 21.316732,1.0259318 20.760067,0.46674257 20.179366,0.46674257 h -4.37028 c -1.204558,0 -2.185141,1.01593613 -2.185141,2.26392523 V 12.918333 c 0,1.247989 0.980583,2.263926 2.185141,2.263926 h 6.555421 c 1.204558,0 2.18514,-1.015937 2.18514,-2.263926 V 4.9945943 c 0,-0.6010733 -0.53973,-1.1783744 -1.493543,-2.1467686 z m 0.400973,10.0705073 c 0,0.624844 -0.489472,1.131963 -1.09257,1.131963 h -6.555421 c -0.603098,0 -1.09257,-0.507119 -1.09257,-1.131963 V 2.7306678 c 0,-0.6248432 0.489472,-1.1319627 1.09257,-1.1319627 l 3.981871,-0.00228 c 0.393873,0.1041642 0.388409,0.605623 0.388409,1.1076487 v 1.7245454 c 0,0.3118553 0.245282,0.5659819 0.546284,0.5659819 h 1.638857 c 0.545191,0 1.09257,0.00282 1.09257,0.5659808 z"
     id="path1232-5"
     inkscape:connector-curvature="0"
     style="fill:#808080;stroke-width:0.556047" /></svg>
