<?xml version="1.0" encoding="UTF-8" standalone="no"?>
<svg
   xmlns:dc="http://purl.org/dc/elements/1.1/"
   xmlns:cc="http://creativecommons.org/ns#"
   xmlns:rdf="http://www.w3.org/1999/02/22-rdf-syntax-ns#"
   xmlns:svg="http://www.w3.org/2000/svg"
   xmlns="http://www.w3.org/2000/svg"
   xmlns:sodipodi="http://sodipodi.sourceforge.net/DTD/sodipodi-0.dtd"
   xmlns:inkscape="http://www.inkscape.org/namespaces/inkscape"
   version="1.1"
   id="Layer_1"
   x="0px"
   y="0px"
   width="416px"
   height="416px"
   viewBox="0 0 26 26"
   enable-background="new 0 0 26 26"
   xml:space="preserve"
   sodipodi:docname="icons8_book_tap.svg"
   inkscape:version="1.0.2 (e86c870879, 2021-01-15)"><metadata
     id="metadata835"><rdf:RDF><cc:Work
         rdf:about=""><dc:format>image/svg+xml</dc:format><dc:type
           rdf:resource="http://purl.org/dc/dcmitype/StillImage" /><dc:title></dc:title></cc:Work></rdf:RDF></metadata><defs
     id="defs833" /><sodipodi:namedview
     pagecolor="#ffffff"
     bordercolor="#666666"
     borderopacity="1"
     objecttolerance="10"
     gridtolerance="10"
     guidetolerance="10"
     inkscape:pageopacity="0"
     inkscape:pageshadow="2"
     inkscape:window-width="1920"
     inkscape:window-height="995"
     id="namedview831"
     showgrid="false"
     inkscape:zoom="0.53725962"
     inkscape:cx="191.50075"
     inkscape:cy="212.69662"
     inkscape:window-x="0"
     inkscape:window-y="0"
     inkscape:window-maximized="1"
     inkscape:current-layer="Layer_1"
     inkscape:document-rotation="0" /><path
     fill="none"
     stroke="#000000"
     stroke-width="1.67902"
     stroke-linecap="round"
     stroke-linejoin="round"
     stroke-miterlimit="10"
     d="m 21.753884,9.1323255 c -0.483558,1.1845465 0,2.2448455 0,2.2448455 l -8.21879,9.896968 -10.0741046,-2.99033 c 0,0 -1.6790172,-0.716101 -1.6790172,-2.88623 0,-3.002083 2.5865261,-2.320402 2.5865261,-2.320402"
     id="path826"
     style="stroke:#808080;stroke-opacity:1" /><path
     fill="#000000"
     d="M 22.635368,4.9599672 C 22.535468,4.6694972 22.28949,4.4537435 21.990625,4.3882618 L 11.544619,2.0552673 c -0.313976,-0.065481 -0.642224,0.041136 -0.853781,0.2854328 L 2.0052814,12.008482 C 1.806318,12.235989 1.2572793,13.114954 1.086859,14.256686 1.5712555,13.656438 2.1496769,13.356733 2.4418259,13.434808 l 10.2310921,2.92065 c 0.07556,0.02098 0.152791,0.03023 0.227507,0.03023 0.261088,0 0.51294,-0.115853 0.681681,-0.322372 l 8.90299,-10.2546015 c 0.194766,-0.237581 0.251852,-0.5591128 0.150272,-0.8487433 z m -4.781842,2.5008963 -0.669088,0.7924959 c -0.186371,0.2199518 -0.617039,0.329088 -0.961237,0.2476554 L 9.9873298,6.9815041 C 9.6439708,6.8992322 9.5146864,6.6524166 9.6976993,6.4358235 L 10.368467,5.6391297 c 0.184692,-0.2182722 0.6162,-0.3274084 0.960398,-0.2451365 l 6.23587,1.5169921 c 0.341681,0.082272 0.472643,0.329927 0.288791,0.5498782 z"
     id="path828"
     style="fill:#808080;stroke-width:0.839509" /><ellipse
     cx="22.311033"
     cy="22.141537"
     id="circle828"
     style="fill:#808080;stroke-width:0.320357"
     rx="1.8621893"
     ry="1.9840273" /><path
     style="fill:none;stroke:#808080;stroke-width:0.640714;stroke-linecap:round;stroke-linejoin:round;stroke-miterlimit:10;stroke-opacity:1"
     d="m 25.050001,21.557905 c -0.254808,-1.364019 -1.383916,-2.392406 -2.738969,-2.392406 -1.355054,0 -2.484161,1.028387 -2.738969,2.392406"
     id="path832"
     inkscape:connector-curvature="0" /></svg>
