<?xml version="1.0" encoding="UTF-8" standalone="no"?>
<!-- Generator: Adobe Illustrator 15.0.0, SVG Export Plug-In . SVG Version: 6.00 Build 0)  -->

<svg
   xmlns:dc="http://purl.org/dc/elements/1.1/"
   xmlns:cc="http://creativecommons.org/ns#"
   xmlns:rdf="http://www.w3.org/1999/02/22-rdf-syntax-ns#"
   xmlns:svg="http://www.w3.org/2000/svg"
   xmlns="http://www.w3.org/2000/svg"
   xmlns:sodipodi="http://sodipodi.sourceforge.net/DTD/sodipodi-0.dtd"
   xmlns:inkscape="http://www.inkscape.org/namespaces/inkscape"
   version="1.1"
   id="Layer_1"
   x="0px"
   y="0px"
   width="416px"
   height="416px"
   viewBox="0 0 26 26"
   enable-background="new 0 0 26 26"
   xml:space="preserve"
   sodipodi:docname="icons8_blackpage_interval.svg"
   inkscape:version="0.92.3 (2405546, 2018-03-11)"><metadata
   id="metadata17"><rdf:RDF><cc:Work
       rdf:about=""><dc:format>image/svg+xml</dc:format><dc:type
         rdf:resource="http://purl.org/dc/dcmitype/StillImage" /><dc:title /></cc:Work></rdf:RDF></metadata><defs
   id="defs15" /><sodipodi:namedview
   pagecolor="#ffffff"
   bordercolor="#666666"
   borderopacity="1"
   objecttolerance="10"
   gridtolerance="10"
   guidetolerance="10"
   inkscape:pageopacity="0"
   inkscape:pageshadow="2"
   inkscape:window-width="960"
   inkscape:window-height="718"
   id="namedview13"
   showgrid="false"
   inkscape:zoom="0.68585958"
   inkscape:cx="246.70556"
   inkscape:cy="59.308032"
   inkscape:window-x="1263"
   inkscape:window-y="172"
   inkscape:window-maximized="0"
   inkscape:current-layer="Layer_1" />
<path
   style="fill:#808080;stroke-width:1.01753604"
   d="m 5.0707335,1.7056882 c -2.645807,0 -4.78955103,2.29944 -4.78955103,5.137451 V 19.752807 c 0,2.838012 2.14374403,5.137452 4.78955103,5.137452 H 21.035943 c 2.645807,0 4.78955,-2.29944 4.78955,-5.137452 V 6.8431392 c 0,-2.838011 -2.143743,-5.137451 -4.78955,-5.137451 z m 10.9896235,6.056152 c 0.162148,0 0.317787,0.0073 0.467041,0.02112 0.149254,0.01384 0.292105,0.03425 0.428833,0.06091 0.136728,0.02666 0.267276,0.05957 0.391846,0.09802 0.12457,0.03845 0.243177,0.0825 0.355956,0.131714 0.11278,0.04922 0.21981,0.103517 0.321168,0.162476 0.101357,0.05896 0.19705,0.122633 0.287353,0.190308 0.0903,0.06767 0.175144,0.139356 0.254761,0.214721 0.07962,0.07537 0.153968,0.154298 0.223267,0.236328 0.0693,0.08203 0.133522,0.167213 0.192871,0.254883 0.05935,0.08767 0.11393,0.177856 0.163696,0.270141 0.09953,0.184571 0.180241,0.377342 0.243653,0.574219 0.06341,0.1968778 0.109414,0.3978938 0.139648,0.5988768 0.03023,0.200984 0.04468,0.40199 0.04468,0.598878 0,0.230971 -0.01768,0.455815 -0.05249,0.676147 -0.03481,0.220331 -0.08673,0.436116 -0.155152,0.649048 -0.06842,0.212931 -0.153435,0.422941 -0.254272,0.631713 -0.100837,0.208773 -0.217559,0.416293 -0.349609,0.624146 -0.13205,0.207853 -0.279344,0.416046 -0.441407,0.626221 -0.162062,0.210174 -0.338909,0.422325 -0.529785,0.638061 -0.190875,0.215736 -0.395768,0.43513 -0.614258,0.659668 -0.218489,0.224539 -0.450532,0.454216 -0.695434,0.690796 l -0.473877,0.436039 h 3.568482 c 0.02962,0 0.05782,0.0063 0.0835,0.01758 0.02568,0.01131 0.04878,0.02777 0.06812,0.04797 0.01933,0.02021 0.03494,0.04423 0.04553,0.07092 0.01059,0.0267 0.01618,0.05602 0.01563,0.08679 v 1.651001 c 0,0.03078 -0.006,0.06023 -0.01685,0.08704 -0.01088,0.0268 -0.02662,0.05094 -0.04602,0.07129 -0.0194,0.02035 -0.04256,0.03692 -0.06811,0.04834 -0.02556,0.01141 -0.05354,0.0177 -0.08289,0.0177 h -6.787109 c -0.02962,0 -0.05777,-0.0063 -0.08337,-0.0177 -0.02561,-0.01142 -0.04866,-0.02799 -0.06799,-0.04834 -0.01933,-0.02035 -0.03498,-0.04449 -0.04578,-0.07129 -0.0108,-0.0268 -0.01672,-0.05626 -0.01672,-0.08704 v -1.212647 c 0,-0.03222 0.0063,-0.06324 0.01794,-0.09143 0.01165,-0.02819 0.02866,-0.05351 0.05005,-0.07422 l 1.187988,-1.148316 c 0.599777,-0.583901 1.112385,-1.095602 1.544067,-1.554687 0.215841,-0.229543 0.411458,-0.445985 0.587646,-0.651611 0.176189,-0.205627 0.332952,-0.400468 0.47107,-0.587037 0.138117,-0.186568 0.257625,-0.364863 0.359253,-0.537231 0.101627,-0.172368 0.185356,-0.338804 0.252075,-0.501831 0.06672,-0.163027 0.116389,-0.322658 0.149781,-0.481201 0.03339,-0.158544 0.05048,-0.316057 0.05212,-0.474976 0,-0.07162 -0.0031,-0.149301 -0.01135,-0.230469 -0.0083,-0.08117 -0.0216,-0.165792 -0.04187,-0.25122 -0.02027,-0.08543 -0.04746,-0.1717 -0.0835,-0.256103 -0.03604,-0.0844 -0.08091,-0.166903 -0.136475,-0.244996 -0.05557,-0.07809 -0.121827,-0.151764 -0.200684,-0.218261 -0.07886,-0.0665 -0.170343,-0.125798 -0.276245,-0.1754148 -0.105901,-0.04962 -0.226209,-0.08949 -0.362915,-0.116944 -0.136705,-0.02745 -0.289792,-0.04248 -0.46106,-0.04248 -0.163725,0 -0.327713,0.01684 -0.492553,0.0509 -0.16484,0.03407 -0.330596,0.08538 -0.497681,0.1540528 -0.167084,0.06867 -0.335519,0.154726 -0.505981,0.258545 -0.170461,0.103818 -0.342853,0.225364 -0.517822,0.364868 -0.02633,0.02013 -0.05704,0.03391 -0.08899,0.04053 -0.03195,0.0066 -0.06517,0.0061 -0.09644,-0.0026 -0.03236,-0.0098 -0.06177,-0.02651 -0.08618,-0.04895 -0.02441,-0.02244 -0.04378,-0.05058 -0.0564,-0.08337 l -0.55518,-1.4070638 c -0.0181,-0.0466 -0.02052,-0.09611 -0.0093,-0.141846 0.01125,-0.04573 0.03625,-0.08774 0.073,-0.119384 0.106408,-0.09018 0.217841,-0.175436 0.33374,-0.255738 0.1159,-0.0803 0.236257,-0.155555 0.360474,-0.225586 0.124216,-0.07003 0.252307,-0.134855 0.383667,-0.194214 0.13136,-0.05936 0.265991,-0.113334 0.403321,-0.161621 0.137328,-0.04829 0.277309,-0.09087 0.419433,-0.127685 0.142124,-0.03682 0.286384,-0.06783 0.432129,-0.09277 0.145745,-0.02494 0.29297,-0.04385 0.441162,-0.05652 0.148192,-0.01267 0.297313,-0.01917 0.446778,-0.01917 z m -7.4765625,0.02161 h 1.6997065 c 0.03169,0 0.06155,0.0056 0.08862,0.01599 0.02707,0.01042 0.05129,0.02568 0.07153,0.04504 0.02025,0.01937 0.03651,0.04285 0.04773,0.0697 0.01122,0.02685 0.01746,0.0571 0.01746,0.08997 V 18.84497 c 0,0.03052 -0.0059,0.05953 -0.01672,0.08594 -0.01086,0.02641 -0.0268,0.05024 -0.04675,0.07019 -0.01995,0.01995 -0.044,0.03609 -0.07129,0.04724 -0.02729,0.01115 -0.05771,0.01721 -0.09058,0.01721 H 8.3256165 c -0.03169,0 -0.06372,-0.0061 -0.09387,-0.01721 -0.03015,-0.01115 -0.05841,-0.02729 -0.08276,-0.04724 -0.02436,-0.01995 -0.04478,-0.04378 -0.05908,-0.07019 -0.01431,-0.02641 -0.02246,-0.05542 -0.02246,-0.08594 v -8.620116 l -1.666748,0.849853 c -0.03286,0.01409 -0.06345,0.02112 -0.09338,0.02112 -0.02993,0 -0.05921,-0.007 -0.08972,-0.02112 -0.03287,-0.01643 -0.06578,-0.03638 -0.09277,-0.06103 -0.02699,-0.02465 -0.0481,-0.05402 -0.05749,-0.08923 L 5.7339645,9.3751302 c -0.01174,-0.05399 -0.0082,-0.108056 0.01062,-0.154419 0.01878,-0.04636 0.05275,-0.08505 0.10205,-0.108521 l 2.66211,-1.291137 c 0.03286,-0.01877 0.04221,-0.0376 0.07507,-0.0376 z"
   id="path10"
   inkscape:connector-curvature="0" />

</svg>