<?xml version="1.0" encoding="UTF-8" standalone="no"?>
<!-- Generator: Adobe Illustrator 17.1.0, SVG Export Plug-In . SVG Version: 6.00 Build 0)  -->

<svg
   xmlns:dc="http://purl.org/dc/elements/1.1/"
   xmlns:cc="http://creativecommons.org/ns#"
   xmlns:rdf="http://www.w3.org/1999/02/22-rdf-syntax-ns#"
   xmlns:svg="http://www.w3.org/2000/svg"
   xmlns="http://www.w3.org/2000/svg"
   xmlns:sodipodi="http://sodipodi.sourceforge.net/DTD/sodipodi-0.dtd"
   xmlns:inkscape="http://www.inkscape.org/namespaces/inkscape"
   version="1.0"
   id="Layer_1"
   x="0px"
   y="0px"
   width="416px"
   height="416px"
   viewBox="0 0 26 26"
   style="enable-background:new 0 0 26 26;"
   xml:space="preserve"
   sodipodi:docname="icons8-exercise.svg"
   inkscape:version="0.92.3 (2405546, 2018-03-11)"><metadata
   id="metadata29"><rdf:RDF><cc:Work
       rdf:about=""><dc:format>image/svg+xml</dc:format><dc:type
         rdf:resource="http://purl.org/dc/dcmitype/StillImage" /><dc:title></dc:title></cc:Work></rdf:RDF></metadata><defs
   id="defs27" /><sodipodi:namedview
   pagecolor="#ffffff"
   bordercolor="#666666"
   borderopacity="1"
   objecttolerance="10"
   gridtolerance="10"
   guidetolerance="10"
   inkscape:pageopacity="0"
   inkscape:pageshadow="2"
   inkscape:window-width="773"
   inkscape:window-height="480"
   id="namedview25"
   showgrid="false"
   inkscape:zoom="0.56730769"
   inkscape:cx="133.33232"
   inkscape:cy="208"
   inkscape:window-x="498"
   inkscape:window-y="142"
   inkscape:window-maximized="0"
   inkscape:current-layer="Layer_1" />
<rect
   style="fill:none;"
   width="26"
   height="26"
   id="rect2" />
<path
   style="fill:#808080;fill-opacity:1"
   d="M17.7,4.7c0.5-0.4,1.4-0.3,1.6,0.1l1.5,2.4c0.2,0.3-0.2,1.4-0.6,1.6l-7.9,5c-0.3,0.2-0.6,0.2-0.8-0.1  l-1-1.5c-0.8-1.6-0.1-2.4,1.1-3.3L17.7,4.7z"
   id="path4" />
<circle
   style="fill:#808080;fill-opacity:1"
   cx="21.5"
   cy="2.5"
   r="2.5"
   id="circle6" />
<path
   style="fill:#808080;fill-opacity:1"
   d="M19.1,4.6l-4.1-2.8c-0.3-0.2-0.6-0.3-0.9-0.2L8.6,2.2C7.9,2.4,7.1,2.7,7.2,3.4C7.3,3.9,8.1,4,8.6,3.9  L14,3.8l3,2.4c0.5,0.4,1.3,0.3,1.7-0.3C19.1,5.5,19.6,5,19.1,4.6z"
   id="path8" />
<path
   style="fill:#808080;fill-opacity:1"
   d="M11.1,21c0,0-1.7,1.8-2.5,2.8c-0.6,0.8-0.8,1.5-0.3,1.9s1.1,0.3,2.2-0.7c0.9-0.8,4.2-4.1,4.2-4.1  H11.1z"
   id="path10" />
<path
   style="fill:#808080;fill-opacity:1"
   d="M18.2,18.7c-0.3-0.8-3.7-6.3-3.7-6.3c-0.5-0.9-1.5-1.2-2.5-1.1c-0.9,0.1-1.4,0.6-1,1.3  c0.3,0.7,3.1,4.7,3.1,4.7s-4.5,0.2-5.5,0.3c-0.9,0.1-1.4,0.7-1.4,1.2c0,0.5,0.6,1.1,1.5,1.1s8.2,0.1,8.2,0.1  C17.5,20,18.4,19.5,18.2,18.7z"
   id="path12" />
<path
   style="fill:#808080;fill-opacity:1"
   d="M24.4,11l-3.6-0.1l0-3.6c-0.6-1.1-1.2-1.4-1.8-1.1c-0.6,0.3-0.7,1.1-0.5,1.7l0.4,4.3  c0.2,0.4,0.3,0.7,0.8,0.7c0,0,3.7-0.2,4.5-0.2c0.9,0,1.5-0.3,1.6-0.9C25.8,11,25.2,11,24.4,11z"
   id="path14" />
<g
   id="g22"
   style="fill:#808080;fill-opacity:1">
	<polygon
   style="fill:#808080;fill-opacity:1"
   points="11.7,6 0,6 0,8 8.7,8  "
   id="polygon16" />
	<path
   style="fill:#808080;fill-opacity:1"
   d="M7.5,10H0v2h7.6C7.1,11.1,7.3,10.3,7.5,10z"
   id="path18" />
	<polygon
   style="fill:#808080;fill-opacity:1"
   points="8.5,14 0,14 0,16 9.8,16  "
   id="polygon20" />
</g>
</svg>