<?xml version="1.0" encoding="UTF-8" standalone="no"?>
<!-- Generator: Adobe Illustrator 17.1.0, SVG Export Plug-In . SVG Version: 6.00 Build 0)  -->

<svg
   xmlns:dc="http://purl.org/dc/elements/1.1/"
   xmlns:cc="http://creativecommons.org/ns#"
   xmlns:rdf="http://www.w3.org/1999/02/22-rdf-syntax-ns#"
   xmlns:svg="http://www.w3.org/2000/svg"
   xmlns="http://www.w3.org/2000/svg"
   xmlns:sodipodi="http://sodipodi.sourceforge.net/DTD/sodipodi-0.dtd"
   xmlns:inkscape="http://www.inkscape.org/namespaces/inkscape"
   version="1.1"
   id="Layer_1"
   x="0px"
   y="0px"
   viewBox="0 0 26 26"
   enable-background="new 0 0 26 26"
   xml:space="preserve"
   width="416px"
   height="416px"
   sodipodi:docname="icons8_search_history.svg"
   inkscape:version="0.92.2 (5c3e80d, 2017-08-06)"><metadata
     id="metadata839"><rdf:RDF><cc:Work
         rdf:about=""><dc:format>image/svg+xml</dc:format><dc:type
           rdf:resource="http://purl.org/dc/dcmitype/StillImage" /><dc:title></dc:title></cc:Work></rdf:RDF></metadata><defs
     id="defs837" /><sodipodi:namedview
     pagecolor="#ffffff"
     bordercolor="#666666"
     borderopacity="1"
     objecttolerance="10"
     gridtolerance="10"
     guidetolerance="10"
     inkscape:pageopacity="0"
     inkscape:pageshadow="2"
     inkscape:window-width="1101"
     inkscape:window-height="740"
     id="namedview835"
     showgrid="false"
     inkscape:zoom="0.067157452"
     inkscape:cx="53.004795"
     inkscape:cy="-90.206793"
     inkscape:window-x="244"
     inkscape:window-y="31"
     inkscape:window-maximized="0"
     inkscape:current-layer="Layer_1" /><rect
     y="9.2256165"
     width="10.328643"
     height="1.6556747"
     id="rect828"
     x="-0.033340998"
     style="fill:#808080;stroke-width:0.57346576" /><rect
     y="5.1068015"
     width="14.087479"
     height="1.6556747"
     id="rect830"
     x="-0.033340998"
     style="fill:#808080;stroke-width:0.66973424" /><rect
     y="13.373128"
     width="8.3858042"
     height="1.6556747"
     id="rect832"
     x="0.017337807"
     style="fill:#808080;stroke-width:0.51672351" /><rect
     style="fill:#808080;stroke-width:0.61042035"
     x="-1.189898"
     y="27.802732"
     transform="matrix(0.71751896,-0.69653897,0.71751896,0.69653897,0,0)"
     width="1.3929791"
     height="2.8280773"
     id="rect856" /><path
     inkscape:connector-curvature="0"
     style="fill:#808080;stroke-width:0.61029184"
     d="m 25.328601,23.203805 c 0.441643,0.428729 0.441643,1.124437 0,1.553768 l -0.533316,0.517121 c -0.442262,0.42933 -1.158306,0.42933 -1.599948,0 l -2.85798,-2.775015 c -0.442262,-0.429331 -0.442262,-1.124437 -6.19e-4,-1.553166 l 0.533316,-0.517722 c 0.441642,-0.42873 1.158925,-0.42873 1.600567,0 z"
     id="path858" /><path
     inkscape:connector-curvature="0"
     style="fill:#808080;stroke-width:0.61029184"
     d="m 15.833592,10.157328 c -3.357227,0 -6.0776972,2.640924 -6.0776972,5.899988 0,3.259063 2.7204702,5.900589 6.0776972,5.900589 3.357228,0 6.078317,-2.641526 6.078317,-5.900589 0,-3.259064 -2.721089,-5.899988 -6.078317,-5.899988 z m 0,10.70861 c -2.736574,0 -4.954079,-2.152064 -4.954079,-4.808622 0,-2.656558 2.217505,-4.808623 4.954079,-4.808623 2.736575,0 4.954079,2.152065 4.954079,4.808623 0,2.656558 -2.217504,4.808622 -4.954079,4.808622 z"
     id="path860" /><path
     inkscape:connector-curvature="0"
     style="fill:#808080;stroke-width:0.61029184"
     d="m 17.079855,18.977846 c -2.424389,0 -4.391031,-1.908537 -4.391031,-4.262639 0,-0.06254 0.0068,-0.123869 0.0099,-0.186404 -0.320237,0.502689 -0.50792,1.09377 -0.50792,1.727544 0,1.820145 1.520044,3.295142 3.394393,3.295142 0.724096,0 1.393064,-0.22128 1.944962,-0.595891 -0.14804,0.01563 -0.298558,0.02225 -0.450314,0.02225 z"
     id="path862" /><rect
     y="0.91946298"
     width="10.945088"
     height="1.6556747"
     id="rect832-1"
     x="-0.058255922"
     style="fill:#808080;stroke-width:0.5903309" /></svg>