<?xml version="1.0" encoding="UTF-8" standalone="no"?>
<!-- Generator: Adobe Illustrator 19.1.0, SVG Export Plug-In . SVG Version: 6.00 Build 0)  -->

<svg
   xmlns:dc="http://purl.org/dc/elements/1.1/"
   xmlns:cc="http://creativecommons.org/ns#"
   xmlns:rdf="http://www.w3.org/1999/02/22-rdf-syntax-ns#"
   xmlns:svg="http://www.w3.org/2000/svg"
   xmlns="http://www.w3.org/2000/svg"
   xmlns:sodipodi="http://sodipodi.sourceforge.net/DTD/sodipodi-0.dtd"
   xmlns:inkscape="http://www.inkscape.org/namespaces/inkscape"
   version="1.1"
   id="Layer_1"
   x="0px"
   y="0px"
   viewBox="0 0 26 26"
   style="enable-background:new 0 0 26 26;"
   xml:space="preserve"
   width="416px"
   height="416px"
   sodipodi:docname="icons8-about.svg"
   inkscape:version="0.92.3 (2405546, 2018-03-11)"><metadata
   id="metadata850"><rdf:RDF><cc:Work
       rdf:about=""><dc:format>image/svg+xml</dc:format><dc:type
         rdf:resource="http://purl.org/dc/dcmitype/StillImage" /></cc:Work></rdf:RDF></metadata><defs
   id="defs848" /><sodipodi:namedview
   pagecolor="#ffffff"
   bordercolor="#666666"
   borderopacity="1"
   objecttolerance="10"
   gridtolerance="10"
   guidetolerance="10"
   inkscape:pageopacity="0"
   inkscape:pageshadow="2"
   inkscape:window-width="1850"
   inkscape:window-height="1016"
   id="namedview846"
   showgrid="false"
   inkscape:zoom="1.9951923"
   inkscape:cx="208"
   inkscape:cy="208"
   inkscape:window-x="70"
   inkscape:window-y="27"
   inkscape:window-maximized="1"
   inkscape:current-layer="Layer_1" />
<path
   d="M13,0C5.82,0,0,5.148,0,11.5c0,3.257,1.537,6.192,3.997,8.284c-0.678,2.864-4.099,4.046-3.874,4.856  c2.165,1.247,7.991-1.128,9.883-1.959C10.969,22.882,11.968,23,13,23c7.18,0,13-5.148,13-11.5C26,5.148,20.18,0,13,0z   M14.927,17.415c-0.488,0.202-1.628,0.725-2.673,0.725c-0.967,0-2.291-0.446-2.291-1.875c0-1.656,1.173-4.015,1.173-5.383  c0-1.523-1.98-0.697-2.124-0.642L9.21,9.426C9.7,9.226,10.859,8.7,11.886,8.7c0.833,0,2.249,0.3,2.249,1.875  c0,1.581-1.171,4.112-1.171,5.382c0,0.351-0.045,0.907,1.049,0.907c0.426,0,1.01-0.214,1.114-0.262L14.927,17.415z M13.54,7.197  c-0.708,0-1.784-0.488-1.784-1.658c0-1.188,1.146-1.666,1.784-1.666c0.752,0,1.777,0.548,1.777,1.666  C15.317,6.216,14.785,7.197,13.54,7.197z"
   id="path843"
   style="fill:#808080" />
</svg>