<?xml version="1.0" encoding="UTF-8" standalone="no"?>
<svg
   xmlns:dc="http://purl.org/dc/elements/1.1/"
   xmlns:cc="http://creativecommons.org/ns#"
   xmlns:rdf="http://www.w3.org/1999/02/22-rdf-syntax-ns#"
   xmlns:svg="http://www.w3.org/2000/svg"
   xmlns="http://www.w3.org/2000/svg"
   xmlns:sodipodi="http://sodipodi.sourceforge.net/DTD/sodipodi-0.dtd"
   xmlns:inkscape="http://www.inkscape.org/namespaces/inkscape"
   version="1.1"
   id="Layer_1"
   x="0px"
   y="0px"
   width="416px"
   height="416px"
   viewBox="0 0 26 26"
   enable-background="new 0 0 26 26"
   xml:space="preserve"
   sodipodi:docname="icons8_tts_lang.svg"
   inkscape:version="1.0.1 (3bc2e813f5, 2020-09-07)"><metadata
     id="metadata5374"><rdf:RDF><cc:Work
         rdf:about=""><dc:format>image/svg+xml</dc:format><dc:type
           rdf:resource="http://purl.org/dc/dcmitype/StillImage" /><dc:title></dc:title></cc:Work></rdf:RDF></metadata><defs
     id="defs5372" /><sodipodi:namedview
     pagecolor="#ffffff"
     bordercolor="#666666"
     borderopacity="1"
     objecttolerance="10"
     gridtolerance="10"
     guidetolerance="10"
     inkscape:pageopacity="0"
     inkscape:pageshadow="2"
     inkscape:window-width="798"
     inkscape:window-height="480"
     id="namedview5370"
     showgrid="false"
     inkscape:zoom="0.56730769"
     inkscape:cx="206.56308"
     inkscape:cy="208"
     inkscape:window-x="0"
     inkscape:window-y="0"
     inkscape:window-maximized="0"
     inkscape:current-layer="Layer_1"
     inkscape:document-rotation="0" /><g
     id="g5357"
     style="fill:#808080"
     transform="matrix(0.65758969,0,0,0.67471442,0,8.4574249)"><g
       id="g5353"
       style="fill:#808080"><path
         d="M 14,2 V 14 H 2 V 2 H 14 M 14.315,0 H 1.685 C 0.754,0 0,0.754 0,1.684 V 14.316 C 0,15.246 0.754,16 1.685,16 H 14.316 C 15.246,16 16,15.246 16,14.316 V 1.684 C 16,0.754 15.246,0 14.315,0 Z"
         id="path5351"
         style="fill:#808080"
         inkscape:connector-curvature="0" /></g><path
       d="M 24.315,10 H 11.685 C 10.754,10 10,10.754 10,11.684 V 24.316 C 10,25.246 10.754,26 11.685,26 H 24.316 C 25.246,26 26,25.246 26,24.316 V 11.684 C 26,10.754 25.246,10 24.315,10 Z m -3.96,12.631 -0.698,-2.008 h -3.322 l -0.69,2.008 h -2.146 l 3.457,-9.309 h 2.104 l 3.442,9.309 z m -2.331,-6.752 1.133,3.281 h -2.314 l 1.14,-3.281 z"
       id="path5355"
       style="fill:#808080"
       inkscape:connector-curvature="0" /></g><polygon
     points="7,3 7,4 3,4 3,6 13,6 13,4 9,4 9,3 "
     id="polygon5359"
     style="fill:#808080"
     transform="matrix(0.65758969,0,0,0.67471442,0,8.4574249)" /><path
     stroke-miterlimit="10"
     d="m 2.6994057,16.657229 c 0,0 2.9808541,-1.093711 4.4525398,-4.119131"
     id="path5361"
     style="fill:#808080;stroke:#808080;stroke-width:1.33219;stroke-linecap:round;stroke-linejoin:round;stroke-miterlimit:10;stroke-opacity:1"
     inkscape:connector-curvature="0" /><path
     stroke-miterlimit="10"
     d="m 3.5976733,13.157485 c 0,0 0.6543017,1.458059 3.145909,2.916116"
     id="path5363"
     style="fill:#808080;stroke:#808080;stroke-width:1.33219;stroke-linecap:round;stroke-linejoin:round;stroke-miterlimit:10;stroke-opacity:1"
     inkscape:connector-curvature="0" /><polygon
     points="7,19 7,16 8,16 5.5,13.5 3,16 4,16 4,19 "
     id="polygon5365"
     style="fill:#808080"
     transform="matrix(0.65758969,0,0,0.67471442,0,8.4574249)" /><polygon
     points="7,22 10,22 10,23 12.5,20.5 10,18 10,19 4,19 "
     id="polygon5367"
     style="fill:#808080"
     transform="matrix(0.65758969,0,0,0.67471442,0,8.4574249)" /><path
     fill="#000000"
     d="m 16.846323,8.5922289 c 0,0.2825343 -0.230233,0.512767 -0.512766,0.512767 h -3.589369 c -0.282535,0 -0.512768,-0.2302327 -0.512768,-0.512767 V 4.490092 c 0,-0.2825346 0.230233,-0.5127671 0.512768,-0.5127671 h 3.589369 c 0.282533,0 0.512766,0.2302325 0.512766,0.5127671 z"
     id="path5978"
     style="fill:#808080;stroke-width:0.512767" /><path
     fill="#000000"
     d="M 14.446061,8.5271062 C 14.352219,8.4466057 14.282488,8.2491876 14.282488,8.0789489 V 5.003372 c 0,-0.1702388 0.06974,-0.3712434 0.163573,-0.451748 L 17.885703,0.66228597 C 18.328732,0.21976813 18.89739,0.38795574 18.89739,1.0371187 V 11.949314 c 0,0.698901 -0.514816,0.96349 -1.027584,0.450723 z"
     id="path5980"
     style="fill:#808080;stroke-width:0.512767" /><path
     fill="none"
     stroke="#000000"
     stroke-width="0.835129"
     stroke-linecap="round"
     stroke-linejoin="round"
     stroke-miterlimit="10"
     d="m 20.963331,3.9542506 c 0.921442,0.572248 1.52343,1.5177903 1.52343,2.5874225 0,1.0762977 -0.609169,2.0259423 -1.539842,2.5971653"
     id="path5982"
     style="stroke:#808080;stroke-opacity:1" /><path
     fill="none"
     stroke="#000000"
     stroke-width="0.835129"
     stroke-linecap="round"
     stroke-linejoin="round"
     stroke-miterlimit="10"
     d="m 22.229864,1.9600994 c 1.673672,0.8445273 2.820732,2.5781926 2.820732,4.5810609 0,2.0028677 -1.14706,3.7365327 -2.820732,4.5810617"
     id="path5984"
     style="stroke:#808080;stroke-opacity:1" /></svg>
