<?xml version="1.0" encoding="UTF-8" standalone="no"?>
<!-- Generator: Adobe Illustrator 17.1.0, SVG Export Plug-In . SVG Version: 6.00 Build 0)  -->

<svg
   version="1.1"
   id="Layer_1"
   x="0px"
   y="0px"
   viewBox="0 0 26 26"
   enable-background="new 0 0 26 26"
   xml:space="preserve"
   width="416px"
   height="416px"
   sodipodi:docname="icons8_brightness_warm_down.svg"
   inkscape:version="1.1.1 (3bf5ae0d25, 2021-09-20)"
   xmlns:inkscape="http://www.inkscape.org/namespaces/inkscape"
   xmlns:sodipodi="http://sodipodi.sourceforge.net/DTD/sodipodi-0.dtd"
   xmlns="http://www.w3.org/2000/svg"
   xmlns:svg="http://www.w3.org/2000/svg"
   xmlns:rdf="http://www.w3.org/1999/02/22-rdf-syntax-ns#"
   xmlns:cc="http://creativecommons.org/ns#"
   xmlns:dc="http://purl.org/dc/elements/1.1/"><metadata
     id="metadata1511"><rdf:RDF><cc:Work
         rdf:about=""><dc:format>image/svg+xml</dc:format><dc:type
           rdf:resource="http://purl.org/dc/dcmitype/StillImage" /></cc:Work></rdf:RDF></metadata><defs
     id="defs1509" /><sodipodi:namedview
     pagecolor="#ffffff"
     bordercolor="#666666"
     borderopacity="1"
     objecttolerance="10"
     gridtolerance="10"
     guidetolerance="10"
     inkscape:pageopacity="0"
     inkscape:pageshadow="2"
     inkscape:window-width="1920"
     inkscape:window-height="995"
     id="namedview1507"
     showgrid="false"
     inkscape:zoom="0.40114712"
     inkscape:cx="209.39948"
     inkscape:cy="246.79225"
     inkscape:window-x="0"
     inkscape:window-y="0"
     inkscape:window-maximized="1"
     inkscape:current-layer="Layer_1"
     inkscape:pagecheckerboard="0" /><line
     fill="none"
     stroke="#000000"
     stroke-width="2"
     stroke-miterlimit="10"
     x1="26"
     y1="1"
     x2="0"
     y2="1"
     id="line1484" /><line
     fill="none"
     stroke="#000000"
     stroke-width="2"
     stroke-miterlimit="10"
     x1="26"
     y1="1"
     x2="0"
     y2="1"
     id="line1486" /><line
     fill="none"
     stroke="#000000"
     stroke-width="2"
     stroke-miterlimit="10"
     x1="26"
     y1="1"
     x2="0"
     y2="1"
     id="line1488"
     style="stroke:#808080;stroke-opacity:1" /><g
     id="g1492"
     style="stroke:#808080;stroke-opacity:1"
     transform="matrix(1,0,0,-1,0,26)"><path
       fill="none"
       stroke="#000000"
       stroke-width="2"
       stroke-linecap="round"
       stroke-linejoin="round"
       stroke-miterlimit="10"
       d="m 19,25 c 0,-3.3 -2.7,-6 -6,-6 v 0 c -3.3,0 -6,2.7 -6,6"
       id="path1490"
       style="stroke:#808080;stroke-opacity:1" /></g><path
     fill="#000000"
     d="m 12.7,25.8 c 0.1,0.1 0.2,0.2 0.3,0.2 0.1,0 0.2,0 0.3,-0.1 0.1,-0.1 2.2,-2 3.6,-4 0.1,-0.2 0.1,-0.4 0,-0.5 C 16.8,21.1 16.7,21 16.5,21 h -1.8 c 0,0 -0.2,-4.4 -0.4,-4.5 C 14.1,16.2 13.5,16 13,16 12.5,16 11.9,16.2 11.8,16.4 11.6,16.7 11.3,21 11.3,21 H 9.6 c -0.2,0 -0.4,0.1 -0.5,0.3 -0.1,0.2 -0.1,0.4 0,0.5 1.4,2 3.5,4 3.6,4 z"
     id="path1504"
     style="fill:#808080" /><path
     style="fill:#808080;fill-opacity:1;fill-rule:nonzero;stroke:none;stroke-width:0.140114"
     d="m 12.956754,14.169094 c -0.0295,-0.0036 -0.05966,-0.0087 -0.08642,-0.01353 -0.259197,-0.02928 -0.46765,-0.149844 -0.540339,-0.309737 -0.07269,-0.162078 0.0028,-0.334203 0.194747,-0.447787 0,0 0.221485,-0.134112 0.345597,-0.41284 0.124116,-0.278719 0.161821,-0.65923 -0.432683,-1.225408 -0.78856,-0.755342 -0.826273,-1.476609 -0.60479,-1.968958 0.221482,-0.49191 0.691876,-0.79859 0.691876,-0.79859 0.274967,-0.175185 0.717936,-0.175185 0.99359,0 0.275657,0.175619 0.275657,0.457836 0,0.633455 0,0 -0.221484,0.134124 -0.345596,0.413276 -0.124116,0.278721 -0.161821,0.658794 0.431996,1.224973 0.789248,0.755779 0.826961,1.476607 0.60548,1.968957 -0.221485,0.492346 -0.69188,0.79859 -0.69188,0.79859 -0.143293,0.0983 -0.351082,0.148098 -0.561595,0.137612 z"
     id="path2"
     sodipodi:nodetypes="ccccscccccccsccc" /><path
     style="fill:#808080;fill-opacity:1;fill-rule:nonzero;stroke:none;stroke-width:0.140114"
     d="m 0.51474219,3.862573 c 0.0036,-0.0295 0.0087,-0.05966 0.01353,-0.08642 0.02928,-0.259197 0.149845,-0.46765 0.309737,-0.540339 0.16207901,-0.07269 0.33420301,0.0028 0.44778801,0.194747 0,0 0.134112,0.221485 0.41284,0.345596 0.278719,0.124116 0.65923,0.161822 1.225408,-0.432682 0.755342,-0.78856 1.476609,-0.826273 1.968957,-0.604791 0.491911,0.221483 0.798591,0.691877 0.798591,0.691877 0.175184,0.274966 0.175184,0.717936 0,0.993589 -0.175619,0.275658 -0.457836,0.275658 -0.633456,0 0,0 -0.134124,-0.221483 -0.413275,-0.345596 C 4.3661402,3.954438 3.9860682,3.916733 3.4198892,4.51055 2.6641102,5.299798 1.9432822,5.337511 1.4509322,5.11603 0.9585862,4.894546 0.65234219,4.42415 0.65234219,4.42415 c -0.0983,-0.143293 -0.148097,-0.351082 -0.137612,-0.561594 z"
     id="path2-3"
     sodipodi:nodetypes="ccccscccccccsccc" /><path
     style="fill:#808080;fill-opacity:1;fill-rule:nonzero;stroke:none;stroke-width:0.140114"
     d="m 25.44877,4.709506 c -0.0036,0.0295 -0.0087,0.05966 -0.01353,0.08642 -0.02928,0.259197 -0.149844,0.46765 -0.309737,0.540339 -0.162078,0.07269 -0.334203,-0.0028 -0.447787,-0.194747 0,0 -0.134112,-0.221485 -0.412839,-0.345597 C 23.986157,4.671805 23.605646,4.6341 23.039468,5.228604 22.284126,6.017164 21.562859,6.054877 21.07051,5.833394 20.5786,5.611912 20.27192,5.141518 20.27192,5.141518 c -0.175184,-0.274967 -0.175184,-0.717936 0,-0.99359 0.175619,-0.275657 0.457836,-0.275657 0.633455,0 0,0 0.134125,0.221484 0.413276,0.345596 0.278721,0.124116 0.658794,0.161821 1.224973,-0.431996 0.755779,-0.789248 1.476607,-0.826961 1.968957,-0.60548 0.492346,0.221485 0.79859,0.69188 0.79859,0.69188 0.0983,0.143293 0.148098,0.351082 0.137612,0.561595 z"
     id="path2-5"
     sodipodi:nodetypes="ccccscccccccsccc" /><path
     style="fill:#808080;fill-opacity:1;fill-rule:nonzero;stroke:none;stroke-width:0.140114"
     d="m 20.359683,12.323385 c -0.02787,0.01031 -0.05702,0.01959 -0.08302,0.02755 -0.243828,0.09267 -0.484351,0.08096 -0.622194,-0.02789 -0.138845,-0.110795 -0.150563,-0.29838 -0.03195,-0.487258 0,0 0.135476,-0.220654 0.11816,-0.525272 -0.01731,-0.304615 -0.158047,-0.660146 -0.945832,-0.891202 -1.046925,-0.310347 -1.410764,-0.934262 -1.43935,-1.473377 -0.02838,-0.538725 0.249336,-1.026777 0.249336,-1.026777 0.164209,-0.281658 0.557997,-0.484522 0.883273,-0.455026 0.325478,0.02988 0.454723,0.280762 0.290098,0.563124 0,0 -0.135469,0.220663 -0.117961,0.52566 0.01731,0.304616 0.157848,0.659757 0.945023,0.891128 1.047737,0.310421 1.411375,0.933946 1.439962,1.473061 0.02858,0.539113 -0.249338,1.026779 -0.249338,1.026779 -0.08237,0.153008 -0.244279,0.292437 -0.436221,0.379522 z"
     id="path2-6"
     sodipodi:nodetypes="ccccscccccccsccc" /><path
     style="fill:#808080;fill-opacity:1;fill-rule:nonzero;stroke:none;stroke-width:0.140114"
     d="m 4.5499889,11.482779 c -0.01923,-0.02266 -0.03793,-0.04687 -0.05431,-0.06857 -0.170566,-0.197352 -0.241923,-0.427344 -0.186855,-0.594129 0.05655,-0.16839 0.228781,-0.243636 0.446859,-0.196867 0,0 0.253704,0.05173 0.533978,-0.06885 0.280271,-0.120573 0.566112,-0.37455 0.513434,-1.19383 -0.06692,-1.089903 0.394681,-1.645395 0.891413,-1.856864 0.496434,-0.211148 1.05008,-0.117345 1.05008,-0.117345 0.320862,0.05783 0.646307,0.358343 0.729981,0.674055 0.08338,0.316031 -0.108075,0.523373 -0.429738,0.465393 0,0 -0.253712,-0.05172 -0.534274,0.06918 -0.280272,0.120573 -0.565815,0.374229 -0.513642,1.193043 0.06713,1.09069 -0.394175,1.645861 -0.890907,1.857332 -0.496731,0.211465 -1.050083,0.117342 -1.050083,0.117342 -0.171963,-0.02499 -0.358406,-0.129369 -0.505954,-0.279885 z"
     id="path2-7"
     sodipodi:nodetypes="ccccscccccccsccc" /></svg>
