<?xml version="1.0" encoding="UTF-8" standalone="no"?>
<!-- Generator: Adobe Illustrator 15.0.0, SVG Export Plug-In . SVG Version: 6.00 Build 0)  -->

<svg
   version="1.1"
   id="Layer_1"
   x="0px"
   y="0px"
   width="416px"
   height="416px"
   viewBox="0 0 26 26"
   enable-background="new 0 0 26 26"
   xml:space="preserve"
   sodipodi:docname="icons8_bookmarks_export.svg"
   inkscape:version="1.1.2 (0a00cf5339, 2022-02-04)"
   xmlns:inkscape="http://www.inkscape.org/namespaces/inkscape"
   xmlns:sodipodi="http://sodipodi.sourceforge.net/DTD/sodipodi-0.dtd"
   xmlns="http://www.w3.org/2000/svg"
   xmlns:svg="http://www.w3.org/2000/svg"
   xmlns:rdf="http://www.w3.org/1999/02/22-rdf-syntax-ns#"
   xmlns:cc="http://creativecommons.org/ns#"
   xmlns:dc="http://purl.org/dc/elements/1.1/"><metadata
     id="metadata861"><rdf:RDF><cc:Work
         rdf:about=""><dc:format>image/svg+xml</dc:format><dc:type
           rdf:resource="http://purl.org/dc/dcmitype/StillImage" /><dc:title /></cc:Work></rdf:RDF></metadata><defs
     id="defs859" /><sodipodi:namedview
     pagecolor="#ffffff"
     bordercolor="#666666"
     borderopacity="1"
     objecttolerance="10"
     gridtolerance="10"
     guidetolerance="10"
     inkscape:pageopacity="0"
     inkscape:pageshadow="2"
     inkscape:window-width="1846"
     inkscape:window-height="989"
     id="namedview857"
     showgrid="false"
     inkscape:zoom="1.1346154"
     inkscape:cx="1.3220339"
     inkscape:cy="166.57627"
     inkscape:window-x="0"
     inkscape:window-y="0"
     inkscape:window-maximized="1"
     inkscape:current-layer="Layer_1"
     inkscape:pagecheckerboard="0" /><path
     inkscape:connector-curvature="0"
     d="M 11.711068,11.304417 H 11.604914 C 11.366058,10.654395 10.733154,10.185619 9.9802468,10.185619 H 3.0569607 c -0.9554135,0 -1.7308216,0.751832 -1.7308216,1.678195 v 1.118798 8.390975 1.118798 c 0,1.043278 2.047562,2.237593 2.8847024,2.237593 h 7.5002265 c 0.95426,0 1.730822,-0.752951 1.730822,-1.678196 v -10.06917 c 0,-0.925245 -0.776562,-1.678195 -1.730822,-1.678195 z M 4.2108415,12.66823 c 0,-1.341996 1.1538803,-1.363813 1.1538803,-1.363813 h 4.038584 c 0,0 -1.1538811,0.01172 -1.1538811,1.363813 0,0.909022 0,5.908365 0,5.908365 L 6.230134,17.212783 4.2108415,18.576595 c 0,0 0,-4.999902 0,-5.908365 z m 8.0771675,10.383552 c 0,0.308787 -0.259047,0.559398 -0.576941,0.559398 H 4.2108415 C 3.9979503,23.60898 3.4850506,23.339872 3.0702303,23.051782 h 6.9100165 c 0.9554132,0 1.7308212,-0.751831 1.7308212,-1.678195 v -8.950374 c 0.317894,0 0.576941,0.25061 0.576941,0.559399 z"
     id="path2002"
     style="fill:#808080;stroke-width:0.56810176" /><g
     transform="matrix(0.12811233,0,0,0.12594872,11.685064,1.2873834)"
     id="surface1-3-67"
     style="fill:#808080"><path
       inkscape:connector-curvature="0"
       style="fill:#808080;fill-opacity:1;fill-rule:nonzero;stroke:none"
       d="m 63.968074,79.701267 c -0.292968,0.04687 -0.660156,0.171875 -0.859375,0.371094 -0.402343,0.398437 -11.035156,10.21875 -17.730468,20.066409 -0.398438,0.78515 -0.367188,1.52343 -0.367188,2.70703 0.398438,0.78515 1.554688,1.23047 2.339844,1.23047 h 8.246094 c 0,0 1.679687,28.39062 2.460937,29.17578 1.1875,1.57031 3.910156,2.33984 6.28125,2.33984 2.753906,0 5.863281,-1.15234 6.648438,-2.33984 0.78125,-0.78516 1.96875,-29.17578 1.96875,-29.17578 h 8.738281 c 1.1875,0 1.941406,-0.44532 2.339844,-1.23047 0.402343,-1.1836 0.402343,-1.92188 0,-2.70703 -6.691407,-9.847659 -17.328125,-19.667972 -17.726563,-20.066409 -0.398437,-0.402344 -1.199219,-0.371094 -1.601562,-0.371094 -0.199219,0 -0.445313,-0.04687 -0.738282,0 z"
       id="path2"
       sodipodi:nodetypes="scccsccsccscccss" /></g><path
     style="fill:#808080;fill-opacity:1;stroke-width:0.335869"
     inkscape:connector-curvature="0"
     d="M 21.625155,4.3634139 H 20.613551 V 2.0216256 h 1.011604 z m 2.697612,-1.0036238 v 5.6872 c 0,0.5543338 -0.453199,1.0036239 -1.011604,1.0036239 h -6.74403 c -0.558404,0 -1.011603,-0.4492901 -1.011603,-1.0036239 V 2.3561665 c 0,-0.554334 0.453199,-1.0036228 1.011603,-1.0036228 h 5.732424 c 0.279205,0 0.433305,0.014384 1.221008,0.7958735 0.787702,0.7814883 0.802202,0.9343729 0.802202,1.2113729 z m -7.08123,1.0036238 c 0,0.1843325 0.151403,0.3345408 0.3372,0.3345408 h 4.383619 c 0.185798,0 0.337201,-0.1502083 0.337201,-0.3345408 V 2.0216256 c 0,-0.1843327 -0.151403,-0.334541 -0.337201,-0.334541 h -4.383619 c -0.185797,0 -0.3372,0.1502083 -0.3372,0.334541 z m 6.069626,1.6727054 c 0,-0.1843318 -0.151405,-0.3345412 -0.337202,-0.3345412 h -6.069626 c -0.185798,0 -0.337202,0.1502084 -0.337202,0.3345412 v 3.3454102 c 0,0.184334 0.151404,0.3345426 0.337202,0.3345426 h 6.069626 c 0.185797,0 0.337202,-0.1502086 0.337202,-0.3345426 z"
     id="path2-0" /></svg>
