<?xml version="1.0" encoding="UTF-8" standalone="no"?>
<!-- Generator: Adobe Illustrator 15.0.0, SVG Export Plug-In . SVG Version: 6.00 Build 0)  -->

<svg
   xmlns:dc="http://purl.org/dc/elements/1.1/"
   xmlns:cc="http://creativecommons.org/ns#"
   xmlns:rdf="http://www.w3.org/1999/02/22-rdf-syntax-ns#"
   xmlns:svg="http://www.w3.org/2000/svg"
   xmlns="http://www.w3.org/2000/svg"
   xmlns:sodipodi="http://sodipodi.sourceforge.net/DTD/sodipodi-0.dtd"
   xmlns:inkscape="http://www.inkscape.org/namespaces/inkscape"
   version="1.1"
   id="Layer_1"
   x="0px"
   y="0px"
   width="416px"
   height="416px"
   viewBox="0 0 26 26"
   enable-background="new 0 0 26 26"
   xml:space="preserve"
   sodipodi:docname="icons8_page_down_key_long.svg"
   inkscape:version="0.92.2 (5c3e80d, 2017-08-06)"><metadata
     id="metadata875"><rdf:RDF><cc:Work
         rdf:about=""><dc:format>image/svg+xml</dc:format><dc:type
           rdf:resource="http://purl.org/dc/dcmitype/StillImage" /><dc:title></dc:title></cc:Work></rdf:RDF></metadata><defs
     id="defs873" /><sodipodi:namedview
     pagecolor="#ffffff"
     bordercolor="#666666"
     borderopacity="1"
     objecttolerance="10"
     gridtolerance="10"
     guidetolerance="10"
     inkscape:pageopacity="0"
     inkscape:pageshadow="2"
     inkscape:window-width="737"
     inkscape:window-height="403"
     id="namedview871"
     showgrid="false"
     inkscape:zoom="0.3527035"
     inkscape:cx="255.49669"
     inkscape:cy="107.04043"
     inkscape:window-x="77"
     inkscape:window-y="90"
     inkscape:window-maximized="1"
     inkscape:current-layer="Layer_1" /><path
     d="M 13.999678,4.6107427 C 13.807563,4.4083641 13.610725,4.2026126 13.417034,3.9934882 13.221769,3.7860503 13.029655,3.5752392 12.84069,3.3694878 11.492734,1.8963408 10.690418,1.063216 9.8534582,1.063216 h -6.298855 c -1.7361218,0 -3.1494272,1.5136226 -3.1494272,3.3729752 V 19.614579 c 0,1.859353 1.4133054,3.372976 3.1494272,3.372976 h 9.4482818 c 1.736121,0 3.149427,-1.513623 3.149427,-3.372976 V 7.8091664 c 0,-0.895525 -0.777909,-1.7556336 -2.152634,-3.1984237 z m 0.57792,15.0038363 c 0,0.930942 -0.705471,1.686488 -1.574713,1.686488 H 3.5546032 c -0.8692418,0 -1.5747136,-0.755546 -1.5747136,-1.686488 V 4.4361912 c 0,-0.9309411 0.7054718,-1.6864876 1.5747136,-1.6864876 l 5.7390437,-0.00338 C 9.8613314,2.9014805 9.8534582,3.6485945 9.8534582,4.3965517 V 6.96592 c 0,0.4646273 0.3535228,0.8432438 0.7873558,0.8432438 h 2.362071 c 0.785781,0 1.574713,0.00422 1.574713,0.8432438 z"
     id="path868"
     style="fill:#808080;stroke-width:0.8148213"
     inkscape:connector-curvature="0" /><path
     inkscape:connector-curvature="0"
     d="m 4.0817255,10.848907 c -0.1852215,0 -0.4317774,0.152598 -0.4935179,0.381493 -0.061741,0.228894 0,0.457789 0.123481,0.686684 1.3578848,2.441547 3.9501741,4.883093 3.9501741,4.883093 0,0 0.1234805,0.152597 0.3684122,0.152597 0.2485861,0 0.3720676,-0.152597 0.3720676,-0.152597 0,0 2.5922875,-2.441546 3.9501725,-4.883093 0.123482,-0.228895 0.185223,-0.45779 0.123482,-0.686684 -0.06215,-0.228895 -0.308704,-0.381493 -0.493924,-0.381493 z"
     id="path8216"
     style="fill:#808080;stroke-width:0.45454317" /><ellipse
     cx="21.414228"
     cy="22.393726"
     id="circle828-7"
     style="fill:#808080;stroke-width:0.39189434"
     rx="2.3464022"
     ry="2.3563411" /><path
     inkscape:connector-curvature="0"
     style="fill:none;stroke:#808080;stroke-width:1.87091148;stroke-linecap:round;stroke-linejoin:round;stroke-miterlimit:10;stroke-dasharray:none;stroke-opacity:1"
     d="m 24.913346,21.013308 c -0.327844,-1.619985 -1.780582,-2.841356 -3.524027,-2.841356 -1.743445,0 -3.196182,1.221371 -3.524026,2.841356"
     id="path832-9" /></svg>