<?xml version="1.0" encoding="UTF-8" standalone="no"?>
<!-- Generator: Adobe Illustrator 17.0.0, SVG Export Plug-In . SVG Version: 6.00 Build 0)  -->

<svg
   xmlns:dc="http://purl.org/dc/elements/1.1/"
   xmlns:cc="http://creativecommons.org/ns#"
   xmlns:rdf="http://www.w3.org/1999/02/22-rdf-syntax-ns#"
   xmlns:svg="http://www.w3.org/2000/svg"
   xmlns="http://www.w3.org/2000/svg"
   xmlns:sodipodi="http://sodipodi.sourceforge.net/DTD/sodipodi-0.dtd"
   xmlns:inkscape="http://www.inkscape.org/namespaces/inkscape"
   version="1.1"
   id="Layer_1"
   x="0px"
   y="0px"
   width="416px"
   height="416px"
   viewBox="0 0 26 26"
   enable-background="new 0 0 26 26"
   xml:space="preserve"
   sodipodi:docname="icons8_ext_fullscreen.svg"
   inkscape:version="0.92.4 (f8dce91, 2019-08-02)"><metadata
   id="metadata13"><rdf:RDF><cc:Work
       rdf:about=""><dc:format>image/svg+xml</dc:format><dc:type
         rdf:resource="http://purl.org/dc/dcmitype/StillImage" /><dc:title></dc:title></cc:Work></rdf:RDF></metadata><defs
   id="defs11" /><sodipodi:namedview
   pagecolor="#ffffff"
   bordercolor="#666666"
   borderopacity="1"
   objecttolerance="10"
   gridtolerance="10"
   guidetolerance="10"
   inkscape:pageopacity="0"
   inkscape:pageshadow="2"
   inkscape:window-width="1850"
   inkscape:window-height="1016"
   id="namedview9"
   showgrid="false"
   inkscape:zoom="1.6045885"
   inkscape:cx="208"
   inkscape:cy="208"
   inkscape:window-x="70"
   inkscape:window-y="27"
   inkscape:window-maximized="1"
   inkscape:current-layer="Layer_1" />



<path
   inkscape:connector-curvature="0"
   d="M 18.863794,0.15694511 H 8.0402174 c -1.6304241,0 -2.9518843,1.32789229 -2.9518843,2.96404539 V 22.881295 c 0,1.636153 1.3214602,2.964045 2.9518843,2.964045 H 18.863794 c 1.630424,0 2.951884,-1.327892 2.951884,-2.964045 V 3.1209905 c 0,-1.6361531 -1.32146,-2.96404539 -2.951884,-2.96404539 z m -6.39575,0.98801409 h 1.967923 c 0.271574,0 0.491981,0.2213164 0.491981,0.4940086 0,0.2726922 -0.220407,0.4940085 -0.491981,0.4940085 h -1.967923 c -0.271573,0 -0.49198,-0.2213163 -0.49198,-0.4940085 0,-0.2726922 0.220407,-0.4940086 0.49198,-0.4940086 z m 0.983962,23.4930248 c -0.694677,0 -1.257503,-0.565143 -1.257503,-1.262684 0,-0.697538 0.562826,-1.262683 1.257503,-1.262683 0.694677,0 1.257503,0.565145 1.257503,1.262683 0,0.697541 -0.562826,1.262684 -1.257503,1.262684 z m 6.395749,-4.226729 c 0,0.272692 -0.220407,0.494008 -0.491981,0.494008 H 7.5482377 c -0.2715734,0 -0.4919817,-0.221316 -0.4919817,-0.494008 V 3.6149991 c 0,-0.2726922 0.2204083,-0.4940086 0.4919817,-0.4940086 H 19.355774 c 0.271574,0 0.491981,0.2213164 0.491981,0.4940086 z"
   id="path824"
   style="fill:#808080;stroke-width:0.98598617" /><rect
   x="15.013861"
   style="fill:#808080;stroke-width:0.16302787"
   y="11.913269"
   width="2.5756288"
   height="1.4033935"
   id="rect856" /><polygon
   transform="matrix(0.19864035,0,0,0.17542417,14.347157,10.420484)"
   style="fill:#808080"
   points="12,4.061 12,21.938 25.906,13 "
   id="polygon858" /><rect
   x="-11.774713"
   style="fill:#808080;stroke-width:0.14861223"
   y="11.913269"
   width="2.1402698"
   height="1.4033935"
   id="rect856-6"
   transform="scale(-1,1)" /><polygon
   transform="matrix(-0.20720802,0,0,0.17542417,12.676518,10.315125)"
   style="fill:#808080"
   points="25.906,13 12,4.061 12,21.938 "
   id="polygon858-7" /><polygon
   transform="matrix(0,0.15990706,-0.18111574,0,15.666084,16.385401)"
   style="fill:#808080"
   points="12,21.938 25.906,13 12,4.061 "
   id="polygon858-1" /><rect
   x="-9.4989214"
   style="fill:#808080;stroke-width:0.1331622"
   y="-14.087955"
   width="1.7172536"
   height="1.4043208"
   id="rect856-6-1"
   transform="matrix(0,-1,-1,0,0,0)" /><polygon
   transform="matrix(0,-0.14558827,-0.17554011,0,15.641528,9.6567235)"
   style="fill:#808080"
   points="25.906,13 12,4.061 12,21.938 "
   id="polygon858-7-4" /><rect
   x="-18.705881"
   style="fill:#808080;stroke-width:0.15281393"
   y="-14.1095"
   width="1.9526268"
   height="1.6264677"
   id="rect856-6-1-0"
   transform="matrix(0,-1,-1,0,0,0)" /><path
   inkscape:connector-curvature="0"
   d="m 15.216522,2.7589897 h -3.440729 c -0.905261,0 -0.489723,-0.2220515 -0.489723,0.6554601 v 0.026222 c 0,0.8775116 0.07839,1.5965208 0.98363,1.5896946 l 2.368217,-0.017853 c 0.905232,-0.00682 0.977646,-0.6943247 0.977646,-1.5718363 v -0.026222 c 0,-0.8775116 0.506223,-0.6554601 -0.399041,-0.6554601 z m -1.745147,1.8225559 c -0.385706,0 -0.698204,-0.3031023 -0.698204,-0.6772122 0,-0.374106 0.312498,-0.6772093 0.698204,-0.6772093 0.385707,0 0.698204,0.3031033 0.698204,0.6772093 0,0.3741099 -0.312497,0.6772122 -0.698204,0.6772122 z"
   id="path824-2"
   style="fill:#808080;stroke-width:0.53804982"
   sodipodi:nodetypes="ssssssssssssss" /></svg>