<?xml version="1.0" encoding="UTF-8" standalone="no"?>
<!-- Generator: Adobe Illustrator 16.0.0, SVG Export Plug-In . SVG Version: 6.00 Build 0)  -->

<svg
   xmlns:dc="http://purl.org/dc/elements/1.1/"
   xmlns:cc="http://creativecommons.org/ns#"
   xmlns:rdf="http://www.w3.org/1999/02/22-rdf-syntax-ns#"
   xmlns:svg="http://www.w3.org/2000/svg"
   xmlns="http://www.w3.org/2000/svg"
   xmlns:sodipodi="http://sodipodi.sourceforge.net/DTD/sodipodi-0.dtd"
   xmlns:inkscape="http://www.inkscape.org/namespaces/inkscape"
   version="1.1"
   id="Layer_1"
   x="0px"
   y="0px"
   width="416px"
   height="416px"
   viewBox="0 0 26 26"
   enable-background="new 0 0 26 26"
   xml:space="preserve"
   sodipodi:docname="icons8-google-translate-2.svg"
   inkscape:version="0.92.2 (5c3e80d, 2017-08-06)"><metadata
     id="metadata5374"><rdf:RDF><cc:Work
         rdf:about=""><dc:format>image/svg+xml</dc:format><dc:type
           rdf:resource="http://purl.org/dc/dcmitype/StillImage" /><dc:title></dc:title></cc:Work></rdf:RDF></metadata><defs
     id="defs5372" /><sodipodi:namedview
     pagecolor="#ffffff"
     bordercolor="#666666"
     borderopacity="1"
     objecttolerance="10"
     gridtolerance="10"
     guidetolerance="10"
     inkscape:pageopacity="0"
     inkscape:pageshadow="2"
     inkscape:window-width="737"
     inkscape:window-height="480"
     id="namedview5370"
     showgrid="false"
     inkscape:zoom="0.56730769"
     inkscape:cx="206.56308"
     inkscape:cy="208"
     inkscape:window-x="0"
     inkscape:window-y="0"
     inkscape:window-maximized="0"
     inkscape:current-layer="Layer_1" /><g
     id="g5357"
     style="fill:#808080"><g
       id="g5353"
       style="fill:#808080"><path
         fill="#000000"
         d="M14,2v12H2V2H14 M14.315,0H1.685C0.754,0,0,0.754,0,1.684v12.632C0,15.246,0.754,16,1.685,16h12.631    C15.246,16,16,15.246,16,14.316V1.684C16,0.754,15.246,0,14.315,0L14.315,0z"
         id="path5351"
         style="fill:#808080" /></g><path
       fill="#000000"
       d="M24.315,10H11.685C10.754,10,10,10.754,10,11.684v12.632C10,25.246,10.754,26,11.685,26h12.631   C25.246,26,26,25.246,26,24.316V11.684C26,10.754,25.246,10,24.315,10z M20.355,22.631l-0.698-2.008h-3.322l-0.69,2.008h-2.146   l3.457-9.309h2.104l3.442,9.309H20.355z M18.024,15.879l1.133,3.281h-2.314l1.14-3.281H18.024z"
       id="path5355"
       style="fill:#808080" /></g><polygon
     fill="#000000"
     points="9,4 9,3 7,3 7,4 3,4 3,6 13,6 13,4 "
     id="polygon5359"
     style="fill:#808080" /><path
     fill="none"
     stroke="#000000"
     stroke-width="2"
     stroke-linecap="round"
     stroke-linejoin="round"
     stroke-miterlimit="10"
     d="  M4.105,12.153c0,0,4.533-1.621,6.771-6.105"
     id="path5361"
     style="fill:#808080;stroke:#808080;stroke-opacity:1" /><path
     fill="none"
     stroke="#000000"
     stroke-width="2"
     stroke-linecap="round"
     stroke-linejoin="round"
     stroke-miterlimit="10"
     d="  M5.471,6.966c0,0,0.995,2.161,4.784,4.322"
     id="path5363"
     style="fill:#808080;stroke:#808080;stroke-opacity:1" /><polygon
     fill="#000000"
     points="4,16 4,19 7,19 7,16 8,16 5.5,13.5 3,16 "
     id="polygon5365"
     style="fill:#808080" /><polygon
     fill="#000000"
     points="10,19 4,19 7,22 10,22 10,23 12.5,20.5 10,18 "
     id="polygon5367"
     style="fill:#808080" /><g
     transform="matrix(0.82294189,0,0,0.89631107,10.509383,-6.9390328)"
     id="g5393"
     style="fill:#808080"><path
       inkscape:connector-curvature="0"
       d="m 12.2,15.9 h 3.6 v 1.5 h -5.6 v -0.6 c 0,-2.7 2.5,-2.9 3.6,-4.8 0.2,-0.3 0.3,-1.6 -1.1,-1.6 -0.7,0 -1.4,0.3 -2.1,0.9 V 9.6 c 0.7,-0.5 1.6,-0.7 2.5,-0.7 0.8,0 2.7,0.3 2.7,2.4 0,2.7 -3.6,3.6 -3.6,4.6 z"
       id="path5391"
       style="fill:#808080" /></g></svg>