<?xml version="1.0" encoding="UTF-8" standalone="no"?>
<svg
   xmlns:dc="http://purl.org/dc/elements/1.1/"
   xmlns:cc="http://creativecommons.org/ns#"
   xmlns:rdf="http://www.w3.org/1999/02/22-rdf-syntax-ns#"
   xmlns:svg="http://www.w3.org/2000/svg"
   xmlns="http://www.w3.org/2000/svg"
   xmlns:sodipodi="http://sodipodi.sourceforge.net/DTD/sodipodi-0.dtd"
   xmlns:inkscape="http://www.inkscape.org/namespaces/inkscape"
   version="1.1"
   id="Layer_1"
   x="0px"
   y="0px"
   width="416px"
   height="416px"
   viewBox="0 0 26 26"
   enable-background="new 0 0 26 26"
   xml:space="preserve"
   sodipodi:docname="icons8_tts_engine.svg"
   inkscape:version="1.0.1 (3bc2e813f5, 2020-09-07)"><metadata
     id="metadata5991"><rdf:RDF><cc:Work
         rdf:about=""><dc:format>image/svg+xml</dc:format><dc:type
           rdf:resource="http://purl.org/dc/dcmitype/StillImage" /><dc:title></dc:title></cc:Work></rdf:RDF></metadata><defs
     id="defs5989" /><sodipodi:namedview
     pagecolor="#ffffff"
     bordercolor="#666666"
     borderopacity="1"
     objecttolerance="10"
     gridtolerance="10"
     guidetolerance="10"
     inkscape:pageopacity="0"
     inkscape:pageshadow="2"
     inkscape:window-width="870"
     inkscape:window-height="480"
     id="namedview5987"
     showgrid="false"
     inkscape:zoom="0.56730769"
     inkscape:cx="208"
     inkscape:cy="208"
     inkscape:window-x="0"
     inkscape:window-y="0"
     inkscape:window-maximized="0"
     inkscape:current-layer="Layer_1"
     inkscape:document-rotation="0" /><path
     fill="#000000"
     d="m 5.5259741,10.844496 c 0,0.338312 -0.2756847,0.613997 -0.6139971,0.613997 H 0.61399713 C 0.27568471,11.458493 0,11.182808 0,10.844496 V 5.9325189 C 0,5.5942065 0.27568471,5.3185218 0.61399713,5.3185218 H 4.911977 c 0.3383124,0 0.6139971,0.2756847 0.6139971,0.6139971 z"
     id="path5978"
     style="fill:#808080;stroke-width:0.613997" /><path
     fill="#000000"
     d="M 2.6518536,10.766518 C 2.5394921,10.670121 2.4559885,10.433732 2.4559885,10.229885 V 6.54713 c 0,-0.203847 0.083504,-0.4445339 0.1958651,-0.5409314 L 6.7705463,1.3490303 C 7.3010398,0.81915082 7.9819627,1.0205419 7.9819627,1.7978622 V 14.864335 c 0,0.836878 -0.6164532,1.153701 -1.2304503,0.539704 z"
     id="path5980"
     style="fill:#808080;stroke-width:0.613997" /><path
     fill="none"
     stroke="#000000"
     stroke-width="0.613997"
     stroke-linecap="round"
     stroke-linejoin="round"
     stroke-miterlimit="10"
     d="m 10.455757,5.2908919 c 1.103353,0.6852208 1.824186,1.8174315 1.824186,3.0982295 0,1.28878 -0.729429,2.4259026 -1.843834,3.1098956"
     id="path5982"
     style="stroke:#808080;stroke-opacity:1" /><path
     fill="none"
     stroke="#000000"
     stroke-width="0.613997"
     stroke-linecap="round"
     stroke-linejoin="round"
     stroke-miterlimit="10"
     d="m 11.97233,2.9030571 c 2.004087,1.0112532 3.377598,3.0871775 3.377598,5.4854503 0,2.3982726 -1.373511,4.4741966 -3.377598,5.4854506"
     id="path5984"
     style="stroke:#808080;stroke-opacity:1" /><g
     id="g6"
     transform="matrix(0.55360674,0,0,0.55360674,11.825404,11.880384)"><path
       fill="#808080"
       d="m 13,8.07 c -2.718,0 -4.93,2.212 -4.93,4.93 0,2.718 2.212,4.93 4.93,4.93 2.718,0 4.93,-2.212 4.93,-4.93 0,-2.718 -2.212,-4.93 -4.93,-4.93 z m -0.023,7.008 c -1.146,0 -2.078,-0.931 -2.078,-2.077 0,-1.147 0.932,-2.077 2.078,-2.077 1.146,0 2.076,0.93 2.076,2.077 0,1.146 -0.93,2.077 -2.076,2.077 z"
       id="path2" /><path
       fill="#808080"
       d="M 25.035,14.481 V 11.472 L 21.454,10.887 C 21.242,10.038 20.909,9.241 20.471,8.511 L 22.558,5.536 20.43,3.41 17.493,5.521 C 16.761,5.078 15.959,4.74 15.104,4.527 L 14.48,0.964 h -3.009 l -0.58,3.552 C 10.037,4.726 9.23,5.059 8.496,5.5 L 5.568,3.408 3.44,5.535 5.5,8.48 C 5.055,9.217 4.716,10.023 4.501,10.883 l -3.536,0.589 v 3.009 l 3.532,0.626 c 0.213,0.858 0.552,1.664 0.999,2.402 l -2.088,2.92 2.127,2.129 2.949,-2.065 c 0.736,0.442 1.541,0.778 2.396,0.989 l 0.592,3.554 h 3.009 l 0.632,-3.563 c 0.851,-0.215 1.653,-0.554 2.383,-0.998 l 2.97,2.084 2.127,-2.129 -2.119,-2.943 c 0.438,-0.73 0.771,-1.528 0.981,-2.377 z M 13,19.525 C 9.396,19.525 6.475,16.603 6.475,13 6.475,9.397 9.396,6.475 13,6.475 c 3.604,0 6.525,2.921 6.525,6.525 0,3.604 -2.921,6.525 -6.525,6.525 z"
       id="path4" /></g></svg>
