<?xml version="1.0" encoding="UTF-8" standalone="no"?>
<!-- Generator: Adobe Illustrator 15.0.0, SVG Export Plug-In . SVG Version: 6.00 Build 0)  -->

<svg
   xmlns:dc="http://purl.org/dc/elements/1.1/"
   xmlns:cc="http://creativecommons.org/ns#"
   xmlns:rdf="http://www.w3.org/1999/02/22-rdf-syntax-ns#"
   xmlns:svg="http://www.w3.org/2000/svg"
   xmlns="http://www.w3.org/2000/svg"
   xmlns:sodipodi="http://sodipodi.sourceforge.net/DTD/sodipodi-0.dtd"
   xmlns:inkscape="http://www.inkscape.org/namespaces/inkscape"
   version="1.1"
   id="Layer_1"
   x="0px"
   y="0px"
   width="416px"
   height="416px"
   viewBox="0 0 26 26"
   enable-background="new 0 0 26 26"
   xml:space="preserve"
   sodipodi:docname="icons8_copy.svg"
   inkscape:version="0.92.2 (5c3e80d, 2017-08-06)"><metadata
     id="metadata836"><rdf:RDF><cc:Work
         rdf:about=""><dc:format>image/svg+xml</dc:format><dc:type
           rdf:resource="http://purl.org/dc/dcmitype/StillImage" /></cc:Work></rdf:RDF></metadata><defs
     id="defs834" /><sodipodi:namedview
     pagecolor="#ffffff"
     bordercolor="#666666"
     borderopacity="1"
     objecttolerance="10"
     gridtolerance="10"
     guidetolerance="10"
     inkscape:pageopacity="0"
     inkscape:pageshadow="2"
     inkscape:window-width="737"
     inkscape:window-height="480"
     id="namedview832"
     showgrid="false"
     inkscape:zoom="0.26862981"
     inkscape:cx="270.56739"
     inkscape:cy="244.39964"
     inkscape:window-x="0"
     inkscape:window-y="0"
     inkscape:window-maximized="1"
     inkscape:current-layer="Layer_1" /><line
     fill="none"
     stroke="#000000"
     stroke-width="2"
     stroke-miterlimit="10"
     x1="4"
     y1="9"
     x2="9"
     y2="9"
     id="line815"
     style="fill:#808080;stroke:#808080;stroke-opacity:1" /><line
     fill="none"
     stroke="#000000"
     stroke-width="2"
     stroke-miterlimit="10"
     x1="4"
     y1="15"
     x2="9"
     y2="15"
     id="line817"
     style="fill:#808080;stroke:#808080;stroke-opacity:1" /><line
     fill="none"
     stroke="#000000"
     stroke-width="2"
     stroke-miterlimit="10"
     x1="4"
     y1="12"
     x2="9"
     y2="12"
     id="line819"
     style="fill:#808080;stroke:#808080;stroke-opacity:1" /><path
     fill="#000000"
     d="M4,19c-1.104,0-2-0.896-2-2V4c0-1.104,0.896-2,2-2l4.289-0.004C9.01,2.18,9,3.066,9,3.953V6  c0,0.249,0.101,0.471,0.252,0.646C9.811,5.107,11.271,4,13,4h0.057c-0.177-0.174-0.354-0.348-0.531-0.525  c-0.248-0.246-0.492-0.496-0.732-0.74C10.082,0.988,9.063,0,8,0H4C1.795,0,0,1.795,0,4v13c0,2.205,1.795,4,4,4h5v-2H4z"
     id="path821"
     style="fill:#808080" /><line
     fill="none"
     stroke="#000000"
     stroke-width="2"
     stroke-miterlimit="10"
     x1="14"
     y1="14"
     x2="22"
     y2="14"
     id="line823"
     style="fill:#808080;stroke:#808080;stroke-opacity:1" /><line
     fill="none"
     stroke="#000000"
     stroke-width="2"
     stroke-miterlimit="10"
     x1="14"
     y1="20"
     x2="22"
     y2="20"
     id="line825"
     style="fill:#808080;stroke:#808080;stroke-opacity:1" /><line
     fill="none"
     stroke="#000000"
     stroke-width="2"
     stroke-miterlimit="10"
     x1="14"
     y1="17"
     x2="20"
     y2="17"
     id="line827"
     style="fill:#808080;stroke:#808080;stroke-opacity:1" /><path
     fill="#000000"
     d="M23.266,9.207c-0.244-0.24-0.494-0.484-0.74-0.732c-0.248-0.246-0.492-0.496-0.732-0.74  C20.082,5.988,19.063,5,18,5h-4c-2.205,0-4,1.795-4,4v13c0,2.205,1.795,4,4,4h8c2.205,0,4-1.795,4-4v-9  C26,11.938,25.012,10.918,23.266,9.207z M24,22c0,1.104-0.896,2-2,2h-8c-1.104,0-2-0.896-2-2V9c0-1.104,0.896-2,2-2l4.289-0.004  C19.01,7.18,19,8.066,19,8.953V11c0,0.551,0.449,1,1,1h2c0.998,0,2,0.005,2,1V22z"
     id="path829"
     style="fill:#808080" /></svg>