<?xml version="1.0" encoding="UTF-8" standalone="no"?>
<!-- Generator: Adobe Illustrator 15.0.0, SVG Export Plug-In . SVG Version: 6.00 Build 0)  -->

<svg
   xmlns:dc="http://purl.org/dc/elements/1.1/"
   xmlns:cc="http://creativecommons.org/ns#"
   xmlns:rdf="http://www.w3.org/1999/02/22-rdf-syntax-ns#"
   xmlns:svg="http://www.w3.org/2000/svg"
   xmlns="http://www.w3.org/2000/svg"
   xmlns:sodipodi="http://sodipodi.sourceforge.net/DTD/sodipodi-0.dtd"
   xmlns:inkscape="http://www.inkscape.org/namespaces/inkscape"
   version="1.1"
   id="Layer_1"
   x="0px"
   y="0px"
   width="416px"
   height="416px"
   viewBox="0 0 26 26"
   enable-background="new 0 0 26 26"
   xml:space="preserve"
   sodipodi:docname="icons8_camera_key.svg"
   inkscape:version="0.92.2 (5c3e80d, 2017-08-06)"><metadata
     id="metadata824"><rdf:RDF><cc:Work
         rdf:about=""><dc:format>image/svg+xml</dc:format><dc:type
           rdf:resource="http://purl.org/dc/dcmitype/StillImage" /></cc:Work></rdf:RDF></metadata><defs
     id="defs822" /><sodipodi:namedview
     pagecolor="#ffffff"
     bordercolor="#666666"
     borderopacity="1"
     objecttolerance="10"
     gridtolerance="10"
     guidetolerance="10"
     inkscape:pageopacity="0"
     inkscape:pageshadow="2"
     inkscape:window-width="737"
     inkscape:window-height="480"
     id="namedview820"
     showgrid="false"
     inkscape:zoom="0.56730769"
     inkscape:cx="208"
     inkscape:cy="208"
     inkscape:window-x="0"
     inkscape:window-y="0"
     inkscape:window-maximized="0"
     inkscape:current-layer="Layer_1" /><ellipse
     cx="10.915255"
     cy="11.056901"
     id="circle815"
     style="fill:#808080;stroke-width:0.75568461"
     rx="3.7525086"
     ry="3.5252604" /><path
     d="M 16.470339,5.1973366 H 15.749153 L 14.732475,3.5119794 C 14.556271,3.2197337 14.174237,3 13.644068,3 H 8.1864407 C 7.633661,3 7.2750169,3.2197337 7.0980339,3.5119794 L 6.0813559,5.1973366 H 4.6779661 c 0,-0.4035775 -0.3500678,-0.7324456 -0.779661,-0.7324456 h -1.559322 c -0.4295933,0 -0.7796611,0.3288681 -0.7796611,0.7324456 V 5.3321065 C 0.65257627,5.6346065 0,6.4388317 0,7.3946731 v 7.4160109 c 0,1.972476 1.7012203,3.570672 3.8008475,3.570672 H 16.470339 c 2.099627,0 3.800847,-1.598196 3.800847,-3.570672 V 8.7680085 c 0,-1.9724758 -1.70122,-3.5706719 -3.800847,-3.5706719 z M 3.1186441,7.7608959 c -0.6455594,0 -1.1694916,-0.4922034 -1.1694916,-1.0986683 0,-0.6064649 0.5239322,-1.0986683 1.1694916,-1.0986683 0.6455593,0 1.1694915,0.4922034 1.1694915,1.0986683 0,0.6064649 -0.5239322,1.0986683 -1.1694915,1.0986683 z m 7.7966099,8.4663381 c -3.0406777,0 -5.5036269,-2.313063 -5.5036269,-5.170333 0,-2.8572702 2.4629492,-5.1703332 5.5036269,-5.1703332 3.040678,0 5.503627,2.3137954 5.503627,5.1703332 0,2.856537 -2.462949,5.170333 -5.503627,5.170333 z"
     id="path817"
     style="fill:#808080;stroke-width:0.75568461"
     inkscape:connector-curvature="0" /><ellipse
     cx="22.144068"
     cy="21.918896"
     id="circle828"
     style="fill:#808080;stroke-width:0.32035714"
     rx="1.8621893"
     ry="1.9840273" /><path
     style="fill:none;stroke:#808080;stroke-width:0.64071429;stroke-linecap:round;stroke-linejoin:round;stroke-miterlimit:10;stroke-opacity:1"
     d="m 24.883037,21.335263 c -0.254808,-1.364019 -1.383916,-2.392406 -2.738969,-2.392406 -1.355054,0 -2.484161,1.028387 -2.738969,2.392406"
     id="path832"
     inkscape:connector-curvature="0" /></svg>