<?xml version="1.0" encoding="UTF-8" standalone="no"?>
<!-- Generator: Adobe Illustrator 15.0.0, SVG Export Plug-In . SVG Version: 6.00 Build 0)  -->

<svg
   xmlns:dc="http://purl.org/dc/elements/1.1/"
   xmlns:cc="http://creativecommons.org/ns#"
   xmlns:rdf="http://www.w3.org/1999/02/22-rdf-syntax-ns#"
   xmlns:svg="http://www.w3.org/2000/svg"
   xmlns="http://www.w3.org/2000/svg"
   xmlns:sodipodi="http://sodipodi.sourceforge.net/DTD/sodipodi-0.dtd"
   xmlns:inkscape="http://www.inkscape.org/namespaces/inkscape"
   version="1.1"
   id="Layer_1"
   x="0px"
   y="0px"
   width="416px"
   height="416px"
   viewBox="0 0 26 26"
   enable-background="new 0 0 26 26"
   xml:space="preserve"
   sodipodi:docname="icons8_headset_key.svg"
   inkscape:version="0.92.2 (5c3e80d, 2017-08-06)"><metadata
     id="metadata830"><rdf:RDF><cc:Work
         rdf:about=""><dc:format>image/svg+xml</dc:format><dc:type
           rdf:resource="http://purl.org/dc/dcmitype/StillImage" /></cc:Work></rdf:RDF></metadata><defs
     id="defs828" /><sodipodi:namedview
     pagecolor="#ffffff"
     bordercolor="#666666"
     borderopacity="1"
     objecttolerance="10"
     gridtolerance="10"
     guidetolerance="10"
     inkscape:pageopacity="0"
     inkscape:pageshadow="2"
     inkscape:window-width="737"
     inkscape:window-height="480"
     id="namedview826"
     showgrid="false"
     inkscape:zoom="0.26862981"
     inkscape:cx="174.48398"
     inkscape:cy="117.92219"
     inkscape:window-x="0"
     inkscape:window-y="0"
     inkscape:window-maximized="1"
     inkscape:current-layer="Layer_1" /><path
     stroke-miterlimit="10"
     d="m 2.91109,10.460646 c 0,-5.1683256 3.9720482,-9.3582851 8.86995,-9.3582851 4.897902,0 8.86995,4.1899595 8.86995,9.3582851"
     id="path815"
     style="fill:none;stroke:#808080;stroke-width:1.65650332;stroke-miterlimit:10;stroke-opacity:1"
     inkscape:connector-curvature="0" /><path
     d="m 4.1782258,7.0576334 c 0,0 0.4468765,0 0,0 -2.0992216,0 -3.37902866,1.7142677 -3.37902866,3.8283896 0,2.114122 1.27980706,3.828389 3.37902866,3.828389 0.4468765,0 0,0 0,0 0.4671507,0 0.8447572,-0.380286 0.8447572,-0.850753 V 7.9083866 c 0,-0.4696158 -0.3776065,-0.8507532 -0.8447572,-0.8507532 z"
     id="path817"
     style="fill:#808080;stroke:#808080;stroke-width:0.84774989;stroke-opacity:1"
     inkscape:connector-curvature="0" /><path
     d="m 19.383855,14.714412 c 0,0 -0.446877,0 0,0 2.099221,0 3.379028,-1.714267 3.379028,-3.828389 0,-2.1141219 -1.279807,-3.8283896 -3.379028,-3.8283896 -0.446877,0 0,0 0,0 -0.467151,0 -0.844757,0.3811374 -0.844757,0.8507532 v 5.9552724 c 0,0.470467 0.377606,0.850753 0.844757,0.850753 z"
     id="path819"
     style="fill:#808080;stroke:#808080;stroke-width:0.84774989;stroke-opacity:1"
     inkscape:connector-curvature="0" /><ellipse
     cx="12.625797"
     cy="20.244308"
     rx="2.5342715"
     ry="2.126883"
     id="ellipse821"
     style="fill:#808080;stroke:#808080;stroke-width:0.84774989;stroke-opacity:1" /><path
     stroke-miterlimit="10"
     d="m 13.048176,20.244308 c 0.340437,0 3.326654,0 3.661178,0 0.43505,0 3.801407,-2.05542 3.941636,-6.806026"
     id="path823"
     style="fill:none;stroke:#808080;stroke-width:1.18684983;stroke-miterlimit:10;stroke-opacity:1"
     inkscape:connector-curvature="0" /><ellipse
     cx="21.870245"
     cy="22.916252"
     id="circle828"
     style="fill:#808080;stroke-width:0.32035714"
     rx="1.8621893"
     ry="1.9840273" /><path
     style="fill:none;stroke:#808080;stroke-width:0.64071429;stroke-linecap:round;stroke-linejoin:round;stroke-miterlimit:10;stroke-opacity:1"
     d="m 24.609215,22.332618 c -0.254808,-1.364019 -1.383916,-2.392406 -2.738969,-2.392406 -1.355054,0 -2.484161,1.028387 -2.738969,2.392406"
     id="path832"
     inkscape:connector-curvature="0" /></svg>