<?xml version="1.0" encoding="UTF-8" standalone="no"?>
<!-- Generator: Adobe Illustrator 18.1.0, SVG Export Plug-In . SVG Version: 6.00 Build 0)  -->

<svg
   xmlns:dc="http://purl.org/dc/elements/1.1/"
   xmlns:cc="http://creativecommons.org/ns#"
   xmlns:rdf="http://www.w3.org/1999/02/22-rdf-syntax-ns#"
   xmlns:svg="http://www.w3.org/2000/svg"
   xmlns="http://www.w3.org/2000/svg"
   xmlns:sodipodi="http://sodipodi.sourceforge.net/DTD/sodipodi-0.dtd"
   xmlns:inkscape="http://www.inkscape.org/namespaces/inkscape"
   version="1.1"
   id="Layer_1"
   x="0px"
   y="0px"
   viewBox="0 0 26 26"
   enable-background="new 0 0 26 26"
   xml:space="preserve"
   width="416px"
   height="416px"
   sodipodi:docname="icons8-reading.svg"
   inkscape:version="0.92.2 (5c3e80d, 2017-08-06)"><metadata
     id="metadata847"><rdf:RDF><cc:Work
         rdf:about=""><dc:format>image/svg+xml</dc:format><dc:type
           rdf:resource="http://purl.org/dc/dcmitype/StillImage" /></cc:Work></rdf:RDF></metadata><defs
     id="defs845" /><sodipodi:namedview
     pagecolor="#ffffff"
     bordercolor="#666666"
     borderopacity="1"
     objecttolerance="10"
     gridtolerance="10"
     guidetolerance="10"
     inkscape:pageopacity="0"
     inkscape:pageshadow="2"
     inkscape:window-width="737"
     inkscape:window-height="480"
     id="namedview843"
     showgrid="false"
     inkscape:zoom="0.26862981"
     inkscape:cx="156.08349"
     inkscape:cy="289.10288"
     inkscape:window-x="0"
     inkscape:window-y="0"
     inkscape:window-maximized="1"
     inkscape:current-layer="Layer_1" /><path
     fill="none"
     stroke="#000000"
     stroke-width="2"
     stroke-linejoin="round"
     stroke-miterlimit="10"
     d="M24,18.1V22  c-7.1,0-11,3-11,3V10c0,0,4-2,11-2v6.1"
     id="path832"
     style="stroke:#808080;stroke-opacity:1" /><path
     fill="none"
     stroke="#000000"
     stroke-width="2"
     stroke-linejoin="round"
     stroke-miterlimit="10"
     d="M2,18.1V22c7.1,0,11,3,11,3  V10c0,0-4-2-11-2v5"
     id="path834"
     style="stroke:#808080;stroke-opacity:1" /><path
     d="M24,17h1c0.6,0,1-0.4,1-1v-3c0-0.6-0.4-1-1-1h-1c-1.1,0-2,0.9-2,2v1C22,16.1,22.9,17,24,17z"
     id="path836"
     style="fill:#808080" /><path
     d="M1,17h1c1.1,0,2-0.9,2-2v-1c0-1.1-0.9-2-2-2H1c-0.6,0-1,0.4-1,1v3C0,16.6,0.4,17,1,17z"
     id="path838"
     style="fill:#808080" /><path
     d="M13,7.8c0.9-0.4,2.5-0.9,4.7-1.3C17.9,6.1,18,5.5,18,5c0-2.8-2.2-5-5-5S8,2.2,8,5c0,0.5,0.1,1.1,0.3,1.6  C10.5,6.9,12.1,7.5,13,7.8z"
     id="path840"
     style="fill:#808080" /></svg>