<?xml version="1.0" encoding="UTF-8" standalone="no"?>
<!-- Generator: Adobe Illustrator 17.1.0, SVG Export Plug-In . SVG Version: 6.00 Build 0)  -->

<svg
   xmlns:dc="http://purl.org/dc/elements/1.1/"
   xmlns:cc="http://creativecommons.org/ns#"
   xmlns:rdf="http://www.w3.org/1999/02/22-rdf-syntax-ns#"
   xmlns:svg="http://www.w3.org/2000/svg"
   xmlns="http://www.w3.org/2000/svg"
   xmlns:sodipodi="http://sodipodi.sourceforge.net/DTD/sodipodi-0.dtd"
   xmlns:inkscape="http://www.inkscape.org/namespaces/inkscape"
   version="1.1"
   id="Layer_1"
   x="0px"
   y="0px"
   width="416px"
   height="416px"
   viewBox="0 0 26 26"
   style="enable-background:new 0 0 26 26;"
   xml:space="preserve"
   sodipodi:docname="icons8-paint-palette1.svg"
   inkscape:version="0.92.2 (5c3e80d, 2017-08-06)"><metadata
     id="metadata2089"><rdf:RDF><cc:Work
         rdf:about=""><dc:format>image/svg+xml</dc:format><dc:type
           rdf:resource="http://purl.org/dc/dcmitype/StillImage" /><dc:title></dc:title></cc:Work></rdf:RDF></metadata><defs
     id="defs2087" /><sodipodi:namedview
     pagecolor="#ffffff"
     bordercolor="#666666"
     borderopacity="1"
     objecttolerance="10"
     gridtolerance="10"
     guidetolerance="10"
     inkscape:pageopacity="0"
     inkscape:pageshadow="2"
     inkscape:window-width="737"
     inkscape:window-height="480"
     id="namedview2085"
     showgrid="false"
     inkscape:zoom="0.40114712"
     inkscape:cx="238.75335"
     inkscape:cy="201.1782"
     inkscape:window-x="0"
     inkscape:window-y="0"
     inkscape:window-maximized="0"
     inkscape:current-layer="Layer_1" /><rect
     style="fill:#ff0000;fill-opacity:1;stroke:none;stroke-width:1.25;stroke-linecap:round;stroke-miterlimit:10;stroke-dasharray:none;stroke-opacity:1"
     id="rect2634"
     width="6.0763245"
     height="6.2321277"
     x="11.607337"
     y="17.150023" /><rect
     style="fill:#ffff00;fill-opacity:1;stroke:none;stroke-width:1.25;stroke-linecap:round;stroke-miterlimit:10;stroke-dasharray:none;stroke-opacity:1"
     id="rect2634-3"
     width="6.0763245"
     height="6.2321277"
     x="4.9060125"
     y="10.917894" /><rect
     style="fill:#0000ff;fill-opacity:1;stroke:none;stroke-width:1.25;stroke-linecap:round;stroke-miterlimit:10;stroke-dasharray:none;stroke-opacity:1"
     id="rect2634-4"
     width="6.0763245"
     height="6.2321277"
     x="17.216251"
     y="4.3433571" /><rect
     style="fill:#00ff00;fill-opacity:1;stroke:none;stroke-width:1.13227701;stroke-linecap:round;stroke-miterlimit:10;stroke-dasharray:none;stroke-opacity:1"
     id="rect2634-5"
     width="4.985702"
     height="6.2321277"
     x="11.607337"
     y="1.6947017" /><rect
     style="fill:#ff00ff;fill-opacity:1;stroke:none;stroke-width:1.25;stroke-linecap:round;stroke-miterlimit:10;stroke-dasharray:none;stroke-opacity:1"
     id="rect2634-7"
     width="6.0763245"
     height="6.2321277"
     x="4.9060125"
     y="4.1857662" /><path
     style="stroke-width:1;fill:#808080"
     inkscape:connector-curvature="0"
     d="m 13.847743,0.06833582 c -6.1999995,0 -11.8999994,3.89999988 -11.8999994,12.29999918 0,6.8 5.1999999,13.7 12.4999994,13.7 0,0 0,0 0,0 0,0 0,0 0,0 0,0 0,0 0,0 3,0 5.4,-2.5 5.4,-5.5 0,-0.8 -0.2,-1.6 -0.5,-2.4 -1.6,-4.2 5.6,-3 5.5,-10.5999986 0.1,-2.3000002 -2.6,-7.50000058 -11,-7.50000058 z m 0.1,1.99999988 c 1.1,0 2,1.1 2,2.5000005 0,1.4 -0.9,2.5000002 -2,2.5000002 -1.1,0 -2,-1.1000002 -2,-2.5000002 0,-1.4000005 0.9,-2.5000005 2,-2.5000005 z M 6.9477435,17.068335 c -1.1,0 -1.9999999,-1.1 -1.9999999,-2.5 0,-1.4 0.8999999,-2.5 1.9999999,-2.5 1.1,0 2,1.1 2,2.5 0,1.4 -0.9,2.5 -2,2.5 z m 1,-7 c -1.1,0 -2,-1.0999991 -2,-2.4999986 0,-1.4000002 0.9,-2.5000002 2,-2.5000002 1.1,0 1.999999,1.1 1.999999,2.5000002 0,1.3999995 -0.899999,2.4999986 -1.999999,2.4999986 z m 6.4999995,13 c -1.4,0 -2.5,-1.1 -2.5,-2.5 0,-1.4 1.1,-2.5 2.5,-2.5 1.4,0 2.5,1.1 2.5,2.5 0,1.4 -1.1,2.5 -2.5,2.5 z m 5.5,-13 c -1.1,0 -2,-1.0999991 -2,-2.4999986 0,-1.4000002 0.9,-2.5000002 2,-2.5000002 1.1,0 2,1.1 2,2.5000002 0,1.3999995 -0.9,2.4999986 -2,2.4999986 z"
     id="path2082" /></svg>