<?xml version="1.0" encoding="UTF-8" standalone="no"?>
<!-- Generator: Adobe Illustrator 18.1.1, SVG Export Plug-In . SVG Version: 6.00 Build 0)  -->

<svg
   xmlns:dc="http://purl.org/dc/elements/1.1/"
   xmlns:cc="http://creativecommons.org/ns#"
   xmlns:rdf="http://www.w3.org/1999/02/22-rdf-syntax-ns#"
   xmlns:svg="http://www.w3.org/2000/svg"
   xmlns="http://www.w3.org/2000/svg"
   xmlns:sodipodi="http://sodipodi.sourceforge.net/DTD/sodipodi-0.dtd"
   xmlns:inkscape="http://www.inkscape.org/namespaces/inkscape"
   version="1.1"
   id="Layer_1"
   x="0px"
   y="0px"
   viewBox="0 0 26 26"
   enable-background="new 0 0 26 26"
   xml:space="preserve"
   width="416px"
   height="416px"
   sodipodi:docname="icons8-doc.svg"
   inkscape:version="0.92.3 (2405546, 2018-03-11)"><metadata
   id="metadata970"><rdf:RDF><cc:Work
       rdf:about=""><dc:format>image/svg+xml</dc:format><dc:type
         rdf:resource="http://purl.org/dc/dcmitype/StillImage" /></cc:Work></rdf:RDF></metadata><defs
   id="defs968" /><sodipodi:namedview
   pagecolor="#ffffff"
   bordercolor="#666666"
   borderopacity="1"
   objecttolerance="10"
   gridtolerance="10"
   guidetolerance="10"
   inkscape:pageopacity="0"
   inkscape:pageshadow="2"
   inkscape:window-width="812"
   inkscape:window-height="480"
   id="namedview966"
   showgrid="false"
   inkscape:zoom="0.56730769"
   inkscape:cx="208"
   inkscape:cy="208"
   inkscape:window-x="70"
   inkscape:window-y="27"
   inkscape:window-maximized="0"
   inkscape:current-layer="Layer_1" />
<path
   d="M21.3,4.2C21,4,20.8,3.7,20.5,3.5C20.3,3.2,20,3,19.8,2.7C18.1,1,17.1,0,16,0H8C5.8,0,4,1.8,4,4v7.2h2V4c0-1.1,0.9-2,2-2  l7.3,0C16,2.2,16,3.1,16,4v3c0,0.6,0.4,1,1,1h3c1,0,2,0,2,1v13c0,1.1-0.9,2-2,2H8c-1.1,0-2-0.9-2-2v-3.2H4V22c0,2.2,1.8,4,4,4h12  c2.2,0,4-1.8,4-4V8C24,6.9,23,5.9,21.3,4.2z"
   id="path955"
   style="fill:#808080" />
<g
   id="g963"
   style="fill:#808080">
	<path
   d="M3.9,13.2c-0.2,0-0.3,0-0.4,0v3.3c0.1,0,0.2,0,0.3,0h0c0.6,0,1-0.1,1.3-0.4c0.3-0.3,0.5-0.7,0.5-1.3   C5.5,13.7,5,13.2,3.9,13.2z"
   id="path957"
   style="fill:#808080" />
	<path
   d="M10.5,13.2c-0.7,0-1.2,0.7-1.2,1.7c0,1,0.5,1.7,1.2,1.7c0.7,0,1.2-0.7,1.2-1.7C11.7,14,11.3,13.2,10.5,13.2z"
   id="path959"
   style="fill:#808080" />
	<path
   d="M19,11H1c-0.6,0-1,0.5-1,1v6c0,0.5,0.4,1,1,1h18c0.6,0,1-0.5,1-1v-6C20,11.5,19.6,11,19,11z M6.1,17   c-0.6,0.5-1.5,0.7-2.6,0.7c-0.7,0-1.1,0-1.4-0.1c-0.1,0-0.1-0.1-0.1-0.1v-5.3c0-0.1,0-0.1,0.1-0.1C2.6,12,3.2,12,3.8,12   c1,0,1.7,0.2,2.3,0.6c0.6,0.5,1,1.2,1,2.1C7.1,16,6.6,16.6,6.1,17z M10.4,17.8c-1.6,0-2.7-1.2-2.7-2.9c0-1.7,1.1-2.9,2.7-2.9   c1.6,0,2.7,1.1,2.7,2.9C13.2,16.6,12.1,17.8,10.4,17.8z M17,16.5c0.4,0,0.7-0.1,1-0.2c0,0,0.1,0,0.1,0s0.1,0.1,0.1,0.1l0.2,1   c0,0.1,0,0.1-0.1,0.1c-0.3,0.1-0.8,0.2-1.4,0.2c-1.8,0-2.9-1.1-2.9-2.8c0-1.8,1.2-3,3.1-3c0.7,0,1.2,0.1,1.4,0.3   c0,0,0.1,0.1,0.1,0.1l-0.3,1c0,0,0,0.1-0.1,0.1c0,0-0.1,0-0.1,0c-0.2-0.1-0.5-0.2-1-0.2c-1,0-1.6,0.6-1.6,1.7   C15.4,15.9,16,16.5,17,16.5z"
   id="path961"
   style="fill:#808080" />
</g>
</svg>