<?xml version="1.0" encoding="UTF-8" standalone="no"?>
<!-- Generator: Adobe Illustrator 18.0.0, SVG Export Plug-In . SVG Version: 6.00 Build 0)  -->

<svg
   xmlns:dc="http://purl.org/dc/elements/1.1/"
   xmlns:cc="http://creativecommons.org/ns#"
   xmlns:rdf="http://www.w3.org/1999/02/22-rdf-syntax-ns#"
   xmlns:svg="http://www.w3.org/2000/svg"
   xmlns="http://www.w3.org/2000/svg"
   xmlns:sodipodi="http://sodipodi.sourceforge.net/DTD/sodipodi-0.dtd"
   xmlns:inkscape="http://www.inkscape.org/namespaces/inkscape"
   version="1.0"
   x="0px"
   y="0px"
   viewBox="0 0 26 26"
   style="enable-background:new 0 0 26 26;"
   xml:space="preserve"
   width="416px"
   height="416px"
   id="svg2768"
   sodipodi:docname="icons8-fb2.svg"
   inkscape:version="0.92.3 (2405546, 2018-03-11)"><metadata
   id="metadata2774"><rdf:RDF><cc:Work
       rdf:about=""><dc:format>image/svg+xml</dc:format><dc:type
         rdf:resource="http://purl.org/dc/dcmitype/StillImage" /></cc:Work></rdf:RDF></metadata><defs
   id="defs2772" /><sodipodi:namedview
   pagecolor="#ffffff"
   bordercolor="#666666"
   borderopacity="1"
   objecttolerance="10"
   gridtolerance="10"
   guidetolerance="10"
   inkscape:pageopacity="0"
   inkscape:pageshadow="2"
   inkscape:window-width="812"
   inkscape:window-height="480"
   id="namedview2770"
   showgrid="false"
   inkscape:zoom="0.56730769"
   inkscape:cx="208"
   inkscape:cy="208"
   inkscape:window-x="70"
   inkscape:window-y="27"
   inkscape:window-maximized="0"
   inkscape:current-layer="svg2768" />
<path
   style="fill:none;stroke:#808080;stroke-width:2;stroke-miterlimit:10;stroke-opacity:1"
   d="M24,25H6c-1.7,0-3-1.3-3-3v-1"
   id="path2758" />
<g
   id="g2766"
   style="fill:#808080">
	<path
   d="M13.2,10.7h-0.3V12c0.1,0,0.2,0,0.3,0c0.3,0,0.9-0.1,0.9-0.7C14.1,10.8,13.5,10.7,13.2,10.7z"
   id="path2760"
   style="fill:#808080" />
	<path
   d="M14,9.3c0-0.1,0-0.5-0.8-0.5c-0.2,0-0.3,0-0.4,0v1.1h0.3C13.7,9.8,14,9.6,14,9.3z"
   id="path2762"
   style="fill:#808080" />
	<path
   d="M5,0C3.3,0,2,1.3,2,3v19h2c0-1.1,0.9-2,2-2c0.2,0,11.6,0,18,0V0H5z M10.7,8.7c0,0.1-0.1,0.1-0.1,0.1H8.8v1.1h1.6   c0.1,0,0.1,0.1,0.1,0.1v0.7c0,0.1-0.1,0.1-0.1,0.1H8.8v1.9c0,0.1-0.1,0.1-0.1,0.1H7.8c-0.1,0-0.1-0.1-0.1-0.1V8   c0-0.1,0.1-0.1,0.1-0.1h2.7c0.1,0,0.1,0.1,0.1,0.1V8.7z M14.8,12.5c-0.4,0.3-1,0.5-1.8,0.5c-0.4,0-0.7,0-1.1-0.1   c-0.1,0-0.1-0.1-0.1-0.1V8.1c0-0.1,0-0.1,0.1-0.1c0.3-0.1,0.8-0.1,1.3-0.1c0.7,0,1.1,0.1,1.4,0.3c0.3,0.2,0.5,0.6,0.5,1   c0,0.4-0.2,0.8-0.6,1c0.4,0.2,0.8,0.6,0.8,1.2C15.3,11.8,15.1,12.2,14.8,12.5z M19.5,12.7c0,0.1-0.1,0.1-0.1,0.1h-3.1   c-0.1,0-0.1-0.1-0.1-0.1v-0.5c0,0,0-0.1,0-0.1l0.5-0.5c1.1-1,1.5-1.5,1.5-2.1c0-0.3-0.1-0.6-0.7-0.6c-0.3,0-0.6,0.1-0.9,0.4   c0,0-0.1,0-0.1,0c0,0-0.1,0-0.1-0.1l-0.3-0.6c0-0.1,0-0.1,0-0.1C16.6,8.2,17.2,8,17.7,8c1.2,0,1.6,0.8,1.6,1.5   c0,0.8-0.5,1.4-1.4,2.3l-0.2,0.1h1.5c0.1,0,0.1,0.1,0.1,0.1V12.7z"
   id="path2764"
   style="fill:#808080" />
</g>
</svg>