<?xml version="1.0" encoding="UTF-8" standalone="no"?>
<svg
   xmlns:dc="http://purl.org/dc/elements/1.1/"
   xmlns:cc="http://creativecommons.org/ns#"
   xmlns:rdf="http://www.w3.org/1999/02/22-rdf-syntax-ns#"
   xmlns:svg="http://www.w3.org/2000/svg"
   xmlns="http://www.w3.org/2000/svg"
   xmlns:sodipodi="http://sodipodi.sourceforge.net/DTD/sodipodi-0.dtd"
   xmlns:inkscape="http://www.inkscape.org/namespaces/inkscape"
   width="104pt"
   height="104pt"
   viewBox="0 0 104 104"
   version="1.1"
   id="svg5"
   sodipodi:docname="icons8_physics.svg"
   inkscape:version="1.0.1 (3bc2e813f5, 2020-09-07)">
  <metadata
     id="metadata11">
    <rdf:RDF>
      <cc:Work
         rdf:about="">
        <dc:format>image/svg+xml</dc:format>
        <dc:type
           rdf:resource="http://purl.org/dc/dcmitype/StillImage" />
        <dc:title></dc:title>
      </cc:Work>
    </rdf:RDF>
  </metadata>
  <defs
     id="defs9" />
  <sodipodi:namedview
     pagecolor="#ffffff"
     bordercolor="#666666"
     borderopacity="1"
     objecttolerance="10"
     gridtolerance="10"
     guidetolerance="10"
     inkscape:pageopacity="0"
     inkscape:pageshadow="2"
     inkscape:window-width="1920"
     inkscape:window-height="1017"
     id="namedview7"
     showgrid="false"
     inkscape:zoom="6.1298077"
     inkscape:cx="69.333333"
     inkscape:cy="69.333333"
     inkscape:window-x="-8"
     inkscape:window-y="-8"
     inkscape:window-maximized="1"
     inkscape:current-layer="svg5"
     inkscape:document-rotation="0" />
  <g
     id="surface1"
     style="fill:#808080">
    <path
       style="stroke:none;fill-rule:nonzero;fill:#808080;fill-opacity:1"
       d="M 51.210938 0 C 44.117188 0 38.164063 8.800781 34.714844 22.652344 C 20.988281 18.710938 10.449219 19.449219 6.894531 25.605469 C 3.355469 31.730469 7.910156 41.332031 18.097656 51.210938 C 7.910156 61.089844 3.355469 70.695313 6.894531 76.816406 C 10.449219 82.972656 20.988281 83.710938 34.714844 79.773438 C 38.164063 93.621094 44.117188 102.425781 51.210938 102.425781 C 58.304688 102.425781 64.261719 93.621094 67.707031 79.773438 C 81.433594 83.710938 91.976563 82.957031 95.53125 76.816406 C 99.070313 70.695313 94.515625 61.089844 84.328125 51.210938 C 94.53125 41.332031 99.070313 31.730469 95.53125 25.605469 C 91.976563 19.464844 81.433594 18.710938 67.707031 22.652344 C 64.261719 8.800781 58.304688 0 51.210938 0 Z M 51.210938 7.507813 C 55.78125 7.507813 60.691406 13.757813 64.015625 23.757813 C 59.953125 25.113281 55.644531 26.820313 51.210938 28.929688 C 46.796875 26.820313 42.472656 25.113281 38.410156 23.757813 C 41.734375 13.757813 46.640625 7.507813 51.210938 7.507813 Z M 24.003906 25.359375 C 26.851563 25.328125 30.285156 25.746094 33.855469 26.46875 C 33.007813 30.652344 32.269531 35.269531 31.882813 40.132813 C 27.867188 42.902344 24.25 45.671875 21.050781 48.503906 C 14.09375 40.640625 11.140625 33.253906 13.417969 29.300781 C 14.910156 26.714844 18.652344 25.421875 24.003906 25.359375 Z M 75.585938 25.359375 C 82.402344 24.914063 87.265625 26.28125 89.003906 29.300781 C 91.28125 33.253906 88.328125 40.640625 81.375 48.503906 C 78.171875 45.671875 74.554688 42.902344 70.539063 40.132813 C 70.15625 35.269531 69.417969 30.652344 68.570313 26.46875 C 71.015625 25.960938 73.464844 25.5 75.585938 25.359375 Z M 37.300781 27.207031 C 40.578125 28.066406 44.042969 29.300781 47.640625 30.777344 C 45.566406 31.839844 43.472656 32.882813 41.363281 34.101563 C 39.253906 35.316406 37.285156 36.65625 35.332031 37.917969 C 35.855469 34.101563 36.425781 30.453125 37.300781 27.207031 Z M 65.125 27.207031 C 66 30.453125 66.570313 34.101563 67.09375 37.917969 C 65.136719 36.65625 63.167969 35.316406 61.0625 34.101563 C 58.953125 32.882813 56.859375 31.839844 54.78125 30.777344 C 58.382813 29.300781 61.84375 28.066406 65.125 27.207031 Z M 51.210938 32.253906 C 53.980469 33.515625 56.875 34.929688 59.707031 36.5625 C 62.554688 38.210938 65.214844 39.964844 67.707031 41.734375 C 67.984375 44.75 68.078125 47.949219 68.078125 51.210938 C 68.078125 54.472656 67.984375 57.675781 67.707031 60.691406 C 65.214844 62.460938 62.554688 64.214844 59.707031 65.863281 C 56.875 67.492188 53.980469 68.910156 51.210938 70.171875 C 48.441406 68.910156 45.550781 67.492188 42.71875 65.863281 C 39.871094 64.214844 37.207031 62.460938 34.714844 60.691406 C 34.4375 57.675781 34.347656 54.472656 34.347656 51.210938 C 34.347656 47.949219 34.4375 44.75 34.714844 41.734375 C 37.207031 39.964844 39.871094 38.210938 42.71875 36.5625 C 45.550781 34.929688 48.441406 33.515625 51.210938 32.253906 Z M 51.210938 39.394531 C 44.6875 39.394531 39.394531 44.6875 39.394531 51.210938 C 39.394531 57.738281 44.6875 63.03125 51.210938 63.03125 C 57.738281 63.03125 63.03125 57.738281 63.03125 51.210938 C 63.03125 44.6875 57.738281 39.394531 51.210938 39.394531 Z M 31.761719 44.070313 C 31.652344 46.394531 31.515625 48.78125 31.515625 51.210938 C 31.515625 53.644531 31.652344 56.027344 31.761719 58.351563 C 28.683594 55.984375 25.898438 53.613281 23.511719 51.210938 C 25.898438 48.8125 28.683594 46.441406 31.761719 44.070313 Z M 70.664063 44.070313 C 73.742188 46.441406 76.527344 48.8125 78.910156 51.210938 C 76.527344 53.613281 73.742188 55.984375 70.664063 58.351563 C 70.769531 56.027344 70.910156 53.644531 70.910156 51.210938 C 70.910156 48.78125 70.769531 46.394531 70.664063 44.070313 Z M 21.050781 53.921875 C 24.25 56.75 27.867188 59.523438 31.882813 62.292969 C 32.269531 67.15625 33.007813 71.769531 33.855469 75.957031 C 23.542969 78.066406 15.710938 76.957031 13.417969 73 C 11.140625 69.046875 14.09375 61.785156 21.050781 53.921875 Z M 81.375 53.921875 C 88.328125 61.785156 91.28125 69.171875 89.003906 73.125 C 86.710938 77.078125 78.878906 78.066406 68.570313 75.957031 C 69.417969 71.769531 70.15625 67.15625 70.539063 62.292969 C 74.554688 59.523438 78.171875 56.75 81.375 53.921875 Z M 35.332031 64.507813 C 37.285156 65.769531 39.253906 67.109375 41.363281 68.324219 C 43.472656 69.539063 45.566406 70.585938 47.640625 71.648438 C 44.042969 73.125 40.578125 74.355469 37.300781 75.21875 C 36.425781 71.972656 35.855469 68.324219 35.332031 64.507813 Z M 67.09375 64.507813 C 66.570313 68.324219 66 71.972656 65.125 75.21875 C 61.84375 74.355469 58.382813 73.125 54.78125 71.648438 C 56.859375 70.585938 58.953125 69.539063 61.0625 68.324219 C 63.167969 67.109375 65.136719 65.769531 67.09375 64.507813 Z M 51.210938 73.496094 C 55.628906 75.601563 59.953125 77.3125 64.015625 78.664063 C 60.691406 88.667969 55.78125 94.914063 51.210938 94.914063 C 46.640625 94.914063 41.734375 88.667969 38.410156 78.664063 C 42.472656 77.3125 46.796875 75.601563 51.210938 73.496094 Z "
       id="path2" />
  </g>
</svg>
