<?xml version="1.0" encoding="UTF-8" standalone="no"?>
<svg
   xmlns:dc="http://purl.org/dc/elements/1.1/"
   xmlns:cc="http://creativecommons.org/ns#"
   xmlns:rdf="http://www.w3.org/1999/02/22-rdf-syntax-ns#"
   xmlns:svg="http://www.w3.org/2000/svg"
   xmlns="http://www.w3.org/2000/svg"
   xmlns:sodipodi="http://sodipodi.sourceforge.net/DTD/sodipodi-0.dtd"
   xmlns:inkscape="http://www.inkscape.org/namespaces/inkscape"
   version="1.1"
   id="Layer_1"
   x="0px"
   y="0px"
   width="416px"
   height="416px"
   viewBox="0 0 26 26"
   enable-background="new 0 0 26 26"
   xml:space="preserve"
   sodipodi:docname="icons8_double_click_tap_interval.svg"
   inkscape:version="1.0.1 (3bc2e813f5, 2020-09-07)"><metadata
   id="metadata11"><rdf:RDF><cc:Work
       rdf:about=""><dc:format>image/svg+xml</dc:format><dc:type
         rdf:resource="http://purl.org/dc/dcmitype/StillImage" /><dc:title></dc:title></cc:Work></rdf:RDF></metadata><defs
   id="defs9" /><sodipodi:namedview
   pagecolor="#ffffff"
   bordercolor="#666666"
   borderopacity="1"
   objecttolerance="10"
   gridtolerance="10"
   guidetolerance="10"
   inkscape:pageopacity="0"
   inkscape:pageshadow="2"
   inkscape:window-width="1920"
   inkscape:window-height="1017"
   id="namedview7"
   showgrid="false"
   inkscape:zoom="1.0216346"
   inkscape:cx="42.578824"
   inkscape:cy="209.18624"
   inkscape:window-x="-8"
   inkscape:window-y="-8"
   inkscape:window-maximized="1"
   inkscape:current-layer="Layer_1" />

<path
   fill="#808080"
   d="M 7.0253484,11.305914 C 6.8774049,10.804923 6.7353455,10.303092 6.6285908,9.8222754 5.9266997,9.4070249 5.4492456,8.6513362 5.4492456,7.7779651 c 0,-1.3138392 1.0683876,-2.3813862 2.3813862,-2.3813862 1.3129982,0 2.3813862,1.0683875 2.3813862,2.3813862 0,0.1807265 -0.02438,0.3547282 -0.0622,0.5236864 0.2278,0.5018311 0.411889,1.0667064 0.573282,1.6408285 0.453917,-0.6052239 0.732992,-1.3491444 0.732992,-2.1645149 0,-2.0031215 -1.622335,-3.6254566 -3.6254562,-3.6254566 -2.0031215,0 -3.624616,1.6223351 -3.624616,3.6254566 0,1.7248869 1.206244,3.1614519 2.8193326,3.5279489 z"
   id="path2"
   style="stroke-width:0.840588" />
<path
   fill="#808080"
   d="M 4.5212363,19.889159 C 5.4147815,18.923323 6.4176032,19.301588 7.7600224,19.505851 8.913309,19.683215 10.048944,19.359588 9.973291,18.736713 9.853927,17.728847 9.68581,17.278292 9.303342,15.972859 8.998209,14.934732 8.419044,13.063583 7.891995,11.274812 7.1859007,8.8816573 6.9816378,7.7703998 7.921415,7.4930057 8.934324,7.1979593 9.51517,8.6370462 10.041379,10.632602 c 0.599339,2.27127 0.914559,3.274091 1.091083,3.221134 0.311018,-0.0891 -0.11432,-1.060822 0.699369,-1.30039 1.017112,-0.295887 1.21381,0.49931 1.498769,0.419454 0.284959,-0.08574 0.188292,-0.891024 0.999459,-1.12807 0.815371,-0.235364 1.224737,0.768298 1.560972,0.668268 0.332873,-0.09835 0.325308,-0.460642 0.82798,-0.604383 0.503512,-0.149624 2.398198,0.698529 3.482556,4.403001 1.360913,4.657699 -0.17232,5.523504 0.292525,7.100448 L 14.419162,25.722 c -0.491744,-1.182708 -2.01489,-1.270129 -3.362353,-2.024136 -1.35755,-0.764095 -2.279675,-2.252776 -5.8177104,-2.180486 -1.330651,0.0269 -1.2676069,-1.033923 -0.7178623,-1.628219 z"
   id="path4"
   style="stroke-width:0.840588" />
<path
   style="fill:none;stroke:#808080;stroke-width:1.60315;stroke-linecap:round;stroke-linejoin:round;stroke-miterlimit:10;stroke-opacity:1"
   d="M 13.855374,7.8440505 C 13.54432,4.3321376 11.158732,1.684368 7.8637607,1.684368 c -3.2949714,0 -5.731984,2.4420727 -6.3001592,6.1596825"
   id="path832"
   sodipodi:nodetypes="csc" /><g
   id="surface1"
   style="fill:#808080"
   transform="matrix(0.08213879,0,0,0.08213879,16.746377,1.3763764)"><path
     style="fill:#808080;fill-opacity:1;fill-rule:nonzero;stroke:none"
     d="m 42.59375,0 c -1.875,0.355469 -3.230469,2.015625 -3.199219,3.9375 v 3.941406 c 0,2.167969 1.769532,3.9375 3.9375,3.9375 v 4.679688 c -20.125,3.722656 -35.453125,21.421875 -35.453125,42.59375 0,23.867187 19.480469,43.335936 43.332032,43.335936 23.867187,0 43.335937,-19.468749 43.335937,-43.335936 0,-12.339844 -5.203125,-23.480469 -13.542969,-31.390625 L 85.1875,22.527344 c 1.355469,-1.691406 1.078125,-4.183594 -0.613281,-5.539063 l -4.800781,-3.691406 c -0.07813,-0.09375 -0.15625,-0.171875 -0.246094,-0.246094 -1.722656,-1.140625 -4.03125,-0.769531 -5.292969,0.859375 l -4.679687,6.03125 C 66.261719,18.40625 62.769531,17.171875 59.089844,16.496094 v -4.679688 c 2.171875,0 3.941406,-1.769531 3.941406,-3.9375 V 3.9375 C 63.03125,1.769531 61.261719,0 59.089844,0 H 43.332031 c -0.121093,0 -0.246093,0 -0.367187,0 -0.125,0 -0.246094,0 -0.371094,0 z m 8.617188,27.574219 c 17.480468,0 31.515625,14.050781 31.515625,31.515625 0,17.464844 -14.035157,31.515625 -31.515625,31.515625 -17.449219,0 -31.515625,-14.050781 -31.515625,-31.515625 0,-17.464844 14.066406,-31.515625 31.515625,-31.515625 z M 27.082031,40.5 c -0.722656,0.125 -1.398437,0.554688 -1.84375,1.234375 -0.910156,1.335938 -0.386718,2.890625 0.859375,4.0625 0.941407,0.859375 11.894532,9.785156 17.359375,14.277344 0.492188,3.878906 3.738282,6.894531 7.753907,6.894531 4.355468,0 7.878906,-3.523437 7.878906,-7.878906 0,-4.355469 -3.523438,-7.878906 -7.878906,-7.878906 -0.722657,0 -1.429688,0.0625 -2.089844,0.246093 C 42.6875,48.058594 29.929688,41.332031 29.300781,40.996094 28.589844,40.609375 27.804688,40.378906 27.082031,40.5 Z"
     id="path2-2" /></g></svg>
