<?xml version="1.0" encoding="UTF-8" standalone="no"?>
<svg
   xmlns:dc="http://purl.org/dc/elements/1.1/"
   xmlns:cc="http://creativecommons.org/ns#"
   xmlns:rdf="http://www.w3.org/1999/02/22-rdf-syntax-ns#"
   xmlns:svg="http://www.w3.org/2000/svg"
   xmlns="http://www.w3.org/2000/svg"
   xmlns:sodipodi="http://sodipodi.sourceforge.net/DTD/sodipodi-0.dtd"
   xmlns:inkscape="http://www.inkscape.org/namespaces/inkscape"
   width="500px"
   height="500px"
   viewBox="0 0 26 26"
   version="1.1"
   id="svg2149"
   sodipodi:docname="icons8-epub-1.svg"
   inkscape:version="0.92.3 (2405546, 2018-03-11)">
  <metadata
     id="metadata2155">
    <rdf:RDF>
      <cc:Work
         rdf:about="">
        <dc:format>image/svg+xml</dc:format>
        <dc:type
           rdf:resource="http://purl.org/dc/dcmitype/StillImage" />
      </cc:Work>
    </rdf:RDF>
  </metadata>
  <defs
     id="defs2153" />
  <sodipodi:namedview
     pagecolor="#ffffff"
     bordercolor="#666666"
     borderopacity="1"
     objecttolerance="10"
     gridtolerance="10"
     guidetolerance="10"
     inkscape:pageopacity="0"
     inkscape:pageshadow="2"
     inkscape:window-width="812"
     inkscape:window-height="480"
     id="namedview2151"
     showgrid="false"
     inkscape:zoom="0.472"
     inkscape:cx="250"
     inkscape:cy="250"
     inkscape:window-x="70"
     inkscape:window-y="27"
     inkscape:window-maximized="0"
     inkscape:current-layer="svg2149" />
  <g
     id="surface1"
     style="fill:#808080">
    <path
       style="stroke:none;fill-rule:nonzero;fill:#808080;fill-opacity:1"
       d="M 4.925781 0 C 3.25 0 1.96875 1.28125 1.96875 2.953125 L 1.96875 21.667969 C 1.96875 23.84375 3.730469 25.605469 5.910156 25.605469 L 23.636719 25.605469 L 23.636719 23.636719 L 5.910156 23.636719 C 4.734375 23.636719 3.9375 22.839844 3.9375 21.667969 C 3.9375 20.582031 4.824219 19.695313 5.910156 19.695313 L 23.636719 19.695313 L 23.636719 0 Z M 4.585938 7.785156 C 4.609375 7.773438 4.617188 7.785156 4.617188 7.785156 L 7.292969 7.785156 C 7.394531 7.785156 7.480469 7.878906 7.480469 7.878906 L 7.480469 8.554688 C 7.480469 8.65625 7.386719 8.679688 7.386719 8.679688 L 5.601563 8.679688 L 5.601563 9.664063 L 7.292969 9.664063 C 7.394531 9.664063 7.386719 9.757813 7.386719 9.757813 L 7.386719 10.433594 C 7.386719 10.535156 7.292969 10.527344 7.292969 10.527344 L 5.601563 10.527344 L 5.601563 11.632813 L 7.480469 11.632813 C 7.578125 11.632813 7.570313 11.726563 7.570313 11.726563 L 7.570313 12.496094 C 7.570313 12.59375 7.480469 12.617188 7.480469 12.617188 L 4.617188 12.617188 C 4.515625 12.617188 4.523438 12.496094 4.523438 12.496094 L 4.523438 7.878906 C 4.523438 7.828125 4.5625 7.796875 4.585938 7.785156 Z M 9.480469 7.785156 C 9.6875 7.773438 9.910156 7.785156 10.15625 7.785156 C 10.84375 7.785156 11.242188 7.890625 11.632813 8.1875 C 11.929688 8.484375 12.125 8.871094 12.125 9.265625 C 12.125 9.757813 11.921875 10.136719 11.726563 10.433594 C 11.332031 10.824219 10.84375 10.925781 10.15625 10.925781 L 9.847656 10.925781 L 9.847656 12.496094 C 9.847656 12.59375 9.757813 12.617188 9.757813 12.617188 L 8.863281 12.617188 C 8.761719 12.617188 8.769531 12.496094 8.769531 12.496094 L 8.769531 7.972656 C 8.769531 7.871094 8.761719 7.878906 8.863281 7.878906 C 9.058594 7.828125 9.269531 7.796875 9.480469 7.785156 Z M 13.140625 7.785156 C 13.164063 7.773438 13.203125 7.785156 13.203125 7.785156 L 14.09375 7.785156 C 14.195313 7.785156 14.1875 7.878906 14.1875 7.878906 L 14.1875 10.648438 C 14.1875 11.242188 14.269531 11.816406 14.957031 11.816406 C 15.550781 11.816406 15.851563 11.4375 15.851563 10.648438 L 15.851563 7.878906 C 15.851563 7.777344 15.941406 7.785156 15.941406 7.785156 L 16.835938 7.785156 C 16.933594 7.785156 16.925781 7.878906 16.925781 7.878906 L 16.925781 10.527344 C 16.925781 11.902344 16.238281 12.710938 14.957031 12.710938 C 14.074219 12.710938 13.109375 12.300781 13.109375 10.527344 L 13.109375 7.878906 C 13.109375 7.828125 13.117188 7.796875 13.140625 7.785156 Z M 18.773438 7.785156 C 18.996094 7.773438 19.265625 7.785156 19.511719 7.785156 C 20.199219 7.785156 20.570313 7.867188 20.867188 8.0625 C 21.164063 8.257813 21.359375 8.65625 21.359375 9.046875 C 21.359375 9.441406 21.167969 9.835938 20.773438 10.03125 C 21.167969 10.230469 21.574219 10.640625 21.574219 11.234375 C 21.574219 11.625 21.378906 12.015625 21.082031 12.3125 C 20.691406 12.605469 20.085938 12.804688 19.296875 12.804688 C 18.90625 12.804688 18.613281 12.8125 18.21875 12.710938 C 18.121094 12.710938 18.128906 12.617188 18.128906 12.617188 L 18.128906 7.972656 C 18.128906 7.871094 18.121094 7.878906 18.21875 7.878906 C 18.367188 7.828125 18.550781 7.796875 18.773438 7.785156 Z M 9.847656 8.679688 L 9.847656 10.03125 L 10.15625 10.03125 C 10.75 10.03125 11.019531 9.75 11.019531 9.355469 C 11.019531 8.761719 10.542969 8.679688 10.25 8.679688 Z M 19.113281 8.679688 L 19.113281 9.757813 L 19.390625 9.757813 C 19.980469 9.65625 20.28125 9.46875 20.28125 9.171875 C 20.28125 9.070313 20.300781 8.679688 19.511719 8.679688 Z M 19.203125 10.527344 L 19.203125 11.816406 L 19.511719 11.816406 C 19.808594 11.816406 20.375 11.734375 20.375 11.140625 C 20.375 10.648438 19.808594 10.527344 19.511719 10.527344 Z "
       id="path2146" />
  </g>
</svg>
