<?xml version="1.0" encoding="UTF-8" standalone="no"?>
<!-- Generator: Adobe Illustrator 15.0.0, SVG Export Plug-In . SVG Version: 6.00 Build 0)  -->

<svg
   xmlns:dc="http://purl.org/dc/elements/1.1/"
   xmlns:cc="http://creativecommons.org/ns#"
   xmlns:rdf="http://www.w3.org/1999/02/22-rdf-syntax-ns#"
   xmlns:svg="http://www.w3.org/2000/svg"
   xmlns="http://www.w3.org/2000/svg"
   xmlns:sodipodi="http://sodipodi.sourceforge.net/DTD/sodipodi-0.dtd"
   xmlns:inkscape="http://www.inkscape.org/namespaces/inkscape"
   version="1.1"
   id="Layer_1"
   x="0px"
   y="0px"
   width="416px"
   height="416px"
   viewBox="0 0 26 26"
   enable-background="new 0 0 26 26"
   xml:space="preserve"
   sodipodi:docname="icons8_position_to_disk_interval.svg"
   inkscape:version="0.92.3 (2405546, 2018-03-11)"><metadata
     id="metadata861"><rdf:RDF><cc:Work
         rdf:about=""><dc:format>image/svg+xml</dc:format><dc:type
           rdf:resource="http://purl.org/dc/dcmitype/StillImage" /><dc:title /></cc:Work></rdf:RDF></metadata><defs
     id="defs859" /><sodipodi:namedview
     pagecolor="#ffffff"
     bordercolor="#666666"
     borderopacity="1"
     objecttolerance="10"
     gridtolerance="10"
     guidetolerance="10"
     inkscape:pageopacity="0"
     inkscape:pageshadow="2"
     inkscape:window-width="1920"
     inkscape:window-height="976"
     id="namedview857"
     showgrid="false"
     inkscape:zoom="0.80229424"
     inkscape:cx="22.24251"
     inkscape:cy="110.50048"
     inkscape:window-x="-8"
     inkscape:window-y="-8"
     inkscape:window-maximized="1"
     inkscape:current-layer="g4" /><polygon
     transform="matrix(0,0.23063669,-0.32469357,0,24.722972,8.4718964)"
     style="fill:#808080"
     points="25.906,13 12,4.061 12,21.938 "
     id="polygon858" /><rect
     x="-12.937429"
     style="fill:#808080;stroke-width:0.30102435"
     y="-21.859388"
     width="4.744369"
     height="2.5975487"
     id="rect856-6"
     transform="matrix(0,-1,-1,0,0,0)" /><path
     inkscape:connector-curvature="0"
     d="m 9.2587875,1.0688558 c -3.8300801,0 -6.9356944,2.9366691 -6.9356944,6.5583912 0,3.621724 6.0478687,10.082731 6.0478687,14.954512 h 1.7756512 c 0,-4.85583 6.048758,-11.627462 6.048758,-14.954512 0,-3.6217221 -3.106503,-6.5583912 -6.9365835,-6.5583912 z m 0,9.2465602 c -1.5696758,0 -2.8428179,-1.2047229 -2.8428179,-2.688169 0,-1.4834451 1.2731421,-2.6881673 2.8428179,-2.6881673 1.5696755,0 2.8428175,1.2038819 2.8428175,2.6881673 0,1.4842861 -1.273142,2.688169 -2.8428175,2.688169 z"
     id="path1411"
     style="fill:#808080;stroke-width:0.86333913" /><g
     transform="matrix(0.53878559,0,0,0.54412625,12.149284,-2.7585616)"
     id="g850"
     style="fill:#808080"><path
       inkscape:connector-curvature="0"
       d="m 14.1,9 v 8.6 h -1.8 v -6.5 c -0.6,0.5 -1.6,0.7 -1.8,0.7 V 10.2 C 11,10.1 12.2,9.6 13,8.9 h 1.1 z"
       id="path848"
       style="fill:#808080" /></g><g
     transform="matrix(0.56719129,0,0,0.56089449,14.699037,-2.9577995)"
     id="g1437"
     style="fill:#808080"><path
       inkscape:connector-curvature="0"
       d="m 12.2,15.9 h 3.6 v 1.5 h -5.6 v -0.6 c 0,-2.7 2.5,-2.9 3.6,-4.8 0.2,-0.3 0.3,-1.6 -1.1,-1.6 -0.7,0 -1.4,0.3 -2.1,0.9 V 9.6 c 0.7,-0.5 1.6,-0.7 2.5,-0.7 0.8,0 2.7,0.3 2.7,2.4 0,2.7 -3.6,3.6 -3.6,4.6 z"
       id="path1435"
       style="fill:#808080" /></g><g
     id="g4"
     transform="matrix(0.37978346,0,0,0.37678725,15.511982,15.259146)"><path
       style="fill:#808080;fill-opacity:1"
       inkscape:connector-curvature="0"
       d="M 18,9 H 15 V 2 h 3 z m 8,-3 v 17 c 0,1.657 -1.344,3 -3,3 H 3 C 1.344,26 0,24.657 0,23 V 3 C 0,1.343 1.344,0 3,0 h 17 c 0.828,0 1.285,0.043 3.621,2.379 C 25.957,4.715 26,5.172 26,6 Z M 5,9 c 0,0.551 0.449,1 1,1 h 13 c 0.551,0 1,-0.449 1,-1 V 2 C 20,1.449 19.551,1 19,1 H 6 C 5.449,1 5,1.449 5,2 Z m 18,5 c 0,-0.551 -0.449,-1 -1,-1 H 4 c -0.551,0 -1,0.449 -1,1 v 10 c 0,0.551 0.449,1 1,1 h 18 c 0.551,0 1,-0.449 1,-1 z"
       id="path2" /></g></svg>