<?xml version="1.0" encoding="UTF-8" standalone="no"?>
<!-- Generator: Adobe Illustrator 15.0.0, SVG Export Plug-In . SVG Version: 6.00 Build 0)  -->

<svg
   version="1.1"
   id="Layer_1"
   x="0px"
   y="0px"
   width="416px"
   height="416px"
   viewBox="0 0 26 26"
   enable-background="new 0 0 26 26"
   xml:space="preserve"
   sodipodi:docname="icons8_pause_lock.svg"
   inkscape:version="1.1.1 (3bf5ae0d25, 2021-09-20)"
   xmlns:inkscape="http://www.inkscape.org/namespaces/inkscape"
   xmlns:sodipodi="http://sodipodi.sourceforge.net/DTD/sodipodi-0.dtd"
   xmlns="http://www.w3.org/2000/svg"
   xmlns:svg="http://www.w3.org/2000/svg"
   xmlns:rdf="http://www.w3.org/1999/02/22-rdf-syntax-ns#"
   xmlns:cc="http://creativecommons.org/ns#"
   xmlns:dc="http://purl.org/dc/elements/1.1/"><metadata
   id="metadata11"><rdf:RDF><cc:Work
       rdf:about=""><dc:format>image/svg+xml</dc:format><dc:type
         rdf:resource="http://purl.org/dc/dcmitype/StillImage" /><dc:title /></cc:Work></rdf:RDF></metadata><defs
   id="defs9" /><sodipodi:namedview
   pagecolor="#ffffff"
   bordercolor="#666666"
   borderopacity="1"
   objecttolerance="10"
   gridtolerance="10"
   guidetolerance="10"
   inkscape:pageopacity="0"
   inkscape:pageshadow="2"
   inkscape:window-width="1920"
   inkscape:window-height="995"
   id="namedview7"
   showgrid="false"
   inkscape:zoom="0.56730769"
   inkscape:cx="207.11864"
   inkscape:cy="208"
   inkscape:window-x="0"
   inkscape:window-y="0"
   inkscape:window-maximized="1"
   inkscape:current-layer="Layer_1"
   inkscape:pagecheckerboard="0" />
<path
   fill="#000000"
   d="m 6.9529926,16.788731 c 0,0.551 -0.449,1 -1,1 h -3 c -0.551,0 -1,-0.449 -1,-1 V 2.7887314 c 0,-0.551 0.449,-1 1,-1 h 3 c 0.551,0 1,0.449 1,1 z"
   id="path2"
   style="fill:#808080;fill-opacity:1" />
<path
   fill="#000000"
   d="m 14.702993,16.788731 c 0,0.551 -0.449,1 -1,1 h -3 c -0.551,0 -1,-0.449 -1,-1 V 2.7887314 c 0,-0.551 0.449,-1 1,-1 h 3 c 0.551,0 1,0.449 1,1 z"
   id="path4"
   style="fill:#808080;fill-opacity:1" />

<path
   d="m 20.382183,14.202965 c -1.109279,0 -2.04063,0.404977 -2.657824,1.080554 -0.616266,0.67465 -0.9054,1.56615 -0.9054,2.481744 h 1.518887 c 0,-0.602364 0.17887,-1.112984 0.49672,-1.459576 0.317864,-0.347518 0.788639,-0.584757 1.547617,-0.584757 0.756201,0 1.226975,0.229828 1.548543,0.584757 0.320647,0.354005 0.495795,0.875745 0.495795,1.459576 h 1.51889 c 0,-0.905399 -0.291915,-1.807094 -0.905403,-2.481744 -0.613487,-0.675577 -1.543911,-1.080554 -2.657825,-1.080554 z m -3.270382,4.497357 c -0.774736,0 -1.402124,0.54769 -1.402124,1.226045 v 4.089601 c 0,0.674652 0.627388,1.226049 1.402124,1.226049 h 6.541695 c 0.773808,0 1.402121,-0.547691 1.402121,-1.226049 v -4.089601 c 0,-0.674647 -0.628313,-1.226045 -1.402121,-1.226045 z m 3.270382,1.897917 c 0.518963,0 0.93506,0.409608 0.93506,0.935055 0,0.350301 -0.186272,0.653335 -0.467068,0.817367 v 1.080551 c 0,0.259492 -0.212206,0.496719 -0.467992,0.496719 -0.254852,0 -0.467064,-0.23723 -0.467064,-0.496719 v -1.080551 c -0.277086,-0.164037 -0.467065,-0.467066 -0.467065,-0.817367 0,-0.525447 0.416096,-0.935055 0.934129,-0.935055 z"
   style="fill:#808080;fill-opacity:1;fill-rule:nonzero;stroke:none;stroke-width:0.17793"
   id="path36" /></svg>
