<?xml version="1.0" encoding="UTF-8" standalone="no"?>
<svg
   xmlns:dc="http://purl.org/dc/elements/1.1/"
   xmlns:cc="http://creativecommons.org/ns#"
   xmlns:rdf="http://www.w3.org/1999/02/22-rdf-syntax-ns#"
   xmlns:svg="http://www.w3.org/2000/svg"
   xmlns="http://www.w3.org/2000/svg"
   xmlns:sodipodi="http://sodipodi.sourceforge.net/DTD/sodipodi-0.dtd"
   xmlns:inkscape="http://www.inkscape.org/namespaces/inkscape"
   version="1.1"
   id="Layer_1"
   x="0px"
   y="0px"
   width="416px"
   height="416px"
   viewBox="0 0 26 26"
   enable-background="new 0 0 26 26"
   xml:space="preserve"
   sodipodi:docname="icons8_document_4pages.svg"
   inkscape:version="1.0.1 (3bc2e813f5, 2020-09-07)"><metadata
   id="metadata1239"><rdf:RDF><cc:Work
       rdf:about=""><dc:format>image/svg+xml</dc:format><dc:type
         rdf:resource="http://purl.org/dc/dcmitype/StillImage" /><dc:title></dc:title></cc:Work></rdf:RDF></metadata><defs
   id="defs1237" /><sodipodi:namedview
   pagecolor="#ffffff"
   bordercolor="#666666"
   borderopacity="1"
   objecttolerance="10"
   gridtolerance="10"
   guidetolerance="10"
   inkscape:pageopacity="0"
   inkscape:pageshadow="2"
   inkscape:window-width="1920"
   inkscape:window-height="1017"
   id="namedview1235"
   showgrid="false"
   inkscape:zoom="0.56730769"
   inkscape:cx="208"
   inkscape:cy="208"
   inkscape:window-x="-8"
   inkscape:window-y="-8"
   inkscape:window-maximized="1"
   inkscape:current-layer="Layer_1"
   inkscape:document-rotation="0" />
<path
   stroke-miterlimit="10"
   d="m 6.5349109,18.038477 c 1.199215,0 2.9631149,0 4.2330201,0"
   id="path1226"
   inkscape:connector-curvature="0"
   style="fill:#808080;stroke:#808080;stroke-width:0.851906;stroke-linecap:round;stroke-linejoin:round;stroke-miterlimit:10;stroke-opacity:1" />
<path
   stroke-miterlimit="10"
   d="m 6.5349109,21.467444 c 1.199215,0 2.9631149,0 4.2330201,0"
   id="path1228"
   inkscape:connector-curvature="0"
   style="fill:#808080;stroke:#808080;stroke-width:0.851906;stroke-linecap:round;stroke-linejoin:round;stroke-miterlimit:10;stroke-opacity:1" />
<path
   stroke-miterlimit="10"
   d="m 6.5349109,19.752961 c 0.4233022,0 2.9631149,0 3.386417,0"
   id="path1230"
   inkscape:connector-curvature="0"
   style="fill:#808080;stroke:#808080;stroke-width:0.851906;stroke-linecap:round;stroke-linejoin:round;stroke-miterlimit:10;stroke-opacity:1" />

<path
   d="M 11.727135,15.126855 C 11.62385,15.023986 11.518024,14.919402 11.413891,14.813104 11.308913,14.707664 11.205627,14.600508 11.104034,14.495925 10.379341,13.747124 9.9479963,13.323647 9.4980258,13.323647 H 6.1116087 c -0.9333811,0 -1.6932084,0.769375 -1.6932084,1.714483 v 7.715177 c 0,0.945109 0.7598273,1.714484 1.6932084,1.714484 h 5.0796253 c 0.933381,0 1.693209,-0.769375 1.693209,-1.714484 v -6.000692 c 0,-0.455196 -0.418223,-0.89239 -1.157308,-1.62576 z m 0.310704,7.626452 c 0,0.473198 -0.379279,0.857242 -0.846605,0.857242 H 6.1116087 c -0.4673254,0 -0.8466042,-0.384044 -0.8466042,-0.857242 V 15.03813 c 0,-0.473197 0.3792788,-0.857241 0.8466042,-0.857241 l 3.0854494,-0.0017 c 0.3052008,0.07886 0.3009677,0.458621 0.3009677,0.838808 v 1.306008 c 0,0.23617 0.1900627,0.428621 0.4233021,0.428621 h 1.2699061 c 0.422456,0 0.846605,0.0021 0.846605,0.428621 z"
   id="path1232"
   inkscape:connector-curvature="0"
   style="fill:#808080;stroke-width:0.425953" />
<path
   stroke-miterlimit="10"
   d="m 15.392786,18.00178 c 1.199214,0 2.963114,0 4.233021,0"
   id="path1226-3"
   inkscape:connector-curvature="0"
   style="fill:#808080;stroke:#808080;stroke-width:0.851906;stroke-linecap:round;stroke-linejoin:round;stroke-miterlimit:10;stroke-opacity:1" /><path
   stroke-miterlimit="10"
   d="m 15.392786,21.430747 c 1.199214,0 2.963114,0 4.233021,0"
   id="path1228-6"
   inkscape:connector-curvature="0"
   style="fill:#808080;stroke:#808080;stroke-width:0.851906;stroke-linecap:round;stroke-linejoin:round;stroke-miterlimit:10;stroke-opacity:1" /><path
   stroke-miterlimit="10"
   d="m 15.392786,19.716262 c 0.423301,0 2.963114,0 3.386417,0"
   id="path1230-7"
   inkscape:connector-curvature="0"
   style="fill:#808080;stroke:#808080;stroke-width:0.851906;stroke-linecap:round;stroke-linejoin:round;stroke-miterlimit:10;stroke-opacity:1" /><path
   d="M 20.58501,15.090158 C 20.481724,14.987289 20.375899,14.882706 20.271766,14.776408 20.166787,14.670967 20.063502,14.563812 19.961909,14.459227 19.237215,13.710427 18.805871,13.28695 18.3559,13.28695 h -3.386417 c -0.93338,0 -1.693209,0.769374 -1.693209,1.714484 v 7.715176 c 0,0.94511 0.759829,1.714484 1.693209,1.714484 h 5.079626 c 0.933382,0 1.693209,-0.769374 1.693209,-1.714484 v -6.000693 c 0,-0.455196 -0.418223,-0.892389 -1.157308,-1.625759 z m 0.310704,7.626452 c 0,0.473198 -0.379279,0.857242 -0.846605,0.857242 h -5.079626 c -0.467325,0 -0.846604,-0.384044 -0.846604,-0.857242 v -7.715176 c 0,-0.473198 0.379279,-0.857243 0.846604,-0.857243 l 3.08545,-0.0017 c 0.305201,0.07888 0.300967,0.458642 0.300967,0.838829 v 1.306007 c 0,0.236171 0.190063,0.428622 0.423303,0.428622 h 1.269906 c 0.422456,0 0.846605,0.0021 0.846605,0.428621 z"
   id="path1232-5"
   inkscape:connector-curvature="0"
   style="fill:#808080;stroke-width:0.425953" /><path
   stroke-miterlimit="10"
   d="m 6.4703244,6.4136034 c 1.1992147,0 2.9631149,0 4.2330206,0"
   id="path1226-8"
   inkscape:connector-curvature="0"
   style="fill:#808080;stroke:#808080;stroke-width:0.851906;stroke-linecap:round;stroke-linejoin:round;stroke-miterlimit:10;stroke-opacity:1" /><path
   stroke-miterlimit="10"
   d="m 6.4703244,9.8425699 c 1.1992147,0 2.9631149,0 4.2330206,0"
   id="path1228-9"
   inkscape:connector-curvature="0"
   style="fill:#808080;stroke:#808080;stroke-width:0.851906;stroke-linecap:round;stroke-linejoin:round;stroke-miterlimit:10;stroke-opacity:1" /><path
   stroke-miterlimit="10"
   d="m 6.4703244,8.1280866 c 0.4233018,0 2.9631149,0 3.3864168,0"
   id="path1230-1"
   inkscape:connector-curvature="0"
   style="fill:#808080;stroke:#808080;stroke-width:0.851906;stroke-linecap:round;stroke-linejoin:round;stroke-miterlimit:10;stroke-opacity:1" /><path
   d="M 11.66255,3.5019813 C 11.559263,3.3991123 11.453437,3.2945289 11.349305,3.1882309 11.244326,3.0827901 11.14104,2.9756352 11.039448,2.8710516 10.314755,2.1222508 9.8834099,1.6987726 9.4334393,1.6987726 H 6.0470224 c -0.9333812,0 -1.6932091,0.769375 -1.6932091,1.7144843 v 7.7151751 c 0,0.945109 0.7598279,1.714484 1.6932091,1.714484 h 5.0796246 c 0.933383,0 1.693209,-0.769375 1.693209,-1.714484 V 5.1277407 c 0,-0.4551958 -0.418222,-0.892389 -1.157306,-1.6257594 z m 0.310702,7.6264507 c 0,0.473198 -0.379278,0.857242 -0.846605,0.857242 H 6.0470224 c -0.4673256,0 -0.8466045,-0.384044 -0.8466045,-0.857242 V 3.4132569 c 0,-0.473198 0.3792789,-0.8572421 0.8466045,-0.8572421 l 3.0854488,-0.00177 c 0.3052006,0.078863 0.3009681,0.4586211 0.3009681,0.8388081 v 1.3060036 c 0,0.2361702 0.1900624,0.4286212 0.4233019,0.4286212 h 1.2699058 c 0.422457,0 0.846606,0.00215 0.846606,0.4286208 z"
   id="path1232-1"
   inkscape:connector-curvature="0"
   style="fill:#808080;stroke-width:0.425954" /><path
   stroke-miterlimit="10"
   d="m 15.328199,6.3769063 c 1.199215,0 2.963115,0 4.233021,0"
   id="path1226-3-5"
   inkscape:connector-curvature="0"
   style="fill:#808080;stroke:#808080;stroke-width:0.851906;stroke-linecap:round;stroke-linejoin:round;stroke-miterlimit:10;stroke-opacity:1" /><path
   stroke-miterlimit="10"
   d="m 15.328199,9.8058733 c 1.199215,0 2.963115,0 4.233021,0"
   id="path1228-6-6"
   inkscape:connector-curvature="0"
   style="fill:#808080;stroke:#808080;stroke-width:0.851906;stroke-linecap:round;stroke-linejoin:round;stroke-miterlimit:10;stroke-opacity:1" /><path
   stroke-miterlimit="10"
   d="m 15.328199,8.0913891 c 0.423302,0 2.963115,0 3.386417,0"
   id="path1230-7-4"
   inkscape:connector-curvature="0"
   style="fill:#808080;stroke:#808080;stroke-width:0.851906;stroke-linecap:round;stroke-linejoin:round;stroke-miterlimit:10;stroke-opacity:1" /><path
   d="M 20.520424,3.465284 C 20.417139,3.3624153 20.311313,3.2578319 20.20718,3.1515337 20.102201,3.0460932 19.998915,2.9389377 19.897323,2.8343541 19.172629,2.0855533 18.741284,1.662076 18.291314,1.662076 h -3.386417 c -0.933382,0 -1.693209,0.7693741 -1.693209,1.7144837 v 7.7151753 c 0,0.94511 0.759827,1.714484 1.693209,1.714484 h 5.079626 c 0.933382,0 1.693207,-0.769374 1.693207,-1.714484 V 5.0910437 c 0,-0.4551961 -0.418222,-0.8923895 -1.157306,-1.6257597 z m 0.310703,7.626451 c 0,0.473198 -0.379279,0.857242 -0.846604,0.857242 h -5.079626 c -0.467326,0 -0.846605,-0.384044 -0.846605,-0.857242 V 3.3765597 c 0,-0.4731974 0.379279,-0.8572423 0.846605,-0.8572423 l 3.085449,-0.00177 c 0.305202,0.078888 0.300968,0.458643 0.300968,0.8388293 v 1.3060075 c 0,0.2361702 0.190063,0.4286215 0.423302,0.4286215 h 1.269907 c 0.422455,0 0.846604,0.00215 0.846604,0.4286209 z"
   id="path1232-5-0"
   inkscape:connector-curvature="0"
   style="fill:#808080;stroke-width:0.425954" /></svg>
