<?xml version="1.0" encoding="UTF-8" standalone="no"?>
<!-- Generator: Adobe Illustrator 15.0.0, SVG Export Plug-In . SVG Version: 6.00 Build 0)  -->

<svg
   xmlns:dc="http://purl.org/dc/elements/1.1/"
   xmlns:cc="http://creativecommons.org/ns#"
   xmlns:rdf="http://www.w3.org/1999/02/22-rdf-syntax-ns#"
   xmlns:svg="http://www.w3.org/2000/svg"
   xmlns="http://www.w3.org/2000/svg"
   xmlns:sodipodi="http://sodipodi.sourceforge.net/DTD/sodipodi-0.dtd"
   xmlns:inkscape="http://www.inkscape.org/namespaces/inkscape"
   version="1.1"
   id="Layer_1"
   x="0px"
   y="0px"
   width="416px"
   height="416px"
   viewBox="0 0 26 26"
   enable-background="new 0 0 26 26"
   xml:space="preserve"
   sodipodi:docname="icons8_volume_down.svg"
   inkscape:version="0.92.3 (2405546, 2018-03-11)"><metadata
     id="metadata1479"><rdf:RDF><cc:Work
         rdf:about=""><dc:format>image/svg+xml</dc:format><dc:type
           rdf:resource="http://purl.org/dc/dcmitype/StillImage" /><dc:title /></cc:Work></rdf:RDF></metadata><defs
     id="defs1477" /><sodipodi:namedview
     pagecolor="#ffffff"
     bordercolor="#666666"
     borderopacity="1"
     objecttolerance="10"
     gridtolerance="10"
     guidetolerance="10"
     inkscape:pageopacity="0"
     inkscape:pageshadow="2"
     inkscape:window-width="776"
     inkscape:window-height="413"
     id="namedview1475"
     showgrid="false"
     inkscape:zoom="0.28365385"
     inkscape:cx="256.69082"
     inkscape:cy="198.69469"
     inkscape:window-x="1094"
     inkscape:window-y="295"
     inkscape:window-maximized="0"
     inkscape:current-layer="Layer_1" /><path
     d="m 9.4300659,17.367624 c 0,0.563704 -0.439275,1.023053 -0.9783407,1.023053 H 1.6033406 C 1.064275,18.390677 0.625,17.931328 0.625,17.367624 V 9.183199 c 0,-0.5637024 0.439275,-1.0230533 0.9783406,-1.0230533 h 6.8483846 c 0.5390657,0 0.9783407,0.4593509 0.9783407,1.0230533 z"
     id="path1466"
     style="fill:#808080;stroke-width:1.00044715"
     inkscape:connector-curvature="0" /><path
     d="M 4.8504532,17.237698 C 4.6714169,17.077078 4.5383625,16.683202 4.5383625,16.343548 v -6.136273 c 0,-0.3396535 0.1330544,-0.7406903 0.3120907,-0.9013097 L 11.413162,1.5461067 c 0.845287,-0.88289498 1.930266,-0.5473335 1.930266,0.7478519 V 24.065554 c 0,1.394422 -0.982254,1.922317 -1.960594,0.899264 z"
     id="path1468"
     style="fill:#808080;stroke-width:1.00044715"
     inkscape:connector-curvature="0" /><path
     inkscape:connector-curvature="0"
     d="m 19.73492,8.2129239 c -2.835508,0 -5.134285,2.3481011 -5.134285,5.2444491 0,2.896348 2.298777,5.244958 5.134285,5.244958 2.835508,0 5.134783,-2.34861 5.134783,-5.244958 0,-2.896348 -2.299275,-5.2444491 -5.134783,-5.2444491 z m 2.738418,6.0073151 h -5.476836 v -1.525732 h 5.476836 z"
     id="path21799"
     style="fill:#808080;stroke-width:0.50320745" /></svg>