<?xml version="1.0" encoding="UTF-8" standalone="no"?>
<!-- Generator: Adobe Illustrator 15.0.0, SVG Export Plug-In . SVG Version: 6.00 Build 0)  -->

<svg
   xmlns:dc="http://purl.org/dc/elements/1.1/"
   xmlns:cc="http://creativecommons.org/ns#"
   xmlns:rdf="http://www.w3.org/1999/02/22-rdf-syntax-ns#"
   xmlns:svg="http://www.w3.org/2000/svg"
   xmlns="http://www.w3.org/2000/svg"
   xmlns:sodipodi="http://sodipodi.sourceforge.net/DTD/sodipodi-0.dtd"
   xmlns:inkscape="http://www.inkscape.org/namespaces/inkscape"
   version="1.1"
   id="Layer_1"
   x="0px"
   y="0px"
   width="416px"
   height="416px"
   viewBox="0 0 26 26"
   enable-background="new 0 0 26 26"
   xml:space="preserve"
   sodipodi:docname="icons8-document-selection1.svg"
   inkscape:version="0.92.2 (5c3e80d, 2017-08-06)"><metadata
     id="metadata7908"><rdf:RDF><cc:Work
         rdf:about=""><dc:format>image/svg+xml</dc:format><dc:type
           rdf:resource="http://purl.org/dc/dcmitype/StillImage" /><dc:title /></cc:Work></rdf:RDF></metadata><defs
     id="defs7906" /><sodipodi:namedview
     pagecolor="#ffffff"
     bordercolor="#666666"
     borderopacity="1"
     objecttolerance="10"
     gridtolerance="10"
     guidetolerance="10"
     inkscape:pageopacity="0"
     inkscape:pageshadow="2"
     inkscape:window-width="737"
     inkscape:window-height="480"
     id="namedview7904"
     showgrid="false"
     inkscape:zoom="0.40114712"
     inkscape:cx="109.16286"
     inkscape:cy="119.23805"
     inkscape:window-x="0"
     inkscape:window-y="0"
     inkscape:window-maximized="0"
     inkscape:current-layer="Layer_1" /><path
     stroke-miterlimit="10"
     d="m 9.263688,12.15678 c 2.054572,0 5.076599,0 7.252284,0"
     id="path7895"
     inkscape:connector-curvature="0"
     style="fill:none;stroke:#808080;stroke-width:1.70320702;stroke-linecap:round;stroke-linejoin:round;stroke-miterlimit:10;stroke-opacity:1" /><path
     stroke-miterlimit="10"
     d="m 8,20.819915 c 2.833,0 7,0 10,0"
     id="path7897"
     inkscape:connector-curvature="0"
     style="fill:none;stroke:#808080;stroke-width:2;stroke-linecap:round;stroke-linejoin:round;stroke-miterlimit:10;stroke-opacity:1" /><path
     stroke-miterlimit="10"
     d="m 8,17.319915 c 1,0 7,0 8,0"
     id="path7899"
     inkscape:connector-curvature="0"
     style="fill:none;stroke:#808080;stroke-width:2;stroke-linecap:round;stroke-linejoin:round;stroke-miterlimit:10;stroke-opacity:1" /><path
     fill="#000000"
     d="M20.266,4.207c-0.244-0.24-0.494-0.484-0.74-0.732c-0.248-0.246-0.492-0.496-0.732-0.74  C17.082,0.988,16.063,0,15,0H7C4.795,0,3,1.795,3,4v18c0,2.205,1.795,4,4,4h12c2.205,0,4-1.795,4-4V8  C23,6.938,22.012,5.918,20.266,4.207z M21,22c0,1.104-0.896,2-2,2H7c-1.104,0-2-0.896-2-2V4c0-1.104,0.896-2,2-2l7.289-0.004  C15.01,2.18,15,3.066,15,3.953V7c0,0.551,0.449,1,1,1h3c0.998,0,2,0.005,2,1V22z"
     id="path7901"
     style="fill:#808080" /><polyline
     style="fill:none;stroke:#808080;stroke-width:2;stroke-miterlimit:10;stroke-opacity:1"
     stroke-miterlimit="10"
     points="21,1 25,1 25,5 "
     id="polyline7298"
     transform="matrix(0.51350855,0,0,0.40672755,6.2142193,9.945215)" /><polyline
     stroke-miterlimit="10"
     points="25,21 25,25 21,25 "
     id="polyline7300"
     transform="matrix(0.51350855,0,0,0.40672755,6.2142193,4.0476655)"
     style="fill:none;stroke:#808080;stroke-width:2;stroke-miterlimit:10;stroke-opacity:1" /><polyline
     stroke-miterlimit="10"
     points="5,25 1,25 1,21 "
     id="polyline7306"
     transform="matrix(0.51350855,0,0,0.40672755,6.2142193,4.0476655)"
     style="fill:none;stroke:#808080;stroke-width:2;stroke-miterlimit:10;stroke-opacity:1" /><polyline
     style="fill:none;stroke:#808080;stroke-width:2;stroke-miterlimit:10;stroke-opacity:1"
     stroke-miterlimit="10"
     points="1,5 1,1 5,1 "
     id="polyline7308"
     transform="matrix(0.51350855,0,0,0.40672755,6.2142193,9.945215)" /><line
     stroke-miterlimit="10"
     x1="12.376322"
     y1="14.215854"
     x2="9.8087788"
     y2="14.215854"
     id="line7314"
     style="fill:none;stroke:#808080;stroke-width:0.91401982;stroke-linejoin:round;stroke-miterlimit:10;stroke-opacity:1" /><line
     stroke-miterlimit="10"
     x1="15.970882"
     y1="14.215854"
     x2="13.403339"
     y2="14.215854"
     id="line7316"
     style="fill:none;stroke:#808080;stroke-width:0.91401982;stroke-linejoin:round;stroke-miterlimit:10;stroke-opacity:1" /><line
     style="fill:none;stroke:#808080;stroke-width:0.91401982;stroke-linejoin:round;stroke-miterlimit:10;stroke-opacity:1"
     stroke-miterlimit="10"
     x1="13.403339"
     y1="10.351944"
     x2="15.970882"
     y2="10.351944"
     id="line7326" /><line
     style="fill:none;stroke:#808080;stroke-width:0.91401982;stroke-linejoin:round;stroke-miterlimit:10;stroke-opacity:1"
     stroke-miterlimit="10"
     x1="9.8087788"
     y1="10.351944"
     x2="12.376322"
     y2="10.351944"
     id="line7328" /></svg>