<?xml version="1.0" encoding="UTF-8" standalone="no"?>
<svg
   xmlns:dc="http://purl.org/dc/elements/1.1/"
   xmlns:cc="http://creativecommons.org/ns#"
   xmlns:rdf="http://www.w3.org/1999/02/22-rdf-syntax-ns#"
   xmlns:svg="http://www.w3.org/2000/svg"
   xmlns="http://www.w3.org/2000/svg"
   xmlns:sodipodi="http://sodipodi.sourceforge.net/DTD/sodipodi-0.dtd"
   xmlns:inkscape="http://www.inkscape.org/namespaces/inkscape"
   width="500px"
   height="500px"
   viewBox="0 0 26 26"
   version="1.1"
   id="svg18551"
   sodipodi:docname="icons8-edit-row-2.svg"
   inkscape:version="0.92.3 (2405546, 2018-03-11)">
  <metadata
     id="metadata18557">
    <rdf:RDF>
      <cc:Work
         rdf:about="">
        <dc:format>image/svg+xml</dc:format>
        <dc:type
           rdf:resource="http://purl.org/dc/dcmitype/StillImage" />
      </cc:Work>
    </rdf:RDF>
  </metadata>
  <defs
     id="defs18555" />
  <sodipodi:namedview
     pagecolor="#ffffff"
     bordercolor="#666666"
     borderopacity="1"
     objecttolerance="10"
     gridtolerance="10"
     guidetolerance="10"
     inkscape:pageopacity="0"
     inkscape:pageshadow="2"
     inkscape:window-width="812"
     inkscape:window-height="480"
     id="namedview18553"
     showgrid="false"
     inkscape:zoom="0.472"
     inkscape:cx="250"
     inkscape:cy="250"
     inkscape:window-x="70"
     inkscape:window-y="27"
     inkscape:window-maximized="0"
     inkscape:current-layer="svg18551" />
  <g
     id="surface1"
     style="fill:#808080">
    <path
       style="stroke:none;fill-rule:nonzero;fill:#808080;fill-opacity:1"
       d="M 17.636719 0 C 17.316406 0 16.984375 0.125 16.742188 0.371094 L 15.328125 1.785156 L 18.867188 5.355469 L 20.3125 3.910156 C 20.800781 3.425781 20.804688 2.644531 20.3125 2.15625 L 18.527344 0.371094 C 18.28125 0.125 17.953125 0 17.636719 0 Z M 14.035156 2.863281 L 8.277344 8.648438 C 8.207031 8.714844 8.121094 8.792969 8.09375 8.894531 L 6.863281 13.109375 C 6.847656 13.160156 6.832031 13.214844 6.832031 13.265625 C 6.832031 13.402344 6.886719 13.535156 6.984375 13.632813 C 7.121094 13.769531 7.324219 13.8125 7.507813 13.757813 L 11.757813 12.527344 C 11.859375 12.496094 11.9375 12.417969 12.003906 12.339844 L 17.757813 6.585938 Z M 0.984375 5.910156 C 0.441406 5.910156 0 6.351563 0 6.894531 L 0 18.710938 C 0 19.253906 0.441406 19.695313 0.984375 19.695313 L 24.621094 19.695313 C 25.164063 19.695313 25.605469 19.253906 25.605469 18.710938 L 25.605469 6.894531 C 25.605469 6.351563 25.164063 5.910156 24.621094 5.910156 L 20.496094 5.910156 L 18.527344 7.878906 L 23.636719 7.878906 L 23.636719 17.726563 L 1.96875 17.726563 L 1.96875 7.878906 L 6.894531 7.878906 L 8.863281 5.910156 Z M 9.046875 9.417969 L 10.863281 9.785156 L 11.234375 11.570313 L 8.832031 12.28125 L 8.339844 11.789063 Z "
       id="path18548" />
  </g>
</svg>
