<?xml version="1.0" encoding="UTF-8" standalone="no"?>
<svg
   xmlns:dc="http://purl.org/dc/elements/1.1/"
   xmlns:cc="http://creativecommons.org/ns#"
   xmlns:rdf="http://www.w3.org/1999/02/22-rdf-syntax-ns#"
   xmlns:svg="http://www.w3.org/2000/svg"
   xmlns="http://www.w3.org/2000/svg"
   xmlns:sodipodi="http://sodipodi.sourceforge.net/DTD/sodipodi-0.dtd"
   xmlns:inkscape="http://www.inkscape.org/namespaces/inkscape"
   width="104pt"
   height="104pt"
   viewBox="0 0 104 104"
   version="1.1"
   id="svg60"
   sodipodi:docname="icons8_delete.svg"
   inkscape:version="1.0.1 (3bc2e813f5, 2020-09-07)">
  <metadata
     id="metadata66">
    <rdf:RDF>
      <cc:Work
         rdf:about="">
        <dc:format>image/svg+xml</dc:format>
        <dc:type
           rdf:resource="http://purl.org/dc/dcmitype/StillImage" />
      </cc:Work>
    </rdf:RDF>
  </metadata>
  <defs
     id="defs64" />
  <sodipodi:namedview
     pagecolor="#ffffff"
     bordercolor="#666666"
     borderopacity="1"
     objecttolerance="10"
     gridtolerance="10"
     guidetolerance="10"
     inkscape:pageopacity="0"
     inkscape:pageshadow="2"
     inkscape:window-width="1920"
     inkscape:window-height="1011"
     id="namedview62"
     showgrid="false"
     inkscape:zoom="5.9134615"
     inkscape:cx="69.333333"
     inkscape:cy="69.333333"
     inkscape:window-x="0"
     inkscape:window-y="0"
     inkscape:window-maximized="1"
     inkscape:current-layer="svg60" />
  <g
     id="surface1">
    <path
       style="fill:#5b5b5b;fill-opacity:1;fill-rule:nonzero;stroke:none;stroke-width:2.48453"
       d="m 24.44109,4.6184578 c -1.717823,0 -3.590927,0.2232105 -4.580857,1.2228553 L 6.3991073,19.6033 c -1.9507463,1.950746 -1.9507463,6.919813 0,8.870559 L 29.643083,51.717834 5.1762496,76.495233 c -1.9507463,1.950748 -1.9507463,6.919816 0,8.870562 L 18.938236,98.81723 c 1.950747,1.95073 6.919815,1.95073 8.87056,0 L 52.275629,74.350382 76.752166,98.81723 c 1.941041,1.95073 6.919813,1.95073 8.860855,0 L 99.384713,85.365795 c 1.950747,-1.950746 1.950747,-6.919814 0,-8.870562 L 74.908177,51.717834 98.161857,28.473859 c 1.941043,-1.950746 1.941043,-6.919813 0,-8.870559 L 84.700732,5.8413131 c -1.950747,-1.9507466 -6.919813,-1.9507466 -8.870563,0 L 52.275629,29.395855 28.730793,5.8413131 C 27.731155,4.8416784 26.168616,4.6184578 24.44109,4.6184578 Z"
       id="path57"
       sodipodi:nodetypes="sccsccccscccccccccsccs" />
  </g>
</svg>
