<?xml version="1.0" encoding="UTF-8" standalone="no"?>
<!-- Generator: Adobe Illustrator 19.0.0, SVG Export Plug-In . SVG Version: 6.00 Build 0)  -->

<svg
   xmlns:dc="http://purl.org/dc/elements/1.1/"
   xmlns:cc="http://creativecommons.org/ns#"
   xmlns:rdf="http://www.w3.org/1999/02/22-rdf-syntax-ns#"
   xmlns:svg="http://www.w3.org/2000/svg"
   xmlns="http://www.w3.org/2000/svg"
   xmlns:sodipodi="http://sodipodi.sourceforge.net/DTD/sodipodi-0.dtd"
   xmlns:inkscape="http://www.inkscape.org/namespaces/inkscape"
   version="1.1"
   id="Capa_1"
   x="0px"
   y="0px"
   viewBox="0 0 512 512"
   style="enable-background:new 0 0 512 512;"
   xml:space="preserve"
   sodipodi:docname="icons8_ligature.svg"
   inkscape:version="0.92.3 (2405546, 2018-03-11)"><metadata
   id="metadata63"><rdf:RDF><cc:Work
       rdf:about=""><dc:format>image/svg+xml</dc:format><dc:type
         rdf:resource="http://purl.org/dc/dcmitype/StillImage" /><dc:title></dc:title></cc:Work></rdf:RDF></metadata><defs
   id="defs61" /><sodipodi:namedview
   pagecolor="#ffffff"
   bordercolor="#666666"
   borderopacity="1"
   objecttolerance="10"
   gridtolerance="10"
   guidetolerance="10"
   inkscape:pageopacity="0"
   inkscape:pageshadow="2"
   inkscape:window-width="780"
   inkscape:window-height="480"
   id="namedview59"
   showgrid="false"
   inkscape:zoom="0.4609375"
   inkscape:cx="256"
   inkscape:cy="256"
   inkscape:window-x="70"
   inkscape:window-y="27"
   inkscape:window-maximized="0"
   inkscape:current-layer="Capa_1" />
<g
   id="g14"
   style="fill:#808080;stroke:#808080;stroke-width:10;stroke-miterlimit:4;stroke-dasharray:none;stroke-opacity:1"
   transform="matrix(0.970152,0,0,0.94993399,7.3021037,13.799949)">
	<path
   style="fill:#808080;stroke:#808080;stroke-width:10;stroke-miterlimit:4;stroke-dasharray:none;stroke-opacity:1"
   d="M 170.667,512 C 164.776,512 160,507.224 160,501.333 V 96 c 0,-53.019 42.981,-96 96,-96 53.019,0 96,42.981 96,96 v 32 c 0,5.891 -4.776,10.667 -10.667,10.667 -5.891,0 -10.667,-4.776 -10.667,-10.667 V 96 c 0,-41.237 -33.429,-74.667 -74.667,-74.667 -41.238,0 -74.666,33.43 -74.666,74.667 v 405.333 c 0,5.891 -4.775,10.667 -10.666,10.667 z"
   id="path2"
   inkscape:connector-curvature="0" />
	<path
   style="fill:#808080;stroke:#808080;stroke-width:10;stroke-miterlimit:4;stroke-dasharray:none;stroke-opacity:1"
   d="m 341.333,512 c -5.891,0 -10.667,-4.776 -10.667,-10.667 V 202.667 c 0,-5.891 4.776,-10.667 10.667,-10.667 5.891,0 10.667,4.776 10.667,10.667 v 298.667 c 0,5.89 -4.776,10.666 -10.667,10.666 z"
   id="path4"
   inkscape:connector-curvature="0" />
	<path
   style="fill:#808080;stroke:#808080;stroke-width:10;stroke-miterlimit:4;stroke-dasharray:none;stroke-opacity:1"
   d="M 384,213.333 H 128 c -5.891,0 -10.667,-4.776 -10.667,-10.667 0,-5.891 4.776,-10.666 10.667,-10.666 h 256 c 5.891,0 10.667,4.776 10.667,10.667 0,5.891 -4.776,10.666 -10.667,10.666 z"
   id="path6"
   inkscape:connector-curvature="0" />
	<path
   style="fill:#808080;stroke:#808080;stroke-width:10;stroke-miterlimit:4;stroke-dasharray:none;stroke-opacity:1"
   d="m 330.667,149.333 c -11.782,0 -21.333,-9.551 -21.333,-21.333 0,-11.782 9.551,-21.333 21.333,-21.333 11.782,0 21.333,9.551 21.333,21.333 0,11.782 -9.551,21.333 -21.333,21.333 z"
   id="path8"
   inkscape:connector-curvature="0" />
	<path
   style="fill:#808080;stroke:#808080;stroke-width:10;stroke-miterlimit:4;stroke-dasharray:none;stroke-opacity:1"
   d="M 213.333,512 H 128 c -5.891,0 -10.667,-4.776 -10.667,-10.667 0,-5.891 4.776,-10.667 10.667,-10.667 h 85.333 c 5.891,0 10.667,4.776 10.667,10.667 0,5.891 -4.776,10.667 -10.667,10.667 z"
   id="path10"
   inkscape:connector-curvature="0" />
	<path
   style="fill:#808080;stroke:#808080;stroke-width:10;stroke-miterlimit:4;stroke-dasharray:none;stroke-opacity:1"
   d="M 384,512 H 298.667 C 292.776,512 288,507.224 288,501.333 c 0,-5.891 4.776,-10.667 10.667,-10.667 H 384 c 5.891,0 10.667,4.776 10.667,10.667 0,5.891 -4.776,10.667 -10.667,10.667 z"
   id="path12"
   inkscape:connector-curvature="0" />
</g>
<path
   d="m 172.87504,500.16615 c -5.71517,0 -10.34862,-4.53688 -10.34862,-10.13294 v -385.0396 c 0,-50.364548 41.69811,-91.193661 93.1346,-91.193661 51.43649,0 93.13459,40.829113 93.13459,91.193661 v 30.39789 c 0,5.59606 -4.63345,10.13295 -10.34861,10.13295 -5.71517,0 -10.34861,-4.53689 -10.34861,-10.13295 v -30.39789 c 0,-39.172426 -32.43121,-70.928719 -72.43834,-70.928719 -40.00713,0 -72.43737,31.756293 -72.43737,70.928719 v 385.0396 c 0,5.59606 -4.63248,10.13294 -10.34764,10.13294 z"
   id="path16"
   style="fill:#808080;stroke:#808080;stroke-width:9.59989738;stroke-miterlimit:4;stroke-dasharray:none;stroke-opacity:1"
   inkscape:connector-curvature="0" />
<path
   d="m 338.447,500.16615 c -5.71517,0 -10.34861,-4.53688 -10.34861,-10.13294 V 206.32022 c 0,-5.59606 4.63344,-10.13294 10.34861,-10.13294 5.71516,0 10.34861,4.53688 10.34861,10.13294 v 283.71394 c 0,5.59511 -4.63345,10.13199 -10.34861,10.13199 z"
   id="path18"
   style="fill:#808080;stroke:#808080;stroke-width:9.59989738;stroke-miterlimit:4;stroke-dasharray:none;stroke-opacity:1"
   inkscape:connector-curvature="0" />
<path
   d="M 379.84047,216.45222 H 131.48156 c -5.71517,0 -10.34861,-4.53689 -10.34861,-10.13295 0,-5.59606 4.63344,-10.13199 10.34861,-10.13199 h 248.35891 c 5.71517,0 10.34862,4.53688 10.34862,10.13294 0,5.59606 -4.63345,10.132 -10.34862,10.132 z"
   id="path20"
   style="fill:#808080;stroke:#808080;stroke-width:9.59989738;stroke-miterlimit:4;stroke-dasharray:none;stroke-opacity:1"
   inkscape:connector-curvature="0" />
<path
   d="m 328.09936,155.65644 c -11.43033,0 -20.69626,-9.07282 -20.69626,-20.26494 0,-11.19212 9.26593,-20.26494 20.69626,-20.26494 11.43033,0 20.69625,9.07282 20.69625,20.26494 0,11.19212 -9.26592,20.26494 -20.69625,20.26494 z"
   id="path22"
   style="fill:#808080;stroke:#808080;stroke-width:9.59989738;stroke-miterlimit:4;stroke-dasharray:none;stroke-opacity:1"
   inkscape:connector-curvature="0" />
<path
   d="m 214.26754,500.16615 h -82.78598 c -5.71517,0 -10.34861,-4.53688 -10.34861,-10.13294 0,-5.59606 4.63344,-10.13295 10.34861,-10.13295 h 82.78598 c 5.71517,0 10.34861,4.53689 10.34861,10.13295 0,5.59606 -4.63344,10.13294 -10.34861,10.13294 z"
   id="path24"
   style="fill:#808080;stroke:#808080;stroke-width:9.59989738;stroke-miterlimit:4;stroke-dasharray:none;stroke-opacity:1"
   inkscape:connector-curvature="0" />
<path
   d="m 379.84047,500.16615 h -82.78598 c -5.71516,0 -10.34861,-4.53688 -10.34861,-10.13294 0,-5.59606 4.63345,-10.13295 10.34861,-10.13295 h 82.78598 c 5.71517,0 10.34862,4.53689 10.34862,10.13295 0,5.59606 -4.63345,10.13294 -10.34862,10.13294 z"
   id="path26"
   style="fill:#808080;stroke:#808080;stroke-width:9.59989738;stroke-miterlimit:4;stroke-dasharray:none;stroke-opacity:1"
   inkscape:connector-curvature="0" />
<g
   id="g28"
   style="fill:#808080;stroke:#808080;stroke-width:10;stroke-miterlimit:4;stroke-dasharray:none;stroke-opacity:1"
   transform="matrix(0.970152,0,0,0.94993399,7.3021037,13.799949)">
</g>
<g
   id="g30"
   style="fill:#808080;stroke:#808080;stroke-width:10;stroke-miterlimit:4;stroke-dasharray:none;stroke-opacity:1"
   transform="matrix(0.970152,0,0,0.94993399,7.3021037,13.799949)">
</g>
<g
   id="g32"
   style="fill:#808080;stroke:#808080;stroke-width:10;stroke-miterlimit:4;stroke-dasharray:none;stroke-opacity:1"
   transform="matrix(0.970152,0,0,0.94993399,7.3021037,13.799949)">
</g>
<g
   id="g34"
   style="fill:#808080;stroke:#808080;stroke-width:10;stroke-miterlimit:4;stroke-dasharray:none;stroke-opacity:1"
   transform="matrix(0.970152,0,0,0.94993399,7.3021037,13.799949)">
</g>
<g
   id="g36"
   style="fill:#808080;stroke:#808080;stroke-width:10;stroke-miterlimit:4;stroke-dasharray:none;stroke-opacity:1"
   transform="matrix(0.970152,0,0,0.94993399,7.3021037,13.799949)">
</g>
<g
   id="g38"
   style="fill:#808080;stroke:#808080;stroke-width:10;stroke-miterlimit:4;stroke-dasharray:none;stroke-opacity:1"
   transform="matrix(0.970152,0,0,0.94993399,7.3021037,13.799949)">
</g>
<g
   id="g40"
   style="fill:#808080;stroke:#808080;stroke-width:10;stroke-miterlimit:4;stroke-dasharray:none;stroke-opacity:1"
   transform="matrix(0.970152,0,0,0.94993399,7.3021037,13.799949)">
</g>
<g
   id="g42"
   style="fill:#808080;stroke:#808080;stroke-width:10;stroke-miterlimit:4;stroke-dasharray:none;stroke-opacity:1"
   transform="matrix(0.970152,0,0,0.94993399,7.3021037,13.799949)">
</g>
<g
   id="g44"
   style="fill:#808080;stroke:#808080;stroke-width:10;stroke-miterlimit:4;stroke-dasharray:none;stroke-opacity:1"
   transform="matrix(0.970152,0,0,0.94993399,7.3021037,13.799949)">
</g>
<g
   id="g46"
   style="fill:#808080;stroke:#808080;stroke-width:10;stroke-miterlimit:4;stroke-dasharray:none;stroke-opacity:1"
   transform="matrix(0.970152,0,0,0.94993399,7.3021037,13.799949)">
</g>
<g
   id="g48"
   style="fill:#808080;stroke:#808080;stroke-width:10;stroke-miterlimit:4;stroke-dasharray:none;stroke-opacity:1"
   transform="matrix(0.970152,0,0,0.94993399,7.3021037,13.799949)">
</g>
<g
   id="g50"
   style="fill:#808080;stroke:#808080;stroke-width:10;stroke-miterlimit:4;stroke-dasharray:none;stroke-opacity:1"
   transform="matrix(0.970152,0,0,0.94993399,7.3021037,13.799949)">
</g>
<g
   id="g52"
   style="fill:#808080;stroke:#808080;stroke-width:10;stroke-miterlimit:4;stroke-dasharray:none;stroke-opacity:1"
   transform="matrix(0.970152,0,0,0.94993399,7.3021037,13.799949)">
</g>
<g
   id="g54"
   style="fill:#808080;stroke:#808080;stroke-width:10;stroke-miterlimit:4;stroke-dasharray:none;stroke-opacity:1"
   transform="matrix(0.970152,0,0,0.94993399,7.3021037,13.799949)">
</g>
<g
   id="g56"
   style="fill:#808080;stroke:#808080;stroke-width:10;stroke-miterlimit:4;stroke-dasharray:none;stroke-opacity:1"
   transform="matrix(0.970152,0,0,0.94993399,7.3021037,13.799949)">
</g>
</svg>