<?xml version="1.0" encoding="UTF-8" standalone="no"?>
<svg
   xmlns:dc="http://purl.org/dc/elements/1.1/"
   xmlns:cc="http://creativecommons.org/ns#"
   xmlns:rdf="http://www.w3.org/1999/02/22-rdf-syntax-ns#"
   xmlns:svg="http://www.w3.org/2000/svg"
   xmlns="http://www.w3.org/2000/svg"
   xmlns:sodipodi="http://sodipodi.sourceforge.net/DTD/sodipodi-0.dtd"
   xmlns:inkscape="http://www.inkscape.org/namespaces/inkscape"
   version="1.1"
   x="0px"
   y="0px"
   viewBox="0 0 26 26"
   style="enable-background:new 0 0 26 26;"
   xml:space="preserve"
   width="416px"
   height="416px"
   id="svg827"
   sodipodi:docname="icons8_plus_small.svg"
   inkscape:version="1.0.1 (0767f8302a, 2020-10-17)"><metadata
     id="metadata833"><rdf:RDF><cc:Work
         rdf:about=""><dc:format>image/svg+xml</dc:format><dc:type
           rdf:resource="http://purl.org/dc/dcmitype/StillImage" /></cc:Work></rdf:RDF></metadata><defs
     id="defs831" /><sodipodi:namedview
     pagecolor="#ffffff"
     bordercolor="#666666"
     borderopacity="1"
     objecttolerance="10"
     gridtolerance="10"
     guidetolerance="10"
     inkscape:pageopacity="0"
     inkscape:pageshadow="2"
     inkscape:window-width="1920"
     inkscape:window-height="1011"
     id="namedview829"
     showgrid="false"
     inkscape:zoom="0.53725962"
     inkscape:cx="238.86437"
     inkscape:cy="230.94351"
     inkscape:window-x="0"
     inkscape:window-y="0"
     inkscape:window-maximized="1"
     inkscape:current-layer="svg827"
     inkscape:document-rotation="0" /><path
     style="fill:#808080;fill-opacity:1;fill-rule:nonzero;stroke:none;stroke-width:2.21484"
     d="m 11.985911,3.3816069 c -1.275956,0 -2.1237944,0.9005989 -2.1237944,2.2470352 V 10.122712 H 5.6313161 c -1.2675617,0 -2.1154004,0.900599 -2.1154004,2.255954 v 2.247035 c 0,1.346435 0.8478387,2.247035 2.1154004,2.247035 h 4.2308005 v 4.494069 c 0,1.355355 0.8478384,2.247037 2.1237944,2.247037 h 2.115401 c 1.267561,0 2.1154,-0.891682 2.1154,-2.247037 v -4.494069 h 4.230801 c 1.275956,0 2.1154,-0.9006 2.1154,-2.247035 v -2.247035 c 0,-1.355355 -0.839444,-2.255954 -2.1154,-2.255954 H 16.216712 V 5.6286421 c 0,-1.3464363 -0.847839,-2.2470352 -2.1154,-2.2470352 z"
     id="path2"
     sodipodi:nodetypes="sscsssscsssscsssscsss" /></svg>
