<?xml version="1.0" encoding="UTF-8" standalone="no"?>
<svg
   xmlns:dc="http://purl.org/dc/elements/1.1/"
   xmlns:cc="http://creativecommons.org/ns#"
   xmlns:rdf="http://www.w3.org/1999/02/22-rdf-syntax-ns#"
   xmlns:svg="http://www.w3.org/2000/svg"
   xmlns="http://www.w3.org/2000/svg"
   xmlns:sodipodi="http://sodipodi.sourceforge.net/DTD/sodipodi-0.dtd"
   xmlns:inkscape="http://www.inkscape.org/namespaces/inkscape"
   width="104pt"
   height="104pt"
   viewBox="0 0 104 104"
   version="1.1"
   id="svg3765"
   sodipodi:docname="send_by_email.svg"
   inkscape:version="0.92.4 (f8dce91, 2019-08-02)">
  <metadata
     id="metadata3771">
    <rdf:RDF>
      <cc:Work
         rdf:about="">
        <dc:format>image/svg+xml</dc:format>
        <dc:type
           rdf:resource="http://purl.org/dc/dcmitype/StillImage" />
        <dc:title></dc:title>
      </cc:Work>
    </rdf:RDF>
  </metadata>
  <defs
     id="defs3769" />
  <sodipodi:namedview
     pagecolor="#ffffff"
     bordercolor="#666666"
     borderopacity="1"
     objecttolerance="10"
     gridtolerance="10"
     guidetolerance="10"
     inkscape:pageopacity="0"
     inkscape:pageshadow="2"
     inkscape:window-width="1850"
     inkscape:window-height="1016"
     id="namedview3767"
     showgrid="false"
     inkscape:zoom="6.0432692"
     inkscape:cx="69.333333"
     inkscape:cy="69.333333"
     inkscape:window-x="70"
     inkscape:window-y="27"
     inkscape:window-maximized="1"
     inkscape:current-layer="svg3765" />
  <g
     id="surface1"
     style="fill:#808080"
     transform="scale(0.78553655,0.75403344)">
    <path
       style="fill:#808080;fill-opacity:1;fill-rule:nonzero;stroke:none"
       d="m 59.890625,67.507813 h -0.367187 c -2.832032,7.957031 -7.957032,11.925781 -15.40625,11.925781 -5.585938,0 -10.078125,-2.078125 -13.496094,-6.246094 -3.429688,-4.15625 -5.136719,-9.925781 -5.136719,-17.296875 0,-9.527344 2.367188,-17.28125 7.109375,-23.265625 4.722656,-5.972656 10.433594,-8.957031 17.09375,-8.957031 6.035156,0 9.820313,2.429687 11.359375,7.308594 h 0.246094 l 0.597656,-6.1875 h 13.648438 c -1.8125,17.742187 -2.738282,29.332031 -2.738282,34.792968 0,5.832032 1.539063,8.742188 4.617188,8.742188 3.246094,0 5.910156,-2.214844 8.019531,-6.617188 2.089844,-4.417968 3.152344,-10.1875 3.152344,-17.296875 0,-9.742187 -3.015625,-17.726562 -9.046875,-23.960937 -6.035156,-6.214844 -14.433594,-9.339844 -25.238281,-9.339844 -11.570313,0 -21.1875,4.15625 -28.851563,12.464844 -7.664062,8.308594 -11.496094,18.4375 -11.496094,30.390625 0,11.574219 3.386719,20.683594 10.15625,27.347656 6.785157,6.664063 16.128907,10 28.066407,10 9.113281,0 17.4375,-1.785156 25.007812,-5.367187 v 11.925781 c -6.925781,3.031246 -15.820312,4.554686 -26.699219,4.554686 -14.941406,0 -27.082031,-4.402342 -36.4375,-13.203124 C 4.679688,80.402344 0,68.570313 0,53.703125 0,38.546875 5,25.820313 14.988281,15.496094 24.976563,5.171875 37.839844,0 53.582031,0 c 14.558594,0 26.34375,4 35.347657,12.019531 9,8.015625 13.496092,18.585938 13.496092,31.699219 0,10.785156 -2.757811,19.433594 -8.249999,25.960938 -5.507812,6.507812 -12.324218,9.769531 -20.449218,9.769531 -4.003907,0 -7.265625,-1.109375 -9.773438,-3.308594 -2.507812,-2.214844 -3.863281,-5.09375 -4.0625,-8.632812 z M 51.8125,34.53125 c -3.632812,0 -6.601562,2.140625 -8.878906,6.402344 C 40.640625,45.210938 39.5,50.148438 39.5,55.765625 c 0,4.003906 0.785156,7.109375 2.339844,9.34375 1.554687,2.230469 3.554687,3.335938 6.03125,3.335938 3.800781,0 6.804687,-2.089844 8.988281,-6.308594 2.171875,-4.199219 3.261719,-9.816406 3.261719,-16.847656 0,-3.339844 -0.753906,-5.957032 -2.277344,-7.878907 C 56.335938,35.5 54.320313,34.53125 51.8125,34.53125 Z"
       id="path3762"
       inkscape:connector-curvature="0" />
  </g>
  <g
     id="surface1-3-6"
     transform="matrix(0.74324519,0,0,0.78172995,40.903771,31.134599)"
     style="fill:#808080">
    <path
       style="fill:#808080;fill-opacity:1;fill-rule:nonzero;stroke:none"
       d="m 50.472656,34.714844 c -0.292968,0.04687 -0.660156,0.171875 -0.859375,0.371094 -0.402343,0.398437 -11.035156,10.21875 -17.730468,20.066406 -0.398438,0.785156 -0.367188,1.523437 -0.367188,2.707031 0.398438,0.785156 1.554688,1.230469 2.339844,1.230469 h 8.246094 c 0,0 1.679687,28.390625 2.460937,29.175781 1.1875,1.570313 3.910156,2.339844 6.28125,2.339844 2.753906,0 5.863281,-1.152344 6.648438,-2.339844 0.78125,-0.785156 1.96875,-29.175781 1.96875,-29.175781 h 8.738281 c 1.1875,0 1.941406,-0.445313 2.339844,-1.230469 0.402343,-1.183594 0.402343,-1.921875 0,-2.707031 C 63.847656,45.304688 53.210938,35.484375 52.8125,35.085938 c -0.398437,-0.402344 -1.199219,-0.371094 -1.601562,-0.371094 -0.199219,0 -0.445313,-0.04687 -0.738282,0 z"
       id="path2-6"
       inkscape:connector-curvature="0"
       sodipodi:nodetypes="scccsccsccscccss" />
  </g>
</svg>
