<?xml version="1.0" encoding="UTF-8" standalone="no"?>
<svg
   xmlns:dc="http://purl.org/dc/elements/1.1/"
   xmlns:cc="http://creativecommons.org/ns#"
   xmlns:rdf="http://www.w3.org/1999/02/22-rdf-syntax-ns#"
   xmlns:svg="http://www.w3.org/2000/svg"
   xmlns="http://www.w3.org/2000/svg"
   xmlns:sodipodi="http://sodipodi.sourceforge.net/DTD/sodipodi-0.dtd"
   xmlns:inkscape="http://www.inkscape.org/namespaces/inkscape"
   version="1.1"
   id="Capa_1"
   x="0px"
   y="0px"
   viewBox="0 0 286.374 286.374"
   style="enable-background:new 0 0 286.374 286.374;"
   xml:space="preserve"
   sodipodi:docname="icons8_save_small.svg"
   inkscape:version="1.0.2 (e86c870879, 2021-01-15)"><metadata
   id="metadata40"><rdf:RDF><cc:Work
       rdf:about=""><dc:format>image/svg+xml</dc:format><dc:type
         rdf:resource="http://purl.org/dc/dcmitype/StillImage" /><dc:title></dc:title></cc:Work></rdf:RDF></metadata><defs
   id="defs38" /><sodipodi:namedview
   pagecolor="#ffffff"
   bordercolor="#666666"
   borderopacity="1"
   objecttolerance="10"
   gridtolerance="10"
   guidetolerance="10"
   inkscape:pageopacity="0"
   inkscape:pageshadow="2"
   inkscape:window-width="1920"
   inkscape:window-height="995"
   id="namedview36"
   showgrid="false"
   inkscape:zoom="2.0987966"
   inkscape:cx="161.46351"
   inkscape:cy="191.82606"
   inkscape:window-x="0"
   inkscape:window-y="0"
   inkscape:window-maximized="1"
   inkscape:current-layer="Capa_1"
   inkscape:document-rotation="0" />

<g
   id="g5"
   style="fill:#808080"
   transform="matrix(2.5788904,0,0,2.5788904,-435.50799,-451.01115)">
</g>
<g
   id="g7"
   style="fill:#808080"
   transform="matrix(2.5788904,0,0,2.5788904,-435.50799,-451.01115)">
</g>
<g
   id="g9"
   style="fill:#808080"
   transform="matrix(2.5788904,0,0,2.5788904,-435.50799,-451.01115)">
</g>
<g
   id="g11"
   style="fill:#808080"
   transform="matrix(2.5788904,0,0,2.5788904,-435.50799,-451.01115)">
</g>
<g
   id="g13"
   style="fill:#808080"
   transform="matrix(2.5788904,0,0,2.5788904,-435.50799,-451.01115)">
</g>
<g
   id="g15"
   style="fill:#808080"
   transform="matrix(2.5788904,0,0,2.5788904,-435.50799,-451.01115)">
</g>
<g
   id="g17"
   style="fill:#808080"
   transform="matrix(2.5788904,0,0,2.5788904,-435.50799,-451.01115)">
</g>
<g
   id="g19"
   style="fill:#808080"
   transform="matrix(2.5788904,0,0,2.5788904,-435.50799,-451.01115)">
</g>
<g
   id="g21"
   style="fill:#808080"
   transform="matrix(2.5788904,0,0,2.5788904,-435.50799,-451.01115)">
</g>
<g
   id="g23"
   style="fill:#808080"
   transform="matrix(2.5788904,0,0,2.5788904,-435.50799,-451.01115)">
</g>
<g
   id="g25"
   style="fill:#808080"
   transform="matrix(2.5788904,0,0,2.5788904,-435.50799,-451.01115)">
</g>
<g
   id="g27"
   style="fill:#808080"
   transform="matrix(2.5788904,0,0,2.5788904,-435.50799,-451.01115)">
</g>
<g
   id="g29"
   style="fill:#808080"
   transform="matrix(2.5788904,0,0,2.5788904,-435.50799,-451.01115)">
</g>
<g
   id="g31"
   style="fill:#808080"
   transform="matrix(2.5788904,0,0,2.5788904,-435.50799,-451.01115)">
</g>
<g
   id="g33"
   style="fill:#808080"
   transform="matrix(2.5788904,0,0,2.5788904,-435.50799,-451.01115)">
</g>
<path
   style="fill:#808080;fill-opacity:1;stroke-width:10.4828"
   inkscape:connector-curvature="0"
   d="M 196.90298,101.6136 H 165.32971 V 28.523844 h 31.57327 z M 281.09839,70.289413 V 247.7931 c 0,17.30136 -14.14483,31.32418 -31.57328,31.32418 H 39.036646 c -17.428425,0 -31.5732522,-14.02282 -31.5732522,-31.32418 V 38.96523 c 0,-17.301363 14.1448272,-31.324157 31.5732522,-31.324157 H 217.95181 c 8.71428,0 13.52393,0.448933 38.10898,24.840079 24.58503,24.391093 25.0376,29.162788 25.0376,37.808261 z M 60.085498,101.6136 c 0,5.75322 4.725455,10.44138 10.5244,10.44138 H 207.42738 c 5.79897,0 10.52443,-4.68816 10.52443,-10.44138 V 28.523844 c 0,-5.753221 -4.72546,-10.441385 -10.52443,-10.441385 H 70.609898 c -5.798945,0 -10.5244,4.688164 -10.5244,10.441385 z m 189.439612,52.20695 c 0,-5.7532 -4.72548,-10.44139 -10.52442,-10.44139 H 49.561072 c -5.798945,0 -10.524426,4.68817 -10.524426,10.44139 v 104.41388 c 0,5.75327 4.725481,10.44144 10.524426,10.44144 H 239.00069 c 5.79894,0 10.52442,-4.68817 10.52442,-10.44144 z"
   id="path2-0" /></svg>
