<?xml version="1.0" encoding="UTF-8" standalone="no"?>
<svg
   xmlns:dc="http://purl.org/dc/elements/1.1/"
   xmlns:cc="http://creativecommons.org/ns#"
   xmlns:rdf="http://www.w3.org/1999/02/22-rdf-syntax-ns#"
   xmlns:svg="http://www.w3.org/2000/svg"
   xmlns="http://www.w3.org/2000/svg"
   xmlns:sodipodi="http://sodipodi.sourceforge.net/DTD/sodipodi-0.dtd"
   xmlns:inkscape="http://www.inkscape.org/namespaces/inkscape"
   viewBox="0 0 50 50"
   version="1.1"
   width="416px"
   height="416px"
   id="svg829"
   sodipodi:docname="icons8-ткань.svg"
   inkscape:version="0.92.2 (5c3e80d, 2017-08-06)">
  <metadata
     id="metadata835">
    <rdf:RDF>
      <cc:Work
         rdf:about="">
        <dc:format>image/svg+xml</dc:format>
        <dc:type
           rdf:resource="http://purl.org/dc/dcmitype/StillImage" />
      </cc:Work>
    </rdf:RDF>
  </metadata>
  <defs
     id="defs833" />
  <sodipodi:namedview
     pagecolor="#ffffff"
     bordercolor="#666666"
     borderopacity="1"
     objecttolerance="10"
     gridtolerance="10"
     guidetolerance="10"
     inkscape:pageopacity="0"
     inkscape:pageshadow="2"
     inkscape:window-width="737"
     inkscape:window-height="480"
     id="namedview831"
     showgrid="false"
     inkscape:zoom="0.37989992"
     inkscape:cx="299.25649"
     inkscape:cy="192.86199"
     inkscape:window-x="0"
     inkscape:window-y="0"
     inkscape:window-maximized="1"
     inkscape:current-layer="svg829" />
  <g
     id="surface1"
     style="fill:#808080">
    <path
       style="fill:#808080"
       d="M 4 3 L 4 11 L 6 11 L 6 3 Z M 9 3 L 9 5 L 11 5 L 11 3 Z M 14 3 L 14 11 L 16 11 L 16 3 Z M 19 3 L 19 5 L 21 5 L 21 3 Z M 24 3 L 24 11 L 26 11 L 26 3 Z M 29 3 L 29 5 L 31 5 L 31 3 Z M 34 3 L 34 11 L 36 11 L 36 3 Z M 39 3 L 39 5 L 41 5 L 41 3 Z M 44 3 L 44 11 L 46 11 L 46 3 Z M 7 6 L 7 8 L 13 8 L 13 6 Z M 17 6 L 17 8 L 23 8 L 23 6 Z M 27 6 L 27 8 L 33 8 L 33 6 Z M 37 6 L 37 8 L 43 8 L 43 6 Z M 9 9 L 9 17 L 11 17 L 11 9 Z M 19 9 L 19 17 L 21 17 L 21 9 Z M 29 9 L 29 17 L 31 17 L 31 9 Z M 39 9 L 39 17 L 41 17 L 41 9 Z M 4 12 L 4 14 L 8 14 L 8 12 Z M 12 12 L 12 14 L 18 14 L 18 12 Z M 22 12 L 22 14 L 28 14 L 28 12 Z M 32 12 L 32 14 L 38 14 L 38 12 Z M 42 12 L 42 14 L 46 14 L 46 12 Z M 4 15 L 4 23 L 6 23 L 6 15 Z M 14 15 L 14 23 L 16 23 L 16 15 Z M 24 15 L 24 23 L 26 23 L 26 15 Z M 34 15 L 34 23 L 36 23 L 36 15 Z M 44 15 L 44 23 L 46 23 L 46 15 Z M 7 18 L 7 20 L 13 20 L 13 18 Z M 17 18 L 17 20 L 23 20 L 23 18 Z M 27 18 L 27 20 L 33 20 L 33 18 Z M 37 18 L 37 20 L 43 20 L 43 18 Z M 9 21 L 9 29 L 11 29 L 11 21 Z M 19 21 L 19 29 L 21 29 L 21 21 Z M 29 21 L 29 29 L 31 29 L 31 21 Z M 39 21 L 39 29 L 41 29 L 41 21 Z M 4 24 L 4 26 L 8 26 L 8 24 Z M 12 24 L 12 26 L 18 26 L 18 24 Z M 22 24 L 22 26 L 28 26 L 28 24 Z M 32 24 L 32 26 L 38 26 L 38 24 Z M 42 24 L 42 26 L 46 26 L 46 24 Z M 4 27 L 4 35 L 6 35 L 6 27 Z M 14 27 L 14 35 L 16 35 L 16 27 Z M 24 27 L 24 35 L 26 35 L 26 27 Z M 34 27 L 34 35 L 36 35 L 36 27 Z M 44 27 L 44 35 L 46 35 L 46 27 Z M 7 30 L 7 32 L 13 32 L 13 30 Z M 17 30 L 17 32 L 23 32 L 23 30 Z M 27 30 L 27 32 L 33 32 L 33 30 Z M 37 30 L 37 32 L 43 32 L 43 30 Z M 9 33 L 9 41 L 11 41 L 11 33 Z M 19 33 L 19 41 L 21 41 L 21 33 Z M 29 33 L 29 41 L 31 41 L 31 33 Z M 39 33 L 39 41 L 41 41 L 41 33 Z M 4 36 L 4 38 L 8 38 L 8 36 Z M 12 36 L 12 38 L 18 38 L 18 36 Z M 22 36 L 22 38 L 28 38 L 28 36 Z M 32 36 L 32 38 L 38 38 L 38 36 Z M 42 36 L 42 38 L 46 38 L 46 36 Z M 4 39 L 4 47 L 6 47 L 6 39 Z M 14 39 L 14 47 L 16 47 L 16 39 Z M 24 39 L 24 47 L 26 47 L 26 39 Z M 34 39 L 34 47 L 36 47 L 36 39 Z M 44 39 L 44 47 L 46 47 L 46 39 Z M 7 42 L 7 44 L 13 44 L 13 42 Z M 17 42 L 17 44 L 23 44 L 23 42 Z M 27 42 L 27 44 L 33 44 L 33 42 Z M 37 42 L 37 44 L 43 44 L 43 42 Z M 9 45 L 9 47 L 11 47 L 11 45 Z M 19 45 L 19 47 L 21 47 L 21 45 Z M 29 45 L 29 47 L 31 47 L 31 45 Z M 39 45 L 39 47 L 41 47 L 41 45 Z "
       id="path826" />
  </g>
</svg>
