<?xml version="1.0" encoding="UTF-8" standalone="no"?>
<svg
   xmlns:dc="http://purl.org/dc/elements/1.1/"
   xmlns:cc="http://creativecommons.org/ns#"
   xmlns:rdf="http://www.w3.org/1999/02/22-rdf-syntax-ns#"
   xmlns:svg="http://www.w3.org/2000/svg"
   xmlns="http://www.w3.org/2000/svg"
   xmlns:sodipodi="http://sodipodi.sourceforge.net/DTD/sodipodi-0.dtd"
   xmlns:inkscape="http://www.inkscape.org/namespaces/inkscape"
   width="500px"
   height="500px"
   viewBox="0 0 26 26"
   version="1.1"
   id="svg829"
   sodipodi:docname="icons8-font-superscript.svg"
   inkscape:version="0.92.2 (5c3e80d, 2017-08-06)">
  <metadata
     id="metadata835">
    <rdf:RDF>
      <cc:Work
         rdf:about="">
        <dc:format>image/svg+xml</dc:format>
        <dc:type
           rdf:resource="http://purl.org/dc/dcmitype/StillImage" />
        <dc:title></dc:title>
      </cc:Work>
    </rdf:RDF>
  </metadata>
  <defs
     id="defs833" />
  <sodipodi:namedview
     pagecolor="#ffffff"
     bordercolor="#666666"
     borderopacity="1"
     objecttolerance="10"
     gridtolerance="10"
     guidetolerance="10"
     inkscape:pageopacity="0"
     inkscape:pageshadow="2"
     inkscape:window-width="737"
     inkscape:window-height="480"
     id="namedview831"
     showgrid="false"
     inkscape:zoom="0.472"
     inkscape:cx="250"
     inkscape:cy="250"
     inkscape:window-x="53"
     inkscape:window-y="131"
     inkscape:window-maximized="0"
     inkscape:current-layer="surface1" />
  <g
     id="surface1">
    <path
       style="fill:#808080;fill-opacity:1;fill-rule:nonzero;stroke:none"
       d="m 9.7293432,4.471928 c -0.390625,0 -0.578125,0.117188 -0.675781,0.214844 -0.101563,0.101562 -0.210938,0.296875 -0.308594,0.492187 l -5.015625,16.25 c -0.1015625,0.296875 -0.1015625,0.484375 0,0.585938 0.097656,0 0.203125,0.09375 0.398438,0.09375 h 2.863281 c 0.195312,0 0.386719,-0.08594 0.582031,-0.1875 0.101563,-0.09766 0.308594,-0.316406 0.308594,-0.613281 l 0.894531,-3.140625 h 5.2617188 l 0.832031,3.140625 c 0.09766,0.296875 0.175781,0.515625 0.277344,0.613281 0.09766,0.101562 0.316406,0.1875 0.613281,0.1875 h 3.234375 c 0.195313,0 0.304688,-0.08594 0.304688,-0.1875 0.101562,-0.09766 0.101562,-0.195313 0,-0.492188 L 14.069187,5.272709 C 13.967624,4.975834 13.893406,4.885991 13.791843,4.686772 13.690281,4.589116 13.381687,4.471928 13.084812,4.471928 Z m 1.6914058,4.246094 h 0.09375 l 1.722657,6.496094 H 9.6043432 Z"
       id="path826"
       inkscape:connector-curvature="0"
       sodipodi:nodetypes="sccccssccccccssccccssccccc" />
    <g
       transform="matrix(0.832,0,0,0.832,8.7941695,-6.6441898)"
       id="g844"
       style="fill:#808080">
      <path
         inkscape:connector-curvature="0"
         d="m 12.2,15.9 h 3.6 v 1.5 h -5.6 v -0.6 c 0,-2.7 2.5,-2.9 3.6,-4.8 0.2,-0.3 0.3,-1.6 -1.1,-1.6 -0.7,0 -1.4,0.3 -2.1,0.9 V 9.6 c 0.7,-0.5 1.6,-0.7 2.5,-0.7 0.8,0 2.7,0.3 2.7,2.4 0,2.7 -3.6,3.6 -3.6,4.6 z"
         id="path842"
         style="fill:#808080" />
    </g>
  </g>
</svg>
