<?xml version="1.0" encoding="UTF-8" standalone="no"?>
<svg
   xmlns:dc="http://purl.org/dc/elements/1.1/"
   xmlns:cc="http://creativecommons.org/ns#"
   xmlns:rdf="http://www.w3.org/1999/02/22-rdf-syntax-ns#"
   xmlns:svg="http://www.w3.org/2000/svg"
   xmlns="http://www.w3.org/2000/svg"
   xmlns:sodipodi="http://sodipodi.sourceforge.net/DTD/sodipodi-0.dtd"
   xmlns:inkscape="http://www.inkscape.org/namespaces/inkscape"
   version="1.1"
   x="0px"
   y="0px"
   viewBox="0 0 26 26"
   style="enable-background:new 0 0 26 26;"
   xml:space="preserve"
   width="416px"
   height="416px"
   id="svg823"
   sodipodi:docname="litres-en-logo_2lines.svg"
   inkscape:version="1.0.1 (3bc2e813f5, 2020-09-07)"><metadata
     id="metadata829"><rdf:RDF><cc:Work
         rdf:about=""><dc:format>image/svg+xml</dc:format><dc:type
           rdf:resource="http://purl.org/dc/dcmitype/StillImage" /><dc:title></dc:title></cc:Work></rdf:RDF></metadata><defs
     id="defs827" /><sodipodi:namedview
     pagecolor="#ffffff"
     bordercolor="#666666"
     borderopacity="1"
     objecttolerance="10"
     gridtolerance="10"
     guidetolerance="10"
     inkscape:pageopacity="0"
     inkscape:pageshadow="2"
     inkscape:window-width="1920"
     inkscape:window-height="1011"
     id="namedview825"
     showgrid="false"
     inkscape:zoom="2.3948322"
     inkscape:cx="116.02274"
     inkscape:cy="307.2498"
     inkscape:window-x="0"
     inkscape:window-y="0"
     inkscape:window-maximized="1"
     inkscape:current-layer="svg823"
     inkscape:document-rotation="0" /><path
     d="M 7.5014895,11.858213 H 0.77443959 V 0.83827599 H 2.8548021 V 9.9375816 H 7.5014895 Z M 8.2561769,3.986828 h 1.9740661 v 7.871385 H 8.2561769 Z M 9.2514518,3.0036185 c -0.6158949,0 -1.1144559,-0.5231897 -1.1144559,-1.1690782 0,-0.6459342 0.498561,-1.1694167 1.1144559,-1.1694167 0.6149956,0 1.1142202,0.5234825 1.1142202,1.1694167 0,0.6458885 -0.4992246,1.1690782 -1.1142202,1.1690782 z M 11.369142,3.986828 h 1.047761 V 2.5070325 L 14.390969,1.924506 v 2.062322 h 1.852611 v 1.7317252 h -1.852611 v 3.0226147 c 0,0.5457132 0.05315,0.9366852 0.159445,1.1728062 0.106296,0.2361669 0.306243,0.3542269 0.599837,0.3542269 0.202455,0 0.377105,-0.02104 0.523904,-0.06299 0.146797,-0.04208 0.311262,-0.104933 0.493493,-0.188915 l 0.349251,1.574276 c -0.273321,0.136449 -0.59221,0.251856 -0.956669,0.34636 -0.364412,0.09441 -0.733939,0.141709 -1.108488,0.141709 -0.698554,0 -1.212321,-0.186308 -1.541301,-0.558868 C 12.581414,11.14716 12.416903,10.535825 12.416903,9.6857161 V 5.7185532 h -1.047761 z"
     id="Clip-273"
     fill="#000000"
     style="stroke-width:0.280863" /><path
     d="m 0.65193161,14.294587 c 0.23476218,0 0.48335599,-0.08133 0.75165529,-0.11806 0.268253,-0.03659 0.5365518,-0.06564 0.8048039,-0.08664 0.2683015,-0.02104 0.5289725,-0.03659 0.7820663,-0.04721 0.2530484,-0.01052 0.4859139,-0.01555 0.6985071,-0.01555 0.4960508,0 0.9845227,0.04725 1.465368,0.141709 0.4808452,0.09446 0.9111003,0.257117 1.2907646,0.488046 0.3796167,0.230861 0.6833016,0.548366 0.9111003,0.952439 0.2277515,0.404086 0.3416758,0.910425 0.3416758,1.519161 0,0.902571 -0.2025032,1.637245 -0.6074158,2.204018 -0.4049577,0.566718 -0.9465328,0.960288 -1.624813,1.180706 0.3304975,0.115453 0.6083633,0.365159 0.8335568,0.749197 0.8530256,1.454669 1.6331022,2.768727 2.340136,3.942124 H 6.240083 C 5.0534355,23.085623 4.3315758,21.80293 4.0745497,21.356253 3.8174773,20.909531 3.3700742,20.686172 2.7322946,20.686172 V 25.20434 H 0.65193161 c 0,-7.27315 0,-10.909753 0,-10.909753 z m 3.18889869,1.652999 c -0.2125954,0 -0.4226743,0.005 -0.6302011,0.01555 -0.2075228,0.01052 -0.3669682,0.03156 -0.4783346,0.06299 v 3.195767 h 0.8807366 c 0.5770525,0 1.0376713,-0.136449 1.381856,-0.409347 0.3441833,-0.272852 0.5162772,-0.724121 0.5162772,-1.353862 0,-0.472293 -0.1417288,-0.842255 -0.4251864,-1.109884 C 4.8025204,16.081208 4.3874713,15.947366 3.8408303,15.947366 Z m 11.2522337,8.579798 c -0.303686,0.251948 -0.716221,0.464438 -1.237616,0.637595 -0.521346,0.173134 -1.075612,0.25977 -1.662754,0.25977 -1.22497,0 -2.120865,-0.369963 -2.6877801,-1.109888 -0.5669152,-0.739925 -0.8503728,-1.755332 -0.8503728,-3.046222 0,-1.38537 0.3188909,-2.424385 0.9566696,-3.117045 0.6377793,-0.692706 1.5336743,-1.039061 2.6877783,-1.039061 0.384689,0 0.759234,0.05251 1.123694,0.157445 0.364461,0.104932 0.688418,0.278158 0.971875,0.519507 0.283457,0.241382 0.51121,0.566723 0.683303,0.976047 0.172138,0.409301 0.25816,0.918328 0.25816,1.527061 0,0.220431 -0.01263,0.456552 -0.03792,0.708418 -0.02534,0.251856 -0.06329,0.514251 -0.113924,0.787135 H 10.62861 c 0.03037,0.661199 0.194879,1.159701 0.49354,1.495554 0.298614,0.335839 0.782019,0.5038 1.450163,0.5038 0.41505,0 0.787087,-0.06564 1.116114,-0.196829 0.329028,-0.131188 0.579564,-0.264984 0.751656,-0.401433 z m -2.824438,-5.777597 c -0.516324,0 -0.898452,0.160052 -1.146479,0.480192 -0.248024,0.320104 -0.397381,0.747779 -0.44797,1.283041 h 2.824438 c 0.04048,-0.566773 -0.043,-1.002303 -0.250536,-1.306694 -0.207571,-0.304368 -0.534041,-0.456553 -0.979454,-0.456553 z m 7.607788,4.282043 c 0,-0.209911 -0.08607,-0.37783 -0.258165,-0.503749 -0.172094,-0.125928 -0.384685,-0.241427 -0.637778,-0.34636 -0.253092,-0.104932 -0.531483,-0.212518 -0.835167,-0.322757 -0.303735,-0.110192 -0.582121,-0.262331 -0.835217,-0.456552 -0.253044,-0.194176 -0.465638,-0.440772 -0.637778,-0.739875 -0.172093,-0.299154 -0.258116,-0.684806 -0.258116,-1.157098 0,-0.776638 0.222679,-1.369617 0.668143,-1.778941 0.445413,-0.4093 1.08826,-0.613983 1.928496,-0.613983 0.577052,0 1.098398,0.06299 1.564086,0.188915 0.465686,0.125974 0.830146,0.267638 1.093329,0.425082 l -0.440342,1.4798 c -0.232869,-0.09442 -0.526415,-0.194148 -0.880737,-0.29908 -0.354324,-0.104933 -0.713713,-0.157445 -1.078172,-0.157445 -0.58714,0 -0.880736,0.236167 -0.880736,0.708464 0,0.188915 0.08607,0.341054 0.25816,0.456553 0.172094,0.115453 0.38469,0.222993 0.637781,0.32271 0.253093,0.09972 0.531483,0.207304 0.835167,0.322757 0.303731,0.115453 0.582121,0.264985 0.835214,0.448639 0.253048,0.183701 0.465642,0.422429 0.637781,0.716313 0.172094,0.293894 0.258116,0.671706 0.258116,1.133496 0,0.797643 -0.245468,1.424681 -0.736448,1.88127 -0.49103,0.456552 -1.227482,0.684806 -2.209491,0.684806 -0.536505,0 -1.040183,-0.07085 -1.510891,-0.212564 -0.470756,-0.141664 -0.852931,-0.30693 -1.146527,-0.4959 l 0.546689,-1.527011 c 0.23282,0.136449 0.54162,0.270245 0.926305,0.401434 0.384689,0.131188 0.77951,0.196828 1.184423,0.196828 0.293594,0 0.528972,-0.05777 0.706133,-0.173225 0.177162,-0.115454 0.265741,-0.309583 0.265741,-0.582477 z"
     id="path-1"
     fill="#ff4c00"
     style="stroke-width:0.280863" /><path
     d="m 24.309973,19.487237 c -0.615893,0 -1.114502,-0.52319 -1.114502,-1.169074 0,-0.645938 0.498609,-1.169421 1.114502,-1.169421 0.614997,0 1.114172,0.523483 1.114172,1.169421 0,0.645884 -0.499175,1.169074 -1.114172,1.169074 z"
     id="Clip-276"
     fill="#ff4c00"
     style="stroke-width:0.280863" /><path
     d="m 25.424145,24.100325 c 0,0.645642 -0.499175,1.169124 -1.114172,1.169124 -0.615893,0 -1.114502,-0.523482 -1.114502,-1.169124 0,-0.646231 0.498609,-1.169714 1.114502,-1.169714 0.614997,0 1.114172,0.523826 1.114172,1.169714 z"
     id="Clip-279"
     fill="#ff4c00"
     style="stroke-width:0.280863" /></svg>
