<?xml version="1.0" encoding="UTF-8" standalone="no"?>
<svg
   xmlns:dc="http://purl.org/dc/elements/1.1/"
   xmlns:cc="http://creativecommons.org/ns#"
   xmlns:rdf="http://www.w3.org/1999/02/22-rdf-syntax-ns#"
   xmlns:svg="http://www.w3.org/2000/svg"
   xmlns="http://www.w3.org/2000/svg"
   xmlns:sodipodi="http://sodipodi.sourceforge.net/DTD/sodipodi-0.dtd"
   xmlns:inkscape="http://www.inkscape.org/namespaces/inkscape"
   xml:space="preserve"
   width="256px"
   height="256px"
   version="1.1"
   style="shape-rendering:geometricPrecision; text-rendering:geometricPrecision; image-rendering:optimizeQuality; fill-rule:evenodd; clip-rule:evenodd"
   viewBox="0 0 256 256"
   id="svg36"
   sodipodi:docname="onyx_dictionary.svg"
   inkscape:version="1.0.1 (3bc2e813f5, 2020-09-07)"><metadata
   id="metadata40"><rdf:RDF><cc:Work
       rdf:about=""><dc:format>image/svg+xml</dc:format><dc:type
         rdf:resource="http://purl.org/dc/dcmitype/StillImage" /></cc:Work></rdf:RDF></metadata><sodipodi:namedview
   pagecolor="#ffffff"
   bordercolor="#666666"
   borderopacity="1"
   objecttolerance="10"
   gridtolerance="10"
   guidetolerance="10"
   inkscape:pageopacity="0"
   inkscape:pageshadow="2"
   inkscape:window-width="1920"
   inkscape:window-height="995"
   id="namedview38"
   showgrid="false"
   inkscape:zoom="3.2851562"
   inkscape:cx="128"
   inkscape:cy="133.74561"
   inkscape:window-x="0"
   inkscape:window-y="0"
   inkscape:window-maximized="1"
   inkscape:current-layer="svg36" />
 <defs
   id="defs4">
  <style
   type="text/css"
   id="style2">
   <![CDATA[
    .str2 {stroke:black;stroke-width:4;stroke-miterlimit:22.9256}
    .str0 {stroke:black;stroke-width:8;stroke-miterlimit:22.9256}
    .str3 {stroke:black;stroke-width:5;stroke-miterlimit:22.9256}
    .str1 {stroke:black;stroke-width:6;stroke-miterlimit:22.9256}
    .fil0 {fill:none}
    .fil1 {fill:#2B2A29;fill-rule:nonzero}
   ]]>
  </style>
 
  
  
  
  
  
  
  
  
  
  
  
  
  
  
  
 </defs>
 <rect
   class="fil0 str0"
   x="4"
   y="4"
   width="248"
   height="248"
   rx="33.18"
   ry="32.740002"
   id="rect7"
   style="fill:#ffffff" /><line
   class="fil0 str1"
   x1="100.83"
   y1="187.92"
   x2="37.82"
   y2="53.400002"
   id="line9" /><path
   class="fil0 str1"
   d="m 76.17,219.33 c -4.18,-16.59 6.57,-27.32 27.51,-32.12 l 36.87,-8.44 m 73.61,-16.22 8.84,-2.66 -6.25,-12.57 M 202.53,118.76 158.07,29.46 44.17,51.32 C 19.54,56.05 10.44,74.76 20.49,96.74 l 53.36,117.81 c 6.57,14.49 12.52,16.53 28.09,14.94 18.17,-1.86 107.64,-26.14 107.64,-26.14"
   id="path11" /><path
   class="fil0 str1"
   d="M 47.15,75.03 C 35.62,78.04 23.08,90.21 22.88,101.8"
   id="path13" /><path
   class="fil0 str1"
   d="m 87.72,161.19 c -11.53,3.01 -25.47,15.72 -25.67,27.3"
   id="path15" /><circle
   class="fil0 str1"
   cx="174.23"
   cy="150.66"
   r="42.650002"
   id="circle17" /><line
   class="fil0 str2"
   x1="95.639999"
   y1="216.64"
   x2="196.95"
   y2="190.3"
   id="line19" /><line
   class="fil0 str2"
   x1="89.379997"
   y1="204.94"
   x2="153.09"
   y2="188.34"
   id="line21" /><line
   class="fil0 str2"
   x1="138.60001"
   y1="174.10001"
   x2="209.3"
   y2="174.10001"
   id="line23" /><path
   class="fil0 str1"
   d="m 195.71,187.94 18.5,19.13 c 15.41,17.81 31.94,-0.82 16.08,-15.03 l -19.23,-19.87"
   id="path25" /><polygon
   class="fil0 str3"
   points="167.25,93.29 84,109.53 67.73,73.33 147.84,58.57 "
   id="polygon27" /><path
   class="fil1"
   d="m 153.05,167.05 17.2,-44.84 h 6.53 l 18.25,44.84 h -6.75 l -5.19,-13.59 h -18.88 l -4.86,13.59 z m 12.9,-18.42 h 15.28 l -4.67,-12.42 c -1.41,-3.78 -2.47,-6.9 -3.22,-9.37 -0.61,2.92 -1.44,5.8 -2.47,8.63 z"
   id="path29" /><path
   class="fil1"
   d="m 92.51,99.71 c -0.16,-7.62 -0.3,-15.24 -0.45,-22.86 1.34,-0.24 2.69,-0.49 4.02,-0.73 3.76,2.97 7.58,5.97 11.43,9.01 3.9,3.07 7.85,6.19 11.86,9.34 -1.43,0.28 -2.85,0.56 -4.27,0.83 -1.18,-0.96 -2.35,-1.93 -3.52,-2.9 -1.16,-0.96 -2.32,-1.91 -3.47,-2.87 -3.96,0.76 -7.95,1.52 -11.95,2.29 0.07,1.17 0.14,2.34 0.22,3.52 0.07,1.19 0.13,2.38 0.21,3.58 -1.36,0.26 -2.72,0.53 -4.08,0.79 z m 3.51,-10.36 c 3.22,-0.62 6.43,-1.22 9.63,-1.83 -1.04,-0.86 -2.08,-1.72 -3.1,-2.58 -1.02,-0.86 -2.04,-1.7 -3.06,-2.55 -1.84,-1.54 -3.29,-2.82 -4.37,-3.83 0.35,1.37 0.58,2.75 0.64,4.16 0.05,1.09 0.08,2.19 0.13,3.29 0.04,1.1 0.09,2.22 0.13,3.34 z m 20.73,-1.4 c -0.51,-0.85 -1.01,-1.69 -1.51,-2.54 3.5,-0.66 7,-1.32 10.48,-1.98 0.52,0.83 1.04,1.67 1.56,2.5 -3.5,0.67 -7,1.34 -10.53,2.02 z m 16.35,3.84 c -0.53,-0.85 -1.07,-1.7 -1.6,-2.55 0.97,-2.66 1.92,-5.29 2.86,-7.89 0.93,-2.56 1.84,-5.11 2.76,-7.61 0.38,-1.06 0.8,-1.99 1.23,-2.81 -2.46,0.45 -4.92,0.91 -7.4,1.36 -2.48,0.45 -4.96,0.91 -7.45,1.37 -0.48,-0.76 -0.96,-1.52 -1.44,-2.27 3.19,-0.58 6.36,-1.16 9.52,-1.73 3.14,-0.58 6.29,-1.15 9.42,-1.72 0.5,0.74 1,1.49 1.51,2.23 -0.99,2.67 -1.97,5.38 -2.97,8.12 -1.01,2.78 -2.03,5.59 -3.06,8.44 -0.24,0.6 -0.48,1.2 -0.71,1.8 2.92,-0.57 5.84,-1.13 8.75,-1.7 2.89,-0.56 5.78,-1.12 8.66,-1.67 0.54,0.79 1.09,1.59 1.63,2.39 -3.59,0.7 -7.18,1.4 -10.8,2.11 -3.61,0.7 -7.25,1.42 -10.91,2.13 z"
   id="path31" /><path
   class="fil0 str1"
   d="m 137.04,33.49 c 1.02,4.09 5.91,9.52 11.53,12.35 5.65,2.85 12.06,3.09 18.24,1.17"
   id="path33" />
</svg>
