<?xml version="1.0" encoding="UTF-8" standalone="no"?>
<svg
   xmlns:dc="http://purl.org/dc/elements/1.1/"
   xmlns:cc="http://creativecommons.org/ns#"
   xmlns:rdf="http://www.w3.org/1999/02/22-rdf-syntax-ns#"
   xmlns:svg="http://www.w3.org/2000/svg"
   xmlns="http://www.w3.org/2000/svg"
   xmlns:sodipodi="http://sodipodi.sourceforge.net/DTD/sodipodi-0.dtd"
   xmlns:inkscape="http://www.inkscape.org/namespaces/inkscape"
   width="104pt"
   height="104pt"
   viewBox="0 0 104 104"
   version="1.1"
   id="svg253"
   sodipodi:docname="train_headphones.svg"
   inkscape:version="0.92.4 (f8dce91, 2019-08-02)">
  <metadata
     id="metadata259">
    <rdf:RDF>
      <cc:Work
         rdf:about="">
        <dc:format>image/svg+xml</dc:format>
        <dc:type
           rdf:resource="http://purl.org/dc/dcmitype/StillImage" />
        <dc:title></dc:title>
      </cc:Work>
    </rdf:RDF>
  </metadata>
  <defs
     id="defs257" />
  <sodipodi:namedview
     pagecolor="#ffffff"
     bordercolor="#666666"
     borderopacity="1"
     objecttolerance="10"
     gridtolerance="10"
     guidetolerance="10"
     inkscape:pageopacity="0"
     inkscape:pageshadow="2"
     inkscape:window-width="1850"
     inkscape:window-height="1016"
     id="namedview255"
     showgrid="false"
     inkscape:zoom="1.5108173"
     inkscape:cx="69.333333"
     inkscape:cy="69.333333"
     inkscape:window-x="70"
     inkscape:window-y="27"
     inkscape:window-maximized="1"
     inkscape:current-layer="svg253" />
  <g
     id="surface1"
     transform="matrix(0.74472931,0,0,0.63845699,13.46987,37.002003)"
     style="fill:#808080">
    <path
       style="fill:#808080;fill-opacity:1;fill-rule:nonzero;stroke:none;stroke-width:0.92315191"
       d="m 42.725049,0.73828103 c -2.449819,0 -4.473877,2.30513967 -4.473877,5.09516637 0,0.6965455 0.202743,1.3315169 0.42914,1.93955 h -4.473875 c -5.79171,0 -10.225038,5.0489866 -10.225038,11.6411476 v 58.21728 c 0,4.744969 2.304518,8.716429 5.751161,10.552074 l -6.176923,5.818649 c -1.476651,1.335365 -1.703048,3.790588 -0.530513,5.456905 1.169154,1.685567 3.328374,1.943407 4.791508,0.608037 l 10.221659,-9.701598 c 0.348043,-0.304017 0.628506,-0.669607 0.854903,-1.09292 h 24.704314 c 0.226396,0.423313 0.506859,0.788903 0.851523,1.09292 l 10.225038,9.701598 c 1.463134,1.33537 3.618976,1.07753 4.791509,-0.608037 1.169156,-1.666317 0.946138,-4.12154 -0.533892,-5.456905 l -6.176923,-5.818649 c 3.450021,-1.835645 5.751162,-5.807105 5.751162,-10.552074 v -58.21728 c 0,-6.592161 -4.433328,-11.6411476 -10.221659,-11.6411476 h -4.473877 c 0.226397,-0.6080331 0.425762,-1.2430045 0.425762,-1.93955 0,-2.7900267 -2.024058,-5.09516637 -4.470498,-5.09516637 -2.449819,0 -4.473876,2.30513967 -4.473876,5.09516637 0,0.6965455 0.199365,1.3315169 0.425762,1.93955 h -8.944375 c 0.226398,-0.6080331 0.425762,-1.2430045 0.425762,-1.93955 0,-2.7900267 -2.024057,-5.09516637 -4.473877,-5.09516637 z M 44.428095,11.652097 h 13.631133 c 2.05109,0 3.409472,1.547022 3.409472,3.882948 0,2.335926 -1.358382,3.8791 -3.409472,3.8791 H 44.428095 c -2.047711,0 -3.406094,-1.543174 -3.406094,-3.8791 0,-2.335926 1.358383,-3.882948 3.406094,-3.882948 z M 34.206437,23.297092 h 34.077829 c 2.04771,0 3.406092,1.547022 3.406092,3.8791 v 15.524094 c 0,2.335927 -1.358382,3.882949 -3.406092,3.882949 H 34.206437 c -2.05109,0 -3.409473,-1.547022 -3.409473,-3.882949 V 27.176192 c 0,-2.332078 1.358383,-3.8791 3.409473,-3.8791 z m 1.703046,46.206696 c 3.061429,0 5.430151,2.697667 5.430151,6.184238 0,3.49042 -2.368722,6.188087 -5.430151,6.188087 -3.061428,0 -5.430152,-2.697667 -5.430152,-6.188087 0,-3.486571 2.368724,-6.184238 5.430152,-6.184238 z m 30.668357,0 c 3.064809,0 5.43353,2.697667 5.43353,6.184238 0,3.49042 -2.368721,6.188087 -5.43353,6.188087 -3.061429,0 -5.430152,-2.697667 -5.430152,-6.188087 0,-3.486571 2.368723,-6.184238 5.430152,-6.184238 z"
       id="path250"
       inkscape:connector-curvature="0" />
  </g>
  <path
     id="path313"
     d="m 51.840908,5.9188388 c -27.66519,0 -50.1669497,21.2772922 -50.1669497,47.4370492 v 19.769778 c -0.0165,1.418831 0.7668,2.748985 2.0742,3.474056 1.30741,0.709416 2.90719,0.709416 4.20908,0 1.3074098,-0.725071 2.0907497,-2.055225 2.0741897,-3.474056 V 53.355888 c 0,-21.882389 18.6678,-39.534352 41.80948,-39.534352 23.141667,0 41.809464,17.651963 41.809464,39.534352 v 19.769778 c -0.01652,1.418831 0.772309,2.748985 2.074199,3.474056 1.307409,0.709416 2.907189,0.709416 4.214599,0 1.30741,-0.725071 2.09075,-2.055225 2.0742,-3.474056 V 53.355888 c 0,-26.159757 -22.501756,-47.4370492 -50.172462,-47.4370492 z M 12.075938,57.309839 c -2.3003798,0 -4.1815098,1.778757 -4.1815098,3.953952 v 27.672483 c 0,2.180413 1.88113,3.953951 4.1815098,3.953951 h 4.18149 c 4.62282,0 8.363,-3.53665 8.363,-7.907913 v -19.76456 c 0,-4.371263 -3.74018,-7.907913 -8.363,-7.907913 z m 75.353958,0 c -4.622818,0 -8.362999,3.53665 -8.362999,7.907913 v 19.76456 c 0,4.371263 3.740181,7.907913 8.362999,7.907913 h 4.181495 c 2.300378,0 4.181505,-1.773538 4.181505,-3.953951 V 61.263791 c 0,-2.175195 -1.881127,-3.953952 -4.181505,-3.953952 z"
     style="fill:#808080;fill-opacity:1;fill-rule:nonzero;stroke:none;stroke-width:1.37325966"
     inkscape:connector-curvature="0"
     sodipodi:nodetypes="ssccccsssccccssssssssssssssssssss" />
</svg>
