<?xml version="1.0" encoding="UTF-8" standalone="no"?>
<svg
   xmlns:dc="http://purl.org/dc/elements/1.1/"
   xmlns:cc="http://creativecommons.org/ns#"
   xmlns:rdf="http://www.w3.org/1999/02/22-rdf-syntax-ns#"
   xmlns:svg="http://www.w3.org/2000/svg"
   xmlns="http://www.w3.org/2000/svg"
   xmlns:sodipodi="http://sodipodi.sourceforge.net/DTD/sodipodi-0.dtd"
   xmlns:inkscape="http://www.inkscape.org/namespaces/inkscape"
   width="104pt"
   height="104pt"
   viewBox="0 0 104 104"
   version="1.1"
   id="svg5"
   sodipodi:docname="icons8_no_dialogs.svg"
   inkscape:version="1.0.1 (3bc2e813f5, 2020-09-07)">
  <metadata
     id="metadata11">
    <rdf:RDF>
      <cc:Work
         rdf:about="">
        <dc:format>image/svg+xml</dc:format>
        <dc:type
           rdf:resource="http://purl.org/dc/dcmitype/StillImage" />
      </cc:Work>
    </rdf:RDF>
  </metadata>
  <defs
     id="defs9" />
  <sodipodi:namedview
     pagecolor="#ffffff"
     bordercolor="#666666"
     borderopacity="1"
     objecttolerance="10"
     gridtolerance="10"
     guidetolerance="10"
     inkscape:pageopacity="0"
     inkscape:pageshadow="2"
     inkscape:window-width="1920"
     inkscape:window-height="995"
     id="namedview7"
     showgrid="false"
     inkscape:zoom="6.0649038"
     inkscape:cx="69.333333"
     inkscape:cy="69.333333"
     inkscape:window-x="0"
     inkscape:window-y="0"
     inkscape:window-maximized="1"
     inkscape:current-layer="svg5" />
  <g
     id="surface1"
     style="fill:#808080">
    <path
       style="stroke:none;fill-rule:nonzero;fill:#808080;fill-opacity:1"
       d="M 3.199219 0 C 1.722656 0.261719 0.539063 1.339844 0.125 2.769531 C -0.292969 4.214844 0.136719 5.753906 1.230469 6.769531 L 95.652344 101.316406 C 97.222656 102.839844 99.730469 102.824219 101.253906 101.253906 C 102.777344 99.683594 102.761719 97.175781 101.191406 95.652344 L 98.117188 92.699219 C 98.132813 92.667969 98.117188 92.605469 98.117188 92.574219 C 98.269531 91.238281 90.160156 87.296875 89.375 76.078125 C 97.347656 70.664063 102.425781 62.414063 102.425781 53.183594 C 102.425781 39.902344 91.898438 28.714844 77.433594 24.992188 C 72.988281 10.648438 57.644531 0 39.394531 0 C 29.578125 0 20.683594 3.183594 13.789063 8.25 L 6.769531 1.230469 C 5.957031 0.355469 4.769531 -0.09375 3.570313 0 C 3.445313 0 3.324219 0 3.199219 0 Z M 39.394531 7.878906 C 56.765625 7.878906 70.910156 19.359375 70.910156 33.484375 C 70.910156 41.5625 66.214844 48.734375 58.96875 53.429688 L 19.328125 13.789063 C 24.773438 10.125 31.777344 7.878906 39.394531 7.878906 Z M 3.445313 19.941406 C 1.261719 24.097656 0 28.636719 0 33.484375 C 0 42.980469 4.632813 51.890625 12.804688 58.230469 C 11.816406 63.675781 8.710938 66.894531 6.769531 68.9375 C 5.308594 70.476563 3.355469 72.664063 4.679688 75.464844 L 5.171875 76.695313 L 6.402344 77.3125 C 8.140625 78.171875 10.003906 78.542969 11.941406 78.542969 C 18.527344 78.542969 25.992188 74.265625 32.253906 70.664063 C 33.578125 69.894531 35.207031 68.925781 36.5625 68.199219 C 42.625 76.695313 53.566406 82.511719 66.230469 82.726563 L 42.472656 58.96875 C 41.425781 59.058594 40.347656 59.089844 39.269531 59.089844 L 38.65625 59.089844 C 36.117188 59.351563 33.101563 61.015625 28.3125 63.769531 C 25.007813 65.660156 20.390625 68.417969 16.375 69.800781 C 18.496094 66.722656 20.527344 62.351563 20.929688 56.628906 L 21.050781 54.414063 L 19.203125 53.183594 C 12.003906 48.289063 7.878906 41.070313 7.878906 33.484375 C 7.878906 30.808594 8.417969 28.285156 9.355469 25.851563 Z "
       id="path2" />
  </g>
</svg>
