<?xml version="1.0" encoding="UTF-8" standalone="no"?>
<svg
   xmlns:dc="http://purl.org/dc/elements/1.1/"
   xmlns:cc="http://creativecommons.org/ns#"
   xmlns:rdf="http://www.w3.org/1999/02/22-rdf-syntax-ns#"
   xmlns:svg="http://www.w3.org/2000/svg"
   xmlns="http://www.w3.org/2000/svg"
   xmlns:sodipodi="http://sodipodi.sourceforge.net/DTD/sodipodi-0.dtd"
   xmlns:inkscape="http://www.inkscape.org/namespaces/inkscape"
   width="104pt"
   height="104pt"
   viewBox="0 0 104 104"
   version="1.1"
   id="svg5"
   sodipodi:docname="icons8_log.svg"
   inkscape:version="1.0.1 (3bc2e813f5, 2020-09-07)">
  <metadata
     id="metadata11">
    <rdf:RDF>
      <cc:Work
         rdf:about="">
        <dc:format>image/svg+xml</dc:format>
        <dc:type
           rdf:resource="http://purl.org/dc/dcmitype/StillImage" />
        <dc:title></dc:title>
      </cc:Work>
    </rdf:RDF>
  </metadata>
  <defs
     id="defs9" />
  <sodipodi:namedview
     pagecolor="#ffffff"
     bordercolor="#666666"
     borderopacity="1"
     objecttolerance="10"
     gridtolerance="10"
     guidetolerance="10"
     inkscape:pageopacity="0"
     inkscape:pageshadow="2"
     inkscape:window-width="1920"
     inkscape:window-height="995"
     id="namedview7"
     showgrid="false"
     inkscape:zoom="4.2885346"
     inkscape:cx="69.333333"
     inkscape:cy="69.333333"
     inkscape:window-x="0"
     inkscape:window-y="0"
     inkscape:window-maximized="1"
     inkscape:current-layer="svg5" />
  <g
     id="surface1"
     style="fill:#808080">
    <path
       style="stroke:none;fill-rule:nonzero;fill:#808080;fill-opacity:1"
       d="M 22.898438 0 C 21.019531 0.355469 19.667969 2.015625 19.695313 3.9375 L 19.695313 66.96875 L 27.574219 66.96875 L 27.574219 7.878906 L 86.667969 7.878906 L 86.667969 82.726563 C 86.667969 89.082031 81.621094 94.285156 75.339844 94.546875 C 75.171875 94.546875 75.019531 94.546875 74.847656 94.546875 C 74.234375 94.546875 73.417969 94.285156 72.507813 92.945313 C 71.601563 91.605469 70.910156 89.3125 70.910156 86.667969 C 70.910156 84.019531 71.601563 81.726563 72.507813 80.386719 C 73.417969 79.050781 74.234375 78.789063 74.847656 78.789063 C 77.003906 78.757813 78.726563 77.003906 78.726563 74.847656 C 78.726563 72.695313 77.003906 70.941406 74.847656 70.910156 L 19.695313 70.910156 C 15.972656 70.910156 12.789063 73.1875 10.832031 76.078125 C 8.878906 78.972656 7.878906 82.621094 7.878906 86.667969 C 7.878906 90.714844 8.878906 94.359375 10.832031 97.253906 C 12.789063 100.148438 15.972656 102.425781 19.695313 102.425781 L 74.847656 102.425781 C 74.972656 102.425781 75.09375 102.425781 75.21875 102.425781 C 75.265625 102.425781 75.292969 102.425781 75.339844 102.425781 C 85.929688 102.148438 94.546875 93.375 94.546875 82.726563 L 94.546875 3.9375 C 94.546875 1.769531 92.777344 0 90.605469 0 L 23.636719 0 C 23.511719 0 23.390625 0 23.265625 0 C 23.144531 0 23.019531 0 22.898438 0 Z M 19.695313 78.789063 L 65.246094 78.789063 C 64.152344 81.21875 63.03125 83.652344 63.03125 86.667969 C 63.03125 89.683594 64.152344 92.113281 65.246094 94.546875 L 19.695313 94.546875 C 19.082031 94.546875 18.265625 94.285156 17.359375 92.945313 C 16.449219 91.605469 15.757813 89.3125 15.757813 86.667969 C 15.757813 84.019531 16.449219 81.726563 17.359375 80.386719 C 18.265625 79.050781 19.082031 78.789063 19.695313 78.789063 Z "
       id="path2" />
  </g>
  <g
     id="surface1-3"
     transform="matrix(0.53814485,0,0,0.53814485,28.838645,11.290655)"
     style="fill:#808080">
    <path
       style="fill:#808080;fill-opacity:1;fill-rule:evenodd;stroke:none"
       d="m 95.023438,38.425781 v 24.742188 c 0,3.492187 -2.785157,6.324219 -6.234375,6.324219 -3.429688,0 -6.214844,-2.832032 -6.214844,-6.324219 V 38.425781 c 0,-3.496093 2.769531,-6.324218 6.214844,-6.324218 3.449218,0 6.234375,2.828125 6.234375,6.324218 z m -81.40625,-6.324218 c -3.429688,0 -6.214844,2.828125 -6.214844,6.324218 v 24.726563 c 0,3.496094 2.785156,6.339844 6.214844,6.339844 3.464843,0 6.234375,-2.84375 6.234375,-6.339844 V 38.425781 c 0,-3.496093 -2.769532,-6.324218 -6.234375,-6.324218 z m 9.988281,45.363281 c 0,2.691406 2.183594,4.863281 4.863281,4.863281 h 5.554688 v 13.773438 c 0,3.492187 2.800781,6.324217 6.230468,6.324217 3.449219,0 6.234375,-2.83203 6.234375,-6.324217 V 82.328125 h 9.695313 v 13.773438 c 0,3.492187 2.800781,6.324217 6.230469,6.324217 3.449218,0 6.234375,-2.83203 6.234375,-6.324217 V 82.328125 h 5.554687 c 2.675781,0 4.863281,-2.15625 4.863281,-4.847656 V 32.285156 H 23.605469 Z M 78.925781,28.269531 H 23.484375 C 24.207031,19.851563 29.914063,12.664063 38.070313,8.878906 l -5.125,-7.449218 C 32.636719,1 32.714844,0.414063 33.101563,0.136719 33.5,-0.125 34.070313,0 34.394531,0.445313 l 5.308594,7.726562 c 3.507813,-1.386719 7.398438,-2.15625 11.507813,-2.15625 4.109375,0 7.988281,0.769531 11.511718,2.15625 L 68.03125,0.445313 C 68.355469,0 68.925781,-0.125 69.324219,0.136719 69.707031,0.414063 69.785156,1 69.476563,1.429688 l -5.121094,7.449218 c 8.136719,3.785157 13.863281,10.972657 14.570312,19.390625 z M 42.59375,17.511719 c 0,-1.691406 -1.382812,-3.046875 -3.078125,-3.046875 -1.691406,0 -3.078125,1.371094 -3.078125,3.046875 0,1.707031 1.386719,3.078125 3.078125,3.078125 1.695313,0 3.078125,-1.371094 3.078125,-3.078125 z m 23.761719,0 c 0,-1.691406 -1.371094,-3.046875 -3.0625,-3.046875 -1.695313,0 -3.0625,1.371094 -3.0625,3.046875 0,1.707031 1.367187,3.078125 3.0625,3.078125 1.691406,0 3.0625,-1.371094 3.0625,-3.078125 z"
       id="path2-6" />
  </g>
</svg>
