<?xml version="1.0" encoding="UTF-8" standalone="no"?>
<svg
   xmlns:dc="http://purl.org/dc/elements/1.1/"
   xmlns:cc="http://creativecommons.org/ns#"
   xmlns:rdf="http://www.w3.org/1999/02/22-rdf-syntax-ns#"
   xmlns:svg="http://www.w3.org/2000/svg"
   xmlns="http://www.w3.org/2000/svg"
   xmlns:sodipodi="http://sodipodi.sourceforge.net/DTD/sodipodi-0.dtd"
   xmlns:inkscape="http://www.inkscape.org/namespaces/inkscape"
   width="104pt"
   height="104pt"
   viewBox="0 0 104 104"
   version="1.1"
   id="svg5"
   sodipodi:docname="icons8_transp_buttons.svg"
   inkscape:version="1.0.1 (3bc2e813f5, 2020-09-07)">
  <metadata
     id="metadata11">
    <rdf:RDF>
      <cc:Work
         rdf:about="">
        <dc:format>image/svg+xml</dc:format>
        <dc:type
           rdf:resource="http://purl.org/dc/dcmitype/StillImage" />
        <dc:title />
      </cc:Work>
    </rdf:RDF>
  </metadata>
  <defs
     id="defs9" />
  <sodipodi:namedview
     pagecolor="#ffffff"
     bordercolor="#666666"
     borderopacity="1"
     objecttolerance="10"
     gridtolerance="10"
     guidetolerance="10"
     inkscape:pageopacity="0"
     inkscape:pageshadow="2"
     inkscape:window-width="1920"
     inkscape:window-height="995"
     id="namedview7"
     showgrid="false"
     inkscape:zoom="4.2885346"
     inkscape:cx="69.333333"
     inkscape:cy="69.333333"
     inkscape:window-x="0"
     inkscape:window-y="0"
     inkscape:window-maximized="1"
     inkscape:current-layer="svg5"
     inkscape:document-rotation="0" />
  <g
     id="surface1"
     transform="matrix(0.56687156,0,0,0.56687156,46.718142,-1.8717978)"
     style="fill:#808080">
    <path
       style="fill:#808080;fill-opacity:1;fill-rule:nonzero;stroke:none"
       d="M 74.847656,11.816406 H 27.574219 c -8.660156,0 -15.757813,7.097657 -15.757813,15.757813 v 47.273437 c 0,8.664063 7.097657,15.757813 15.757813,15.757813 h 47.273437 c 8.664063,0 15.757813,-7.09375 15.757813,-15.757813 V 27.574219 c 0,-8.660156 -7.09375,-15.757813 -15.757813,-15.757813 z M 55.550781,69.339844 h -7.09375 V 43.734375 c -2.371093,1.96875 -6.308593,2.753906 -7.09375,2.753906 v -6.308593 c 1.96875,-0.386719 6.695313,-2.355469 9.847657,-5.125 h 4.339843 z"
       id="path2" />
  </g>
  <g
     id="surface1-3"
     transform="matrix(0.5682566,0,0,0.5682566,47.375581,49.471224)"
     style="fill:#808080">
    <path
       style="fill:#808080;fill-opacity:1;fill-rule:nonzero;stroke:none"
       d="M 74.847656,11.816406 H 27.574219 c -8.660156,0 -15.757813,7.097657 -15.757813,15.757813 v 47.273437 c 0,8.664063 7.097657,15.757813 15.757813,15.757813 h 47.273437 c 8.664063,0 15.757813,-7.09375 15.757813,-15.757813 V 27.574219 c 0,-8.660156 -7.09375,-15.757813 -15.757813,-15.757813 z m -13.003906,50.8125 v 5.910157 H 39.792969 v -2.355469 c 0,-10.632813 9.847656,-11.433594 14.171875,-18.910156 0.785156,-1.1875 1.1875,-6.308594 -4.324219,-6.308594 -2.769531,0 -5.523437,1.183594 -8.277344,3.554687 v -6.695312 c 2.753907,-1.96875 6.308594,-2.769531 9.847657,-2.769531 3.15625,0 10.632812,1.183593 10.632812,9.464843 0,10.632813 -14.171875,14.171875 -14.171875,18.109375 z"
       id="path2-6" />
  </g>
  <g
     id="surface1-7"
     transform="matrix(0.57659219,0,0,0.57659219,-3.2710907,48.858509)"
     style="fill:#808080">
    <path
       style="fill:#808080;fill-opacity:1;fill-rule:nonzero;stroke:none"
       d="m 27.574219,11.816406 c -8.707031,0 -15.757813,7.050782 -15.757813,15.757813 v 47.273437 c 0,8.710938 7.050782,15.757813 15.757813,15.757813 h 47.273437 c 8.710938,0 15.757813,-7.046875 15.757813,-15.757813 V 27.574219 c 0,-8.707031 -7.046875,-15.757813 -15.757813,-15.757813 z m 0,7.878907 h 47.273437 c 4.695313,0 7.878907,3.1875 7.878907,7.878906 v 47.273437 c 0,4.695313 -3.183594,7.878907 -7.878907,7.878907 H 27.574219 c -4.691406,0 -7.878906,-3.183594 -7.878906,-7.878907 V 27.574219 c 0,-4.691406 3.1875,-7.878906 7.878906,-7.878906 z m 24.007812,15.390625 c -3.539062,0 -7.09375,0.738281 -9.847656,2.707031 V 44.5625 c 2.753906,-2.367187 5.492188,-3.566406 8.246094,-3.566406 5.507812,0 5.21875,5.089844 4.433594,6.277344 -4.339844,7.476562 -14.28125,8.324218 -14.28125,18.957031 v 2.339844 h 22.160156 v -5.910157 h -14.28125 c 0,-3.9375 14.28125,-7.460937 14.28125,-18.097656 0,-8.277344 -7.558594,-9.476562 -10.710938,-9.476562 z"
       id="path2-5" />
  </g>
  <g
     id="surface1-35"
     transform="matrix(0.57791886,0,0,0.57791886,-3.8276568,-2.1174964)"
     style="fill:#808080">
    <path
       style="fill:#808080;fill-opacity:1;fill-rule:nonzero;stroke:none"
       d="m 27.574219,11.816406 c -8.707031,0 -15.757813,7.050782 -15.757813,15.757813 v 47.273437 c 0,8.710938 7.050782,15.757813 15.757813,15.757813 h 47.273437 c 8.710938,0 15.757813,-7.046875 15.757813,-15.757813 V 27.574219 c 0,-8.707031 -7.046875,-15.757813 -15.757813,-15.757813 z m 0,7.878907 h 47.273437 c 4.695313,0 7.878907,3.1875 7.878907,7.878906 v 47.273437 c 0,4.695313 -3.183594,7.878907 -7.878907,7.878907 H 27.574219 c -4.691406,0 -7.878906,-3.183594 -7.878906,-7.878907 V 27.574219 c 0,-4.691406 3.1875,-7.878906 7.878906,-7.878906 z m 23.636719,15.390625 c -3.152344,2.753906 -7.878907,4.648437 -9.847657,5.046875 v 6.402343 c 0.785157,0 4.769532,-0.863281 7.140625,-2.832031 v 25.605469 h 7.015625 V 35.085938 Z"
       id="path2-62" />
  </g>
</svg>
