<?xml version="1.0" encoding="UTF-8" standalone="no"?>
<svg
   xmlns:dc="http://purl.org/dc/elements/1.1/"
   xmlns:cc="http://creativecommons.org/ns#"
   xmlns:rdf="http://www.w3.org/1999/02/22-rdf-syntax-ns#"
   xmlns:svg="http://www.w3.org/2000/svg"
   xmlns="http://www.w3.org/2000/svg"
   xmlns:sodipodi="http://sodipodi.sourceforge.net/DTD/sodipodi-0.dtd"
   xmlns:inkscape="http://www.inkscape.org/namespaces/inkscape"
   width="104pt"
   height="104pt"
   viewBox="0 0 104 104"
   version="1.1"
   id="svg5"
   sodipodi:docname="icons8_two_fingers.svg"
   inkscape:version="1.0.1 (3bc2e813f5, 2020-09-07)">
  <metadata
     id="metadata11">
    <rdf:RDF>
      <cc:Work
         rdf:about="">
        <dc:format>image/svg+xml</dc:format>
        <dc:type
           rdf:resource="http://purl.org/dc/dcmitype/StillImage" />
      </cc:Work>
    </rdf:RDF>
  </metadata>
  <defs
     id="defs9" />
  <sodipodi:namedview
     pagecolor="#ffffff"
     bordercolor="#666666"
     borderopacity="1"
     objecttolerance="10"
     gridtolerance="10"
     guidetolerance="10"
     inkscape:pageopacity="0"
     inkscape:pageshadow="2"
     inkscape:window-width="1920"
     inkscape:window-height="995"
     id="namedview7"
     showgrid="false"
     inkscape:zoom="4.2885346"
     inkscape:cx="69.333333"
     inkscape:cy="72.613742"
     inkscape:window-x="0"
     inkscape:window-y="0"
     inkscape:window-maximized="1"
     inkscape:current-layer="svg5"
     inkscape:document-rotation="0" />
  <g
     id="surface1"
     style="fill:#808080"
     transform="translate(-19.499999)">
    <path
       style="fill:#808080;fill-opacity:1;fill-rule:nonzero;stroke:none"
       d="M 35.902344,57.414063 C 35.578125,54.304688 34.300781,39.101563 32.746094,27.207031 30.285156,8.371094 31.914063,8.078125 36.808594,7.03125 c 5.246094,-1.121094 4.492187,2.664063 7.308594,19.296875 2.015625,11.804688 3.523437,18.914063 5.125,18.484375 0.90625,-0.25 -1.476563,-16.851562 -1.476563,-29.179687 0,-15.507813 2.660156,-15.234375 6.277344,-15.277344 4.324219,-0.078125 4.417969,4.015625 4.554687,16.019531 0.109375,10.554688 0.554688,27.757813 2.492188,27.679688 1.507812,-0.04297 1.078125,-4.074219 5.417969,-4.074219 4.324218,0 4.894531,5.507812 6.679687,5.507812 1.785156,0 2.246094,-1.785156 4.921875,-1.785156 2.679688,0 8.558594,5.585938 8.558594,25.28125 0,24.777344 -8.035156,25.039063 -8.035156,33.425785 H 43.886719 C 43.671875,100.39453 39.117188,96.300781 34.117188,90.3125 26.28125,80.894531 24.265625,77.355469 24.207031,73.433594 24.050781,64.675781 36.484375,63.046875 35.902344,57.414063 Z"
       id="path2" />
  </g>
  <path
     fill="#000000"
     d="m 82.550165,1.339184 c -11.177125,0 -20.237612,9.060484 -20.237612,20.23761 0,11.177126 9.060487,20.239191 20.237612,20.239191 11.177128,0 20.239185,-9.062065 20.239185,-20.239191 0,-11.177126 -9.062057,-20.23761 -20.239185,-20.23761 z m 9.129988,27.178296 -2.19247,2.19088 c -0.40121,0.402794 -1.05831,0.402794 -1.45952,0 l -5.477998,-5.477992 -5.476412,5.476413 c -0.402794,0.402793 -1.058322,0.402793 -1.461116,-0.0031 l -2.192459,-2.186142 c -0.399635,-0.404374 -0.399635,-1.056741 0,-1.462694 l 5.477993,-5.476413 -5.476414,-5.476412 c -0.401214,-0.404372 -0.401214,-1.061479 0,-1.461113 l 2.192461,-2.19246 c 0.402793,-0.405951 1.0599,-0.405951 1.461114,0 l 5.474833,5.478002 5.477998,-5.477991 c 0.40278,-0.405953 1.05989,-0.405953 1.45952,0 l 2.19247,2.189301 c 0.40121,0.402793 0.40121,1.0599 10e-4,1.464272 l -5.477998,5.476412 5.477998,5.476413 c 0.39805,0.405953 0.39805,1.05832 -10e-4,1.462693 z"
     id="path5976"
     style="fill:#808080;stroke-width:1.57958" />
</svg>
