<?xml version="1.0" encoding="UTF-8" standalone="no"?>
<svg
   xmlns:dc="http://purl.org/dc/elements/1.1/"
   xmlns:cc="http://creativecommons.org/ns#"
   xmlns:rdf="http://www.w3.org/1999/02/22-rdf-syntax-ns#"
   xmlns:svg="http://www.w3.org/2000/svg"
   xmlns="http://www.w3.org/2000/svg"
   xmlns:sodipodi="http://sodipodi.sourceforge.net/DTD/sodipodi-0.dtd"
   xmlns:inkscape="http://www.inkscape.org/namespaces/inkscape"
   width="104pt"
   height="104pt"
   viewBox="0 0 104 104"
   version="1.1"
   id="svg5"
   sodipodi:docname="icons8_scroll.svg"
   inkscape:version="1.0.1 (3bc2e813f5, 2020-09-07)">
  <metadata
     id="metadata11">
    <rdf:RDF>
      <cc:Work
         rdf:about="">
        <dc:format>image/svg+xml</dc:format>
        <dc:type
           rdf:resource="http://purl.org/dc/dcmitype/StillImage" />
      </cc:Work>
    </rdf:RDF>
  </metadata>
  <defs
     id="defs9" />
  <sodipodi:namedview
     pagecolor="#ffffff"
     bordercolor="#666666"
     borderopacity="1"
     objecttolerance="10"
     gridtolerance="10"
     guidetolerance="10"
     inkscape:pageopacity="0"
     inkscape:pageshadow="2"
     inkscape:window-width="1920"
     inkscape:window-height="995"
     id="namedview7"
     showgrid="false"
     inkscape:zoom="6.0649038"
     inkscape:cx="69.333333"
     inkscape:cy="69.333333"
     inkscape:window-x="0"
     inkscape:window-y="0"
     inkscape:window-maximized="1"
     inkscape:current-layer="svg5" />
  <g
     id="surface1"
     style="fill:#808080">
    <path
       style="stroke:none;fill-rule:nonzero;fill:#808080;fill-opacity:1"
       d="M 11.816406 0 C 8.09375 0 4.910156 2.277344 2.953125 5.171875 C 1 8.0625 0 11.710938 0 15.757813 C 0 19.804688 1 23.453125 2.953125 26.34375 C 4.910156 29.238281 8.09375 31.515625 11.816406 31.515625 L 15.757813 31.515625 L 15.757813 82.726563 C 15.757813 93.636719 22.375 101.59375 30.40625 102.300781 C 30.683594 102.378906 30.976563 102.410156 31.269531 102.425781 C 31.347656 102.425781 31.4375 102.425781 31.515625 102.425781 L 90.605469 102.425781 C 90.730469 102.425781 90.851563 102.425781 90.976563 102.425781 C 91.3125 102.425781 91.636719 102.378906 91.960938 102.300781 C 95.085938 101.824219 97.761719 99.792969 99.46875 97.253906 C 101.425781 94.359375 102.425781 90.714844 102.425781 86.667969 C 102.425781 82.621094 101.425781 78.972656 99.46875 76.078125 C 97.515625 73.1875 94.328125 70.910156 90.605469 70.910156 L 82.726563 70.910156 L 82.726563 55.765625 C 82.742188 55.566406 82.742188 55.351563 82.726563 55.152344 L 82.726563 27.574219 C 82.757813 27.328125 82.757813 27.082031 82.726563 26.835938 L 82.726563 19.695313 C 82.726563 8.277344 75.511719 0 66.96875 0 Z M 11.816406 7.878906 L 57.367188 7.878906 C 56.273438 10.308594 55.152344 12.742188 55.152344 15.757813 C 55.152344 18.773438 56.273438 21.203125 57.367188 23.636719 L 20.558594 23.636719 C 20.160156 23.527344 19.742188 23.484375 19.328125 23.511719 C 19.203125 23.542969 19.082031 23.589844 18.957031 23.636719 L 11.816406 23.636719 C 11.203125 23.636719 10.386719 23.375 9.480469 22.035156 C 8.570313 20.695313 7.878906 18.40625 7.878906 15.757813 C 7.878906 13.109375 8.570313 10.816406 9.480469 9.480469 C 10.386719 8.140625 11.203125 7.878906 11.816406 7.878906 Z M 66.847656 7.878906 C 66.894531 7.878906 66.921875 7.878906 66.96875 7.878906 C 70.246094 7.878906 74.847656 11.417969 74.847656 19.695313 L 74.847656 26.835938 C 74.816406 27.082031 74.816406 27.328125 74.847656 27.574219 L 74.847656 55.152344 C 74.847656 55.273438 74.847656 55.398438 74.847656 55.519531 L 74.847656 73 C 74.324219 74.09375 74.324219 75.355469 74.847656 76.449219 L 74.847656 82.726563 C 74.847656 87.296875 75.988281 91.3125 77.925781 94.546875 L 31.515625 94.546875 C 28.238281 94.546875 23.636719 91.007813 23.636719 82.726563 L 23.636719 31.515625 L 66.96875 31.515625 C 69.125 31.484375 70.847656 29.730469 70.847656 27.574219 C 70.847656 25.421875 69.125 23.667969 66.96875 23.636719 C 66.355469 23.636719 65.539063 23.375 64.628906 22.035156 C 63.722656 20.695313 63.03125 18.40625 63.03125 15.757813 C 63.03125 13.109375 63.722656 10.816406 64.628906 9.480469 C 65.476563 8.21875 66.246094 7.910156 66.847656 7.878906 Z M 35.453125 39.394531 C 33.285156 39.394531 31.515625 41.164063 31.515625 43.332031 C 31.515625 45.503906 33.285156 47.273438 35.453125 47.273438 C 37.625 47.273438 39.394531 45.503906 39.394531 43.332031 C 39.394531 41.164063 37.625 39.394531 35.453125 39.394531 Z M 46.164063 39.394531 C 43.996094 39.703125 42.472656 41.71875 42.78125 43.886719 C 43.085938 46.058594 45.101563 47.582031 47.273438 47.273438 L 63.03125 47.273438 C 64.445313 47.289063 65.769531 46.550781 66.492188 45.320313 C 67.199219 44.085938 67.199219 42.578125 66.492188 41.347656 C 65.769531 40.117188 64.445313 39.378906 63.03125 39.394531 L 47.273438 39.394531 C 47.148438 39.394531 47.027344 39.394531 46.902344 39.394531 C 46.78125 39.394531 46.65625 39.394531 46.535156 39.394531 C 46.410156 39.394531 46.289063 39.394531 46.164063 39.394531 Z M 35.453125 55.152344 C 33.285156 55.152344 31.515625 56.921875 31.515625 59.089844 C 31.515625 61.261719 33.285156 63.03125 35.453125 63.03125 C 37.625 63.03125 39.394531 61.261719 39.394531 59.089844 C 39.394531 56.921875 37.625 55.152344 35.453125 55.152344 Z M 46.164063 55.152344 C 43.996094 55.460938 42.472656 57.476563 42.78125 59.644531 C 43.085938 61.816406 45.101563 63.339844 47.273438 63.03125 L 63.03125 63.03125 C 64.445313 63.046875 65.769531 62.308594 66.492188 61.074219 C 67.199219 59.84375 67.199219 58.335938 66.492188 57.105469 C 65.769531 55.875 64.445313 55.136719 63.03125 55.152344 L 47.273438 55.152344 C 47.148438 55.152344 47.027344 55.152344 46.902344 55.152344 C 46.78125 55.152344 46.65625 55.152344 46.535156 55.152344 C 46.410156 55.152344 46.289063 55.152344 46.164063 55.152344 Z M 35.453125 70.910156 C 33.285156 70.910156 31.515625 72.679688 31.515625 74.847656 C 31.515625 77.019531 33.285156 78.789063 35.453125 78.789063 C 37.625 78.789063 39.394531 77.019531 39.394531 74.847656 C 39.394531 72.679688 37.625 70.910156 35.453125 70.910156 Z M 46.164063 70.910156 C 43.996094 71.21875 42.472656 73.234375 42.78125 75.402344 C 43.085938 77.570313 45.101563 79.09375 47.273438 78.789063 L 63.03125 78.789063 C 64.445313 78.804688 65.769531 78.066406 66.492188 76.832031 C 67.199219 75.601563 67.199219 74.09375 66.492188 72.863281 C 65.769531 71.632813 64.445313 70.894531 63.03125 70.910156 L 47.273438 70.910156 C 47.148438 70.910156 47.027344 70.910156 46.902344 70.910156 C 46.78125 70.910156 46.65625 70.910156 46.535156 70.910156 C 46.410156 70.910156 46.289063 70.910156 46.164063 70.910156 Z M 82.726563 78.789063 L 90.605469 78.789063 C 91.222656 78.789063 92.039063 79.050781 92.945313 80.386719 C 93.851563 81.726563 94.546875 84.019531 94.546875 86.667969 C 94.546875 89.3125 93.851563 91.605469 92.945313 92.945313 C 92.144531 94.144531 91.4375 94.484375 90.851563 94.546875 C 90.773438 94.546875 90.667969 94.546875 90.605469 94.546875 C 87.328125 94.546875 82.726563 91.007813 82.726563 82.726563 Z "
       id="path2" />
  </g>
</svg>
