<?xml version="1.0" encoding="UTF-8" standalone="no"?>
<svg
   xmlns:dc="http://purl.org/dc/elements/1.1/"
   xmlns:cc="http://creativecommons.org/ns#"
   xmlns:rdf="http://www.w3.org/1999/02/22-rdf-syntax-ns#"
   xmlns:svg="http://www.w3.org/2000/svg"
   xmlns="http://www.w3.org/2000/svg"
   xmlns:sodipodi="http://sodipodi.sourceforge.net/DTD/sodipodi-0.dtd"
   xmlns:inkscape="http://www.inkscape.org/namespaces/inkscape"
   version="1.1"
   id="Layer_1"
   x="0px"
   y="0px"
   width="416px"
   height="416px"
   viewBox="0 0 26 26"
   enable-background="new 0 0 26 26"
   xml:space="preserve"
   sodipodi:docname="icons8_backlight_dialog.svg"
   inkscape:version="1.0.1 (3bc2e813f5, 2020-09-07)"><metadata
   id="metadata2458"><rdf:RDF><cc:Work
       rdf:about=""><dc:format>image/svg+xml</dc:format><dc:type
         rdf:resource="http://purl.org/dc/dcmitype/StillImage" /><dc:title /></cc:Work></rdf:RDF></metadata><defs
   id="defs2456" /><sodipodi:namedview
   pagecolor="#ffffff"
   bordercolor="#666666"
   borderopacity="1"
   objecttolerance="10"
   gridtolerance="10"
   guidetolerance="10"
   inkscape:pageopacity="0"
   inkscape:pageshadow="2"
   inkscape:window-width="909"
   inkscape:window-height="480"
   id="namedview2454"
   showgrid="false"
   inkscape:zoom="0.56730769"
   inkscape:cx="208"
   inkscape:cy="208"
   inkscape:window-x="70"
   inkscape:window-y="27"
   inkscape:window-maximized="0"
   inkscape:current-layer="Layer_1"
   inkscape:document-rotation="0" />

<path
   fill="#000000"
   d="M23,0H3C1.344,0,0,1.344,0,3v20c0,1.656,1.344,3,3,3h20c1.656,0,3-1.344,3-3V3C26,1.344,24.656,0,23,0z   M12,2h11v3H12V2z M8.5,1.85c0.911,0,1.65,0.738,1.65,1.65S9.411,5.15,8.5,5.15S6.85,4.412,6.85,3.5S7.589,1.85,8.5,1.85z M3.5,1.85  c0.911,0,1.65,0.738,1.65,1.65S4.411,5.15,3.5,5.15S1.85,4.412,1.85,3.5S2.589,1.85,3.5,1.85z M24,23c0,0.551-0.449,1-1,1H3  c-0.551,0-1-0.449-1-1V7h22V23z"
   id="path2451"
   style="fill:#808080" />
<g
   id="g4924"
   style="fill:#808080"
   transform="matrix(0.62014487,0,0,0.62014487,5.0317009,7.6713112)"><path
     fill="#000000"
     d="m 13,8 c 2.757,0 5,2.243 5,5 0,2.757 -2.243,5 -5,5 -2.757,0 -5,-2.243 -5,-5 0,-2.757 2.243,-5 5,-5 m 0,-2 c -3.866,0 -7,3.134 -7,7 0,3.866 3.134,7 7,7 3.866,0 7,-3.134 7,-7 0,-3.866 -3.134,-7 -7,-7 z"
     id="path4922"
     style="fill:#808080" /></g><line
   fill="none"
   stroke="#000000"
   stroke-width="1.24029"
   stroke-linecap="round"
   stroke-linejoin="round"
   stroke-miterlimit="10"
   x1="13.093586"
   y1="8.2914572"
   x2="13.093586"
   y2="10.151891"
   id="line4926"
   style="fill:#999999;stroke:#808080;stroke-opacity:1" /><line
   fill="none"
   stroke="#000000"
   stroke-width="1.24029"
   stroke-linecap="round"
   stroke-linejoin="round"
   stroke-miterlimit="10"
   x1="13.093586"
   y1="21.314499"
   x2="13.093586"
   y2="23.174934"
   id="line4928"
   style="fill:#999999;stroke:#808080;stroke-opacity:1" /><line
   fill="none"
   stroke="#000000"
   stroke-width="1.24029"
   stroke-linecap="round"
   stroke-linejoin="round"
   stroke-miterlimit="10"
   x1="20.535324"
   y1="15.733195"
   x2="18.674889"
   y2="15.733195"
   id="line4930"
   style="fill:#999999;stroke:#808080;stroke-opacity:1" /><line
   fill="none"
   stroke="#000000"
   stroke-width="1.24029"
   stroke-linecap="round"
   stroke-linejoin="round"
   stroke-miterlimit="10"
   x1="7.5122809"
   y1="15.733195"
   x2="5.6518455"
   y2="15.733195"
   id="line4932"
   style="fill:#999999;stroke:#808080;stroke-opacity:1" /><line
   fill="none"
   stroke="#000000"
   stroke-width="1.24029"
   stroke-linecap="round"
   stroke-linejoin="round"
   stroke-miterlimit="10"
   x1="6.6490397"
   y1="12.012326"
   x2="8.2601757"
   y2="12.942542"
   id="line4934"
   style="fill:#999999;stroke:#808080;stroke-opacity:1" /><line
   fill="none"
   stroke="#000000"
   stroke-width="1.24029"
   stroke-linecap="round"
   stroke-linejoin="round"
   stroke-miterlimit="10"
   x1="17.926992"
   y1="18.523846"
   x2="19.53875"
   y2="19.454063"
   id="line4936"
   style="fill:#999999;stroke:#808080;stroke-opacity:1" /><line
   fill="none"
   stroke="#000000"
   stroke-width="1.24029"
   stroke-linecap="round"
   stroke-linejoin="round"
   stroke-miterlimit="10"
   x1="16.814455"
   y1="9.2880297"
   x2="15.884237"
   y2="10.899165"
   id="line4938"
   style="fill:#999999;stroke:#808080;stroke-opacity:1" /><line
   fill="none"
   stroke="#000000"
   stroke-width="1.24029"
   stroke-linecap="round"
   stroke-linejoin="round"
   stroke-miterlimit="10"
   x1="10.302933"
   y1="20.566603"
   x2="9.372715"
   y2="22.17836"
   id="line4940"
   style="fill:#999999;stroke:#808080;stroke-opacity:1" /><line
   fill="none"
   stroke="#000000"
   stroke-width="1.24029"
   stroke-linecap="round"
   stroke-linejoin="round"
   stroke-miterlimit="10"
   x1="6.6490397"
   y1="19.453444"
   x2="8.2601757"
   y2="18.523846"
   id="line4942"
   style="fill:#999999;stroke:#808080;stroke-opacity:1" /><line
   fill="none"
   stroke="#000000"
   stroke-width="1.24029"
   stroke-linecap="round"
   stroke-linejoin="round"
   stroke-miterlimit="10"
   x1="17.926992"
   y1="12.942542"
   x2="19.53875"
   y2="12.012326"
   id="line4944"
   style="fill:#999999;stroke:#808080;stroke-opacity:1" /><line
   fill="none"
   stroke="#000000"
   stroke-width="1.24029"
   stroke-linecap="round"
   stroke-linejoin="round"
   stroke-miterlimit="10"
   x1="9.372715"
   y1="9.2880297"
   x2="10.302313"
   y2="10.899165"
   id="line4946"
   style="fill:#999999;stroke:#808080;stroke-opacity:1" /><line
   fill="none"
   stroke="#000000"
   stroke-width="1.24029"
   stroke-linecap="round"
   stroke-linejoin="round"
   stroke-miterlimit="10"
   x1="15.884237"
   y1="20.566603"
   x2="16.815075"
   y2="22.17836"
   id="line4948"
   style="fill:#999999;stroke:#808080;stroke-opacity:1" /></svg>
