<?xml version="1.0" encoding="UTF-8" standalone="no"?>
<svg
   xmlns:dc="http://purl.org/dc/elements/1.1/"
   xmlns:cc="http://creativecommons.org/ns#"
   xmlns:rdf="http://www.w3.org/1999/02/22-rdf-syntax-ns#"
   xmlns:svg="http://www.w3.org/2000/svg"
   xmlns="http://www.w3.org/2000/svg"
   xmlns:sodipodi="http://sodipodi.sourceforge.net/DTD/sodipodi-0.dtd"
   xmlns:inkscape="http://www.inkscape.org/namespaces/inkscape"
   width="104pt"
   height="104pt"
   viewBox="0 0 104 104"
   version="1.1"
   id="svg5"
   sodipodi:docname="icons8_no_safe_mode.svg"
   inkscape:version="1.0.1 (3bc2e813f5, 2020-09-07)">
  <metadata
     id="metadata11">
    <rdf:RDF>
      <cc:Work
         rdf:about="">
        <dc:format>image/svg+xml</dc:format>
        <dc:type
           rdf:resource="http://purl.org/dc/dcmitype/StillImage" />
      </cc:Work>
    </rdf:RDF>
  </metadata>
  <defs
     id="defs9" />
  <sodipodi:namedview
     pagecolor="#ffffff"
     bordercolor="#666666"
     borderopacity="1"
     objecttolerance="10"
     gridtolerance="10"
     guidetolerance="10"
     inkscape:pageopacity="0"
     inkscape:pageshadow="2"
     inkscape:window-width="1920"
     inkscape:window-height="995"
     id="namedview7"
     showgrid="false"
     inkscape:zoom="6.0649038"
     inkscape:cx="69.333333"
     inkscape:cy="69.333333"
     inkscape:window-x="0"
     inkscape:window-y="0"
     inkscape:window-maximized="1"
     inkscape:current-layer="svg5" />
  <g
     id="surface1"
     style="fill:#808080">
    <path
       style="stroke:none;fill-rule:nonzero;fill:#808080;fill-opacity:1"
       d="M 93.097656 19.804688 C 92.3125 18.914063 91.207031 18.40625 90.035156 18.359375 C 81.003906 18.128906 69.554688 8.464844 62 4.664063 C 57.320313 2.339844 54.242188 0.785156 51.921875 0.382813 C 51.6875 0.355469 51.441406 0.339844 51.210938 0.339844 C 50.980469 0.339844 50.734375 0.355469 50.503906 0.382813 C 48.179688 0.800781 45.101563 2.339844 40.441406 4.679688 C 32.871094 8.464844 21.4375 18.128906 12.386719 18.359375 C 11.21875 18.40625 10.109375 18.914063 9.324219 19.804688 C 8.523438 20.695313 8.125 21.882813 8.171875 23.097656 C 10.125 62.585938 24.28125 87.019531 49.132813 101.207031 C 49.78125 101.578125 50.488281 101.777344 51.210938 101.777344 C 51.933594 101.777344 52.644531 101.578125 53.289063 101.207031 C 78.140625 87.019531 92.296875 62.585938 94.253906 23.097656 C 94.300781 21.882813 93.898438 20.695313 93.097656 19.804688 Z M 67.199219 63.367188 L 63.351563 67.199219 C 62.644531 67.894531 61.507813 67.894531 60.800781 67.199219 L 51.210938 57.597656 L 41.625 67.199219 C 40.917969 67.894531 39.777344 67.894531 39.070313 67.183594 L 35.222656 63.367188 C 34.53125 62.644531 34.53125 61.507813 35.222656 60.800781 L 44.8125 51.210938 L 35.222656 41.625 C 34.53125 40.917969 34.53125 39.777344 35.222656 39.070313 L 39.054688 35.238281 C 39.761719 34.53125 40.917969 34.53125 41.625 35.238281 L 51.210938 44.824219 L 60.800781 35.238281 C 61.507813 34.53125 62.660156 34.53125 63.351563 35.238281 L 67.199219 39.070313 C 67.894531 39.777344 67.894531 40.933594 67.199219 41.625 L 57.597656 51.210938 L 67.199219 60.800781 C 67.894531 61.507813 67.894531 62.644531 67.199219 63.367188 Z "
       id="path2" />
  </g>
</svg>
