<?xml version="1.0" encoding="UTF-8"?>
<svg xmlns="http://www.w3.org/2000/svg" xmlns:xlink="http://www.w3.org/1999/xlink" width="104pt" height="104pt" viewBox="0 0 104 104" version="1.1">
<g id="surface1">
<path style=" stroke:none;fill-rule:nonzero;fill:#5B5B5B;fill-opacity:1;" d="M 3.9375 3.9375 C 1.753906 3.9375 0 5.710938 0 7.878906 L 0 15.019531 C -0.03125 15.265625 -0.03125 15.511719 0 15.757813 L 0 94.546875 C 0 96.714844 1.769531 98.484375 3.9375 98.484375 L 98.484375 98.484375 C 100.65625 98.484375 102.425781 96.714844 102.425781 94.546875 L 102.425781 15.757813 C 102.425781 15.632813 102.425781 15.511719 102.425781 15.386719 L 102.425781 7.878906 C 102.425781 5.710938 100.671875 3.9375 98.484375 3.9375 Z M 7.878906 19.695313 L 94.546875 19.695313 L 94.546875 90.605469 L 7.878906 90.605469 Z M 51.089844 27.328125 C 49.628906 27.328125 48.304688 27.515625 47.273438 27.945313 C 46.242188 28.375 45.378906 28.976563 44.6875 29.667969 C 43.996094 30.359375 43.503906 31.128906 43.085938 32.007813 C 42.671875 32.882813 42.316406 33.714844 42.101563 34.59375 C 41.886719 35.46875 41.792969 36.269531 41.734375 37.054688 C 41.671875 37.839844 41.609375 38.5 41.609375 39.023438 C 41.609375 39.824219 41.671875 40.703125 41.734375 41.609375 C 41.792969 42.519531 41.902344 43.394531 42.101563 44.316406 C 42.300781 45.242188 42.5625 46.179688 42.964844 47.027344 C 43.363281 47.871094 43.996094 48.582031 44.6875 49.242188 C 45.378906 49.902344 46.226563 50.457031 47.273438 50.84375 C 48.320313 51.226563 49.628906 51.457031 51.089844 51.457031 C 52.597656 51.457031 53.84375 51.257813 54.90625 50.84375 C 55.96875 50.425781 56.890625 49.933594 57.613281 49.242188 C 58.335938 48.550781 58.90625 47.78125 59.335938 46.902344 C 59.769531 46.027344 60.089844 45.117188 60.320313 44.195313 C 60.554688 43.273438 60.628906 42.378906 60.691406 41.488281 C 60.753906 40.59375 60.8125 39.734375 60.8125 39.023438 C 60.8125 37.746094 60.644531 36.46875 60.445313 35.085938 C 60.246094 33.699219 59.890625 32.40625 59.214844 31.269531 C 58.535156 30.128906 57.550781 29.191406 56.257813 28.4375 C 54.980469 27.683594 53.257813 27.328125 51.089844 27.328125 Z M 23.265625 27.574219 C 22.804688 27.574219 22.4375 27.636719 22.035156 27.699219 C 21.636719 27.761719 21.144531 27.851563 20.683594 28.066406 L 17.113281 29.667969 C 16.757813 29.835938 16.449219 30.054688 16.375 30.285156 C 16.28125 30.515625 16.25 30.714844 16.25 31.023438 L 16.25 33.117188 C 16.25 33.453125 16.328125 33.640625 16.496094 33.730469 C 16.648438 33.808594 16.894531 33.855469 17.234375 33.855469 L 21.175781 33.855469 L 21.175781 50.226563 C 21.175781 50.8125 21.453125 51.089844 22.035156 51.089844 L 26.714844 51.089844 C 27.066406 51.089844 27.359375 51.105469 27.453125 50.964844 C 27.546875 50.828125 27.574219 50.535156 27.574219 50.226563 L 27.574219 28.5625 C 27.574219 27.929688 27.222656 27.574219 26.589844 27.574219 Z M 78.417969 27.574219 C 77.957031 27.574219 77.585938 27.636719 77.1875 27.699219 C 76.789063 27.761719 76.296875 27.851563 75.832031 28.066406 L 72.261719 29.667969 C 71.910156 29.835938 71.601563 30.054688 71.523438 30.285156 C 71.433594 30.515625 71.402344 30.714844 71.402344 31.023438 L 71.402344 33.117188 C 71.402344 33.453125 71.476563 33.652344 71.648438 33.730469 C 71.800781 33.808594 72.046875 33.855469 72.386719 33.855469 L 76.324219 33.855469 L 76.324219 50.226563 C 76.324219 50.8125 76.601563 51.089844 77.1875 51.089844 L 81.867188 51.089844 C 82.21875 51.089844 82.511719 51.105469 82.605469 50.964844 C 82.695313 50.828125 82.726563 50.535156 82.726563 50.226563 L 82.726563 28.5625 C 82.726563 27.929688 82.375 27.574219 81.742188 27.574219 Z M 51.089844 32.007813 C 51.933594 32.007813 52.644531 32.160156 53.183594 32.5 C 53.71875 32.839844 54.121094 33.347656 54.414063 33.976563 C 54.707031 34.609375 54.921875 35.285156 55.027344 36.191406 C 55.136719 37.101563 55.152344 38.222656 55.152344 39.394531 C 55.152344 40.5 55.027344 41.5625 54.90625 42.472656 C 54.78125 43.378906 54.582031 44.042969 54.289063 44.6875 C 53.996094 45.320313 53.597656 45.8125 53.058594 46.164063 C 52.519531 46.503906 51.921875 46.78125 51.089844 46.78125 C 50.304688 46.78125 49.613281 46.566406 49.121094 46.164063 C 48.625 45.78125 48.289063 45.226563 48.011719 44.5625 C 47.734375 43.902344 47.488281 43.132813 47.394531 42.226563 C 47.304688 41.316406 47.273438 40.394531 47.273438 39.394531 C 47.273438 38.347656 47.304688 37.347656 47.394531 36.4375 C 47.488281 35.53125 47.734375 34.746094 48.011719 34.101563 C 48.304688 33.453125 48.640625 33.007813 49.121094 32.625 C 49.597656 32.238281 50.304688 32.007813 51.089844 32.007813 Z M 23.511719 58.84375 C 22.050781 58.84375 20.726563 59.03125 19.695313 59.460938 C 18.664063 59.890625 17.804688 60.492188 17.113281 61.183594 C 16.417969 61.875 15.925781 62.644531 15.511719 63.523438 C 15.097656 64.398438 14.742188 65.230469 14.527344 66.109375 C 14.3125 66.984375 14.21875 67.785156 14.15625 68.570313 C 14.09375 69.355469 14.035156 70.015625 14.035156 70.539063 C 14.035156 71.339844 14.09375 72.21875 14.15625 73.125 C 14.21875 74.03125 14.328125 74.910156 14.527344 75.832031 C 14.726563 76.757813 14.988281 77.695313 15.386719 78.542969 C 15.789063 79.386719 16.417969 80.097656 17.113281 80.757813 C 17.804688 81.417969 18.652344 81.972656 19.695313 82.359375 C 20.742188 82.742188 22.050781 82.972656 23.511719 82.972656 C 25.019531 82.972656 26.269531 82.773438 27.328125 82.359375 C 28.390625 81.941406 29.316406 81.449219 30.039063 80.757813 C 30.761719 80.066406 31.332031 79.296875 31.761719 78.417969 C 32.191406 77.542969 32.515625 76.632813 32.746094 75.710938 C 32.976563 74.785156 33.054688 73.894531 33.117188 73 C 33.175781 72.109375 33.238281 71.246094 33.238281 70.539063 C 33.238281 69.261719 33.070313 67.984375 32.871094 66.601563 C 32.667969 65.214844 32.316406 63.921875 31.636719 62.785156 C 30.960938 61.644531 29.976563 60.707031 28.683594 59.953125 C 27.40625 59.199219 25.683594 58.84375 23.511719 58.84375 Z M 78.664063 58.84375 C 77.203125 58.84375 75.878906 59.03125 74.847656 59.460938 C 73.816406 59.890625 72.957031 60.492188 72.261719 61.183594 C 71.570313 61.875 71.078125 62.644531 70.664063 63.523438 C 70.246094 64.398438 69.894531 65.230469 69.679688 66.109375 C 69.460938 66.984375 69.371094 67.785156 69.308594 68.570313 C 69.246094 69.355469 69.1875 70.015625 69.1875 70.539063 C 69.1875 71.339844 69.246094 72.21875 69.308594 73.125 C 69.371094 74.03125 69.476563 74.910156 69.679688 75.832031 C 69.878906 76.757813 70.140625 77.695313 70.539063 78.542969 C 70.941406 79.386719 71.570313 80.097656 72.261719 80.757813 C 72.957031 81.417969 73.800781 81.972656 74.847656 82.359375 C 75.894531 82.742188 77.203125 82.972656 78.664063 82.972656 C 80.171875 82.972656 81.417969 82.773438 82.480469 82.359375 C 83.542969 81.941406 84.464844 81.449219 85.1875 80.757813 C 85.914063 80.066406 86.480469 79.296875 86.914063 78.417969 C 87.34375 77.542969 87.667969 76.632813 87.898438 75.710938 C 88.128906 74.785156 88.207031 73.894531 88.265625 73 C 88.328125 72.109375 88.390625 71.246094 88.390625 70.539063 C 88.390625 69.261719 88.222656 67.984375 88.019531 66.601563 C 87.820313 65.214844 87.46875 63.921875 86.789063 62.785156 C 86.113281 61.644531 85.128906 60.707031 83.835938 59.953125 C 82.558594 59.199219 80.835938 58.84375 78.664063 58.84375 Z M 50.84375 59.089844 C 50.382813 59.089844 50.011719 59.152344 49.613281 59.214844 C 49.210938 59.277344 48.71875 59.367188 48.257813 59.582031 L 44.6875 61.183594 C 44.332031 61.351563 44.027344 61.570313 43.949219 61.800781 C 43.855469 62.03125 43.824219 62.230469 43.824219 62.539063 L 43.824219 64.628906 C 43.824219 64.96875 43.902344 65.167969 44.070313 65.246094 C 44.226563 65.324219 44.472656 65.371094 44.8125 65.371094 L 48.75 65.371094 L 48.75 81.742188 C 48.75 82.328125 49.027344 82.605469 49.613281 82.605469 L 54.289063 82.605469 C 54.644531 82.605469 54.9375 82.621094 55.027344 82.480469 C 55.121094 82.34375 55.152344 82.050781 55.152344 81.742188 L 55.152344 60.074219 C 55.152344 59.445313 54.796875 59.089844 54.167969 59.089844 Z M 23.511719 63.523438 C 24.359375 63.523438 25.066406 63.675781 25.605469 64.015625 C 26.144531 64.355469 26.542969 64.863281 26.835938 65.492188 C 27.128906 66.125 27.34375 66.800781 27.453125 67.707031 C 27.558594 68.617188 27.574219 69.738281 27.574219 70.910156 C 27.574219 72.015625 27.453125 73.078125 27.328125 73.988281 C 27.207031 74.894531 27.007813 75.554688 26.714844 76.203125 C 26.421875 76.832031 26.023438 77.324219 25.484375 77.679688 C 24.945313 78.019531 24.34375 78.296875 23.511719 78.296875 C 22.726563 78.296875 22.035156 78.078125 21.542969 77.679688 C 21.050781 77.296875 20.710938 76.742188 20.4375 76.078125 C 20.160156 75.417969 19.914063 74.648438 19.820313 73.742188 C 19.726563 72.832031 19.695313 71.910156 19.695313 70.910156 C 19.695313 69.863281 19.726563 68.863281 19.820313 67.953125 C 19.914063 67.046875 20.160156 66.261719 20.4375 65.617188 C 20.726563 64.96875 21.066406 64.523438 21.542969 64.136719 C 22.019531 63.753906 22.726563 63.523438 23.511719 63.523438 Z M 78.664063 63.523438 C 79.511719 63.523438 80.21875 63.675781 80.757813 64.015625 C 81.296875 64.355469 81.695313 64.863281 81.988281 65.492188 C 82.28125 66.125 82.496094 66.800781 82.605469 67.707031 C 82.710938 68.617188 82.726563 69.738281 82.726563 70.910156 C 82.726563 72.015625 82.605469 73.078125 82.480469 73.988281 C 82.359375 74.894531 82.15625 75.554688 81.867188 76.203125 C 81.574219 76.832031 81.171875 77.324219 80.632813 77.679688 C 80.097656 78.019531 79.496094 78.296875 78.664063 78.296875 C 77.878906 78.296875 77.1875 78.078125 76.695313 77.679688 C 76.203125 77.296875 75.863281 76.742188 75.585938 76.078125 C 75.308594 75.417969 75.0625 74.648438 74.972656 73.742188 C 74.878906 72.832031 74.847656 71.910156 74.847656 70.910156 C 74.847656 69.863281 74.878906 68.863281 74.972656 67.953125 C 75.0625 67.046875 75.308594 66.261719 75.585938 65.617188 C 75.878906 64.96875 76.21875 64.523438 76.695313 64.136719 C 77.171875 63.753906 77.878906 63.523438 78.664063 63.523438 Z "/>
</g>
</svg>
