<?xml version="1.0" encoding="UTF-8"?>
<svg xmlns="http://www.w3.org/2000/svg" xmlns:xlink="http://www.w3.org/1999/xlink" width="104pt" height="104pt" viewBox="0 0 104 104" version="1.1">
<g id="surface1">
<path style=" stroke:none;fill-rule:nonzero;fill:#5B5B5B;fill-opacity:1;" d="M 15.757813 0 C 7.078125 0 0 7.078125 0 15.757813 L 0 86.667969 C 0 95.34375 7.078125 102.425781 15.757813 102.425781 L 66.96875 102.425781 C 71.15625 102.425781 76.972656 96.375 83.710938 89.5 C 84.652344 88.542969 85.574219 87.636719 86.542969 86.667969 C 87.511719 85.695313 88.542969 84.652344 89.5 83.710938 C 96.375 76.972656 102.425781 71.15625 102.425781 66.96875 L 102.425781 15.757813 C 102.425781 7.078125 95.34375 0 86.667969 0 Z M 15.757813 7.878906 L 86.667969 7.878906 C 91.023438 7.878906 94.546875 11.402344 94.546875 15.757813 L 94.546875 66.96875 C 94.546875 70.894531 90.589844 70.910156 86.667969 70.910156 L 74.847656 70.910156 C 72.679688 70.910156 70.910156 72.679688 70.910156 74.847656 L 70.910156 86.914063 C 70.910156 90.40625 70.925781 93.820313 68.078125 94.546875 L 15.757813 94.546875 C 11.402344 94.546875 7.878906 91.023438 7.878906 86.667969 L 7.878906 15.757813 C 7.878906 11.402344 11.402344 7.878906 15.757813 7.878906 Z M 26.835938 31.515625 C 24.667969 31.714844 23.066406 33.652344 23.265625 35.824219 C 23.46875 37.992188 25.40625 39.59375 27.574219 39.394531 L 74.847656 39.394531 C 76.265625 39.410156 77.585938 38.671875 78.3125 37.441406 C 79.019531 36.207031 79.019531 34.699219 78.3125 33.46875 C 77.585938 32.238281 76.265625 31.5 74.847656 31.515625 L 27.574219 31.515625 C 27.453125 31.515625 27.328125 31.515625 27.207031 31.515625 C 27.082031 31.515625 26.960938 31.515625 26.835938 31.515625 Z M 26.835938 51.210938 C 24.667969 51.414063 23.066406 53.351563 23.265625 55.519531 C 23.46875 57.691406 25.40625 59.289063 27.574219 59.089844 L 66.96875 59.089844 C 68.386719 59.105469 69.707031 58.367188 70.433594 57.136719 C 71.140625 55.90625 71.140625 54.398438 70.433594 53.167969 C 69.707031 51.933594 68.386719 51.195313 66.96875 51.210938 L 27.574219 51.210938 C 27.453125 51.210938 27.328125 51.210938 27.207031 51.210938 C 27.082031 51.210938 26.960938 51.210938 26.835938 51.210938 Z "/>
</g>
</svg>
