<?xml version="1.0" encoding="UTF-8"?>
<svg xmlns="http://www.w3.org/2000/svg" xmlns:xlink="http://www.w3.org/1999/xlink" width="104pt" height="104pt" viewBox="0 0 104 104" version="1.1">
<g id="surface1">
<path style=" stroke:none;fill-rule:nonzero;fill:#5B5B5B;fill-opacity:1;" d="M 22.898438 0 C 21.019531 0.355469 19.667969 2.015625 19.695313 3.9375 L 19.695313 66.96875 L 27.574219 66.96875 L 27.574219 7.878906 L 86.667969 7.878906 L 86.667969 82.726563 C 86.667969 89.082031 81.621094 94.285156 75.339844 94.546875 C 75.171875 94.546875 75.019531 94.546875 74.847656 94.546875 C 74.234375 94.546875 73.417969 94.285156 72.507813 92.945313 C 71.601563 91.605469 70.910156 89.3125 70.910156 86.667969 C 70.910156 84.019531 71.601563 81.726563 72.507813 80.386719 C 73.417969 79.050781 74.234375 78.789063 74.847656 78.789063 C 77.003906 78.757813 78.726563 77.003906 78.726563 74.847656 C 78.726563 72.695313 77.003906 70.941406 74.847656 70.910156 L 19.695313 70.910156 C 15.972656 70.910156 12.789063 73.1875 10.832031 76.078125 C 8.878906 78.972656 7.878906 82.621094 7.878906 86.667969 C 7.878906 90.714844 8.878906 94.359375 10.832031 97.253906 C 12.789063 100.148438 15.972656 102.425781 19.695313 102.425781 L 74.847656 102.425781 C 74.972656 102.425781 75.09375 102.425781 75.21875 102.425781 C 75.265625 102.425781 75.292969 102.425781 75.339844 102.425781 C 85.929688 102.148438 94.546875 93.375 94.546875 82.726563 L 94.546875 3.9375 C 94.546875 1.769531 92.777344 0 90.605469 0 L 23.636719 0 C 23.511719 0 23.390625 0 23.265625 0 C 23.144531 0 23.019531 0 22.898438 0 Z M 19.695313 78.789063 L 65.246094 78.789063 C 64.152344 81.21875 63.03125 83.652344 63.03125 86.667969 C 63.03125 89.683594 64.152344 92.113281 65.246094 94.546875 L 19.695313 94.546875 C 19.082031 94.546875 18.265625 94.285156 17.359375 92.945313 C 16.449219 91.605469 15.757813 89.3125 15.757813 86.667969 C 15.757813 84.019531 16.449219 81.726563 17.359375 80.386719 C 18.265625 79.050781 19.082031 78.789063 19.695313 78.789063 Z "/>
</g>
</svg>
