<?xml version="1.0" encoding="UTF-8"?>
<svg xmlns="http://www.w3.org/2000/svg" xmlns:xlink="http://www.w3.org/1999/xlink" width="104pt" height="104pt" viewBox="0 0 104 104" version="1.1">
<g id="surface1">
<path style=" stroke:none;fill-rule:nonzero;fill:#5B5B5B;fill-opacity:1;" d="M 15.140625 0.492188 C 13.3125 0.492188 11.480469 0.921875 9.480469 1.722656 C 5.878906 3.125 2.339844 5.710938 0.617188 8.371094 C 0.371094 8.742188 0.429688 9.265625 0.738281 9.601563 L 3.9375 13.050781 C 4.078125 13.203125 4.324219 13.386719 4.554688 13.417969 C 4.632813 13.433594 4.722656 13.433594 4.800781 13.417969 C 5.109375 13.386719 5.386719 13.1875 5.539063 12.925781 C 6.585938 11.234375 8.679688 9.464844 10.832031 8.617188 C 12.171875 8.125 13.355469 7.972656 14.402344 8.125 C 16.066406 8.371094 17.234375 9.480469 17.972656 11.324219 C 19.050781 14.050781 18.464844 17.082031 16.988281 21.421875 C 15.296875 26.574219 15.464844 31.285156 17.480469 35.085938 L 18.21875 36.6875 C 18.375 36.976563 18.652344 37.132813 18.957031 37.179688 C 19.128906 37.195313 19.28125 37.238281 19.449219 37.179688 L 24.621094 35.085938 C 24.867188 34.992188 25.144531 34.839844 25.238281 34.59375 C 25.328125 34.347656 25.238281 33.976563 25.113281 33.730469 L 24.375 32.253906 C 22.945313 29.144531 22.960938 25.960938 24.375 21.789063 C 26.113281 16.558594 27.328125 12.171875 25.484375 7.507813 C 23.976563 3.691406 20.835938 1.199219 16.988281 0.617188 C 16.402344 0.523438 15.757813 0.492188 15.140625 0.492188 Z M 51.210938 0.738281 C 45.058594 0.738281 39.195313 1.800781 33.730469 3.816406 C 32.332031 4.246094 31.285156 5.402344 31.007813 6.832031 C 30.730469 8.277344 31.269531 9.742188 32.40625 10.648438 C 33.546875 11.570313 35.101563 11.789063 36.4375 11.203125 C 41.039063 9.496094 45.996094 8.617188 51.210938 8.617188 C 74.785156 8.617188 93.808594 27.636719 93.808594 51.210938 C 93.808594 74.785156 74.785156 93.808594 51.210938 93.808594 C 27.652344 93.808594 8.617188 74.785156 8.617188 51.210938 C 8.617188 45.765625 9.585938 40.59375 11.449219 35.824219 C 12.21875 34.484375 12.125 32.808594 11.21875 31.5625 C 10.308594 30.316406 8.757813 29.699219 7.246094 30.007813 C 5.722656 30.316406 4.523438 31.484375 4.1875 32.992188 C 1.984375 38.65625 0.738281 44.78125 0.738281 51.210938 C 0.738281 79.035156 23.390625 101.6875 51.210938 101.6875 C 79.035156 101.6875 101.6875 79.050781 101.6875 51.210938 C 101.6875 23.375 79.035156 0.738281 51.210938 0.738281 Z M 43.332031 23.636719 C 38.976563 23.636719 35.453125 27.160156 35.453125 31.515625 C 35.453125 35.871094 38.976563 39.394531 43.332031 39.394531 C 47.6875 39.394531 51.210938 35.871094 51.210938 31.515625 C 51.210938 27.160156 47.6875 23.636719 43.332031 23.636719 Z M 70.910156 23.636719 C 66.554688 23.636719 63.03125 27.160156 63.03125 31.515625 C 63.03125 35.871094 66.554688 39.394531 70.910156 39.394531 C 75.265625 39.394531 78.789063 35.871094 78.789063 31.515625 C 78.789063 27.160156 75.265625 23.636719 70.910156 23.636719 Z M 25.238281 40.007813 C 24.789063 40.070313 24.34375 40.210938 23.882813 40.378906 C 22.605469 40.886719 21.574219 41.777344 21.050781 42.964844 C 20.496094 44.226563 20.464844 45.625 21.050781 47.027344 C 21.789063 48.84375 23.40625 50.089844 25.238281 50.351563 C 26.097656 50.472656 26.851563 50.441406 27.699219 50.105469 C 30.5 48.996094 31.792969 46.101563 30.652344 43.332031 C 29.898438 41.441406 28.390625 40.269531 26.589844 40.007813 C 26.144531 39.949219 25.683594 39.949219 25.238281 40.007813 Z M 61.308594 54.90625 C 51.367188 54.90625 41.378906 59.84375 36.191406 68.816406 C 43.65625 63.460938 53.457031 61.167969 62.414063 60.691406 C 71.507813 60.214844 75.480469 61.554688 78.542969 63.277344 C 76.816406 59.074219 70.878906 54.90625 61.308594 54.90625 Z "/>
</g>
</svg>
