<?xml version="1.0" encoding="UTF-8"?>
<svg xmlns="http://www.w3.org/2000/svg" xmlns:xlink="http://www.w3.org/1999/xlink" width="104pt" height="104pt" viewBox="0 0 104 104" version="1.1">
<g id="surface1">
<path style=" stroke:none;fill-rule:nonzero;fill:#5B5B5B;fill-opacity:1;" d="M 93.097656 19.804688 C 92.3125 18.914063 91.207031 18.40625 90.035156 18.359375 C 81.003906 18.128906 69.554688 8.464844 62 4.664063 C 57.320313 2.339844 54.242188 0.785156 51.921875 0.382813 C 51.6875 0.355469 51.441406 0.339844 51.210938 0.339844 C 50.980469 0.339844 50.734375 0.355469 50.503906 0.382813 C 48.179688 0.800781 45.101563 2.339844 40.441406 4.679688 C 32.871094 8.464844 21.4375 18.128906 12.386719 18.359375 C 11.21875 18.40625 10.109375 18.914063 9.324219 19.804688 C 8.523438 20.695313 8.125 21.882813 8.171875 23.097656 C 10.125 62.585938 24.28125 87.019531 49.132813 101.207031 C 49.78125 101.578125 50.488281 101.777344 51.210938 101.777344 C 51.933594 101.777344 52.644531 101.578125 53.289063 101.207031 C 78.140625 87.019531 92.296875 62.585938 94.253906 23.097656 C 94.300781 21.882813 93.898438 20.695313 93.097656 19.804688 Z M 55.152344 74.585938 C 54.042969 75.570313 52.765625 76.0625 51.351563 76.0625 C 49.917969 76.0625 48.640625 75.570313 47.535156 74.601563 C 46.457031 73.617188 45.902344 72.402344 45.902344 70.96875 C 45.902344 69.507813 46.457031 68.292969 47.535156 67.355469 C 48.613281 66.355469 49.890625 65.847656 51.351563 65.847656 C 52.796875 65.847656 54.074219 66.355469 55.152344 67.355469 C 56.214844 68.292969 56.765625 69.507813 56.765625 70.96875 C 56.765625 72.402344 56.214844 73.617188 55.152344 74.585938 Z M 65.355469 40.734375 C 64.722656 42.148438 63.9375 43.472656 63.015625 44.671875 C 62.089844 45.839844 61.089844 46.902344 60.015625 47.84375 C 58.96875 48.71875 57.984375 49.628906 57.074219 50.519531 C 56.199219 51.382813 55.460938 52.289063 54.890625 53.226563 C 54.335938 54.121094 54.058594 55.105469 54.058594 56.183594 C 54.058594 57.121094 54.183594 57.984375 54.414063 58.738281 L 54.488281 59.015625 C 54.535156 59.089844 54.566406 59.183594 54.566406 59.277344 C 54.566406 59.539063 54.351563 59.769531 54.074219 59.769531 C 54.074219 59.769531 54.058594 59.769531 54.058594 59.769531 L 47.089844 59.769531 C 46.886719 59.769531 46.71875 59.644531 46.640625 59.460938 L 46.394531 58.859375 C 46.195313 57.8125 46.117188 56.859375 46.117188 55.9375 C 46.117188 54.472656 46.410156 53.105469 47.011719 51.90625 C 47.597656 50.71875 48.335938 49.613281 49.195313 48.597656 C 50.042969 47.597656 50.980469 46.609375 51.980469 45.6875 C 52.9375 44.78125 53.84375 43.871094 54.691406 42.996094 C 55.488281 42.148438 56.183594 41.257813 56.722656 40.316406 C 57.246094 39.441406 57.507813 38.441406 57.507813 37.378906 C 57.507813 36.4375 57.320313 35.59375 56.9375 34.902344 C 56.566406 34.191406 56.042969 33.609375 55.367188 33.132813 C 54.691406 32.636719 53.90625 32.285156 53.042969 32.054688 C 52.152344 31.808594 51.179688 31.683594 50.164063 31.683594 C 46.886719 31.683594 43.6875 33.175781 40.6875 36.148438 C 40.546875 36.285156 40.332031 36.332031 40.148438 36.238281 C 39.964844 36.164063 39.839844 35.992188 39.839844 35.792969 L 39.839844 27.792969 C 39.839844 27.621094 39.933594 27.453125 40.085938 27.375 C 43.933594 25.128906 47.980469 23.992188 52.105469 23.992188 C 54.011719 23.992188 55.84375 24.238281 57.550781 24.730469 C 59.261719 25.222656 60.785156 25.976563 62.078125 26.960938 C 63.367188 27.945313 64.398438 29.175781 65.152344 30.652344 C 65.890625 32.117188 66.277344 33.855469 66.277344 35.792969 C 66.277344 37.625 65.96875 39.285156 65.355469 40.734375 Z "/>
</g>
</svg>
