<?xml version="1.0" encoding="UTF-8"?>
<svg xmlns="http://www.w3.org/2000/svg" xmlns:xlink="http://www.w3.org/1999/xlink" width="104pt" height="104pt" viewBox="0 0 104 104" version="1.1">
<g id="surface1">
<path style=" stroke:none;fill-rule:nonzero;fill:#5B5B5B;fill-opacity:1;" d="M 0 0 L 0 90.605469 L 27.574219 102.425781 L 51.210938 90.605469 L 78.789063 102.425781 L 102.425781 90.605469 L 102.425781 0 L 78.789063 11.816406 L 51.210938 0 L 27.574219 11.816406 Z M 51.582031 8.617188 L 79.15625 20.4375 L 94.546875 12.558594 L 94.546875 85.4375 L 78.417969 93.3125 L 54.414063 83.097656 L 50.84375 81.496094 L 27.207031 93.3125 L 7.878906 85.4375 L 7.878906 11.816406 L 27.945313 20.4375 Z M 51.210938 23.636719 C 43.332031 23.636719 35.453125 28.761719 35.453125 39.394531 L 44.5625 39.394531 C 44.5625 33.085938 47.273438 31.515625 51.210938 31.515625 C 54.367188 31.515625 56.75 33.515625 56.75 37.054688 C 56.75 42.964844 46.902344 43.734375 46.902344 55.152344 L 55.152344 55.152344 C 55.152344 46.085938 66.96875 47.71875 66.96875 36.6875 C 66.96875 28.808594 60.660156 23.636719 51.210938 23.636719 Z M 51.210938 63.03125 C 48.457031 63.03125 46.042969 65.445313 46.042969 68.199219 C 46.042969 70.957031 48.457031 73.25 51.210938 73.25 C 53.964844 73.25 56.382813 70.957031 56.382813 68.199219 C 56.382813 65.445313 53.964844 63.03125 51.210938 63.03125 Z "/>
</g>
</svg>
