<?xml version="1.0" encoding="UTF-8"?>
<svg xmlns="http://www.w3.org/2000/svg" xmlns:xlink="http://www.w3.org/1999/xlink" width="104pt" height="104pt" viewBox="0 0 104 104" version="1.1">
<g id="surface1">
<path style=" stroke:none;fill-rule:nonzero;fill:#5B5B5B;fill-opacity:1;" d="M 93.097656 19.804688 C 92.3125 18.914063 91.207031 18.40625 90.035156 18.359375 C 81.003906 18.128906 69.554688 8.464844 62 4.664063 C 57.320313 2.339844 54.242188 0.785156 51.921875 0.382813 C 51.6875 0.355469 51.441406 0.339844 51.210938 0.339844 C 50.980469 0.339844 50.734375 0.355469 50.503906 0.382813 C 48.179688 0.800781 45.101563 2.339844 40.441406 4.679688 C 32.871094 8.464844 21.4375 18.128906 12.386719 18.359375 C 11.21875 18.40625 10.109375 18.914063 9.324219 19.804688 C 8.523438 20.695313 8.125 21.882813 8.171875 23.097656 C 10.125 62.585938 24.28125 87.019531 49.132813 101.207031 C 49.78125 101.578125 50.488281 101.777344 51.210938 101.777344 C 51.933594 101.777344 52.644531 101.578125 53.289063 101.207031 C 78.140625 87.019531 92.296875 62.585938 94.253906 23.097656 C 94.300781 21.882813 93.898438 20.695313 93.097656 19.804688 Z M 69.753906 52.042969 C 68.632813 55.136719 62.324219 69.585938 44.273438 66.355469 C 43.734375 68.230469 42.441406 72.324219 42.039063 73.585938 C 41.964844 73.816406 41.855469 73.832031 41.703125 73.617188 C 40.164063 71.308594 31.285156 57.921875 31.113281 57.644531 C 30.914063 57.351563 31.238281 57.214844 31.238281 57.214844 C 31.238281 57.214844 47.765625 49.628906 48.289063 49.394531 C 48.8125 49.148438 48.671875 49.75 48.671875 49.75 L 46.535156 57.519531 C 46.535156 57.519531 49.074219 59.042969 54.058594 58.9375 C 61.398438 58.78125 67.800781 53.457031 69.507813 51.90625 C 69.800781 51.628906 69.894531 51.671875 69.753906 52.042969 Z M 71.046875 37.484375 C 70.570313 37.714844 56.660156 43.964844 53.828125 45.378906 C 53.289063 45.65625 53.429688 45.132813 53.429688 45.132813 L 55.644531 37.132813 C 55.644531 37.132813 53.074219 35.578125 48.011719 35.683594 C 40.808594 35.839844 34.515625 40.886719 32.53125 42.65625 C 32.101563 43.027344 31.960938 42.980469 32.144531 42.503906 C 33.453125 39.039063 39.933594 24.929688 57.921875 28.160156 C 58.460938 26.34375 59.660156 22.511719 60.136719 21.050781 C 60.304688 20.542969 60.660156 20.957031 60.660156 20.957031 L 71.21875 36.902344 C 71.21875 36.902344 71.386719 37.316406 71.046875 37.484375 Z "/>
</g>
</svg>
