<?xml version="1.0" encoding="UTF-8"?>
<svg xmlns="http://www.w3.org/2000/svg" xmlns:xlink="http://www.w3.org/1999/xlink" width="104pt" height="104pt" viewBox="0 0 104 104" version="1.1">
<g id="surface1">
<path style=" stroke:none;fill-rule:nonzero;fill:#5B5B5B;fill-opacity:1;" d="M 3.199219 7.878906 C 1.324219 8.234375 -0.03125 9.894531 0 11.816406 L 0 90.605469 C 0 92.777344 1.769531 94.546875 3.9375 94.546875 L 98.484375 94.546875 C 100.65625 94.546875 102.425781 92.777344 102.425781 90.605469 L 102.425781 11.816406 C 102.425781 9.648438 100.65625 7.878906 98.484375 7.878906 L 3.9375 7.878906 C 3.816406 7.878906 3.691406 7.878906 3.570313 7.878906 C 3.445313 7.878906 3.324219 7.878906 3.199219 7.878906 Z M 7.878906 15.757813 L 94.546875 15.757813 L 94.546875 86.667969 L 7.878906 86.667969 Z M 82.605469 23.882813 C 82.390625 23.914063 82.1875 23.945313 81.988281 24.003906 C 80.972656 24.238281 80.082031 24.851563 79.527344 25.730469 L 76.324219 30.285156 L 74.480469 28.808594 C 72.742188 27.484375 70.261719 27.804688 68.9375 29.546875 C 67.617188 31.285156 67.9375 33.761719 69.679688 35.085938 L 74.847656 39.023438 C 75.695313 39.65625 76.757813 39.917969 77.804688 39.746094 C 78.835938 39.59375 79.773438 39.023438 80.386719 38.164063 L 85.929688 30.285156 C 86.914063 29.070313 87.082031 27.390625 86.359375 26.007813 C 85.636719 24.605469 84.160156 23.773438 82.605469 23.882813 Z M 19.695313 27.574219 L 19.695313 35.453125 L 59.089844 35.453125 L 59.089844 27.574219 Z M 82.605469 43.578125 C 82.390625 43.609375 82.1875 43.640625 81.988281 43.703125 C 80.972656 43.933594 80.082031 44.550781 79.527344 45.425781 L 76.324219 49.980469 L 74.480469 48.503906 C 72.742188 47.179688 70.261719 47.503906 68.9375 49.242188 C 67.617188 50.980469 67.9375 53.457031 69.679688 54.78125 L 74.847656 58.722656 C 75.695313 59.351563 76.757813 59.613281 77.804688 59.445313 C 78.835938 59.289063 79.773438 58.722656 80.386719 57.859375 L 85.929688 49.980469 C 86.914063 48.765625 87.082031 47.089844 86.359375 45.703125 C 85.636719 44.304688 84.160156 43.472656 82.605469 43.578125 Z M 19.695313 47.273438 L 19.695313 55.152344 L 59.089844 55.152344 L 59.089844 47.273438 Z M 82.605469 63.277344 C 82.390625 63.308594 82.1875 63.339844 81.988281 63.398438 C 80.972656 63.628906 80.082031 64.246094 79.527344 65.125 L 76.324219 69.679688 L 74.480469 68.199219 C 72.742188 66.878906 70.261719 67.199219 68.9375 68.9375 C 67.617188 70.679688 67.9375 73.15625 69.679688 74.480469 L 74.847656 78.417969 C 75.695313 79.050781 76.757813 79.3125 77.804688 79.140625 C 78.835938 78.988281 79.773438 78.417969 80.386719 77.558594 L 85.929688 69.679688 C 86.914063 68.460938 87.082031 66.785156 86.359375 65.398438 C 85.636719 64 84.160156 63.167969 82.605469 63.277344 Z M 19.695313 66.96875 L 19.695313 74.847656 L 59.089844 74.847656 L 59.089844 66.96875 Z "/>
</g>
</svg>
