<?xml version="1.0" encoding="UTF-8"?>
<svg xmlns="http://www.w3.org/2000/svg" xmlns:xlink="http://www.w3.org/1999/xlink" width="104pt" height="104pt" viewBox="0 0 104 104" version="1.1">
<g id="surface1">
<path style=" stroke:none;fill-rule:nonzero;fill:#5B5B5B;fill-opacity:1;" d="M 93.097656 19.804688 C 92.3125 18.914063 91.207031 18.40625 90.035156 18.359375 C 81.003906 18.128906 69.554688 8.464844 62 4.664063 C 57.320313 2.339844 54.242188 0.785156 51.921875 0.382813 C 51.671875 0.355469 51.441406 0.339844 51.210938 0.339844 C 50.980469 0.339844 50.75 0.355469 50.503906 0.382813 C 48.179688 0.800781 45.101563 2.339844 40.441406 4.679688 C 32.871094 8.464844 21.4375 18.128906 12.386719 18.359375 C 11.21875 18.40625 10.109375 18.914063 9.324219 19.804688 C 8.523438 20.695313 8.125 21.882813 8.171875 23.097656 C 10.125 62.585938 24.28125 87.019531 49.132813 101.207031 C 49.78125 101.578125 50.488281 101.777344 51.210938 101.777344 C 51.921875 101.777344 52.644531 101.578125 53.289063 101.207031 C 78.140625 87.019531 92.296875 62.585938 94.238281 23.097656 C 94.300781 21.882813 93.898438 20.695313 93.097656 19.804688 Z M 51.210938 71.140625 C 38.039063 71.140625 27.34375 60.445313 27.34375 47.273438 C 27.34375 34.101563 38.039063 23.40625 51.210938 23.40625 C 64.382813 23.40625 75.078125 34.101563 75.078125 47.273438 C 75.078125 60.445313 64.382813 71.140625 51.210938 71.140625 Z M 60.984375 33.515625 L 37.453125 57.042969 C 35.484375 54.273438 34.300781 50.917969 34.300781 47.273438 C 34.300781 37.949219 41.886719 30.359375 51.210938 30.359375 C 54.859375 30.359375 58.214844 31.546875 60.984375 33.515625 Z M 64.953125 37.5 C 66.9375 40.269531 68.125 43.625 68.125 47.273438 C 68.125 56.597656 60.539063 64.183594 51.210938 64.183594 C 47.566406 64.183594 44.210938 63 41.441406 61.03125 Z "/>
</g>
</svg>
