<?xml version="1.0" encoding="UTF-8"?>
<svg xmlns="http://www.w3.org/2000/svg" xmlns:xlink="http://www.w3.org/1999/xlink" width="104pt" height="104pt" viewBox="0 0 104 104" version="1.1">
<g id="surface1">
<path style=" stroke:none;fill-rule:nonzero;fill:#5B5B5B;fill-opacity:1;" d="M 51.179688 6.402344 C 50.6875 6.402344 50.210938 6.523438 49.78125 6.738281 L 30.578125 16.34375 C 30.269531 16.496094 29.992188 16.695313 29.746094 16.941406 L 16.941406 29.746094 C 16.757813 29.929688 16.589844 30.128906 16.449219 30.359375 L 6.847656 46.363281 C 6.554688 46.855469 6.402344 47.425781 6.402344 48.011719 C 6.402344 48.074219 6.402344 48.132813 6.402344 48.195313 L 6.402344 73.617188 C 6.402344 74.449219 6.726563 75.265625 7.308594 75.847656 C 7.925781 79.203125 8.785156 82.511719 11.15625 84.867188 C 14.820313 88.527344 19.914063 89.804688 25.605469 89.46875 L 25.605469 89.621094 L 89.621094 89.621094 L 89.621094 35.4375 C 89.636719 35.285156 89.636719 35.117188 89.621094 34.960938 L 89.621094 22.40625 L 89.574219 22.40625 C 89.296875 18.003906 87.835938 14.109375 84.867188 11.15625 C 82.511719 8.785156 79.203125 7.925781 75.847656 7.308594 L 75.847656 7.292969 C 75.25 6.726563 74.449219 6.402344 73.617188 6.402344 L 51.210938 6.402344 C 51.195313 6.402344 51.179688 6.402344 51.179688 6.402344 Z M 61.785156 12.804688 L 73.03125 12.804688 C 73.140625 12.832031 73.261719 12.847656 73.386719 12.847656 C 76.449219 13.078125 78.710938 14.050781 80.34375 15.679688 C 82.882813 18.21875 83.804688 22.667969 82.773438 28.46875 L 62.859375 13.542969 L 62.738281 13.433594 C 62.691406 13.402344 62.644531 13.371094 62.585938 13.339844 Z M 50.980469 13.296875 L 57 17.3125 L 51.613281 33.484375 L 33.667969 51.425781 L 17.511719 54.105469 L 13.386719 47.917969 L 21.742188 33.992188 L 33.914063 21.835938 Z M 62.445313 21.234375 L 76.804688 32.007813 L 58.84375 32.007813 Z M 59.136719 38.410156 L 79.449219 38.410156 C 76.679688 44.550781 72.417969 51.136719 66.800781 57.566406 Z M 53.242188 40.902344 L 61.460938 61.460938 L 40.902344 53.242188 Z M 83.21875 45.304688 L 83.21875 78.695313 L 69.953125 65.429688 L 69.445313 64.167969 C 75.171875 58.015625 79.851563 51.597656 83.21875 45.304688 Z M 31.609375 58.261719 L 29.835938 75.925781 L 21.003906 60.03125 Z M 12.804688 58.582031 L 13.265625 59.277344 L 26.421875 82.957031 C 21.652344 83.433594 17.898438 82.558594 15.679688 80.34375 C 15.679688 80.34375 15.664063 80.34375 15.664063 80.34375 C 14.035156 78.710938 13.078125 76.464844 12.847656 73.386719 C 12.847656 73.25 12.832031 73.125 12.804688 73 Z M 37.976563 58.984375 L 57.582031 66.816406 C 50.242188 73.203125 42.640625 77.925781 35.808594 80.574219 Z M 64.167969 69.445313 L 65.429688 69.953125 L 78.695313 83.21875 L 45.320313 83.21875 C 51.628906 79.851563 58.027344 75.171875 64.167969 69.445313 Z "/>
</g>
</svg>
