<?xml version="1.0" encoding="UTF-8"?>
<svg xmlns="http://www.w3.org/2000/svg" xmlns:xlink="http://www.w3.org/1999/xlink" width="104pt" height="104pt" viewBox="0 0 104 104" version="1.1">
<g id="surface1">
<path style=" stroke:none;fill-rule:nonzero;fill:#5B5B5B;fill-opacity:1;" d="M 27.082031 11.941406 C 26.050781 12.09375 24.960938 12.632813 24.375 13.417969 L 18.464844 21.296875 C 18.066406 21.699219 18.128906 22.003906 17.726563 22.40625 L 15.757813 31.144531 L 15.757813 19.695313 C 15.757813 17.328125 14.1875 15.757813 11.816406 15.757813 C 9.449219 15.757813 7.878906 17.328125 7.878906 19.695313 L 7.878906 36.6875 C 7.878906 41.410156 6.695313 43.734375 3.9375 45.304688 L 0 47.273438 L 0 72.140625 L 11.816406 68.570313 C 13.003906 68.171875 14.574219 68.171875 15.757813 68.570313 L 26.34375 70.910156 C 28.3125 71.308594 30.285156 71.324219 32.253906 70.539063 L 38.65625 68.570313 C 39.839844 68.171875 40.949219 66.921875 41.734375 65.738281 L 47.273438 53.550781 C 47.273438 53.550781 45.304688 51.582031 43.332031 51.582031 C 39.394531 51.582031 37.792969 53.964844 33.855469 59.089844 L 29.546875 59.089844 C 27.976563 59.089844 26.761719 58.320313 25.976563 56.75 L 24.003906 52.8125 C 23.605469 51.628906 23.605469 50.425781 24.003906 49.242188 L 25.976563 45.304688 C 26.375 44.117188 27.976563 43.332031 29.546875 43.332031 L 35.453125 43.332031 L 40.132813 49.242188 C 41.316406 50.8125 44.101563 51.164063 45.671875 49.980469 C 47.242188 48.796875 47.71875 46.132813 46.535156 44.5625 L 40.625 37.054688 C 39.839844 35.871094 38.609375 35.453125 37.425781 35.453125 L 31.515625 35.453125 L 33.855469 31.515625 L 41.363281 26.835938 C 43.332031 25.652344 43.78125 23.265625 42.59375 21.296875 C 41.808594 19.726563 38.992188 19.28125 37.425781 20.066406 L 29.175781 25.238281 C 28.390625 25.636719 27.945313 26.050781 27.945313 26.835938 L 23.265625 34.714844 L 25.605469 25.605469 L 31.144531 18.464844 C 31.929688 16.496094 31.484375 13.742188 29.914063 12.558594 C 29.128906 11.972656 28.113281 11.789063 27.082031 11.941406 Z M 102.425781 30.285156 L 90.605469 33.855469 C 89.421875 34.253906 87.851563 34.253906 86.667969 33.855469 L 76.078125 31.515625 C 74.109375 31.113281 72.140625 31.101563 70.171875 31.882813 L 63.769531 33.855469 C 62.585938 34.253906 61.476563 35.5 60.691406 36.6875 L 55.152344 48.875 C 55.152344 48.875 57.121094 50.84375 59.089844 50.84375 C 63.03125 50.84375 64.628906 48.457031 68.570313 43.332031 L 72.878906 43.332031 C 74.449219 43.332031 75.664063 44.101563 76.449219 45.671875 L 78.417969 49.613281 C 78.820313 50.796875 78.820313 51.996094 78.417969 53.183594 L 76.449219 57.121094 C 75.664063 58.304688 74.449219 59.460938 72.878906 59.460938 L 66.96875 59.460938 L 62.292969 53.550781 C 61.105469 51.980469 58.320313 51.628906 56.75 52.8125 C 55.183594 53.996094 54.707031 56.78125 55.890625 58.351563 L 61.800781 65.738281 C 62.585938 66.523438 63.816406 67.339844 65 67.339844 L 70.910156 67.339844 L 68.570313 71.277344 L 61.0625 76.078125 C 59.089844 77.265625 58.644531 79.527344 59.828125 81.496094 C 61.015625 83.464844 63.398438 83.914063 65.371094 82.726563 L 73.617188 77.558594 L 74.847656 76.449219 L 79.527344 68.570313 L 77.1875 77.558594 L 71.648438 84.695313 C 70.460938 86.265625 70.941406 89.050781 72.507813 90.238281 C 74.078125 91.421875 76.863281 90.945313 78.050781 89.375 L 83.957031 81.496094 C 84.359375 81.097656 84.296875 80.804688 84.695313 80.019531 L 86.667969 71.648438 L 86.667969 82.726563 C 86.667969 85.097656 88.234375 86.667969 90.605469 86.667969 C 92.976563 86.667969 94.546875 85.097656 94.546875 82.726563 L 94.546875 65.738281 C 94.546875 61.015625 95.730469 58.691406 98.484375 57.121094 L 102.425781 55.152344 Z "/>
</g>
</svg>
