<?xml version="1.0" encoding="UTF-8"?>
<svg xmlns="http://www.w3.org/2000/svg" xmlns:xlink="http://www.w3.org/1999/xlink" width="104pt" height="104pt" viewBox="0 0 104 104" version="1.1">
<g id="surface1">
<path style=" stroke:none;fill-rule:nonzero;fill:#5B5B5B;fill-opacity:1;" d="M 93.097656 19.804688 C 92.3125 18.914063 91.207031 18.40625 90.035156 18.359375 C 81.003906 18.128906 69.554688 8.464844 62 4.664063 C 57.320313 2.339844 54.242188 0.785156 51.921875 0.382813 C 51.671875 0.355469 51.441406 0.339844 51.210938 0.339844 C 50.980469 0.339844 50.75 0.355469 50.503906 0.382813 C 48.179688 0.800781 45.101563 2.339844 40.441406 4.679688 C 32.871094 8.464844 21.4375 18.128906 12.386719 18.359375 C 11.21875 18.40625 10.109375 18.914063 9.324219 19.804688 C 8.523438 20.695313 8.125 21.882813 8.171875 23.097656 C 10.125 62.585938 24.28125 87.019531 49.132813 101.207031 C 49.78125 101.578125 50.488281 101.777344 51.210938 101.777344 C 51.921875 101.777344 52.644531 101.578125 53.289063 101.207031 C 78.140625 87.019531 92.296875 62.585938 94.238281 23.097656 C 94.300781 21.882813 93.898438 20.695313 93.097656 19.804688 Z M 71.15625 60.183594 C 71.15625 65.539063 60.90625 66.753906 51.273438 66.753906 C 41.65625 66.753906 31.269531 65.539063 31.269531 60.183594 C 31.269531 59.121094 31.269531 59.769531 31.269531 58.707031 C 31.269531 54.765625 38.363281 50.78125 44.394531 48.613281 C 44.839844 48.441406 46.917969 47.320313 45.765625 44.257813 C 42.765625 41.195313 40.5 36.238281 40.5 31.359375 C 40.5 23.898438 45.441406 19.988281 51.210938 19.988281 C 56.984375 19.988281 61.953125 23.898438 61.953125 31.359375 C 61.953125 36.222656 59.675781 41.148438 56.707031 44.226563 L 56.722656 44.226563 C 55.582031 47.6875 57.398438 48.519531 57.691406 48.613281 C 64.046875 50.703125 71.15625 54.660156 71.15625 58.707031 C 71.15625 59.769531 71.15625 59.136719 71.15625 60.183594 Z "/>
</g>
</svg>
