<?xml version="1.0" encoding="UTF-8"?>
<svg xmlns="http://www.w3.org/2000/svg" xmlns:xlink="http://www.w3.org/1999/xlink" width="104pt" height="104pt" viewBox="0 0 104 104" version="1.1">
<g id="surface1">
<path style=" stroke:none;fill-rule:nonzero;fill:#5B5B5B;fill-opacity:1;" d="M 50.472656 0.371094 C 48.148438 0.769531 45.042969 2.339844 40.378906 4.679688 C 32.808594 8.464844 21.480469 18.113281 12.433594 18.34375 C 11.265625 18.375 10.140625 18.925781 9.355469 19.820313 C 8.554688 20.710938 8.0625 21.929688 8.125 23.144531 C 10.0625 62.628906 24.265625 86.988281 49.121094 101.191406 C 49.765625 101.5625 50.488281 101.808594 51.210938 101.808594 C 51.933594 101.808594 52.660156 101.5625 53.304688 101.191406 C 78.15625 86.988281 92.359375 62.628906 94.300781 23.144531 C 94.359375 21.929688 93.867188 20.710938 93.066406 19.820313 C 92.285156 18.925781 91.160156 18.375 89.992188 18.34375 C 80.941406 18.113281 69.617188 8.480469 62.046875 4.679688 C 57.367188 2.339844 54.273438 0.769531 51.949219 0.371094 C 51.71875 0.339844 51.441406 0.371094 51.210938 0.371094 C 50.980469 0.371094 50.703125 0.339844 50.472656 0.371094 Z M 51.210938 23.390625 C 64.382813 23.390625 75.09375 34.085938 75.09375 47.273438 C 75.09375 60.460938 64.382813 71.15625 51.210938 71.15625 C 38.039063 71.15625 27.328125 60.460938 27.328125 47.273438 C 27.328125 34.085938 38.039063 23.390625 51.210938 23.390625 Z M 47.886719 29.175781 C 46.980469 29.253906 45.949219 29.53125 45.425781 29.667969 C 43.796875 30.113281 42.363281 31.191406 40.996094 32.128906 C 39.457031 33.175781 37.269531 34.023438 36.316406 35.699219 C 35.917969 36.410156 36.070313 36.886719 36.316406 37.300781 C 36.59375 37.777344 36.871094 38.253906 36.316406 38.902344 C 35.777344 39.53125 34.902344 39.59375 35.085938 40.625 C 35.378906 42.300781 38.179688 41.871094 39.269531 42.59375 C 39.917969 43.027344 40.5 43.71875 40.007813 44.5625 C 39.472656 45.472656 38.363281 45.117188 37.546875 45.304688 C 36.699219 45.503906 36.347656 45.6875 35.699219 46.289063 C 34.300781 47.582031 33.390625 49.132813 33.484375 51.089844 C 33.578125 53.226563 34.992188 55.707031 36.808594 56.875 C 37.714844 57.460938 37.902344 57.507813 38.53125 58.597656 C 40.332031 61.644531 44.101563 65.816406 48.011719 65.617188 C 48.765625 65.570313 46.257813 57.074219 46.164063 56.382813 C 45.625 52.660156 50.351563 48.75 48.257813 45.058594 C 47.351563 43.457031 45.917969 44.855469 44.441406 44.933594 C 43.765625 44.964844 41.917969 44.332031 41.734375 43.578125 C 41.363281 42.101563 43.703125 39.992188 45.058594 40.75 C 46.179688 41.378906 45.535156 43.332031 47.027344 42.347656 C 49.058594 41.007813 49.164063 38.054688 49.734375 35.945313 C 50.164063 34.378906 51.8125 30.867188 50.105469 29.546875 C 49.65625 29.207031 48.796875 29.097656 47.886719 29.175781 Z M 59.582031 30.652344 C 59.335938 30.636719 59.199219 30.882813 58.84375 31.390625 C 57.96875 32.652344 57.722656 34.625 57.246094 36.070313 C 56.675781 37.824219 56.089844 40.226563 57.613281 41.609375 C 59.691406 43.519531 61.875 41.394531 64.136719 42.226563 C 66.96875 43.257813 63.046875 45.058594 61.921875 45.796875 C 60.507813 46.71875 58.597656 48.472656 59.335938 50.351563 C 59.628906 51.105469 60.597656 51.503906 61.183594 51.949219 C 62.105469 52.660156 62.367188 53.183594 62.660156 54.289063 C 63.078125 55.890625 63.0625 57.890625 62.414063 59.460938 C 61.738281 61.089844 60.152344 62.078125 59.335938 63.523438 C 60.9375 63.769531 63.230469 61.414063 64.136719 60.320313 C 65.523438 58.660156 66.878906 56.582031 67.832031 54.660156 C 69.046875 52.242188 68.816406 48.671875 68.816406 46.042969 C 68.816406 43.734375 68.476563 41.425781 67.339844 39.394531 C 67.0625 38.871094 66.691406 38.347656 66.355469 37.792969 C 65.460938 36.285156 64.398438 34.746094 63.277344 33.609375 C 62.460938 32.777344 61.613281 32.085938 60.691406 31.390625 C 60.167969 31.007813 59.828125 30.667969 59.582031 30.652344 Z "/>
</g>
</svg>
